<?xml version="1.0" encoding="utf-8"?>
<!-- Generator: Python script. InTeResTinG -->
<!DOCTYPE svg PUBLIC "-//W3C//DTD SVG 1.1//EN" "http://www.w3.org/Graphics/SVG/1.1/DTD/svg11.dtd">
<svg version="1.1" id="Layer_1" xmlns="http://www.w3.org/2000/svg" xmlns:xlink="http://www.w3.org/1999/xlink" x="0px" y="0px" width="600.000px" height="600.000px" viewBox="0 0 600.000 600.000" enable-background="new 0 0 600.000 600.000" xml:space="preserve">
<polygon fill="#0d957b" points="261.918,485.467 24.630,574.525 529.323,555.986  "/>
<polygon fill="#a2ee19" points="280.827,20.562 58.825,287.732 107.406,543.700  "/>
<polygon fill="#bf1215" points="549.277,48.221 71.810,41.423 391.035,248.622  "/>
<polygon fill="#f63e62" points="392.436,95.960 201.568,299.134 272.954,188.932  "/>
<polygon fill="#91b246" points="401.599,232.558 297.093,530.323 25.957,26.810  "/>
<polygon fill="#7acddb" points="248.405,114.116 428.122,64.912 263.155,241.221  "/>
<polygon fill="#3241c0" points="51.060,424.160 571.942,87.401 80.870,284.460  "/>
<polygon fill="#c15c31" points="24.803,434.884 441.047,488.347 371.403,65.655  "/>
<polygon fill="#e5be95" points="66.691,309.914 486.970,480.946 475.195,98.604  "/>
<polygon fill="#7d43de" points="327.100,521.165 221.637,226.269 240.080,103.518  "/>
<polygon fill="#43a2b3" points="271.014,106.735 309.292,47.386 197.865,310.259  "/>
<polygon fill="#80aeab" points="289.394,476.002 575.114,75.215 240.009,169.064  "/>
<polygon fill="#12eec0" points="190.599,212.103 227.592,329.833 86.455,197.302  "/>
<polygon fill="#69733a" points="353.152,366.203 507.919,36.950 216.954,469.747  "/>
<polygon fill="#f55b6d" points="460.668,552.270 329.274,230.907 414.261,323.706  "/>
<polygon fill="#513334" points="31.198,580.680 287.347,151.186 352.898,431.197  "/>
<polygon fill="#dcf09a" points="526.042,7.879 111.409,60.375 196.080,140.450  "/>
<polygon fill="#928a67" points="294.473,163.726 146.130,593.919 186.746,505.705  "/>
<polygon fill="#0aedfd" points="24.894,12.603 160.816,535.242 110.094,210.544  "/>
<polygon fill="#84cc84" points="319.443,107.865 6.234,359.974 556.292,285.497  "/>
<polygon fill="#4e9700" points="161.946,308.447 445.021,207.515 552.536,85.204  "/>
<polygon fill="#6b1d6f" points="401.359,255.439 1.593,378.868 563.671,118.886  "/>
<polygon fill="#789270" points="49.887,412.377 200.024,500.931 497.444,346.470  "/>
<polygon fill="#5b69d9" points="189.235,145.932 415.646,539.392 269.321,386.801  "/>
<polygon fill="#8459c8" points="285.333,129.469 276.394,59.384 328.980,72.986  "/>
<polygon fill="#af4938" points="287.546,41.253 351.522,566.344 557.075,153.918  "/>
<polygon fill="#86b241" points="477.668,124.813 257.556,335.976 416.674,81.392  "/>
<polygon fill="#cf26f8" points="276.353,380.204 112.288,343.745 104.126,521.752  "/>
<polygon fill="#5d0340" points="257.307,285.395 431.908,221.341 245.911,504.578  "/>
<polygon fill="#88381e" points="592.558,292.283 318.338,490.852 438.798,285.711  "/>
<polygon fill="#4e09ce" points="60.545,13.813 314.887,460.057 526.269,38.277  "/>
<polygon fill="#ac00d2" points="149.887,447.272 288.759,17.878 549.355,254.994  "/>
<polygon fill="#f222cc" points="505.929,308.737 310.415,439.084 503.492,16.890  "/>
<polygon fill="#ecb4fd" points="288.600,384.220 538.297,549.443 552.020,502.412  "/>
<polygon fill="#88aa1a" points="330.823,221.735 406.674,498.612 100.538,320.879  "/>
<polygon fill="#e04c40" points="329.605,452.553 492.028,140.672 269.091,7.929  "/>
<polygon fill="#a9ca59" points="478.207,403.951 385.812,98.754 381.169,599.012  "/>
<polygon fill="#b3daab" points="369.336,515.434 496.373,181.041 68.646,372.415  "/>
<polygon fill="#39748b" points="84.948,226.045 148.701,410.935 100.156,169.082  "/>
<polygon fill="#7df9c1" points="143.092,118.482 255.651,438.243 450.715,360.516  "/>
<polygon fill="#2aad33" points="443.783,64.887 48.730,197.838 79.406,101.174  "/>
<polygon fill="#5d503c" points="323.185,467.201 518.280,91.809 286.897,517.425  "/>
<polygon fill="#dc7523" points="410.081,155.107 237.553,469.843 545.956,420.420  "/>
<polygon fill="#7f503a" points="382.364,566.688 364.736,269.289 264.880,590.485  "/>
<polygon fill="#7e8ab3" points="588.141,512.656 237.528,248.384 285.409,62.811  "/>
<polygon fill="#c94ba6" points="238.163,358.783 173.671,537.410 294.614,94.772  "/>
<polygon fill="#4535cf" points="468.347,361.769 346.810,300.205 547.805,4.966  "/>
<polygon fill="#eb80aa" points="176.196,83.077 208.592,289.786 570.727,557.787  "/>
<polygon fill="#c64eb0" points="438.720,375.385 362.011,132.339 145.573,69.163  "/>
<polygon fill="#34dcb1" points="311.030,155.557 219.936,241.392 179.266,420.039  "/>
<polygon fill="#3d3206" points="101.998,510.589 186.111,173.555 511.229,512.711  "/>
<polygon fill="#407a8c" points="31.039,548.822 322.948,196.453 524.611,332.580  "/>
<polygon fill="#1a7e04" points="531.874,440.008 278.143,237.086 33.716,152.789  "/>
<polygon fill="#3e387d" points="333.302,204.656 529.416,54.479 330.061,357.600  "/>
<polygon fill="#9a2e6a" points="482.681,10.234 325.878,151.683 493.498,497.351  "/>
<polygon fill="#8129a9" points="462.698,392.588 15.293,403.926 373.797,588.427  "/>
<polygon fill="#972756" points="381.334,420.035 292.791,375.496 102.967,167.138  "/>
<polygon fill="#81fef2" points="162.070,294.020 291.909,92.415 70.004,45.330  "/>
<polygon fill="#167bcc" points="150.168,66.125 21.378,564.428 133.475,555.055  "/>
<polygon fill="#120c54" points="126.109,330.273 357.101,24.163 2.467,204.367  "/>
<polygon fill="#b0cf07" points="1.136,519.213 207.756,534.692 566.265,328.881  "/>
<polygon fill="#5c85ed" points="465.886,154.264 88.881,145.000 361.238,379.703  "/>
<polygon fill="#cf1140" points="332.694,171.223 451.015,26.766 69.980,569.407  "/>
</svg>