<?xml version="1.0" encoding="utf-8"?>
<!-- Generator: Python script. InTeResTinG -->
<!DOCTYPE svg PUBLIC "-//W3C//DTD SVG 1.1//EN" "http://www.w3.org/Graphics/SVG/1.1/DTD/svg11.dtd">
<svg version="1.1" id="Layer_1" xmlns="http://www.w3.org/2000/svg" xmlns:xlink="http://www.w3.org/1999/xlink" x="0px" y="0px" width="600.000px" height="600.000px" viewBox="0 0 600.000 600.000" enable-background="new 0 0 600.000 600.000" xml:space="preserve">
<polygon fill="#8edb6b" points="75.373,413.851 398.544,372.938 594.964,73.899  "/>
<polygon fill="#1833fd" points="59.821,565.044 382.637,333.086 569.289,346.022  "/>
<polygon fill="#45a974" points="590.317,198.769 214.055,227.546 143.046,404.269  "/>
<polygon fill="#f48ee2" points="131.820,41.814 490.288,503.196 270.553,409.222  "/>
<polygon fill="#2ab8a3" points="486.263,263.986 514.470,567.732 355.281,547.912  "/>
<polygon fill="#fb4522" points="226.372,269.849 299.557,153.172 256.806,416.637  "/>
<polygon fill="#f63794" points="367.739,265.404 593.748,183.213 105.743,555.753  "/>
<polygon fill="#33cd2f" points="440.011,237.180 439.146,124.283 0.874,534.363  "/>
<polygon fill="#310146" points="588.300,75.760 340.547,469.502 60.815,375.030  "/>
<polygon fill="#63f7f4" points="399.097,456.279 106.049,181.079 489.901,278.920  "/>
<polygon fill="#a82334" points="101.382,538.264 392.205,224.117 314.886,403.050  "/>
<polygon fill="#6cc1d8" points="432.135,165.328 340.880,208.627 343.874,114.662  "/>
<polygon fill="#9760a7" points="191.340,432.410 144.667,592.169 542.340,438.595  "/>
<polygon fill="#8e6d36" points="122.839,118.629 584.887,152.176 389.874,568.991  "/>
<polygon fill="#05e229" points="484.908,307.450 81.593,372.017 109.513,3.169  "/>
<polygon fill="#708f57" points="52.935,303.917 270.465,572.652 470.647,391.574  "/>
<polygon fill="#c26f27" points="54.992,170.130 274.915,231.761 71.957,513.644  "/>
<polygon fill="#1e2578" points="546.365,28.788 85.296,245.793 226.300,35.553  "/>
<polygon fill="#01bf38" points="173.594,394.298 110.463,213.581 14.357,95.803  "/>
<polygon fill="#3f1109" points="525.655,142.719 500.280,445.744 49.945,387.854  "/>
<polygon fill="#edc3b9" points="511.386,534.719 356.290,108.909 478.355,370.596  "/>
<polygon fill="#438ade" points="207.021,512.520 265.546,396.971 567.251,585.994  "/>
<polygon fill="#614ad1" points="577.337,170.833 353.819,361.744 36.063,389.786  "/>
<polygon fill="#808470" points="236.150,4.020 13.562,403.896 205.895,152.679  "/>
<polygon fill="#65c1a2" points="342.225,301.647 147.755,355.212 120.138,585.038  "/>
<polygon fill="#00d739" points="163.158,586.950 553.113,439.361 157.095,33.629  "/>
<polygon fill="#b515b2" points="447.510,165.064 130.520,20.971 253.938,352.944  "/>
<polygon fill="#c5149d" points="338.324,489.266 86.365,418.831 262.516,185.217  "/>
<polygon fill="#87fb58" points="365.418,304.702 70.205,458.280 109.550,283.894  "/>
<polygon fill="#a98213" points="597.930,583.194 541.288,505.157 590.984,76.822  "/>
<polygon fill="#36a210" points="288.030,241.313 587.314,189.516 292.811,319.727  "/>
<polygon fill="#79fbed" points="88.193,460.366 534.072,257.527 197.206,310.466  "/>
<polygon fill="#350bb6" points="95.805,365.544 0.076,371.746 375.295,306.674  "/>
<polygon fill="#c56e8a" points="86.992,390.116 191.282,89.294 523.409,571.872  "/>
<polygon fill="#9f7550" points="352.893,483.416 419.204,482.860 285.869,390.963  "/>
<polygon fill="#aab4ea" points="585.283,208.866 1.107,341.566 16.815,137.516  "/>
<polygon fill="#02b5e9" points="430.550,341.177 159.379,320.852 68.754,182.286  "/>
<polygon fill="#e3e521" points="594.700,449.991 162.905,48.583 103.993,312.514  "/>
<polygon fill="#999ee0" points="209.108,503.008 45.818,344.611 441.756,287.056  "/>
<polygon fill="#a6653c" points="346.457,9.443 244.230,14.360 119.495,538.705  "/>
<polygon fill="#0758be" points="569.355,72.860 75.451,530.494 336.832,521.760  "/>
<polygon fill="#2d9407" points="307.658,319.635 560.299,182.610 415.301,592.553  "/>
<polygon fill="#cd4d35" points="505.447,384.105 122.003,541.338 393.906,350.481  "/>
<polygon fill="#eab521" points="300.324,69.687 334.631,441.269 451.442,532.199  "/>
<polygon fill="#d55dd9" points="291.006,457.226 554.434,358.598 81.175,115.590  "/>
<polygon fill="#e73ba4" points="576.788,264.709 440.458,508.457 54.515,381.649  "/>
<polygon fill="#e28078" points="131.293,409.807 433.869,67.465 173.099,111.149  "/>
<polygon fill="#7ccffb" points="87.706,471.958 510.716,48.427 496.731,297.004  "/>
<polygon fill="#bf1c3e" points="187.470,457.733 243.377,410.958 84.086,193.334  "/>
<polygon fill="#16faa6" points="481.894,274.679 326.489,349.730 24.138,318.760  "/>
<polygon fill="#9e3035" points="234.172,273.402 593.856,566.602 14.161,536.808  "/>
<polygon fill="#6a09d4" points="339.792,440.301 147.274,282.796 501.373,219.811  "/>
<polygon fill="#c2ab3b" points="563.919,352.334 294.495,409.765 378.912,571.381  "/>
<polygon fill="#be099e" points="4.799,365.379 109.517,214.903 364.164,332.053  "/>
</svg>