<?xml version="1.0" encoding="utf-8"?>
<!-- Generator: Python script. InTeResTinG -->
<!DOCTYPE svg PUBLIC "-//W3C//DTD SVG 1.1//EN" "http://www.w3.org/Graphics/SVG/1.1/DTD/svg11.dtd">
<svg version="1.1" id="Layer_1" xmlns="http://www.w3.org/2000/svg" xmlns:xlink="http://www.w3.org/1999/xlink" x="0px" y="0px" width="600.000px" height="600.000px" viewBox="0 0 600.000 600.000" enable-background="new 0 0 600.000 600.000" xml:space="preserve">
<polygon fill="#fd05cc" points="207.767,54.725 458.983,444.253 429.237,520.514  "/>
<polygon fill="#c72ed5" points="13.441,527.952 57.835,267.750 189.943,188.689  "/>
<polygon fill="#05e187" points="506.772,549.993 393.457,299.363 130.807,237.816  "/>
<polygon fill="#467c28" points="145.148,443.667 554.214,90.829 187.659,499.833  "/>
<polygon fill="#13ccfe" points="488.199,63.847 102.838,599.279 339.922,18.605  "/>
<polygon fill="#c32430" points="161.220,599.494 295.453,249.418 410.700,387.574  "/>
<polygon fill="#4a6c27" points="42.469,166.959 30.450,399.570 276.545,201.552  "/>
<polygon fill="#3864e7" points="103.770,486.803 567.697,589.744 43.742,68.650  "/>
<polygon fill="#bed18c" points="405.238,52.489 459.276,335.628 445.098,361.989  "/>
<polygon fill="#d81acd" points="344.848,70.535 554.743,39.847 468.365,267.342  "/>
<polygon fill="#9c0e9f" points="101.626,360.563 547.896,559.853 15.292,403.502  "/>
<polygon fill="#0224b7" points="164.535,77.806 111.586,321.294 459.049,92.256  "/>
<polygon fill="#1cfee6" points="398.918,274.845 9.423,582.895 153.402,442.252  "/>
<polygon fill="#51aefa" points="361.823,591.191 197.572,515.096 105.917,124.064  "/>
<polygon fill="#2d65ca" points="0.899,190.992 403.495,238.205 189.828,291.031  "/>
<polygon fill="#3c91a0" points="116.485,420.440 178.247,519.236 248.230,479.248  "/>
<polygon fill="#d89730" points="157.137,549.695 142.882,499.407 558.217,32.177  "/>
<polygon fill="#96bcfb" points="4.571,288.090 80.403,375.994 78.561,109.740  "/>
<polygon fill="#31ce34" points="19.575,443.011 23.557,486.267 115.483,560.834  "/>
<polygon fill="#41abcb" points="121.416,547.541 572.628,470.248 510.044,300.026  "/>
<polygon fill="#74f268" points="448.621,204.079 495.304,322.593 7.554,559.778  "/>
<polygon fill="#15eb17" points="117.559,191.392 180.435,93.840 370.610,575.076  "/>
<polygon fill="#11e469" points="292.037,451.531 559.178,286.013 115.401,165.770  "/>
<polygon fill="#118ec4" points="201.058,491.214 128.438,142.366 120.543,401.373  "/>
<polygon fill="#42ea96" points="361.646,57.756 43.442,557.606 575.627,552.414  "/>
<polygon fill="#7b69dc" points="471.577,316.823 439.856,580.414 546.673,584.604  "/>
<polygon fill="#4cee72" points="367.142,130.962 401.855,262.156 509.689,9.214  "/>
<polygon fill="#4d135d" points="111.305,566.860 181.341,387.798 511.463,580.580  "/>
<polygon fill="#29ae71" points="593.985,581.880 368.747,503.468 499.267,358.663  "/>
<polygon fill="#0a9ca3" points="186.814,217.486 365.722,392.268 491.876,432.180  "/>
<polygon fill="#8bf787" points="459.570,53.328 179.228,53.977 486.314,227.565  "/>
<polygon fill="#380ceb" points="156.661,441.594 192.723,207.254 409.526,288.122  "/>
<polygon fill="#a49802" points="489.427,500.742 357.724,206.156 344.167,489.725  "/>
<polygon fill="#85e670" points="235.090,128.950 401.404,480.396 556.021,29.882  "/>
<polygon fill="#f6de4f" points="157.415,211.662 299.040,484.797 43.479,383.314  "/>
<polygon fill="#d8531c" points="204.159,494.393 374.471,55.415 474.049,168.883  "/>
<polygon fill="#4ac5dd" points="591.913,474.416 248.149,270.436 573.678,334.490  "/>
<polygon fill="#dac1d7" points="273.193,245.812 585.227,585.954 448.617,234.993  "/>
<polygon fill="#fb12de" points="169.062,61.155 388.028,490.457 286.378,576.070  "/>
<polygon fill="#8c2589" points="91.382,297.858 174.135,170.132 516.550,497.764  "/>
<polygon fill="#1a841a" points="290.148,455.940 295.317,275.055 274.932,323.001  "/>
<polygon fill="#8c12c4" points="599.068,201.763 368.672,0.047 240.583,89.925  "/>
<polygon fill="#a9978d" points="354.962,0.465 17.172,460.572 419.036,515.918  "/>
<polygon fill="#b1d3eb" points="4.821,285.192 395.131,539.471 548.161,224.059  "/>
<polygon fill="#613a87" points="23.952,253.080 470.765,310.991 13.529,244.365  "/>
<polygon fill="#f85324" points="442.808,164.426 459.936,384.249 60.349,509.453  "/>
<polygon fill="#c520f0" points="383.160,429.676 109.197,38.087 350.019,404.809  "/>
<polygon fill="#4a0175" points="192.046,438.093 125.779,459.092 255.976,42.197  "/>
<polygon fill="#a6255c" points="45.111,485.852 40.659,461.773 68.547,558.878  "/>
<polygon fill="#5fcef4" points="526.075,401.662 385.832,195.702 312.851,387.532  "/>
<polygon fill="#f6f263" points="486.185,325.522 183.299,380.602 202.057,524.792  "/>
<polygon fill="#1b9409" points="327.455,401.300 205.019,388.850 89.944,73.945  "/>
<polygon fill="#d12f46" points="320.692,272.600 322.911,13.145 62.241,539.476  "/>
<polygon fill="#32236a" points="49.558,488.275 458.959,363.125 463.882,11.788  "/>
<polygon fill="#e5d80b" points="121.210,81.495 231.249,94.208 498.756,35.277  "/>
<polygon fill="#ae76ac" points="570.010,555.269 587.888,44.154 426.509,420.373  "/>
<polygon fill="#333be2" points="120.022,421.857 544.403,334.442 216.274,442.285  "/>
<polygon fill="#a1a51d" points="570.534,345.423 562.067,430.333 264.756,316.733  "/>
<polygon fill="#0e3915" points="584.883,314.868 191.373,185.811 4.901,196.212  "/>
<polygon fill="#059362" points="202.523,425.627 101.388,137.594 324.213,450.975  "/>
</svg>