<?xml version="1.0" encoding="utf-8"?>
<!-- Generator: Python script. InTeResTinG -->
<!DOCTYPE svg PUBLIC "-//W3C//DTD SVG 1.1//EN" "http://www.w3.org/Graphics/SVG/1.1/DTD/svg11.dtd">
<svg version="1.1" id="Layer_1" xmlns="http://www.w3.org/2000/svg" xmlns:xlink="http://www.w3.org/1999/xlink" x="0px" y="0px" width="600.000px" height="600.000px" viewBox="0 0 600.000 600.000" enable-background="new 0 0 600.000 600.000" xml:space="preserve">
<polygon fill="#4e04e2" points="65.198,464.295 307.439,224.838 3.231,63.155  "/>
<polygon fill="#30a29c" points="133.976,323.753 272.822,166.558 544.708,497.733  "/>
<polygon fill="#a1a3e5" points="114.224,589.814 437.138,576.580 396.992,11.323  "/>
<polygon fill="#73b8f7" points="163.289,536.488 468.882,157.182 576.858,233.718  "/>
<polygon fill="#27ce7a" points="41.947,589.140 479.113,182.214 594.004,423.563  "/>
<polygon fill="#4a5182" points="499.077,322.165 281.111,540.689 68.056,524.580  "/>
<polygon fill="#3ee6e8" points="172.786,555.437 590.188,558.215 152.638,4.476  "/>
<polygon fill="#ed5e28" points="231.488,31.842 179.388,78.207 205.180,495.703  "/>
<polygon fill="#6c02b1" points="462.104,343.040 44.342,397.894 453.131,549.495  "/>
<polygon fill="#76659a" points="508.257,324.814 80.223,532.361 314.387,508.542  "/>
<polygon fill="#d16097" points="438.187,293.634 71.570,18.645 424.189,572.362  "/>
<polygon fill="#4c810e" points="248.115,40.216 462.236,222.717 550.874,529.496  "/>
<polygon fill="#555ef4" points="494.266,188.513 151.721,261.414 67.378,187.340  "/>
<polygon fill="#481205" points="38.821,195.081 63.859,217.854 224.193,88.902  "/>
<polygon fill="#0cf3f5" points="577.415,67.066 255.152,255.364 526.722,316.107  "/>
<polygon fill="#4ef9eb" points="225.862,291.681 341.814,440.517 30.254,290.251  "/>
<polygon fill="#a460f6" points="544.573,268.433 101.258,292.383 539.036,559.223  "/>
<polygon fill="#dd4ca0" points="348.589,144.499 208.018,300.866 129.221,1.659  "/>
<polygon fill="#a6fdab" points="152.342,299.058 239.884,296.963 491.335,526.396  "/>
<polygon fill="#dfcf46" points="84.487,170.463 301.940,188.108 526.275,409.340  "/>
<polygon fill="#4dc776" points="55.659,152.641 517.735,228.432 450.578,502.328  "/>
<polygon fill="#83f303" points="559.887,3.483 474.520,11.649 587.501,158.787  "/>
<polygon fill="#b60136" points="176.134,20.686 113.337,345.752 537.979,418.221  "/>
<polygon fill="#3a00dd" points="379.572,200.309 377.505,147.482 207.267,392.073  "/>
<polygon fill="#d16c41" points="559.265,488.172 202.774,211.407 39.319,558.149  "/>
<polygon fill="#704707" points="432.628,132.604 292.088,131.146 219.665,491.312  "/>
<polygon fill="#09751a" points="37.015,509.234 472.473,579.990 587.567,510.536  "/>
<polygon fill="#08bf3e" points="166.492,77.981 425.246,110.707 293.090,237.746  "/>
<polygon fill="#21dec3" points="513.903,441.514 565.638,131.300 139.318,477.622  "/>
<polygon fill="#5c445f" points="370.689,151.198 212.087,523.204 291.530,370.084  "/>
<polygon fill="#d7b94c" points="587.638,349.111 65.673,582.232 183.631,449.335  "/>
<polygon fill="#fbff80" points="427.203,344.181 9.036,377.906 19.021,460.050  "/>
<polygon fill="#b303bd" points="65.455,429.753 96.839,368.467 417.361,499.291  "/>
<polygon fill="#ef9565" points="221.740,270.427 373.394,340.451 4.251,310.700  "/>
<polygon fill="#2ad388" points="316.346,177.608 431.140,6.558 54.118,395.504  "/>
<polygon fill="#ced7a9" points="536.376,489.822 143.967,103.892 316.080,118.018  "/>
<polygon fill="#a53ca7" points="572.643,271.040 257.462,183.321 581.462,371.112  "/>
<polygon fill="#a0070b" points="254.350,290.776 196.724,69.052 82.447,294.224  "/>
<polygon fill="#80849c" points="203.215,286.051 379.678,479.743 315.589,291.774  "/>
<polygon fill="#050da9" points="504.818,247.904 88.447,411.849 596.154,286.735  "/>
<polygon fill="#2f2c19" points="353.643,334.602 182.437,457.552 431.414,164.530  "/>
<polygon fill="#b83ce6" points="251.569,108.398 401.864,68.646 96.436,303.444  "/>
<polygon fill="#bdb733" points="460.429,55.928 548.597,279.004 356.174,242.862  "/>
<polygon fill="#2c505b" points="65.638,231.599 63.562,362.245 454.136,139.719  "/>
<polygon fill="#8467de" points="253.153,224.916 484.903,580.592 560.832,172.727  "/>
<polygon fill="#feca1c" points="411.199,298.674 102.152,6.466 416.086,179.195  "/>
<polygon fill="#99142c" points="230.029,523.272 290.852,87.136 309.120,109.717  "/>
<polygon fill="#445a54" points="110.061,350.929 41.131,340.000 516.442,465.653  "/>
<polygon fill="#f9e885" points="320.499,490.442 598.064,502.764 499.275,283.780  "/>
<polygon fill="#d6a918" points="360.877,93.112 325.357,431.039 223.431,508.838  "/>
<polygon fill="#5e26ba" points="317.331,549.708 560.205,429.429 147.567,98.517  "/>
<polygon fill="#05903e" points="486.950,412.676 25.165,206.813 428.816,304.142  "/>
<polygon fill="#7634dc" points="252.073,62.436 525.337,29.544 415.457,277.655  "/>
<polygon fill="#6f6191" points="229.614,27.438 565.049,354.504 84.412,367.074  "/>
<polygon fill="#73b484" points="265.987,66.819 213.995,568.462 249.420,409.108  "/>
<polygon fill="#a15928" points="61.472,30.790 450.271,90.442 374.225,207.822  "/>
<polygon fill="#1fea42" points="120.615,590.737 586.645,536.883 390.744,61.767  "/>
<polygon fill="#6ece9b" points="583.370,77.461 376.541,257.715 274.769,404.243  "/>
<polygon fill="#50b6da" points="387.191,569.877 287.831,388.749 166.126,51.444  "/>
</svg>