<?xml version="1.0" encoding="utf-8"?>
<!-- Generator: Python script. InTeResTinG -->
<!DOCTYPE svg PUBLIC "-//W3C//DTD SVG 1.1//EN" "http://www.w3.org/Graphics/SVG/1.1/DTD/svg11.dtd">
<svg version="1.1" id="Layer_1" xmlns="http://www.w3.org/2000/svg" xmlns:xlink="http://www.w3.org/1999/xlink" x="0px" y="0px" width="600.000px" height="600.000px" viewBox="0 0 600.000 600.000" enable-background="new 0 0 600.000 600.000" xml:space="preserve">
<polygon fill="#0d5351" points="318.790,443.319 235.811,171.556 405.534,221.146  "/>
<polygon fill="#55f309" points="141.738,25.738 231.260,487.405 68.544,420.886  "/>
<polygon fill="#ad0a83" points="457.756,536.438 7.797,54.998 68.681,62.285  "/>
<polygon fill="#9b7d0e" points="129.298,56.466 371.701,423.268 317.838,226.295  "/>
<polygon fill="#e967c2" points="27.656,24.608 372.392,121.029 392.848,504.049  "/>
<polygon fill="#1377de" points="582.194,354.758 218.786,71.005 115.580,390.059  "/>
<polygon fill="#f00d8b" points="371.643,278.358 534.975,74.013 404.633,547.170  "/>
<polygon fill="#e47bcb" points="423.891,27.667 496.335,78.947 106.264,248.558  "/>
<polygon fill="#5beeac" points="419.648,49.822 484.262,368.807 379.622,109.132  "/>
<polygon fill="#bae451" points="396.435,575.149 459.774,520.310 251.967,6.312  "/>
<polygon fill="#980a7a" points="297.782,339.374 138.932,365.424 244.242,122.467  "/>
<polygon fill="#f22f8c" points="87.358,453.181 297.968,143.108 225.451,443.683  "/>
<polygon fill="#d384e1" points="441.861,323.670 402.152,332.489 78.762,234.561  "/>
<polygon fill="#99abd9" points="126.022,160.767 453.794,25.308 376.441,297.964  "/>
<polygon fill="#6ec953" points="0.841,519.973 597.805,264.511 393.074,47.124  "/>
<polygon fill="#b72c51" points="351.629,43.389 233.643,410.768 99.136,235.020  "/>
<polygon fill="#0b4fc5" points="68.043,89.437 188.442,258.116 288.307,471.862  "/>
<polygon fill="#e41858" points="501.462,410.399 43.559,183.267 224.033,301.652  "/>
<polygon fill="#5fbe60" points="22.600,496.981 445.310,154.552 45.179,558.214  "/>
<polygon fill="#1e3986" points="334.786,555.945 53.351,155.800 24.415,519.282  "/>
<polygon fill="#5bd943" points="461.563,47.785 52.206,243.122 254.005,346.437  "/>
<polygon fill="#cd37ec" points="281.158,498.714 501.537,502.093 499.992,339.016  "/>
<polygon fill="#e9bc4a" points="503.992,438.727 260.566,353.058 45.653,177.223  "/>
<polygon fill="#b537c8" points="45.134,145.319 189.356,225.453 120.241,516.794  "/>
<polygon fill="#e81ed1" points="334.797,443.362 158.831,128.691 382.274,466.611  "/>
<polygon fill="#e4e247" points="513.022,137.511 276.179,109.230 479.338,587.821  "/>
<polygon fill="#5250f7" points="501.352,107.637 24.141,354.770 0.429,576.754  "/>
<polygon fill="#b9e570" points="132.950,89.830 392.362,596.299 287.405,160.279  "/>
<polygon fill="#57178f" points="456.457,197.190 167.603,300.313 457.237,120.177  "/>
<polygon fill="#2c8195" points="166.176,227.584 265.760,552.776 6.758,553.472  "/>
<polygon fill="#437202" points="147.877,424.300 137.973,391.402 341.900,139.462  "/>
<polygon fill="#d77285" points="550.841,213.210 83.448,137.157 152.955,127.668  "/>
<polygon fill="#831c33" points="444.836,299.820 523.363,447.155 135.644,484.606  "/>
<polygon fill="#b4ee66" points="25.461,557.973 283.517,570.115 143.707,43.493  "/>
<polygon fill="#77f2b9" points="49.266,89.527 441.293,180.463 306.223,466.236  "/>
<polygon fill="#bb9cf4" points="351.806,479.934 47.530,333.887 539.084,566.334  "/>
<polygon fill="#04ec98" points="468.062,575.886 15.227,95.864 444.759,540.619  "/>
<polygon fill="#bca4d1" points="526.315,445.709 145.153,10.352 58.885,405.958  "/>
<polygon fill="#bff789" points="329.499,396.356 188.166,70.925 169.563,295.072  "/>
<polygon fill="#14190b" points="196.056,147.456 480.285,287.202 484.340,416.609  "/>
<polygon fill="#c4c145" points="289.483,285.014 240.582,149.776 185.676,78.736  "/>
<polygon fill="#e3dd0d" points="505.970,371.903 249.849,548.778 312.925,210.211  "/>
<polygon fill="#963950" points="493.749,309.728 264.339,26.874 422.380,235.985  "/>
<polygon fill="#2d73ff" points="53.205,599.879 1.758,118.715 163.934,103.955  "/>
<polygon fill="#352023" points="177.955,252.053 81.058,230.200 172.286,303.600  "/>
<polygon fill="#532436" points="379.865,477.215 295.196,390.793 227.478,424.963  "/>
<polygon fill="#bdee64" points="93.025,161.487 26.916,94.790 535.359,548.615  "/>
<polygon fill="#058e8a" points="573.237,331.206 166.272,339.316 571.640,582.227  "/>
<polygon fill="#c145ea" points="268.107,54.447 423.025,550.199 426.627,378.127  "/>
<polygon fill="#51ed1e" points="211.667,112.586 1.873,84.619 244.937,458.814  "/>
<polygon fill="#13bbe1" points="74.375,527.190 418.842,22.270 562.049,158.358  "/>
<polygon fill="#4141e7" points="239.694,516.640 231.514,356.327 325.772,81.241  "/>
</svg>