<?xml version="1.0" encoding="utf-8"?>
<!-- Generator: Python script. InTeResTinG -->
<!DOCTYPE svg PUBLIC "-//W3C//DTD SVG 1.1//EN" "http://www.w3.org/Graphics/SVG/1.1/DTD/svg11.dtd">
<svg version="1.1" id="Layer_1" xmlns="http://www.w3.org/2000/svg" xmlns:xlink="http://www.w3.org/1999/xlink" x="0px" y="0px" width="600.000px" height="600.000px" viewBox="0 0 600.000 600.000" enable-background="new 0 0 600.000 600.000" xml:space="preserve">
<polygon fill="#930945" points="468.121,466.154 155.609,530.600 64.364,429.393  "/>
<polygon fill="#db47fa" points="219.577,577.459 135.946,330.649 53.469,294.326  "/>
<polygon fill="#ce2409" points="91.305,44.598 127.471,99.923 183.515,497.173  "/>
<polygon fill="#e2bb0a" points="382.541,502.847 104.253,279.968 565.803,254.051  "/>
<polygon fill="#255ef6" points="506.131,502.988 49.822,348.594 106.924,539.495  "/>
<polygon fill="#e08ae0" points="283.208,252.189 72.606,371.352 586.118,330.008  "/>
<polygon fill="#78b9fb" points="390.553,236.715 489.313,121.318 415.979,47.939  "/>
<polygon fill="#b49ea3" points="307.849,274.165 182.442,361.032 374.770,279.716  "/>
<polygon fill="#3364fa" points="589.071,377.987 435.297,574.298 245.948,550.775  "/>
<polygon fill="#22e039" points="371.701,449.910 179.176,343.059 200.623,240.906  "/>
<polygon fill="#823d70" points="380.746,558.071 375.724,519.725 209.821,145.315  "/>
<polygon fill="#aeacbf" points="25.231,567.369 105.152,174.987 352.530,561.682  "/>
<polygon fill="#8c1c3e" points="385.799,134.043 70.201,462.991 201.622,524.761  "/>
<polygon fill="#e0a26f" points="116.948,133.525 69.900,496.993 246.783,436.160  "/>
<polygon fill="#df1ef7" points="484.322,540.713 200.850,483.789 154.969,583.055  "/>
<polygon fill="#f96a12" points="214.945,264.429 101.929,427.138 495.897,343.408  "/>
<polygon fill="#cc3444" points="287.386,188.875 539.423,44.274 17.773,489.337  "/>
<polygon fill="#9ea45f" points="368.672,202.337 570.091,319.143 20.698,518.565  "/>
<polygon fill="#f7a8cb" points="428.997,380.469 595.584,224.273 510.437,191.316  "/>
<polygon fill="#d3284a" points="374.903,519.477 135.256,15.632 493.521,146.662  "/>
<polygon fill="#e2d139" points="518.733,530.632 519.466,338.727 197.497,310.827  "/>
<polygon fill="#dc0037" points="514.845,476.318 113.544,26.991 327.041,210.206  "/>
<polygon fill="#7790f0" points="448.319,450.665 60.853,453.829 599.323,66.583  "/>
<polygon fill="#83b906" points="231.294,367.347 50.360,300.856 73.802,437.075  "/>
<polygon fill="#96d381" points="399.694,460.825 276.285,351.889 147.421,121.761  "/>
<polygon fill="#bb0865" points="287.980,27.440 585.736,374.734 186.128,537.377  "/>
<polygon fill="#4cc721" points="386.250,17.716 596.848,47.572 264.493,449.889  "/>
<polygon fill="#d724da" points="79.123,374.660 113.922,205.544 344.639,31.083  "/>
<polygon fill="#4943d7" points="295.320,245.493 163.293,458.562 420.583,176.409  "/>
<polygon fill="#2d4342" points="313.745,568.236 288.990,158.375 125.250,205.495  "/>
<polygon fill="#b4d88c" points="568.817,558.677 365.019,212.609 510.309,532.429  "/>
<polygon fill="#7b4387" points="389.957,525.793 465.756,406.821 159.435,113.576  "/>
<polygon fill="#9f7452" points="582.973,456.217 365.182,246.039 433.772,41.784  "/>
<polygon fill="#ac9ea4" points="75.195,158.790 599.088,494.497 261.293,426.605  "/>
<polygon fill="#ab10c6" points="89.422,477.640 90.078,7.253 143.113,331.688  "/>
<polygon fill="#845ba1" points="549.896,5.631 368.148,251.137 235.136,353.544  "/>
<polygon fill="#a316cf" points="40.197,426.661 410.365,58.420 204.189,36.375  "/>
<polygon fill="#aae333" points="291.661,256.445 545.315,435.870 199.355,248.651  "/>
<polygon fill="#ff2535" points="227.405,69.555 324.507,474.746 484.354,302.285  "/>
<polygon fill="#af8f8e" points="487.543,579.282 261.546,122.893 594.451,2.118  "/>
<polygon fill="#801a72" points="239.960,573.044 164.860,80.310 434.394,477.505  "/>
<polygon fill="#1da4cf" points="429.044,426.350 524.410,381.199 443.972,6.942  "/>
<polygon fill="#df3ef5" points="573.027,229.010 136.529,285.526 150.564,153.534  "/>
<polygon fill="#17d1c1" points="376.801,411.540 201.506,50.077 166.084,311.217  "/>
<polygon fill="#698030" points="392.755,186.631 44.306,540.166 95.341,135.808  "/>
<polygon fill="#19580c" points="262.561,164.100 549.200,40.715 354.399,390.215  "/>
<polygon fill="#8b2b3e" points="524.278,385.587 491.098,266.023 352.065,482.315  "/>
<polygon fill="#2a8ede" points="392.016,80.352 263.867,174.687 119.329,592.449  "/>
<polygon fill="#4e36f7" points="475.082,266.019 274.098,587.122 216.260,233.747  "/>
<polygon fill="#2e73ed" points="83.854,265.918 293.849,546.218 192.080,540.971  "/>
<polygon fill="#600bb4" points="98.017,195.085 149.225,438.853 115.449,443.400  "/>
</svg>