<?xml version="1.0" encoding="utf-8"?>
<!-- Generator: Python script. InTeResTinG -->
<!DOCTYPE svg PUBLIC "-//W3C//DTD SVG 1.1//EN" "http://www.w3.org/Graphics/SVG/1.1/DTD/svg11.dtd">
<svg version="1.1" id="Layer_1" xmlns="http://www.w3.org/2000/svg" xmlns:xlink="http://www.w3.org/1999/xlink" x="0px" y="0px" width="600.000px" height="600.000px" viewBox="0 0 600.000 600.000" enable-background="new 0 0 600.000 600.000" xml:space="preserve">
<polygon fill="#c0f27f" points="264.911,36.238 546.628,35.284 296.923,254.300  "/>
<polygon fill="#db5fbf" points="536.519,5.814 199.498,287.041 157.946,208.514  "/>
<polygon fill="#5b62eb" points="95.868,179.304 384.501,401.458 425.239,530.907  "/>
<polygon fill="#bd6fd7" points="128.131,155.528 109.661,295.620 342.850,216.967  "/>
<polygon fill="#73b3b2" points="126.898,231.908 415.850,429.487 77.234,111.162  "/>
<polygon fill="#05dd8f" points="58.613,178.966 225.536,222.960 56.651,433.242  "/>
<polygon fill="#a65b42" points="269.082,206.544 456.094,239.283 28.709,431.869  "/>
<polygon fill="#59ec29" points="480.648,63.103 407.350,583.743 150.729,136.203  "/>
<polygon fill="#4e82c1" points="418.644,303.926 334.374,530.707 286.955,389.224  "/>
<polygon fill="#9af630" points="539.038,140.045 524.438,512.243 459.654,201.509  "/>
<polygon fill="#4745aa" points="438.013,368.088 539.435,348.377 302.922,499.360  "/>
<polygon fill="#7799a1" points="483.641,137.534 218.313,335.203 49.622,82.990  "/>
<polygon fill="#891e73" points="423.670,294.570 440.619,236.529 158.344,76.682  "/>
<polygon fill="#e10a15" points="188.742,517.894 563.717,186.234 177.185,89.425  "/>
<polygon fill="#29d872" points="309.506,21.246 162.723,81.649 68.935,503.791  "/>
<polygon fill="#c428d8" points="73.144,17.477 303.435,598.013 341.744,118.207  "/>
<polygon fill="#ad9313" points="557.161,276.308 489.538,146.848 359.925,23.908  "/>
<polygon fill="#115cbc" points="420.837,596.686 106.035,374.808 17.634,449.148  "/>
<polygon fill="#706b41" points="433.555,149.858 125.659,192.525 370.217,324.999  "/>
<polygon fill="#ab780e" points="228.469,464.243 122.077,435.866 141.934,519.527  "/>
<polygon fill="#55939c" points="136.947,571.273 468.682,384.337 178.217,152.990  "/>
<polygon fill="#5bbe49" points="159.111,344.613 446.884,554.575 518.496,471.303  "/>
<polygon fill="#7d601e" points="137.218,521.287 126.210,120.635 2.180,465.901  "/>
<polygon fill="#b9340f" points="342.986,177.281 254.460,262.205 59.833,516.775  "/>
<polygon fill="#8a129e" points="298.012,46.897 475.128,233.638 42.199,471.969  "/>
<polygon fill="#53398b" points="90.336,459.881 313.754,80.441 574.324,410.798  "/>
<polygon fill="#4b9642" points="173.170,3.743 441.005,113.948 192.492,94.447  "/>
<polygon fill="#056cd9" points="165.319,443.161 127.205,82.229 121.356,426.794  "/>
<polygon fill="#a596a3" points="377.936,496.914 229.503,551.146 77.666,300.522  "/>
<polygon fill="#eda907" points="328.889,480.589 345.866,256.422 517.670,185.190  "/>
<polygon fill="#8d4370" points="310.628,590.018 546.997,422.838 318.116,44.211  "/>
<polygon fill="#bf4311" points="62.233,339.681 53.698,525.094 479.416,423.433  "/>
<polygon fill="#cf942a" points="392.096,523.973 538.235,515.683 352.031,365.963  "/>
<polygon fill="#c5ec74" points="463.736,84.944 192.251,225.714 291.719,119.542  "/>
<polygon fill="#60a2ef" points="402.527,367.984 22.053,18.258 311.988,480.753  "/>
<polygon fill="#f32386" points="73.637,432.150 98.907,598.516 206.387,333.506  "/>
<polygon fill="#677340" points="137.875,468.669 412.315,519.390 547.831,42.950  "/>
<polygon fill="#2ea74e" points="543.004,395.148 588.916,359.284 23.151,261.599  "/>
<polygon fill="#2563f3" points="151.117,113.079 13.502,201.932 475.643,97.796  "/>
<polygon fill="#4c938a" points="533.886,351.030 325.256,100.360 234.799,340.750  "/>
<polygon fill="#396239" points="511.557,598.930 505.504,379.178 180.925,276.387  "/>
<polygon fill="#337f23" points="218.693,545.700 66.908,308.533 467.612,94.344  "/>
<polygon fill="#b4c237" points="158.446,358.632 115.896,174.680 80.715,467.770  "/>
<polygon fill="#e72a14" points="507.550,119.701 294.401,538.457 205.080,365.935  "/>
<polygon fill="#916e91" points="49.068,296.712 471.785,79.301 139.680,343.704  "/>
<polygon fill="#f107aa" points="402.558,179.429 276.378,213.474 125.315,329.479  "/>
<polygon fill="#3b139c" points="84.048,235.916 575.927,530.625 550.623,190.091  "/>
<polygon fill="#5901f7" points="266.985,467.207 470.200,415.468 516.080,507.744  "/>
<polygon fill="#8c86bf" points="389.392,135.662 127.228,107.728 185.083,383.550  "/>
<polygon fill="#7f8e0c" points="450.892,399.473 284.252,103.291 512.997,85.015  "/>
<polygon fill="#af982d" points="424.032,499.640 416.487,217.492 416.363,320.238  "/>
<polygon fill="#4171de" points="293.685,560.298 96.749,502.648 343.376,284.341  "/>
<polygon fill="#388e6f" points="248.880,598.816 293.058,182.634 245.823,206.010  "/>
<polygon fill="#6ed496" points="410.784,235.189 465.137,353.171 223.443,275.541  "/>
<polygon fill="#6d3593" points="579.530,572.559 503.152,483.712 53.387,226.914  "/>
<polygon fill="#9271d4" points="511.235,409.551 189.955,283.854 55.676,139.915  "/>
<polygon fill="#e7f0f5" points="330.893,275.487 505.029,264.753 322.683,341.931  "/>
<polygon fill="#dbadf9" points="457.510,215.822 548.741,194.558 305.009,100.362  "/>
<polygon fill="#6c262a" points="520.325,459.720 438.156,207.677 321.693,337.670  "/>
<polygon fill="#ade249" points="96.276,7.325 376.765,51.466 9.719,15.897  "/>
</svg>