<?xml version="1.0" encoding="utf-8"?>
<!-- Generator: Python script. InTeResTinG -->
<!DOCTYPE svg PUBLIC "-//W3C//DTD SVG 1.1//EN" "http://www.w3.org/Graphics/SVG/1.1/DTD/svg11.dtd">
<svg version="1.1" id="Layer_1" xmlns="http://www.w3.org/2000/svg" xmlns:xlink="http://www.w3.org/1999/xlink" x="0px" y="0px" width="600.000px" height="600.000px" viewBox="0 0 600.000 600.000" enable-background="new 0 0 600.000 600.000" xml:space="preserve">
<polygon fill="#ea2ee2" points="135.638,483.236 163.974,83.229 367.312,400.690  "/>
<polygon fill="#2a8538" points="413.264,174.911 69.905,314.982 526.242,162.794  "/>
<polygon fill="#1cc2c3" points="114.425,478.189 264.505,357.630 402.109,23.438  "/>
<polygon fill="#6741b1" points="598.814,468.996 573.018,323.673 215.047,174.590  "/>
<polygon fill="#a7ad1c" points="582.793,64.260 46.129,132.279 387.851,470.991  "/>
<polygon fill="#301ca8" points="96.618,93.018 302.270,372.135 379.438,534.864  "/>
<polygon fill="#da2087" points="17.671,117.881 324.397,413.699 488.760,293.611  "/>
<polygon fill="#cf5af0" points="577.629,3.934 398.772,144.156 224.967,494.535  "/>
<polygon fill="#7dc9ac" points="462.189,126.695 173.653,416.571 414.263,531.124  "/>
<polygon fill="#0ed1f3" points="380.737,437.045 81.797,99.035 105.482,235.593  "/>
<polygon fill="#e9be6f" points="338.290,506.311 174.097,228.790 164.804,158.741  "/>
<polygon fill="#127c11" points="294.564,212.986 9.446,390.354 562.470,94.053  "/>
<polygon fill="#a39438" points="173.882,469.804 265.670,144.244 552.843,552.570  "/>
<polygon fill="#a65723" points="571.113,237.682 472.068,33.440 444.850,577.346  "/>
<polygon fill="#e18c85" points="359.896,162.075 350.991,403.408 418.615,181.150  "/>
<polygon fill="#dcbbb8" points="15.571,286.452 221.991,2.318 584.186,29.046  "/>
<polygon fill="#59de2d" points="146.186,90.478 151.501,296.811 462.044,227.012  "/>
<polygon fill="#7ccf03" points="81.825,53.760 72.767,553.483 448.068,12.346  "/>
<polygon fill="#8c8cd3" points="194.647,278.838 409.994,456.399 51.030,147.577  "/>
<polygon fill="#5b9510" points="193.702,299.869 545.415,455.859 14.068,596.150  "/>
<polygon fill="#15f5e9" points="405.606,227.109 355.789,471.408 479.939,151.594  "/>
<polygon fill="#cd122c" points="583.092,259.875 500.607,570.468 130.236,333.190  "/>
<polygon fill="#d35ae1" points="447.735,324.329 118.145,462.489 341.937,93.846  "/>
<polygon fill="#5a550e" points="45.222,222.679 489.471,73.244 279.616,43.332  "/>
<polygon fill="#04ca99" points="269.901,100.557 3.269,374.196 380.436,294.681  "/>
<polygon fill="#d4e36c" points="461.337,328.156 528.853,477.844 577.691,528.479  "/>
<polygon fill="#a068c7" points="139.637,517.780 43.035,404.646 492.338,314.534  "/>
<polygon fill="#1342fb" points="164.830,230.956 465.035,52.552 182.216,528.705  "/>
<polygon fill="#cba255" points="334.311,24.751 323.823,275.474 301.279,247.518  "/>
<polygon fill="#3f304c" points="335.169,418.767 133.158,290.864 310.967,403.617  "/>
<polygon fill="#ce01f8" points="489.340,220.482 220.749,538.693 129.482,187.291  "/>
<polygon fill="#504bf3" points="181.805,589.521 510.029,459.044 10.110,229.370  "/>
<polygon fill="#3dbda5" points="466.855,239.821 68.555,583.190 340.301,328.129  "/>
<polygon fill="#0fe562" points="77.952,248.546 312.175,374.344 594.405,4.047  "/>
<polygon fill="#abeff4" points="332.137,99.292 552.524,373.900 195.637,596.080  "/>
<polygon fill="#11a70f" points="124.558,257.596 397.275,288.974 52.712,8.639  "/>
<polygon fill="#44719b" points="405.858,433.477 469.949,521.757 592.484,400.086  "/>
<polygon fill="#b672e5" points="367.383,89.110 248.232,181.015 204.967,327.951  "/>
<polygon fill="#a71a69" points="593.422,388.754 270.851,216.435 548.660,217.504  "/>
<polygon fill="#91f968" points="256.261,325.300 580.727,564.981 60.615,42.364  "/>
<polygon fill="#6dc19a" points="515.948,308.873 254.739,346.871 73.974,173.565  "/>
<polygon fill="#4ea514" points="126.747,303.720 35.179,321.227 62.391,136.914  "/>
<polygon fill="#bb6240" points="550.151,174.343 117.517,540.312 85.866,38.930  "/>
<polygon fill="#9d1adb" points="156.271,207.919 566.490,187.572 127.249,41.654  "/>
<polygon fill="#96c785" points="127.764,410.400 566.219,155.299 150.872,321.789  "/>
<polygon fill="#3e07f1" points="143.347,563.924 245.283,561.238 122.553,580.948  "/>
<polygon fill="#a78952" points="328.416,546.018 161.319,92.072 581.264,105.938  "/>
<polygon fill="#29df74" points="459.727,338.154 565.279,239.526 156.460,38.032  "/>
<polygon fill="#744aff" points="524.443,249.617 427.686,497.347 486.151,351.065  "/>
<polygon fill="#542611" points="165.040,579.767 489.364,265.642 562.301,353.869  "/>
<polygon fill="#a5a37d" points="276.015,131.661 13.891,541.772 568.021,501.835  "/>
<polygon fill="#20c41b" points="471.868,153.977 548.647,318.600 239.058,437.911  "/>
<polygon fill="#f64150" points="137.513,0.297 449.948,361.094 312.469,215.033  "/>
<polygon fill="#d35a92" points="201.536,383.708 503.158,404.255 543.678,583.602  "/>
<polygon fill="#316f21" points="238.946,154.937 152.594,81.350 83.336,328.610  "/>
<polygon fill="#f8e702" points="219.581,78.372 373.926,577.572 583.067,486.247  "/>
<polygon fill="#cde2fd" points="594.525,572.000 551.249,190.366 166.165,178.450  "/>
<polygon fill="#ebaa03" points="127.194,51.258 89.003,113.428 5.182,262.113  "/>
<polygon fill="#fe3a1b" points="262.396,70.643 226.967,463.425 584.209,416.530  "/>
<polygon fill="#25ba81" points="298.248,66.726 236.150,485.606 491.727,506.269  "/>
<polygon fill="#b08790" points="590.841,277.754 253.841,549.144 185.142,68.057  "/>
<polygon fill="#85e159" points="351.755,104.350 215.030,412.063 60.810,551.899  "/>
<polygon fill="#15bdbf" points="356.115,329.897 32.552,598.572 519.637,286.203  "/>
<polygon fill="#e38147" points="503.813,592.648 396.763,575.552 195.964,348.557  "/>
</svg>