<?xml version="1.0" encoding="utf-8"?>
<!-- Generator: Python script. InTeResTinG -->
<!DOCTYPE svg PUBLIC "-//W3C//DTD SVG 1.1//EN" "http://www.w3.org/Graphics/SVG/1.1/DTD/svg11.dtd">
<svg version="1.1" id="Layer_1" xmlns="http://www.w3.org/2000/svg" xmlns:xlink="http://www.w3.org/1999/xlink" x="0px" y="0px" width="600.000px" height="600.000px" viewBox="0 0 600.000 600.000" enable-background="new 0 0 600.000 600.000" xml:space="preserve">
<polygon fill="#4dfa9b" points="388.523,84.216 54.798,402.203 250.723,188.586  "/>
<polygon fill="#293fa6" points="113.311,4.355 93.097,116.568 121.723,78.952  "/>
<polygon fill="#e1db0d" points="199.510,300.018 380.024,332.258 212.808,138.251  "/>
<polygon fill="#95895f" points="455.246,555.605 246.741,182.128 330.827,374.317  "/>
<polygon fill="#ff3549" points="100.454,487.863 36.288,61.066 123.206,218.935  "/>
<polygon fill="#49112e" points="87.005,131.456 404.536,258.676 145.083,324.277  "/>
<polygon fill="#bc7f4a" points="78.021,388.715 519.153,219.313 473.767,276.429  "/>
<polygon fill="#6ca7dc" points="247.163,287.561 435.418,424.259 69.009,220.913  "/>
<polygon fill="#859457" points="414.770,80.703 26.855,268.382 544.026,57.068  "/>
<polygon fill="#97fe0e" points="89.100,581.085 105.075,7.540 231.785,258.856  "/>
<polygon fill="#1d6234" points="69.012,224.625 473.800,481.211 489.564,429.085  "/>
<polygon fill="#92edd1" points="489.505,113.493 226.814,456.965 112.225,447.283  "/>
<polygon fill="#ece210" points="364.273,476.674 169.407,16.208 44.895,551.276  "/>
<polygon fill="#be142e" points="1.372,287.401 465.105,316.944 319.786,56.393  "/>
<polygon fill="#1aefa9" points="143.865,278.731 436.794,315.800 22.702,14.977  "/>
<polygon fill="#047e26" points="364.591,535.482 353.366,285.146 300.746,180.781  "/>
<polygon fill="#028bce" points="298.042,207.462 82.541,324.556 464.040,168.924  "/>
<polygon fill="#12f544" points="291.025,88.478 274.501,267.911 452.205,433.490  "/>
<polygon fill="#88782c" points="10.299,592.235 513.793,345.648 79.630,132.611  "/>
<polygon fill="#e5f5a4" points="402.079,43.581 95.787,460.419 487.368,195.231  "/>
<polygon fill="#28022e" points="352.189,494.598 486.446,256.501 28.099,316.788  "/>
<polygon fill="#31ad41" points="150.880,430.430 151.070,399.948 138.111,298.840  "/>
<polygon fill="#4b2d62" points="308.691,160.213 175.467,174.836 184.126,429.734  "/>
<polygon fill="#891ab3" points="579.240,145.799 434.915,136.082 164.059,404.981  "/>
<polygon fill="#4d1a81" points="291.466,5.441 574.476,340.296 107.699,560.329  "/>
<polygon fill="#75109b" points="404.395,531.482 535.240,583.688 153.656,337.057  "/>
<polygon fill="#396506" points="120.697,464.501 229.664,293.124 396.853,384.732  "/>
<polygon fill="#2b7657" points="323.143,477.831 121.815,525.912 468.923,554.705  "/>
<polygon fill="#4aed41" points="282.592,287.999 260.063,14.342 206.952,404.226  "/>
<polygon fill="#900d3c" points="525.660,484.716 134.136,463.444 449.669,122.235  "/>
<polygon fill="#87cda6" points="518.364,393.511 584.936,582.827 583.676,221.752  "/>
<polygon fill="#574e59" points="555.563,447.103 66.330,305.749 106.253,402.920  "/>
<polygon fill="#de9248" points="149.020,172.009 186.602,39.750 559.866,344.213  "/>
<polygon fill="#55c2d2" points="72.150,373.623 535.467,176.269 132.379,244.533  "/>
<polygon fill="#901ac4" points="160.497,473.646 142.104,181.896 43.078,474.226  "/>
<polygon fill="#671b01" points="551.447,191.789 373.908,414.460 378.600,396.441  "/>
<polygon fill="#156d7f" points="202.931,368.331 243.747,514.602 77.848,80.904  "/>
<polygon fill="#0482ad" points="440.140,183.313 304.563,58.309 465.843,543.732  "/>
<polygon fill="#e59d7c" points="195.781,258.272 466.067,388.238 528.633,545.724  "/>
<polygon fill="#441da9" points="340.989,277.048 455.453,367.997 252.732,288.647  "/>
<polygon fill="#1f0eb6" points="441.184,476.342 91.897,104.281 159.807,274.316  "/>
<polygon fill="#1694c8" points="344.688,340.612 393.170,124.513 177.344,217.381  "/>
<polygon fill="#d72682" points="274.356,435.498 106.770,521.078 298.750,172.057  "/>
<polygon fill="#4631b0" points="88.166,308.515 436.097,387.533 65.671,11.049  "/>
<polygon fill="#3e7fca" points="480.224,545.048 559.078,444.089 208.372,353.075  "/>
<polygon fill="#339ccb" points="260.768,27.907 153.441,470.953 76.267,229.156  "/>
<polygon fill="#d6bf23" points="489.166,512.846 578.207,164.930 154.047,592.844  "/>
<polygon fill="#cad3db" points="134.456,98.352 37.226,476.139 521.363,99.552  "/>
<polygon fill="#296701" points="415.750,280.549 119.628,324.338 402.797,129.378  "/>
<polygon fill="#66b0aa" points="343.380,0.287 81.062,586.582 193.859,401.680  "/>
<polygon fill="#d5cb21" points="429.524,596.315 490.085,256.999 209.737,135.400  "/>
<polygon fill="#3454e4" points="15.449,93.167 208.161,23.429 45.249,245.425  "/>
<polygon fill="#c05965" points="577.007,522.864 304.111,386.381 493.583,149.227  "/>
<polygon fill="#146f76" points="516.810,292.811 355.719,592.834 137.828,589.392  "/>
<polygon fill="#e18292" points="245.965,536.156 364.296,120.057 17.995,416.010  "/>
<polygon fill="#6aedab" points="391.030,370.023 148.164,594.852 296.477,539.698  "/>
<polygon fill="#c8a01d" points="574.386,23.514 244.367,316.486 248.254,25.515  "/>
<polygon fill="#59b78d" points="416.302,278.913 87.964,518.214 354.844,224.920  "/>
<polygon fill="#2b9d39" points="269.545,442.236 420.230,98.348 411.427,335.489  "/>
<polygon fill="#25c5c0" points="589.938,566.674 329.208,167.969 188.101,519.298  "/>
<polygon fill="#e81da3" points="8.328,131.362 40.094,18.778 581.224,122.397  "/>
<polygon fill="#41e108" points="75.587,226.223 522.085,76.048 427.946,252.267  "/>
<polygon fill="#6207fa" points="544.706,314.148 140.134,504.626 96.852,289.498  "/>
<polygon fill="#13a48b" points="306.545,266.353 232.166,321.086 16.276,54.474  "/>
<polygon fill="#935aa5" points="399.488,208.791 2.619,426.831 241.258,553.891  "/>
<polygon fill="#6694b2" points="264.897,525.557 264.049,25.008 567.784,204.762  "/>
<polygon fill="#ec7c33" points="170.277,164.660 363.912,347.514 222.289,479.532  "/>
</svg>