<?xml version="1.0" encoding="utf-8"?>
<!-- Generator: Python script. InTeResTinG -->
<!DOCTYPE svg PUBLIC "-//W3C//DTD SVG 1.1//EN" "http://www.w3.org/Graphics/SVG/1.1/DTD/svg11.dtd">
<svg version="1.1" id="Layer_1" xmlns="http://www.w3.org/2000/svg" xmlns:xlink="http://www.w3.org/1999/xlink" x="0px" y="0px" width="600.000px" height="600.000px" viewBox="0 0 600.000 600.000" enable-background="new 0 0 600.000 600.000" xml:space="preserve">
<polygon fill="#177ccd" points="53.643,304.929 482.020,196.637 243.264,418.496  "/>
<polygon fill="#53d710" points="445.644,234.847 265.069,330.130 597.031,298.910  "/>
<polygon fill="#e09516" points="233.169,311.514 113.523,322.151 83.945,285.431  "/>
<polygon fill="#8d52a2" points="348.177,181.037 568.082,385.491 60.091,182.334  "/>
<polygon fill="#f9cc30" points="506.984,106.259 157.053,141.367 392.726,599.239  "/>
<polygon fill="#58cb64" points="170.251,460.760 391.766,276.250 20.989,542.186  "/>
<polygon fill="#8f5a6a" points="235.098,491.433 341.848,186.899 578.331,405.287  "/>
<polygon fill="#6f28c1" points="42.031,538.880 21.149,512.974 586.964,371.823  "/>
<polygon fill="#4c68d5" points="136.238,383.304 70.142,377.214 240.124,74.572  "/>
<polygon fill="#c611a7" points="298.849,13.353 554.237,173.309 229.399,113.322  "/>
<polygon fill="#29ef4f" points="188.557,34.395 181.175,180.843 100.213,516.069  "/>
<polygon fill="#77cf74" points="483.241,204.739 114.316,169.381 59.507,206.928  "/>
<polygon fill="#6fd2b9" points="580.090,558.352 362.723,362.552 236.461,8.959  "/>
<polygon fill="#d4b4a3" points="593.794,458.357 228.788,200.948 358.938,72.893  "/>
<polygon fill="#038540" points="101.031,70.653 390.889,3.222 178.252,556.036  "/>
<polygon fill="#bcaee7" points="19.995,83.284 98.402,498.210 412.927,49.135  "/>
<polygon fill="#4dde79" points="219.335,509.928 106.416,211.977 23.715,522.504  "/>
<polygon fill="#330e0b" points="525.613,296.918 395.091,53.321 40.272,307.417  "/>
<polygon fill="#259051" points="186.059,68.384 113.392,47.364 582.488,586.357  "/>
<polygon fill="#79eea0" points="109.658,25.007 506.753,382.998 258.667,560.719  "/>
<polygon fill="#756a82" points="463.396,410.405 293.092,237.843 497.666,310.483  "/>
<polygon fill="#1b1a70" points="548.090,468.611 73.643,413.108 153.317,92.856  "/>
<polygon fill="#8f8df1" points="537.338,21.529 59.639,338.714 318.790,589.726  "/>
<polygon fill="#45a549" points="116.337,550.685 47.174,40.283 220.627,29.449  "/>
<polygon fill="#9660d7" points="26.407,286.360 459.390,444.288 426.319,255.086  "/>
<polygon fill="#20c893" points="62.165,408.189 388.753,270.342 91.057,446.589  "/>
<polygon fill="#a541f6" points="222.264,392.911 298.454,510.023 304.129,303.258  "/>
<polygon fill="#8d4f72" points="344.475,116.072 20.182,344.922 550.829,131.299  "/>
<polygon fill="#eeb351" points="469.850,599.404 541.646,333.786 482.759,16.341  "/>
<polygon fill="#13f5a8" points="534.107,101.620 594.635,434.598 1.713,118.037  "/>
<polygon fill="#ebd4b3" points="166.542,82.687 57.496,322.072 396.438,296.605  "/>
<polygon fill="#7b0e2c" points="504.465,344.536 229.341,394.271 292.089,147.230  "/>
<polygon fill="#41bd68" points="528.037,228.660 218.809,425.785 520.297,108.416  "/>
<polygon fill="#33904f" points="337.455,41.401 496.296,36.494 592.636,93.049  "/>
<polygon fill="#3e60fc" points="60.169,539.651 550.057,375.721 312.122,595.755  "/>
<polygon fill="#a14b81" points="440.938,91.034 259.228,540.560 306.413,337.883  "/>
<polygon fill="#579ca7" points="3.270,24.849 69.306,258.190 522.794,258.449  "/>
<polygon fill="#3e2ffe" points="501.160,572.737 404.575,439.539 23.922,150.757  "/>
<polygon fill="#1e1faa" points="477.427,375.337 267.130,233.548 279.867,283.796  "/>
<polygon fill="#a2de97" points="430.190,595.279 501.059,361.399 24.705,461.635  "/>
<polygon fill="#64a350" points="564.374,36.563 520.854,79.128 275.231,96.754  "/>
<polygon fill="#b0104d" points="503.243,162.532 150.265,115.521 399.097,480.242  "/>
<polygon fill="#7b6d80" points="269.270,415.541 372.608,16.587 105.359,250.914  "/>
<polygon fill="#020c9d" points="318.148,379.345 292.140,342.451 272.207,237.968  "/>
<polygon fill="#8c0683" points="136.036,359.327 424.823,98.815 190.525,516.213  "/>
<polygon fill="#c3565c" points="146.381,107.735 143.600,547.551 71.524,57.241  "/>
<polygon fill="#a31633" points="386.934,585.357 319.896,306.344 92.682,584.686  "/>
<polygon fill="#7ee9a8" points="310.060,511.156 197.934,386.481 131.818,301.252  "/>
<polygon fill="#da8d81" points="427.437,37.020 398.798,309.660 500.231,486.906  "/>
<polygon fill="#44a272" points="163.663,595.463 366.079,98.224 18.589,233.595  "/>
<polygon fill="#409736" points="535.674,211.603 445.521,594.259 75.338,499.627  "/>
<polygon fill="#e76414" points="438.209,436.137 534.330,366.768 291.252,363.710  "/>
<polygon fill="#411341" points="373.460,144.445 435.914,362.781 27.761,47.002  "/>
<polygon fill="#e9ba9d" points="210.128,225.280 436.224,405.494 459.222,145.215  "/>
<polygon fill="#0bfa48" points="480.868,198.207 286.975,261.565 433.004,299.773  "/>
<polygon fill="#97fb0c" points="92.421,47.138 544.701,467.982 176.666,111.824  "/>
<polygon fill="#ca9fc2" points="351.714,3.764 580.252,432.802 127.558,175.889  "/>
<polygon fill="#cb9a88" points="64.963,278.241 420.105,174.061 395.934,146.882  "/>
<polygon fill="#4ed7c8" points="351.512,16.636 63.403,41.485 421.028,106.225  "/>
<polygon fill="#21a857" points="434.005,284.129 571.226,459.976 116.836,139.886  "/>
<polygon fill="#de3fd6" points="296.415,321.217 438.932,122.102 68.845,125.368  "/>
<polygon fill="#1e494f" points="269.859,42.485 244.977,332.022 284.055,320.573  "/>
<polygon fill="#c137ee" points="129.890,462.951 374.715,31.729 17.174,170.932  "/>
<polygon fill="#ce777c" points="63.173,195.724 237.577,371.862 14.481,235.613  "/>
<polygon fill="#40200c" points="266.485,328.529 541.908,142.949 121.962,367.050  "/>
</svg>