<?xml version="1.0" encoding="utf-8"?>
<!-- Generator: Python script. InTeResTinG -->
<!DOCTYPE svg PUBLIC "-//W3C//DTD SVG 1.1//EN" "http://www.w3.org/Graphics/SVG/1.1/DTD/svg11.dtd">
<svg version="1.1" id="Layer_1" xmlns="http://www.w3.org/2000/svg" xmlns:xlink="http://www.w3.org/1999/xlink" x="0px" y="0px" width="600.000px" height="600.000px" viewBox="0 0 600.000 600.000" enable-background="new 0 0 600.000 600.000" xml:space="preserve">
<polygon fill="#17f798" points="264.862,297.656 436.471,599.686 94.148,350.113  "/>
<polygon fill="#a1c35b" points="462.833,399.380 414.087,533.731 24.210,19.103  "/>
<polygon fill="#481cba" points="468.988,358.089 503.153,561.198 177.301,297.720  "/>
<polygon fill="#0d7dbc" points="542.689,430.021 550.965,535.322 329.271,310.462  "/>
<polygon fill="#2bfdcd" points="564.578,431.574 32.682,195.537 49.386,171.916  "/>
<polygon fill="#19f77f" points="48.560,276.819 436.802,216.844 426.339,491.102  "/>
<polygon fill="#6b9395" points="146.694,332.872 377.671,142.911 48.982,255.668  "/>
<polygon fill="#f95370" points="425.614,126.556 360.740,174.495 533.719,120.838  "/>
<polygon fill="#4cc8b3" points="522.995,234.659 480.521,110.825 158.952,330.365  "/>
<polygon fill="#e7e02e" points="426.432,142.853 21.195,141.165 369.018,256.558  "/>
<polygon fill="#d67442" points="278.453,484.977 488.843,538.774 267.456,465.030  "/>
<polygon fill="#415dd5" points="577.170,527.192 520.212,367.590 328.650,41.550  "/>
<polygon fill="#1875b7" points="79.709,57.280 239.034,378.813 501.392,459.191  "/>
<polygon fill="#d57780" points="526.895,31.496 209.817,29.763 213.796,282.877  "/>
<polygon fill="#e57f9f" points="239.712,500.257 12.514,355.728 475.959,69.356  "/>
<polygon fill="#5e96ac" points="365.967,499.012 231.690,498.112 297.556,311.249  "/>
<polygon fill="#9052ad" points="5.249,87.901 61.487,353.989 517.361,301.545  "/>
<polygon fill="#bd4242" points="472.752,491.172 547.334,164.127 21.177,465.954  "/>
<polygon fill="#e45c7f" points="546.604,534.094 334.289,234.245 317.541,520.793  "/>
<polygon fill="#31b650" points="523.502,464.354 300.148,344.692 96.016,247.575  "/>
<polygon fill="#9119e6" points="98.240,570.767 202.289,277.481 456.165,0.587  "/>
<polygon fill="#6525b7" points="365.594,551.488 532.891,453.685 412.233,450.430  "/>
<polygon fill="#5929c0" points="57.667,186.107 478.156,575.273 191.049,416.718  "/>
<polygon fill="#136f39" points="141.467,538.937 581.647,293.432 167.242,288.517  "/>
<polygon fill="#31beed" points="320.371,145.251 433.433,587.660 81.682,386.977  "/>
<polygon fill="#c3746d" points="471.608,24.602 75.556,24.295 127.806,579.053  "/>
<polygon fill="#17d0f3" points="252.865,311.409 508.187,138.457 488.387,174.356  "/>
<polygon fill="#d07bd9" points="207.798,357.994 533.373,307.316 189.165,222.514  "/>
<polygon fill="#2eb65d" points="371.435,582.863 311.322,44.892 514.263,482.297  "/>
<polygon fill="#ecbb30" points="426.932,160.571 535.317,486.480 313.911,1.952  "/>
<polygon fill="#115d87" points="593.252,379.873 147.406,337.391 407.257,597.209  "/>
<polygon fill="#bea0ab" points="170.571,255.928 321.120,420.384 221.103,19.366  "/>
<polygon fill="#58a070" points="530.508,219.074 300.346,150.698 514.146,415.038  "/>
<polygon fill="#93777c" points="414.126,114.078 13.887,167.226 90.416,93.560  "/>
<polygon fill="#69d476" points="288.986,386.149 22.818,499.834 184.324,312.064  "/>
<polygon fill="#ba3ad4" points="233.963,591.480 251.633,41.190 266.867,165.956  "/>
<polygon fill="#5d311d" points="265.195,451.859 86.133,415.265 465.302,58.649  "/>
<polygon fill="#0e150e" points="595.473,311.179 474.079,286.981 68.722,69.067  "/>
<polygon fill="#0387a9" points="463.868,122.146 2.841,149.499 383.499,386.667  "/>
<polygon fill="#2b7ed7" points="278.710,67.600 529.445,367.007 217.357,100.502  "/>
<polygon fill="#d2267a" points="399.430,491.018 578.103,74.779 6.830,294.753  "/>
<polygon fill="#339144" points="147.352,483.312 449.335,241.556 3.293,311.857  "/>
<polygon fill="#0fbf11" points="334.144,189.406 108.796,36.010 347.209,579.291  "/>
<polygon fill="#535c7d" points="112.756,494.305 345.402,192.286 518.436,141.163  "/>
<polygon fill="#da9d15" points="107.540,539.738 338.816,72.097 488.066,116.111  "/>
<polygon fill="#ab6fb7" points="178.019,449.011 560.922,332.699 95.688,364.589  "/>
<polygon fill="#9919c4" points="196.740,582.045 303.469,475.121 135.013,471.249  "/>
<polygon fill="#634f23" points="407.725,0.108 535.666,162.030 494.118,439.607  "/>
<polygon fill="#a5397c" points="292.536,548.627 235.260,88.488 228.171,134.736  "/>
<polygon fill="#e58cd6" points="245.915,379.486 448.350,320.509 146.053,411.375  "/>
</svg>