<?xml version="1.0" encoding="utf-8"?>
<!-- Generator: Python script. InTeResTinG -->
<!DOCTYPE svg PUBLIC "-//W3C//DTD SVG 1.1//EN" "http://www.w3.org/Graphics/SVG/1.1/DTD/svg11.dtd">
<svg version="1.1" id="Layer_1" xmlns="http://www.w3.org/2000/svg" xmlns:xlink="http://www.w3.org/1999/xlink" x="0px" y="0px" width="600.000px" height="600.000px" viewBox="0 0 600.000 600.000" enable-background="new 0 0 600.000 600.000" xml:space="preserve">
<polygon fill="#b5ff24" points="291.925,264.633 10.923,445.590 549.095,477.025  "/>
<polygon fill="#52413f" points="476.207,39.213 312.991,332.185 564.829,390.573  "/>
<polygon fill="#ae87bf" points="541.490,231.796 370.705,412.124 516.459,431.301  "/>
<polygon fill="#95e88e" points="560.166,390.409 508.328,133.216 370.598,241.959  "/>
<polygon fill="#dac1be" points="41.254,367.769 577.167,129.458 470.874,24.381  "/>
<polygon fill="#84b473" points="31.473,204.717 404.399,457.750 132.695,487.072  "/>
<polygon fill="#a9c271" points="435.884,505.190 464.966,579.897 421.954,339.081  "/>
<polygon fill="#fb5dd8" points="571.138,477.474 53.200,233.997 376.572,299.776  "/>
<polygon fill="#fe3ffa" points="403.005,498.121 200.236,156.905 293.041,511.136  "/>
<polygon fill="#45e1b5" points="286.266,479.171 183.503,382.178 553.122,439.485  "/>
<polygon fill="#d6fab8" points="591.672,523.072 295.305,452.703 187.694,191.878  "/>
<polygon fill="#baa9d7" points="367.163,42.146 301.695,100.404 325.401,29.544  "/>
<polygon fill="#19b96e" points="305.840,250.738 87.445,35.866 310.226,89.526  "/>
<polygon fill="#bb2eea" points="548.773,141.977 370.779,336.863 212.514,260.609  "/>
<polygon fill="#3f02ef" points="323.044,254.078 210.153,570.818 575.192,57.127  "/>
<polygon fill="#d222b8" points="183.323,316.928 483.601,370.378 249.505,281.884  "/>
<polygon fill="#049dd2" points="496.531,287.612 74.744,75.762 433.205,158.738  "/>
<polygon fill="#d8981c" points="448.572,246.154 56.933,461.590 452.502,599.852  "/>
<polygon fill="#227f6e" points="469.512,86.167 175.443,590.575 552.316,112.068  "/>
<polygon fill="#4ff692" points="22.386,342.092 364.209,399.041 589.269,533.153  "/>
<polygon fill="#48b167" points="52.843,313.440 100.924,112.349 244.566,392.879  "/>
<polygon fill="#fde33c" points="290.822,371.058 178.465,490.745 73.368,17.527  "/>
<polygon fill="#3e7231" points="214.294,6.659 305.616,428.496 51.535,345.827  "/>
<polygon fill="#fcccc3" points="241.483,177.707 242.791,449.662 446.098,86.935  "/>
<polygon fill="#74df91" points="188.584,72.452 355.070,130.566 362.839,170.435  "/>
<polygon fill="#3224ea" points="471.507,230.351 136.652,475.646 252.191,217.169  "/>
<polygon fill="#671966" points="371.646,507.560 174.785,84.049 405.037,305.926  "/>
<polygon fill="#51fac0" points="56.864,538.457 33.303,373.445 301.620,387.792  "/>
<polygon fill="#ce25c3" points="271.096,457.347 407.598,62.276 565.948,397.593  "/>
<polygon fill="#ae1a4f" points="31.851,161.633 258.873,535.974 230.812,247.035  "/>
<polygon fill="#6a3855" points="424.352,154.046 576.461,92.356 435.621,115.478  "/>
<polygon fill="#12eb03" points="88.792,320.514 182.580,11.008 596.962,73.823  "/>
<polygon fill="#cca777" points="339.650,27.211 562.177,582.092 177.983,570.873  "/>
<polygon fill="#388789" points="258.879,328.356 596.906,234.909 587.101,214.914  "/>
<polygon fill="#b2193b" points="190.366,360.380 81.635,64.283 411.170,287.655  "/>
<polygon fill="#9d5b44" points="350.708,358.848 272.341,550.620 259.433,277.432  "/>
<polygon fill="#cb7cf0" points="427.386,470.756 442.372,549.427 364.446,240.529  "/>
<polygon fill="#d85601" points="58.575,267.193 222.798,208.142 531.054,211.552  "/>
<polygon fill="#4cb9a3" points="304.034,260.412 72.918,17.111 319.315,494.417  "/>
<polygon fill="#5b1e78" points="16.262,49.606 289.347,36.118 125.763,157.734  "/>
<polygon fill="#a91a2c" points="546.871,283.112 30.836,342.213 19.470,88.677  "/>
<polygon fill="#a0001f" points="309.866,15.811 338.414,4.575 52.713,175.583  "/>
<polygon fill="#186c39" points="233.453,28.211 470.754,561.902 65.223,574.338  "/>
<polygon fill="#f8a37a" points="234.656,113.919 258.497,39.265 314.270,116.746  "/>
<polygon fill="#dcdeed" points="248.798,310.873 505.787,285.386 12.782,538.071  "/>
<polygon fill="#c6672c" points="208.908,553.249 98.869,193.220 187.758,494.771  "/>
<polygon fill="#7ec16a" points="328.505,520.657 29.562,133.740 548.721,368.721  "/>
<polygon fill="#4cd530" points="185.675,113.813 493.999,475.401 251.725,333.829  "/>
<polygon fill="#527b93" points="224.598,356.102 239.954,146.343 260.478,384.708  "/>
<polygon fill="#eb87b6" points="415.743,518.313 315.154,325.928 10.769,68.741  "/>
<polygon fill="#1731fb" points="577.885,465.560 425.994,212.314 285.219,6.541  "/>
<polygon fill="#607d95" points="260.879,265.109 168.029,407.738 162.775,419.723  "/>
<polygon fill="#64cbea" points="343.621,411.805 414.588,224.282 145.120,86.892  "/>
<polygon fill="#1a663e" points="358.876,64.595 162.365,474.601 386.888,108.659  "/>
<polygon fill="#3f0d00" points="466.678,43.087 230.305,256.144 344.899,573.392  "/>
<polygon fill="#f6039a" points="200.076,584.559 232.419,369.426 379.312,55.268  "/>
<polygon fill="#ec7b53" points="82.314,468.990 183.339,166.507 85.414,342.341  "/>
<polygon fill="#5cb746" points="535.517,502.462 54.354,267.161 439.406,197.971  "/>
<polygon fill="#20a03d" points="182.972,570.556 26.295,479.350 270.778,434.870  "/>
<polygon fill="#91cd1f" points="390.187,221.856 136.327,128.467 186.773,330.230  "/>
<polygon fill="#219819" points="170.454,100.029 5.875,366.894 551.262,429.998  "/>
<polygon fill="#664004" points="393.787,484.886 78.397,523.375 123.540,206.291  "/>
<polygon fill="#c36f0a" points="220.214,56.137 355.650,7.834 487.170,567.806  "/>
<polygon fill="#087033" points="153.610,507.509 44.901,326.534 441.021,476.120  "/>
<polygon fill="#ebed28" points="569.980,211.512 245.773,99.700 504.082,400.479  "/>
</svg>