<?xml version="1.0" encoding="utf-8"?>
<!-- Generator: Python script. InTeResTinG -->
<!DOCTYPE svg PUBLIC "-//W3C//DTD SVG 1.1//EN" "http://www.w3.org/Graphics/SVG/1.1/DTD/svg11.dtd">
<svg version="1.1" id="Layer_1" xmlns="http://www.w3.org/2000/svg" xmlns:xlink="http://www.w3.org/1999/xlink" x="0px" y="0px" width="600.000px" height="600.000px" viewBox="0 0 600.000 600.000" enable-background="new 0 0 600.000 600.000" xml:space="preserve">
<polygon fill="#b36e31" points="130.013,107.240 247.585,502.246 581.367,175.585  "/>
<polygon fill="#d5589c" points="588.234,80.591 314.527,597.658 574.313,87.290  "/>
<polygon fill="#54d7ce" points="137.618,52.724 259.653,560.246 128.605,235.335  "/>
<polygon fill="#8a13d6" points="392.921,285.790 228.684,531.961 301.062,10.038  "/>
<polygon fill="#945f63" points="233.328,243.861 295.027,268.287 557.933,261.561  "/>
<polygon fill="#b5ec89" points="117.939,394.288 311.438,350.097 520.100,537.276  "/>
<polygon fill="#e6e062" points="178.727,230.824 594.770,173.903 544.224,481.750  "/>
<polygon fill="#e12c6b" points="390.538,551.508 597.666,27.530 175.697,10.298  "/>
<polygon fill="#2b4dc2" points="143.691,340.861 344.509,58.944 432.481,121.028  "/>
<polygon fill="#021b4a" points="24.683,325.323 174.485,2.510 373.322,119.382  "/>
<polygon fill="#e9a638" points="164.929,162.923 301.048,195.088 334.701,225.121  "/>
<polygon fill="#36638c" points="426.519,49.087 283.780,88.575 62.193,457.464  "/>
<polygon fill="#6175cc" points="67.104,476.818 169.054,11.011 540.286,57.842  "/>
<polygon fill="#3c4738" points="98.251,54.340 377.065,293.527 315.893,56.852  "/>
<polygon fill="#8b805f" points="46.330,187.621 467.948,457.469 100.406,86.139  "/>
<polygon fill="#4c067e" points="308.751,125.670 262.453,281.206 271.186,103.120  "/>
<polygon fill="#74a53a" points="479.955,268.411 460.917,530.368 434.118,528.829  "/>
<polygon fill="#39c15c" points="2.905,392.617 132.966,462.332 263.489,574.218  "/>
<polygon fill="#1b6474" points="573.504,299.403 74.915,574.006 221.849,496.297  "/>
<polygon fill="#28f565" points="174.819,303.506 511.276,78.685 154.526,271.989  "/>
<polygon fill="#211cdc" points="252.561,38.946 219.532,358.163 292.486,70.732  "/>
<polygon fill="#48cb0a" points="411.696,382.717 433.363,294.242 269.398,288.331  "/>
<polygon fill="#38a4a2" points="90.192,465.271 85.674,487.689 466.293,210.806  "/>
<polygon fill="#0ba94b" points="83.732,199.409 35.904,74.287 313.916,195.018  "/>
<polygon fill="#a03760" points="586.851,164.188 293.365,76.182 465.184,581.995  "/>
<polygon fill="#1bcc2d" points="376.621,511.571 400.952,89.853 384.322,560.557  "/>
<polygon fill="#64cc00" points="516.140,310.426 263.276,505.557 525.656,55.348  "/>
<polygon fill="#a5fe0d" points="251.179,456.583 207.396,457.275 422.658,229.341  "/>
<polygon fill="#49a0d3" points="558.668,211.721 319.132,246.400 309.476,36.156  "/>
<polygon fill="#1a653e" points="192.203,101.539 82.225,48.781 160.888,343.320  "/>
<polygon fill="#63193a" points="429.297,252.907 103.833,397.424 392.100,10.015  "/>
<polygon fill="#442c8d" points="313.079,230.458 453.654,349.651 0.188,462.451  "/>
<polygon fill="#1ed266" points="562.290,325.254 392.422,485.866 251.861,428.641  "/>
<polygon fill="#386d90" points="309.931,223.251 500.921,155.609 381.380,95.232  "/>
<polygon fill="#a37184" points="527.255,595.976 58.603,595.040 522.427,266.521  "/>
<polygon fill="#f099ef" points="594.267,435.320 593.907,211.118 401.733,581.014  "/>
<polygon fill="#6ba76b" points="373.443,558.326 400.721,203.199 353.852,73.487  "/>
<polygon fill="#311f4d" points="512.842,325.112 127.964,440.011 345.942,557.635  "/>
<polygon fill="#ca305a" points="207.467,14.244 193.948,341.445 146.909,389.637  "/>
<polygon fill="#fb1ca9" points="389.951,541.950 481.190,152.591 450.024,263.853  "/>
<polygon fill="#e2e73c" points="328.629,154.173 287.109,467.922 85.007,578.968  "/>
<polygon fill="#953c8d" points="304.747,432.522 76.384,491.072 307.632,218.753  "/>
<polygon fill="#a96d46" points="0.907,542.832 492.435,547.277 392.674,444.154  "/>
<polygon fill="#8bfb88" points="578.870,195.427 362.554,209.784 71.257,496.319  "/>
<polygon fill="#a4dc50" points="590.560,75.623 296.836,563.600 259.689,103.043  "/>
<polygon fill="#144fc3" points="151.604,53.497 226.820,590.144 273.578,90.606  "/>
<polygon fill="#243c1b" points="554.597,187.976 131.372,249.316 262.316,249.009  "/>
<polygon fill="#2cf67b" points="526.641,446.378 559.064,476.218 192.547,335.924  "/>
<polygon fill="#3acb6e" points="137.399,351.705 325.320,451.201 301.579,397.752  "/>
<polygon fill="#029370" points="358.755,353.959 9.950,552.359 556.315,262.617  "/>
<polygon fill="#fdbc96" points="511.779,424.671 131.607,22.633 243.608,62.515  "/>
<polygon fill="#a77fa4" points="121.578,371.923 202.583,376.969 563.178,399.772  "/>
<polygon fill="#593a13" points="188.221,335.462 426.705,137.172 451.411,381.295  "/>
<polygon fill="#57e901" points="227.791,554.056 214.200,283.298 212.951,90.571  "/>
<polygon fill="#98b0ff" points="469.448,539.403 208.453,24.232 92.020,587.527  "/>
<polygon fill="#cd58fa" points="217.179,488.131 343.403,173.412 592.342,284.482  "/>
<polygon fill="#0e571f" points="320.825,392.193 479.437,134.645 54.112,418.565  "/>
<polygon fill="#0f5eee" points="47.431,383.403 372.409,6.090 522.590,4.590  "/>
<polygon fill="#c28e6f" points="270.869,145.693 252.106,178.488 191.496,474.695  "/>
<polygon fill="#8e6807" points="214.845,243.429 314.802,393.077 553.970,268.287  "/>
<polygon fill="#311856" points="419.560,526.828 312.566,173.698 382.032,296.668  "/>
<polygon fill="#c3865d" points="209.017,179.909 496.732,327.359 443.502,506.085  "/>
<polygon fill="#4bce59" points="407.017,259.267 539.494,366.236 408.640,173.797  "/>
<polygon fill="#73918e" points="250.083,461.121 267.681,593.543 491.456,545.710  "/>
<polygon fill="#cbbe38" points="82.155,117.754 372.931,271.675 253.254,371.446  "/>
</svg>