<?xml version="1.0" encoding="utf-8"?>
<!-- Generator: Python script. InTeResTinG -->
<!DOCTYPE svg PUBLIC "-//W3C//DTD SVG 1.1//EN" "http://www.w3.org/Graphics/SVG/1.1/DTD/svg11.dtd">
<svg version="1.1" id="Layer_1" xmlns="http://www.w3.org/2000/svg" xmlns:xlink="http://www.w3.org/1999/xlink" x="0px" y="0px" width="600.000px" height="600.000px" viewBox="0 0 600.000 600.000" enable-background="new 0 0 600.000 600.000" xml:space="preserve">
<polygon fill="#76e0ce" points="485.992,192.456 6.335,507.654 39.363,102.907  "/>
<polygon fill="#5112e8" points="520.659,370.277 78.885,518.458 488.271,414.111  "/>
<polygon fill="#71630a" points="114.399,268.828 237.544,129.117 381.249,356.932  "/>
<polygon fill="#d76dd1" points="322.081,511.649 571.504,395.735 294.876,268.855  "/>
<polygon fill="#b14d3a" points="285.934,403.552 201.284,48.315 302.923,454.614  "/>
<polygon fill="#b4a877" points="71.714,329.032 514.192,430.720 215.918,363.782  "/>
<polygon fill="#96cd12" points="422.807,259.115 502.035,286.784 73.758,309.672  "/>
<polygon fill="#719fbe" points="84.825,148.190 301.912,34.194 558.072,413.043  "/>
<polygon fill="#d71431" points="171.812,414.825 368.332,35.492 508.379,202.719  "/>
<polygon fill="#40ea88" points="64.209,562.428 229.571,116.112 302.049,472.233  "/>
<polygon fill="#678525" points="393.037,311.706 556.471,485.166 5.349,581.005  "/>
<polygon fill="#35eda2" points="405.839,147.238 12.835,577.587 513.725,522.270  "/>
<polygon fill="#376df9" points="106.247,272.529 421.568,41.815 578.706,32.990  "/>
<polygon fill="#5bcb8d" points="180.553,458.183 47.196,249.089 87.431,39.365  "/>
<polygon fill="#b7c327" points="436.009,94.123 199.192,570.778 594.199,47.803  "/>
<polygon fill="#5148d0" points="301.369,163.683 368.299,543.579 579.116,158.745  "/>
<polygon fill="#ee9273" points="16.024,465.699 513.347,258.725 42.640,455.301  "/>
<polygon fill="#e6039c" points="377.016,367.847 88.841,4.726 321.805,9.305  "/>
<polygon fill="#6f5b6d" points="141.875,264.105 61.249,197.380 410.069,247.887  "/>
<polygon fill="#17e7f8" points="130.647,120.118 199.827,211.740 383.097,543.949  "/>
<polygon fill="#dd31eb" points="440.151,559.578 184.988,459.949 285.462,174.831  "/>
<polygon fill="#5ac15a" points="21.733,477.554 137.878,282.845 265.903,115.631  "/>
<polygon fill="#a2e26b" points="381.467,498.576 299.926,72.052 421.770,403.969  "/>
<polygon fill="#5ae2b3" points="155.550,459.163 347.262,23.705 80.805,497.877  "/>
<polygon fill="#35f8c3" points="525.627,220.661 123.841,269.052 161.847,73.158  "/>
<polygon fill="#f594b5" points="437.664,14.877 284.384,278.171 484.771,465.096  "/>
<polygon fill="#b84bfd" points="52.251,581.302 424.391,578.043 220.723,75.679  "/>
<polygon fill="#a88bf2" points="551.553,375.269 243.398,362.797 421.665,354.987  "/>
<polygon fill="#65a559" points="366.047,201.221 126.545,514.303 394.897,423.188  "/>
<polygon fill="#10b569" points="396.416,402.656 147.307,587.282 273.773,276.519  "/>
<polygon fill="#e1ea66" points="225.767,425.481 11.387,377.544 334.856,231.871  "/>
<polygon fill="#0740a5" points="587.801,430.986 135.222,194.275 357.554,20.014  "/>
<polygon fill="#7d88b7" points="229.137,535.690 65.042,393.552 505.697,482.622  "/>
<polygon fill="#0a50f6" points="457.418,596.060 26.864,392.045 96.452,128.237  "/>
<polygon fill="#62a6a6" points="536.068,461.371 442.378,378.979 306.024,38.395  "/>
<polygon fill="#9e740a" points="195.202,355.688 127.151,100.172 359.232,313.688  "/>
<polygon fill="#448cd8" points="447.640,15.266 69.148,163.317 10.907,493.966  "/>
<polygon fill="#8d622a" points="130.121,585.670 214.050,328.398 578.850,289.421  "/>
<polygon fill="#958826" points="518.225,179.911 410.162,460.178 239.938,223.805  "/>
<polygon fill="#7f7dae" points="317.164,109.861 245.838,20.589 475.977,408.809  "/>
<polygon fill="#93ea5c" points="173.323,379.852 404.237,388.475 187.577,306.276  "/>
<polygon fill="#71776e" points="202.832,465.583 165.468,301.028 332.675,147.217  "/>
<polygon fill="#258146" points="57.594,492.215 568.999,544.287 122.506,305.302  "/>
<polygon fill="#2483a8" points="287.159,410.100 496.254,582.410 441.284,498.961  "/>
<polygon fill="#ee2ccb" points="162.051,332.671 490.980,531.220 233.399,366.164  "/>
<polygon fill="#067d82" points="383.658,424.010 192.435,578.653 218.869,180.315  "/>
<polygon fill="#cec90c" points="314.803,325.633 47.837,59.700 104.307,98.468  "/>
<polygon fill="#e24327" points="171.381,286.566 588.268,441.142 585.458,106.484  "/>
<polygon fill="#048571" points="176.602,60.470 326.833,206.574 176.304,177.799  "/>
<polygon fill="#739741" points="347.003,110.115 518.812,417.638 70.185,470.427  "/>
<polygon fill="#f6b089" points="344.964,535.470 192.604,182.906 9.810,561.581  "/>
<polygon fill="#1e0408" points="47.655,540.446 515.366,34.425 349.485,577.353  "/>
<polygon fill="#3678ec" points="96.490,255.616 439.874,187.205 309.914,107.886  "/>
<polygon fill="#af0f85" points="211.858,245.576 203.268,381.245 524.536,556.014  "/>
<polygon fill="#c6db91" points="12.036,375.869 434.841,152.029 268.715,144.001  "/>
<polygon fill="#185ac5" points="536.535,182.760 428.761,396.164 280.253,144.857  "/>
<polygon fill="#6ed2b1" points="68.908,296.783 7.033,510.259 523.567,204.619  "/>
<polygon fill="#4a2f3f" points="19.186,406.071 62.862,412.482 455.334,67.676  "/>
<polygon fill="#681725" points="487.401,448.558 179.155,553.739 289.796,206.051  "/>
</svg>