<?xml version="1.0" encoding="utf-8"?>
<!-- Generator: Python script. InTeResTinG -->
<!DOCTYPE svg PUBLIC "-//W3C//DTD SVG 1.1//EN" "http://www.w3.org/Graphics/SVG/1.1/DTD/svg11.dtd">
<svg version="1.1" id="Layer_1" xmlns="http://www.w3.org/2000/svg" xmlns:xlink="http://www.w3.org/1999/xlink" x="0px" y="0px" width="600.000px" height="600.000px" viewBox="0 0 600.000 600.000" enable-background="new 0 0 600.000 600.000" xml:space="preserve">
<polygon fill="#640c5f" points="426.371,194.211 301.992,350.502 37.707,588.469  "/>
<polygon fill="#6fb1e1" points="57.557,234.806 368.728,355.062 465.673,45.802  "/>
<polygon fill="#98e6ca" points="41.684,585.387 411.670,481.089 144.681,47.913  "/>
<polygon fill="#f6b4b8" points="557.701,161.831 354.422,44.404 470.452,290.110  "/>
<polygon fill="#701ed6" points="111.763,316.765 560.104,211.774 420.427,36.417  "/>
<polygon fill="#08788f" points="451.260,224.869 305.389,113.868 503.444,464.282  "/>
<polygon fill="#e3156d" points="429.036,370.149 62.149,396.583 565.543,216.445  "/>
<polygon fill="#53e3cd" points="458.271,163.761 275.714,482.626 251.009,579.801  "/>
<polygon fill="#9ab99c" points="359.406,30.395 505.977,578.539 119.784,98.921  "/>
<polygon fill="#80e984" points="232.787,504.275 372.710,194.937 234.394,291.983  "/>
<polygon fill="#94cd4f" points="498.172,81.689 289.411,298.470 1.354,275.275  "/>
<polygon fill="#e21e3c" points="352.843,311.772 511.108,350.874 339.042,486.961  "/>
<polygon fill="#12f976" points="318.073,301.415 173.020,194.327 395.512,458.998  "/>
<polygon fill="#c96dc0" points="381.571,427.942 270.029,442.893 505.903,233.701  "/>
<polygon fill="#c7b6e2" points="181.113,442.564 467.243,331.988 440.288,184.386  "/>
<polygon fill="#20a60a" points="441.342,93.342 92.880,477.617 309.665,235.546  "/>
<polygon fill="#837d2e" points="158.343,133.698 414.791,379.593 281.668,232.777  "/>
<polygon fill="#9e0db4" points="63.874,171.057 546.490,292.740 482.319,480.251  "/>
<polygon fill="#c975ff" points="576.802,128.834 124.563,341.415 436.637,521.625  "/>
<polygon fill="#4ef00a" points="351.763,154.010 502.001,257.116 480.058,428.950  "/>
<polygon fill="#93d450" points="299.811,524.044 299.423,248.949 536.246,51.487  "/>
<polygon fill="#12b1f3" points="587.391,147.721 517.037,267.465 438.693,183.930  "/>
<polygon fill="#65ddb4" points="283.395,226.095 581.751,33.705 453.064,260.918  "/>
<polygon fill="#edd965" points="214.865,267.668 586.570,25.947 450.793,455.079  "/>
<polygon fill="#47d62d" points="507.527,350.106 223.887,582.329 451.497,440.378  "/>
<polygon fill="#b7d9da" points="305.254,536.859 558.636,234.489 233.287,532.554  "/>
<polygon fill="#fc4138" points="174.991,131.670 509.768,260.542 329.845,229.947  "/>
<polygon fill="#5bbd4e" points="572.483,409.529 52.422,436.943 101.346,558.799  "/>
<polygon fill="#48f03b" points="171.146,517.191 472.067,22.873 260.558,378.985  "/>
<polygon fill="#ead5ce" points="103.842,384.986 238.727,563.531 525.958,424.929  "/>
<polygon fill="#3353e8" points="382.848,427.124 390.156,513.689 85.208,67.390  "/>
<polygon fill="#9a3ddd" points="407.107,201.999 132.502,8.281 269.649,502.532  "/>
<polygon fill="#668558" points="390.007,146.306 398.105,23.948 484.478,245.433  "/>
<polygon fill="#a791b6" points="425.719,317.545 393.210,111.951 455.074,301.955  "/>
<polygon fill="#48c23d" points="5.201,195.555 366.787,167.443 147.899,174.548  "/>
<polygon fill="#e896a3" points="67.756,302.856 211.003,388.186 526.600,560.335  "/>
<polygon fill="#9b7882" points="49.472,428.563 171.346,1.811 220.928,99.537  "/>
<polygon fill="#80d6a9" points="217.342,34.929 270.754,246.616 561.819,342.764  "/>
<polygon fill="#b1ea63" points="593.394,200.743 328.538,440.781 460.392,191.015  "/>
<polygon fill="#9e6b85" points="227.417,278.849 4.772,243.352 54.889,572.449  "/>
<polygon fill="#fa6764" points="182.732,580.846 245.273,523.307 579.391,223.806  "/>
<polygon fill="#1ff34f" points="286.775,280.848 389.188,102.242 18.968,81.167  "/>
<polygon fill="#920071" points="202.375,13.773 312.874,307.129 179.079,200.682  "/>
<polygon fill="#93f4fa" points="268.977,65.114 256.213,377.428 80.864,274.891  "/>
<polygon fill="#ee2c82" points="152.216,148.167 238.175,33.716 459.389,500.257  "/>
<polygon fill="#bdfd96" points="60.860,104.511 87.527,138.652 95.710,18.500  "/>
<polygon fill="#ba9f37" points="47.874,222.658 311.038,391.402 319.152,362.177  "/>
<polygon fill="#38f6af" points="151.412,363.424 252.330,466.997 56.191,233.736  "/>
<polygon fill="#b72b4f" points="269.093,208.770 132.920,446.334 185.986,552.688  "/>
<polygon fill="#aa0c1d" points="9.303,7.266 300.043,416.605 4.431,135.465  "/>
<polygon fill="#dcedeb" points="169.740,253.796 562.654,517.630 152.380,594.273  "/>
<polygon fill="#5208cd" points="382.220,477.649 295.389,522.924 337.287,596.994  "/>
<polygon fill="#1269f9" points="461.019,119.845 365.054,261.447 142.424,50.669  "/>
<polygon fill="#f11218" points="467.143,569.002 237.351,346.592 214.308,472.458  "/>
<polygon fill="#7e8f89" points="224.585,38.947 366.857,552.419 389.582,379.507  "/>
<polygon fill="#a153d0" points="596.130,15.239 584.112,493.018 16.816,194.729  "/>
<polygon fill="#915e8b" points="497.064,205.488 143.197,565.937 492.734,444.121  "/>
<polygon fill="#7608fa" points="219.920,90.690 436.518,522.702 15.342,383.243  "/>
<polygon fill="#a0392a" points="484.973,1.116 406.108,86.802 9.050,454.229  "/>
<polygon fill="#a0c8e0" points="555.952,84.744 79.357,356.715 108.825,325.227  "/>
<polygon fill="#511ce0" points="580.161,314.503 355.810,363.003 168.888,210.410  "/>
<polygon fill="#65c901" points="328.978,456.519 192.937,401.943 130.510,578.849  "/>
<polygon fill="#eeb4e9" points="472.587,194.301 214.935,63.570 480.481,401.368  "/>
<polygon fill="#a999bc" points="482.140,288.196 595.011,391.440 178.427,294.080  "/>
<polygon fill="#50e4d4" points="307.385,60.414 193.222,125.214 47.390,276.233  "/>
<polygon fill="#9ed19f" points="414.701,562.858 575.271,317.786 135.553,515.250  "/>
<polygon fill="#fc85dc" points="176.201,336.581 187.982,424.462 203.731,354.808  "/>
<polygon fill="#fb075e" points="2.939,576.709 550.812,35.225 102.092,128.714  "/>
<polygon fill="#cb9a7a" points="580.413,136.550 430.348,341.161 400.293,594.875  "/>
<polygon fill="#600299" points="361.724,48.143 147.505,205.869 224.147,573.045  "/>
<polygon fill="#1d64ff" points="499.855,361.746 453.557,168.637 221.883,177.345  "/>
</svg>