<?xml version="1.0" encoding="utf-8"?>
<!-- Generator: Python script. InTeResTinG -->
<!DOCTYPE svg PUBLIC "-//W3C//DTD SVG 1.1//EN" "http://www.w3.org/Graphics/SVG/1.1/DTD/svg11.dtd">
<svg version="1.1" id="Layer_1" xmlns="http://www.w3.org/2000/svg" xmlns:xlink="http://www.w3.org/1999/xlink" x="0px" y="0px" width="600.000px" height="600.000px" viewBox="0 0 600.000 600.000" enable-background="new 0 0 600.000 600.000" xml:space="preserve">
<polygon fill="#8b683e" points="455.947,270.055 150.877,110.634 486.337,524.547  "/>
<polygon fill="#e3e442" points="477.519,201.511 516.490,559.346 338.528,518.003  "/>
<polygon fill="#230318" points="130.907,436.289 290.464,498.052 599.068,547.842  "/>
<polygon fill="#76ce5f" points="562.943,87.706 482.799,581.581 430.255,320.771  "/>
<polygon fill="#e58c4c" points="497.611,213.039 346.983,386.104 220.644,578.027  "/>
<polygon fill="#e6dfcd" points="593.367,85.724 274.412,305.805 463.377,480.669  "/>
<polygon fill="#9f60f0" points="124.443,182.162 8.782,407.899 139.644,578.512  "/>
<polygon fill="#6b1775" points="588.678,103.641 85.185,493.599 189.374,440.784  "/>
<polygon fill="#0136dc" points="356.679,478.223 443.593,274.349 304.508,227.083  "/>
<polygon fill="#ccf909" points="143.990,538.762 90.825,286.784 463.148,33.833  "/>
<polygon fill="#043f85" points="391.983,110.164 356.470,131.921 39.700,175.199  "/>
<polygon fill="#27a45a" points="598.172,5.646 357.948,310.576 432.861,155.510  "/>
<polygon fill="#0ae481" points="460.942,97.813 146.122,106.219 567.338,413.029  "/>
<polygon fill="#4d29f2" points="462.331,498.281 82.541,10.852 383.829,137.102  "/>
<polygon fill="#575ed8" points="476.301,372.818 161.999,248.463 268.577,541.922  "/>
<polygon fill="#76110f" points="482.961,533.276 405.469,11.427 487.048,564.445  "/>
<polygon fill="#7b6c2d" points="59.273,57.051 76.598,468.232 207.931,89.567  "/>
<polygon fill="#9c7d2a" points="503.106,249.847 480.698,209.729 156.269,431.317  "/>
<polygon fill="#c9d910" points="409.003,521.913 294.724,493.685 197.110,65.572  "/>
<polygon fill="#8b8660" points="518.397,315.151 287.290,358.330 460.530,248.529  "/>
<polygon fill="#735a15" points="94.690,225.481 322.926,68.435 457.997,290.446  "/>
<polygon fill="#97981e" points="243.159,62.334 436.291,468.612 570.905,183.003  "/>
<polygon fill="#f00641" points="331.506,579.937 300.615,399.373 297.376,584.822  "/>
<polygon fill="#20fb69" points="344.551,8.860 291.080,447.669 15.995,439.745  "/>
<polygon fill="#26534d" points="16.408,120.469 410.461,145.504 54.128,143.780  "/>
<polygon fill="#767f19" points="101.609,334.764 295.110,105.322 329.372,47.357  "/>
<polygon fill="#bb81cd" points="75.639,105.335 0.244,360.391 219.178,13.046  "/>
<polygon fill="#ce4245" points="60.870,177.047 597.824,454.224 324.689,446.602  "/>
<polygon fill="#c412ac" points="227.563,240.938 156.772,170.291 599.475,291.262  "/>
<polygon fill="#10d9b6" points="44.891,164.262 196.101,319.511 366.175,45.963  "/>
<polygon fill="#5c318b" points="509.295,399.699 190.499,450.607 66.509,55.516  "/>
<polygon fill="#a06528" points="587.619,309.100 53.145,124.222 532.351,66.851  "/>
<polygon fill="#003fe7" points="232.306,71.216 306.796,441.716 197.647,34.174  "/>
<polygon fill="#d7acec" points="33.386,6.785 499.860,204.299 59.683,9.229  "/>
<polygon fill="#f66e83" points="255.252,136.205 307.307,454.186 166.499,586.578  "/>
<polygon fill="#e736ae" points="218.348,204.435 590.031,66.892 93.876,519.663  "/>
<polygon fill="#020d8d" points="205.894,363.528 77.317,147.497 450.636,128.315  "/>
<polygon fill="#bced01" points="21.764,169.220 167.178,9.289 82.276,454.757  "/>
<polygon fill="#8d4e3c" points="539.400,400.638 215.248,351.844 203.264,369.048  "/>
<polygon fill="#229f75" points="47.883,329.204 256.241,392.644 331.008,362.852  "/>
<polygon fill="#83b644" points="581.507,357.294 193.261,295.950 152.000,534.758  "/>
<polygon fill="#371f77" points="59.771,134.382 220.320,366.232 59.064,138.370  "/>
<polygon fill="#5dc0ef" points="265.197,270.532 125.497,389.327 141.289,477.383  "/>
<polygon fill="#8c3380" points="213.354,473.670 298.063,131.996 215.212,297.839  "/>
<polygon fill="#e04f6f" points="69.337,19.669 402.543,124.961 354.030,449.609  "/>
<polygon fill="#a13530" points="329.802,515.441 11.536,94.510 530.592,467.170  "/>
<polygon fill="#5e58ca" points="263.286,315.358 274.873,122.059 187.285,63.981  "/>
<polygon fill="#3597d1" points="281.986,41.693 89.691,223.964 556.521,264.562  "/>
<polygon fill="#32cd7d" points="379.249,402.476 170.561,583.432 59.493,142.044  "/>
<polygon fill="#44e5c1" points="522.476,527.753 540.949,37.229 169.854,499.800  "/>
<polygon fill="#0686ba" points="128.064,14.070 470.796,372.409 383.693,299.204  "/>
<polygon fill="#8b278c" points="477.068,333.409 145.535,121.977 232.673,338.663  "/>
<polygon fill="#853984" points="26.162,370.183 592.084,95.863 282.526,345.777  "/>
<polygon fill="#468ff6" points="306.608,356.703 498.344,13.325 225.241,107.975  "/>
</svg>