<?xml version="1.0" encoding="utf-8"?>
<!-- Generator: Python script. InTeResTinG -->
<!DOCTYPE svg PUBLIC "-//W3C//DTD SVG 1.1//EN" "http://www.w3.org/Graphics/SVG/1.1/DTD/svg11.dtd">
<svg version="1.1" id="Layer_1" xmlns="http://www.w3.org/2000/svg" xmlns:xlink="http://www.w3.org/1999/xlink" x="0px" y="0px" width="600.000px" height="600.000px" viewBox="0 0 600.000 600.000" enable-background="new 0 0 600.000 600.000" xml:space="preserve">
<polygon fill="#7e63d8" points="329.183,328.347 58.975,198.404 122.305,310.292  "/>
<polygon fill="#32cdaf" points="265.231,512.797 82.160,398.587 230.041,512.017  "/>
<polygon fill="#cc2fb2" points="197.869,451.906 240.652,155.496 553.562,141.895  "/>
<polygon fill="#2187d1" points="157.977,330.899 363.551,265.079 247.768,504.086  "/>
<polygon fill="#86d098" points="526.491,485.566 18.073,145.446 144.723,265.681  "/>
<polygon fill="#7b627b" points="226.996,54.080 498.580,526.565 564.628,15.196  "/>
<polygon fill="#eef98b" points="355.186,226.353 492.795,497.978 453.548,181.025  "/>
<polygon fill="#2b4bef" points="400.319,15.082 116.134,65.846 230.996,202.829  "/>
<polygon fill="#58a0f9" points="303.287,47.357 379.691,263.091 301.786,415.856  "/>
<polygon fill="#0a6dac" points="344.165,521.916 465.549,511.632 510.925,13.888  "/>
<polygon fill="#432a35" points="337.207,110.708 103.104,470.321 50.472,23.514  "/>
<polygon fill="#883c93" points="232.318,206.578 302.421,534.167 462.610,329.204  "/>
<polygon fill="#6d3e48" points="417.353,489.646 130.538,454.751 57.548,126.650  "/>
<polygon fill="#21aefb" points="26.244,266.225 180.979,199.865 592.566,512.928  "/>
<polygon fill="#55d0f8" points="294.564,283.080 266.731,350.494 292.253,206.634  "/>
<polygon fill="#894478" points="1.036,298.758 8.479,189.715 562.306,54.809  "/>
<polygon fill="#386295" points="360.722,429.939 372.465,575.246 427.637,399.946  "/>
<polygon fill="#690e22" points="538.041,304.825 349.683,325.278 133.861,106.989  "/>
<polygon fill="#66b7ff" points="410.801,481.498 318.979,268.595 529.663,55.893  "/>
<polygon fill="#8bde05" points="263.768,291.195 136.427,424.548 471.810,429.834  "/>
<polygon fill="#31ab6f" points="8.925,152.307 329.965,559.247 107.604,130.423  "/>
<polygon fill="#8e7208" points="508.076,498.849 154.008,166.854 547.960,253.328  "/>
<polygon fill="#9c1f12" points="473.410,328.609 575.721,227.240 6.017,183.746  "/>
<polygon fill="#fabd49" points="563.324,192.511 91.590,37.815 322.026,488.538  "/>
<polygon fill="#72a382" points="104.763,212.653 163.090,191.661 466.145,551.542  "/>
<polygon fill="#373d2e" points="422.497,249.078 414.302,306.063 426.444,210.572  "/>
<polygon fill="#7e8008" points="65.132,351.963 550.453,109.380 544.682,24.599  "/>
<polygon fill="#742303" points="551.712,267.900 114.554,184.962 267.230,344.457  "/>
<polygon fill="#2c87d1" points="388.663,222.204 374.941,0.331 64.979,290.541  "/>
<polygon fill="#824631" points="281.609,356.790 533.241,15.405 236.178,275.878  "/>
<polygon fill="#f4da8c" points="422.149,520.913 533.249,583.091 71.220,59.805  "/>
<polygon fill="#97229a" points="539.722,389.561 328.370,392.357 367.868,162.993  "/>
<polygon fill="#2a4bfe" points="340.344,548.655 483.805,539.872 63.377,48.195  "/>
<polygon fill="#0c3682" points="212.654,268.112 540.446,481.146 163.149,54.593  "/>
<polygon fill="#078274" points="420.097,28.198 458.631,60.628 304.669,286.204  "/>
<polygon fill="#2a5388" points="222.532,477.947 393.886,95.871 554.870,70.005  "/>
<polygon fill="#024874" points="448.716,2.669 102.470,487.613 149.332,348.647  "/>
<polygon fill="#1334f7" points="99.015,103.475 559.735,488.616 219.742,380.162  "/>
<polygon fill="#1b1fd1" points="109.041,80.628 73.353,128.817 495.872,176.942  "/>
<polygon fill="#cba5c4" points="520.007,65.870 560.272,459.887 15.737,456.630  "/>
<polygon fill="#5b209b" points="322.438,338.433 308.380,475.301 102.035,34.457  "/>
<polygon fill="#bca7be" points="281.693,474.910 396.685,367.886 452.607,569.198  "/>
<polygon fill="#ffdc44" points="317.833,44.370 21.435,253.707 496.665,323.691  "/>
<polygon fill="#9e0f13" points="542.640,144.395 530.336,586.462 521.126,64.525  "/>
<polygon fill="#9a1392" points="364.473,285.068 477.886,228.497 14.497,497.479  "/>
<polygon fill="#7e9c42" points="434.115,338.496 152.333,509.187 498.708,86.758  "/>
<polygon fill="#d2c5fa" points="428.127,513.742 587.995,357.197 543.698,363.246  "/>
<polygon fill="#f22a13" points="284.402,173.642 97.354,8.875 124.798,120.568  "/>
<polygon fill="#8720d3" points="539.740,447.970 52.760,421.316 561.210,504.187  "/>
<polygon fill="#92654e" points="495.286,532.207 576.864,242.803 503.573,266.402  "/>
<polygon fill="#75a1ff" points="27.472,284.747 505.202,461.962 84.918,399.190  "/>
<polygon fill="#f09cce" points="183.771,489.068 317.083,240.323 186.584,161.689  "/>
<polygon fill="#14db72" points="488.109,474.750 6.414,553.615 173.759,543.277  "/>
<polygon fill="#8b96eb" points="582.838,221.611 34.995,110.798 495.176,460.490  "/>
<polygon fill="#78a889" points="96.218,6.819 346.302,98.943 162.974,288.587  "/>
<polygon fill="#5a6cbd" points="118.034,567.708 344.828,57.699 247.754,9.129  "/>
<polygon fill="#20f3cf" points="184.241,152.574 223.044,427.591 220.212,279.991  "/>
<polygon fill="#60124e" points="290.764,129.233 151.827,431.912 502.097,134.898  "/>
<polygon fill="#94033a" points="542.925,121.752 143.370,465.108 173.935,198.790  "/>
<polygon fill="#c49532" points="307.740,561.147 511.503,100.751 403.947,247.144  "/>
<polygon fill="#ff4a75" points="500.848,235.646 4.435,595.970 235.247,521.690  "/>
<polygon fill="#3bde16" points="79.537,374.231 268.310,300.160 461.399,254.936  "/>
</svg>