<?xml version="1.0" encoding="utf-8"?>
<!-- Generator: Python script. InTeResTinG -->
<!DOCTYPE svg PUBLIC "-//W3C//DTD SVG 1.1//EN" "http://www.w3.org/Graphics/SVG/1.1/DTD/svg11.dtd">
<svg version="1.1" id="Layer_1" xmlns="http://www.w3.org/2000/svg" xmlns:xlink="http://www.w3.org/1999/xlink" x="0px" y="0px" width="600.000px" height="600.000px" viewBox="0 0 600.000 600.000" enable-background="new 0 0 600.000 600.000" xml:space="preserve">
<polygon fill="#90cb71" points="118.029,232.275 27.445,65.342 479.251,594.883  "/>
<polygon fill="#14cf78" points="333.422,324.694 303.537,266.097 459.463,387.564  "/>
<polygon fill="#115c94" points="550.106,221.779 531.129,410.437 113.159,549.853  "/>
<polygon fill="#2e5eec" points="338.790,165.685 379.807,243.713 357.444,587.443  "/>
<polygon fill="#8a67ff" points="65.193,501.357 151.529,422.362 577.546,341.508  "/>
<polygon fill="#e6854c" points="435.114,0.046 468.781,327.499 347.777,96.366  "/>
<polygon fill="#5d848d" points="311.076,270.601 387.898,65.338 17.135,165.067  "/>
<polygon fill="#d4c82f" points="41.380,90.224 581.774,190.875 261.228,242.993  "/>
<polygon fill="#004fc4" points="523.783,594.694 231.775,545.143 396.356,384.240  "/>
<polygon fill="#5d3bfc" points="386.014,317.980 492.900,256.537 425.399,63.850  "/>
<polygon fill="#8921ad" points="326.676,538.341 238.397,365.109 74.143,78.288  "/>
<polygon fill="#807769" points="245.833,108.239 598.680,417.928 425.161,415.609  "/>
<polygon fill="#11dd53" points="488.831,327.097 188.218,547.378 563.097,231.688  "/>
<polygon fill="#1f85e4" points="355.070,328.345 575.401,332.602 489.703,424.520  "/>
<polygon fill="#fac2a0" points="288.530,62.816 298.553,220.529 188.353,217.378  "/>
<polygon fill="#e4941e" points="421.463,339.524 522.337,550.755 25.977,384.306  "/>
<polygon fill="#6a5d02" points="565.463,507.819 505.916,507.919 305.116,592.655  "/>
<polygon fill="#c33dcc" points="568.695,371.071 189.481,156.760 414.436,112.399  "/>
<polygon fill="#bfc144" points="380.504,399.242 266.538,152.611 75.336,100.034  "/>
<polygon fill="#907f89" points="386.177,520.766 410.175,343.141 397.885,271.844  "/>
<polygon fill="#24766b" points="159.733,457.987 114.553,30.991 370.475,394.051  "/>
<polygon fill="#6e41d0" points="363.416,249.457 361.939,219.253 464.691,304.063  "/>
<polygon fill="#427c76" points="89.733,409.289 373.399,347.693 453.158,128.817  "/>
<polygon fill="#482873" points="303.729,410.646 14.703,506.419 498.327,236.256  "/>
<polygon fill="#f85153" points="411.230,19.171 541.633,598.189 460.479,575.596  "/>
<polygon fill="#1831af" points="595.337,148.086 378.379,300.999 103.084,583.587  "/>
<polygon fill="#7c1102" points="152.235,364.970 197.920,403.198 472.023,88.960  "/>
<polygon fill="#c38342" points="207.629,261.649 128.352,133.408 208.989,213.972  "/>
<polygon fill="#f49708" points="458.208,347.358 435.726,67.421 532.521,285.232  "/>
<polygon fill="#457384" points="257.043,139.023 220.723,328.891 553.378,179.409  "/>
<polygon fill="#1aa83e" points="419.092,408.907 44.799,77.714 327.833,287.852  "/>
<polygon fill="#6d2979" points="519.744,54.775 164.075,60.205 404.833,397.827  "/>
<polygon fill="#233797" points="107.070,488.628 442.416,302.380 164.800,507.679  "/>
<polygon fill="#f0861d" points="63.614,78.281 207.836,589.671 223.059,580.117  "/>
<polygon fill="#e98d89" points="391.465,339.544 555.118,248.972 404.339,566.763  "/>
<polygon fill="#1723e1" points="233.231,421.996 376.818,448.713 226.238,269.742  "/>
<polygon fill="#c261db" points="308.200,271.237 141.108,385.381 399.535,559.478  "/>
<polygon fill="#1ff6db" points="207.697,472.382 195.638,214.916 138.437,200.747  "/>
<polygon fill="#ea63a8" points="229.796,180.024 61.381,596.469 370.621,172.767  "/>
<polygon fill="#3a0444" points="449.502,555.518 583.001,245.176 505.459,383.483  "/>
<polygon fill="#7e60a2" points="336.911,20.710 416.854,142.853 528.026,537.747  "/>
<polygon fill="#c9e47f" points="412.811,433.302 380.558,51.868 39.310,133.068  "/>
<polygon fill="#9a0cd8" points="138.135,399.262 428.202,140.884 506.981,200.292  "/>
<polygon fill="#907dfb" points="149.019,178.833 259.407,437.316 332.474,555.406  "/>
<polygon fill="#ba1e98" points="404.138,280.150 303.702,142.575 48.124,369.300  "/>
<polygon fill="#66ed0d" points="180.668,1.858 545.836,523.647 492.165,165.030  "/>
<polygon fill="#cd863f" points="318.057,92.710 154.886,442.565 554.807,160.291  "/>
<polygon fill="#94e1f1" points="357.747,553.422 157.832,115.539 126.416,53.191  "/>
<polygon fill="#09014d" points="527.777,299.975 411.454,339.752 106.101,417.716  "/>
<polygon fill="#8d8bca" points="241.519,60.356 474.415,512.428 437.636,311.718  "/>
<polygon fill="#2eff09" points="506.653,86.224 578.351,260.097 258.900,422.817  "/>
<polygon fill="#a2bdfb" points="540.836,56.853 28.352,545.702 528.715,210.853  "/>
<polygon fill="#976263" points="459.609,359.719 473.184,279.125 225.089,490.212  "/>
<polygon fill="#3307c9" points="432.497,44.671 236.723,391.601 538.585,252.907  "/>
<polygon fill="#1575b5" points="137.704,223.842 216.939,14.943 582.306,133.646  "/>
<polygon fill="#7214da" points="49.258,291.070 109.997,564.974 425.303,511.143  "/>
<polygon fill="#da29c7" points="68.802,500.332 92.643,525.904 412.295,302.040  "/>
<polygon fill="#f45a21" points="336.291,117.096 443.777,401.694 53.897,112.747  "/>
<polygon fill="#7f6184" points="70.801,171.079 588.367,599.887 499.397,511.760  "/>
<polygon fill="#1fbba6" points="432.861,104.156 525.775,413.443 351.662,372.272  "/>
<polygon fill="#6bb59a" points="159.594,279.835 403.620,265.936 599.736,494.856  "/>
<polygon fill="#9204fb" points="269.706,69.684 401.128,308.463 249.344,231.242  "/>
<polygon fill="#1d6d9d" points="524.871,440.065 314.183,481.911 88.997,61.591  "/>
<polygon fill="#47bacc" points="598.822,238.831 144.077,106.888 265.837,41.146  "/>
<polygon fill="#4f5c78" points="121.301,443.335 594.266,64.293 491.806,76.234  "/>
</svg>