<?xml version="1.0" encoding="utf-8"?>
<!-- Generator: Python script. InTeResTinG -->
<!DOCTYPE svg PUBLIC "-//W3C//DTD SVG 1.1//EN" "http://www.w3.org/Graphics/SVG/1.1/DTD/svg11.dtd">
<svg version="1.1" id="Layer_1" xmlns="http://www.w3.org/2000/svg" xmlns:xlink="http://www.w3.org/1999/xlink" x="0px" y="0px" width="600.000px" height="600.000px" viewBox="0 0 600.000 600.000" enable-background="new 0 0 600.000 600.000" xml:space="preserve">
<polygon fill="#bb45a4" points="390.815,211.413 74.476,536.840 164.502,418.451  "/>
<polygon fill="#dad843" points="131.945,290.266 446.489,3.665 217.021,352.453  "/>
<polygon fill="#6b2b29" points="591.205,451.755 364.127,120.675 528.206,362.437  "/>
<polygon fill="#ce2657" points="131.113,66.572 347.920,595.347 538.852,117.433  "/>
<polygon fill="#bfcce9" points="214.733,507.493 542.920,42.583 578.798,16.897  "/>
<polygon fill="#75b421" points="470.883,404.305 582.269,68.572 205.066,125.227  "/>
<polygon fill="#0a9aa7" points="309.018,348.812 158.297,406.175 283.317,549.619  "/>
<polygon fill="#6aef36" points="285.500,111.894 584.994,473.664 372.571,422.343  "/>
<polygon fill="#bfaed9" points="392.726,53.434 282.066,577.394 593.524,74.601  "/>
<polygon fill="#147471" points="317.370,65.570 175.798,583.517 189.292,358.170  "/>
<polygon fill="#e0260a" points="236.197,502.594 518.142,596.225 138.379,331.195  "/>
<polygon fill="#dd9d47" points="538.275,395.440 101.560,176.487 84.764,452.602  "/>
<polygon fill="#90e986" points="236.899,71.590 98.230,415.278 22.405,492.561  "/>
<polygon fill="#5a68ed" points="246.886,302.050 440.396,254.518 157.064,475.145  "/>
<polygon fill="#129d3f" points="192.463,528.369 285.694,375.156 532.256,311.471  "/>
<polygon fill="#11f1c7" points="200.468,358.951 214.865,423.404 432.604,39.550  "/>
<polygon fill="#734665" points="60.956,67.276 140.761,493.539 58.844,517.325  "/>
<polygon fill="#f7f8f4" points="69.225,342.923 60.068,96.593 334.330,289.765  "/>
<polygon fill="#bbf5d4" points="395.862,562.631 171.610,46.336 67.737,130.012  "/>
<polygon fill="#97cdea" points="555.852,355.770 18.575,519.446 495.698,378.801  "/>
<polygon fill="#0c4a03" points="269.609,225.151 43.265,205.128 203.987,567.986  "/>
<polygon fill="#eb0706" points="20.514,82.904 420.541,191.107 290.639,238.817  "/>
<polygon fill="#f66606" points="379.750,83.156 436.447,490.246 114.158,405.151  "/>
<polygon fill="#1fd0ac" points="72.822,428.827 273.196,423.276 138.453,534.977  "/>
<polygon fill="#9162bc" points="252.579,576.221 496.485,481.218 595.341,499.234  "/>
<polygon fill="#ae1cbb" points="9.294,494.407 236.469,439.767 420.824,318.315  "/>
<polygon fill="#e92c91" points="78.122,224.642 222.681,32.019 189.354,200.131  "/>
<polygon fill="#667afd" points="282.044,486.179 236.087,45.994 577.011,533.404  "/>
<polygon fill="#c45d3d" points="460.307,518.676 421.697,241.878 481.108,29.086  "/>
<polygon fill="#4a0610" points="551.872,146.331 538.528,158.802 312.403,361.463  "/>
<polygon fill="#e5149d" points="36.292,369.963 168.240,229.733 497.194,260.357  "/>
<polygon fill="#401524" points="172.157,194.344 98.994,598.034 19.662,30.894  "/>
<polygon fill="#a114d8" points="386.930,469.286 336.719,231.418 308.302,563.361  "/>
<polygon fill="#ea18d4" points="37.055,175.205 300.996,164.718 87.683,193.857  "/>
<polygon fill="#df6d7f" points="262.513,243.188 208.784,143.791 597.162,482.130  "/>
<polygon fill="#7ad314" points="598.232,595.017 64.371,350.817 503.793,500.021  "/>
<polygon fill="#5d4aba" points="542.736,292.439 46.450,71.662 230.329,577.413  "/>
<polygon fill="#88e80a" points="299.952,406.141 381.221,261.339 281.686,133.715  "/>
<polygon fill="#415f0c" points="227.628,35.311 120.811,90.716 339.901,355.724  "/>
<polygon fill="#aa1be8" points="32.963,488.106 559.250,365.117 72.844,484.608  "/>
<polygon fill="#575067" points="354.263,8.005 464.014,566.762 447.718,108.425  "/>
<polygon fill="#5eee59" points="482.413,158.415 392.476,595.557 19.327,393.783  "/>
<polygon fill="#ba35cd" points="373.861,543.284 469.081,121.521 526.819,533.395  "/>
<polygon fill="#921521" points="316.087,486.499 185.521,95.144 204.641,152.280  "/>
<polygon fill="#726fcd" points="24.086,106.068 587.104,6.468 528.390,217.771  "/>
<polygon fill="#014742" points="21.359,528.489 166.438,554.222 384.443,43.092  "/>
<polygon fill="#def8b5" points="111.106,439.306 371.916,136.825 260.801,520.689  "/>
<polygon fill="#348dd0" points="504.932,376.329 218.120,368.443 202.343,252.397  "/>
<polygon fill="#0d1be3" points="186.191,521.920 170.164,540.783 542.331,511.934  "/>
<polygon fill="#79df11" points="185.140,586.660 323.436,148.134 170.030,467.234  "/>
<polygon fill="#a2b277" points="374.028,469.373 232.079,267.873 412.466,235.851  "/>
</svg>