<?xml version="1.0" encoding="utf-8"?>
<!-- Generator: Python script. InTeResTinG -->
<!DOCTYPE svg PUBLIC "-//W3C//DTD SVG 1.1//EN" "http://www.w3.org/Graphics/SVG/1.1/DTD/svg11.dtd">
<svg version="1.1" id="Layer_1" xmlns="http://www.w3.org/2000/svg" xmlns:xlink="http://www.w3.org/1999/xlink" x="0px" y="0px" width="600.000px" height="600.000px" viewBox="0 0 600.000 600.000" enable-background="new 0 0 600.000 600.000" xml:space="preserve">
<polygon fill="#57db13" points="162.966,274.527 376.055,499.820 447.654,212.480  "/>
<polygon fill="#ef4baf" points="398.244,531.968 172.087,554.110 275.058,597.558  "/>
<polygon fill="#509271" points="208.126,458.573 263.760,474.478 60.538,79.162  "/>
<polygon fill="#c90dfd" points="570.585,35.578 379.175,330.928 543.230,84.936  "/>
<polygon fill="#f69f8c" points="536.138,190.202 269.485,509.656 586.763,165.016  "/>
<polygon fill="#59b276" points="204.578,295.781 114.039,473.416 550.524,235.070  "/>
<polygon fill="#ee9568" points="470.863,488.254 539.165,31.149 22.969,241.257  "/>
<polygon fill="#85eecd" points="76.062,41.485 387.230,432.192 343.159,539.045  "/>
<polygon fill="#efd7fa" points="1.259,322.923 90.568,378.249 311.339,553.647  "/>
<polygon fill="#7a8bf3" points="206.018,136.367 359.527,375.940 317.573,86.143  "/>
<polygon fill="#0d630b" points="168.519,227.657 452.280,257.861 218.464,142.953  "/>
<polygon fill="#2664f8" points="65.168,594.719 291.848,54.110 577.861,461.323  "/>
<polygon fill="#a92251" points="41.778,481.171 65.065,371.300 173.889,79.467  "/>
<polygon fill="#82c060" points="223.659,16.583 71.349,210.185 141.512,46.160  "/>
<polygon fill="#7f50cd" points="263.971,282.440 296.455,575.740 102.794,53.468  "/>
<polygon fill="#4265b6" points="62.491,277.940 96.096,396.563 472.487,62.480  "/>
<polygon fill="#59f21e" points="141.512,396.945 355.551,479.426 334.498,230.018  "/>
<polygon fill="#d139ae" points="310.202,332.173 518.906,287.586 317.181,31.411  "/>
<polygon fill="#ea1eb7" points="371.408,149.049 380.904,244.667 190.973,83.903  "/>
<polygon fill="#fb92d5" points="350.112,495.528 25.724,528.128 125.702,200.827  "/>
<polygon fill="#414758" points="253.081,312.045 168.509,159.243 367.513,131.730  "/>
<polygon fill="#f6e2bf" points="271.574,217.558 371.482,184.801 83.726,551.685  "/>
<polygon fill="#b95eca" points="75.594,397.784 180.687,291.897 415.501,445.707  "/>
<polygon fill="#9cbb1d" points="307.973,6.770 289.205,132.353 350.878,89.060  "/>
<polygon fill="#eff1e2" points="383.722,105.620 98.995,461.693 188.263,486.384  "/>
<polygon fill="#966833" points="356.705,396.448 41.574,80.934 525.809,129.599  "/>
<polygon fill="#983400" points="436.703,20.097 464.319,124.435 511.956,136.848  "/>
<polygon fill="#bc1ec7" points="247.464,167.704 132.919,200.033 327.277,10.023  "/>
<polygon fill="#a0f49e" points="39.922,326.974 258.897,97.765 561.156,306.129  "/>
<polygon fill="#459590" points="286.398,200.259 343.880,305.126 6.369,286.055  "/>
<polygon fill="#7f3d61" points="365.201,444.220 597.536,410.872 197.986,86.052  "/>
<polygon fill="#ce67c1" points="338.823,270.876 111.779,98.345 355.828,402.992  "/>
<polygon fill="#80b29a" points="348.469,314.441 346.539,548.256 424.009,95.360  "/>
<polygon fill="#aabf85" points="26.742,475.110 399.407,260.487 0.571,547.160  "/>
<polygon fill="#53cbce" points="342.477,287.897 94.595,558.961 418.017,196.452  "/>
<polygon fill="#b12101" points="499.162,420.333 328.023,26.019 572.008,288.501  "/>
<polygon fill="#bf8c3f" points="84.750,475.522 124.538,43.975 197.094,80.921  "/>
<polygon fill="#326ec3" points="159.978,22.363 386.478,322.939 185.690,311.983  "/>
<polygon fill="#f345df" points="402.508,109.466 365.152,340.528 379.444,542.326  "/>
<polygon fill="#9faf82" points="489.040,438.382 584.484,329.858 230.255,58.514  "/>
<polygon fill="#ce54b5" points="592.784,451.317 47.631,571.459 587.342,234.107  "/>
<polygon fill="#c1864e" points="305.884,91.289 477.825,226.813 233.248,267.890  "/>
<polygon fill="#b4a1c7" points="563.164,280.007 31.086,174.718 294.447,529.223  "/>
<polygon fill="#832a92" points="476.385,94.412 269.713,349.390 341.683,393.178  "/>
<polygon fill="#32c485" points="92.165,231.969 596.517,527.350 483.773,256.874  "/>
<polygon fill="#189c4e" points="44.087,400.490 586.315,311.793 112.229,404.858  "/>
<polygon fill="#c4d174" points="462.387,527.587 588.150,267.776 518.646,264.658  "/>
<polygon fill="#f7babd" points="331.204,296.891 188.517,231.006 533.405,372.125  "/>
<polygon fill="#9af4a7" points="169.190,105.056 348.996,495.445 366.416,193.518  "/>
<polygon fill="#2f60e7" points="479.822,69.367 224.987,598.078 84.915,538.997  "/>
<polygon fill="#d67348" points="374.454,83.028 477.808,95.374 282.713,120.606  "/>
<polygon fill="#8c099e" points="432.243,293.662 98.668,462.181 214.793,364.133  "/>
<polygon fill="#3931e2" points="491.818,405.255 166.268,187.608 247.921,42.919  "/>
<polygon fill="#63bbdb" points="50.519,335.246 382.279,295.432 588.514,59.846  "/>
<polygon fill="#44791f" points="445.397,82.107 594.024,51.996 79.218,433.079  "/>
<polygon fill="#ee4cb9" points="93.389,231.658 426.282,217.890 393.539,340.449  "/>
<polygon fill="#35599c" points="144.113,143.404 495.619,389.145 234.598,250.755  "/>
<polygon fill="#f47abb" points="8.871,448.888 521.690,471.349 356.780,560.942  "/>
<polygon fill="#c595a7" points="522.545,262.243 388.522,452.677 314.767,473.965  "/>
<polygon fill="#c7059d" points="485.506,14.596 143.606,509.548 106.253,422.702  "/>
<polygon fill="#3fc265" points="577.857,569.556 28.566,191.736 204.151,425.249  "/>
<polygon fill="#f2c201" points="430.638,503.551 279.557,439.277 243.445,330.726  "/>
</svg>