<?xml version="1.0" encoding="utf-8"?>
<!-- Generator: Python script. InTeResTinG -->
<!DOCTYPE svg PUBLIC "-//W3C//DTD SVG 1.1//EN" "http://www.w3.org/Graphics/SVG/1.1/DTD/svg11.dtd">
<svg version="1.1" id="Layer_1" xmlns="http://www.w3.org/2000/svg" xmlns:xlink="http://www.w3.org/1999/xlink" x="0px" y="0px" width="600.000px" height="600.000px" viewBox="0 0 600.000 600.000" enable-background="new 0 0 600.000 600.000" xml:space="preserve">
<polygon fill="#bbf2bc" points="429.511,15.537 445.682,239.549 577.819,389.759  "/>
<polygon fill="#3941a4" points="255.662,499.153 378.665,175.313 427.228,204.238  "/>
<polygon fill="#f7be38" points="149.094,510.324 524.119,589.064 553.418,595.834  "/>
<polygon fill="#9731bb" points="382.363,231.232 544.099,279.637 120.814,400.663  "/>
<polygon fill="#c73e0d" points="109.404,27.590 222.966,237.028 78.164,152.705  "/>
<polygon fill="#a3e632" points="487.224,569.171 245.662,449.677 348.843,206.040  "/>
<polygon fill="#32fd83" points="159.886,349.988 38.574,151.558 442.478,252.012  "/>
<polygon fill="#f3c477" points="169.893,229.274 236.808,304.388 170.191,86.263  "/>
<polygon fill="#b4c7cc" points="231.796,321.711 138.774,421.899 218.578,95.331  "/>
<polygon fill="#7df080" points="326.157,207.050 459.992,33.291 166.741,219.433  "/>
<polygon fill="#cdf289" points="568.244,498.730 18.168,113.444 496.295,455.891  "/>
<polygon fill="#6cefd5" points="312.298,127.328 204.704,298.256 538.510,224.808  "/>
<polygon fill="#762829" points="310.665,367.639 157.339,22.676 168.884,490.075  "/>
<polygon fill="#3eecb0" points="277.830,362.680 154.755,11.557 98.026,245.554  "/>
<polygon fill="#e5de3f" points="227.622,165.765 302.757,57.724 566.611,416.853  "/>
<polygon fill="#8f19da" points="287.927,267.301 391.932,62.661 219.571,542.078  "/>
<polygon fill="#7b31ba" points="101.951,166.874 70.897,387.819 341.701,439.774  "/>
<polygon fill="#03319c" points="516.684,553.763 578.011,74.692 153.894,31.574  "/>
<polygon fill="#b549be" points="175.633,367.814 542.651,551.376 194.128,584.157  "/>
<polygon fill="#45f959" points="381.363,369.724 183.625,312.517 150.537,178.889  "/>
<polygon fill="#a60771" points="75.325,317.713 109.894,71.483 0.560,335.312  "/>
<polygon fill="#0370a6" points="290.585,188.331 72.097,453.795 509.240,205.056  "/>
<polygon fill="#fef609" points="36.692,507.419 586.426,13.214 452.289,432.831  "/>
<polygon fill="#bb2efc" points="428.379,398.352 168.418,141.011 450.858,292.745  "/>
<polygon fill="#2570fb" points="254.324,513.317 598.165,260.977 599.433,398.165  "/>
<polygon fill="#7b9c75" points="507.993,314.222 102.043,219.797 341.484,165.387  "/>
<polygon fill="#7e5b47" points="474.077,197.667 235.956,286.033 501.033,285.350  "/>
<polygon fill="#cc2934" points="515.843,566.317 558.293,224.972 114.863,234.526  "/>
<polygon fill="#5e6788" points="403.841,541.134 259.024,248.332 325.844,84.059  "/>
<polygon fill="#866ffa" points="517.638,183.439 238.410,347.278 44.630,294.796  "/>
<polygon fill="#a5782e" points="88.318,158.257 62.504,451.587 591.571,209.821  "/>
<polygon fill="#8f9605" points="233.077,426.448 487.076,296.040 300.637,10.914  "/>
<polygon fill="#452780" points="220.404,299.823 244.521,197.820 251.550,486.928  "/>
<polygon fill="#b7a055" points="303.723,274.116 157.632,500.890 468.586,108.768  "/>
<polygon fill="#be00f2" points="376.704,450.347 500.902,481.957 376.039,176.779  "/>
<polygon fill="#440470" points="379.544,242.919 63.191,28.437 93.555,208.295  "/>
<polygon fill="#da5362" points="509.548,198.588 540.318,353.509 13.473,286.086  "/>
<polygon fill="#b434c2" points="291.550,240.160 46.259,500.353 548.170,433.610  "/>
<polygon fill="#0d3354" points="512.319,275.377 147.187,565.787 163.287,263.612  "/>
<polygon fill="#659edf" points="486.755,501.015 35.416,405.495 546.473,332.456  "/>
<polygon fill="#fa2e8a" points="165.885,161.865 287.373,358.790 406.551,143.417  "/>
<polygon fill="#8cc203" points="2.435,49.935 268.078,238.373 539.200,445.170  "/>
<polygon fill="#88e899" points="141.761,411.372 406.249,251.235 67.394,559.873  "/>
<polygon fill="#7fd472" points="248.062,428.702 497.079,267.866 596.116,591.157  "/>
<polygon fill="#d7761f" points="190.106,473.109 73.644,574.921 553.264,590.380  "/>
<polygon fill="#d4a0e3" points="355.991,123.521 495.427,74.280 356.520,254.331  "/>
<polygon fill="#7ff158" points="386.714,194.701 68.009,138.223 35.525,312.955  "/>
<polygon fill="#5356da" points="534.835,486.887 67.859,394.950 327.129,171.039  "/>
<polygon fill="#48173c" points="248.633,443.352 592.948,496.122 531.090,542.120  "/>
<polygon fill="#4d0bbd" points="467.391,356.894 315.629,129.902 478.129,89.350  "/>
<polygon fill="#32f7e3" points="217.287,110.609 447.650,72.358 558.661,461.931  "/>
<polygon fill="#a6f019" points="294.962,494.487 62.773,466.378 221.903,459.624  "/>
<polygon fill="#448366" points="261.997,206.500 244.361,349.512 453.290,199.439  "/>
<polygon fill="#9ca1d0" points="118.857,176.029 169.585,341.715 8.140,236.931  "/>
<polygon fill="#e7f00a" points="36.085,282.205 154.072,70.432 67.475,521.390  "/>
<polygon fill="#23c3da" points="393.780,6.528 296.446,136.274 189.022,578.322  "/>
<polygon fill="#d488c3" points="32.405,44.487 594.464,390.826 348.812,334.184  "/>
<polygon fill="#009fbd" points="62.398,538.957 168.537,562.087 13.536,332.091  "/>
<polygon fill="#844de4" points="498.273,141.099 257.346,581.222 269.177,10.079  "/>
<polygon fill="#e5d073" points="257.292,321.761 292.375,37.294 500.150,236.763  "/>
<polygon fill="#2aad04" points="374.526,516.985 403.393,549.251 31.750,50.478  "/>
<polygon fill="#2730ca" points="224.557,9.176 226.241,270.632 429.977,527.743  "/>
<polygon fill="#43672b" points="548.027,292.689 579.235,126.371 453.016,290.807  "/>
<polygon fill="#b5e77b" points="41.118,376.355 232.067,60.878 495.931,347.047  "/>
<polygon fill="#618dbe" points="60.139,496.396 464.093,267.367 28.406,577.339  "/>
<polygon fill="#ba1656" points="328.632,7.483 90.597,418.234 537.831,155.308  "/>
<polygon fill="#812e4e" points="59.077,14.835 219.321,108.374 578.228,43.463  "/>
</svg>