<?xml version="1.0" encoding="utf-8"?>
<!-- Generator: Python script. InTeResTinG -->
<!DOCTYPE svg PUBLIC "-//W3C//DTD SVG 1.1//EN" "http://www.w3.org/Graphics/SVG/1.1/DTD/svg11.dtd">
<svg version="1.1" id="Layer_1" xmlns="http://www.w3.org/2000/svg" xmlns:xlink="http://www.w3.org/1999/xlink" x="0px" y="0px" width="600.000px" height="600.000px" viewBox="0 0 600.000 600.000" enable-background="new 0 0 600.000 600.000" xml:space="preserve">
<polygon fill="#4ac1ba" points="26.083,116.685 504.679,24.960 133.213,433.649  "/>
<polygon fill="#eac6f8" points="154.175,7.822 130.353,45.142 26.908,476.492  "/>
<polygon fill="#10e613" points="288.751,478.515 430.381,71.946 14.764,128.385  "/>
<polygon fill="#bd7774" points="585.360,358.923 83.014,95.139 45.969,512.734  "/>
<polygon fill="#ce85c3" points="562.732,142.177 585.217,347.958 568.398,437.010  "/>
<polygon fill="#1833bb" points="141.574,218.441 254.337,153.436 49.965,584.580  "/>
<polygon fill="#3dfb1c" points="350.020,354.024 485.514,219.987 440.874,533.556  "/>
<polygon fill="#92633e" points="525.918,393.581 2.879,167.592 205.424,115.279  "/>
<polygon fill="#14d582" points="342.771,268.720 206.855,381.219 348.383,275.262  "/>
<polygon fill="#a3da6c" points="280.577,340.883 136.289,353.266 517.774,293.715  "/>
<polygon fill="#a22775" points="572.807,71.464 64.977,245.213 320.305,353.763  "/>
<polygon fill="#8a230e" points="33.007,145.484 3.724,44.098 138.510,475.695  "/>
<polygon fill="#9c9473" points="328.337,167.049 128.258,491.670 483.674,555.504  "/>
<polygon fill="#dcf451" points="434.982,3.601 318.096,194.615 48.558,271.757  "/>
<polygon fill="#f3ea03" points="376.060,136.668 198.402,187.952 248.116,108.548  "/>
<polygon fill="#6e0d8b" points="115.574,491.845 569.909,323.682 138.144,560.409  "/>
<polygon fill="#71e163" points="225.773,157.471 17.750,302.725 387.705,597.551  "/>
<polygon fill="#dc5998" points="460.759,356.141 120.281,314.611 196.388,16.996  "/>
<polygon fill="#4b6108" points="18.379,132.937 51.182,288.872 416.406,159.778  "/>
<polygon fill="#31a96c" points="522.389,441.125 216.606,9.179 489.482,256.150  "/>
<polygon fill="#ce06a6" points="173.168,97.866 545.993,191.636 582.373,131.531  "/>
<polygon fill="#43f44a" points="452.170,316.347 372.780,565.938 301.316,363.197  "/>
<polygon fill="#cb8c5c" points="320.848,297.696 242.730,249.810 504.166,573.261  "/>
<polygon fill="#36f502" points="288.467,313.608 42.466,64.631 237.352,314.993  "/>
<polygon fill="#cd9694" points="333.411,362.966 129.426,353.619 359.457,493.405  "/>
<polygon fill="#de50e9" points="395.460,345.970 91.872,220.207 307.425,150.726  "/>
<polygon fill="#09c488" points="193.455,273.631 292.138,96.352 346.296,530.662  "/>
<polygon fill="#751ae8" points="38.231,109.982 434.298,151.555 322.925,203.466  "/>
<polygon fill="#1b0a51" points="580.609,394.590 584.875,125.293 290.769,55.723  "/>
<polygon fill="#60920f" points="136.958,226.215 49.999,296.271 396.184,160.479  "/>
<polygon fill="#74e8c4" points="349.348,215.183 353.169,90.989 184.394,241.284  "/>
<polygon fill="#f63ead" points="9.101,154.589 473.233,314.346 109.411,396.440  "/>
<polygon fill="#2e96b4" points="471.518,460.104 489.374,54.093 206.403,147.657  "/>
<polygon fill="#75913a" points="83.320,187.745 24.342,520.438 42.572,273.379  "/>
<polygon fill="#af3243" points="403.434,271.782 279.546,357.998 39.797,416.745  "/>
<polygon fill="#45c0cf" points="385.997,287.622 349.129,475.307 537.017,425.970  "/>
<polygon fill="#a0946b" points="273.132,478.070 58.980,413.572 320.441,407.551  "/>
<polygon fill="#49efea" points="432.911,121.394 221.096,260.957 403.292,25.184  "/>
<polygon fill="#382cc8" points="588.383,188.241 418.757,467.121 211.313,578.730  "/>
<polygon fill="#6fad07" points="213.600,435.364 75.539,340.257 416.074,380.749  "/>
<polygon fill="#0ba87e" points="391.256,122.323 307.920,207.379 109.938,272.798  "/>
<polygon fill="#4a5318" points="52.339,286.888 25.340,539.794 138.898,187.466  "/>
<polygon fill="#442581" points="90.908,521.317 396.971,356.368 504.806,316.014  "/>
<polygon fill="#5065d2" points="44.826,565.944 554.932,156.509 411.263,129.565  "/>
<polygon fill="#bf2e10" points="589.733,561.274 189.700,164.085 492.099,398.689  "/>
<polygon fill="#d8ace4" points="492.555,540.921 18.637,569.892 247.735,522.322  "/>
<polygon fill="#f5425e" points="309.073,129.324 366.748,381.911 347.953,19.418  "/>
<polygon fill="#ff581b" points="487.599,391.515 539.150,406.756 227.806,517.741  "/>
<polygon fill="#01df77" points="0.798,185.855 122.777,521.777 363.668,473.526  "/>
<polygon fill="#1c5c58" points="273.731,180.553 46.254,230.511 94.594,262.575  "/>
<polygon fill="#fc3444" points="485.790,469.728 241.850,596.828 335.148,151.265  "/>
<polygon fill="#e7fbe9" points="161.341,28.514 558.666,46.941 172.646,232.405  "/>
<polygon fill="#9f6c9d" points="136.111,204.538 453.564,235.642 532.593,420.386  "/>
<polygon fill="#e380bc" points="259.410,178.792 515.825,301.955 119.007,555.521  "/>
<polygon fill="#1c7993" points="349.623,326.366 25.136,67.167 77.867,166.361  "/>
<polygon fill="#b71bbd" points="339.154,581.341 86.556,509.048 193.919,174.098  "/>
<polygon fill="#17fbaf" points="182.392,47.180 416.677,551.066 35.567,474.635  "/>
<polygon fill="#e00762" points="356.370,244.180 541.528,418.473 505.587,552.086  "/>
<polygon fill="#b8f2d0" points="106.952,230.951 347.772,219.820 311.527,512.205  "/>
<polygon fill="#5b226d" points="220.347,180.026 270.568,396.867 156.958,550.351  "/>
<polygon fill="#26deeb" points="406.676,554.799 379.117,441.196 455.059,84.475  "/>
<polygon fill="#67ed37" points="556.219,475.788 277.516,423.822 282.820,108.779  "/>
<polygon fill="#e89465" points="572.895,155.743 369.028,430.716 325.601,239.162  "/>
<polygon fill="#b4415b" points="215.837,51.691 543.094,196.705 374.641,247.284  "/>
<polygon fill="#40c5df" points="341.386,103.201 251.988,478.224 284.012,48.533  "/>
<polygon fill="#31b78d" points="153.475,331.732 406.662,21.093 159.630,511.576  "/>
</svg>