<?xml version="1.0" encoding="utf-8"?>
<!-- Generator: Python script. InTeResTinG -->
<!DOCTYPE svg PUBLIC "-//W3C//DTD SVG 1.1//EN" "http://www.w3.org/Graphics/SVG/1.1/DTD/svg11.dtd">
<svg version="1.1" id="Layer_1" xmlns="http://www.w3.org/2000/svg" xmlns:xlink="http://www.w3.org/1999/xlink" x="0px" y="0px" width="600.000px" height="600.000px" viewBox="0 0 600.000 600.000" enable-background="new 0 0 600.000 600.000" xml:space="preserve">
<polygon fill="#a76577" points="378.215,219.340 334.354,117.724 238.253,399.340  "/>
<polygon fill="#ef9a04" points="530.042,145.620 451.986,582.604 47.245,502.888  "/>
<polygon fill="#5897ca" points="60.837,464.473 107.078,535.910 193.574,221.397  "/>
<polygon fill="#893fb3" points="531.652,581.539 113.713,316.686 67.515,43.951  "/>
<polygon fill="#405bd2" points="212.016,566.094 497.353,272.421 99.269,232.582  "/>
<polygon fill="#9ab01f" points="265.097,347.161 408.588,366.694 228.532,228.237  "/>
<polygon fill="#8819f7" points="59.298,46.388 162.932,68.525 223.580,84.291  "/>
<polygon fill="#71ccf6" points="278.761,443.399 563.916,555.002 416.629,291.602  "/>
<polygon fill="#4b714d" points="566.678,116.016 443.376,562.824 158.785,131.504  "/>
<polygon fill="#a2549b" points="19.196,92.563 259.849,513.857 331.589,249.405  "/>
<polygon fill="#b1d008" points="229.168,357.901 31.761,413.006 235.226,125.302  "/>
<polygon fill="#769f21" points="67.941,533.227 75.698,300.348 312.725,446.129  "/>
<polygon fill="#cab452" points="11.945,592.396 56.183,253.881 423.154,358.288  "/>
<polygon fill="#b7c0ec" points="113.182,88.438 50.057,383.079 185.040,553.647  "/>
<polygon fill="#ff3191" points="474.432,581.187 156.815,150.817 580.151,31.328  "/>
<polygon fill="#c07c42" points="71.512,572.718 28.414,259.336 374.275,362.809  "/>
<polygon fill="#a8b1eb" points="369.938,345.637 568.878,244.403 145.181,39.376  "/>
<polygon fill="#43fa21" points="64.997,470.929 250.869,354.611 421.187,176.403  "/>
<polygon fill="#e3a2ef" points="303.738,382.331 524.245,298.949 98.008,379.889  "/>
<polygon fill="#261015" points="477.850,412.512 293.867,431.614 61.278,36.653  "/>
<polygon fill="#c65c59" points="338.531,273.802 418.564,66.338 355.350,387.626  "/>
<polygon fill="#9f121b" points="139.632,288.436 524.569,489.705 515.943,178.396  "/>
<polygon fill="#48f759" points="574.066,320.587 589.605,573.232 340.861,567.990  "/>
<polygon fill="#e68770" points="495.236,327.398 343.491,466.787 108.803,397.944  "/>
<polygon fill="#9bb43a" points="540.918,425.127 111.808,509.949 452.055,215.141  "/>
<polygon fill="#03c9a4" points="160.822,317.885 377.927,246.888 478.102,72.070  "/>
<polygon fill="#4daf1b" points="152.971,341.285 323.661,83.721 403.115,83.214  "/>
<polygon fill="#156a52" points="350.268,156.271 112.020,273.948 362.301,213.303  "/>
<polygon fill="#b39695" points="494.114,597.512 451.329,90.422 242.395,470.181  "/>
<polygon fill="#4b7c81" points="322.371,394.016 136.000,537.450 453.296,579.083  "/>
<polygon fill="#cfb680" points="299.841,89.237 161.859,364.560 264.291,584.001  "/>
<polygon fill="#c88842" points="531.908,144.461 599.862,549.256 41.589,378.099  "/>
<polygon fill="#93ec5b" points="100.390,36.547 28.386,577.028 164.134,511.565  "/>
<polygon fill="#155c62" points="349.513,306.452 352.573,420.603 466.278,429.681  "/>
<polygon fill="#5c7c40" points="220.015,263.726 343.891,339.067 438.043,450.705  "/>
<polygon fill="#65ce35" points="541.004,225.614 185.330,312.976 462.082,563.864  "/>
<polygon fill="#749657" points="283.750,590.281 185.612,199.329 303.823,526.423  "/>
<polygon fill="#3da0f0" points="86.577,321.587 11.562,529.689 350.214,265.495  "/>
<polygon fill="#bcb023" points="162.325,418.162 544.491,338.998 190.466,560.081  "/>
<polygon fill="#9fe9ed" points="519.111,317.556 582.277,98.579 290.947,465.611  "/>
<polygon fill="#b89ab6" points="393.783,218.041 352.748,326.303 293.059,399.197  "/>
<polygon fill="#b36d18" points="375.284,546.400 1.552,268.164 268.714,219.408  "/>
<polygon fill="#c1c75c" points="499.616,71.168 420.401,329.806 337.375,520.873  "/>
<polygon fill="#66db08" points="115.743,391.936 118.117,430.056 352.526,191.853  "/>
<polygon fill="#0fb8ae" points="495.175,225.778 520.177,483.880 387.886,52.404  "/>
<polygon fill="#3a394d" points="386.712,453.672 230.675,587.833 263.305,23.651  "/>
<polygon fill="#714d0f" points="556.424,57.747 37.535,392.840 160.807,365.842  "/>
<polygon fill="#9ed8b0" points="522.870,264.649 492.087,227.573 533.357,76.537  "/>
<polygon fill="#5fd994" points="270.095,402.012 475.277,80.708 319.807,384.199  "/>
<polygon fill="#b9b566" points="564.247,439.398 447.416,531.980 580.765,375.085  "/>
<polygon fill="#845a33" points="501.851,77.290 396.629,102.434 587.598,425.899  "/>
<polygon fill="#f0cef6" points="562.067,492.705 471.667,283.770 397.765,182.565  "/>
<polygon fill="#c3d26d" points="338.795,490.772 38.998,10.163 523.973,391.635  "/>
<polygon fill="#95422a" points="216.309,324.934 592.869,429.247 477.004,573.646  "/>
<polygon fill="#79ea3a" points="136.760,546.446 278.137,546.701 16.530,378.505  "/>
<polygon fill="#0cc8d3" points="248.491,405.733 86.750,504.632 175.903,344.320  "/>
<polygon fill="#b94cfd" points="348.706,259.333 558.011,234.838 114.453,172.285  "/>
<polygon fill="#8a4256" points="289.289,342.931 351.240,314.265 111.585,277.008  "/>
<polygon fill="#a4de9e" points="558.022,89.746 557.581,93.137 414.126,466.213  "/>
<polygon fill="#32dad3" points="28.645,317.200 11.938,24.112 491.356,157.770  "/>
<polygon fill="#c2333b" points="251.091,593.840 239.175,160.642 259.025,258.240  "/>
<polygon fill="#75ad78" points="478.630,311.699 337.568,464.152 262.118,158.353  "/>
<polygon fill="#19cb4b" points="230.182,547.605 315.067,377.776 456.425,95.428  "/>
<polygon fill="#d897a7" points="194.830,257.963 293.571,257.475 561.868,541.625  "/>
<polygon fill="#0d3342" points="546.892,349.028 380.952,75.407 61.949,6.853  "/>
<polygon fill="#3ebd19" points="158.868,129.482 369.346,448.119 31.711,169.485  "/>
<polygon fill="#56eed1" points="320.487,186.096 143.802,367.934 99.361,117.065  "/>
</svg>