<?xml version="1.0" encoding="utf-8"?>
<!-- Generator: Python script. InTeResTinG -->
<!DOCTYPE svg PUBLIC "-//W3C//DTD SVG 1.1//EN" "http://www.w3.org/Graphics/SVG/1.1/DTD/svg11.dtd">
<svg version="1.1" id="Layer_1" xmlns="http://www.w3.org/2000/svg" xmlns:xlink="http://www.w3.org/1999/xlink" x="0px" y="0px" width="600.000px" height="600.000px" viewBox="0 0 600.000 600.000" enable-background="new 0 0 600.000 600.000" xml:space="preserve">
<polygon fill="#40a4ce" points="379.127,15.554 61.218,76.774 395.432,100.599  "/>
<polygon fill="#10a197" points="352.858,16.154 54.193,284.073 135.099,110.920  "/>
<polygon fill="#b94b45" points="96.888,256.021 199.329,467.883 306.130,478.767  "/>
<polygon fill="#2c8faa" points="306.537,271.066 475.310,88.923 437.554,162.240  "/>
<polygon fill="#3fe57b" points="571.662,23.210 575.516,216.054 98.118,306.775  "/>
<polygon fill="#efd7a2" points="562.002,83.214 439.143,21.380 84.071,404.326  "/>
<polygon fill="#79410b" points="24.389,189.046 428.538,35.457 131.965,464.752  "/>
<polygon fill="#05f7e4" points="64.782,538.668 166.646,124.413 341.156,580.271  "/>
<polygon fill="#236140" points="244.694,578.997 29.996,18.712 100.558,506.707  "/>
<polygon fill="#5178c0" points="183.820,407.472 483.818,162.900 596.075,321.004  "/>
<polygon fill="#8a5915" points="501.593,327.541 35.275,421.288 75.962,420.934  "/>
<polygon fill="#99dcfa" points="554.199,593.377 131.926,376.422 320.647,478.404  "/>
<polygon fill="#024eff" points="94.118,74.504 181.896,463.359 130.468,123.367  "/>
<polygon fill="#6457de" points="236.712,570.159 389.267,456.674 277.116,65.649  "/>
<polygon fill="#1cd2c1" points="421.509,432.446 503.061,468.378 568.176,344.831  "/>
<polygon fill="#0707b3" points="553.561,580.834 233.930,460.392 414.853,319.359  "/>
<polygon fill="#4c62c6" points="109.434,26.298 265.386,451.909 358.029,108.521  "/>
<polygon fill="#5daf42" points="275.167,571.993 161.809,160.099 396.712,101.857  "/>
<polygon fill="#0f6cda" points="352.474,84.090 497.176,314.752 7.414,396.268  "/>
<polygon fill="#67502c" points="532.100,578.642 442.918,3.998 413.976,181.206  "/>
<polygon fill="#530c8a" points="456.848,243.552 271.027,21.489 133.737,45.176  "/>
<polygon fill="#b9d388" points="583.547,81.171 241.945,146.423 460.507,152.013  "/>
<polygon fill="#4c2657" points="26.799,439.856 159.958,509.695 204.310,14.007  "/>
<polygon fill="#e558ca" points="591.705,456.244 78.384,17.426 539.068,274.986  "/>
<polygon fill="#63da72" points="306.553,72.054 262.685,296.353 134.798,578.691  "/>
<polygon fill="#a14c37" points="494.948,38.456 235.717,565.497 318.649,543.882  "/>
<polygon fill="#2969db" points="235.710,311.260 230.439,22.286 335.233,264.821  "/>
<polygon fill="#2bb916" points="482.638,430.128 122.935,404.308 246.919,23.409  "/>
<polygon fill="#d0f404" points="495.105,451.109 30.609,446.356 574.446,515.572  "/>
<polygon fill="#869d2d" points="29.807,81.248 120.889,211.565 278.404,153.060  "/>
<polygon fill="#a3036f" points="451.804,189.226 513.072,451.232 557.735,88.512  "/>
<polygon fill="#fda0cb" points="450.892,230.667 348.686,527.886 415.934,585.698  "/>
<polygon fill="#412d6b" points="222.200,373.897 8.710,579.990 515.163,587.857  "/>
<polygon fill="#abe94b" points="341.541,187.163 143.773,568.309 511.610,262.304  "/>
<polygon fill="#a4c001" points="369.170,235.397 436.229,25.972 564.151,181.900  "/>
<polygon fill="#490f41" points="288.107,511.934 570.515,262.500 55.245,30.524  "/>
<polygon fill="#cf7572" points="364.876,7.117 353.938,95.165 419.732,492.883  "/>
<polygon fill="#fd3293" points="314.336,287.205 99.725,542.274 131.509,269.175  "/>
<polygon fill="#3a9d1c" points="295.369,298.286 323.035,81.229 290.875,76.341  "/>
<polygon fill="#69700d" points="22.570,570.736 89.248,232.168 426.010,24.754  "/>
<polygon fill="#e37d3a" points="428.600,437.894 510.354,162.145 314.413,474.994  "/>
<polygon fill="#50bd37" points="215.874,124.408 105.475,285.272 237.536,48.554  "/>
<polygon fill="#291b01" points="559.756,429.153 506.267,207.665 413.676,250.691  "/>
<polygon fill="#13fdac" points="185.229,39.643 96.051,126.688 70.360,590.134  "/>
<polygon fill="#768304" points="467.202,370.527 422.476,222.451 338.245,235.609  "/>
<polygon fill="#8b90da" points="478.164,534.385 216.234,185.228 118.612,255.372  "/>
<polygon fill="#f3d835" points="440.881,108.847 200.016,75.655 274.244,406.074  "/>
<polygon fill="#f343fe" points="12.275,51.889 13.180,213.675 517.092,10.202  "/>
<polygon fill="#765435" points="397.979,51.702 48.352,588.623 439.542,72.016  "/>
<polygon fill="#db4bea" points="234.452,501.470 547.490,490.389 280.933,513.507  "/>
<polygon fill="#017a3a" points="383.776,165.361 500.951,21.385 97.707,126.138  "/>
<polygon fill="#907079" points="198.267,380.119 200.773,187.968 486.725,260.685  "/>
<polygon fill="#4e3795" points="496.264,381.579 334.330,449.535 439.745,466.368  "/>
<polygon fill="#29fc31" points="284.471,433.797 212.902,529.710 140.630,444.702  "/>
<polygon fill="#9fc25f" points="433.783,205.279 72.740,335.882 1.125,19.168  "/>
<polygon fill="#d209e1" points="292.676,9.551 504.964,565.552 339.745,167.008  "/>
<polygon fill="#5b39a8" points="432.060,375.176 571.891,221.018 506.111,179.286  "/>
<polygon fill="#869f7a" points="535.728,359.020 216.750,155.781 167.138,89.236  "/>
<polygon fill="#dbaff2" points="152.182,156.102 509.401,449.271 196.743,22.640  "/>
<polygon fill="#b9b3f1" points="529.822,452.069 80.382,469.243 380.101,158.356  "/>
<polygon fill="#726c74" points="446.998,432.703 27.913,336.560 561.541,555.581  "/>
<polygon fill="#245d6b" points="9.998,532.383 226.751,527.283 325.641,474.167  "/>
<polygon fill="#e7ddbb" points="287.607,420.708 158.530,210.881 414.074,32.408  "/>
<polygon fill="#4eaec0" points="89.245,215.973 347.472,593.063 223.212,487.366  "/>
<polygon fill="#e37d35" points="88.140,199.663 230.969,401.840 92.505,374.324  "/>
<polygon fill="#16688f" points="86.940,7.352 404.700,64.543 26.228,186.987  "/>
<polygon fill="#1654d0" points="554.772,345.823 271.217,242.210 157.158,345.123  "/>
<polygon fill="#c4dc7d" points="101.867,328.046 221.234,298.746 370.689,164.829  "/>
<polygon fill="#603769" points="23.716,575.185 285.635,30.462 111.972,150.223  "/>
</svg>