<?xml version="1.0" encoding="utf-8"?>
<!-- Generator: Python script. InTeResTinG -->
<!DOCTYPE svg PUBLIC "-//W3C//DTD SVG 1.1//EN" "http://www.w3.org/Graphics/SVG/1.1/DTD/svg11.dtd">
<svg version="1.1" id="Layer_1" xmlns="http://www.w3.org/2000/svg" xmlns:xlink="http://www.w3.org/1999/xlink" x="0px" y="0px" width="600.000px" height="600.000px" viewBox="0 0 600.000 600.000" enable-background="new 0 0 600.000 600.000" xml:space="preserve">
<polygon fill="#c64e88" points="36.378,273.177 128.077,322.911 589.735,167.462  "/>
<polygon fill="#e59822" points="540.176,428.255 218.278,104.716 122.232,411.429  "/>
<polygon fill="#ffe38b" points="295.388,539.844 524.841,132.313 27.638,6.345  "/>
<polygon fill="#c64eb4" points="549.521,18.118 225.505,463.422 13.588,211.654  "/>
<polygon fill="#b2378e" points="160.180,109.146 206.612,593.602 162.510,508.461  "/>
<polygon fill="#ba0ee6" points="381.186,207.489 407.323,518.789 433.673,543.688  "/>
<polygon fill="#12eea4" points="426.619,364.391 49.867,91.920 217.027,136.931  "/>
<polygon fill="#43af93" points="222.796,64.798 246.690,445.393 266.341,373.980  "/>
<polygon fill="#a569be" points="494.793,545.993 373.647,514.698 248.233,585.030  "/>
<polygon fill="#390d3d" points="318.109,321.549 70.959,324.857 240.446,340.322  "/>
<polygon fill="#e4832d" points="392.957,362.491 114.012,367.409 63.503,431.025  "/>
<polygon fill="#ede260" points="163.372,1.906 329.944,385.090 121.212,85.079  "/>
<polygon fill="#c34ab5" points="28.212,528.771 129.281,433.195 589.329,568.909  "/>
<polygon fill="#2808b9" points="26.948,506.281 162.461,454.633 21.913,340.226  "/>
<polygon fill="#6846fa" points="177.258,181.531 305.970,280.406 550.448,123.437  "/>
<polygon fill="#18e583" points="57.015,385.591 335.825,91.647 76.297,165.978  "/>
<polygon fill="#d85acf" points="485.345,546.002 411.933,556.509 159.738,371.974  "/>
<polygon fill="#e0ead3" points="393.495,103.390 436.751,83.449 195.655,295.877  "/>
<polygon fill="#e9b007" points="126.084,229.140 164.733,487.996 315.452,472.461  "/>
<polygon fill="#a3fe87" points="46.300,489.253 506.778,538.376 342.440,521.229  "/>
<polygon fill="#d9ea48" points="418.472,193.004 80.544,589.147 418.939,135.343  "/>
<polygon fill="#ce5661" points="57.542,355.870 176.604,123.524 310.826,214.466  "/>
<polygon fill="#16301a" points="191.536,469.856 165.391,147.844 586.445,207.487  "/>
<polygon fill="#ea6f7b" points="531.831,433.331 585.512,544.073 394.089,45.216  "/>
<polygon fill="#e0a714" points="289.166,360.735 523.004,337.930 466.152,237.803  "/>
<polygon fill="#4477db" points="170.728,212.909 450.429,280.805 220.033,461.430  "/>
<polygon fill="#4b3d72" points="132.206,575.977 568.107,382.742 221.517,158.648  "/>
<polygon fill="#5b6601" points="22.744,278.541 443.185,474.032 432.367,302.561  "/>
<polygon fill="#f289b9" points="98.566,134.333 162.495,342.073 259.884,547.776  "/>
<polygon fill="#64474f" points="449.615,370.683 485.747,376.949 232.457,319.740  "/>
<polygon fill="#ac9fc2" points="57.254,486.872 468.669,307.793 106.824,54.913  "/>
<polygon fill="#e96219" points="107.758,537.828 235.295,425.664 423.476,474.912  "/>
<polygon fill="#8b9be9" points="372.655,180.211 518.839,416.545 388.243,58.765  "/>
<polygon fill="#968eb0" points="373.503,250.914 416.950,571.226 410.857,237.484  "/>
<polygon fill="#f47417" points="582.779,252.545 278.215,507.478 570.703,283.059  "/>
<polygon fill="#a5a11e" points="227.938,95.154 417.560,220.846 100.875,107.014  "/>
<polygon fill="#81ab70" points="488.109,196.648 527.483,531.327 350.543,310.881  "/>
<polygon fill="#16cfd9" points="162.375,181.646 538.465,228.063 440.186,359.739  "/>
<polygon fill="#0f088c" points="56.805,132.047 427.040,524.023 258.446,57.052  "/>
<polygon fill="#8c410e" points="139.350,346.134 34.710,379.279 505.119,539.187  "/>
<polygon fill="#d932c5" points="230.523,269.062 35.508,418.578 466.500,252.227  "/>
<polygon fill="#59068a" points="53.203,144.507 584.103,102.319 407.161,500.144  "/>
<polygon fill="#e466d5" points="535.812,92.307 152.189,56.212 598.458,471.711  "/>
<polygon fill="#b14d48" points="202.641,424.669 51.084,561.128 365.431,521.962  "/>
<polygon fill="#2ec130" points="591.628,372.164 180.941,409.037 586.882,191.444  "/>
<polygon fill="#0e7270" points="103.516,548.460 596.315,36.476 512.583,54.179  "/>
<polygon fill="#31bf8b" points="569.692,415.524 277.648,245.412 578.446,213.852  "/>
<polygon fill="#5935c5" points="118.629,308.352 102.161,234.447 188.169,312.543  "/>
<polygon fill="#6fe8be" points="292.049,362.813 233.750,132.384 230.448,14.345  "/>
<polygon fill="#d81e70" points="359.583,112.443 598.100,402.653 345.011,246.239  "/>
<polygon fill="#86ccc1" points="169.378,122.761 28.589,112.451 420.957,272.158  "/>
<polygon fill="#44f7f4" points="541.316,472.355 345.384,334.052 135.225,13.435  "/>
<polygon fill="#295bb2" points="558.025,130.129 291.152,564.501 304.827,267.861  "/>
<polygon fill="#128ea4" points="58.762,285.145 219.871,180.250 333.209,413.806  "/>
<polygon fill="#9b96ce" points="555.023,67.265 372.988,589.583 233.644,204.094  "/>
<polygon fill="#7f326c" points="271.742,16.916 120.494,374.551 128.206,563.826  "/>
</svg>