<?xml version="1.0" encoding="utf-8"?>
<!-- Generator: Python script. InTeResTinG -->
<!DOCTYPE svg PUBLIC "-//W3C//DTD SVG 1.1//EN" "http://www.w3.org/Graphics/SVG/1.1/DTD/svg11.dtd">
<svg version="1.1" id="Layer_1" xmlns="http://www.w3.org/2000/svg" xmlns:xlink="http://www.w3.org/1999/xlink" x="0px" y="0px" width="600.000px" height="600.000px" viewBox="0 0 600.000 600.000" enable-background="new 0 0 600.000 600.000" xml:space="preserve">
<polygon fill="#e8f30f" points="567.799,215.320 333.711,317.958 276.108,69.153  "/>
<polygon fill="#448e68" points="258.783,80.253 201.787,547.757 507.644,57.229  "/>
<polygon fill="#1c5e1e" points="448.618,117.594 115.466,538.020 34.479,144.905  "/>
<polygon fill="#69a5ae" points="450.019,265.615 417.429,51.265 509.358,252.713  "/>
<polygon fill="#96923a" points="212.589,208.160 538.546,555.495 291.956,255.042  "/>
<polygon fill="#c8bc3b" points="130.479,240.515 96.306,349.043 107.793,180.974  "/>
<polygon fill="#862986" points="31.682,120.447 116.995,191.929 263.911,440.221  "/>
<polygon fill="#8247ed" points="442.808,256.412 7.412,232.497 347.336,150.747  "/>
<polygon fill="#c8b781" points="542.375,464.941 299.091,295.580 236.590,505.522  "/>
<polygon fill="#a733b5" points="288.634,188.791 119.215,510.617 567.993,313.632  "/>
<polygon fill="#ed2dd1" points="528.167,9.254 496.728,26.976 510.698,2.310  "/>
<polygon fill="#b3b67e" points="221.660,95.637 103.300,311.589 348.415,387.944  "/>
<polygon fill="#9c4f53" points="346.474,38.217 324.373,165.904 538.185,2.200  "/>
<polygon fill="#e60cc1" points="81.508,150.357 291.635,260.552 462.859,418.323  "/>
<polygon fill="#0da308" points="506.901,254.857 13.228,368.934 1.665,55.089  "/>
<polygon fill="#126c2a" points="92.810,100.951 19.411,143.420 490.044,445.975  "/>
<polygon fill="#e51e12" points="473.159,241.133 141.389,293.919 487.499,585.702  "/>
<polygon fill="#2aaba3" points="598.249,495.035 404.497,423.962 435.062,113.557  "/>
<polygon fill="#09d131" points="210.901,123.572 278.073,384.700 253.225,27.395  "/>
<polygon fill="#b9e850" points="93.826,113.931 468.241,380.892 262.569,306.958  "/>
<polygon fill="#df733f" points="522.835,153.356 340.304,233.325 570.221,97.192  "/>
<polygon fill="#713b26" points="100.043,527.758 319.023,492.093 42.170,527.727  "/>
<polygon fill="#573ff5" points="489.826,284.663 57.715,109.109 252.653,70.473  "/>
<polygon fill="#54402c" points="81.333,286.907 232.745,586.019 352.541,205.174  "/>
<polygon fill="#ec8201" points="196.485,449.813 291.561,330.886 212.571,64.180  "/>
<polygon fill="#76ac8b" points="569.271,106.881 94.347,158.283 480.126,355.738  "/>
<polygon fill="#f98a30" points="353.977,7.431 95.150,353.726 290.289,121.240  "/>
<polygon fill="#b48277" points="24.684,107.589 133.993,366.475 517.300,300.993  "/>
<polygon fill="#431813" points="526.903,447.863 537.495,67.754 368.539,292.636  "/>
<polygon fill="#e71766" points="321.146,179.762 165.078,422.454 473.465,143.708  "/>
<polygon fill="#1fd6ea" points="299.342,97.158 357.556,430.781 443.883,183.325  "/>
<polygon fill="#0d3894" points="281.173,211.630 209.970,157.988 418.379,431.962  "/>
<polygon fill="#d3d060" points="232.182,440.549 184.152,142.712 486.004,545.553  "/>
<polygon fill="#714783" points="0.482,468.307 217.025,296.543 355.144,538.743  "/>
<polygon fill="#1a1ddc" points="15.939,217.697 430.715,572.998 340.802,521.797  "/>
<polygon fill="#a8879a" points="344.413,96.131 521.207,67.084 379.066,584.255  "/>
<polygon fill="#a017b0" points="423.079,136.680 303.774,28.144 115.336,511.209  "/>
<polygon fill="#e6dbc2" points="87.055,449.996 105.723,219.938 49.265,238.629  "/>
<polygon fill="#f560da" points="399.094,487.643 219.797,223.338 53.141,151.410  "/>
<polygon fill="#164ad0" points="59.092,334.642 538.824,390.560 71.781,311.125  "/>
<polygon fill="#d80af7" points="208.230,548.460 459.206,435.848 38.491,328.405  "/>
<polygon fill="#74a8f2" points="306.631,57.361 487.250,121.062 153.565,507.550  "/>
<polygon fill="#d243f4" points="367.213,244.957 412.286,435.160 163.913,553.268  "/>
<polygon fill="#9d2b94" points="337.715,39.496 526.991,316.607 253.297,228.503  "/>
<polygon fill="#65aa50" points="31.218,489.416 341.372,526.249 288.702,399.157  "/>
<polygon fill="#2b9014" points="585.000,326.676 431.631,309.235 542.922,16.473  "/>
<polygon fill="#6ea92a" points="155.280,21.685 359.948,4.517 588.181,399.331  "/>
<polygon fill="#20da24" points="484.451,530.237 352.775,121.049 521.602,41.476  "/>
<polygon fill="#5fd998" points="423.262,324.547 115.940,3.665 21.095,39.328  "/>
<polygon fill="#1aa272" points="569.713,534.935 341.842,145.293 109.130,13.539  "/>
<polygon fill="#856501" points="176.795,509.054 459.638,109.903 406.305,461.537  "/>
<polygon fill="#9a584e" points="257.435,88.265 78.916,399.808 53.102,25.354  "/>
<polygon fill="#28b9d3" points="14.914,302.658 562.589,167.966 72.381,379.991  "/>
<polygon fill="#90c916" points="97.604,361.546 597.085,580.868 92.253,527.284  "/>
<polygon fill="#839d69" points="125.434,472.115 34.484,339.773 268.588,417.066  "/>
<polygon fill="#0762c6" points="101.072,582.687 269.428,217.287 42.370,360.838  "/>
<polygon fill="#6c22e3" points="430.952,216.297 193.290,353.073 268.386,144.852  "/>
<polygon fill="#1ea4d8" points="237.258,512.856 380.003,99.847 187.098,75.797  "/>
<polygon fill="#3a105f" points="337.547,587.297 151.557,38.248 200.805,171.016  "/>
<polygon fill="#553d01" points="595.849,144.843 397.090,461.758 305.598,246.670  "/>
<polygon fill="#688137" points="249.541,531.324 369.363,469.771 94.849,478.327  "/>
<polygon fill="#177e60" points="57.790,7.089 191.601,206.025 517.554,318.024  "/>
<polygon fill="#f75d94" points="547.926,89.725 388.526,399.099 483.401,531.853  "/>
<polygon fill="#95874f" points="473.547,187.742 100.393,202.739 492.983,546.074  "/>
<polygon fill="#0081c5" points="334.128,566.188 599.058,345.917 104.317,102.859  "/>
<polygon fill="#1df489" points="311.757,297.138 14.433,575.072 230.526,296.482  "/>
<polygon fill="#794643" points="251.322,275.101 83.513,85.351 589.306,106.039  "/>
<polygon fill="#0f87a8" points="584.864,153.715 408.443,122.013 282.257,177.793  "/>
</svg>