<?xml version="1.0" encoding="utf-8"?>
<!-- Generator: Python script. InTeResTinG -->
<!DOCTYPE svg PUBLIC "-//W3C//DTD SVG 1.1//EN" "http://www.w3.org/Graphics/SVG/1.1/DTD/svg11.dtd">
<svg version="1.1" id="Layer_1" xmlns="http://www.w3.org/2000/svg" xmlns:xlink="http://www.w3.org/1999/xlink" x="0px" y="0px" width="600.000px" height="600.000px" viewBox="0 0 600.000 600.000" enable-background="new 0 0 600.000 600.000" xml:space="preserve">
<polygon fill="#8ea7f7" points="434.106,376.765 479.462,278.450 361.784,247.738  "/>
<polygon fill="#da7410" points="81.705,192.204 462.073,540.474 353.868,554.294  "/>
<polygon fill="#808bcd" points="112.687,392.871 174.394,156.902 36.300,208.085  "/>
<polygon fill="#9a2ef1" points="253.108,299.489 193.998,120.892 249.220,340.422  "/>
<polygon fill="#fc321a" points="237.535,183.798 365.260,507.634 421.504,530.550  "/>
<polygon fill="#526a6c" points="317.155,84.567 141.415,165.687 127.220,520.661  "/>
<polygon fill="#c4b8e1" points="18.951,532.744 331.864,157.765 562.002,500.818  "/>
<polygon fill="#20cd47" points="537.141,482.935 195.412,42.093 35.808,283.991  "/>
<polygon fill="#b1cc42" points="118.483,205.291 476.766,34.950 6.451,536.154  "/>
<polygon fill="#f85c78" points="221.168,158.483 392.335,8.420 495.033,590.647  "/>
<polygon fill="#aa7afd" points="110.880,366.032 563.714,178.984 253.868,370.511  "/>
<polygon fill="#d705cb" points="480.629,289.835 417.907,498.609 300.761,456.628  "/>
<polygon fill="#d0268f" points="292.265,165.010 14.892,458.589 424.393,331.163  "/>
<polygon fill="#dea55f" points="136.302,159.504 105.366,189.421 163.647,575.702  "/>
<polygon fill="#0dbeb9" points="256.396,204.388 4.864,103.160 537.216,353.186  "/>
<polygon fill="#6cca83" points="174.671,256.277 411.740,342.878 502.957,287.787  "/>
<polygon fill="#271d09" points="546.315,440.396 249.359,332.703 141.087,378.564  "/>
<polygon fill="#eb45e2" points="141.294,361.434 394.549,49.848 494.543,102.899  "/>
<polygon fill="#8e7d5f" points="454.606,563.542 330.437,261.575 516.344,97.617  "/>
<polygon fill="#6493f1" points="590.986,295.718 265.631,557.461 191.441,74.423  "/>
<polygon fill="#9fd295" points="370.480,336.497 487.401,216.141 566.184,84.897  "/>
<polygon fill="#b075bc" points="339.536,371.137 196.562,292.881 167.925,566.606  "/>
<polygon fill="#d092a2" points="575.266,328.133 542.313,282.351 423.142,116.507  "/>
<polygon fill="#168412" points="72.004,91.366 312.632,151.413 11.980,242.229  "/>
<polygon fill="#d68051" points="168.424,246.901 467.942,419.841 2.810,438.827  "/>
<polygon fill="#feca42" points="200.319,104.719 206.255,492.112 217.404,471.516  "/>
<polygon fill="#c5c0a7" points="515.984,118.827 156.680,50.454 24.988,585.392  "/>
<polygon fill="#21512a" points="549.275,462.451 409.600,250.323 372.303,70.017  "/>
<polygon fill="#97326a" points="320.640,477.899 270.243,315.896 145.252,314.790  "/>
<polygon fill="#2bb775" points="349.957,322.453 538.964,559.358 471.402,584.733  "/>
<polygon fill="#09c83e" points="194.071,561.772 251.866,55.873 308.085,297.350  "/>
<polygon fill="#3c2426" points="574.849,20.797 301.418,221.225 382.625,66.414  "/>
<polygon fill="#fb213f" points="599.026,331.963 529.883,548.970 430.363,188.683  "/>
<polygon fill="#e552ca" points="20.955,86.242 198.808,348.600 505.053,337.178  "/>
<polygon fill="#dfd8d5" points="331.304,135.531 332.530,76.303 7.841,530.534  "/>
<polygon fill="#10af63" points="171.586,539.638 31.216,173.913 500.876,389.264  "/>
<polygon fill="#8ecc29" points="54.099,27.659 204.154,377.152 448.042,339.063  "/>
<polygon fill="#60e6e7" points="470.131,443.383 283.513,455.363 428.028,232.925  "/>
<polygon fill="#eef649" points="306.329,266.131 554.815,530.782 61.445,239.512  "/>
<polygon fill="#026c24" points="385.966,239.414 274.447,307.986 515.092,157.845  "/>
<polygon fill="#4330fa" points="298.928,510.305 527.203,435.291 182.449,225.752  "/>
<polygon fill="#e66c35" points="323.727,597.974 308.181,98.369 306.758,96.990  "/>
<polygon fill="#4150c2" points="496.018,282.641 64.571,244.881 217.326,65.260  "/>
<polygon fill="#8c1d56" points="473.897,385.632 443.507,481.240 289.439,582.853  "/>
<polygon fill="#e0029d" points="74.047,344.841 579.742,54.358 387.804,151.033  "/>
<polygon fill="#fb0edc" points="489.886,318.970 23.062,10.693 516.488,21.550  "/>
<polygon fill="#4be27d" points="191.538,78.173 565.727,287.062 476.402,257.520  "/>
<polygon fill="#fecb62" points="137.044,588.461 76.984,157.818 336.711,557.482  "/>
<polygon fill="#e0f5d6" points="357.540,272.651 484.383,217.375 522.831,522.920  "/>
<polygon fill="#c1bd35" points="63.193,408.246 261.503,209.006 135.975,92.812  "/>
<polygon fill="#da9268" points="421.478,337.691 426.361,238.863 205.221,342.263  "/>
<polygon fill="#2f7a87" points="456.878,482.828 2.250,244.815 400.661,492.787  "/>
<polygon fill="#e2ff95" points="427.939,32.276 337.222,429.231 99.130,97.523  "/>
<polygon fill="#d33261" points="37.965,233.165 523.782,517.170 316.353,426.020  "/>
<polygon fill="#f260dc" points="347.395,375.077 510.880,498.453 217.590,582.088  "/>
<polygon fill="#3273c5" points="590.348,48.989 77.099,469.811 501.085,177.283  "/>
<polygon fill="#ad7d64" points="205.164,434.908 257.347,368.319 296.796,257.392  "/>
<polygon fill="#b4a875" points="585.933,345.308 593.090,233.852 306.051,27.235  "/>
<polygon fill="#29b13c" points="533.925,490.078 376.039,33.359 511.911,23.406  "/>
<polygon fill="#c1b0f7" points="513.613,3.349 188.110,265.461 13.321,378.468  "/>
</svg>