<?xml version="1.0" encoding="utf-8"?>
<!-- Generator: Python script. InTeResTinG -->
<!DOCTYPE svg PUBLIC "-//W3C//DTD SVG 1.1//EN" "http://www.w3.org/Graphics/SVG/1.1/DTD/svg11.dtd">
<svg version="1.1" id="Layer_1" xmlns="http://www.w3.org/2000/svg" xmlns:xlink="http://www.w3.org/1999/xlink" x="0px" y="0px" width="600.000px" height="600.000px" viewBox="0 0 600.000 600.000" enable-background="new 0 0 600.000 600.000" xml:space="preserve">
<polygon fill="#212cd9" points="110.720,430.455 451.650,241.917 180.840,159.600  "/>
<polygon fill="#e506a2" points="413.202,23.015 346.724,183.277 45.808,599.205  "/>
<polygon fill="#c8870b" points="328.603,30.371 136.727,576.945 526.349,440.055  "/>
<polygon fill="#8629ab" points="553.582,231.724 505.081,144.120 476.780,24.633  "/>
<polygon fill="#82a613" points="117.228,124.359 467.617,48.357 398.262,150.313  "/>
<polygon fill="#e0072f" points="135.436,539.330 535.143,38.102 34.934,55.423  "/>
<polygon fill="#6b781a" points="472.029,450.544 504.245,444.550 323.567,581.253  "/>
<polygon fill="#f37d70" points="497.399,387.030 286.297,222.848 85.885,62.627  "/>
<polygon fill="#eec9ba" points="135.065,211.099 293.150,482.263 529.527,333.797  "/>
<polygon fill="#4e99ae" points="289.901,291.924 129.749,288.180 504.622,61.608  "/>
<polygon fill="#77bc25" points="33.964,155.162 395.988,343.329 408.706,437.490  "/>
<polygon fill="#07fd04" points="510.815,538.625 216.365,411.975 118.215,243.750  "/>
<polygon fill="#dd769c" points="322.997,70.232 430.538,116.945 195.012,539.981  "/>
<polygon fill="#968336" points="483.699,534.518 105.300,459.886 171.982,78.304  "/>
<polygon fill="#484a7f" points="467.640,506.770 411.731,163.063 275.692,115.842  "/>
<polygon fill="#a24e09" points="218.221,172.941 553.064,295.573 536.179,468.607  "/>
<polygon fill="#f07d49" points="554.141,74.468 24.163,563.142 514.468,501.212  "/>
<polygon fill="#c7ef3f" points="106.040,6.646 282.002,535.416 324.487,545.957  "/>
<polygon fill="#d537ee" points="580.217,98.007 442.885,553.724 565.433,27.557  "/>
<polygon fill="#577054" points="123.835,483.763 522.943,526.942 339.492,23.070  "/>
<polygon fill="#6a2c3b" points="262.746,208.773 162.042,434.488 54.689,80.884  "/>
<polygon fill="#3b26f2" points="126.446,234.394 574.001,255.263 303.995,591.834  "/>
<polygon fill="#26e436" points="284.567,135.081 320.147,325.268 161.835,402.622  "/>
<polygon fill="#0a1f6a" points="531.125,432.253 100.969,304.352 560.261,334.559  "/>
<polygon fill="#621ef2" points="54.533,77.615 588.439,578.794 577.284,301.682  "/>
<polygon fill="#8077a0" points="118.444,421.671 436.301,431.045 70.405,488.714  "/>
<polygon fill="#30758f" points="512.304,391.539 230.625,416.823 40.293,495.365  "/>
<polygon fill="#8e13f2" points="503.841,519.178 190.005,294.879 498.995,436.122  "/>
<polygon fill="#0e5fb5" points="88.312,306.302 538.550,82.315 431.364,314.174  "/>
<polygon fill="#301505" points="21.624,166.366 260.855,383.103 260.499,225.803  "/>
<polygon fill="#37018d" points="48.802,339.468 498.824,290.494 314.123,402.146  "/>
<polygon fill="#025b07" points="66.068,477.482 168.841,184.733 113.672,284.684  "/>
<polygon fill="#6c917a" points="313.688,538.853 581.036,580.838 356.190,429.037  "/>
<polygon fill="#d4ce3c" points="208.174,389.612 461.697,584.826 388.078,115.327  "/>
<polygon fill="#f47dd9" points="87.071,360.887 1.256,497.756 406.135,462.969  "/>
<polygon fill="#3beec1" points="23.906,217.381 595.525,373.603 566.985,528.343  "/>
<polygon fill="#4395aa" points="378.838,51.576 171.407,204.754 412.317,265.955  "/>
<polygon fill="#e7cb86" points="388.634,134.504 356.432,296.561 261.558,176.948  "/>
<polygon fill="#11e993" points="554.936,428.638 273.478,259.460 265.551,156.100  "/>
<polygon fill="#600a82" points="311.185,115.712 426.329,542.630 281.382,423.842  "/>
<polygon fill="#e7bd09" points="82.419,13.593 518.307,531.847 581.856,560.102  "/>
<polygon fill="#fa5794" points="528.296,278.669 494.334,43.094 567.435,579.370  "/>
<polygon fill="#e46925" points="387.828,436.724 485.231,99.811 253.141,325.517  "/>
<polygon fill="#070f8f" points="448.814,344.878 196.129,133.824 127.712,446.221  "/>
<polygon fill="#2dd1d9" points="78.673,588.176 311.186,387.561 386.415,25.947  "/>
<polygon fill="#787656" points="21.080,109.629 75.104,451.913 371.602,255.578  "/>
<polygon fill="#c77a8b" points="486.546,500.222 8.546,127.115 514.767,581.029  "/>
<polygon fill="#6a280c" points="548.697,590.495 239.178,336.929 298.724,348.412  "/>
<polygon fill="#c224ff" points="194.926,67.263 522.639,540.551 106.401,242.323  "/>
<polygon fill="#80cd5e" points="348.665,364.444 399.047,133.897 192.332,432.351  "/>
<polygon fill="#f05ffd" points="316.882,266.929 333.726,401.248 599.280,148.654  "/>
<polygon fill="#fff0bd" points="225.196,404.362 277.564,266.546 576.813,449.772  "/>
<polygon fill="#900dfe" points="189.374,20.484 193.962,129.876 18.427,275.642  "/>
</svg>