<?xml version="1.0" encoding="utf-8"?>
<!-- Generator: Python script. InTeResTinG -->
<!DOCTYPE svg PUBLIC "-//W3C//DTD SVG 1.1//EN" "http://www.w3.org/Graphics/SVG/1.1/DTD/svg11.dtd">
<svg version="1.1" id="Layer_1" xmlns="http://www.w3.org/2000/svg" xmlns:xlink="http://www.w3.org/1999/xlink" x="0px" y="0px" width="600.000px" height="600.000px" viewBox="0 0 600.000 600.000" enable-background="new 0 0 600.000 600.000" xml:space="preserve">
<polygon fill="#282ac9" points="496.446,62.073 300.048,50.844 90.535,460.886  "/>
<polygon fill="#2efd9c" points="544.268,91.608 77.504,152.506 281.968,428.739  "/>
<polygon fill="#97177d" points="340.556,487.709 557.512,309.435 255.471,383.432  "/>
<polygon fill="#6c778b" points="462.063,540.989 85.619,335.872 423.359,178.033  "/>
<polygon fill="#6f37cf" points="341.430,447.654 347.233,116.001 545.474,497.470  "/>
<polygon fill="#9d26e2" points="295.465,382.282 81.512,331.393 501.797,577.356  "/>
<polygon fill="#92f524" points="184.243,446.391 336.451,587.262 288.656,348.202  "/>
<polygon fill="#8869fb" points="105.947,334.353 270.187,274.251 214.895,561.610  "/>
<polygon fill="#7bf485" points="115.847,337.754 493.805,357.034 377.074,337.047  "/>
<polygon fill="#4b24e0" points="435.105,200.480 397.831,351.787 384.348,391.943  "/>
<polygon fill="#689a5f" points="112.381,207.276 562.725,200.175 520.400,344.327  "/>
<polygon fill="#43f83d" points="417.204,575.935 231.578,191.294 103.072,204.391  "/>
<polygon fill="#01772e" points="554.326,303.642 248.236,486.499 310.548,243.348  "/>
<polygon fill="#62000f" points="590.915,26.829 325.456,401.464 36.000,313.628  "/>
<polygon fill="#1c036b" points="310.414,18.576 533.233,73.372 446.644,445.828  "/>
<polygon fill="#7ff190" points="70.344,407.749 17.218,463.811 6.708,449.974  "/>
<polygon fill="#a3a8f3" points="516.222,179.024 559.614,493.233 89.517,492.409  "/>
<polygon fill="#41cb1b" points="87.657,444.666 79.029,88.398 358.437,7.261  "/>
<polygon fill="#585970" points="398.136,554.875 267.431,23.801 576.332,383.713  "/>
<polygon fill="#98b0d2" points="252.845,362.070 29.644,512.414 454.211,357.060  "/>
<polygon fill="#e93175" points="253.328,98.971 130.339,275.612 334.956,516.702  "/>
<polygon fill="#9fba40" points="514.388,270.926 556.664,227.311 143.728,409.189  "/>
<polygon fill="#25dfe7" points="379.593,418.382 29.782,261.680 248.809,518.339  "/>
<polygon fill="#8aff82" points="450.837,523.946 8.047,431.362 199.087,547.572  "/>
<polygon fill="#86488d" points="86.865,534.185 462.375,0.937 567.617,509.377  "/>
<polygon fill="#2712e4" points="475.346,586.431 330.499,559.950 525.032,69.914  "/>
<polygon fill="#5f171e" points="36.109,270.799 430.728,457.987 412.507,110.884  "/>
<polygon fill="#3c8eed" points="576.806,294.929 551.337,96.938 539.946,3.509  "/>
<polygon fill="#ca41e0" points="384.861,80.713 40.065,121.556 63.789,58.377  "/>
<polygon fill="#ef1cd3" points="295.807,52.168 117.965,420.107 398.577,560.090  "/>
<polygon fill="#2245a2" points="368.273,288.632 134.225,401.812 222.872,302.933  "/>
<polygon fill="#a46beb" points="196.046,58.381 569.169,55.254 462.095,223.180  "/>
<polygon fill="#432b5a" points="506.688,578.757 49.318,27.320 328.717,366.953  "/>
<polygon fill="#c5e28f" points="544.474,431.625 547.555,583.787 294.788,188.586  "/>
<polygon fill="#f52d4f" points="279.677,10.534 535.023,258.184 208.061,552.663  "/>
<polygon fill="#5304bd" points="434.874,345.811 34.590,117.481 588.884,374.032  "/>
<polygon fill="#e867d9" points="172.245,82.490 501.674,228.735 286.252,46.118  "/>
<polygon fill="#0ee0af" points="548.323,495.172 25.300,97.788 504.068,592.698  "/>
<polygon fill="#63cb83" points="186.407,515.994 311.394,171.467 242.375,549.586  "/>
<polygon fill="#12df88" points="280.012,77.677 545.755,222.098 341.763,535.220  "/>
<polygon fill="#8cd126" points="383.176,298.101 177.230,276.733 577.729,392.076  "/>
<polygon fill="#1f19a6" points="590.905,312.976 183.162,38.742 353.874,260.118  "/>
<polygon fill="#f3a254" points="509.582,228.610 196.538,98.958 22.820,190.901  "/>
<polygon fill="#c633c7" points="561.927,486.225 112.073,352.302 497.252,560.869  "/>
<polygon fill="#8ad397" points="195.023,406.580 510.223,459.972 77.908,41.183  "/>
<polygon fill="#45355e" points="301.470,230.366 504.946,28.293 74.067,244.176  "/>
<polygon fill="#96114a" points="22.974,96.665 538.336,209.846 412.519,344.716  "/>
<polygon fill="#d7d7a8" points="236.665,497.133 522.993,413.281 87.484,177.025  "/>
<polygon fill="#280bdc" points="227.222,366.142 397.263,223.400 262.203,44.234  "/>
<polygon fill="#41fde5" points="197.324,529.928 328.472,322.828 37.161,126.354  "/>
<polygon fill="#593134" points="238.982,238.336 190.769,130.423 7.409,388.542  "/>
<polygon fill="#85f9b3" points="144.459,189.530 484.125,3.502 431.644,15.235  "/>
<polygon fill="#e99480" points="102.181,89.378 343.334,60.869 361.808,130.201  "/>
<polygon fill="#612e93" points="131.863,304.307 470.689,88.503 309.815,370.566  "/>
<polygon fill="#4899bf" points="86.929,387.396 0.980,146.737 533.301,177.686  "/>
<polygon fill="#fb31fb" points="279.543,314.894 419.654,266.009 3.919,256.468  "/>
<polygon fill="#08451e" points="57.323,155.996 485.349,156.833 412.434,190.807  "/>
<polygon fill="#ddd18c" points="498.851,49.974 598.522,123.503 566.009,229.791  "/>
<polygon fill="#a5d3f2" points="340.850,105.702 339.426,504.325 198.551,276.466  "/>
<polygon fill="#ac6895" points="237.312,76.758 594.425,141.635 338.507,175.588  "/>
<polygon fill="#f8c4ce" points="502.373,193.513 586.631,434.469 129.380,60.583  "/>
<polygon fill="#96f505" points="323.206,117.190 154.025,262.630 301.840,336.532  "/>
<polygon fill="#071336" points="373.020,177.811 126.019,419.097 179.279,239.455  "/>
</svg>