<?xml version="1.0" encoding="utf-8"?>
<!-- Generator: Python script. InTeResTinG -->
<!DOCTYPE svg PUBLIC "-//W3C//DTD SVG 1.1//EN" "http://www.w3.org/Graphics/SVG/1.1/DTD/svg11.dtd">
<svg version="1.1" id="Layer_1" xmlns="http://www.w3.org/2000/svg" xmlns:xlink="http://www.w3.org/1999/xlink" x="0px" y="0px" width="600.000px" height="600.000px" viewBox="0 0 600.000 600.000" enable-background="new 0 0 600.000 600.000" xml:space="preserve">
<polygon fill="#22e911" points="337.344,37.133 492.694,205.266 355.485,119.398  "/>
<polygon fill="#56922e" points="406.583,86.942 155.238,487.250 118.556,565.937  "/>
<polygon fill="#ed227f" points="550.133,519.297 522.178,37.168 181.715,16.410  "/>
<polygon fill="#3de81d" points="441.075,167.203 296.182,510.614 376.845,384.158  "/>
<polygon fill="#f652bb" points="278.914,441.040 80.185,81.849 295.696,418.228  "/>
<polygon fill="#3094a7" points="307.319,544.768 220.697,430.604 102.843,583.591  "/>
<polygon fill="#2ceee2" points="81.817,111.654 58.920,196.054 38.496,190.935  "/>
<polygon fill="#dbb106" points="233.770,260.038 179.632,420.882 217.226,553.498  "/>
<polygon fill="#1f8b6d" points="391.810,247.463 287.306,190.721 30.521,594.208  "/>
<polygon fill="#c791a4" points="301.116,586.520 76.810,579.901 540.984,369.924  "/>
<polygon fill="#50b47d" points="580.138,103.639 317.044,107.906 598.923,451.912  "/>
<polygon fill="#c9a616" points="391.289,277.399 560.299,400.711 552.329,101.847  "/>
<polygon fill="#a37616" points="401.831,269.962 289.466,220.341 509.780,22.807  "/>
<polygon fill="#916270" points="469.437,34.213 262.659,557.210 509.728,104.001  "/>
<polygon fill="#95f056" points="244.719,231.051 418.036,76.250 400.027,381.570  "/>
<polygon fill="#bf97ab" points="230.813,395.399 254.805,212.102 339.335,519.438  "/>
<polygon fill="#9ac43e" points="462.524,445.095 375.872,497.925 300.053,254.348  "/>
<polygon fill="#7c8a2a" points="494.134,555.274 568.990,220.236 456.676,446.633  "/>
<polygon fill="#1a22c2" points="523.500,58.097 311.300,221.887 117.878,485.830  "/>
<polygon fill="#3cbeaa" points="138.611,10.172 369.049,108.537 45.507,173.239  "/>
<polygon fill="#a9f7c8" points="571.404,540.917 584.970,276.960 510.843,109.568  "/>
<polygon fill="#70c3c0" points="268.007,181.825 2.482,463.938 458.630,40.792  "/>
<polygon fill="#e96767" points="371.596,68.150 264.541,520.210 412.830,263.387  "/>
<polygon fill="#72a744" points="519.360,23.692 114.385,129.411 246.666,529.994  "/>
<polygon fill="#5f2765" points="544.816,139.365 131.396,174.933 397.231,114.193  "/>
<polygon fill="#995592" points="150.443,561.576 558.121,214.359 69.727,113.135  "/>
<polygon fill="#88230a" points="359.523,573.698 40.426,22.857 63.557,480.624  "/>
<polygon fill="#492c3c" points="403.429,155.610 137.639,88.586 65.613,21.585  "/>
<polygon fill="#55f9dc" points="239.546,51.592 180.887,353.695 502.372,24.547  "/>
<polygon fill="#70deb7" points="280.270,41.317 344.402,401.411 450.394,362.951  "/>
<polygon fill="#098c07" points="178.191,340.317 550.711,431.797 349.965,341.484  "/>
<polygon fill="#b6918c" points="95.802,204.185 555.966,164.541 469.323,590.805  "/>
<polygon fill="#94d5fd" points="59.517,64.143 180.523,511.377 129.179,359.633  "/>
<polygon fill="#4a4ae6" points="213.392,100.112 37.700,412.713 16.778,481.977  "/>
<polygon fill="#b605e6" points="523.703,236.028 400.684,481.369 201.012,98.169  "/>
<polygon fill="#1585fc" points="509.041,338.122 35.845,288.409 145.259,365.747  "/>
<polygon fill="#4016e1" points="329.411,171.771 394.655,127.146 82.420,11.265  "/>
<polygon fill="#0398d9" points="74.148,203.616 240.133,321.030 202.986,582.895  "/>
<polygon fill="#de5567" points="578.785,501.026 385.989,328.348 273.988,347.342  "/>
<polygon fill="#b2cca0" points="391.035,416.842 569.338,561.301 102.530,286.944  "/>
<polygon fill="#eece98" points="155.518,583.795 364.193,482.399 218.982,216.567  "/>
<polygon fill="#c92c5f" points="524.742,93.225 565.249,598.313 526.310,128.646  "/>
<polygon fill="#5b3a71" points="573.073,42.048 127.583,413.556 51.703,319.732  "/>
<polygon fill="#cacf42" points="0.066,107.502 596.380,449.558 90.292,156.384  "/>
<polygon fill="#df5d24" points="312.302,150.947 204.211,412.359 552.973,543.444  "/>
<polygon fill="#e8c284" points="461.182,190.820 166.555,198.588 315.595,514.541  "/>
<polygon fill="#7ad779" points="135.141,375.478 242.259,271.852 510.212,229.275  "/>
<polygon fill="#d404b7" points="207.517,278.317 349.162,356.163 113.396,90.110  "/>
<polygon fill="#62cff0" points="97.091,519.248 154.758,496.023 298.523,319.466  "/>
<polygon fill="#329bc1" points="482.745,340.806 273.981,54.369 507.124,184.094  "/>
<polygon fill="#f19988" points="200.637,137.156 402.291,543.421 516.894,413.827  "/>
<polygon fill="#ea40b3" points="331.729,312.716 89.029,282.297 437.676,424.361  "/>
<polygon fill="#c2c650" points="102.857,51.067 388.296,166.117 570.751,328.668  "/>
<polygon fill="#7ed16e" points="362.351,363.067 390.691,3.952 132.810,71.879  "/>
<polygon fill="#40926c" points="372.968,84.111 101.810,499.925 298.481,538.710  "/>
<polygon fill="#5a9b6f" points="361.351,531.115 131.065,147.667 469.787,75.740  "/>
<polygon fill="#3b1cc4" points="351.918,331.311 31.535,72.950 150.647,353.332  "/>
<polygon fill="#b475ae" points="420.685,302.606 65.584,556.561 382.632,516.362  "/>
<polygon fill="#e9cc00" points="181.031,541.159 165.818,10.428 274.513,343.585  "/>
<polygon fill="#091254" points="428.187,508.810 33.164,498.976 44.557,492.887  "/>
<polygon fill="#20966f" points="434.582,303.279 448.341,268.602 47.304,491.961  "/>
<polygon fill="#dc2f32" points="110.026,308.069 557.856,490.856 189.321,519.309  "/>
<polygon fill="#0ea7b3" points="166.378,332.943 423.200,492.920 376.740,148.283  "/>
<polygon fill="#a3c338" points="376.053,142.009 84.502,183.970 15.022,131.476  "/>
</svg>