<?xml version="1.0" encoding="utf-8"?>
<!-- Generator: Python script. InTeResTinG -->
<!DOCTYPE svg PUBLIC "-//W3C//DTD SVG 1.1//EN" "http://www.w3.org/Graphics/SVG/1.1/DTD/svg11.dtd">
<svg version="1.1" id="Layer_1" xmlns="http://www.w3.org/2000/svg" xmlns:xlink="http://www.w3.org/1999/xlink" x="0px" y="0px" width="600.000px" height="600.000px" viewBox="0 0 600.000 600.000" enable-background="new 0 0 600.000 600.000" xml:space="preserve">
<polygon fill="#df7285" points="36.313,350.580 465.261,128.046 146.329,521.616  "/>
<polygon fill="#1b4a20" points="553.307,571.798 92.028,246.453 2.175,524.139  "/>
<polygon fill="#0e15c4" points="498.391,64.005 286.235,506.641 583.666,372.701  "/>
<polygon fill="#f08417" points="58.529,206.090 110.354,492.107 330.126,110.156  "/>
<polygon fill="#6dd849" points="136.459,82.833 333.944,58.982 193.266,369.262  "/>
<polygon fill="#31f2a1" points="431.676,36.854 53.486,155.443 244.590,32.273  "/>
<polygon fill="#3183ad" points="49.878,589.477 423.414,370.925 374.623,190.304  "/>
<polygon fill="#9b69a4" points="38.605,191.289 106.495,183.251 232.488,231.799  "/>
<polygon fill="#0612d4" points="113.399,103.904 57.105,306.435 102.169,412.846  "/>
<polygon fill="#c2f4b1" points="542.429,377.902 158.400,440.192 247.756,567.870  "/>
<polygon fill="#c28901" points="463.132,11.105 235.686,12.246 0.137,527.703  "/>
<polygon fill="#089aff" points="101.362,129.624 379.358,344.302 169.170,308.521  "/>
<polygon fill="#899ea9" points="4.425,156.023 134.252,18.763 488.271,545.567  "/>
<polygon fill="#435b48" points="29.248,509.494 54.491,119.916 460.743,185.592  "/>
<polygon fill="#3c3549" points="284.221,455.705 484.399,549.065 183.768,477.018  "/>
<polygon fill="#123a00" points="151.944,520.121 81.507,160.468 561.029,215.634  "/>
<polygon fill="#cb22fb" points="48.132,588.750 397.538,547.203 2.104,189.011  "/>
<polygon fill="#63426d" points="571.423,520.446 502.325,190.630 333.508,296.003  "/>
<polygon fill="#f31d23" points="576.437,41.180 401.683,509.302 488.568,298.287  "/>
<polygon fill="#6e975f" points="484.567,221.169 464.520,56.629 450.471,284.775  "/>
<polygon fill="#3618a4" points="38.225,497.613 367.855,397.211 291.888,581.991  "/>
<polygon fill="#1f33f4" points="428.634,580.410 40.372,62.299 258.289,323.655  "/>
<polygon fill="#3b05ad" points="130.422,51.411 180.959,395.759 276.463,158.775  "/>
<polygon fill="#aba3c2" points="496.733,286.988 84.194,213.391 288.240,294.960  "/>
<polygon fill="#f7f9d3" points="491.967,534.880 190.043,267.752 533.628,140.682  "/>
<polygon fill="#a7bdcc" points="192.051,311.602 240.724,152.514 437.032,579.237  "/>
<polygon fill="#b2355a" points="137.797,187.244 598.531,235.024 88.786,520.934  "/>
<polygon fill="#9203ff" points="560.063,442.884 571.517,132.462 484.574,104.700  "/>
<polygon fill="#4fd6d0" points="284.336,99.528 66.422,74.287 105.853,512.770  "/>
<polygon fill="#845477" points="325.400,208.607 528.435,405.006 540.218,70.534  "/>
<polygon fill="#0dafb8" points="422.173,212.637 178.160,246.439 377.192,153.441  "/>
<polygon fill="#a36efe" points="187.571,63.128 368.687,256.658 6.723,26.682  "/>
<polygon fill="#c29831" points="393.323,278.313 433.381,217.953 511.182,103.139  "/>
<polygon fill="#b9d300" points="226.680,502.801 496.905,229.292 166.089,197.869  "/>
<polygon fill="#cfc442" points="416.949,348.144 546.674,46.074 152.870,455.061  "/>
<polygon fill="#7cf22c" points="509.749,433.671 112.316,419.695 171.257,241.052  "/>
<polygon fill="#bd27e0" points="308.630,299.429 394.007,348.214 374.125,553.964  "/>
<polygon fill="#03647d" points="96.825,69.466 7.299,138.997 169.127,458.111  "/>
<polygon fill="#18f37e" points="336.781,177.489 360.117,175.919 290.627,104.371  "/>
<polygon fill="#86cbf1" points="251.215,143.731 570.299,502.661 383.826,470.094  "/>
<polygon fill="#d11678" points="265.131,287.135 88.219,509.442 25.927,538.940  "/>
<polygon fill="#9b344c" points="28.343,131.021 97.773,553.572 581.989,459.091  "/>
<polygon fill="#404259" points="546.727,48.705 540.289,234.965 157.733,409.854  "/>
<polygon fill="#ec9635" points="95.526,567.702 118.412,48.954 45.697,314.848  "/>
<polygon fill="#f5121f" points="444.497,141.096 165.359,578.079 472.854,155.079  "/>
<polygon fill="#c673bf" points="405.501,548.586 192.983,89.670 580.239,291.799  "/>
<polygon fill="#438dac" points="589.442,387.541 12.541,18.693 438.825,327.855  "/>
<polygon fill="#f61b16" points="448.535,302.243 17.574,526.850 221.929,106.271  "/>
<polygon fill="#74d18f" points="126.199,577.349 228.534,415.053 464.873,364.339  "/>
<polygon fill="#1daeff" points="368.619,537.047 341.325,430.012 187.575,443.287  "/>
<polygon fill="#f03a90" points="223.314,234.405 312.015,318.559 50.864,469.911  "/>
<polygon fill="#b5e146" points="231.900,83.549 102.975,271.066 12.331,408.681  "/>
<polygon fill="#fd023c" points="251.660,297.967 315.705,230.849 253.634,152.762  "/>
<polygon fill="#1dbf6d" points="472.159,279.957 497.927,306.964 32.691,50.720  "/>
<polygon fill="#168d23" points="379.774,102.501 434.454,284.633 494.361,210.089  "/>
<polygon fill="#9acc41" points="364.362,288.320 103.794,532.271 586.160,488.101  "/>
<polygon fill="#c09670" points="152.982,277.263 348.357,266.056 289.587,8.466  "/>
<polygon fill="#0b2a28" points="78.991,460.933 562.149,490.681 471.263,33.525  "/>
<polygon fill="#626a02" points="266.595,468.746 159.003,438.088 448.183,414.971  "/>
<polygon fill="#2345c2" points="185.928,158.941 195.619,259.491 122.837,451.358  "/>
<polygon fill="#3a3e67" points="350.485,165.525 284.650,331.327 596.132,310.131  "/>
<polygon fill="#098b19" points="507.220,55.775 461.703,302.254 529.879,375.091  "/>
<polygon fill="#072d03" points="196.645,85.005 274.837,128.974 578.888,163.021  "/>
</svg>