<?xml version="1.0" encoding="utf-8"?>
<!-- Generator: Python script. InTeResTinG -->
<!DOCTYPE svg PUBLIC "-//W3C//DTD SVG 1.1//EN" "http://www.w3.org/Graphics/SVG/1.1/DTD/svg11.dtd">
<svg version="1.1" id="Layer_1" xmlns="http://www.w3.org/2000/svg" xmlns:xlink="http://www.w3.org/1999/xlink" x="0px" y="0px" width="600.000px" height="600.000px" viewBox="0 0 600.000 600.000" enable-background="new 0 0 600.000 600.000" xml:space="preserve">
<polygon fill="#20b7ac" points="184.918,459.132 489.083,56.218 224.087,83.469  "/>
<polygon fill="#e677c9" points="308.924,583.785 127.525,159.957 218.910,473.479  "/>
<polygon fill="#132fc8" points="541.390,380.061 296.651,351.417 259.936,298.857  "/>
<polygon fill="#924216" points="63.929,556.228 528.020,87.249 410.984,411.450  "/>
<polygon fill="#058f69" points="141.318,521.835 361.107,17.712 105.691,244.116  "/>
<polygon fill="#dd1125" points="128.786,191.666 529.542,583.675 477.759,334.680  "/>
<polygon fill="#7a06a9" points="343.557,256.531 11.953,213.070 480.462,135.855  "/>
<polygon fill="#8a2de8" points="519.042,281.339 401.448,581.861 80.633,133.507  "/>
<polygon fill="#2d3a4b" points="587.376,173.265 138.870,164.808 548.604,132.365  "/>
<polygon fill="#e8ca79" points="516.296,354.668 282.762,539.598 234.997,164.845  "/>
<polygon fill="#559d4f" points="554.906,359.119 535.579,295.408 79.293,164.847  "/>
<polygon fill="#570b2a" points="245.929,386.915 505.191,231.333 35.682,460.848  "/>
<polygon fill="#e52177" points="208.848,368.551 287.047,278.306 272.279,58.025  "/>
<polygon fill="#8e5908" points="193.619,91.693 452.565,425.279 352.392,273.563  "/>
<polygon fill="#489083" points="118.829,450.604 26.569,146.616 276.487,8.959  "/>
<polygon fill="#9eba29" points="428.069,369.570 365.527,508.658 388.098,243.579  "/>
<polygon fill="#1cb7e0" points="244.248,417.685 325.659,238.226 47.192,351.365  "/>
<polygon fill="#c645a3" points="233.737,510.498 431.536,312.886 276.672,235.099  "/>
<polygon fill="#adf9ab" points="352.726,489.042 410.585,45.959 472.979,225.272  "/>
<polygon fill="#dcc6e2" points="135.958,30.374 176.852,288.069 596.721,399.023  "/>
<polygon fill="#55b20b" points="375.634,501.312 357.596,144.677 484.383,97.653  "/>
<polygon fill="#ee2bff" points="14.775,88.932 270.527,340.972 316.222,484.102  "/>
<polygon fill="#c40a8b" points="227.948,185.340 531.829,41.769 124.912,22.132  "/>
<polygon fill="#65f3e4" points="502.575,465.283 556.568,124.997 144.190,522.412  "/>
<polygon fill="#d6e41b" points="73.535,88.808 483.615,284.799 164.896,529.876  "/>
<polygon fill="#25d09e" points="66.245,330.437 187.992,335.399 268.318,66.979  "/>
<polygon fill="#8e1fa2" points="71.407,37.015 393.230,311.012 470.897,579.178  "/>
<polygon fill="#0f0569" points="56.547,419.580 425.314,65.853 181.556,488.521  "/>
<polygon fill="#c93208" points="222.110,323.120 527.222,330.338 61.801,533.164  "/>
<polygon fill="#a7f6fc" points="227.154,49.487 525.822,212.502 217.364,539.154  "/>
<polygon fill="#972057" points="525.850,574.304 488.120,584.352 282.876,481.862  "/>
<polygon fill="#015be6" points="460.752,423.257 56.775,72.162 90.631,73.966  "/>
<polygon fill="#295670" points="413.512,125.544 23.431,304.265 252.326,287.339  "/>
<polygon fill="#e3e144" points="562.344,398.077 12.095,566.692 55.848,39.888  "/>
<polygon fill="#a619ee" points="64.014,95.384 1.322,327.787 84.915,122.763  "/>
<polygon fill="#030f79" points="243.341,329.852 533.865,349.417 285.232,174.504  "/>
<polygon fill="#ff4b9a" points="139.613,489.533 165.757,253.661 137.808,220.547  "/>
<polygon fill="#03d052" points="135.187,328.376 483.590,80.600 140.541,296.013  "/>
<polygon fill="#2b3414" points="565.645,338.549 512.190,123.450 492.483,52.604  "/>
<polygon fill="#c045e4" points="59.012,306.486 442.794,133.614 31.928,326.494  "/>
<polygon fill="#48d263" points="556.464,467.901 268.288,515.284 355.514,257.698  "/>
<polygon fill="#486e44" points="199.324,586.169 242.444,17.552 217.874,71.609  "/>
<polygon fill="#264313" points="127.775,490.443 85.930,520.731 566.282,19.825  "/>
<polygon fill="#8cff9e" points="391.194,297.703 381.267,95.126 258.135,227.475  "/>
<polygon fill="#64fcca" points="342.303,329.904 140.806,434.898 358.269,199.173  "/>
<polygon fill="#6445a2" points="32.854,213.907 114.399,528.321 40.345,219.730  "/>
<polygon fill="#b8cd97" points="292.430,554.159 320.523,512.219 448.128,577.840  "/>
<polygon fill="#c8c4b2" points="429.972,34.360 304.411,180.371 267.871,62.940  "/>
<polygon fill="#312fd0" points="97.124,598.376 268.123,162.350 361.787,533.665  "/>
<polygon fill="#53df33" points="88.507,11.892 154.824,326.738 403.122,442.696  "/>
<polygon fill="#5f2827" points="173.599,498.101 527.263,576.043 53.094,293.347  "/>
<polygon fill="#e4f625" points="201.736,201.594 154.057,104.738 199.527,364.284  "/>
<polygon fill="#e4c2a7" points="95.636,17.405 97.829,222.484 100.468,487.077  "/>
<polygon fill="#3f1fac" points="77.669,421.491 523.368,32.298 477.168,50.213  "/>
<polygon fill="#ddbfda" points="456.221,143.712 236.256,53.066 166.189,470.972  "/>
<polygon fill="#6277b9" points="350.064,19.881 129.141,392.698 492.326,118.855  "/>
<polygon fill="#8a9c5c" points="8.126,527.796 555.157,267.449 368.066,302.328  "/>
<polygon fill="#5b7396" points="511.977,46.239 371.526,137.784 34.353,483.507  "/>
<polygon fill="#4f726d" points="75.376,573.091 355.425,339.549 326.361,110.505  "/>
<polygon fill="#476596" points="159.524,503.062 163.802,387.720 539.489,194.566  "/>
<polygon fill="#bfe6a5" points="86.691,394.244 170.855,45.104 97.503,248.255  "/>
<polygon fill="#8c48ac" points="424.641,154.404 482.876,402.023 140.116,50.048  "/>
<polygon fill="#6bd2ca" points="38.034,368.601 472.158,275.510 507.302,66.608  "/>
</svg>