<?xml version="1.0" encoding="utf-8"?>
<!-- Generator: Python script. InTeResTinG -->
<!DOCTYPE svg PUBLIC "-//W3C//DTD SVG 1.1//EN" "http://www.w3.org/Graphics/SVG/1.1/DTD/svg11.dtd">
<svg version="1.1" id="Layer_1" xmlns="http://www.w3.org/2000/svg" xmlns:xlink="http://www.w3.org/1999/xlink" x="0px" y="0px" width="600.000px" height="600.000px" viewBox="0 0 600.000 600.000" enable-background="new 0 0 600.000 600.000" xml:space="preserve">
<polygon fill="#cdfc2f" points="316.805,536.608 87.987,18.912 264.458,353.884  "/>
<polygon fill="#f66503" points="112.034,533.623 294.564,248.975 283.024,334.636  "/>
<polygon fill="#057058" points="523.108,174.247 89.147,356.104 271.714,83.748  "/>
<polygon fill="#374eaa" points="183.455,260.986 506.799,105.384 589.012,455.117  "/>
<polygon fill="#1cdb98" points="288.702,42.443 110.595,303.472 329.603,30.893  "/>
<polygon fill="#b23b5e" points="330.675,454.932 468.907,58.315 504.378,252.563  "/>
<polygon fill="#1eed5b" points="346.866,107.256 381.032,97.780 66.382,354.913  "/>
<polygon fill="#69032b" points="107.242,252.544 37.615,357.476 143.491,42.906  "/>
<polygon fill="#c5bd4c" points="285.073,557.095 203.903,38.691 483.775,208.852  "/>
<polygon fill="#428747" points="314.838,241.931 482.616,11.733 582.772,518.362  "/>
<polygon fill="#bf1880" points="403.139,12.016 276.951,286.431 156.594,244.667  "/>
<polygon fill="#d87b49" points="568.719,71.284 156.022,235.432 216.629,448.307  "/>
<polygon fill="#44de02" points="213.116,323.716 200.952,11.384 184.197,442.632  "/>
<polygon fill="#8b4922" points="398.498,500.942 518.857,87.635 213.591,466.035  "/>
<polygon fill="#63c947" points="153.059,266.153 225.481,518.036 35.172,268.382  "/>
<polygon fill="#3e17ee" points="518.349,217.036 379.626,95.116 124.718,307.809  "/>
<polygon fill="#b015e7" points="356.819,62.801 114.680,75.676 253.537,37.304  "/>
<polygon fill="#4757cc" points="23.165,270.300 595.521,131.637 330.580,129.851  "/>
<polygon fill="#48db81" points="13.483,392.576 140.648,456.662 571.122,9.828  "/>
<polygon fill="#9cb382" points="274.163,528.319 415.466,502.204 518.999,583.231  "/>
<polygon fill="#adb3be" points="540.399,57.007 291.445,219.561 387.613,279.297  "/>
<polygon fill="#79e228" points="318.591,294.739 405.248,493.116 82.474,119.460  "/>
<polygon fill="#9ecc10" points="454.179,48.607 198.715,408.872 303.442,390.473  "/>
<polygon fill="#1afc91" points="586.822,576.166 205.822,549.494 574.470,194.555  "/>
<polygon fill="#d14259" points="84.594,15.095 272.562,453.818 181.343,593.077  "/>
<polygon fill="#2c20a7" points="525.722,68.242 568.699,43.299 433.655,90.292  "/>
<polygon fill="#48ad67" points="342.720,380.356 417.785,355.978 476.015,87.165  "/>
<polygon fill="#23e445" points="228.155,89.605 68.589,159.685 154.687,588.364  "/>
<polygon fill="#fd708f" points="409.940,293.999 588.967,212.117 324.768,476.959  "/>
<polygon fill="#6a2f1b" points="533.194,211.844 586.076,375.592 155.416,406.686  "/>
<polygon fill="#38be25" points="480.853,208.981 43.741,322.512 247.939,538.876  "/>
<polygon fill="#62b520" points="438.489,249.608 43.591,50.281 155.383,587.791  "/>
<polygon fill="#33ac95" points="319.830,379.104 422.969,55.714 294.906,172.364  "/>
<polygon fill="#f50a4a" points="148.370,446.516 270.006,45.565 315.778,492.879  "/>
<polygon fill="#bd8734" points="206.999,201.600 589.197,411.352 423.117,495.789  "/>
<polygon fill="#c9b207" points="543.434,543.291 317.626,33.807 457.521,459.035  "/>
<polygon fill="#929741" points="393.284,304.526 535.840,350.917 333.450,470.824  "/>
<polygon fill="#55a74e" points="388.326,209.889 495.565,551.141 175.532,572.520  "/>
<polygon fill="#b91a8e" points="214.667,129.441 361.526,397.917 257.827,92.828  "/>
<polygon fill="#846b1e" points="405.078,174.746 261.044,410.133 88.318,265.279  "/>
<polygon fill="#a8ed37" points="488.624,71.816 75.789,560.847 542.312,290.271  "/>
<polygon fill="#3e8d38" points="510.526,21.385 337.361,396.591 339.254,296.747  "/>
<polygon fill="#7deba9" points="200.108,537.816 318.231,542.625 121.456,575.945  "/>
<polygon fill="#1f0559" points="490.595,448.703 414.288,166.262 354.184,270.014  "/>
<polygon fill="#82fda3" points="263.378,556.012 271.984,103.494 475.784,449.018  "/>
<polygon fill="#b38404" points="480.196,16.908 282.682,101.606 482.682,352.776  "/>
<polygon fill="#5b8457" points="38.199,397.139 193.536,89.160 589.663,170.866  "/>
<polygon fill="#1e517b" points="117.802,113.098 435.533,316.609 596.743,558.930  "/>
<polygon fill="#b5825b" points="534.039,225.208 529.979,54.825 534.166,279.693  "/>
<polygon fill="#57f97a" points="378.258,297.152 411.472,64.384 149.002,392.451  "/>
<polygon fill="#bba688" points="44.989,539.706 209.291,406.235 177.205,563.857  "/>
<polygon fill="#6acfc8" points="186.171,592.341 488.971,268.417 307.758,259.090  "/>
<polygon fill="#a62a9a" points="597.199,527.737 224.616,415.142 57.082,341.458  "/>
<polygon fill="#1e2194" points="84.381,163.425 35.663,3.508 149.415,288.394  "/>
<polygon fill="#f22797" points="245.337,34.868 109.483,60.013 452.089,268.682  "/>
<polygon fill="#09e973" points="176.641,82.062 585.373,501.032 385.044,341.808  "/>
<polygon fill="#e1f266" points="371.878,491.618 248.128,434.275 431.487,76.749  "/>
<polygon fill="#0f711f" points="238.498,17.422 49.833,123.164 79.721,282.588  "/>
<polygon fill="#8c54c8" points="106.151,455.163 531.768,133.256 112.471,317.923  "/>
<polygon fill="#ad344d" points="463.646,279.945 576.680,165.457 566.140,497.813  "/>
<polygon fill="#3b8586" points="51.471,593.455 532.651,336.904 96.282,356.747  "/>
</svg>