<?xml version="1.0" encoding="utf-8"?>
<!-- Generator: Python script. InTeResTinG -->
<!DOCTYPE svg PUBLIC "-//W3C//DTD SVG 1.1//EN" "http://www.w3.org/Graphics/SVG/1.1/DTD/svg11.dtd">
<svg version="1.1" id="Layer_1" xmlns="http://www.w3.org/2000/svg" xmlns:xlink="http://www.w3.org/1999/xlink" x="0px" y="0px" width="600.000px" height="600.000px" viewBox="0 0 600.000 600.000" enable-background="new 0 0 600.000 600.000" xml:space="preserve">
<polygon fill="#ba8f79" points="525.694,372.063 323.604,553.092 95.257,252.021  "/>
<polygon fill="#b5930b" points="220.104,259.580 97.849,14.199 8.075,213.893  "/>
<polygon fill="#4669b9" points="306.266,473.080 222.230,209.229 533.381,145.146  "/>
<polygon fill="#233c53" points="198.864,104.022 392.405,251.256 400.207,457.397  "/>
<polygon fill="#af5a70" points="550.166,10.283 214.776,198.015 392.912,268.495  "/>
<polygon fill="#8ea71d" points="174.706,72.143 235.987,204.178 306.795,282.243  "/>
<polygon fill="#188b06" points="458.711,158.848 456.868,141.045 164.112,519.866  "/>
<polygon fill="#5b7e4a" points="110.261,417.568 203.352,187.697 41.881,341.922  "/>
<polygon fill="#bc0b8c" points="260.795,210.655 457.185,451.428 272.773,132.205  "/>
<polygon fill="#7bde96" points="272.429,461.281 75.144,56.799 344.227,291.870  "/>
<polygon fill="#152534" points="411.690,541.626 463.884,170.141 580.853,530.560  "/>
<polygon fill="#213663" points="29.675,435.757 487.381,146.166 179.847,267.311  "/>
<polygon fill="#96538f" points="409.870,130.128 454.563,44.279 302.783,530.750  "/>
<polygon fill="#41cba9" points="443.049,179.202 126.915,261.841 10.656,491.642  "/>
<polygon fill="#7d8a61" points="299.494,76.426 182.763,291.205 23.789,445.495  "/>
<polygon fill="#cd763a" points="542.538,278.731 174.084,439.260 528.520,271.936  "/>
<polygon fill="#6da10c" points="46.428,474.944 298.354,599.825 131.563,255.271  "/>
<polygon fill="#3b81d3" points="442.050,16.757 309.937,64.811 535.207,337.667  "/>
<polygon fill="#4e4ffe" points="64.481,313.830 175.429,506.039 199.655,360.837  "/>
<polygon fill="#3aec67" points="239.903,101.990 545.471,420.922 323.640,596.838  "/>
<polygon fill="#bdd602" points="49.468,19.111 251.475,149.248 209.472,5.333  "/>
<polygon fill="#135f70" points="192.266,306.529 243.233,574.861 140.361,342.833  "/>
<polygon fill="#286de3" points="348.020,47.295 142.842,53.290 446.635,387.031  "/>
<polygon fill="#f01768" points="84.354,492.512 209.129,149.062 175.927,10.292  "/>
<polygon fill="#cb5de9" points="384.041,54.271 42.196,401.284 50.579,110.964  "/>
<polygon fill="#132be3" points="57.796,211.324 65.723,428.315 541.960,532.063  "/>
<polygon fill="#fcfee0" points="514.518,593.054 35.236,453.708 239.150,196.603  "/>
<polygon fill="#0114b7" points="217.021,202.945 26.965,269.965 489.480,316.720  "/>
<polygon fill="#b09c70" points="588.129,244.127 534.211,36.553 104.017,264.204  "/>
<polygon fill="#cab619" points="258.874,431.654 40.029,393.737 135.672,23.267  "/>
<polygon fill="#3402ae" points="76.340,155.713 255.825,47.170 452.539,48.925  "/>
<polygon fill="#d52ea7" points="517.614,534.806 239.987,38.120 461.350,59.639  "/>
<polygon fill="#f8e7bc" points="514.233,117.334 394.038,456.886 95.513,337.537  "/>
<polygon fill="#fb87ae" points="119.554,68.967 403.739,235.715 1.084,398.591  "/>
<polygon fill="#6d730b" points="469.766,433.793 438.300,477.604 503.162,551.462  "/>
<polygon fill="#966e4f" points="470.742,415.013 90.673,269.726 555.928,559.952  "/>
<polygon fill="#b1603f" points="397.690,489.452 78.415,223.713 149.778,41.170  "/>
<polygon fill="#f9b776" points="139.003,34.701 528.462,32.854 48.793,494.628  "/>
<polygon fill="#0e50c0" points="536.442,165.910 350.827,483.221 348.021,502.419  "/>
<polygon fill="#a9d66d" points="417.123,280.769 585.538,406.243 491.594,475.213  "/>
<polygon fill="#48260a" points="136.032,591.295 399.303,420.898 336.596,548.390  "/>
<polygon fill="#e8faf2" points="586.524,492.101 553.501,383.164 299.195,407.559  "/>
<polygon fill="#831c48" points="169.625,531.140 293.708,61.367 33.414,589.763  "/>
<polygon fill="#242650" points="253.984,35.415 140.989,357.518 582.298,226.361  "/>
<polygon fill="#e6584c" points="369.411,399.204 590.608,542.414 504.264,127.713  "/>
<polygon fill="#b6d787" points="299.298,354.970 166.530,576.721 221.391,326.020  "/>
<polygon fill="#5ba433" points="456.217,311.237 540.138,372.523 110.877,7.708  "/>
<polygon fill="#875672" points="199.255,210.443 44.674,133.306 578.305,560.582  "/>
<polygon fill="#06ec99" points="239.491,55.205 115.859,391.457 137.839,502.503  "/>
<polygon fill="#9ce159" points="219.832,529.198 258.613,530.934 509.150,95.038  "/>
<polygon fill="#b8596e" points="462.023,371.364 192.966,553.904 420.810,14.455  "/>
<polygon fill="#7e8e81" points="397.551,8.196 141.923,370.924 21.650,304.367  "/>
<polygon fill="#931e65" points="303.141,170.560 484.047,216.186 283.619,192.822  "/>
<polygon fill="#fc17dc" points="246.787,429.023 532.417,117.342 491.998,550.163  "/>
<polygon fill="#2d1d71" points="394.993,348.330 468.910,119.427 117.139,564.332  "/>
<polygon fill="#e5145d" points="241.898,402.520 196.920,23.080 554.259,12.011  "/>
</svg>