<?xml version="1.0" encoding="utf-8"?>
<!-- Generator: Python script. InTeResTinG -->
<!DOCTYPE svg PUBLIC "-//W3C//DTD SVG 1.1//EN" "http://www.w3.org/Graphics/SVG/1.1/DTD/svg11.dtd">
<svg version="1.1" id="Layer_1" xmlns="http://www.w3.org/2000/svg" xmlns:xlink="http://www.w3.org/1999/xlink" x="0px" y="0px" width="600.000px" height="600.000px" viewBox="0 0 600.000 600.000" enable-background="new 0 0 600.000 600.000" xml:space="preserve">
<polygon fill="#49edf4" points="295.013,399.532 591.280,106.436 18.259,214.563  "/>
<polygon fill="#13524a" points="113.378,481.141 442.133,72.381 138.446,296.018  "/>
<polygon fill="#239374" points="288.247,298.571 84.114,98.261 216.844,98.678  "/>
<polygon fill="#d86bd3" points="225.499,574.702 108.902,285.608 582.384,2.000  "/>
<polygon fill="#cb9aef" points="156.962,551.781 196.211,598.103 341.011,467.233  "/>
<polygon fill="#e83ad7" points="431.119,483.341 57.924,13.147 459.409,474.488  "/>
<polygon fill="#03aa43" points="123.659,357.589 177.191,110.721 150.673,532.033  "/>
<polygon fill="#8f3bf8" points="36.301,467.184 456.615,285.023 339.214,224.204  "/>
<polygon fill="#bfa0d8" points="393.779,474.346 318.842,524.694 49.604,509.824  "/>
<polygon fill="#199114" points="35.552,333.389 209.810,275.478 80.828,459.377  "/>
<polygon fill="#7d8b6c" points="568.145,36.533 203.643,417.804 383.870,533.753  "/>
<polygon fill="#78535a" points="150.756,223.323 88.753,25.704 148.090,102.264  "/>
<polygon fill="#39189f" points="266.831,494.462 522.634,548.541 435.748,347.750  "/>
<polygon fill="#c43841" points="557.227,129.171 157.465,201.465 153.039,528.868  "/>
<polygon fill="#8fc1ff" points="557.950,259.805 90.704,309.140 209.341,304.840  "/>
<polygon fill="#704956" points="57.881,495.837 385.079,273.642 563.354,486.800  "/>
<polygon fill="#efbb99" points="532.596,362.320 378.214,267.825 18.530,319.328  "/>
<polygon fill="#ecd057" points="18.200,260.841 586.739,451.684 191.380,95.057  "/>
<polygon fill="#fe7a45" points="528.961,145.045 294.068,490.856 88.257,91.408  "/>
<polygon fill="#389338" points="533.182,101.822 106.437,206.765 276.966,488.622  "/>
<polygon fill="#d9df39" points="54.019,350.180 527.055,320.237 475.860,456.891  "/>
<polygon fill="#9671ea" points="85.340,33.675 135.736,170.578 164.376,101.142  "/>
<polygon fill="#9b8b15" points="451.278,439.057 407.783,515.415 578.030,225.444  "/>
<polygon fill="#b6cac6" points="184.224,21.429 113.031,463.998 137.043,547.033  "/>
<polygon fill="#27266c" points="439.055,544.741 527.248,109.478 512.629,365.347  "/>
<polygon fill="#1c9ac9" points="79.583,425.015 591.614,17.263 15.676,7.548  "/>
<polygon fill="#fdea7b" points="164.176,238.405 345.861,529.238 467.497,183.822  "/>
<polygon fill="#b619c3" points="446.354,134.181 110.052,551.637 482.948,501.427  "/>
<polygon fill="#8fa6e8" points="83.734,202.122 108.106,235.860 546.289,224.958  "/>
<polygon fill="#d37536" points="66.184,414.070 196.553,234.362 40.325,551.817  "/>
<polygon fill="#b6f626" points="51.590,10.248 446.834,474.798 301.248,127.726  "/>
<polygon fill="#9315c1" points="284.196,383.983 252.117,505.620 191.001,130.946  "/>
<polygon fill="#ae3815" points="570.590,385.265 71.404,360.336 406.441,145.149  "/>
<polygon fill="#e7efa8" points="440.152,59.628 463.453,153.842 407.506,435.393  "/>
<polygon fill="#9e2184" points="347.458,56.020 215.425,227.593 48.814,572.379  "/>
<polygon fill="#5b7140" points="424.470,373.936 473.642,294.309 377.374,103.045  "/>
<polygon fill="#ccb7a0" points="460.613,66.698 226.612,565.660 356.936,275.636  "/>
<polygon fill="#bdd949" points="449.071,534.393 536.343,452.784 228.871,501.390  "/>
<polygon fill="#addd48" points="526.546,353.552 351.546,280.832 45.812,523.426  "/>
<polygon fill="#455029" points="15.814,500.947 78.275,583.997 144.228,27.167  "/>
<polygon fill="#163c09" points="38.110,81.927 263.973,21.222 437.595,156.488  "/>
<polygon fill="#f74836" points="147.811,521.943 387.994,119.971 38.541,271.424  "/>
<polygon fill="#86837c" points="171.854,297.861 194.425,196.824 452.782,285.438  "/>
<polygon fill="#053dd7" points="231.638,532.222 28.915,372.617 505.265,432.120  "/>
<polygon fill="#ac17fd" points="172.290,430.247 409.079,348.387 103.723,515.306  "/>
<polygon fill="#e23fe2" points="424.867,95.827 218.563,531.284 181.743,24.396  "/>
<polygon fill="#5a1e18" points="431.277,449.713 225.855,414.569 270.513,595.212  "/>
<polygon fill="#8151c3" points="319.851,321.255 581.220,269.213 594.811,406.936  "/>
<polygon fill="#c34fcd" points="153.769,438.331 439.199,349.307 437.747,556.552  "/>
<polygon fill="#3337a4" points="458.546,285.685 215.985,358.273 486.414,556.791  "/>
<polygon fill="#7ed589" points="38.673,472.945 350.971,461.704 188.061,461.824  "/>
</svg>