<?xml version="1.0" encoding="utf-8"?>
<!-- Generator: Python script. InTeResTinG -->
<!DOCTYPE svg PUBLIC "-//W3C//DTD SVG 1.1//EN" "http://www.w3.org/Graphics/SVG/1.1/DTD/svg11.dtd">
<svg version="1.1" id="Layer_1" xmlns="http://www.w3.org/2000/svg" xmlns:xlink="http://www.w3.org/1999/xlink" x="0px" y="0px" width="600.000px" height="600.000px" viewBox="0 0 600.000 600.000" enable-background="new 0 0 600.000 600.000" xml:space="preserve">
<polygon fill="#6fe1d0" points="172.795,398.127 336.456,563.520 533.743,104.899  "/>
<polygon fill="#612642" points="215.744,492.611 4.527,164.227 511.688,348.678  "/>
<polygon fill="#cfedd6" points="463.290,539.510 487.201,2.877 481.285,39.786  "/>
<polygon fill="#805533" points="255.246,70.432 55.412,315.605 203.068,127.495  "/>
<polygon fill="#536b9a" points="188.009,106.351 103.772,575.088 279.495,185.727  "/>
<polygon fill="#6aeeb9" points="420.108,455.493 54.075,277.873 9.891,566.085  "/>
<polygon fill="#199a4f" points="183.085,178.079 171.868,514.972 374.586,441.354  "/>
<polygon fill="#5e12e9" points="332.825,154.368 479.399,414.050 340.971,259.091  "/>
<polygon fill="#258b50" points="415.269,264.287 89.092,580.625 517.691,551.376  "/>
<polygon fill="#c4e364" points="12.088,487.071 332.190,328.195 382.480,198.575  "/>
<polygon fill="#9c4022" points="463.596,195.124 5.198,286.230 409.490,540.977  "/>
<polygon fill="#9ead2f" points="433.607,284.743 3.673,405.779 164.323,158.419  "/>
<polygon fill="#04fccb" points="478.183,175.141 141.664,417.917 13.350,280.144  "/>
<polygon fill="#0ee806" points="233.768,297.674 244.693,508.859 219.580,296.149  "/>
<polygon fill="#973ad9" points="434.456,393.283 112.741,40.957 314.749,355.515  "/>
<polygon fill="#0d4a6d" points="499.139,561.297 225.662,123.429 220.960,226.517  "/>
<polygon fill="#434edb" points="93.576,429.935 355.758,433.712 260.357,464.818  "/>
<polygon fill="#a38506" points="386.131,475.434 22.441,236.668 449.911,482.492  "/>
<polygon fill="#cddd14" points="312.763,464.880 540.362,75.487 51.957,122.171  "/>
<polygon fill="#cdfae9" points="352.360,34.962 139.972,529.522 396.078,483.747  "/>
<polygon fill="#491739" points="548.346,239.127 36.111,582.239 515.155,215.368  "/>
<polygon fill="#bb237e" points="477.074,7.703 468.873,398.564 378.824,270.475  "/>
<polygon fill="#566517" points="343.314,89.418 529.679,70.928 460.208,571.054  "/>
<polygon fill="#50814d" points="101.283,16.461 123.401,266.807 147.677,459.619  "/>
<polygon fill="#bc909a" points="179.331,267.383 430.240,89.217 217.304,497.529  "/>
<polygon fill="#31a80a" points="8.452,520.652 233.957,68.324 455.327,120.341  "/>
<polygon fill="#b0a501" points="300.083,218.674 294.680,326.751 111.032,243.261  "/>
<polygon fill="#290bcd" points="120.422,53.571 162.341,425.789 187.067,155.283  "/>
<polygon fill="#d34886" points="361.490,527.063 595.494,319.934 463.735,76.553  "/>
<polygon fill="#5e3b7e" points="27.055,449.820 323.023,311.019 405.196,516.623  "/>
<polygon fill="#471d8e" points="55.273,235.843 178.717,479.938 370.049,519.046  "/>
<polygon fill="#22fc12" points="540.828,456.182 19.129,250.159 272.668,391.982  "/>
<polygon fill="#b02a63" points="347.264,278.900 250.561,365.903 108.247,340.928  "/>
<polygon fill="#56a325" points="41.008,16.022 178.459,527.071 564.567,543.459  "/>
<polygon fill="#74663c" points="515.651,553.689 420.074,478.969 40.507,520.277  "/>
<polygon fill="#02c70b" points="325.041,496.909 286.443,547.757 372.775,95.075  "/>
<polygon fill="#2eb8c7" points="510.964,228.865 578.255,72.639 467.584,589.135  "/>
<polygon fill="#82de4a" points="313.873,364.032 203.306,112.690 280.036,71.149  "/>
<polygon fill="#5cbc60" points="306.747,126.144 39.531,423.985 480.689,378.664  "/>
<polygon fill="#bfb5ca" points="500.909,119.140 454.096,577.389 118.196,166.964  "/>
<polygon fill="#309fda" points="168.365,333.376 327.857,125.868 238.845,303.990  "/>
<polygon fill="#395a01" points="393.413,489.713 413.277,592.713 291.676,386.722  "/>
<polygon fill="#e12b12" points="494.013,96.869 338.635,133.620 376.586,217.753  "/>
<polygon fill="#ab8cbe" points="248.698,429.480 496.877,457.384 118.938,91.192  "/>
<polygon fill="#596530" points="283.501,272.768 453.818,307.882 106.676,295.183  "/>
<polygon fill="#12ff9e" points="14.012,539.229 534.521,395.883 100.676,528.618  "/>
<polygon fill="#570357" points="579.453,396.074 88.584,431.776 393.400,145.125  "/>
<polygon fill="#2392c6" points="57.856,112.757 501.100,589.394 453.537,161.771  "/>
<polygon fill="#3bfb30" points="561.423,565.484 413.011,131.949 551.913,383.651  "/>
<polygon fill="#60d49f" points="133.729,88.810 257.385,79.225 523.432,151.226  "/>
<polygon fill="#3746e8" points="21.807,354.758 555.518,343.424 545.406,354.793  "/>
<polygon fill="#9abe65" points="439.337,77.567 165.630,286.631 321.087,151.905  "/>
<polygon fill="#5a206a" points="78.933,319.087 193.124,36.810 70.848,190.297  "/>
<polygon fill="#492d6a" points="445.353,321.990 132.387,387.374 438.709,356.529  "/>
<polygon fill="#50e390" points="469.324,163.741 549.203,360.421 46.856,567.631  "/>
<polygon fill="#788cec" points="313.603,471.554 159.253,200.882 133.785,271.173  "/>
</svg>