<?xml version="1.0" encoding="utf-8"?>
<!-- Generator: Python script. InTeResTinG -->
<!DOCTYPE svg PUBLIC "-//W3C//DTD SVG 1.1//EN" "http://www.w3.org/Graphics/SVG/1.1/DTD/svg11.dtd">
<svg version="1.1" id="Layer_1" xmlns="http://www.w3.org/2000/svg" xmlns:xlink="http://www.w3.org/1999/xlink" x="0px" y="0px" width="600.000px" height="600.000px" viewBox="0 0 600.000 600.000" enable-background="new 0 0 600.000 600.000" xml:space="preserve">
<polygon fill="#575f65" points="273.746,464.783 180.758,408.524 433.632,154.482  "/>
<polygon fill="#e5a128" points="20.947,484.239 383.357,94.536 31.488,105.796  "/>
<polygon fill="#72ef2a" points="328.966,299.241 546.689,143.223 57.447,431.958  "/>
<polygon fill="#186896" points="546.396,446.498 492.709,47.102 300.154,401.165  "/>
<polygon fill="#4b8934" points="374.187,440.554 564.766,568.733 34.650,204.411  "/>
<polygon fill="#6e3e67" points="425.074,203.007 215.677,595.453 299.830,40.082  "/>
<polygon fill="#b3b930" points="469.264,337.459 422.691,261.270 512.263,533.905  "/>
<polygon fill="#0f2019" points="37.770,341.091 532.680,25.983 439.579,527.596  "/>
<polygon fill="#338ac7" points="534.859,17.396 432.039,140.406 456.892,52.184  "/>
<polygon fill="#41c390" points="530.499,142.419 337.086,255.909 588.628,201.481  "/>
<polygon fill="#333110" points="131.852,472.089 500.806,489.313 54.530,92.866  "/>
<polygon fill="#fdb675" points="438.817,126.530 499.594,48.787 94.524,19.692  "/>
<polygon fill="#96bb33" points="326.688,423.028 127.308,285.649 50.935,40.250  "/>
<polygon fill="#1ae00a" points="392.718,415.801 228.543,251.981 594.490,564.912  "/>
<polygon fill="#31bf32" points="440.713,495.406 213.092,191.967 185.261,172.605  "/>
<polygon fill="#8143be" points="452.464,539.302 130.749,349.403 448.711,404.110  "/>
<polygon fill="#d24cca" points="117.879,470.927 178.136,116.762 236.769,117.824  "/>
<polygon fill="#1ea7d8" points="18.029,34.721 1.052,329.804 197.770,475.756  "/>
<polygon fill="#93c5b8" points="146.732,139.103 57.260,98.173 299.624,539.498  "/>
<polygon fill="#57f7a9" points="251.177,372.212 109.765,548.149 282.428,159.577  "/>
<polygon fill="#f3eda0" points="278.968,267.789 484.841,188.292 595.019,187.649  "/>
<polygon fill="#2d9d8a" points="513.942,549.380 57.914,70.030 183.687,171.459  "/>
<polygon fill="#d9b3c7" points="165.182,258.869 457.197,567.263 513.849,217.411  "/>
<polygon fill="#9384f9" points="103.757,561.791 146.618,474.526 199.962,121.453  "/>
<polygon fill="#7f56e2" points="40.496,248.985 65.015,45.473 502.519,117.758  "/>
<polygon fill="#52b215" points="254.957,518.787 502.127,355.334 499.997,536.226  "/>
<polygon fill="#b21047" points="61.936,256.387 534.858,213.329 98.866,235.843  "/>
<polygon fill="#fd05de" points="62.846,156.100 563.201,559.815 36.857,397.727  "/>
<polygon fill="#26ce81" points="275.437,448.399 41.796,488.917 224.218,130.437  "/>
<polygon fill="#6d7230" points="166.975,541.475 561.875,82.820 597.527,35.297  "/>
<polygon fill="#38c44c" points="289.039,136.888 34.312,307.377 562.051,369.988  "/>
<polygon fill="#fe1a9b" points="312.129,495.152 124.071,190.322 463.923,402.629  "/>
<polygon fill="#5aab7d" points="114.679,207.405 576.159,390.835 118.095,220.423  "/>
<polygon fill="#419549" points="101.911,437.880 435.030,214.408 461.160,159.588  "/>
<polygon fill="#e15d67" points="388.825,280.529 194.625,598.744 132.261,286.745  "/>
<polygon fill="#26bc4d" points="406.126,434.296 444.016,485.102 189.935,200.627  "/>
<polygon fill="#a07206" points="116.035,264.327 592.082,26.298 100.730,431.905  "/>
<polygon fill="#d4fd2f" points="144.202,471.910 96.071,172.333 241.660,413.655  "/>
<polygon fill="#7f0285" points="187.077,303.312 175.872,487.838 3.369,386.575  "/>
<polygon fill="#a8fea5" points="594.386,167.407 236.563,451.803 3.100,401.706  "/>
<polygon fill="#cbca41" points="23.053,276.978 409.949,12.529 248.918,251.921  "/>
<polygon fill="#ebfbcb" points="84.003,189.750 471.989,124.246 599.953,548.991  "/>
<polygon fill="#dad1b9" points="428.818,408.377 424.002,557.710 171.797,230.097  "/>
<polygon fill="#87beb1" points="152.531,486.321 349.028,549.449 459.151,359.397  "/>
<polygon fill="#3de3fe" points="156.065,33.545 534.949,437.699 506.079,402.600  "/>
<polygon fill="#11093c" points="418.840,199.911 594.157,10.756 575.030,402.118  "/>
<polygon fill="#0f2a04" points="200.563,170.603 363.868,207.440 374.641,559.802  "/>
<polygon fill="#7a1967" points="510.125,456.733 43.215,86.632 251.267,386.852  "/>
<polygon fill="#ee33fa" points="434.260,383.376 166.748,92.837 382.413,58.779  "/>
<polygon fill="#05ecde" points="185.292,330.612 492.101,267.016 594.053,58.075  "/>
<polygon fill="#d15452" points="520.521,198.108 110.681,253.021 241.280,105.371  "/>
<polygon fill="#1b6acf" points="444.393,430.796 157.838,359.209 310.393,210.775  "/>
<polygon fill="#80e25a" points="434.242,229.959 293.633,553.797 266.367,54.007  "/>
<polygon fill="#5af5a3" points="396.618,326.109 142.097,519.208 191.528,223.323  "/>
<polygon fill="#e8052f" points="147.827,569.337 16.732,571.232 559.775,533.953  "/>
<polygon fill="#2c117a" points="305.615,435.180 291.125,45.141 135.961,550.360  "/>
<polygon fill="#908fd7" points="534.460,140.951 377.576,254.977 531.314,571.445  "/>
<polygon fill="#321c03" points="252.795,193.133 154.912,339.586 211.294,231.637  "/>
<polygon fill="#f3ec10" points="92.715,541.444 286.900,595.052 240.183,493.596  "/>
<polygon fill="#b59e23" points="411.305,531.377 173.904,81.311 331.112,191.935  "/>
<polygon fill="#472628" points="549.613,60.600 220.952,497.386 73.698,298.768  "/>
<polygon fill="#9c8f71" points="181.879,562.538 337.815,322.563 113.213,17.662  "/>
<polygon fill="#bf8601" points="134.306,187.936 209.450,104.919 531.811,239.135  "/>
<polygon fill="#8e9c86" points="65.393,18.957 568.909,537.170 474.588,399.491  "/>
<polygon fill="#f5c096" points="26.174,67.024 147.850,188.446 243.761,112.383  "/>
<polygon fill="#b8459a" points="135.083,393.596 543.530,543.933 545.236,330.064  "/>
<polygon fill="#12e2a3" points="220.929,143.032 289.168,84.789 440.515,173.240  "/>
<polygon fill="#7e67a5" points="123.746,306.602 440.061,243.025 44.401,308.421  "/>
</svg>