<?xml version="1.0" encoding="utf-8"?>
<!-- Generator: Python script. InTeResTinG -->
<!DOCTYPE svg PUBLIC "-//W3C//DTD SVG 1.1//EN" "http://www.w3.org/Graphics/SVG/1.1/DTD/svg11.dtd">
<svg version="1.1" id="Layer_1" xmlns="http://www.w3.org/2000/svg" xmlns:xlink="http://www.w3.org/1999/xlink" x="0px" y="0px" width="600.000px" height="600.000px" viewBox="0 0 600.000 600.000" enable-background="new 0 0 600.000 600.000" xml:space="preserve">
<polygon fill="#0f2ef3" points="427.959,115.359 508.374,11.873 2.041,179.205  "/>
<polygon fill="#84cc84" points="3.843,4.039 592.091,588.599 62.602,529.900  "/>
<polygon fill="#566d46" points="38.184,544.842 356.131,457.046 62.702,416.468  "/>
<polygon fill="#12062b" points="502.703,459.553 8.824,67.245 467.209,234.719  "/>
<polygon fill="#212505" points="59.727,240.860 233.313,376.140 432.288,217.725  "/>
<polygon fill="#f103e7" points="270.292,329.055 464.224,144.598 598.590,267.265  "/>
<polygon fill="#cbffac" points="508.686,294.030 540.278,159.412 216.806,281.137  "/>
<polygon fill="#e84cc0" points="159.513,389.208 440.079,590.166 104.379,185.703  "/>
<polygon fill="#f0bb01" points="31.554,416.252 128.503,295.355 123.745,240.530  "/>
<polygon fill="#873c01" points="412.310,311.833 40.367,183.738 541.454,150.914  "/>
<polygon fill="#3b20c9" points="384.834,120.449 111.070,129.179 423.807,204.462  "/>
<polygon fill="#d576c0" points="105.762,277.970 597.261,453.031 295.969,406.990  "/>
<polygon fill="#e9a6fd" points="431.756,135.018 60.402,151.268 206.875,123.281  "/>
<polygon fill="#44107c" points="294.700,238.504 165.884,538.746 0.411,170.474  "/>
<polygon fill="#e007ae" points="238.178,531.505 91.620,88.816 386.419,21.720  "/>
<polygon fill="#3471f0" points="326.425,408.284 293.501,69.126 508.205,140.398  "/>
<polygon fill="#9e7f03" points="172.120,39.121 498.333,84.084 310.733,404.060  "/>
<polygon fill="#9ec0e5" points="599.771,112.428 515.963,237.355 438.372,135.448  "/>
<polygon fill="#58c0a7" points="403.677,248.903 50.918,569.969 41.828,332.567  "/>
<polygon fill="#bfab1b" points="150.027,227.327 68.218,77.656 315.518,88.113  "/>
<polygon fill="#eda180" points="217.663,0.463 189.065,446.231 573.980,531.542  "/>
<polygon fill="#19573e" points="503.016,42.347 3.836,492.610 439.013,6.594  "/>
<polygon fill="#4934ae" points="559.303,157.634 292.880,352.257 3.551,244.802  "/>
<polygon fill="#e3d6f0" points="213.205,522.694 304.256,119.485 57.923,301.198  "/>
<polygon fill="#02e3e4" points="350.510,309.831 587.046,160.939 399.500,48.579  "/>
<polygon fill="#af7e2e" points="362.611,587.553 4.577,376.392 41.387,112.647  "/>
<polygon fill="#c2c225" points="485.695,332.022 125.369,407.076 487.716,369.359  "/>
<polygon fill="#52ede5" points="66.174,240.830 167.813,6.043 86.408,584.215  "/>
<polygon fill="#c9236c" points="375.988,585.318 496.220,114.493 103.858,241.680  "/>
<polygon fill="#c518ae" points="5.418,264.251 497.387,443.607 85.235,226.663  "/>
<polygon fill="#25f445" points="60.478,519.187 258.642,573.557 189.427,598.501  "/>
<polygon fill="#515d4a" points="74.634,7.243 496.924,259.270 90.508,502.396  "/>
<polygon fill="#ce9bef" points="48.872,535.571 572.823,14.709 392.561,4.233  "/>
<polygon fill="#90943e" points="317.363,152.018 244.995,104.757 406.860,263.130  "/>
<polygon fill="#40f637" points="305.820,285.302 236.740,414.672 558.667,15.194  "/>
<polygon fill="#fd41ba" points="177.319,450.994 557.607,406.356 262.570,450.426  "/>
<polygon fill="#0997e3" points="277.659,486.040 307.201,225.653 509.785,374.933  "/>
<polygon fill="#bcdc39" points="440.611,356.636 264.232,352.317 16.770,340.392  "/>
<polygon fill="#b581f0" points="416.565,265.570 404.124,567.585 493.981,19.827  "/>
<polygon fill="#78b5b6" points="27.597,386.373 340.939,499.356 288.644,78.106  "/>
<polygon fill="#130988" points="272.968,151.654 571.837,9.637 82.508,70.541  "/>
<polygon fill="#326293" points="102.069,484.199 482.474,409.192 374.242,289.778  "/>
<polygon fill="#e91fbc" points="379.464,295.583 165.128,380.638 283.515,358.099  "/>
<polygon fill="#fa00a3" points="96.658,376.792 323.005,371.225 353.646,343.203  "/>
<polygon fill="#f17359" points="459.728,197.714 263.017,110.603 399.711,452.354  "/>
<polygon fill="#3aa806" points="249.643,518.396 535.162,348.531 378.869,523.051  "/>
<polygon fill="#d5b1a3" points="508.026,542.499 466.717,116.011 527.224,423.429  "/>
<polygon fill="#eaab89" points="388.973,528.487 268.462,14.015 280.745,149.549  "/>
<polygon fill="#3fe496" points="299.842,322.082 240.919,460.892 94.397,477.133  "/>
<polygon fill="#a4388f" points="368.510,133.442 376.962,598.702 499.713,70.643  "/>
<polygon fill="#aadc3b" points="167.043,283.440 570.716,387.028 536.072,177.183  "/>
<polygon fill="#23c32d" points="191.771,26.743 541.717,349.446 204.165,115.783  "/>
<polygon fill="#803cee" points="37.140,181.616 149.200,181.231 348.321,123.191  "/>
<polygon fill="#1a0da3" points="159.934,328.641 106.393,506.140 114.299,284.409  "/>
</svg>