<?xml version="1.0" encoding="utf-8"?>
<!-- Generator: Python script. InTeResTinG -->
<!DOCTYPE svg PUBLIC "-//W3C//DTD SVG 1.1//EN" "http://www.w3.org/Graphics/SVG/1.1/DTD/svg11.dtd">
<svg version="1.1" id="Layer_1" xmlns="http://www.w3.org/2000/svg" xmlns:xlink="http://www.w3.org/1999/xlink" x="0px" y="0px" width="600.000px" height="600.000px" viewBox="0 0 600.000 600.000" enable-background="new 0 0 600.000 600.000" xml:space="preserve">
<polygon fill="#fffe74" points="485.764,225.895 33.495,211.988 504.025,182.116  "/>
<polygon fill="#a5ffb5" points="474.908,298.394 52.580,566.782 378.773,48.816  "/>
<polygon fill="#07f500" points="301.612,14.864 487.096,592.336 272.797,383.367  "/>
<polygon fill="#802e1b" points="439.756,39.690 445.626,197.664 362.347,307.984  "/>
<polygon fill="#64dc0a" points="525.296,207.738 120.331,429.915 367.216,569.369  "/>
<polygon fill="#2192b9" points="54.977,582.102 169.816,396.050 394.971,132.870  "/>
<polygon fill="#cb9b7c" points="52.272,241.101 350.611,277.550 563.987,228.155  "/>
<polygon fill="#a7f22f" points="35.572,231.979 207.400,118.658 365.222,433.018  "/>
<polygon fill="#eef7db" points="583.685,557.764 334.504,535.826 140.109,192.615  "/>
<polygon fill="#298329" points="578.301,51.361 324.827,106.024 165.496,440.761  "/>
<polygon fill="#ae6934" points="344.295,492.136 591.297,276.347 396.077,181.077  "/>
<polygon fill="#1af8a8" points="432.794,194.030 525.398,359.211 200.166,181.650  "/>
<polygon fill="#6b03c0" points="502.618,56.184 158.985,29.213 146.115,157.836  "/>
<polygon fill="#fcab7a" points="59.077,104.062 277.438,256.400 285.506,274.251  "/>
<polygon fill="#35cc78" points="592.218,134.066 376.349,421.615 319.106,347.902  "/>
<polygon fill="#560104" points="533.984,192.703 473.096,29.575 415.225,171.248  "/>
<polygon fill="#ffa955" points="291.429,2.713 226.922,88.974 49.422,163.437  "/>
<polygon fill="#4eb815" points="184.373,329.976 511.720,544.854 495.508,300.883  "/>
<polygon fill="#88d5af" points="73.109,465.352 210.018,560.753 552.991,79.986  "/>
<polygon fill="#0a8e93" points="415.060,77.417 371.729,471.355 469.629,83.905  "/>
<polygon fill="#150730" points="497.522,251.708 579.347,110.953 509.098,354.832  "/>
<polygon fill="#e33b9e" points="384.244,250.221 523.752,60.620 220.974,43.720  "/>
<polygon fill="#25c644" points="366.066,242.559 204.189,158.501 110.988,238.476  "/>
<polygon fill="#d46088" points="243.421,172.295 333.589,571.303 27.995,103.223  "/>
<polygon fill="#7c5831" points="43.790,152.397 413.586,505.016 597.253,235.626  "/>
<polygon fill="#5e5402" points="532.920,480.944 585.785,134.418 145.457,117.813  "/>
<polygon fill="#4d2b06" points="498.738,575.585 135.222,448.667 433.369,175.622  "/>
<polygon fill="#be41ce" points="349.319,467.921 592.074,316.927 87.727,442.330  "/>
<polygon fill="#3d19ad" points="546.738,465.212 141.388,409.323 378.728,40.284  "/>
<polygon fill="#8dc198" points="503.418,246.025 52.146,442.907 380.722,411.391  "/>
<polygon fill="#95b87c" points="333.566,448.573 365.017,529.111 90.264,439.147  "/>
<polygon fill="#fa32fc" points="524.762,337.387 0.404,374.684 273.164,205.801  "/>
<polygon fill="#d15d3d" points="126.908,546.248 45.247,290.152 172.559,541.541  "/>
<polygon fill="#95dc65" points="512.870,200.876 30.849,215.607 523.250,259.542  "/>
<polygon fill="#caff14" points="474.352,114.480 260.134,309.957 447.878,4.179  "/>
<polygon fill="#49e94f" points="398.675,224.842 441.295,94.623 222.032,431.814  "/>
<polygon fill="#716bbc" points="6.204,228.464 450.900,388.822 3.582,103.109  "/>
<polygon fill="#3f0b4e" points="232.816,490.045 42.166,233.273 434.683,380.827  "/>
<polygon fill="#9fa1cc" points="477.717,502.289 81.734,134.308 330.280,440.847  "/>
<polygon fill="#ad743a" points="236.741,357.605 71.528,147.230 552.351,87.923  "/>
<polygon fill="#cbd993" points="441.791,356.208 537.519,474.120 325.730,270.252  "/>
<polygon fill="#0c20b3" points="124.669,263.154 589.127,218.176 588.888,582.755  "/>
<polygon fill="#7493f4" points="262.881,32.152 145.014,248.972 119.490,585.962  "/>
<polygon fill="#3a362c" points="175.538,243.508 400.498,552.572 585.458,557.233  "/>
<polygon fill="#7b2668" points="122.139,580.467 282.602,378.141 310.805,165.353  "/>
<polygon fill="#c0863f" points="162.747,177.529 441.004,247.623 153.347,167.251  "/>
<polygon fill="#10e4af" points="371.908,253.858 257.328,247.934 178.318,527.036  "/>
<polygon fill="#d73f75" points="46.315,442.035 50.733,225.676 100.380,129.456  "/>
<polygon fill="#63cfb6" points="353.959,347.145 187.765,38.040 374.661,514.333  "/>
<polygon fill="#64c43c" points="530.203,385.049 503.896,194.802 588.778,269.228  "/>
<polygon fill="#49ed97" points="450.862,152.192 256.579,269.145 301.322,317.052  "/>
<polygon fill="#dfbaca" points="336.321,196.002 479.880,528.970 461.804,439.810  "/>
<polygon fill="#329c78" points="516.091,465.116 268.568,290.558 495.581,283.949  "/>
<polygon fill="#004e9d" points="282.957,229.161 54.750,86.149 59.367,433.924  "/>
<polygon fill="#82796e" points="560.911,563.231 8.563,159.315 176.054,167.778  "/>
<polygon fill="#446842" points="239.601,531.358 415.457,177.416 47.470,495.517  "/>
</svg>