<?xml version="1.0" encoding="utf-8"?>
<!-- Generator: Python script. InTeResTinG -->
<!DOCTYPE svg PUBLIC "-//W3C//DTD SVG 1.1//EN" "http://www.w3.org/Graphics/SVG/1.1/DTD/svg11.dtd">
<svg version="1.1" id="Layer_1" xmlns="http://www.w3.org/2000/svg" xmlns:xlink="http://www.w3.org/1999/xlink" x="0px" y="0px" width="600.000px" height="600.000px" viewBox="0 0 600.000 600.000" enable-background="new 0 0 600.000 600.000" xml:space="preserve">
<polygon fill="#22c4dd" points="309.929,444.226 395.824,61.160 281.704,96.057  "/>
<polygon fill="#aa810e" points="448.872,495.102 179.282,173.937 299.572,394.573  "/>
<polygon fill="#351e4f" points="485.511,140.521 104.196,578.667 241.567,358.355  "/>
<polygon fill="#2b79d8" points="276.275,547.730 241.251,476.676 84.234,173.906  "/>
<polygon fill="#f01df1" points="534.484,528.189 558.335,188.570 390.860,406.339  "/>
<polygon fill="#91f6ce" points="367.484,413.779 32.874,572.570 76.284,233.112  "/>
<polygon fill="#95cb37" points="571.220,109.039 549.682,584.907 409.997,159.096  "/>
<polygon fill="#618e12" points="11.846,473.607 185.588,210.904 586.447,188.731  "/>
<polygon fill="#1182bb" points="476.113,98.209 33.072,443.905 45.540,9.000  "/>
<polygon fill="#0d0fd0" points="312.277,7.361 446.314,64.607 142.721,85.342  "/>
<polygon fill="#bd35c0" points="343.119,399.286 527.732,454.903 451.942,580.599  "/>
<polygon fill="#330688" points="215.882,231.265 21.387,529.409 351.002,229.177  "/>
<polygon fill="#c05daa" points="590.793,552.041 203.084,88.643 297.623,486.229  "/>
<polygon fill="#64f8a8" points="337.715,207.086 581.792,542.245 500.572,519.166  "/>
<polygon fill="#0940e2" points="45.309,386.922 576.923,26.048 68.862,557.941  "/>
<polygon fill="#8e3220" points="499.638,419.305 559.023,559.832 434.128,83.414  "/>
<polygon fill="#899c51" points="192.410,300.596 171.765,213.637 235.388,566.514  "/>
<polygon fill="#d3ceaa" points="596.529,431.824 163.200,489.683 201.050,57.283  "/>
<polygon fill="#c79360" points="393.588,440.369 551.260,509.342 61.043,268.876  "/>
<polygon fill="#92789b" points="453.452,497.040 565.733,246.719 51.449,472.643  "/>
<polygon fill="#5ce831" points="427.682,432.709 343.432,212.628 282.499,302.132  "/>
<polygon fill="#35ade0" points="277.953,542.722 465.075,382.474 595.261,226.756  "/>
<polygon fill="#8da209" points="460.784,176.737 107.662,138.302 275.417,328.849  "/>
<polygon fill="#f23d66" points="63.724,4.988 596.283,542.790 177.715,77.765  "/>
<polygon fill="#b1bc8c" points="386.443,16.634 71.272,477.315 171.176,455.442  "/>
<polygon fill="#e8626b" points="261.308,569.686 301.404,321.686 225.602,538.627  "/>
<polygon fill="#45c560" points="339.889,365.994 283.611,131.531 324.290,97.402  "/>
<polygon fill="#5c0be9" points="211.960,227.114 527.697,282.690 326.643,594.150  "/>
<polygon fill="#6bd577" points="476.735,243.814 153.194,75.303 435.487,19.759  "/>
<polygon fill="#41367b" points="184.459,265.889 147.341,136.298 523.429,111.035  "/>
<polygon fill="#f5ed7e" points="427.749,206.484 184.012,242.014 329.941,440.713  "/>
<polygon fill="#cdf234" points="582.939,248.967 463.214,114.710 31.459,65.798  "/>
<polygon fill="#6908ee" points="266.484,194.768 198.422,301.014 462.327,460.503  "/>
<polygon fill="#d74a1a" points="463.056,160.516 344.512,367.327 317.672,440.687  "/>
<polygon fill="#2c878c" points="348.812,467.402 216.360,162.784 541.240,17.213  "/>
<polygon fill="#274cfe" points="495.644,147.299 318.441,193.391 389.186,594.232  "/>
<polygon fill="#6dcae3" points="128.724,374.519 525.928,331.121 258.143,429.152  "/>
<polygon fill="#ecb0b6" points="136.598,225.935 329.889,75.473 115.772,510.396  "/>
<polygon fill="#481263" points="427.327,144.246 488.019,326.271 486.320,102.284  "/>
<polygon fill="#6e18cc" points="362.347,200.690 67.369,438.981 251.182,383.973  "/>
<polygon fill="#e88148" points="357.600,512.573 1.294,170.605 385.826,570.210  "/>
<polygon fill="#9c6a27" points="199.951,345.843 31.626,572.668 432.647,237.424  "/>
<polygon fill="#2e9dce" points="479.299,219.571 350.116,405.003 312.535,157.286  "/>
<polygon fill="#85e739" points="560.293,103.879 147.430,83.591 488.834,150.933  "/>
<polygon fill="#59e1db" points="328.606,348.229 475.378,306.716 586.479,2.207  "/>
<polygon fill="#754443" points="405.314,197.962 151.611,126.526 146.767,567.639  "/>
<polygon fill="#582ae9" points="246.622,173.041 166.032,22.644 265.620,400.183  "/>
<polygon fill="#37e2cb" points="409.800,222.153 308.835,47.357 317.342,293.115  "/>
<polygon fill="#5c706c" points="486.465,518.036 46.445,581.488 325.407,322.998  "/>
<polygon fill="#b6de88" points="585.474,221.360 574.368,176.042 317.157,5.099  "/>
<polygon fill="#27b3e0" points="44.644,566.632 417.425,261.350 96.413,2.224  "/>
<polygon fill="#ce6a37" points="382.104,143.916 554.019,550.352 341.006,60.302  "/>
<polygon fill="#214ff3" points="264.082,578.905 410.934,300.728 382.818,88.373  "/>
<polygon fill="#2919bc" points="389.119,533.068 156.565,425.349 496.073,81.815  "/>
<polygon fill="#8f6418" points="385.428,73.779 370.193,99.574 84.072,44.666  "/>
<polygon fill="#6a6f47" points="479.589,127.197 503.598,366.084 311.598,168.290  "/>
<polygon fill="#b0023d" points="301.559,125.369 565.753,531.218 56.882,544.437  "/>
<polygon fill="#8fe893" points="268.455,555.732 369.126,385.852 253.086,9.115  "/>
<polygon fill="#166036" points="200.565,432.928 593.634,6.805 250.432,557.112  "/>
<polygon fill="#fb24b3" points="272.534,359.726 270.969,440.279 125.053,442.077  "/>
<polygon fill="#c9e6f2" points="315.618,342.814 535.589,160.858 566.749,152.897  "/>
<polygon fill="#558373" points="255.611,10.112 441.177,9.602 456.282,266.915  "/>
</svg>