<?xml version="1.0" encoding="utf-8"?>
<!-- Generator: Python script. InTeResTinG -->
<!DOCTYPE svg PUBLIC "-//W3C//DTD SVG 1.1//EN" "http://www.w3.org/Graphics/SVG/1.1/DTD/svg11.dtd">
<svg version="1.1" id="Layer_1" xmlns="http://www.w3.org/2000/svg" xmlns:xlink="http://www.w3.org/1999/xlink" x="0px" y="0px" width="600.000px" height="600.000px" viewBox="0 0 600.000 600.000" enable-background="new 0 0 600.000 600.000" xml:space="preserve">
<polygon fill="#9085f9" points="335.416,135.859 316.872,440.670 170.385,270.546  "/>
<polygon fill="#39a5cb" points="449.269,370.538 368.077,393.897 507.742,329.255  "/>
<polygon fill="#aa4caf" points="237.775,297.094 285.484,158.058 107.807,448.558  "/>
<polygon fill="#8dbf78" points="336.726,137.662 179.591,370.485 589.581,389.861  "/>
<polygon fill="#069fee" points="522.088,275.802 186.883,48.460 527.878,257.941  "/>
<polygon fill="#b86aa9" points="7.632,139.115 307.012,64.165 290.381,450.483  "/>
<polygon fill="#f9f326" points="119.065,498.424 22.881,12.509 287.091,258.537  "/>
<polygon fill="#6ebd55" points="131.133,591.335 563.787,560.591 256.987,539.771  "/>
<polygon fill="#bcd21f" points="497.759,28.086 216.416,225.369 379.670,572.279  "/>
<polygon fill="#a44b1f" points="595.319,70.101 412.725,448.585 463.348,416.864  "/>
<polygon fill="#63346d" points="472.534,55.354 449.239,27.114 143.905,135.862  "/>
<polygon fill="#967e61" points="568.500,409.536 140.682,153.459 118.068,196.110  "/>
<polygon fill="#a76d92" points="429.532,421.011 30.873,151.234 482.927,53.628  "/>
<polygon fill="#6f3d8e" points="378.100,492.238 138.530,570.481 491.210,107.888  "/>
<polygon fill="#82e8a3" points="7.945,140.726 316.859,488.758 479.158,268.322  "/>
<polygon fill="#b9a706" points="510.751,176.359 81.698,528.294 62.248,444.187  "/>
<polygon fill="#a19bc1" points="181.108,215.052 28.727,180.887 71.759,396.951  "/>
<polygon fill="#933669" points="94.129,271.650 501.484,26.328 33.768,360.466  "/>
<polygon fill="#97bac7" points="121.988,563.273 21.710,337.749 537.835,38.693  "/>
<polygon fill="#38012f" points="403.779,586.814 351.295,511.568 580.454,171.510  "/>
<polygon fill="#ba7de1" points="538.381,500.994 217.362,3.223 134.111,154.197  "/>
<polygon fill="#fb1ce9" points="115.537,570.754 510.370,123.745 229.611,447.631  "/>
<polygon fill="#8ec921" points="313.130,349.307 341.867,448.888 517.804,60.470  "/>
<polygon fill="#46d359" points="300.532,269.043 367.467,520.308 400.474,367.864  "/>
<polygon fill="#7a494f" points="149.898,369.558 484.467,289.157 119.322,549.894  "/>
<polygon fill="#b79043" points="12.724,233.135 550.124,2.568 156.581,468.964  "/>
<polygon fill="#243fc6" points="19.875,593.804 504.924,342.295 504.038,18.853  "/>
<polygon fill="#59f89e" points="380.288,528.365 86.388,244.821 429.932,576.677  "/>
<polygon fill="#3bde4c" points="360.616,514.978 479.726,1.425 248.134,434.554  "/>
<polygon fill="#55609e" points="496.393,17.028 14.535,263.184 4.422,132.940  "/>
<polygon fill="#b41883" points="119.062,540.735 280.831,523.163 192.422,502.384  "/>
<polygon fill="#88e466" points="92.293,176.434 526.965,273.455 237.965,260.618  "/>
<polygon fill="#9157ba" points="122.670,173.158 367.081,481.065 172.702,413.843  "/>
<polygon fill="#e96710" points="188.260,3.762 400.368,144.173 275.597,550.623  "/>
<polygon fill="#9c4a67" points="513.102,139.763 435.848,403.207 327.961,533.378  "/>
<polygon fill="#41fb25" points="576.691,282.625 10.286,434.050 362.698,176.882  "/>
<polygon fill="#621850" points="467.953,171.016 228.219,124.759 507.447,115.739  "/>
<polygon fill="#a983ba" points="153.159,163.444 68.724,193.345 284.743,11.207  "/>
<polygon fill="#b3b4df" points="108.629,514.287 10.554,2.333 212.167,596.863  "/>
<polygon fill="#ffe18f" points="444.172,592.137 306.053,473.778 269.164,350.236  "/>
<polygon fill="#a363d0" points="150.321,315.378 83.696,586.196 228.049,268.158  "/>
<polygon fill="#6e6be5" points="410.834,71.928 391.144,172.497 105.938,348.339  "/>
<polygon fill="#2d82e3" points="473.365,362.679 96.871,517.905 563.517,204.057  "/>
<polygon fill="#3548d9" points="549.760,245.693 54.377,25.882 555.377,130.913  "/>
<polygon fill="#cd41db" points="481.145,186.154 310.738,435.284 478.316,50.644  "/>
<polygon fill="#be92e2" points="462.358,223.603 37.224,338.293 375.443,285.494  "/>
<polygon fill="#9d4be9" points="293.527,200.783 558.427,182.377 37.192,477.406  "/>
<polygon fill="#9a3d52" points="244.640,197.503 121.890,86.890 451.741,361.449  "/>
<polygon fill="#7fffc1" points="95.229,485.975 77.674,148.280 512.965,259.632  "/>
<polygon fill="#723bdb" points="116.981,117.826 133.273,266.009 365.255,581.938  "/>
<polygon fill="#8380f7" points="514.200,367.187 432.084,222.009 4.383,82.467  "/>
<polygon fill="#1062ab" points="51.299,372.947 328.826,194.969 303.252,140.368  "/>
<polygon fill="#a5521c" points="115.876,506.993 48.997,88.629 49.782,227.536  "/>
<polygon fill="#1a90eb" points="110.738,113.031 445.900,115.549 95.193,329.322  "/>
<polygon fill="#5ba84e" points="429.847,366.274 310.375,208.086 345.915,445.234  "/>
<polygon fill="#9c4d59" points="430.068,154.770 52.201,40.702 287.172,155.344  "/>
<polygon fill="#b6d043" points="559.275,185.181 0.754,93.344 316.324,64.362  "/>
<polygon fill="#589c4e" points="34.549,435.175 170.866,595.445 565.467,384.298  "/>
<polygon fill="#653bbf" points="156.641,172.439 399.949,178.121 200.893,0.949  "/>
<polygon fill="#ff7e07" points="423.683,265.281 440.455,471.891 311.888,282.413  "/>
<polygon fill="#9c06de" points="319.847,568.572 192.503,563.078 435.987,541.860  "/>
<polygon fill="#0fce2c" points="75.869,86.380 394.482,27.890 200.747,117.627  "/>
<polygon fill="#23c7a2" points="541.664,180.600 155.946,294.239 56.875,170.618  "/>
<polygon fill="#bfe7ec" points="351.100,232.059 513.420,220.589 276.425,338.723  "/>
<polygon fill="#31ade9" points="323.133,230.975 47.653,425.815 24.533,503.547  "/>
<polygon fill="#18ce9b" points="131.701,442.584 523.668,161.722 409.375,388.493  "/>
<polygon fill="#469354" points="49.081,139.552 383.030,124.500 201.726,514.666  "/>
<polygon fill="#c7ed4b" points="380.707,113.561 572.828,202.226 267.818,272.905  "/>
<polygon fill="#24a671" points="477.147,486.202 566.878,14.777 464.235,560.153  "/>
<polygon fill="#6db2c1" points="481.249,269.297 538.890,288.868 246.250,406.782  "/>
<polygon fill="#048242" points="400.333,589.155 394.061,42.539 574.343,534.487  "/>
</svg>