<?xml version="1.0" encoding="utf-8"?>
<!-- Generator: Python script. InTeResTinG -->
<!DOCTYPE svg PUBLIC "-//W3C//DTD SVG 1.1//EN" "http://www.w3.org/Graphics/SVG/1.1/DTD/svg11.dtd">
<svg version="1.1" id="Layer_1" xmlns="http://www.w3.org/2000/svg" xmlns:xlink="http://www.w3.org/1999/xlink" x="0px" y="0px" width="600.000px" height="600.000px" viewBox="0 0 600.000 600.000" enable-background="new 0 0 600.000 600.000" xml:space="preserve">
<polygon fill="#7dda46" points="516.345,112.508 263.758,100.883 175.104,301.238  "/>
<polygon fill="#2d37f7" points="184.497,18.338 166.358,501.002 173.225,526.279  "/>
<polygon fill="#067734" points="146.044,105.663 482.051,539.878 321.500,86.338  "/>
<polygon fill="#4e67ea" points="530.110,521.577 43.391,124.526 118.662,419.429  "/>
<polygon fill="#e74c40" points="2.312,155.856 19.171,197.667 27.740,397.836  "/>
<polygon fill="#8d03df" points="14.229,368.038 485.939,410.002 577.532,504.310  "/>
<polygon fill="#3c5e30" points="556.469,266.187 5.253,537.940 60.868,449.048  "/>
<polygon fill="#82925f" points="100.036,580.237 589.633,370.599 34.607,30.638  "/>
<polygon fill="#53c1ab" points="80.866,162.830 46.385,162.544 292.556,490.874  "/>
<polygon fill="#c654e1" points="205.209,571.938 343.814,585.227 504.043,145.092  "/>
<polygon fill="#b68fb8" points="145.085,190.031 238.181,214.360 589.218,18.520  "/>
<polygon fill="#0a350b" points="370.273,519.227 27.248,21.550 448.388,181.446  "/>
<polygon fill="#a894ca" points="74.841,466.575 220.763,121.112 326.262,61.694  "/>
<polygon fill="#97c5cc" points="422.998,186.633 416.630,125.759 86.476,287.030  "/>
<polygon fill="#8e0ed1" points="496.152,308.991 428.995,508.396 432.765,418.331  "/>
<polygon fill="#30a019" points="381.077,317.530 307.288,57.201 247.297,102.022  "/>
<polygon fill="#979d48" points="156.716,49.783 418.627,507.060 322.773,147.682  "/>
<polygon fill="#70acf3" points="70.371,109.847 352.174,20.597 526.939,280.063  "/>
<polygon fill="#8a5bec" points="111.346,124.249 118.914,456.919 9.462,275.132  "/>
<polygon fill="#9ef050" points="86.207,372.767 407.909,246.047 514.554,378.787  "/>
<polygon fill="#dca6a0" points="479.590,490.622 597.563,141.986 183.953,412.838  "/>
<polygon fill="#2313d9" points="205.976,76.450 304.308,440.166 460.027,359.623  "/>
<polygon fill="#455de4" points="247.312,141.976 100.642,361.133 362.216,594.071  "/>
<polygon fill="#f288af" points="500.770,504.300 222.200,17.740 240.108,19.259  "/>
<polygon fill="#07ea41" points="295.960,544.239 598.060,301.858 194.843,21.089  "/>
<polygon fill="#08cdd8" points="538.416,367.989 60.062,531.249 257.070,317.790  "/>
<polygon fill="#d1bae4" points="203.791,9.304 540.182,464.359 198.388,467.313  "/>
<polygon fill="#3dd15e" points="86.006,286.778 186.947,366.189 449.157,148.674  "/>
<polygon fill="#36f0c1" points="49.705,122.550 550.073,184.078 556.137,338.796  "/>
<polygon fill="#919ec8" points="346.509,73.115 324.819,552.843 599.579,99.087  "/>
<polygon fill="#3a414c" points="41.323,4.245 71.592,70.041 237.481,214.510  "/>
<polygon fill="#0dbf77" points="229.470,461.023 123.985,114.107 440.756,205.172  "/>
<polygon fill="#0b4bcb" points="65.400,565.211 132.482,161.301 411.859,44.379  "/>
<polygon fill="#4631b7" points="336.043,67.281 523.606,143.831 287.459,297.780  "/>
<polygon fill="#f453da" points="54.316,428.637 8.625,302.045 458.982,280.332  "/>
<polygon fill="#ad61e3" points="396.735,25.142 155.860,0.467 551.110,494.087  "/>
<polygon fill="#9d6009" points="441.970,57.863 584.703,45.456 283.700,457.601  "/>
<polygon fill="#cbf2d1" points="130.388,181.724 404.936,433.893 589.647,171.081  "/>
<polygon fill="#b680e9" points="218.965,158.139 282.347,210.213 172.703,295.514  "/>
<polygon fill="#2e65c4" points="178.068,257.449 311.604,373.705 378.882,5.352  "/>
<polygon fill="#b78201" points="443.242,181.731 120.917,273.796 169.824,10.053  "/>
<polygon fill="#8c3e62" points="268.948,98.712 510.437,352.780 358.197,400.436  "/>
<polygon fill="#1d5b92" points="351.399,88.826 431.914,348.020 104.098,401.517  "/>
<polygon fill="#af9274" points="426.363,98.752 178.426,373.448 16.397,568.240  "/>
<polygon fill="#2b62c9" points="155.462,438.295 340.015,539.592 180.094,446.424  "/>
<polygon fill="#740d5c" points="262.884,534.967 326.491,408.589 459.962,496.430  "/>
<polygon fill="#a374d1" points="226.320,50.928 578.829,242.864 434.992,448.318  "/>
<polygon fill="#8e4015" points="3.105,247.946 208.811,205.401 509.771,333.933  "/>
<polygon fill="#225826" points="545.496,61.458 370.101,122.284 210.219,198.984  "/>
<polygon fill="#fb6bb8" points="547.744,5.728 244.485,363.554 139.182,267.573  "/>
<polygon fill="#a5ccc6" points="463.008,497.026 111.936,116.433 379.699,305.989  "/>
<polygon fill="#81400c" points="506.351,457.045 555.970,203.270 485.501,190.126  "/>
<polygon fill="#f2c47b" points="314.940,305.454 207.491,490.536 249.751,413.077  "/>
<polygon fill="#405427" points="160.370,187.424 341.113,108.382 332.788,147.252  "/>
<polygon fill="#18cafe" points="35.556,77.371 253.448,401.592 334.149,295.185  "/>
<polygon fill="#f7dcd7" points="485.789,545.929 348.494,352.028 245.777,463.199  "/>
<polygon fill="#522e32" points="186.482,249.986 208.875,177.148 271.304,423.778  "/>
<polygon fill="#4b9abc" points="38.631,85.984 502.628,424.515 8.577,576.705  "/>
<polygon fill="#170cfe" points="354.015,469.188 40.163,502.896 77.542,409.169  "/>
<polygon fill="#510dba" points="529.858,89.418 390.444,532.539 327.428,7.321  "/>
<polygon fill="#41040a" points="97.543,518.119 26.328,170.643 324.207,19.103  "/>
<polygon fill="#0fbcfe" points="112.531,134.139 81.005,162.214 92.685,14.069  "/>
<polygon fill="#f4cf02" points="464.121,573.950 540.423,435.042 387.917,377.891  "/>
<polygon fill="#114fa5" points="479.490,544.726 256.360,401.947 85.579,353.011  "/>
<polygon fill="#a43f88" points="543.491,299.315 73.779,112.768 441.173,489.752  "/>
<polygon fill="#f9347c" points="279.638,34.216 37.742,370.330 570.348,145.928  "/>
<polygon fill="#109666" points="428.226,494.034 150.333,419.251 17.675,597.840  "/>
<polygon fill="#891e1c" points="490.644,589.643 128.312,361.817 525.003,479.021  "/>
<polygon fill="#2a5c07" points="535.749,170.337 170.038,269.921 404.627,36.832  "/>
<polygon fill="#2d377f" points="403.743,6.573 321.202,155.846 593.799,466.009  "/>
</svg>