<?xml version="1.0" encoding="utf-8"?>
<!-- Generator: Python script. InTeResTinG -->
<!DOCTYPE svg PUBLIC "-//W3C//DTD SVG 1.1//EN" "http://www.w3.org/Graphics/SVG/1.1/DTD/svg11.dtd">
<svg version="1.1" id="Layer_1" xmlns="http://www.w3.org/2000/svg" xmlns:xlink="http://www.w3.org/1999/xlink" x="0px" y="0px" width="600.000px" height="600.000px" viewBox="0 0 600.000 600.000" enable-background="new 0 0 600.000 600.000" xml:space="preserve">
<polygon fill="#b31e7f" points="175.858,582.547 550.153,550.460 478.626,84.922  "/>
<polygon fill="#0bf5bf" points="375.180,201.550 599.731,446.746 498.528,115.571  "/>
<polygon fill="#79d79f" points="313.560,476.029 543.221,324.719 117.731,164.282  "/>
<polygon fill="#e3d4a1" points="315.100,215.762 55.323,286.965 151.880,332.137  "/>
<polygon fill="#e52acb" points="256.020,133.520 588.769,529.549 308.725,375.801  "/>
<polygon fill="#e17d8e" points="528.122,587.676 2.767,181.808 343.046,313.725  "/>
<polygon fill="#2d431c" points="589.164,205.853 336.830,327.038 401.462,418.402  "/>
<polygon fill="#0b1eb6" points="259.435,8.021 385.581,420.921 310.359,448.841  "/>
<polygon fill="#cc3bc0" points="79.237,382.025 544.886,337.761 233.051,50.598  "/>
<polygon fill="#5184cc" points="128.327,316.491 293.252,459.495 451.264,480.693  "/>
<polygon fill="#b16f3c" points="587.674,493.519 596.085,505.060 193.274,272.796  "/>
<polygon fill="#7585d9" points="75.695,547.627 455.866,39.615 64.579,573.853  "/>
<polygon fill="#a27a77" points="141.402,16.014 548.321,467.599 426.912,387.207  "/>
<polygon fill="#ee65cf" points="338.032,43.540 334.156,154.080 16.493,64.819  "/>
<polygon fill="#6cdf9e" points="2.772,252.731 401.168,580.686 560.465,17.998  "/>
<polygon fill="#3b4a45" points="283.908,174.018 318.462,330.079 293.276,276.174  "/>
<polygon fill="#c26fe2" points="440.775,529.674 296.734,259.808 332.548,6.489  "/>
<polygon fill="#8165dc" points="320.342,432.104 459.387,536.044 356.730,211.026  "/>
<polygon fill="#0c043c" points="2.225,487.122 467.724,527.564 122.250,149.621  "/>
<polygon fill="#865218" points="160.785,92.582 244.649,115.455 527.282,515.563  "/>
<polygon fill="#e639a1" points="28.951,310.426 299.840,435.857 523.158,368.299  "/>
<polygon fill="#e7657b" points="251.847,300.060 527.020,492.988 553.212,145.118  "/>
<polygon fill="#206b5d" points="166.246,325.298 65.054,203.922 126.929,198.917  "/>
<polygon fill="#666146" points="287.061,473.524 541.202,270.310 578.000,159.145  "/>
<polygon fill="#2fcbc4" points="235.075,428.672 390.467,561.909 509.465,220.861  "/>
<polygon fill="#721e0e" points="388.066,360.730 253.531,251.745 15.948,93.351  "/>
<polygon fill="#219150" points="288.091,256.667 186.599,405.753 222.071,502.228  "/>
<polygon fill="#11156a" points="573.929,131.055 324.929,522.065 352.741,292.547  "/>
<polygon fill="#99164f" points="96.835,228.378 414.520,505.425 512.288,438.930  "/>
<polygon fill="#ea155e" points="465.109,359.465 247.309,177.945 507.767,552.441  "/>
<polygon fill="#cb5cf3" points="203.873,484.937 413.513,293.923 570.638,444.295  "/>
<polygon fill="#59deee" points="175.467,11.112 47.504,599.973 80.767,273.572  "/>
<polygon fill="#5717cb" points="486.694,359.232 576.963,152.852 326.575,210.295  "/>
<polygon fill="#8e99de" points="268.395,41.939 492.450,11.571 131.630,463.861  "/>
<polygon fill="#27e1b6" points="108.093,359.408 572.815,310.820 463.640,157.927  "/>
<polygon fill="#85f2bb" points="501.382,302.940 444.823,252.938 310.985,449.681  "/>
<polygon fill="#ccefd7" points="473.144,585.228 424.394,88.044 396.514,324.465  "/>
<polygon fill="#8ac7d4" points="96.587,437.572 390.574,340.582 428.298,231.175  "/>
<polygon fill="#aa49bb" points="569.189,68.538 98.425,449.956 531.752,4.840  "/>
<polygon fill="#7b8075" points="239.716,166.769 569.303,570.281 192.199,178.289  "/>
<polygon fill="#6510c2" points="255.110,584.931 234.007,193.546 430.532,29.102  "/>
<polygon fill="#83e20b" points="440.534,195.644 268.949,451.332 305.681,296.788  "/>
<polygon fill="#1bc785" points="15.838,305.507 61.089,396.352 177.759,488.253  "/>
<polygon fill="#bd79b9" points="57.844,417.071 238.909,15.225 109.508,594.209  "/>
<polygon fill="#a42347" points="522.162,33.145 569.231,590.209 448.198,34.794  "/>
<polygon fill="#4d9d4a" points="527.162,157.061 337.415,295.130 308.204,134.908  "/>
<polygon fill="#8810f8" points="564.513,553.108 160.731,422.354 303.732,178.163  "/>
<polygon fill="#e154da" points="34.269,336.867 469.913,406.319 81.461,363.143  "/>
<polygon fill="#21b6e0" points="65.969,213.006 579.572,542.081 297.749,101.193  "/>
<polygon fill="#088bd5" points="321.497,339.854 74.230,208.257 491.895,16.335  "/>
<polygon fill="#8877e4" points="320.938,194.592 146.270,130.325 149.786,332.165  "/>
<polygon fill="#7bf767" points="135.007,53.346 535.279,172.133 574.397,560.098  "/>
<polygon fill="#3e1f08" points="315.422,458.446 445.708,52.774 276.701,511.611  "/>
<polygon fill="#8d9d5d" points="309.309,196.527 37.307,165.838 186.831,101.098  "/>
<polygon fill="#9633c5" points="424.956,322.288 275.420,542.279 123.261,311.659  "/>
</svg>