<?xml version="1.0" encoding="utf-8"?>
<!-- Generator: Python script. InTeResTinG -->
<!DOCTYPE svg PUBLIC "-//W3C//DTD SVG 1.1//EN" "http://www.w3.org/Graphics/SVG/1.1/DTD/svg11.dtd">
<svg version="1.1" id="Layer_1" xmlns="http://www.w3.org/2000/svg" xmlns:xlink="http://www.w3.org/1999/xlink" x="0px" y="0px" width="600.000px" height="600.000px" viewBox="0 0 600.000 600.000" enable-background="new 0 0 600.000 600.000" xml:space="preserve">
<polygon fill="#89ef56" points="525.327,501.561 14.816,538.562 161.618,557.034  "/>
<polygon fill="#81adea" points="489.548,35.377 521.763,371.887 84.113,577.917  "/>
<polygon fill="#24be4f" points="86.903,486.450 144.058,239.086 167.761,163.252  "/>
<polygon fill="#b618d3" points="508.332,34.281 103.525,463.227 86.778,549.011  "/>
<polygon fill="#cdd8d3" points="82.550,491.735 504.676,455.768 108.497,62.066  "/>
<polygon fill="#f3634b" points="276.602,74.976 458.106,256.686 184.815,439.065  "/>
<polygon fill="#1daa44" points="265.063,508.923 415.721,262.802 245.066,567.136  "/>
<polygon fill="#3a1d76" points="32.347,17.500 296.378,212.358 425.547,510.815  "/>
<polygon fill="#8c9604" points="221.550,27.692 26.409,392.756 127.407,280.694  "/>
<polygon fill="#0db7f8" points="20.573,575.211 325.442,234.505 264.086,44.274  "/>
<polygon fill="#f72ad7" points="35.458,138.932 7.899,216.591 104.064,559.951  "/>
<polygon fill="#f084c2" points="156.529,24.152 45.370,88.718 197.046,132.759  "/>
<polygon fill="#89fa8a" points="556.219,426.959 73.955,53.415 437.154,508.513  "/>
<polygon fill="#1f51da" points="229.983,186.913 60.355,144.571 153.809,400.207  "/>
<polygon fill="#2145ad" points="401.756,481.307 178.637,331.334 471.732,239.976  "/>
<polygon fill="#914040" points="348.182,489.597 131.898,594.771 20.679,183.255  "/>
<polygon fill="#e98ceb" points="217.771,260.026 124.397,47.261 378.750,403.417  "/>
<polygon fill="#e3b305" points="315.270,404.546 79.671,399.377 52.812,151.597  "/>
<polygon fill="#f3b5c9" points="171.404,13.402 57.044,535.964 595.840,300.986  "/>
<polygon fill="#074e98" points="292.062,289.804 136.196,144.752 155.599,329.523  "/>
<polygon fill="#429fb9" points="159.140,581.972 44.185,376.425 374.456,305.607  "/>
<polygon fill="#5e1b9b" points="236.378,358.585 104.675,113.325 136.542,221.089  "/>
<polygon fill="#887a61" points="509.750,391.495 1.685,381.191 16.609,585.620  "/>
<polygon fill="#c6ac71" points="345.866,453.364 131.546,573.552 185.722,360.621  "/>
<polygon fill="#e71d7d" points="147.714,335.122 350.490,153.660 220.424,389.368  "/>
<polygon fill="#111a9d" points="63.297,84.092 265.406,118.602 323.963,138.536  "/>
<polygon fill="#347882" points="342.312,509.965 476.646,322.799 381.058,551.144  "/>
<polygon fill="#10337f" points="385.119,584.967 517.001,540.727 149.145,512.144  "/>
<polygon fill="#b727cd" points="536.927,468.943 98.705,22.362 399.818,180.133  "/>
<polygon fill="#8bd1d9" points="529.420,18.051 192.798,68.322 53.455,185.792  "/>
<polygon fill="#ece888" points="218.205,48.704 183.601,387.101 183.781,421.345  "/>
<polygon fill="#125723" points="395.968,141.844 353.607,400.840 540.005,320.480  "/>
<polygon fill="#4d13d0" points="454.747,80.969 308.785,447.101 293.812,352.697  "/>
<polygon fill="#e62dbe" points="222.659,472.649 563.288,376.849 64.589,392.768  "/>
<polygon fill="#1fb930" points="37.802,314.367 319.642,256.640 478.041,236.076  "/>
<polygon fill="#24291d" points="496.350,518.816 173.025,45.168 199.052,49.569  "/>
<polygon fill="#b4d0ec" points="6.315,219.099 311.795,325.756 427.595,35.553  "/>
<polygon fill="#3e2554" points="376.358,580.268 597.172,284.037 197.606,429.255  "/>
<polygon fill="#75568c" points="261.432,213.554 327.895,401.533 545.590,101.676  "/>
<polygon fill="#0c8c7b" points="474.864,462.972 285.045,82.478 362.519,12.586  "/>
<polygon fill="#7a3fa8" points="86.549,468.757 4.553,160.011 203.905,398.870  "/>
<polygon fill="#6b9c04" points="445.313,257.734 226.390,275.602 481.899,216.071  "/>
<polygon fill="#34c7b6" points="393.332,68.660 425.857,118.406 482.718,47.304  "/>
<polygon fill="#fc27dd" points="156.099,300.500 351.725,336.572 124.552,314.600  "/>
<polygon fill="#497a46" points="105.528,299.920 1.911,119.035 567.316,90.221  "/>
<polygon fill="#3fcb2f" points="248.556,227.073 390.733,91.570 449.827,184.844  "/>
<polygon fill="#04e0f1" points="460.356,503.031 67.962,332.334 337.357,171.469  "/>
<polygon fill="#210cc4" points="237.466,433.929 205.580,390.856 575.349,561.570  "/>
<polygon fill="#431d99" points="541.806,143.514 389.508,260.681 176.183,295.086  "/>
<polygon fill="#013b3a" points="88.666,304.213 207.631,569.614 376.740,10.099  "/>
<polygon fill="#d15c16" points="30.117,356.221 224.679,296.960 67.042,334.067  "/>
<polygon fill="#e25d5e" points="125.793,85.361 538.777,380.621 195.159,172.838  "/>
<polygon fill="#6b6f4a" points="549.918,129.655 543.400,578.782 130.135,82.075  "/>
<polygon fill="#e5df49" points="359.039,557.385 441.016,133.363 25.059,461.933  "/>
<polygon fill="#48ccaa" points="490.637,260.542 117.006,244.642 328.302,147.426  "/>
<polygon fill="#65ab1b" points="310.860,548.462 283.867,507.601 381.876,157.400  "/>
<polygon fill="#1eb77d" points="193.617,157.742 318.010,316.586 324.839,445.763  "/>
<polygon fill="#b328ad" points="345.758,160.555 340.422,401.933 424.407,68.029  "/>
<polygon fill="#23e280" points="538.123,376.551 362.892,279.141 73.421,460.698  "/>
<polygon fill="#54ea4e" points="358.402,522.158 71.850,504.021 213.549,216.639  "/>
<polygon fill="#62d2ea" points="243.623,566.660 320.455,26.332 591.539,167.518  "/>
<polygon fill="#b7b7cc" points="217.068,346.237 599.594,136.016 496.848,433.671  "/>
<polygon fill="#349cc9" points="589.918,461.018 515.042,454.032 372.870,339.836  "/>
<polygon fill="#3daac6" points="346.004,479.800 379.428,363.004 204.846,72.298  "/>
<polygon fill="#492fff" points="255.378,306.017 586.393,220.650 63.708,546.327  "/>
<polygon fill="#c7c206" points="98.745,505.765 528.366,519.503 95.031,27.959  "/>
</svg>