<?xml version="1.0" encoding="utf-8"?>
<!-- Generator: Python script. InTeResTinG -->
<!DOCTYPE svg PUBLIC "-//W3C//DTD SVG 1.1//EN" "http://www.w3.org/Graphics/SVG/1.1/DTD/svg11.dtd">
<svg version="1.1" id="Layer_1" xmlns="http://www.w3.org/2000/svg" xmlns:xlink="http://www.w3.org/1999/xlink" x="0px" y="0px" width="600.000px" height="600.000px" viewBox="0 0 600.000 600.000" enable-background="new 0 0 600.000 600.000" xml:space="preserve">
<polygon fill="#4acef5" points="322.602,598.162 359.331,231.520 61.388,577.494  "/>
<polygon fill="#997f7b" points="104.604,473.880 112.325,393.003 277.560,176.001  "/>
<polygon fill="#c8abec" points="310.903,579.368 123.953,491.007 442.050,381.023  "/>
<polygon fill="#0a7969" points="253.528,7.523 65.728,58.615 10.663,468.745  "/>
<polygon fill="#8dacf1" points="128.553,156.107 571.243,521.214 450.622,117.143  "/>
<polygon fill="#690a7d" points="84.418,168.506 62.630,314.803 231.001,528.745  "/>
<polygon fill="#e0b9eb" points="449.693,205.257 577.585,45.291 50.493,35.376  "/>
<polygon fill="#abbb6c" points="550.463,282.335 531.623,416.113 545.299,367.747  "/>
<polygon fill="#82efa8" points="549.672,114.822 521.460,575.604 155.496,582.784  "/>
<polygon fill="#fc2d23" points="285.833,46.752 339.659,113.620 575.152,138.143  "/>
<polygon fill="#e19f83" points="401.915,261.672 84.754,229.190 433.122,48.363  "/>
<polygon fill="#239ea2" points="486.941,543.633 158.215,335.839 566.054,217.770  "/>
<polygon fill="#1e86f7" points="222.340,114.912 535.942,182.470 14.158,184.529  "/>
<polygon fill="#9406ba" points="440.521,13.157 448.107,73.523 44.044,275.825  "/>
<polygon fill="#154ddc" points="474.595,270.936 587.148,151.754 352.522,462.571  "/>
<polygon fill="#a20b2d" points="271.664,334.375 381.101,465.548 264.282,70.900  "/>
<polygon fill="#aa0e5e" points="515.858,118.131 87.934,211.419 512.778,280.233  "/>
<polygon fill="#7c2b18" points="533.888,409.153 381.005,6.933 84.798,310.060  "/>
<polygon fill="#23daa0" points="556.037,31.289 185.427,323.243 523.751,547.542  "/>
<polygon fill="#29b970" points="283.155,233.834 456.781,134.111 264.638,323.135  "/>
<polygon fill="#1fd516" points="115.781,560.530 260.670,16.610 393.531,403.249  "/>
<polygon fill="#d07c7e" points="411.577,17.842 526.366,593.920 375.985,220.959  "/>
<polygon fill="#871487" points="13.235,204.769 298.619,237.394 456.208,382.773  "/>
<polygon fill="#ec50ba" points="350.609,412.573 80.520,310.039 138.615,322.444  "/>
<polygon fill="#286f65" points="95.138,206.011 325.889,558.991 110.499,284.478  "/>
<polygon fill="#8836f6" points="435.485,423.837 541.408,280.638 509.633,497.933  "/>
<polygon fill="#31fb54" points="72.570,62.001 580.342,556.258 216.473,251.325  "/>
<polygon fill="#9d7fa8" points="128.272,479.238 291.829,216.033 554.633,458.846  "/>
<polygon fill="#57ec37" points="338.968,570.805 263.743,428.585 215.908,229.116  "/>
<polygon fill="#661fb0" points="204.401,251.262 244.383,209.702 163.356,147.775  "/>
<polygon fill="#6a43d7" points="313.589,76.553 424.312,365.039 200.347,394.610  "/>
<polygon fill="#c460ea" points="555.690,91.613 74.973,375.731 287.815,422.197  "/>
<polygon fill="#c8b9e1" points="34.726,81.324 21.424,516.287 98.857,549.210  "/>
<polygon fill="#f13d6d" points="114.388,392.802 226.928,559.932 194.653,47.823  "/>
<polygon fill="#9087bf" points="351.565,287.288 114.016,117.761 26.679,241.449  "/>
<polygon fill="#3330e0" points="284.270,245.421 408.963,330.613 523.987,323.502  "/>
<polygon fill="#9f68ae" points="419.267,74.590 485.187,28.451 163.490,4.155  "/>
<polygon fill="#4cff33" points="535.574,329.902 157.663,384.190 263.419,74.471  "/>
<polygon fill="#3ac6e7" points="91.027,7.920 373.140,288.635 397.172,326.711  "/>
<polygon fill="#181e4a" points="448.411,142.410 312.648,240.890 176.485,148.791  "/>
<polygon fill="#c265b6" points="201.680,264.351 127.349,309.881 454.322,463.208  "/>
<polygon fill="#4b6b4a" points="397.803,249.519 335.274,479.279 15.619,557.980  "/>
<polygon fill="#4e085b" points="533.181,533.098 174.943,455.666 129.602,139.164  "/>
<polygon fill="#a94bca" points="8.861,194.255 333.858,490.322 345.255,183.095  "/>
<polygon fill="#25fc3b" points="186.690,394.710 431.172,571.343 168.941,255.979  "/>
<polygon fill="#09a791" points="405.675,521.526 351.682,104.903 433.665,514.592  "/>
<polygon fill="#b94711" points="247.489,5.970 488.921,538.975 157.298,224.595  "/>
<polygon fill="#7becac" points="134.787,225.683 153.929,591.442 57.093,542.862  "/>
<polygon fill="#bdbb2f" points="324.534,289.152 16.156,253.910 366.705,463.076  "/>
<polygon fill="#418138" points="156.971,569.945 220.183,303.486 542.253,205.552  "/>
<polygon fill="#2bf420" points="560.863,530.221 133.796,60.972 212.477,474.370  "/>
</svg>