<?xml version="1.0" encoding="utf-8"?>
<!-- Generator: Python script. InTeResTinG -->
<!DOCTYPE svg PUBLIC "-//W3C//DTD SVG 1.1//EN" "http://www.w3.org/Graphics/SVG/1.1/DTD/svg11.dtd">
<svg version="1.1" id="Layer_1" xmlns="http://www.w3.org/2000/svg" xmlns:xlink="http://www.w3.org/1999/xlink" x="0px" y="0px" width="600.000px" height="600.000px" viewBox="0 0 600.000 600.000" enable-background="new 0 0 600.000 600.000" xml:space="preserve">
<polygon fill="#7ee233" points="307.953,489.943 65.871,376.076 221.176,556.886  "/>
<polygon fill="#f5274d" points="372.458,78.668 197.307,470.067 332.037,375.798  "/>
<polygon fill="#004f11" points="332.621,488.478 230.993,217.099 566.399,525.775  "/>
<polygon fill="#86d439" points="150.907,23.817 376.608,212.835 86.078,206.344  "/>
<polygon fill="#0160d7" points="119.504,422.732 229.752,267.150 334.040,491.925  "/>
<polygon fill="#f7121c" points="308.397,313.552 345.923,105.537 168.657,435.739  "/>
<polygon fill="#1ea8d0" points="560.746,215.615 157.651,365.825 540.492,374.781  "/>
<polygon fill="#1075f2" points="78.028,293.878 166.138,245.964 476.513,296.874  "/>
<polygon fill="#6d7a60" points="92.123,486.643 72.953,0.658 360.157,128.480  "/>
<polygon fill="#c6a657" points="580.673,371.686 599.301,324.726 338.210,356.999  "/>
<polygon fill="#f43d09" points="110.212,166.420 96.488,37.950 76.343,344.159  "/>
<polygon fill="#bc0734" points="330.735,34.615 78.334,356.423 563.804,541.611  "/>
<polygon fill="#82b421" points="585.900,484.997 440.810,386.017 242.205,425.605  "/>
<polygon fill="#9660f7" points="508.936,447.795 118.104,403.771 12.841,230.798  "/>
<polygon fill="#6a8d29" points="533.642,431.137 197.214,356.933 459.590,509.618  "/>
<polygon fill="#e82efd" points="137.467,241.683 158.392,523.409 30.556,352.132  "/>
<polygon fill="#de1c60" points="559.768,564.196 594.999,387.704 446.957,397.208  "/>
<polygon fill="#faf6ef" points="522.182,131.272 19.657,219.513 525.383,74.983  "/>
<polygon fill="#26ca50" points="362.002,438.796 479.711,259.961 424.673,138.863  "/>
<polygon fill="#1a9631" points="361.246,478.564 439.556,282.412 549.601,320.678  "/>
<polygon fill="#ad8711" points="109.204,12.781 349.405,474.891 579.853,318.834  "/>
<polygon fill="#67c93f" points="560.301,214.617 408.610,404.751 524.446,201.964  "/>
<polygon fill="#0af47b" points="62.952,489.944 147.931,423.815 131.718,84.822  "/>
<polygon fill="#b62eff" points="196.144,514.501 38.340,397.961 179.117,363.062  "/>
<polygon fill="#42fa91" points="468.170,311.677 203.109,409.537 228.041,397.437  "/>
<polygon fill="#e5b813" points="376.852,71.251 122.923,440.203 239.001,324.766  "/>
<polygon fill="#2600c8" points="213.816,411.169 504.790,344.244 421.985,317.886  "/>
<polygon fill="#497033" points="54.750,230.530 23.297,78.255 147.523,262.411  "/>
<polygon fill="#bbbdde" points="334.528,415.059 246.255,574.577 464.155,33.670  "/>
<polygon fill="#159999" points="113.396,484.437 588.068,466.403 85.292,513.622  "/>
<polygon fill="#afe23c" points="87.633,382.472 482.556,89.395 496.729,532.063  "/>
<polygon fill="#b83132" points="315.280,503.924 263.481,101.572 571.727,111.366  "/>
<polygon fill="#51039f" points="416.675,551.050 593.081,389.634 335.434,286.533  "/>
<polygon fill="#302b4d" points="530.243,502.580 473.990,260.514 140.736,120.073  "/>
<polygon fill="#be1199" points="245.529,442.148 205.352,171.569 407.551,239.094  "/>
<polygon fill="#a16ae6" points="5.547,123.731 576.740,401.730 582.421,479.562  "/>
<polygon fill="#8e18f9" points="592.825,512.511 17.021,67.512 274.060,234.194  "/>
<polygon fill="#46c130" points="162.293,17.480 416.389,397.235 406.119,34.573  "/>
<polygon fill="#4bc17c" points="50.389,219.671 365.253,261.130 494.261,444.789  "/>
<polygon fill="#b21bc2" points="452.996,349.309 418.948,418.970 191.498,299.977  "/>
<polygon fill="#d4257c" points="488.695,462.185 525.001,579.371 159.788,383.252  "/>
<polygon fill="#922b71" points="593.494,229.796 140.536,102.637 535.945,194.924  "/>
<polygon fill="#7c1522" points="494.192,198.534 211.020,327.910 523.882,175.679  "/>
<polygon fill="#12375b" points="412.165,381.191 577.761,80.218 400.913,113.549  "/>
<polygon fill="#1206f8" points="450.321,388.479 402.284,145.760 385.339,540.443  "/>
<polygon fill="#2579f6" points="94.544,392.014 303.009,294.079 278.012,444.139  "/>
<polygon fill="#fbb84e" points="319.586,389.445 190.264,486.250 424.611,554.825  "/>
<polygon fill="#8d3f2c" points="41.754,64.522 242.634,21.068 307.235,70.909  "/>
<polygon fill="#d9be0b" points="582.006,64.697 538.476,575.761 535.635,131.267  "/>
<polygon fill="#58c3cf" points="280.834,575.361 494.200,246.653 196.347,391.057  "/>
<polygon fill="#eac120" points="562.357,594.588 141.946,71.118 589.543,200.778  "/>
<polygon fill="#943e44" points="120.088,539.352 337.296,354.440 278.672,82.633  "/>
<polygon fill="#90a9c1" points="379.309,104.105 537.722,293.537 200.945,337.008  "/>
</svg>