<?xml version="1.0" encoding="utf-8"?>
<!-- Generator: Python script. InTeResTinG -->
<!DOCTYPE svg PUBLIC "-//W3C//DTD SVG 1.1//EN" "http://www.w3.org/Graphics/SVG/1.1/DTD/svg11.dtd">
<svg version="1.1" id="Layer_1" xmlns="http://www.w3.org/2000/svg" xmlns:xlink="http://www.w3.org/1999/xlink" x="0px" y="0px" width="600.000px" height="600.000px" viewBox="0 0 600.000 600.000" enable-background="new 0 0 600.000 600.000" xml:space="preserve">
<polygon fill="#cd975d" points="502.783,218.373 485.926,247.546 360.578,162.483  "/>
<polygon fill="#e692e7" points="31.524,375.442 101.817,228.918 116.019,468.727  "/>
<polygon fill="#212dd0" points="470.932,392.093 402.402,316.654 339.634,65.762  "/>
<polygon fill="#fb910d" points="100.376,584.351 248.980,108.347 464.734,536.427  "/>
<polygon fill="#1458ed" points="567.004,305.110 179.882,520.770 301.955,207.742  "/>
<polygon fill="#13489b" points="60.984,375.336 580.925,65.220 4.121,579.498  "/>
<polygon fill="#9f8d40" points="58.433,377.497 539.177,23.645 549.494,458.191  "/>
<polygon fill="#d41e5d" points="327.551,96.442 248.495,339.177 394.969,403.215  "/>
<polygon fill="#cb338f" points="560.673,153.292 492.618,451.084 15.267,78.860  "/>
<polygon fill="#a8bcb5" points="249.508,478.692 142.805,290.191 79.864,2.941  "/>
<polygon fill="#35d0a4" points="393.220,50.368 239.794,527.299 580.123,270.068  "/>
<polygon fill="#52004d" points="333.349,549.623 596.532,25.343 334.666,489.542  "/>
<polygon fill="#e1fc7b" points="395.845,325.879 286.725,124.158 303.977,498.631  "/>
<polygon fill="#3dc86e" points="88.001,281.456 446.257,171.651 473.978,323.960  "/>
<polygon fill="#5df3cf" points="243.911,168.846 493.823,403.833 376.123,226.162  "/>
<polygon fill="#945ac1" points="376.408,403.289 573.801,480.054 416.877,257.911  "/>
<polygon fill="#d7b34e" points="340.621,579.883 379.553,382.017 202.568,307.098  "/>
<polygon fill="#abf2c7" points="6.539,24.170 22.568,229.775 182.601,125.908  "/>
<polygon fill="#04d5e6" points="275.970,509.286 291.054,540.364 330.853,105.419  "/>
<polygon fill="#030bdb" points="106.040,194.052 309.540,388.422 527.728,439.429  "/>
<polygon fill="#0a18bf" points="440.037,234.293 437.295,276.377 558.112,283.136  "/>
<polygon fill="#d447f5" points="324.771,539.190 469.169,66.790 18.139,163.266  "/>
<polygon fill="#225d8b" points="13.915,557.615 155.351,524.073 528.038,16.827  "/>
<polygon fill="#0cb6c3" points="391.935,286.568 348.133,439.090 510.476,462.122  "/>
<polygon fill="#b6c35e" points="359.987,116.875 181.211,283.398 171.062,175.188  "/>
<polygon fill="#97b837" points="414.223,287.320 255.213,575.528 532.580,199.340  "/>
<polygon fill="#1f4f2a" points="484.261,352.100 469.719,396.925 549.301,373.158  "/>
<polygon fill="#be90cb" points="21.866,547.314 100.557,415.751 321.239,90.187  "/>
<polygon fill="#a057fb" points="183.086,71.102 12.390,66.926 131.602,194.045  "/>
<polygon fill="#621368" points="306.052,203.401 134.728,151.295 379.196,384.484  "/>
<polygon fill="#f2953b" points="50.155,188.286 223.361,329.540 596.062,564.605  "/>
<polygon fill="#1f97ed" points="467.568,164.702 375.605,528.775 280.092,535.730  "/>
<polygon fill="#c99c13" points="44.807,454.980 473.305,152.352 555.033,200.127  "/>
<polygon fill="#db7270" points="199.997,229.543 15.632,338.330 589.905,564.902  "/>
<polygon fill="#b5b764" points="382.285,148.340 102.104,132.554 503.495,296.276  "/>
<polygon fill="#b58dc5" points="73.248,494.991 21.303,401.644 392.120,129.591  "/>
<polygon fill="#eb4620" points="135.285,415.890 1.656,201.302 160.336,590.534  "/>
<polygon fill="#01e50e" points="583.274,445.696 500.882,216.350 412.327,186.688  "/>
<polygon fill="#ae0d54" points="494.771,88.119 346.893,288.037 455.966,86.581  "/>
<polygon fill="#da2f65" points="330.361,92.500 346.066,542.955 536.347,206.712  "/>
<polygon fill="#53428d" points="10.626,405.967 100.315,363.488 67.284,435.345  "/>
<polygon fill="#0670fe" points="190.142,94.258 326.851,258.737 77.191,195.340  "/>
<polygon fill="#cbb51e" points="94.197,587.012 290.955,569.485 556.992,251.391  "/>
<polygon fill="#ff2903" points="282.474,224.119 340.147,123.003 122.603,589.620  "/>
<polygon fill="#ce1352" points="520.633,551.098 16.901,449.806 537.803,586.059  "/>
<polygon fill="#eac311" points="339.675,64.652 99.770,126.445 392.232,325.075  "/>
<polygon fill="#ad0220" points="334.570,211.689 455.715,424.035 279.621,537.358  "/>
<polygon fill="#670453" points="541.871,279.451 136.597,362.533 208.993,568.605  "/>
<polygon fill="#13c17b" points="70.956,288.969 532.926,121.027 294.238,174.139  "/>
<polygon fill="#c8bf3c" points="544.880,238.401 34.059,440.518 25.583,272.062  "/>
<polygon fill="#0b6ebd" points="299.113,358.864 432.776,437.921 214.277,302.123  "/>
<polygon fill="#ee8133" points="435.761,579.581 49.895,296.452 68.956,148.462  "/>
<polygon fill="#adf850" points="331.808,52.263 419.713,27.346 596.584,134.725  "/>
<polygon fill="#61d69c" points="271.926,488.214 434.423,247.735 518.628,273.928  "/>
<polygon fill="#a86979" points="418.327,259.050 427.018,376.678 474.738,151.369  "/>
<polygon fill="#44bdbb" points="249.249,513.721 95.463,72.761 120.940,482.590  "/>
<polygon fill="#41bb1a" points="54.486,516.045 549.052,37.794 103.477,290.155  "/>
<polygon fill="#d3d919" points="489.824,484.014 465.836,111.311 585.297,63.362  "/>
<polygon fill="#502d31" points="387.212,385.639 201.315,312.122 545.411,599.316  "/>
<polygon fill="#5221bd" points="111.121,435.210 270.186,215.777 520.933,302.254  "/>
<polygon fill="#51402a" points="189.815,343.747 229.428,345.552 150.146,370.678  "/>
<polygon fill="#635d07" points="423.819,49.671 584.754,396.707 471.459,488.894  "/>
<polygon fill="#0d6221" points="412.824,387.382 307.181,561.669 68.977,377.067  "/>
<polygon fill="#08f2d0" points="167.166,68.127 318.585,521.409 590.823,475.041  "/>
<polygon fill="#e57c39" points="210.809,159.297 511.637,148.086 578.062,119.201  "/>
<polygon fill="#4aeac2" points="73.984,317.892 553.505,585.587 98.258,467.778  "/>
<polygon fill="#d73f2b" points="301.902,288.953 447.222,548.092 396.819,62.765  "/>
<polygon fill="#f9e226" points="514.198,434.341 319.200,304.538 533.646,46.423  "/>
<polygon fill="#53f084" points="565.925,521.517 66.772,400.205 64.101,396.775  "/>
<polygon fill="#6af985" points="326.105,441.439 217.536,26.674 581.484,431.145  "/>
<polygon fill="#b21680" points="55.354,588.648 455.869,22.772 155.720,494.439  "/>
</svg>