<?xml version="1.0" encoding="utf-8"?>
<!-- Generator: Python script. InTeResTinG -->
<!DOCTYPE svg PUBLIC "-//W3C//DTD SVG 1.1//EN" "http://www.w3.org/Graphics/SVG/1.1/DTD/svg11.dtd">
<svg version="1.1" id="Layer_1" xmlns="http://www.w3.org/2000/svg" xmlns:xlink="http://www.w3.org/1999/xlink" x="0px" y="0px" width="600.000px" height="600.000px" viewBox="0 0 600.000 600.000" enable-background="new 0 0 600.000 600.000" xml:space="preserve">
<polygon fill="#20f839" points="54.455,319.400 365.967,207.820 100.126,339.925  "/>
<polygon fill="#4f8056" points="11.616,216.376 164.399,341.930 226.591,333.754  "/>
<polygon fill="#7f9900" points="247.596,33.449 9.194,352.472 48.407,565.312  "/>
<polygon fill="#4508d6" points="209.642,439.842 438.502,274.845 186.174,127.146  "/>
<polygon fill="#26d475" points="51.141,117.909 429.805,271.003 221.413,454.323  "/>
<polygon fill="#1d7ab1" points="550.225,30.987 535.158,187.733 590.284,316.803  "/>
<polygon fill="#7f885f" points="563.092,338.802 88.851,361.476 213.431,101.526  "/>
<polygon fill="#408abd" points="360.829,309.299 362.075,46.432 386.193,334.179  "/>
<polygon fill="#6842ff" points="14.289,249.418 483.982,143.808 343.871,369.621  "/>
<polygon fill="#f85b73" points="128.397,90.946 284.084,443.741 150.115,219.279  "/>
<polygon fill="#f8e864" points="422.437,245.469 553.407,437.719 283.842,506.786  "/>
<polygon fill="#403827" points="574.107,422.743 480.420,503.272 452.704,395.361  "/>
<polygon fill="#306608" points="350.729,129.665 216.420,50.385 352.976,208.772  "/>
<polygon fill="#931e40" points="463.112,55.709 557.845,381.263 512.447,285.540  "/>
<polygon fill="#600fa2" points="201.543,581.190 14.135,155.786 545.801,429.912  "/>
<polygon fill="#a1b5ef" points="108.989,551.692 487.588,564.603 181.767,551.461  "/>
<polygon fill="#015226" points="169.683,341.707 183.499,53.240 114.997,512.544  "/>
<polygon fill="#f47b89" points="163.234,494.214 176.298,158.734 29.089,308.612  "/>
<polygon fill="#340c39" points="375.558,166.841 558.213,74.716 113.566,269.857  "/>
<polygon fill="#b33a3f" points="63.381,290.360 271.167,386.891 351.053,367.501  "/>
<polygon fill="#c9f3d7" points="551.197,257.891 492.090,128.250 515.878,296.299  "/>
<polygon fill="#e775e7" points="227.620,126.816 75.590,147.910 498.053,222.744  "/>
<polygon fill="#1fcbf0" points="53.658,8.972 499.488,513.574 145.195,154.993  "/>
<polygon fill="#c211ae" points="559.449,503.552 62.594,252.788 322.535,517.905  "/>
<polygon fill="#0502a4" points="106.881,223.945 516.269,138.943 5.627,3.907  "/>
<polygon fill="#d38ab5" points="474.897,343.235 28.458,5.399 357.139,91.245  "/>
<polygon fill="#84508c" points="20.351,522.419 92.573,219.628 101.098,41.213  "/>
<polygon fill="#45f5a2" points="551.660,362.237 114.426,457.668 434.116,178.489  "/>
<polygon fill="#6cc9cc" points="573.190,279.859 327.374,188.192 322.691,568.036  "/>
<polygon fill="#253a5b" points="504.908,396.161 184.089,78.358 424.259,371.886  "/>
<polygon fill="#4f1c58" points="185.518,217.788 477.479,82.966 502.016,490.042  "/>
<polygon fill="#c5a14d" points="284.447,22.133 53.623,18.162 542.924,256.868  "/>
<polygon fill="#335460" points="348.897,599.528 357.748,468.748 445.670,564.147  "/>
<polygon fill="#c466d5" points="92.042,210.321 276.641,508.571 106.047,396.508  "/>
<polygon fill="#2ae6c4" points="406.549,52.539 52.331,181.281 560.905,125.720  "/>
<polygon fill="#b35044" points="567.520,581.645 186.629,174.564 188.300,58.870  "/>
<polygon fill="#d75050" points="89.069,548.931 88.276,534.542 400.935,273.796  "/>
<polygon fill="#ccea82" points="574.592,144.145 187.933,60.776 546.591,270.349  "/>
<polygon fill="#f8825f" points="28.869,17.034 125.248,530.617 326.983,350.592  "/>
<polygon fill="#8c7556" points="529.961,280.999 316.231,156.120 341.673,325.745  "/>
<polygon fill="#93bcdb" points="36.973,250.877 437.359,101.110 282.451,535.530  "/>
<polygon fill="#fb55c1" points="566.931,270.763 227.284,27.930 51.579,34.918  "/>
<polygon fill="#43e283" points="64.592,46.468 525.616,527.343 359.562,242.005  "/>
<polygon fill="#24a292" points="42.325,81.746 308.072,440.748 348.636,425.567  "/>
<polygon fill="#ee9426" points="508.154,446.150 185.665,415.189 339.119,427.340  "/>
<polygon fill="#5ea31e" points="317.648,174.230 562.688,567.259 432.055,364.128  "/>
<polygon fill="#a5c1d3" points="343.326,162.836 280.734,72.270 342.643,218.568  "/>
<polygon fill="#593b53" points="502.411,36.065 125.432,81.276 22.460,94.293  "/>
<polygon fill="#af6039" points="108.930,305.479 561.841,378.596 445.159,5.153  "/>
<polygon fill="#b18ee1" points="95.801,569.622 365.225,293.369 262.990,319.853  "/>
<polygon fill="#caffd5" points="383.278,381.770 43.392,301.199 576.676,372.762  "/>
<polygon fill="#64f7e4" points="134.373,587.837 568.668,386.023 106.840,352.793  "/>
<polygon fill="#59ef23" points="426.938,244.388 46.016,179.038 125.842,19.524  "/>
<polygon fill="#4d57df" points="11.849,547.486 561.561,401.003 269.415,70.533  "/>
</svg>