<?xml version="1.0" encoding="utf-8"?>
<!-- Generator: Python script. InTeResTinG -->
<!DOCTYPE svg PUBLIC "-//W3C//DTD SVG 1.1//EN" "http://www.w3.org/Graphics/SVG/1.1/DTD/svg11.dtd">
<svg version="1.1" id="Layer_1" xmlns="http://www.w3.org/2000/svg" xmlns:xlink="http://www.w3.org/1999/xlink" x="0px" y="0px" width="600.000px" height="600.000px" viewBox="0 0 600.000 600.000" enable-background="new 0 0 600.000 600.000" xml:space="preserve">
<polygon fill="#da144e" points="106.903,272.423 253.492,396.633 442.701,577.242  "/>
<polygon fill="#7a6572" points="334.291,330.689 114.765,487.498 349.765,216.499  "/>
<polygon fill="#9092fc" points="484.565,478.789 285.233,246.262 316.181,401.720  "/>
<polygon fill="#93237b" points="191.513,458.622 442.532,429.820 409.530,575.022  "/>
<polygon fill="#9e357c" points="99.077,513.731 280.964,17.768 246.462,77.465  "/>
<polygon fill="#c04a00" points="483.439,75.342 460.893,247.045 282.077,510.630  "/>
<polygon fill="#8989c7" points="303.697,320.301 448.485,18.962 224.157,331.603  "/>
<polygon fill="#4b93f3" points="39.476,426.102 383.264,323.851 563.727,583.325  "/>
<polygon fill="#ca2c5f" points="147.087,196.654 531.729,45.463 246.287,549.295  "/>
<polygon fill="#7a71a5" points="310.055,200.270 412.591,88.767 553.262,284.303  "/>
<polygon fill="#0bb780" points="341.413,291.258 148.498,31.704 265.294,316.961  "/>
<polygon fill="#ece466" points="288.270,466.754 392.479,358.020 349.276,210.462  "/>
<polygon fill="#67cf7b" points="366.671,595.283 355.482,466.610 63.960,219.351  "/>
<polygon fill="#08b891" points="302.069,118.796 232.974,327.128 179.276,543.783  "/>
<polygon fill="#e9997e" points="216.785,215.352 18.815,493.116 428.040,293.169  "/>
<polygon fill="#9da2a5" points="153.416,281.534 491.425,18.290 148.784,149.201  "/>
<polygon fill="#ce96c2" points="236.364,146.645 348.632,535.534 356.911,321.666  "/>
<polygon fill="#19dd48" points="563.431,346.279 485.395,589.958 492.923,394.394  "/>
<polygon fill="#6468e5" points="336.306,531.667 275.187,206.036 101.738,18.649  "/>
<polygon fill="#9d31c2" points="326.837,28.599 168.853,293.458 400.722,239.154  "/>
<polygon fill="#938ef0" points="370.972,274.310 82.542,203.676 232.851,105.204  "/>
<polygon fill="#999c05" points="553.272,62.094 281.479,437.888 495.589,379.528  "/>
<polygon fill="#cb63c8" points="382.458,427.670 127.653,107.750 300.304,387.055  "/>
<polygon fill="#ab698c" points="396.451,404.034 440.791,576.011 211.599,253.049  "/>
<polygon fill="#62e321" points="74.826,340.486 79.727,356.001 565.788,509.650  "/>
<polygon fill="#f78911" points="192.714,150.462 164.963,501.962 276.369,454.710  "/>
<polygon fill="#17d17b" points="241.619,356.584 116.001,263.521 352.743,354.688  "/>
<polygon fill="#0f9517" points="110.368,4.498 146.152,434.804 276.409,387.609  "/>
<polygon fill="#46ec5e" points="202.281,117.621 487.744,218.656 393.474,167.203  "/>
<polygon fill="#38b3b0" points="553.361,570.923 488.232,543.869 395.661,494.488  "/>
<polygon fill="#ae1838" points="118.579,397.794 98.610,554.241 379.852,64.814  "/>
<polygon fill="#2cf8bd" points="562.133,480.045 205.063,580.152 535.154,156.456  "/>
<polygon fill="#54de65" points="218.881,456.056 248.452,291.892 61.575,457.212  "/>
<polygon fill="#8f793b" points="190.436,442.137 222.954,456.903 592.215,15.680  "/>
<polygon fill="#d64056" points="192.014,323.761 25.993,12.587 12.133,475.870  "/>
<polygon fill="#cf195f" points="203.857,80.513 20.615,459.912 523.015,206.842  "/>
<polygon fill="#162a0d" points="262.473,111.031 45.758,160.243 578.967,425.486  "/>
<polygon fill="#806c51" points="240.680,290.962 184.162,427.459 67.142,108.945  "/>
<polygon fill="#743cd3" points="358.887,435.136 207.619,492.704 299.903,171.587  "/>
<polygon fill="#d1bf62" points="321.880,417.890 337.376,293.080 55.411,252.295  "/>
<polygon fill="#5d3606" points="46.815,341.370 165.291,545.667 172.756,485.237  "/>
<polygon fill="#dbe908" points="539.174,437.126 167.842,131.395 64.928,68.161  "/>
<polygon fill="#866631" points="406.308,18.215 397.515,257.970 157.809,417.183  "/>
<polygon fill="#c1e0a4" points="566.445,450.968 389.289,265.695 134.537,401.452  "/>
<polygon fill="#4a444a" points="140.521,357.026 479.428,168.677 488.002,371.151  "/>
<polygon fill="#476855" points="521.877,363.365 430.699,262.933 348.496,273.668  "/>
<polygon fill="#ecaf85" points="229.553,178.814 390.317,245.727 156.417,91.710  "/>
<polygon fill="#9ce910" points="478.529,365.334 440.739,32.324 208.381,355.901  "/>
<polygon fill="#2ebd3a" points="31.115,436.100 254.114,309.777 558.608,68.082  "/>
<polygon fill="#f39933" points="527.760,436.334 272.435,554.676 548.258,366.506  "/>
<polygon fill="#4f560d" points="434.762,59.398 437.716,100.218 596.261,236.550  "/>
<polygon fill="#03bc80" points="506.108,50.840 187.597,393.326 120.966,381.569  "/>
<polygon fill="#461131" points="37.017,258.107 500.728,362.006 118.217,581.888  "/>
<polygon fill="#0ced8c" points="574.899,483.398 288.082,28.105 366.275,10.014  "/>
<polygon fill="#172a66" points="508.793,177.566 359.997,465.620 166.385,462.965  "/>
<polygon fill="#955586" points="549.852,182.268 478.230,351.031 5.323,336.661  "/>
</svg>