<?xml version="1.0" encoding="utf-8"?>
<!-- Generator: Python script. InTeResTinG -->
<!DOCTYPE svg PUBLIC "-//W3C//DTD SVG 1.1//EN" "http://www.w3.org/Graphics/SVG/1.1/DTD/svg11.dtd">
<svg version="1.1" id="Layer_1" xmlns="http://www.w3.org/2000/svg" xmlns:xlink="http://www.w3.org/1999/xlink" x="0px" y="0px" width="600.000px" height="600.000px" viewBox="0 0 600.000 600.000" enable-background="new 0 0 600.000 600.000" xml:space="preserve">
<polygon fill="#897e3d" points="488.746,489.115 390.987,185.163 437.407,314.866  "/>
<polygon fill="#ed40dd" points="18.702,116.964 14.606,535.684 512.630,506.820  "/>
<polygon fill="#6dbada" points="281.239,355.365 299.954,157.439 439.257,348.766  "/>
<polygon fill="#99f6de" points="130.815,519.129 361.269,579.794 130.466,18.960  "/>
<polygon fill="#d150bc" points="505.196,326.963 331.785,423.856 191.487,181.543  "/>
<polygon fill="#0d3090" points="446.119,121.194 497.622,534.364 565.278,232.138  "/>
<polygon fill="#57feb0" points="569.365,434.163 491.589,537.102 205.386,266.802  "/>
<polygon fill="#45521c" points="146.907,575.598 113.135,331.528 41.302,325.099  "/>
<polygon fill="#ae9f6c" points="222.098,140.811 433.728,426.088 322.522,37.363  "/>
<polygon fill="#ebc29c" points="386.876,447.377 285.921,192.956 284.067,438.248  "/>
<polygon fill="#4a0080" points="323.380,27.659 528.738,325.422 437.718,257.226  "/>
<polygon fill="#f8b81e" points="38.160,251.128 250.845,137.760 392.946,382.446  "/>
<polygon fill="#8f6975" points="312.035,525.772 61.586,520.234 225.442,241.564  "/>
<polygon fill="#1ffd1d" points="366.762,582.939 21.452,530.381 144.660,128.446  "/>
<polygon fill="#f02371" points="524.716,123.988 249.096,177.784 130.754,93.983  "/>
<polygon fill="#b1ebe4" points="426.131,579.666 243.974,57.108 210.371,374.498  "/>
<polygon fill="#886e4c" points="499.750,389.104 161.586,282.823 412.362,404.045  "/>
<polygon fill="#65d814" points="467.957,202.185 377.996,78.374 401.288,403.619  "/>
<polygon fill="#8e760b" points="361.958,317.820 405.186,239.090 298.925,355.066  "/>
<polygon fill="#4a0ee3" points="141.165,126.303 241.443,33.335 493.992,317.660  "/>
<polygon fill="#19f6fa" points="436.130,158.890 559.080,202.981 463.824,401.833  "/>
<polygon fill="#387a27" points="209.738,356.729 102.383,488.745 413.078,585.300  "/>
<polygon fill="#4a00e2" points="56.429,159.248 390.067,322.768 188.563,3.568  "/>
<polygon fill="#c77f9f" points="403.003,57.987 495.089,86.718 525.140,469.517  "/>
<polygon fill="#ebfb43" points="377.318,237.441 38.348,155.260 467.060,96.944  "/>
<polygon fill="#d85f15" points="541.754,592.315 227.535,19.683 508.131,457.310  "/>
<polygon fill="#cd6bb1" points="235.053,64.841 239.924,223.873 310.276,597.644  "/>
<polygon fill="#e8c34e" points="80.775,475.367 513.746,593.977 92.034,320.369  "/>
<polygon fill="#271f37" points="234.210,202.448 278.699,549.145 342.828,392.827  "/>
<polygon fill="#f00daa" points="93.658,162.531 352.531,525.276 581.111,195.768  "/>
<polygon fill="#bc9ec1" points="51.523,220.746 231.692,279.201 341.043,133.314  "/>
<polygon fill="#062f04" points="303.423,427.951 179.785,309.387 232.273,424.936  "/>
<polygon fill="#e08fa4" points="186.208,491.924 493.064,326.290 101.660,296.685  "/>
<polygon fill="#3e26b9" points="78.550,4.854 169.525,288.560 218.211,457.341  "/>
<polygon fill="#333196" points="556.376,469.192 1.752,105.637 100.330,459.893  "/>
<polygon fill="#f39ad9" points="565.018,284.853 97.180,378.809 42.222,143.875  "/>
<polygon fill="#c611f0" points="257.129,212.265 0.134,78.249 223.946,361.667  "/>
<polygon fill="#8ee0f7" points="581.036,63.364 437.196,542.097 123.295,393.383  "/>
<polygon fill="#25f59d" points="241.409,371.535 304.875,484.896 415.564,162.492  "/>
<polygon fill="#9c3b7d" points="380.179,346.478 282.059,127.387 415.654,510.959  "/>
<polygon fill="#3e453d" points="584.934,460.045 467.908,390.536 485.060,599.781  "/>
<polygon fill="#bd1aa8" points="260.830,559.253 581.391,172.285 432.515,304.389  "/>
<polygon fill="#a964e0" points="434.794,241.120 270.947,418.722 96.190,202.116  "/>
<polygon fill="#ba7277" points="242.896,432.924 58.112,198.136 404.563,434.790  "/>
<polygon fill="#31eaa2" points="576.724,15.175 63.605,237.547 7.813,248.698  "/>
<polygon fill="#6a4fc5" points="122.280,387.740 221.489,120.678 147.499,99.628  "/>
<polygon fill="#a0ed15" points="24.562,135.300 89.188,538.286 574.344,297.870  "/>
<polygon fill="#d26b34" points="213.756,398.682 485.579,509.811 124.819,368.302  "/>
<polygon fill="#0fc851" points="185.336,443.398 259.967,474.612 147.484,518.871  "/>
<polygon fill="#69cb99" points="437.469,589.432 64.828,430.065 65.940,148.371  "/>
<polygon fill="#8acd50" points="131.185,141.510 392.092,166.003 421.904,169.287  "/>
<polygon fill="#cf6207" points="463.817,471.070 551.957,598.647 519.769,413.744  "/>
</svg>