<?xml version="1.0" encoding="utf-8"?>
<!-- Generator: Python script. InTeResTinG -->
<!DOCTYPE svg PUBLIC "-//W3C//DTD SVG 1.1//EN" "http://www.w3.org/Graphics/SVG/1.1/DTD/svg11.dtd">
<svg version="1.1" id="Layer_1" xmlns="http://www.w3.org/2000/svg" xmlns:xlink="http://www.w3.org/1999/xlink" x="0px" y="0px" width="600.000px" height="600.000px" viewBox="0 0 600.000 600.000" enable-background="new 0 0 600.000 600.000" xml:space="preserve">
<polygon fill="#997f75" points="529.649,177.666 581.467,369.933 219.843,407.804  "/>
<polygon fill="#4fc775" points="74.340,312.845 434.054,175.760 440.693,98.615  "/>
<polygon fill="#6f2f9c" points="442.973,464.795 190.121,218.400 108.169,37.634  "/>
<polygon fill="#750080" points="416.276,302.070 52.757,576.465 203.387,426.747  "/>
<polygon fill="#fbc24f" points="279.631,121.840 303.213,494.281 486.778,381.751  "/>
<polygon fill="#354cfd" points="557.650,98.781 561.238,39.135 158.855,162.545  "/>
<polygon fill="#1cca22" points="167.497,260.650 553.650,447.035 322.409,477.052  "/>
<polygon fill="#c56d59" points="300.645,398.443 474.423,210.961 8.092,566.129  "/>
<polygon fill="#0e3ad1" points="22.022,311.989 201.364,322.675 251.379,254.230  "/>
<polygon fill="#8c40cc" points="136.798,125.254 209.211,263.754 450.435,13.919  "/>
<polygon fill="#f211eb" points="490.579,473.341 163.485,547.070 168.823,1.359  "/>
<polygon fill="#3b23ec" points="414.647,567.789 90.210,273.678 361.640,42.607  "/>
<polygon fill="#904618" points="469.182,256.540 158.280,57.790 566.080,367.897  "/>
<polygon fill="#924ced" points="342.554,105.149 599.794,88.419 394.193,498.829  "/>
<polygon fill="#99fc48" points="406.975,149.649 438.507,144.793 235.490,499.049  "/>
<polygon fill="#20c07a" points="61.568,489.909 40.459,540.401 521.439,352.031  "/>
<polygon fill="#8428da" points="373.431,120.847 45.524,217.613 476.452,398.082  "/>
<polygon fill="#01cab8" points="217.364,186.897 472.923,242.976 366.657,22.348  "/>
<polygon fill="#310bdd" points="318.234,106.132 139.901,430.456 490.143,485.405  "/>
<polygon fill="#059f43" points="366.849,311.061 402.383,508.454 121.404,108.465  "/>
<polygon fill="#077a31" points="557.827,231.181 55.828,252.370 410.441,108.029  "/>
<polygon fill="#0518df" points="373.133,111.920 211.234,102.179 250.034,331.108  "/>
<polygon fill="#fa513e" points="169.631,409.159 127.739,357.472 440.976,65.268  "/>
<polygon fill="#8f7571" points="581.089,318.550 563.724,64.376 516.081,252.093  "/>
<polygon fill="#6b813d" points="166.228,239.549 372.700,275.936 596.053,366.496  "/>
<polygon fill="#b85ae0" points="318.618,54.311 114.837,12.647 201.140,96.485  "/>
<polygon fill="#dfb6bb" points="347.863,346.868 396.846,552.388 33.493,462.249  "/>
<polygon fill="#9e05aa" points="557.805,67.676 72.290,233.138 75.067,296.968  "/>
<polygon fill="#b086ed" points="573.466,87.514 196.735,223.857 23.090,259.918  "/>
<polygon fill="#234cc3" points="449.098,163.039 83.045,287.827 224.366,182.205  "/>
<polygon fill="#75c587" points="391.123,264.285 197.654,180.647 263.099,258.989  "/>
<polygon fill="#d11318" points="277.766,358.429 261.856,332.263 364.585,221.383  "/>
<polygon fill="#ded042" points="515.738,493.367 413.087,479.805 408.510,194.973  "/>
<polygon fill="#5b280a" points="414.815,450.501 521.779,238.612 112.119,418.491  "/>
<polygon fill="#21ed11" points="517.231,572.774 390.280,436.561 10.835,123.157  "/>
<polygon fill="#d868c8" points="563.792,461.493 402.909,316.674 509.624,99.565  "/>
<polygon fill="#a1097e" points="545.384,301.831 312.243,138.294 240.639,154.113  "/>
<polygon fill="#a6e48b" points="432.749,364.904 586.199,461.442 397.746,213.620  "/>
<polygon fill="#461573" points="260.554,570.652 546.961,399.177 64.389,399.961  "/>
<polygon fill="#6ea973" points="240.151,572.073 352.684,442.375 504.297,275.065  "/>
<polygon fill="#838069" points="541.424,56.204 496.940,91.234 435.620,56.189  "/>
<polygon fill="#0a67cb" points="131.404,281.077 62.749,353.054 346.991,291.176  "/>
<polygon fill="#1c4bcf" points="487.279,526.777 116.815,521.702 568.313,128.630  "/>
<polygon fill="#8dec99" points="48.167,349.478 3.006,433.686 328.280,562.731  "/>
<polygon fill="#bdcbcf" points="35.007,530.648 476.112,283.873 290.163,190.499  "/>
<polygon fill="#d5284c" points="155.114,360.525 352.120,51.940 87.786,494.025  "/>
<polygon fill="#16e9c5" points="222.973,399.732 269.483,376.727 133.593,370.503  "/>
<polygon fill="#8bfc2b" points="553.090,554.769 496.957,567.564 82.375,181.353  "/>
<polygon fill="#3eb790" points="394.688,478.745 478.233,314.867 117.062,181.803  "/>
<polygon fill="#7c3264" points="154.118,61.336 52.188,147.947 182.826,259.207  "/>
<polygon fill="#347270" points="231.958,317.182 303.443,517.314 514.314,251.776  "/>
<polygon fill="#688f06" points="513.720,532.940 146.451,407.562 51.516,583.637  "/>
<polygon fill="#c3a8ed" points="125.123,366.982 30.568,579.972 347.585,535.908  "/>
<polygon fill="#ec29f8" points="90.265,17.095 326.983,421.425 326.792,478.556  "/>
<polygon fill="#c7958d" points="241.986,63.540 396.753,347.673 264.069,598.631  "/>
<polygon fill="#c32ac8" points="414.885,9.923 495.346,71.585 266.055,340.348  "/>
<polygon fill="#1ef336" points="500.098,20.822 249.217,399.074 453.202,225.427  "/>
<polygon fill="#d7912a" points="579.216,536.523 592.717,432.934 24.250,43.982  "/>
<polygon fill="#aeb06d" points="530.339,104.829 586.675,111.462 223.277,221.494  "/>
<polygon fill="#de0e91" points="274.458,52.955 171.080,547.111 239.468,420.958  "/>
<polygon fill="#3d2aea" points="35.817,504.160 145.578,337.448 2.903,375.220  "/>
<polygon fill="#b33e11" points="401.574,279.466 211.370,199.252 79.795,373.943  "/>
<polygon fill="#94d152" points="378.900,578.243 114.831,143.992 440.227,365.507  "/>
<polygon fill="#b08ba3" points="481.399,234.225 118.252,519.003 496.173,294.549  "/>
<polygon fill="#db1128" points="14.436,504.539 151.921,81.401 395.005,373.850  "/>
<polygon fill="#5d3c43" points="36.133,170.334 429.887,62.259 443.968,419.561  "/>
<polygon fill="#0aa09a" points="180.029,300.023 448.997,85.696 365.933,190.357  "/>
</svg>