<?xml version="1.0" encoding="utf-8"?>
<!-- Generator: Python script. InTeResTinG -->
<!DOCTYPE svg PUBLIC "-//W3C//DTD SVG 1.1//EN" "http://www.w3.org/Graphics/SVG/1.1/DTD/svg11.dtd">
<svg version="1.1" id="Layer_1" xmlns="http://www.w3.org/2000/svg" xmlns:xlink="http://www.w3.org/1999/xlink" x="0px" y="0px" width="600.000px" height="600.000px" viewBox="0 0 600.000 600.000" enable-background="new 0 0 600.000 600.000" xml:space="preserve">
<polygon fill="#881f34" points="371.885,115.198 79.269,112.149 160.123,480.217  "/>
<polygon fill="#8bed6d" points="114.775,51.576 306.796,437.247 377.356,231.184  "/>
<polygon fill="#9094bc" points="150.537,472.267 60.375,362.763 422.453,180.234  "/>
<polygon fill="#be2bb9" points="140.927,536.881 27.262,504.743 559.795,128.813  "/>
<polygon fill="#fcfcd3" points="515.106,88.607 441.929,497.946 279.212,65.817  "/>
<polygon fill="#6adc0f" points="418.893,563.115 397.177,594.160 431.598,540.200  "/>
<polygon fill="#f37f02" points="296.654,313.170 186.169,242.262 133.735,243.552  "/>
<polygon fill="#1702d3" points="61.790,448.013 454.217,541.888 280.291,228.021  "/>
<polygon fill="#dfe34c" points="232.193,72.670 549.272,7.453 347.811,302.289  "/>
<polygon fill="#6d58d5" points="367.003,440.616 79.200,513.324 16.346,536.172  "/>
<polygon fill="#c358e1" points="529.543,371.227 441.537,80.562 54.133,261.544  "/>
<polygon fill="#5414f3" points="521.823,241.002 459.823,426.495 259.428,270.760  "/>
<polygon fill="#ae8318" points="505.854,529.779 365.730,82.804 504.110,497.357  "/>
<polygon fill="#1b8c19" points="38.977,510.408 374.936,242.947 400.198,504.471  "/>
<polygon fill="#bd5319" points="33.228,568.178 195.028,143.866 200.723,80.126  "/>
<polygon fill="#8c8607" points="199.311,27.705 428.650,549.925 104.846,176.243  "/>
<polygon fill="#8a6a58" points="242.084,97.368 521.382,597.071 96.974,93.950  "/>
<polygon fill="#f91768" points="71.009,440.173 532.184,213.579 566.268,199.352  "/>
<polygon fill="#41d7d0" points="521.801,489.588 2.985,179.441 534.279,372.449  "/>
<polygon fill="#c62e83" points="99.879,244.293 441.456,291.022 71.518,310.714  "/>
<polygon fill="#52300e" points="238.009,312.860 348.980,175.014 423.511,259.794  "/>
<polygon fill="#5c6445" points="467.837,338.440 151.228,359.002 260.663,308.437  "/>
<polygon fill="#93aad5" points="168.925,35.898 337.671,487.908 43.043,385.309  "/>
<polygon fill="#c17bf5" points="153.269,95.060 490.431,140.330 80.330,596.722  "/>
<polygon fill="#a4d416" points="586.900,34.415 333.667,572.077 32.718,224.970  "/>
<polygon fill="#0bc27c" points="127.326,32.221 509.440,321.859 574.693,56.606  "/>
<polygon fill="#a43863" points="595.903,276.424 0.432,149.499 444.344,468.851  "/>
<polygon fill="#9aec78" points="475.351,469.757 318.385,497.773 246.109,311.401  "/>
<polygon fill="#b36d8a" points="47.356,36.194 238.094,419.298 586.329,316.921  "/>
<polygon fill="#6ea251" points="590.014,115.596 145.308,327.410 176.399,296.954  "/>
<polygon fill="#f5b23e" points="562.322,261.042 2.021,268.721 194.008,61.343  "/>
<polygon fill="#91b167" points="171.652,163.070 440.338,449.388 358.488,86.457  "/>
<polygon fill="#13669e" points="23.398,418.323 50.384,305.399 583.272,368.169  "/>
<polygon fill="#d05366" points="103.446,26.365 279.581,234.217 584.860,135.124  "/>
<polygon fill="#13622b" points="13.189,559.204 41.201,262.273 507.463,546.822  "/>
<polygon fill="#77b6f5" points="558.042,80.349 9.297,572.185 63.963,60.736  "/>
<polygon fill="#338d71" points="415.059,220.932 217.132,516.140 403.049,341.551  "/>
<polygon fill="#084de4" points="259.861,120.886 569.533,443.913 60.490,6.104  "/>
<polygon fill="#fdfe8a" points="392.982,495.259 82.959,455.286 96.849,188.228  "/>
<polygon fill="#574d8f" points="445.353,388.050 128.576,174.161 482.836,433.215  "/>
<polygon fill="#e03f0a" points="271.851,367.656 351.692,314.512 280.225,467.158  "/>
<polygon fill="#bec50b" points="208.616,456.081 539.248,536.271 498.766,564.825  "/>
<polygon fill="#3cdbb3" points="233.405,252.216 179.076,289.702 451.082,403.160  "/>
<polygon fill="#283fa4" points="226.146,480.317 401.476,123.545 409.425,177.119  "/>
<polygon fill="#935890" points="133.171,32.369 557.363,405.659 92.412,214.660  "/>
<polygon fill="#c1988e" points="354.188,528.571 557.748,16.050 328.012,217.105  "/>
<polygon fill="#fc0304" points="509.917,562.893 178.383,598.647 477.637,5.591  "/>
<polygon fill="#08c223" points="33.190,569.788 588.202,136.437 349.220,368.358  "/>
<polygon fill="#074798" points="461.855,383.207 205.686,472.275 543.147,225.718  "/>
<polygon fill="#6fb8be" points="320.720,131.504 302.559,140.026 320.602,376.909  "/>
<polygon fill="#eaa2a9" points="255.956,388.474 458.621,423.253 144.834,541.812  "/>
<polygon fill="#e8f315" points="325.858,265.153 169.841,139.160 132.588,78.575  "/>
<polygon fill="#7c83ab" points="413.392,537.033 283.927,548.045 155.679,234.270  "/>
<polygon fill="#97f934" points="384.147,463.689 247.508,163.357 478.556,238.807  "/>
<polygon fill="#00fe0d" points="474.364,11.608 360.755,536.736 147.148,400.113  "/>
<polygon fill="#b8744d" points="104.500,487.928 480.211,108.901 355.458,571.821  "/>
<polygon fill="#caa49c" points="19.566,48.400 517.012,536.274 48.370,453.380  "/>
<polygon fill="#b2eb98" points="266.144,78.580 147.772,66.888 122.341,260.480  "/>
<polygon fill="#b9a4f2" points="150.338,358.955 424.593,20.986 401.919,508.746  "/>
<polygon fill="#c56e17" points="129.019,410.225 481.957,179.902 393.737,495.938  "/>
<polygon fill="#fd19f6" points="462.020,558.788 447.146,52.991 412.984,364.517  "/>
<polygon fill="#47ccd8" points="128.985,527.374 208.370,273.325 161.185,574.518  "/>
<polygon fill="#9fe788" points="500.764,553.244 373.567,521.817 47.629,322.237  "/>
<polygon fill="#77dc7d" points="84.403,11.341 386.744,488.228 371.951,123.866  "/>
<polygon fill="#90dd6e" points="283.759,454.060 213.230,130.021 25.778,258.416  "/>
<polygon fill="#eeee65" points="8.953,273.420 95.367,114.513 350.742,435.383  "/>
<polygon fill="#9723f3" points="324.553,461.192 113.495,160.162 267.994,255.549  "/>
<polygon fill="#8f64e4" points="49.363,301.510 50.965,301.362 547.210,497.233  "/>
<polygon fill="#205774" points="59.078,562.131 377.480,24.395 204.192,395.334  "/>
<polygon fill="#536b10" points="541.411,433.264 0.618,239.194 53.116,65.555  "/>
<polygon fill="#83a7ec" points="328.277,120.461 475.650,542.538 171.703,198.276  "/>
</svg>