<?xml version="1.0" encoding="utf-8"?>
<!-- Generator: Python script. InTeResTinG -->
<!DOCTYPE svg PUBLIC "-//W3C//DTD SVG 1.1//EN" "http://www.w3.org/Graphics/SVG/1.1/DTD/svg11.dtd">
<svg version="1.1" id="Layer_1" xmlns="http://www.w3.org/2000/svg" xmlns:xlink="http://www.w3.org/1999/xlink" x="0px" y="0px" width="600.000px" height="600.000px" viewBox="0 0 600.000 600.000" enable-background="new 0 0 600.000 600.000" xml:space="preserve">
<polygon fill="#f4f86c" points="493.905,19.528 79.610,352.853 188.310,438.263  "/>
<polygon fill="#d8713d" points="496.741,206.042 126.009,65.972 235.905,217.427  "/>
<polygon fill="#166854" points="375.397,6.445 446.520,105.220 281.994,282.694  "/>
<polygon fill="#f320ff" points="256.384,1.298 404.141,329.662 487.887,18.579  "/>
<polygon fill="#4d0908" points="35.628,547.311 173.668,295.238 568.617,454.197  "/>
<polygon fill="#c6d175" points="127.388,585.067 65.590,395.440 55.486,57.636  "/>
<polygon fill="#a68e3f" points="454.287,466.853 401.559,161.270 259.322,26.590  "/>
<polygon fill="#ed989a" points="598.216,496.833 349.195,226.725 182.090,481.041  "/>
<polygon fill="#128ed5" points="367.550,220.087 114.407,272.788 413.881,373.686  "/>
<polygon fill="#7c7a08" points="265.001,97.492 167.315,78.140 532.137,564.453  "/>
<polygon fill="#ac65e2" points="41.657,212.603 366.389,88.759 367.418,596.197  "/>
<polygon fill="#e9b532" points="55.966,547.533 279.392,371.629 196.536,303.482  "/>
<polygon fill="#39c211" points="527.137,563.292 321.183,38.064 383.125,241.527  "/>
<polygon fill="#9c32da" points="122.318,200.260 143.304,468.255 457.149,469.373  "/>
<polygon fill="#b196fa" points="288.934,154.610 377.442,508.104 195.096,529.763  "/>
<polygon fill="#cfca1b" points="451.074,507.096 378.554,401.942 430.715,92.639  "/>
<polygon fill="#98b285" points="41.095,481.564 331.419,252.910 341.899,109.877  "/>
<polygon fill="#b7789b" points="234.523,226.019 65.302,446.766 207.744,282.191  "/>
<polygon fill="#8140bf" points="66.089,196.536 449.239,114.765 113.084,119.338  "/>
<polygon fill="#582572" points="441.854,469.362 319.206,436.352 439.258,179.816  "/>
<polygon fill="#e6edb4" points="187.268,20.763 347.132,515.563 364.127,167.345  "/>
<polygon fill="#65f26c" points="110.066,565.769 466.952,392.215 390.707,293.447  "/>
<polygon fill="#72201e" points="85.504,348.138 64.478,455.115 140.471,402.215  "/>
<polygon fill="#287cc3" points="508.891,230.615 325.954,244.456 485.999,563.681  "/>
<polygon fill="#8347b7" points="131.346,168.696 417.864,515.813 139.063,51.810  "/>
<polygon fill="#554152" points="93.431,119.250 69.978,535.111 577.639,502.621  "/>
<polygon fill="#350616" points="9.306,268.507 457.461,508.449 152.664,412.096  "/>
<polygon fill="#0e715b" points="463.607,254.753 49.109,459.577 536.482,353.582  "/>
<polygon fill="#ecd3c9" points="383.865,102.989 351.727,289.304 222.613,348.740  "/>
<polygon fill="#c080de" points="586.872,23.459 457.018,462.483 91.490,557.161  "/>
<polygon fill="#c864a8" points="478.825,315.923 141.388,201.717 319.285,346.295  "/>
<polygon fill="#8113c4" points="490.833,217.956 267.264,18.027 330.740,567.898  "/>
<polygon fill="#ef8ca9" points="147.078,392.502 374.515,46.956 366.782,152.532  "/>
<polygon fill="#d60d1c" points="419.573,119.603 305.021,598.745 95.483,6.824  "/>
<polygon fill="#cf8204" points="220.068,163.477 130.612,305.978 81.270,309.332  "/>
<polygon fill="#548fd1" points="435.274,297.172 82.392,344.989 111.458,422.707  "/>
<polygon fill="#42d3c3" points="357.224,513.731 578.952,243.492 120.256,305.191  "/>
<polygon fill="#929d79" points="310.349,380.276 402.326,112.217 372.089,302.080  "/>
<polygon fill="#d99202" points="181.833,0.095 544.744,211.689 14.624,522.574  "/>
<polygon fill="#6ccf12" points="566.475,267.753 595.812,523.882 274.604,524.905  "/>
<polygon fill="#bf76a9" points="1.618,135.493 596.337,158.976 156.142,396.166  "/>
<polygon fill="#e7b996" points="576.418,584.035 153.498,114.130 480.437,185.481  "/>
<polygon fill="#207e83" points="443.067,7.503 519.848,416.629 174.091,541.537  "/>
<polygon fill="#4c7405" points="324.824,329.414 496.457,147.791 536.087,234.949  "/>
<polygon fill="#533b28" points="76.267,472.940 47.586,154.873 228.432,274.974  "/>
<polygon fill="#0e8002" points="117.033,576.968 567.499,484.434 380.044,530.168  "/>
<polygon fill="#aed811" points="527.448,410.432 55.304,422.577 105.837,361.291  "/>
<polygon fill="#ed899e" points="251.918,290.117 304.848,578.201 1.461,87.600  "/>
<polygon fill="#5f56d9" points="33.150,493.953 326.146,553.035 533.217,59.484  "/>
<polygon fill="#3295e6" points="251.256,41.525 58.429,156.156 515.532,562.096  "/>
<polygon fill="#950b3b" points="264.189,157.000 464.887,61.603 554.204,244.669  "/>
<polygon fill="#40b114" points="308.925,294.904 379.712,79.653 530.550,308.349  "/>
<polygon fill="#87b272" points="563.482,507.659 446.693,497.348 277.292,589.263  "/>
<polygon fill="#f59adc" points="429.275,22.845 381.077,411.035 371.955,11.567  "/>
<polygon fill="#9f892d" points="13.026,455.240 92.676,70.073 207.508,432.475  "/>
<polygon fill="#837aea" points="441.438,269.994 323.932,274.619 239.062,582.212  "/>
<polygon fill="#5d141f" points="447.723,273.760 439.105,78.645 16.912,570.053  "/>
<polygon fill="#a99454" points="389.138,51.755 20.306,43.488 386.343,531.382  "/>
<polygon fill="#dfe9bc" points="270.711,354.908 584.645,587.847 339.991,336.640  "/>
<polygon fill="#51d218" points="221.499,562.518 144.651,173.063 342.061,138.310  "/>
<polygon fill="#577264" points="157.908,588.673 527.912,228.077 243.047,395.289  "/>
</svg>