<?xml version="1.0" encoding="utf-8"?>
<!-- Generator: Python script. InTeResTinG -->
<!DOCTYPE svg PUBLIC "-//W3C//DTD SVG 1.1//EN" "http://www.w3.org/Graphics/SVG/1.1/DTD/svg11.dtd">
<svg version="1.1" id="Layer_1" xmlns="http://www.w3.org/2000/svg" xmlns:xlink="http://www.w3.org/1999/xlink" x="0px" y="0px" width="600.000px" height="600.000px" viewBox="0 0 600.000 600.000" enable-background="new 0 0 600.000 600.000" xml:space="preserve">
<polygon fill="#d67c0b" points="311.889,403.490 175.056,574.025 491.938,302.119  "/>
<polygon fill="#7d6da7" points="594.827,511.623 436.371,580.914 525.634,466.565  "/>
<polygon fill="#fb9c45" points="52.545,7.716 537.458,407.982 560.813,580.562  "/>
<polygon fill="#d3f28a" points="1.443,346.335 395.149,55.173 220.025,66.509  "/>
<polygon fill="#8a450c" points="385.754,519.516 458.509,394.300 338.386,88.519  "/>
<polygon fill="#320ce9" points="549.241,409.353 169.705,100.283 33.067,247.540  "/>
<polygon fill="#67babd" points="217.086,77.748 520.074,242.581 350.194,149.071  "/>
<polygon fill="#821c0c" points="318.252,495.410 314.751,394.202 348.087,484.680  "/>
<polygon fill="#d96c69" points="419.490,380.720 570.548,408.273 190.977,516.347  "/>
<polygon fill="#b66399" points="598.294,86.550 11.555,367.947 1.468,557.209  "/>
<polygon fill="#8f2d71" points="299.716,471.581 380.848,583.856 73.933,123.694  "/>
<polygon fill="#3584b9" points="308.325,147.403 96.538,128.969 55.272,472.946  "/>
<polygon fill="#257377" points="530.296,64.862 499.533,45.153 556.849,41.444  "/>
<polygon fill="#f6d658" points="278.701,275.023 40.944,67.702 11.487,85.482  "/>
<polygon fill="#1c428b" points="173.557,459.950 571.867,172.840 329.673,378.639  "/>
<polygon fill="#c1c055" points="574.353,42.871 83.401,128.596 572.845,333.684  "/>
<polygon fill="#6aad3d" points="581.350,261.892 44.247,565.785 219.471,475.786  "/>
<polygon fill="#5e389b" points="590.829,39.136 188.979,13.982 10.371,163.296  "/>
<polygon fill="#3ffda5" points="78.313,533.557 163.939,593.260 270.259,466.635  "/>
<polygon fill="#d363e0" points="282.339,354.407 389.477,386.659 489.390,467.595  "/>
<polygon fill="#405727" points="433.529,374.124 45.902,159.656 114.901,104.028  "/>
<polygon fill="#8fa62c" points="276.241,534.733 16.526,115.780 393.633,358.600  "/>
<polygon fill="#139b29" points="130.727,488.657 491.030,491.959 202.136,31.465  "/>
<polygon fill="#d25be7" points="368.262,89.148 526.061,381.398 518.732,229.949  "/>
<polygon fill="#be8d2b" points="595.794,36.953 433.347,552.850 552.645,350.028  "/>
<polygon fill="#780cfd" points="362.346,423.836 210.666,407.987 188.968,555.034  "/>
<polygon fill="#73b69a" points="354.241,342.121 582.159,496.892 115.957,29.739  "/>
<polygon fill="#b7d83f" points="109.746,333.252 503.065,133.489 54.878,449.713  "/>
<polygon fill="#523942" points="152.801,470.618 130.803,99.494 534.284,216.217  "/>
<polygon fill="#9add15" points="486.594,2.231 141.331,423.314 298.533,583.872  "/>
<polygon fill="#9732c8" points="341.651,10.703 547.942,428.705 550.968,425.017  "/>
<polygon fill="#6b416b" points="57.119,87.634 324.118,491.218 358.199,104.529  "/>
<polygon fill="#1971bc" points="436.979,469.596 202.403,17.073 285.744,437.935  "/>
<polygon fill="#539f90" points="138.466,43.949 53.359,44.890 212.718,487.244  "/>
<polygon fill="#26184e" points="369.700,519.117 256.825,13.073 368.123,162.393  "/>
<polygon fill="#e23af2" points="239.811,536.711 34.822,22.562 97.085,114.126  "/>
<polygon fill="#749d8c" points="261.853,421.480 547.846,298.693 206.080,551.252  "/>
<polygon fill="#0ceeaa" points="374.440,437.304 141.334,53.035 593.090,229.885  "/>
<polygon fill="#5a3ba2" points="589.443,175.979 580.795,436.404 590.563,462.395  "/>
<polygon fill="#f6e6a3" points="39.688,235.777 42.603,116.252 344.540,62.694  "/>
<polygon fill="#494258" points="31.031,83.701 392.428,61.760 180.651,374.496  "/>
<polygon fill="#149ead" points="214.992,334.662 584.030,407.207 354.787,428.135  "/>
<polygon fill="#e61819" points="443.916,294.950 336.347,247.243 175.972,53.004  "/>
<polygon fill="#7d2289" points="330.987,188.929 429.770,50.930 178.470,567.101  "/>
<polygon fill="#6a5e7f" points="365.714,215.692 324.388,277.574 104.048,332.488  "/>
<polygon fill="#48353a" points="47.524,170.599 587.804,97.190 313.866,248.366  "/>
<polygon fill="#7cf2b5" points="463.976,142.882 343.632,222.721 180.312,380.801  "/>
<polygon fill="#7114dc" points="514.630,557.997 275.597,305.964 261.946,208.955  "/>
<polygon fill="#94f0a7" points="395.314,134.877 183.109,128.155 120.912,260.739  "/>
<polygon fill="#45ad61" points="68.268,190.390 337.363,549.545 572.578,500.931  "/>
<polygon fill="#79b19f" points="498.841,52.691 132.211,35.504 585.664,98.766  "/>
<polygon fill="#e79bc2" points="272.621,359.126 250.575,216.995 537.579,144.547  "/>
<polygon fill="#2eee4f" points="166.844,356.622 213.767,269.613 206.159,92.665  "/>
<polygon fill="#8b4a80" points="542.736,184.212 516.655,170.599 176.139,274.767  "/>
<polygon fill="#c6f31b" points="255.330,270.019 421.819,481.542 357.888,488.179  "/>
<polygon fill="#1bcd51" points="110.667,586.514 110.657,48.317 29.180,251.485  "/>
<polygon fill="#d76d04" points="368.524,270.646 117.060,287.656 88.701,387.668  "/>
<polygon fill="#21911c" points="461.480,550.782 584.345,28.605 542.264,240.805  "/>
<polygon fill="#6a0213" points="397.863,225.093 346.318,528.962 82.686,341.069  "/>
<polygon fill="#6caa92" points="550.187,528.268 129.683,160.813 429.977,584.206  "/>
<polygon fill="#82aefb" points="419.700,79.629 193.119,278.522 540.024,259.036  "/>
<polygon fill="#189723" points="511.122,524.952 261.222,211.440 570.348,322.224  "/>
<polygon fill="#95f3eb" points="466.504,378.635 23.077,585.266 351.231,154.748  "/>
<polygon fill="#4f8eba" points="45.302,287.357 518.147,555.080 404.079,248.301  "/>
<polygon fill="#ff4827" points="224.293,474.181 452.463,0.886 463.313,95.539  "/>
<polygon fill="#e4062a" points="71.670,351.390 419.106,353.747 364.120,434.435  "/>
<polygon fill="#0cad47" points="386.741,55.502 162.340,22.512 504.150,334.591  "/>
<polygon fill="#648dca" points="59.869,356.803 547.944,211.374 47.648,247.555  "/>
<polygon fill="#37e1e2" points="348.135,230.256 3.953,219.328 583.406,447.783  "/>
</svg>