<?xml version="1.0" encoding="utf-8"?>
<!-- Generator: Python script. InTeResTinG -->
<!DOCTYPE svg PUBLIC "-//W3C//DTD SVG 1.1//EN" "http://www.w3.org/Graphics/SVG/1.1/DTD/svg11.dtd">
<svg version="1.1" id="Layer_1" xmlns="http://www.w3.org/2000/svg" xmlns:xlink="http://www.w3.org/1999/xlink" x="0px" y="0px" width="600.000px" height="600.000px" viewBox="0 0 600.000 600.000" enable-background="new 0 0 600.000 600.000" xml:space="preserve">
<polygon fill="#4c8633" points="548.191,204.961 420.501,442.159 433.405,427.536  "/>
<polygon fill="#0a278e" points="282.800,420.737 286.753,316.495 556.626,427.321  "/>
<polygon fill="#3bfd36" points="594.466,66.413 288.430,569.577 436.161,491.654  "/>
<polygon fill="#c37c1a" points="507.749,431.481 152.518,242.173 114.908,212.993  "/>
<polygon fill="#83c753" points="229.249,74.974 34.121,11.897 497.739,235.130  "/>
<polygon fill="#b533f5" points="4.047,30.523 223.212,178.174 547.022,17.021  "/>
<polygon fill="#9aa5b9" points="295.004,38.729 212.387,365.816 156.076,408.291  "/>
<polygon fill="#b5665c" points="129.353,395.773 514.192,296.382 120.908,94.375  "/>
<polygon fill="#067667" points="228.337,0.746 68.241,426.468 506.760,134.033  "/>
<polygon fill="#6127c3" points="195.831,422.726 465.804,106.906 418.380,578.811  "/>
<polygon fill="#9d43fd" points="296.668,229.297 443.152,505.256 305.153,237.027  "/>
<polygon fill="#fa863f" points="532.290,425.797 221.092,147.996 392.148,429.476  "/>
<polygon fill="#20579f" points="515.065,377.084 573.664,533.706 88.199,289.419  "/>
<polygon fill="#d2d2f2" points="546.348,291.180 111.167,175.163 360.695,589.042  "/>
<polygon fill="#4d092b" points="150.534,251.468 280.988,167.650 257.533,445.888  "/>
<polygon fill="#044cad" points="153.465,154.346 385.814,457.036 299.695,20.979  "/>
<polygon fill="#08ece5" points="451.913,464.915 280.068,225.471 413.857,549.339  "/>
<polygon fill="#ab7c94" points="538.237,140.434 511.207,51.358 269.145,433.582  "/>
<polygon fill="#2d7064" points="407.220,44.135 266.189,3.775 530.728,450.331  "/>
<polygon fill="#04439b" points="49.813,261.950 154.712,352.774 489.700,437.455  "/>
<polygon fill="#0f544d" points="521.403,210.504 3.563,491.084 210.467,384.092  "/>
<polygon fill="#1023cf" points="513.183,139.061 129.615,386.029 201.870,343.942  "/>
<polygon fill="#fd3377" points="576.937,413.680 279.161,107.192 118.989,455.826  "/>
<polygon fill="#d1f4f4" points="215.630,312.280 261.435,324.277 191.197,227.932  "/>
<polygon fill="#cff735" points="205.445,449.055 271.400,12.387 34.826,492.868  "/>
<polygon fill="#930d13" points="468.442,96.070 465.580,365.812 87.819,502.828  "/>
<polygon fill="#7acb02" points="505.406,328.132 45.701,12.700 177.771,582.854  "/>
<polygon fill="#76b669" points="156.574,298.553 497.834,282.369 514.990,543.420  "/>
<polygon fill="#c116fc" points="352.662,468.340 200.038,339.747 99.506,409.206  "/>
<polygon fill="#1d59ae" points="118.263,134.855 262.624,588.045 523.381,104.057  "/>
<polygon fill="#3b758f" points="87.583,257.247 58.464,501.309 150.573,234.072  "/>
<polygon fill="#09d425" points="200.948,86.659 204.032,75.986 24.192,161.007  "/>
<polygon fill="#c2f6f9" points="529.183,202.274 588.981,69.122 325.430,188.146  "/>
<polygon fill="#eb8e7f" points="156.050,504.072 499.270,46.285 303.786,188.754  "/>
<polygon fill="#04bc67" points="382.526,538.329 426.759,453.791 14.468,351.988  "/>
<polygon fill="#bc6257" points="15.532,248.780 237.872,196.582 379.705,303.040  "/>
<polygon fill="#0405d3" points="214.675,63.065 462.217,161.228 202.355,289.190  "/>
<polygon fill="#1fca9e" points="459.048,592.015 131.237,201.591 16.095,190.618  "/>
<polygon fill="#38cb0e" points="515.571,5.854 581.829,143.068 49.141,156.895  "/>
<polygon fill="#dfdd27" points="246.104,133.150 183.274,498.190 516.114,456.011  "/>
<polygon fill="#e20d98" points="19.558,211.179 345.564,107.430 2.164,538.764  "/>
<polygon fill="#d7d3dc" points="166.415,340.114 573.510,94.666 111.540,574.603  "/>
<polygon fill="#85e747" points="3.007,320.564 513.809,479.846 208.784,92.581  "/>
<polygon fill="#890c08" points="414.186,136.575 63.267,96.287 596.980,575.197  "/>
<polygon fill="#ad0359" points="470.018,175.623 266.006,200.390 402.266,188.835  "/>
<polygon fill="#ec8a9a" points="452.872,394.179 347.462,111.133 280.433,433.408  "/>
<polygon fill="#41e873" points="148.072,579.270 284.984,532.538 171.746,486.307  "/>
<polygon fill="#9343c7" points="555.512,425.296 53.230,1.829 291.499,200.129  "/>
<polygon fill="#2e554e" points="17.822,340.628 539.223,425.953 125.908,382.234  "/>
<polygon fill="#bb6bee" points="311.207,70.034 512.983,553.479 372.005,536.740  "/>
<polygon fill="#fa835c" points="489.013,417.395 272.379,542.995 191.162,391.914  "/>
<polygon fill="#778770" points="48.809,483.452 311.760,35.871 560.301,183.635  "/>
<polygon fill="#7ee0f1" points="416.821,102.271 191.669,148.735 139.298,28.649  "/>
<polygon fill="#7274f3" points="356.642,85.619 487.676,305.608 53.034,217.152  "/>
<polygon fill="#3a0724" points="58.677,318.480 291.410,452.494 41.252,249.426  "/>
<polygon fill="#292124" points="557.804,106.137 401.534,544.170 306.767,247.946  "/>
<polygon fill="#a67a49" points="85.521,397.806 499.967,301.347 262.659,16.639  "/>
<polygon fill="#3391e7" points="271.923,15.715 77.839,448.991 344.768,400.305  "/>
<polygon fill="#d09e90" points="273.337,33.587 282.731,54.552 152.736,335.099  "/>
<polygon fill="#827c62" points="230.175,562.425 238.642,454.784 436.178,380.853  "/>
<polygon fill="#bb07f7" points="429.784,199.242 160.737,106.635 281.383,554.800  "/>
<polygon fill="#d69615" points="474.842,153.190 10.547,570.021 131.610,434.850  "/>
<polygon fill="#a5476a" points="569.813,248.782 276.177,1.888 551.798,242.829  "/>
<polygon fill="#9215c2" points="146.696,24.459 165.637,163.604 507.569,51.152  "/>
<polygon fill="#151a2a" points="492.593,25.719 150.443,326.346 84.390,435.367  "/>
<polygon fill="#6cb57d" points="170.443,369.749 207.728,562.590 367.730,212.147  "/>
<polygon fill="#15d0e6" points="114.145,495.112 285.984,322.473 391.320,399.229  "/>
</svg>