<?xml version="1.0" encoding="utf-8"?>
<!-- Generator: Python script. InTeResTinG -->
<!DOCTYPE svg PUBLIC "-//W3C//DTD SVG 1.1//EN" "http://www.w3.org/Graphics/SVG/1.1/DTD/svg11.dtd">
<svg version="1.1" id="Layer_1" xmlns="http://www.w3.org/2000/svg" xmlns:xlink="http://www.w3.org/1999/xlink" x="0px" y="0px" width="600.000px" height="600.000px" viewBox="0 0 600.000 600.000" enable-background="new 0 0 600.000 600.000" xml:space="preserve">
<polygon fill="#ad2e60" points="503.718,192.153 502.327,226.858 439.681,314.097  "/>
<polygon fill="#8d9410" points="537.797,574.763 249.994,389.415 294.736,250.915  "/>
<polygon fill="#4f59c1" points="253.478,536.701 356.520,110.974 27.916,449.921  "/>
<polygon fill="#bb4961" points="168.897,312.363 492.533,106.304 555.228,63.030  "/>
<polygon fill="#b46d8c" points="300.522,496.663 198.056,95.550 539.836,241.743  "/>
<polygon fill="#7d730c" points="393.954,550.728 148.601,25.117 561.016,341.595  "/>
<polygon fill="#74fdd2" points="343.733,63.221 287.726,343.115 171.209,252.468  "/>
<polygon fill="#71482c" points="194.702,486.098 412.627,291.014 452.845,329.507  "/>
<polygon fill="#e0dd4f" points="479.948,394.457 586.178,18.137 107.694,512.290  "/>
<polygon fill="#8640d7" points="596.357,86.921 528.951,480.219 74.991,47.910  "/>
<polygon fill="#61fdc1" points="127.568,537.309 246.784,33.160 209.675,180.645  "/>
<polygon fill="#cdd074" points="253.025,185.196 348.952,551.411 183.987,295.250  "/>
<polygon fill="#7e56c7" points="104.638,231.696 73.908,437.861 562.418,441.304  "/>
<polygon fill="#5c7b97" points="330.726,282.415 297.777,450.349 165.187,489.897  "/>
<polygon fill="#34c281" points="345.122,68.089 568.512,392.234 176.494,288.615  "/>
<polygon fill="#fae85f" points="171.944,484.405 147.558,436.872 536.422,531.681  "/>
<polygon fill="#35e50a" points="248.525,497.659 46.252,476.098 25.467,347.886  "/>
<polygon fill="#8a72ee" points="127.971,125.464 321.030,93.403 145.782,580.972  "/>
<polygon fill="#60e460" points="6.863,127.485 497.113,177.356 500.224,357.353  "/>
<polygon fill="#66c64c" points="398.905,596.366 21.800,268.484 232.176,591.512  "/>
<polygon fill="#4e13f3" points="103.440,206.107 585.564,239.741 138.762,356.480  "/>
<polygon fill="#ea4463" points="597.738,536.406 118.316,210.563 172.637,435.888  "/>
<polygon fill="#8a4059" points="176.797,131.794 402.737,554.216 224.866,289.982  "/>
<polygon fill="#f8a862" points="591.457,237.082 421.815,268.558 431.164,337.861  "/>
<polygon fill="#7a7370" points="280.487,289.526 400.788,124.829 216.318,248.003  "/>
<polygon fill="#f7ea0f" points="577.074,137.035 363.767,131.586 593.968,486.076  "/>
<polygon fill="#7cb643" points="431.948,44.785 114.504,338.897 501.927,125.785  "/>
<polygon fill="#be6c84" points="490.268,570.675 450.624,545.299 330.156,289.929  "/>
<polygon fill="#74ee1b" points="179.910,220.031 487.448,162.202 472.111,271.886  "/>
<polygon fill="#bdac02" points="39.212,515.100 448.767,402.450 9.827,379.159  "/>
<polygon fill="#0cfd4d" points="173.424,427.537 207.843,184.830 70.294,473.004  "/>
<polygon fill="#ae787d" points="213.859,212.471 380.213,46.432 461.326,225.513  "/>
<polygon fill="#1894ce" points="329.337,510.375 295.812,578.513 149.168,176.581  "/>
<polygon fill="#6fb556" points="317.958,546.092 242.993,438.097 553.692,455.791  "/>
<polygon fill="#8e677f" points="380.588,119.225 57.231,445.471 168.148,256.376  "/>
<polygon fill="#f210aa" points="393.771,293.200 322.941,582.798 129.691,492.086  "/>
<polygon fill="#c60ec5" points="125.372,336.925 207.071,520.000 238.457,509.012  "/>
<polygon fill="#a5f25e" points="453.427,255.085 197.516,433.243 416.903,4.787  "/>
<polygon fill="#c6bfed" points="553.812,11.223 345.868,46.663 192.049,31.277  "/>
<polygon fill="#26a84f" points="599.671,513.625 334.266,567.711 437.112,480.323  "/>
<polygon fill="#ba4581" points="54.290,449.964 87.613,596.129 392.274,227.721  "/>
<polygon fill="#35b747" points="159.590,342.778 366.719,37.359 46.411,52.184  "/>
<polygon fill="#c45b93" points="522.679,380.633 527.756,280.598 180.618,335.000  "/>
<polygon fill="#fbeec2" points="186.184,395.165 33.501,299.037 348.893,444.186  "/>
<polygon fill="#227db2" points="221.224,582.759 228.513,590.282 31.178,541.978  "/>
<polygon fill="#9992cd" points="157.943,389.019 8.849,472.845 426.756,33.458  "/>
<polygon fill="#8f94a8" points="388.068,204.663 85.803,524.317 344.069,428.551  "/>
<polygon fill="#ddd2f2" points="547.695,25.352 40.123,276.243 231.631,193.738  "/>
<polygon fill="#4ebc6a" points="190.012,457.679 147.211,503.629 264.226,306.292  "/>
<polygon fill="#fb013e" points="215.759,599.730 387.360,466.596 235.629,556.699  "/>
<polygon fill="#60f72d" points="423.749,350.993 290.273,348.714 341.133,526.682  "/>
<polygon fill="#ac6026" points="370.138,302.883 521.584,594.217 525.358,565.829  "/>
</svg>