<?xml version="1.0" encoding="utf-8"?>
<!-- Generator: Python script. InTeResTinG -->
<!DOCTYPE svg PUBLIC "-//W3C//DTD SVG 1.1//EN" "http://www.w3.org/Graphics/SVG/1.1/DTD/svg11.dtd">
<svg version="1.1" id="Layer_1" xmlns="http://www.w3.org/2000/svg" xmlns:xlink="http://www.w3.org/1999/xlink" x="0px" y="0px" width="600.000px" height="600.000px" viewBox="0 0 600.000 600.000" enable-background="new 0 0 600.000 600.000" xml:space="preserve">
<polygon fill="#dd2aef" points="138.208,546.110 395.107,110.298 361.237,582.263  "/>
<polygon fill="#c0d739" points="411.201,426.440 414.093,564.615 156.191,518.288  "/>
<polygon fill="#f24fbc" points="256.024,576.664 244.983,539.345 414.392,588.946  "/>
<polygon fill="#908563" points="506.222,457.125 541.272,430.840 95.293,435.554  "/>
<polygon fill="#609e8b" points="73.640,354.453 425.729,151.427 187.325,118.064  "/>
<polygon fill="#9db898" points="386.645,79.707 330.205,83.489 93.883,130.712  "/>
<polygon fill="#1582d4" points="465.535,159.177 301.356,453.750 277.618,215.044  "/>
<polygon fill="#1acfa4" points="124.627,3.083 585.015,438.928 2.975,457.042  "/>
<polygon fill="#d5fe30" points="97.253,102.774 291.798,37.461 557.694,288.897  "/>
<polygon fill="#6e14a3" points="15.343,381.353 415.081,579.277 345.434,103.963  "/>
<polygon fill="#6ad0fc" points="240.224,439.128 579.203,318.338 4.183,250.510  "/>
<polygon fill="#59d16b" points="333.198,417.976 356.174,243.777 36.228,224.926  "/>
<polygon fill="#962d75" points="165.582,242.875 518.776,38.093 123.797,485.524  "/>
<polygon fill="#86eab9" points="336.042,417.152 301.338,77.996 25.240,400.505  "/>
<polygon fill="#353e19" points="469.984,524.047 427.295,37.287 475.513,394.354  "/>
<polygon fill="#87f977" points="383.519,438.564 593.817,219.906 374.084,394.723  "/>
<polygon fill="#edcb07" points="528.144,181.507 534.218,286.200 555.660,178.514  "/>
<polygon fill="#f386ed" points="12.972,36.365 538.391,316.308 142.154,202.744  "/>
<polygon fill="#a77592" points="429.316,193.151 93.226,191.942 487.884,122.170  "/>
<polygon fill="#a58239" points="422.533,47.080 48.147,62.150 367.526,271.057  "/>
<polygon fill="#f79982" points="298.816,525.476 25.048,444.505 83.374,164.708  "/>
<polygon fill="#122fbd" points="261.047,72.011 453.954,130.243 449.045,401.764  "/>
<polygon fill="#102569" points="535.648,504.666 498.915,210.798 142.101,333.483  "/>
<polygon fill="#a455aa" points="385.330,433.651 449.286,158.995 93.996,443.501  "/>
<polygon fill="#1ac1f9" points="429.007,262.478 447.032,102.291 463.796,410.153  "/>
<polygon fill="#b9ff4b" points="245.834,486.110 203.141,178.897 15.884,107.521  "/>
<polygon fill="#44240e" points="272.794,80.831 372.487,558.944 538.750,236.619  "/>
<polygon fill="#2f6e8d" points="73.452,525.969 325.999,129.728 149.903,224.001  "/>
<polygon fill="#611b88" points="490.355,64.636 287.367,252.770 573.242,144.562  "/>
<polygon fill="#af036c" points="146.806,162.469 199.075,370.323 562.948,422.573  "/>
<polygon fill="#e9277d" points="74.625,255.450 217.659,226.185 292.499,277.361  "/>
<polygon fill="#b320fb" points="44.029,452.820 134.958,506.509 527.074,503.191  "/>
<polygon fill="#833e0f" points="215.795,42.120 175.977,175.363 597.999,421.272  "/>
<polygon fill="#12b5b9" points="534.361,412.488 235.353,578.027 104.021,557.239  "/>
<polygon fill="#33a4d1" points="449.031,54.275 164.051,351.181 9.596,598.856  "/>
<polygon fill="#bbcd4d" points="292.080,104.390 196.419,393.554 86.446,158.649  "/>
<polygon fill="#f01a46" points="260.671,114.031 23.699,584.167 2.302,226.261  "/>
<polygon fill="#655791" points="37.650,98.953 262.795,228.517 169.132,405.765  "/>
<polygon fill="#e5c4f4" points="354.604,174.924 268.654,569.396 21.361,100.998  "/>
<polygon fill="#a31e20" points="416.405,484.083 180.044,54.966 467.629,569.888  "/>
<polygon fill="#bb6920" points="114.016,358.092 583.153,20.164 522.991,370.861  "/>
<polygon fill="#b19493" points="362.136,317.036 283.990,222.743 164.388,549.585  "/>
<polygon fill="#7ceb28" points="374.158,87.345 65.661,152.239 542.484,305.162  "/>
<polygon fill="#e246f4" points="60.275,195.097 462.206,301.626 548.454,46.254  "/>
<polygon fill="#4c1184" points="264.554,310.251 158.787,163.355 140.147,399.128  "/>
<polygon fill="#16c919" points="54.467,193.746 598.230,180.311 53.383,212.440  "/>
<polygon fill="#0af419" points="494.255,372.758 49.648,533.149 138.958,284.141  "/>
<polygon fill="#7c0633" points="68.729,220.736 557.946,414.400 537.841,298.518  "/>
<polygon fill="#acb4b9" points="157.832,576.493 24.969,583.604 499.021,443.419  "/>
<polygon fill="#ea6ee9" points="450.829,48.842 500.406,261.373 108.408,40.049  "/>
<polygon fill="#00195d" points="227.316,229.484 507.623,358.191 582.862,214.978  "/>
<polygon fill="#54d6c3" points="180.349,545.665 512.684,206.911 264.439,139.038  "/>
<polygon fill="#381e0d" points="397.449,425.454 562.706,375.005 479.548,540.748  "/>
<polygon fill="#7293ab" points="46.692,520.768 283.187,552.560 310.296,235.763  "/>
<polygon fill="#416699" points="93.872,270.020 102.542,100.248 216.374,325.555  "/>
<polygon fill="#f97544" points="328.299,276.834 445.669,159.113 537.596,504.727  "/>
<polygon fill="#06105c" points="560.542,596.969 216.589,396.370 446.226,515.577  "/>
<polygon fill="#be6b70" points="578.337,56.700 474.080,85.125 507.922,331.261  "/>
<polygon fill="#7a75e1" points="538.179,146.625 430.973,221.229 231.152,267.709  "/>
<polygon fill="#7357fa" points="155.295,214.163 417.237,166.970 367.580,105.214  "/>
<polygon fill="#e4227e" points="142.243,260.411 530.066,32.690 218.956,390.575  "/>
<polygon fill="#1bf3ef" points="358.546,359.320 153.444,33.298 417.308,459.514  "/>
</svg>