<?xml version="1.0" encoding="utf-8"?>
<!-- Generator: Python script. InTeResTinG -->
<!DOCTYPE svg PUBLIC "-//W3C//DTD SVG 1.1//EN" "http://www.w3.org/Graphics/SVG/1.1/DTD/svg11.dtd">
<svg version="1.1" id="Layer_1" xmlns="http://www.w3.org/2000/svg" xmlns:xlink="http://www.w3.org/1999/xlink" x="0px" y="0px" width="600.000px" height="600.000px" viewBox="0 0 600.000 600.000" enable-background="new 0 0 600.000 600.000" xml:space="preserve">
<polygon fill="#c8b143" points="55.813,428.954 182.214,177.906 466.099,483.483  "/>
<polygon fill="#031be7" points="331.845,435.942 92.038,406.375 102.530,265.810  "/>
<polygon fill="#547a6d" points="390.310,2.563 430.225,432.761 9.222,290.306  "/>
<polygon fill="#5ebc69" points="339.650,17.842 453.256,483.843 397.213,572.874  "/>
<polygon fill="#740491" points="186.250,301.641 211.573,117.216 282.414,566.643  "/>
<polygon fill="#87579f" points="30.382,296.007 592.419,100.058 137.784,117.438  "/>
<polygon fill="#302f62" points="83.983,244.035 513.654,243.525 593.436,249.582  "/>
<polygon fill="#002265" points="290.884,387.076 576.239,518.430 504.870,196.419  "/>
<polygon fill="#e03ed4" points="444.124,324.856 123.828,134.210 193.342,355.679  "/>
<polygon fill="#ab9011" points="589.034,98.510 226.037,300.978 576.843,412.091  "/>
<polygon fill="#0a5ea4" points="496.351,407.314 412.008,545.309 4.248,286.864  "/>
<polygon fill="#6a337b" points="1.747,126.085 451.164,155.597 12.430,314.587  "/>
<polygon fill="#3e89e0" points="364.060,440.731 82.174,275.465 54.591,540.402  "/>
<polygon fill="#1311fc" points="551.909,110.922 122.937,527.650 489.958,422.408  "/>
<polygon fill="#eaee67" points="483.607,584.699 296.955,356.931 301.411,586.775  "/>
<polygon fill="#2b13f5" points="88.910,473.972 406.427,80.772 393.045,227.769  "/>
<polygon fill="#679840" points="191.078,115.905 282.547,99.885 225.488,503.324  "/>
<polygon fill="#d48661" points="554.958,228.049 294.308,137.613 591.756,279.002  "/>
<polygon fill="#5d98a3" points="494.656,56.071 130.055,69.155 388.678,2.460  "/>
<polygon fill="#461fc7" points="105.698,220.575 102.977,65.110 312.439,151.730  "/>
<polygon fill="#7e7d05" points="318.570,12.456 110.463,60.343 383.586,459.052  "/>
<polygon fill="#8003a6" points="202.042,468.586 297.896,255.967 45.684,336.671  "/>
<polygon fill="#467cad" points="43.478,176.129 241.090,329.248 595.813,149.870  "/>
<polygon fill="#503ca3" points="329.497,75.226 472.783,111.946 244.519,198.329  "/>
<polygon fill="#ef65a5" points="400.592,22.981 431.319,118.809 60.337,139.611  "/>
<polygon fill="#f9bedd" points="190.768,393.865 562.775,587.141 26.595,210.300  "/>
<polygon fill="#5943fc" points="337.556,249.896 587.225,7.246 2.364,255.142  "/>
<polygon fill="#2c85af" points="75.522,314.686 136.462,353.191 494.563,545.414  "/>
<polygon fill="#878832" points="379.341,582.429 597.189,430.620 482.765,52.208  "/>
<polygon fill="#863793" points="213.935,232.082 486.775,281.541 165.311,189.900  "/>
<polygon fill="#9d7561" points="110.032,338.201 237.514,369.217 550.533,2.652  "/>
<polygon fill="#a47a9a" points="332.446,409.013 431.240,35.288 378.472,81.853  "/>
<polygon fill="#52b82d" points="279.667,152.500 153.298,423.212 534.146,583.275  "/>
<polygon fill="#bc51b3" points="52.567,222.970 328.750,585.350 464.903,519.504  "/>
<polygon fill="#a0eeed" points="91.308,501.180 314.111,351.007 171.821,68.783  "/>
<polygon fill="#fa16c1" points="405.217,381.889 49.477,464.620 1.654,225.112  "/>
<polygon fill="#949fb1" points="85.694,122.814 175.147,54.311 366.809,386.867  "/>
<polygon fill="#6f509f" points="420.985,47.485 380.597,35.545 432.322,36.314  "/>
<polygon fill="#535d01" points="272.251,449.555 550.246,465.362 321.257,426.813  "/>
<polygon fill="#33b78d" points="97.526,272.476 589.444,105.714 28.911,467.449  "/>
<polygon fill="#57e89e" points="421.467,495.516 420.064,312.989 362.614,512.413  "/>
<polygon fill="#900b1c" points="38.156,256.432 203.715,477.289 227.153,415.579  "/>
<polygon fill="#a03c43" points="96.464,457.743 251.727,214.960 254.487,264.383  "/>
<polygon fill="#d67110" points="174.663,592.247 278.740,489.239 177.836,471.241  "/>
<polygon fill="#a7a837" points="278.600,485.266 76.973,177.746 234.741,304.027  "/>
<polygon fill="#d829ce" points="201.282,133.818 331.804,443.532 251.385,538.414  "/>
<polygon fill="#ffa1e4" points="424.715,449.573 281.361,426.622 138.247,166.981  "/>
<polygon fill="#3ce101" points="429.732,100.443 435.144,364.261 88.809,249.428  "/>
<polygon fill="#5fd0ae" points="122.219,80.058 203.942,446.712 56.716,54.385  "/>
<polygon fill="#045185" points="465.945,512.881 332.078,79.334 251.823,312.460  "/>
<polygon fill="#579f26" points="444.811,198.224 382.111,22.658 563.369,473.188  "/>
<polygon fill="#cac8c7" points="436.985,574.598 300.947,97.716 246.164,193.682  "/>
<polygon fill="#874750" points="169.198,100.492 107.479,129.806 25.724,408.023  "/>
<polygon fill="#9d893e" points="115.910,281.262 423.242,1.821 366.469,299.251  "/>
<polygon fill="#b54079" points="390.416,545.279 211.980,348.644 23.050,11.322  "/>
<polygon fill="#9b02c2" points="9.610,543.074 285.648,290.327 440.159,418.285  "/>
<polygon fill="#785827" points="152.699,189.348 349.075,115.942 137.997,99.134  "/>
<polygon fill="#777bf6" points="24.343,90.592 206.380,91.662 546.665,403.372  "/>
<polygon fill="#947aeb" points="192.974,275.357 82.834,497.323 432.902,62.995  "/>
<polygon fill="#ba7c5d" points="155.521,39.656 575.230,337.539 324.898,599.801  "/>
</svg>