<?xml version="1.0" encoding="utf-8"?>
<!-- Generator: Python script. InTeResTinG -->
<!DOCTYPE svg PUBLIC "-//W3C//DTD SVG 1.1//EN" "http://www.w3.org/Graphics/SVG/1.1/DTD/svg11.dtd">
<svg version="1.1" id="Layer_1" xmlns="http://www.w3.org/2000/svg" xmlns:xlink="http://www.w3.org/1999/xlink" x="0px" y="0px" width="600.000px" height="600.000px" viewBox="0 0 600.000 600.000" enable-background="new 0 0 600.000 600.000" xml:space="preserve">
<polygon fill="#354f45" points="71.225,129.759 260.290,537.674 81.654,481.379  "/>
<polygon fill="#34221e" points="219.840,243.450 250.614,153.909 187.122,72.945  "/>
<polygon fill="#d8eb28" points="234.340,285.322 93.169,6.264 149.902,141.685  "/>
<polygon fill="#d88069" points="297.697,408.102 235.633,139.802 226.777,568.106  "/>
<polygon fill="#9b6522" points="484.085,320.613 136.562,217.517 228.854,89.097  "/>
<polygon fill="#f1f36a" points="416.239,286.542 87.018,267.548 48.296,523.117  "/>
<polygon fill="#6a9422" points="379.335,1.701 211.389,33.333 309.039,82.937  "/>
<polygon fill="#4d5834" points="418.985,245.488 155.252,27.619 114.959,393.329  "/>
<polygon fill="#da4c5f" points="331.358,213.298 230.306,593.471 428.265,581.237  "/>
<polygon fill="#010fd0" points="512.356,24.256 536.428,31.048 16.240,357.312  "/>
<polygon fill="#943a2b" points="187.225,578.007 322.532,0.819 548.253,22.271  "/>
<polygon fill="#f75178" points="266.979,271.924 455.262,204.949 191.017,434.317  "/>
<polygon fill="#2eb782" points="352.797,322.353 434.792,310.013 367.764,571.876  "/>
<polygon fill="#ca0440" points="127.569,103.320 524.850,440.986 125.804,596.551  "/>
<polygon fill="#0ae573" points="73.042,316.134 480.137,70.390 165.541,554.785  "/>
<polygon fill="#dbac8a" points="410.810,573.453 161.110,226.807 395.634,217.137  "/>
<polygon fill="#7788ec" points="403.567,458.283 256.913,519.314 439.351,345.223  "/>
<polygon fill="#2faf34" points="510.495,369.948 172.336,17.723 138.969,435.359  "/>
<polygon fill="#760fac" points="550.867,559.627 144.505,391.510 92.402,250.124  "/>
<polygon fill="#e8b93b" points="492.792,321.204 512.847,516.343 485.339,22.459  "/>
<polygon fill="#0526ce" points="32.972,590.396 422.333,490.464 284.870,562.305  "/>
<polygon fill="#28b412" points="220.683,215.415 166.789,290.380 295.078,171.038  "/>
<polygon fill="#76dc2b" points="115.394,381.460 127.419,569.516 19.163,43.257  "/>
<polygon fill="#0e8705" points="479.536,78.602 237.265,168.193 23.569,413.377  "/>
<polygon fill="#e97cd2" points="171.170,122.591 283.198,128.695 61.497,514.203  "/>
<polygon fill="#b555aa" points="463.434,287.133 109.601,170.215 88.512,598.404  "/>
<polygon fill="#bc1fcd" points="329.425,204.585 448.535,551.424 383.552,393.412  "/>
<polygon fill="#937548" points="458.532,479.573 437.968,569.958 439.141,263.171  "/>
<polygon fill="#bb1153" points="216.793,557.156 338.082,405.443 364.460,264.165  "/>
<polygon fill="#3b96df" points="207.540,149.263 367.493,361.357 22.893,351.250  "/>
<polygon fill="#82051c" points="580.811,398.578 227.412,190.924 576.405,65.978  "/>
<polygon fill="#5eeea3" points="160.737,151.817 204.425,215.493 500.598,94.800  "/>
<polygon fill="#d971f6" points="55.359,386.910 443.323,253.394 422.833,120.156  "/>
<polygon fill="#f0940a" points="552.311,308.139 365.543,500.985 314.005,277.483  "/>
<polygon fill="#ab5e24" points="21.157,347.946 75.600,14.421 536.962,70.588  "/>
<polygon fill="#5e9889" points="400.030,171.786 365.516,514.894 207.378,107.737  "/>
<polygon fill="#b1324b" points="362.985,261.606 470.479,150.866 566.678,302.926  "/>
<polygon fill="#3905fb" points="543.350,62.441 71.176,2.331 147.256,393.464  "/>
<polygon fill="#1a7a62" points="216.616,139.312 442.263,520.162 562.434,424.341  "/>
<polygon fill="#fd42b8" points="133.020,363.280 397.890,443.604 350.237,566.937  "/>
<polygon fill="#b3d228" points="51.792,247.786 54.942,195.228 241.280,361.298  "/>
<polygon fill="#97ac49" points="331.698,284.603 474.636,156.482 528.942,38.337  "/>
<polygon fill="#b13ab0" points="467.393,357.132 324.554,143.337 350.742,519.491  "/>
<polygon fill="#32d005" points="420.954,436.172 206.334,172.291 412.609,567.803  "/>
<polygon fill="#3010fd" points="75.325,267.653 586.625,378.667 581.068,548.083  "/>
<polygon fill="#43de55" points="27.485,485.104 26.869,413.842 394.912,329.569  "/>
<polygon fill="#4d7e4f" points="441.074,9.758 303.511,483.197 276.303,354.897  "/>
<polygon fill="#c61c34" points="60.054,561.519 243.915,200.085 113.675,84.101  "/>
<polygon fill="#031ecc" points="450.267,113.170 289.331,311.074 297.324,594.927  "/>
<polygon fill="#4eac1b" points="494.895,433.458 107.682,480.347 94.845,126.122  "/>
<polygon fill="#886ad4" points="457.078,253.324 550.332,303.792 433.199,583.224  "/>
<polygon fill="#9a089a" points="323.215,559.482 171.643,595.341 471.152,310.502  "/>
<polygon fill="#f2f28b" points="212.750,400.954 26.245,63.404 544.589,259.397  "/>
<polygon fill="#5cfe4f" points="104.974,98.589 590.702,376.228 443.267,166.705  "/>
<polygon fill="#3d3332" points="55.157,377.751 61.222,599.923 330.543,509.213  "/>
<polygon fill="#c5c935" points="70.870,37.708 142.669,281.218 400.892,383.915  "/>
<polygon fill="#127b2d" points="6.291,423.842 129.517,543.710 197.104,361.433  "/>
<polygon fill="#11b60a" points="589.890,586.234 517.383,307.603 513.303,397.587  "/>
<polygon fill="#a69911" points="236.751,390.482 407.629,309.043 585.213,329.291  "/>
<polygon fill="#08d42e" points="352.095,70.621 172.724,260.702 221.162,167.765  "/>
</svg>