<?xml version="1.0" encoding="utf-8"?>
<!-- Generator: Python script. InTeResTinG -->
<!DOCTYPE svg PUBLIC "-//W3C//DTD SVG 1.1//EN" "http://www.w3.org/Graphics/SVG/1.1/DTD/svg11.dtd">
<svg version="1.1" id="Layer_1" xmlns="http://www.w3.org/2000/svg" xmlns:xlink="http://www.w3.org/1999/xlink" x="0px" y="0px" width="600.000px" height="600.000px" viewBox="0 0 600.000 600.000" enable-background="new 0 0 600.000 600.000" xml:space="preserve">
<polygon fill="#0eea63" points="116.865,394.855 329.002,112.087 565.991,526.340  "/>
<polygon fill="#da3153" points="203.198,136.442 362.922,173.786 178.106,220.024  "/>
<polygon fill="#ae6c29" points="4.194,501.952 42.246,1.578 334.760,67.275  "/>
<polygon fill="#0ba50a" points="567.629,307.919 377.433,384.195 92.366,157.855  "/>
<polygon fill="#de36be" points="60.763,109.234 54.663,49.496 221.205,512.088  "/>
<polygon fill="#4a343b" points="178.612,511.630 470.046,160.083 260.716,79.231  "/>
<polygon fill="#fa6eac" points="412.444,286.253 236.631,469.704 24.583,238.057  "/>
<polygon fill="#9cff0a" points="266.797,165.845 560.895,487.790 346.049,534.916  "/>
<polygon fill="#b44f07" points="398.013,130.939 474.245,416.872 431.630,273.547  "/>
<polygon fill="#82467c" points="193.101,196.100 25.141,483.171 419.525,4.855  "/>
<polygon fill="#2ec2b5" points="187.114,286.538 154.565,397.959 575.416,572.962  "/>
<polygon fill="#5e9db5" points="434.829,106.166 571.862,400.839 422.123,29.295  "/>
<polygon fill="#b9d2b7" points="284.818,19.089 49.341,445.794 70.862,501.138  "/>
<polygon fill="#a98938" points="459.564,174.508 321.105,372.020 79.954,302.256  "/>
<polygon fill="#1f91d1" points="366.388,32.999 225.969,265.557 234.299,477.585  "/>
<polygon fill="#81f939" points="495.582,228.148 551.113,2.232 247.339,306.639  "/>
<polygon fill="#ffb522" points="345.417,84.733 205.850,336.508 508.941,97.165  "/>
<polygon fill="#6e50f7" points="138.638,378.475 593.814,595.738 425.641,255.940  "/>
<polygon fill="#0bb0fe" points="78.561,584.647 360.691,216.214 467.433,306.278  "/>
<polygon fill="#98bcf2" points="305.762,188.100 243.752,30.308 108.576,464.518  "/>
<polygon fill="#5a7a15" points="280.582,13.432 474.854,222.238 215.684,481.836  "/>
<polygon fill="#b66e9e" points="44.146,317.311 302.625,241.819 530.067,36.880  "/>
<polygon fill="#02a182" points="157.787,285.557 363.229,6.854 413.029,349.488  "/>
<polygon fill="#c27380" points="478.106,586.957 165.803,10.556 187.366,459.246  "/>
<polygon fill="#77a68e" points="327.092,366.522 153.398,450.107 109.955,77.151  "/>
<polygon fill="#e00f07" points="236.337,565.237 26.699,145.549 503.077,244.632  "/>
<polygon fill="#5c67ed" points="265.530,500.644 405.015,9.569 302.695,430.745  "/>
<polygon fill="#243650" points="598.724,46.507 585.551,517.133 375.006,23.291  "/>
<polygon fill="#4801cd" points="481.787,574.362 208.847,503.633 91.917,294.501  "/>
<polygon fill="#7b5305" points="151.385,400.687 324.983,420.840 18.314,15.784  "/>
<polygon fill="#a64111" points="141.924,305.011 431.950,396.521 204.029,544.575  "/>
<polygon fill="#02cc7b" points="15.383,149.634 338.668,34.206 487.297,376.359  "/>
<polygon fill="#06fc47" points="87.690,147.417 70.089,443.176 388.566,458.197  "/>
<polygon fill="#e751f2" points="323.609,455.417 327.105,51.999 60.741,249.098  "/>
<polygon fill="#5029aa" points="239.323,146.670 219.025,421.485 112.365,462.473  "/>
<polygon fill="#a03e51" points="573.304,552.924 258.316,562.379 333.885,60.050  "/>
<polygon fill="#30e887" points="268.579,473.305 431.972,444.677 174.688,480.853  "/>
<polygon fill="#d0c4de" points="471.471,254.894 98.319,148.431 513.312,322.709  "/>
<polygon fill="#2f60c6" points="242.829,38.730 572.723,557.556 277.005,573.906  "/>
<polygon fill="#4933be" points="500.170,487.896 125.505,20.890 240.225,52.241  "/>
<polygon fill="#3460e1" points="89.527,171.277 553.119,340.507 355.605,78.563  "/>
<polygon fill="#469c11" points="122.087,172.566 70.600,235.785 483.102,407.341  "/>
<polygon fill="#c41979" points="591.580,30.600 363.232,309.491 327.204,18.460  "/>
<polygon fill="#693102" points="23.178,98.915 526.207,409.928 480.985,91.199  "/>
<polygon fill="#86da22" points="549.536,362.188 209.319,144.972 254.368,22.554  "/>
<polygon fill="#945e72" points="6.750,204.798 120.072,548.616 583.705,44.673  "/>
<polygon fill="#65c6f3" points="206.875,469.656 71.476,217.671 480.619,217.079  "/>
<polygon fill="#296530" points="191.775,293.754 311.928,136.119 58.876,591.753  "/>
<polygon fill="#253b69" points="366.424,567.868 272.493,345.114 506.878,229.511  "/>
<polygon fill="#0a7fe8" points="421.505,329.963 115.987,305.097 112.343,472.895  "/>
<polygon fill="#fc12dc" points="147.073,226.193 366.835,432.639 68.346,121.136  "/>
</svg>