<?xml version="1.0" encoding="utf-8"?>
<!-- Generator: Python script. InTeResTinG -->
<!DOCTYPE svg PUBLIC "-//W3C//DTD SVG 1.1//EN" "http://www.w3.org/Graphics/SVG/1.1/DTD/svg11.dtd">
<svg version="1.1" id="Layer_1" xmlns="http://www.w3.org/2000/svg" xmlns:xlink="http://www.w3.org/1999/xlink" x="0px" y="0px" width="600.000px" height="600.000px" viewBox="0 0 600.000 600.000" enable-background="new 0 0 600.000 600.000" xml:space="preserve">
<polygon fill="#cd24c8" points="487.816,458.163 136.030,11.459 139.491,332.559  "/>
<polygon fill="#a28c16" points="118.518,11.422 195.725,18.336 191.547,134.801  "/>
<polygon fill="#0c68ce" points="215.383,413.877 118.438,571.823 215.441,391.563  "/>
<polygon fill="#90735f" points="85.315,593.298 5.868,87.695 235.872,32.760  "/>
<polygon fill="#cfce2d" points="4.022,44.163 223.630,131.594 538.975,192.267  "/>
<polygon fill="#35b5d6" points="144.787,448.458 570.995,306.873 432.638,173.128  "/>
<polygon fill="#651829" points="68.832,66.319 324.902,44.331 200.216,570.132  "/>
<polygon fill="#f4ae77" points="428.845,5.228 527.050,591.631 237.331,355.551  "/>
<polygon fill="#cc98aa" points="30.926,66.802 21.709,411.168 8.167,596.313  "/>
<polygon fill="#3a62da" points="310.839,48.004 434.970,219.436 278.991,86.964  "/>
<polygon fill="#b6b68c" points="34.176,353.453 470.015,312.113 81.324,200.201  "/>
<polygon fill="#deeb19" points="168.077,73.557 355.679,438.029 446.499,513.895  "/>
<polygon fill="#f22a18" points="164.796,276.899 79.044,465.515 310.760,234.079  "/>
<polygon fill="#5d7378" points="110.323,462.358 575.368,235.875 532.778,551.368  "/>
<polygon fill="#b19dc6" points="305.513,174.683 332.524,486.220 185.955,456.823  "/>
<polygon fill="#c205c7" points="422.572,395.118 325.176,520.850 59.221,109.413  "/>
<polygon fill="#acbbd2" points="496.639,212.378 281.289,100.936 229.479,22.191  "/>
<polygon fill="#355d0a" points="578.844,334.762 248.904,167.131 523.401,95.198  "/>
<polygon fill="#9e9ffa" points="340.731,267.921 378.601,153.660 10.750,317.898  "/>
<polygon fill="#ec8f41" points="315.110,454.975 328.665,73.123 451.837,235.933  "/>
<polygon fill="#2a70c6" points="294.988,554.298 588.276,124.208 234.777,355.977  "/>
<polygon fill="#144a2b" points="100.620,48.189 506.414,394.920 180.885,129.121  "/>
<polygon fill="#2eb817" points="376.749,479.367 154.899,75.346 46.485,384.178  "/>
<polygon fill="#6f196a" points="271.634,366.046 68.247,299.506 113.631,305.638  "/>
<polygon fill="#63c12c" points="574.963,21.036 411.694,225.133 577.259,350.134  "/>
<polygon fill="#4fa4ac" points="58.014,86.157 581.516,509.703 277.062,589.895  "/>
<polygon fill="#832e4f" points="463.074,59.143 393.563,38.473 358.366,360.788  "/>
<polygon fill="#a04676" points="230.638,441.442 352.579,225.947 290.674,502.166  "/>
<polygon fill="#af7dac" points="443.044,389.335 576.092,470.608 9.341,140.094  "/>
<polygon fill="#6d2580" points="439.142,232.703 203.857,597.612 405.576,46.650  "/>
<polygon fill="#1638b6" points="171.612,403.379 154.597,263.109 32.076,189.381  "/>
<polygon fill="#b5430f" points="573.870,352.616 271.040,200.527 409.255,104.258  "/>
<polygon fill="#767285" points="232.092,20.153 17.763,62.680 430.244,448.956  "/>
<polygon fill="#7bc8a2" points="426.975,241.064 105.402,507.840 21.125,463.661  "/>
<polygon fill="#c3df22" points="52.328,582.177 401.432,326.382 577.168,495.018  "/>
<polygon fill="#d46063" points="23.073,184.792 113.972,200.567 79.631,535.052  "/>
<polygon fill="#e7c1f2" points="481.771,367.935 552.914,32.261 39.845,561.286  "/>
<polygon fill="#5f19ef" points="103.583,113.900 248.922,102.332 504.090,565.327  "/>
<polygon fill="#a50f87" points="200.989,115.051 86.527,243.352 73.994,409.563  "/>
<polygon fill="#d09341" points="539.425,105.183 598.136,416.934 524.071,320.268  "/>
<polygon fill="#0211ea" points="507.897,113.682 67.586,58.571 283.895,287.844  "/>
<polygon fill="#10a5f3" points="237.264,324.556 45.609,286.066 24.333,577.260  "/>
<polygon fill="#17d4c4" points="592.820,152.694 450.653,406.509 195.092,42.910  "/>
<polygon fill="#c3ca13" points="115.458,208.506 379.959,13.600 301.744,371.896  "/>
<polygon fill="#b6b481" points="33.113,188.533 290.132,524.812 528.778,298.106  "/>
<polygon fill="#e785c5" points="448.738,205.333 53.827,384.283 580.044,170.599  "/>
<polygon fill="#eac117" points="373.940,167.076 36.129,530.451 514.566,11.010  "/>
<polygon fill="#28990d" points="214.100,410.820 320.101,123.148 28.938,243.412  "/>
<polygon fill="#19c966" points="467.185,358.519 428.047,124.945 125.775,105.421  "/>
<polygon fill="#c42bd5" points="396.048,42.450 73.059,50.176 104.979,233.373  "/>
<polygon fill="#1c6359" points="149.290,62.037 344.201,531.539 301.701,93.655  "/>
<polygon fill="#dd456d" points="456.530,510.551 53.172,379.144 119.696,362.954  "/>
<polygon fill="#819a74" points="453.953,329.475 35.660,416.828 536.909,94.330  "/>
<polygon fill="#f60db5" points="345.962,498.422 509.352,370.929 419.907,558.550  "/>
<polygon fill="#88e9dd" points="215.167,91.264 556.728,47.750 21.705,237.933  "/>
<polygon fill="#556c62" points="421.920,588.275 400.742,107.478 58.912,27.452  "/>
<polygon fill="#3ce142" points="82.391,548.919 591.864,431.303 198.393,194.428  "/>
<polygon fill="#69b523" points="20.835,287.158 590.277,38.514 73.892,255.720  "/>
<polygon fill="#435e54" points="542.243,536.292 25.990,139.931 68.614,563.091  "/>
<polygon fill="#920ef3" points="174.283,250.765 239.547,206.145 221.981,120.457  "/>
<polygon fill="#d7faa9" points="293.603,449.075 67.135,364.880 369.002,30.308  "/>
<polygon fill="#1bc83a" points="501.489,100.525 483.870,210.962 472.497,314.503  "/>
<polygon fill="#534ec5" points="16.310,55.480 464.950,235.508 427.913,536.944  "/>
<polygon fill="#8e8df0" points="59.488,400.137 317.738,514.081 116.297,341.233  "/>
</svg>