<?xml version="1.0" encoding="utf-8"?>
<!-- Generator: Python script. InTeResTinG -->
<!DOCTYPE svg PUBLIC "-//W3C//DTD SVG 1.1//EN" "http://www.w3.org/Graphics/SVG/1.1/DTD/svg11.dtd">
<svg version="1.1" id="Layer_1" xmlns="http://www.w3.org/2000/svg" xmlns:xlink="http://www.w3.org/1999/xlink" x="0px" y="0px" width="600.000px" height="600.000px" viewBox="0 0 600.000 600.000" enable-background="new 0 0 600.000 600.000" xml:space="preserve">
<polygon fill="#69f2a3" points="7.343,599.873 497.800,315.538 35.068,529.396  "/>
<polygon fill="#52aca9" points="92.400,576.132 38.428,404.908 161.946,299.540  "/>
<polygon fill="#933d46" points="356.211,233.249 236.321,124.097 338.623,396.715  "/>
<polygon fill="#7b0d86" points="383.707,212.246 308.808,334.350 287.907,455.275  "/>
<polygon fill="#e7bd19" points="125.055,105.631 373.719,233.979 518.736,431.025  "/>
<polygon fill="#bbda01" points="42.449,113.536 593.370,545.397 597.855,593.467  "/>
<polygon fill="#5a1252" points="577.806,87.755 551.980,53.272 390.788,512.360  "/>
<polygon fill="#cbf6bd" points="32.302,552.389 169.097,73.522 508.717,227.822  "/>
<polygon fill="#a382f8" points="473.923,406.977 188.146,241.140 248.995,500.486  "/>
<polygon fill="#197425" points="456.566,225.051 383.879,133.746 11.398,375.376  "/>
<polygon fill="#b1766f" points="135.941,385.751 277.613,235.372 434.153,310.841  "/>
<polygon fill="#0b9b8d" points="144.677,201.953 56.460,436.353 238.358,392.870  "/>
<polygon fill="#797e03" points="592.538,224.260 150.002,433.721 82.493,102.386  "/>
<polygon fill="#bb1171" points="478.953,554.751 57.801,441.234 401.874,275.713  "/>
<polygon fill="#972d4e" points="403.467,468.511 440.143,18.526 190.276,381.240  "/>
<polygon fill="#f782f0" points="392.412,409.566 396.386,581.651 513.669,117.624  "/>
<polygon fill="#b1cf0a" points="172.104,453.766 248.591,231.230 457.146,566.163  "/>
<polygon fill="#a1859b" points="134.864,577.219 597.453,56.137 111.116,277.171  "/>
<polygon fill="#7dbbb3" points="543.282,416.776 146.898,231.525 37.955,425.641  "/>
<polygon fill="#9bd2c6" points="273.770,95.139 279.583,487.937 401.077,453.901  "/>
<polygon fill="#4e8106" points="311.098,283.664 246.874,236.731 476.882,84.487  "/>
<polygon fill="#481787" points="583.986,375.652 125.885,268.083 447.394,296.287  "/>
<polygon fill="#d8df8d" points="219.877,598.365 436.358,345.589 518.888,178.318  "/>
<polygon fill="#ef112e" points="10.394,592.593 328.893,440.161 304.505,193.989  "/>
<polygon fill="#9e3866" points="548.975,220.801 519.479,566.072 549.645,39.272  "/>
<polygon fill="#b4fc19" points="236.105,364.194 390.439,152.287 218.838,416.211  "/>
<polygon fill="#f0f056" points="135.809,30.809 41.672,337.201 115.619,264.026  "/>
<polygon fill="#63238b" points="126.594,119.897 171.932,114.141 445.962,38.923  "/>
<polygon fill="#77cd32" points="194.814,219.486 381.684,446.532 188.075,128.105  "/>
<polygon fill="#7ebe49" points="248.023,303.330 259.682,400.331 65.332,380.658  "/>
<polygon fill="#a425f0" points="221.811,261.533 389.295,215.720 545.199,126.287  "/>
<polygon fill="#ea4700" points="536.772,144.251 306.827,582.877 306.395,383.537  "/>
<polygon fill="#aed217" points="556.639,530.635 90.011,380.526 100.413,0.103  "/>
<polygon fill="#0065df" points="36.432,590.664 158.288,488.078 64.781,497.223  "/>
<polygon fill="#6422b3" points="452.840,203.748 424.156,217.628 257.953,509.761  "/>
<polygon fill="#6a3c70" points="187.830,66.801 511.802,109.156 93.679,287.274  "/>
<polygon fill="#f43e14" points="457.590,523.276 533.951,439.878 57.345,526.608  "/>
<polygon fill="#cac0b9" points="362.774,33.995 378.797,291.307 200.437,87.173  "/>
<polygon fill="#caf4e6" points="535.490,149.965 112.085,268.024 273.726,226.432  "/>
<polygon fill="#aa6726" points="241.815,151.147 104.993,433.313 516.876,183.583  "/>
<polygon fill="#33ee3f" points="335.395,446.188 539.510,33.091 244.918,570.452  "/>
<polygon fill="#73ec4c" points="106.025,244.286 374.414,489.616 460.858,198.825  "/>
<polygon fill="#44124a" points="523.955,503.450 158.156,179.421 334.447,599.156  "/>
<polygon fill="#98056d" points="158.116,447.577 310.237,37.549 63.412,9.359  "/>
<polygon fill="#e4416a" points="478.245,46.831 207.746,363.892 587.058,583.892  "/>
<polygon fill="#b534f5" points="587.632,571.314 275.391,401.844 421.431,570.317  "/>
<polygon fill="#9b7f92" points="462.266,239.623 428.960,100.967 529.319,588.550  "/>
<polygon fill="#51eebd" points="269.949,115.757 260.945,542.517 455.480,86.855  "/>
<polygon fill="#c7ac11" points="155.237,354.691 513.360,284.800 422.988,19.797  "/>
<polygon fill="#246f4f" points="395.664,56.510 335.213,346.906 436.771,407.602  "/>
<polygon fill="#c2b857" points="277.143,91.966 454.870,391.951 580.101,73.656  "/>
<polygon fill="#6bc6bc" points="223.675,171.293 201.279,420.841 54.701,156.941  "/>
<polygon fill="#a2a294" points="251.575,43.864 439.581,172.037 286.608,119.824  "/>
<polygon fill="#7dece8" points="94.455,441.957 488.314,168.212 416.848,273.860  "/>
<polygon fill="#48973c" points="526.290,29.058 47.023,565.110 180.735,312.228  "/>
<polygon fill="#165787" points="331.940,342.964 66.063,327.208 152.987,304.305  "/>
<polygon fill="#1431da" points="591.580,492.576 430.667,343.739 446.768,305.289  "/>
<polygon fill="#14a85b" points="170.674,123.948 120.314,53.076 20.801,178.536  "/>
</svg>