<?xml version="1.0" encoding="utf-8"?>
<!-- Generator: Python script. InTeResTinG -->
<!DOCTYPE svg PUBLIC "-//W3C//DTD SVG 1.1//EN" "http://www.w3.org/Graphics/SVG/1.1/DTD/svg11.dtd">
<svg version="1.1" id="Layer_1" xmlns="http://www.w3.org/2000/svg" xmlns:xlink="http://www.w3.org/1999/xlink" x="0px" y="0px" width="600.000px" height="600.000px" viewBox="0 0 600.000 600.000" enable-background="new 0 0 600.000 600.000" xml:space="preserve">
<polygon fill="#aab50f" points="238.543,52.278 66.840,330.405 47.175,300.449  "/>
<polygon fill="#05a853" points="363.862,350.035 410.590,480.402 167.925,593.691  "/>
<polygon fill="#270c33" points="329.176,457.369 217.670,99.738 230.049,349.997  "/>
<polygon fill="#7714d0" points="378.978,101.033 37.199,433.344 247.747,60.351  "/>
<polygon fill="#b92d02" points="315.558,492.180 18.494,538.263 547.093,266.613  "/>
<polygon fill="#8df921" points="475.360,541.705 555.314,288.769 254.236,339.534  "/>
<polygon fill="#48b77c" points="105.071,105.162 395.617,388.381 277.550,161.251  "/>
<polygon fill="#3f009d" points="406.176,379.817 328.831,188.136 183.911,241.043  "/>
<polygon fill="#92d104" points="500.635,415.748 179.656,552.900 485.190,567.993  "/>
<polygon fill="#29ffab" points="65.149,9.914 599.737,12.532 391.548,524.526  "/>
<polygon fill="#cde073" points="273.254,199.946 229.203,287.950 334.635,411.636  "/>
<polygon fill="#d33ca8" points="173.567,264.327 235.609,265.817 257.794,460.745  "/>
<polygon fill="#e7c5c5" points="549.378,118.779 39.663,5.613 166.585,27.406  "/>
<polygon fill="#ff8c05" points="133.005,543.998 354.621,175.753 448.087,442.642  "/>
<polygon fill="#5fb640" points="493.559,179.217 294.350,162.239 4.789,266.875  "/>
<polygon fill="#e02e3b" points="494.329,494.020 407.463,257.720 150.898,49.349  "/>
<polygon fill="#9352f6" points="373.236,213.893 26.993,59.499 286.772,465.223  "/>
<polygon fill="#e7745a" points="560.929,363.246 243.304,554.125 467.243,477.087  "/>
<polygon fill="#b278f3" points="366.143,571.286 302.707,42.326 80.970,437.322  "/>
<polygon fill="#7d2936" points="304.346,574.214 6.131,276.338 586.081,402.132  "/>
<polygon fill="#cec6b1" points="6.306,597.611 188.433,599.352 336.519,29.666  "/>
<polygon fill="#362331" points="336.316,325.955 193.330,190.250 442.343,201.352  "/>
<polygon fill="#40ed02" points="350.585,2.602 496.295,549.120 190.497,535.535  "/>
<polygon fill="#6e3b38" points="251.117,90.315 31.257,391.605 547.083,303.578  "/>
<polygon fill="#e00b8f" points="134.371,441.421 472.724,121.540 460.940,360.800  "/>
<polygon fill="#f2acbf" points="330.738,140.324 354.853,599.571 575.224,383.389  "/>
<polygon fill="#b89e13" points="314.691,351.157 534.591,485.318 379.919,101.081  "/>
<polygon fill="#9091e4" points="448.407,99.186 396.686,110.972 337.941,101.817  "/>
<polygon fill="#6c8f3f" points="427.918,322.686 122.801,485.777 259.458,155.548  "/>
<polygon fill="#427291" points="511.701,480.503 334.752,266.483 382.666,414.055  "/>
<polygon fill="#92d1d0" points="52.781,550.695 337.386,55.345 126.469,106.457  "/>
<polygon fill="#f8891c" points="470.340,540.729 98.992,253.088 448.475,494.387  "/>
<polygon fill="#ad6118" points="591.920,457.800 173.434,558.512 265.540,422.275  "/>
<polygon fill="#c7bf25" points="337.302,327.852 24.878,208.634 153.375,344.101  "/>
<polygon fill="#f2a4c1" points="262.313,321.841 496.725,262.256 228.254,213.954  "/>
<polygon fill="#822f69" points="508.301,346.556 457.853,572.463 517.055,95.294  "/>
<polygon fill="#cffaf9" points="217.650,63.126 464.628,381.400 134.501,551.817  "/>
<polygon fill="#ec67f5" points="110.865,499.822 523.404,86.517 310.347,110.526  "/>
<polygon fill="#08b1f6" points="103.124,178.454 51.021,115.337 445.389,302.431  "/>
<polygon fill="#c9edda" points="317.961,265.952 161.344,312.876 505.014,90.433  "/>
<polygon fill="#20fc92" points="275.028,239.877 73.095,472.787 214.136,314.195  "/>
<polygon fill="#afa070" points="84.106,438.992 66.003,4.021 562.326,12.764  "/>
<polygon fill="#458094" points="174.424,135.210 293.507,532.449 360.796,324.473  "/>
<polygon fill="#4dce61" points="330.776,459.459 207.426,364.705 124.737,448.148  "/>
<polygon fill="#777c2c" points="67.960,199.570 368.877,54.561 142.337,317.472  "/>
<polygon fill="#764926" points="145.929,391.170 343.701,97.344 276.829,387.967  "/>
<polygon fill="#c94bde" points="186.898,399.609 4.138,249.838 428.828,21.731  "/>
<polygon fill="#f400ce" points="543.099,317.783 51.271,324.883 578.121,550.953  "/>
<polygon fill="#a082e6" points="137.921,306.376 405.542,590.545 247.406,478.895  "/>
<polygon fill="#089a0d" points="478.639,475.990 379.113,369.754 227.454,229.088  "/>
<polygon fill="#fa03b8" points="306.176,36.018 483.263,378.235 418.196,477.528  "/>
<polygon fill="#7a051b" points="36.344,123.673 270.982,137.062 490.735,265.725  "/>
<polygon fill="#93e98f" points="291.310,566.301 47.669,162.159 412.300,499.450  "/>
<polygon fill="#b84a6a" points="246.196,445.897 542.933,76.227 177.804,479.593  "/>
<polygon fill="#3da847" points="510.757,53.726 253.005,329.859 355.443,471.739  "/>
<polygon fill="#d1faf7" points="156.688,530.848 583.584,353.778 387.733,216.889  "/>
</svg>