<?xml version="1.0" encoding="utf-8"?>
<!-- Generator: Python script. InTeResTinG -->
<!DOCTYPE svg PUBLIC "-//W3C//DTD SVG 1.1//EN" "http://www.w3.org/Graphics/SVG/1.1/DTD/svg11.dtd">
<svg version="1.1" id="Layer_1" xmlns="http://www.w3.org/2000/svg" xmlns:xlink="http://www.w3.org/1999/xlink" x="0px" y="0px" width="600.000px" height="600.000px" viewBox="0 0 600.000 600.000" enable-background="new 0 0 600.000 600.000" xml:space="preserve">
<polygon fill="#44d9a2" points="203.990,597.229 132.365,320.533 508.750,406.037  "/>
<polygon fill="#c274c3" points="59.931,439.569 338.360,185.943 314.012,128.692  "/>
<polygon fill="#f8aa3a" points="402.824,480.108 205.807,416.395 431.908,543.826  "/>
<polygon fill="#f35b01" points="445.217,590.067 160.662,382.281 520.153,16.464  "/>
<polygon fill="#a60596" points="12.223,517.752 455.115,186.713 177.734,157.666  "/>
<polygon fill="#c832fe" points="426.757,224.685 175.956,586.139 164.154,307.759  "/>
<polygon fill="#c59ae9" points="296.565,344.433 512.015,274.865 230.971,438.095  "/>
<polygon fill="#a7c101" points="415.977,310.402 10.689,380.160 387.089,96.577  "/>
<polygon fill="#10c9eb" points="338.301,389.607 499.206,315.376 37.779,110.270  "/>
<polygon fill="#949c38" points="311.538,1.782 85.376,394.733 528.506,309.352  "/>
<polygon fill="#bb3665" points="455.809,411.714 389.305,254.956 277.119,2.197  "/>
<polygon fill="#f7e9e9" points="188.154,341.693 450.970,112.132 124.235,252.008  "/>
<polygon fill="#c7130d" points="285.713,37.637 295.698,251.337 313.297,466.601  "/>
<polygon fill="#62ec6d" points="164.746,169.175 363.494,490.392 303.881,120.260  "/>
<polygon fill="#9a836a" points="156.503,179.736 527.371,216.048 54.953,299.733  "/>
<polygon fill="#5b2945" points="545.947,90.061 559.645,584.602 162.575,75.690  "/>
<polygon fill="#93cbcd" points="48.539,521.192 326.910,462.066 265.866,577.107  "/>
<polygon fill="#c4dd12" points="76.327,288.732 428.228,521.557 84.823,43.515  "/>
<polygon fill="#42c191" points="469.015,521.028 79.601,571.416 280.976,347.491  "/>
<polygon fill="#b537fc" points="360.184,333.828 458.747,323.261 409.079,287.437  "/>
<polygon fill="#4cfc92" points="361.183,361.276 248.426,17.476 505.410,541.857  "/>
<polygon fill="#a5e844" points="576.409,529.545 284.545,448.404 8.858,20.028  "/>
<polygon fill="#987d41" points="397.530,154.889 237.834,156.957 288.790,282.746  "/>
<polygon fill="#6adde6" points="120.617,555.738 127.862,410.681 52.765,575.422  "/>
<polygon fill="#b260a2" points="341.573,311.031 159.047,215.354 355.341,230.729  "/>
<polygon fill="#8702d8" points="56.189,42.248 250.173,332.743 123.745,370.273  "/>
<polygon fill="#fbe371" points="261.881,143.578 396.553,559.368 266.910,105.866  "/>
<polygon fill="#a6f797" points="400.130,439.711 326.184,575.663 30.336,54.125  "/>
<polygon fill="#5192e2" points="214.943,28.810 579.948,36.834 480.151,526.000  "/>
<polygon fill="#435316" points="354.425,215.571 137.794,97.530 316.805,264.383  "/>
<polygon fill="#b5faf0" points="382.682,38.535 372.181,319.548 580.885,13.489  "/>
<polygon fill="#0c3116" points="61.343,252.119 361.127,201.757 380.705,379.131  "/>
<polygon fill="#60d114" points="568.827,477.023 230.461,293.180 96.131,264.781  "/>
<polygon fill="#fa4ff9" points="290.837,355.718 6.843,326.126 395.546,299.292  "/>
<polygon fill="#04effc" points="581.672,281.065 557.929,365.320 210.067,258.019  "/>
<polygon fill="#7092ce" points="302.154,148.862 521.578,358.548 277.916,332.040  "/>
<polygon fill="#659b25" points="259.623,509.922 457.960,50.652 193.940,491.653  "/>
<polygon fill="#c5c617" points="85.407,305.159 509.922,447.455 357.495,385.459  "/>
<polygon fill="#936121" points="152.948,477.785 247.692,564.236 311.493,465.400  "/>
<polygon fill="#26a223" points="520.417,292.147 183.519,537.368 533.263,575.227  "/>
<polygon fill="#931160" points="38.100,406.606 394.063,200.521 14.526,451.439  "/>
<polygon fill="#b397ff" points="187.016,318.289 150.089,185.471 125.592,456.231  "/>
<polygon fill="#ae66f3" points="70.976,20.253 150.836,122.462 117.174,280.818  "/>
<polygon fill="#9a6f6c" points="345.063,370.013 572.814,585.838 289.726,545.592  "/>
<polygon fill="#6dac4b" points="89.062,114.528 195.678,549.774 118.760,488.436  "/>
<polygon fill="#25a206" points="337.413,2.692 546.570,400.318 591.204,553.007  "/>
<polygon fill="#5587db" points="364.386,574.348 544.661,380.629 125.164,505.841  "/>
<polygon fill="#3bd51e" points="3.310,458.972 466.657,181.687 503.039,597.527  "/>
<polygon fill="#14e248" points="492.123,451.882 67.685,409.243 251.469,392.545  "/>
<polygon fill="#18c255" points="271.780,173.510 117.952,256.360 354.895,456.867  "/>
<polygon fill="#bf811b" points="513.276,473.349 303.339,392.044 415.494,552.103  "/>
<polygon fill="#82c27c" points="395.145,79.777 469.447,427.018 29.953,413.414  "/>
<polygon fill="#fbf68b" points="430.190,252.324 169.434,6.974 468.871,313.499  "/>
<polygon fill="#aa6e05" points="140.987,199.542 588.479,392.560 98.376,483.512  "/>
<polygon fill="#31fe44" points="253.861,366.311 343.099,330.226 241.537,571.756  "/>
<polygon fill="#79d29c" points="303.300,155.282 553.254,372.593 290.306,148.594  "/>
</svg>