<?xml version="1.0" encoding="utf-8"?>
<!-- Generator: Python script. InTeResTinG -->
<!DOCTYPE svg PUBLIC "-//W3C//DTD SVG 1.1//EN" "http://www.w3.org/Graphics/SVG/1.1/DTD/svg11.dtd">
<svg version="1.1" id="Layer_1" xmlns="http://www.w3.org/2000/svg" xmlns:xlink="http://www.w3.org/1999/xlink" x="0px" y="0px" width="600.000px" height="600.000px" viewBox="0 0 600.000 600.000" enable-background="new 0 0 600.000 600.000" xml:space="preserve">
<polygon fill="#f0843f" points="187.951,10.994 560.179,499.931 320.005,222.429  "/>
<polygon fill="#dc37f2" points="311.642,284.211 500.530,489.141 289.229,397.264  "/>
<polygon fill="#52a7d8" points="394.928,123.609 290.865,451.092 384.399,363.860  "/>
<polygon fill="#7def88" points="449.782,234.377 425.128,319.408 527.345,102.407  "/>
<polygon fill="#f68fb6" points="281.573,337.059 76.124,470.266 457.349,280.613  "/>
<polygon fill="#825fe8" points="349.112,259.240 325.857,593.616 225.260,543.844  "/>
<polygon fill="#bbc510" points="157.061,273.723 291.499,292.776 548.268,174.543  "/>
<polygon fill="#6d2b45" points="449.208,61.156 113.946,425.694 341.714,455.801  "/>
<polygon fill="#51a27d" points="555.277,569.571 389.342,427.589 148.360,352.364  "/>
<polygon fill="#992137" points="584.880,589.176 430.378,306.192 504.159,97.333  "/>
<polygon fill="#dd44eb" points="140.990,511.557 552.511,473.142 227.595,521.694  "/>
<polygon fill="#f84ae7" points="560.169,51.000 414.797,31.322 267.061,280.979  "/>
<polygon fill="#9da70a" points="431.469,442.370 80.043,180.002 53.258,339.422  "/>
<polygon fill="#e1809a" points="561.918,178.569 496.280,526.511 357.835,82.141  "/>
<polygon fill="#026803" points="325.037,464.171 397.517,496.519 241.281,84.134  "/>
<polygon fill="#c35426" points="244.596,462.856 310.743,241.840 307.871,75.102  "/>
<polygon fill="#317b2f" points="74.472,462.397 527.381,227.323 146.751,165.644  "/>
<polygon fill="#a3546f" points="557.833,582.242 398.334,497.981 172.131,151.191  "/>
<polygon fill="#9933b2" points="417.668,354.499 394.909,224.007 53.118,386.578  "/>
<polygon fill="#cb3192" points="475.593,27.233 72.599,487.760 362.321,257.046  "/>
<polygon fill="#5f5922" points="36.897,491.337 474.090,341.264 81.367,137.404  "/>
<polygon fill="#ca382c" points="243.786,198.301 387.977,261.650 140.363,253.456  "/>
<polygon fill="#00f23c" points="107.807,548.819 58.283,401.077 4.295,284.189  "/>
<polygon fill="#5479a4" points="519.542,199.648 97.574,153.435 49.639,446.782  "/>
<polygon fill="#7168aa" points="411.370,289.524 235.973,564.006 12.674,167.235  "/>
<polygon fill="#d5a71f" points="348.830,60.757 137.543,464.057 386.606,585.318  "/>
<polygon fill="#dbf6eb" points="332.267,550.060 458.569,364.007 145.840,56.140  "/>
<polygon fill="#8ecdbb" points="272.423,89.039 527.600,91.259 403.881,599.436  "/>
<polygon fill="#b3b49f" points="194.630,549.697 227.047,74.612 393.426,303.063  "/>
<polygon fill="#fd85d0" points="231.248,72.333 573.474,9.460 71.523,110.891  "/>
<polygon fill="#741fe8" points="539.525,168.439 465.056,490.739 541.844,204.085  "/>
<polygon fill="#b043c8" points="100.831,12.659 342.619,278.795 200.035,59.975  "/>
<polygon fill="#672743" points="291.904,61.112 67.988,205.465 272.188,594.256  "/>
<polygon fill="#bb9ff5" points="381.134,541.036 224.420,517.174 282.887,9.927  "/>
<polygon fill="#b4bf5d" points="308.004,22.040 246.694,541.382 204.715,27.345  "/>
<polygon fill="#53aa2b" points="192.957,87.761 314.641,224.727 416.216,386.395  "/>
<polygon fill="#9952dd" points="392.366,199.993 151.372,52.241 104.147,503.564  "/>
<polygon fill="#de0e24" points="398.579,232.514 79.011,104.655 172.877,265.243  "/>
<polygon fill="#c09e63" points="571.050,404.918 13.642,26.776 376.934,274.046  "/>
<polygon fill="#614309" points="281.844,352.070 420.983,149.537 464.915,503.098  "/>
<polygon fill="#9474c9" points="87.103,387.966 118.051,38.248 497.799,148.152  "/>
<polygon fill="#4e36be" points="309.057,548.471 474.138,174.370 361.166,365.128  "/>
<polygon fill="#4aa277" points="171.225,433.666 137.543,336.747 60.559,104.552  "/>
<polygon fill="#70410d" points="288.800,442.334 310.027,152.951 493.720,411.381  "/>
<polygon fill="#b74352" points="546.068,115.640 578.339,154.838 471.768,558.660  "/>
<polygon fill="#f6f766" points="153.799,424.497 573.557,136.788 98.474,461.656  "/>
<polygon fill="#c78c8e" points="506.887,140.005 455.674,317.690 13.574,208.797  "/>
<polygon fill="#8c1548" points="137.584,342.978 354.416,226.975 21.979,519.114  "/>
<polygon fill="#bb8656" points="245.136,595.080 124.650,126.393 426.116,481.806  "/>
<polygon fill="#f298e8" points="539.977,501.944 8.933,508.912 54.870,15.610  "/>
<polygon fill="#a8472b" points="552.609,527.101 572.222,47.735 387.320,88.443  "/>
<polygon fill="#56410e" points="559.443,174.602 233.928,109.420 128.314,350.158  "/>
</svg>