<?xml version="1.0" encoding="utf-8"?>
<!-- Generator: Python script. InTeResTinG -->
<!DOCTYPE svg PUBLIC "-//W3C//DTD SVG 1.1//EN" "http://www.w3.org/Graphics/SVG/1.1/DTD/svg11.dtd">
<svg version="1.1" id="Layer_1" xmlns="http://www.w3.org/2000/svg" xmlns:xlink="http://www.w3.org/1999/xlink" x="0px" y="0px" width="600.000px" height="600.000px" viewBox="0 0 600.000 600.000" enable-background="new 0 0 600.000 600.000" xml:space="preserve">
<polygon fill="#c42933" points="66.303,98.562 13.329,100.238 35.602,309.374  "/>
<polygon fill="#c56e91" points="308.063,532.574 269.557,130.548 213.447,37.978  "/>
<polygon fill="#69012e" points="224.121,254.684 428.342,32.568 236.197,73.245  "/>
<polygon fill="#405b4b" points="556.677,549.336 119.036,51.118 395.498,388.657  "/>
<polygon fill="#443af9" points="279.487,405.095 447.788,149.809 439.021,529.925  "/>
<polygon fill="#42eea2" points="130.101,482.083 193.761,227.199 466.873,449.936  "/>
<polygon fill="#d55296" points="274.449,404.203 517.409,346.386 456.188,443.766  "/>
<polygon fill="#b44f87" points="309.584,487.646 405.037,591.905 138.350,428.793  "/>
<polygon fill="#36ad01" points="276.533,587.342 513.395,200.131 501.571,25.158  "/>
<polygon fill="#081312" points="196.925,200.389 88.558,163.891 453.677,88.445  "/>
<polygon fill="#780953" points="488.251,311.754 402.740,124.796 431.772,261.798  "/>
<polygon fill="#658139" points="409.269,59.725 346.264,48.292 535.533,19.343  "/>
<polygon fill="#88cb44" points="312.340,195.667 599.712,431.347 485.806,454.393  "/>
<polygon fill="#3fac4a" points="75.954,553.502 314.490,263.515 51.146,170.148  "/>
<polygon fill="#27f63c" points="142.461,522.709 228.734,394.422 503.366,344.573  "/>
<polygon fill="#5c6181" points="113.471,532.825 214.855,116.911 47.298,482.456  "/>
<polygon fill="#5edb87" points="16.111,287.009 359.219,471.320 8.957,149.933  "/>
<polygon fill="#195142" points="33.593,119.361 296.094,80.889 76.842,49.920  "/>
<polygon fill="#19cf03" points="210.372,403.324 199.972,125.456 363.683,178.478  "/>
<polygon fill="#f445d9" points="122.677,530.928 61.139,438.220 199.246,192.614  "/>
<polygon fill="#9c4484" points="139.470,157.857 341.944,23.740 58.919,499.226  "/>
<polygon fill="#2d9e3e" points="409.387,593.260 194.774,250.621 303.955,294.251  "/>
<polygon fill="#c09e79" points="440.611,508.618 555.962,68.184 598.966,511.087  "/>
<polygon fill="#27fe99" points="11.493,272.057 240.854,20.328 555.047,422.281  "/>
<polygon fill="#e85ba0" points="215.238,279.218 155.431,95.627 233.084,520.943  "/>
<polygon fill="#ac386a" points="351.588,274.839 298.912,529.712 510.756,83.551  "/>
<polygon fill="#fb5571" points="350.719,33.521 342.515,54.140 199.494,176.154  "/>
<polygon fill="#93d891" points="26.738,69.059 456.953,85.512 246.925,2.998  "/>
<polygon fill="#64d111" points="9.369,9.016 436.643,514.861 326.974,287.243  "/>
<polygon fill="#05ce38" points="38.215,148.737 132.088,25.046 328.043,111.721  "/>
<polygon fill="#8f5e98" points="28.804,16.483 489.907,402.953 56.348,135.267  "/>
<polygon fill="#19d665" points="118.703,83.913 540.384,533.457 554.160,469.914  "/>
<polygon fill="#b8471b" points="151.741,264.942 423.834,470.393 494.402,175.902  "/>
<polygon fill="#9b0ac7" points="366.107,432.741 87.174,360.353 294.116,534.252  "/>
<polygon fill="#839c4a" points="216.733,37.449 566.371,403.700 364.279,490.149  "/>
<polygon fill="#244fb9" points="517.330,526.164 92.934,110.667 29.236,97.911  "/>
<polygon fill="#5af5b1" points="266.723,192.426 394.302,102.228 506.678,356.921  "/>
<polygon fill="#ce7391" points="12.924,59.105 50.769,558.391 250.473,541.625  "/>
<polygon fill="#aeda76" points="526.471,83.377 413.555,241.108 229.362,205.011  "/>
<polygon fill="#59e1e4" points="209.061,68.866 228.120,398.934 341.637,586.771  "/>
<polygon fill="#9c5138" points="338.851,43.976 84.228,31.093 127.546,551.507  "/>
<polygon fill="#db59d7" points="289.950,556.044 3.990,225.289 183.307,426.397  "/>
<polygon fill="#0a0222" points="17.393,60.120 410.979,39.318 304.285,522.376  "/>
<polygon fill="#f47c2d" points="192.400,230.395 10.183,431.464 5.408,287.902  "/>
<polygon fill="#2b95a6" points="120.585,23.908 367.531,236.859 345.493,159.252  "/>
<polygon fill="#1d3726" points="489.283,316.895 456.994,140.530 230.453,142.925  "/>
<polygon fill="#252c1d" points="19.361,409.206 176.433,206.776 261.542,531.707  "/>
<polygon fill="#a5c851" points="310.020,544.213 505.788,453.751 20.505,158.918  "/>
<polygon fill="#bdbf63" points="166.171,155.439 212.815,153.271 52.810,234.263  "/>
<polygon fill="#977d7f" points="198.980,245.901 175.359,103.465 588.413,431.786  "/>
<polygon fill="#46e5d7" points="89.375,209.687 1.605,316.787 53.808,511.836  "/>
<polygon fill="#1bc629" points="528.918,109.055 361.778,335.588 226.550,194.696  "/>
<polygon fill="#5a80e0" points="148.437,196.511 493.176,193.433 196.660,224.522  "/>
<polygon fill="#9c607e" points="53.418,473.166 462.966,206.431 537.716,56.268  "/>
<polygon fill="#1a937b" points="286.471,191.973 391.545,190.542 538.913,332.429  "/>
<polygon fill="#22fcea" points="581.060,94.137 211.212,116.610 504.392,309.241  "/>
<polygon fill="#7dd19e" points="218.537,126.453 190.156,468.216 74.452,451.193  "/>
<polygon fill="#a9f5f5" points="490.676,321.711 167.206,212.154 231.908,138.127  "/>
<polygon fill="#cceb1e" points="454.223,369.779 263.518,594.057 169.302,291.235  "/>
</svg>