<?xml version="1.0" encoding="utf-8"?>
<!-- Generator: Python script. InTeResTinG -->
<!DOCTYPE svg PUBLIC "-//W3C//DTD SVG 1.1//EN" "http://www.w3.org/Graphics/SVG/1.1/DTD/svg11.dtd">
<svg version="1.1" id="Layer_1" xmlns="http://www.w3.org/2000/svg" xmlns:xlink="http://www.w3.org/1999/xlink" x="0px" y="0px" width="600.000px" height="600.000px" viewBox="0 0 600.000 600.000" enable-background="new 0 0 600.000 600.000" xml:space="preserve">
<polygon fill="#88d586" points="82.206,446.430 258.900,211.432 47.003,218.216  "/>
<polygon fill="#b887cd" points="413.083,195.716 49.478,599.761 332.905,279.845  "/>
<polygon fill="#79c56a" points="333.738,35.834 31.652,270.818 84.911,239.528  "/>
<polygon fill="#51c7bc" points="460.956,525.976 275.559,270.245 182.905,428.045  "/>
<polygon fill="#e6062f" points="210.549,138.518 228.956,451.358 150.192,116.219  "/>
<polygon fill="#7bd219" points="69.409,57.805 400.548,361.449 550.197,496.680  "/>
<polygon fill="#44284a" points="307.576,232.076 333.675,119.972 66.253,430.803  "/>
<polygon fill="#9f7e6b" points="24.597,9.054 52.162,524.445 305.266,283.612  "/>
<polygon fill="#7f0431" points="453.794,526.865 32.202,92.534 500.628,156.065  "/>
<polygon fill="#a26226" points="179.126,39.651 83.424,592.404 213.215,56.115  "/>
<polygon fill="#7a04d8" points="214.607,574.349 38.387,202.254 560.236,510.282  "/>
<polygon fill="#4f3ed4" points="264.708,582.509 256.666,258.316 384.780,298.712  "/>
<polygon fill="#065e6e" points="18.062,514.915 285.767,563.715 110.298,349.162  "/>
<polygon fill="#dd7a9b" points="533.656,579.517 369.511,277.628 525.346,578.516  "/>
<polygon fill="#90c972" points="85.025,547.226 383.734,307.490 201.023,368.879  "/>
<polygon fill="#ea5df8" points="538.616,422.824 111.250,594.655 248.366,483.291  "/>
<polygon fill="#3e9070" points="61.511,562.896 186.534,487.614 581.759,544.306  "/>
<polygon fill="#2f664b" points="333.402,501.551 387.772,157.678 551.119,471.843  "/>
<polygon fill="#bcbb0f" points="475.397,117.815 548.145,470.701 217.532,148.911  "/>
<polygon fill="#db8290" points="310.520,378.241 428.941,199.910 242.533,335.750  "/>
<polygon fill="#ecec3f" points="461.036,87.771 124.266,349.154 492.428,253.668  "/>
<polygon fill="#66f3de" points="480.830,197.131 365.566,305.876 541.399,195.619  "/>
<polygon fill="#18bb63" points="489.589,226.523 277.011,38.369 131.848,371.483  "/>
<polygon fill="#7d61e8" points="428.145,579.639 148.137,88.819 245.337,25.470  "/>
<polygon fill="#75bcfa" points="92.278,450.874 574.721,358.937 23.540,307.895  "/>
<polygon fill="#1d4278" points="330.934,389.242 14.325,22.398 394.674,448.666  "/>
<polygon fill="#9d75c5" points="98.404,392.170 284.333,549.284 364.508,151.721  "/>
<polygon fill="#a124e4" points="328.198,572.176 537.137,538.659 523.415,73.288  "/>
<polygon fill="#1304fa" points="200.732,231.510 590.579,53.489 287.767,454.271  "/>
<polygon fill="#12f006" points="517.481,286.263 409.528,259.889 590.389,42.782  "/>
<polygon fill="#8cd711" points="244.292,241.663 312.669,440.420 116.829,265.278  "/>
<polygon fill="#590c76" points="246.696,82.061 551.307,192.909 83.052,430.458  "/>
<polygon fill="#86c0c8" points="507.630,34.287 516.484,364.392 197.277,468.284  "/>
<polygon fill="#af634c" points="437.224,510.557 495.884,176.044 92.820,377.449  "/>
<polygon fill="#750598" points="24.849,513.360 436.420,534.739 159.148,81.981  "/>
<polygon fill="#7459a3" points="524.577,455.528 14.637,0.967 375.969,594.410  "/>
<polygon fill="#c625fc" points="317.410,303.107 488.617,77.786 92.812,281.794  "/>
<polygon fill="#b6f1b0" points="250.788,13.650 96.427,570.896 61.445,342.642  "/>
<polygon fill="#9df81d" points="453.074,371.425 574.008,405.277 84.818,412.175  "/>
<polygon fill="#6469ed" points="532.548,159.002 362.867,33.901 363.996,159.536  "/>
<polygon fill="#a9b3e9" points="162.348,60.963 463.501,372.416 250.163,396.237  "/>
<polygon fill="#881fb5" points="374.184,418.316 509.433,67.166 213.029,312.378  "/>
<polygon fill="#71f3bf" points="385.720,368.882 269.843,205.682 43.577,373.244  "/>
<polygon fill="#fd8654" points="375.962,266.973 415.138,515.399 555.307,18.463  "/>
<polygon fill="#0445f3" points="78.886,438.638 225.815,333.244 43.963,17.067  "/>
<polygon fill="#0d3f00" points="252.325,147.038 478.701,300.720 277.790,11.070  "/>
<polygon fill="#22cb3f" points="376.311,135.985 468.303,139.294 227.670,302.295  "/>
<polygon fill="#e2b24a" points="444.752,263.405 78.492,478.068 467.861,282.734  "/>
<polygon fill="#c8db5b" points="455.229,480.428 138.304,356.618 547.319,475.855  "/>
<polygon fill="#9e747d" points="495.904,482.161 94.663,504.335 30.385,273.715  "/>
<polygon fill="#ce62ce" points="343.926,593.328 367.110,504.951 79.571,147.548  "/>
<polygon fill="#933d68" points="571.566,25.650 563.278,11.730 268.263,268.373  "/>
<polygon fill="#3053ce" points="291.159,327.747 248.152,31.017 259.677,68.686  "/>
<polygon fill="#400bbf" points="371.977,277.785 545.262,545.585 340.712,480.435  "/>
<polygon fill="#a3ff7d" points="267.951,132.060 51.246,369.302 139.402,157.992  "/>
<polygon fill="#1b8518" points="226.986,457.206 45.753,332.407 452.416,164.542  "/>
<polygon fill="#a4f042" points="429.447,313.368 497.023,27.282 531.654,20.483  "/>
<polygon fill="#86cb03" points="458.590,596.674 11.550,165.171 418.571,53.958  "/>
<polygon fill="#2a59ce" points="212.400,485.410 441.885,80.192 387.133,521.165  "/>
<polygon fill="#bca44f" points="215.234,141.171 212.552,76.016 363.675,279.355  "/>
<polygon fill="#909ee7" points="416.061,412.561 75.824,492.636 112.267,113.718  "/>
<polygon fill="#904624" points="328.790,392.265 348.330,439.069 518.598,107.251  "/>
</svg>