<?xml version="1.0" encoding="utf-8"?>
<!-- Generator: Python script. InTeResTinG -->
<!DOCTYPE svg PUBLIC "-//W3C//DTD SVG 1.1//EN" "http://www.w3.org/Graphics/SVG/1.1/DTD/svg11.dtd">
<svg version="1.1" id="Layer_1" xmlns="http://www.w3.org/2000/svg" xmlns:xlink="http://www.w3.org/1999/xlink" x="0px" y="0px" width="600.000px" height="600.000px" viewBox="0 0 600.000 600.000" enable-background="new 0 0 600.000 600.000" xml:space="preserve">
<polygon fill="#8886ae" points="136.644,47.275 423.422,46.090 50.293,447.428  "/>
<polygon fill="#801a7c" points="555.960,146.453 91.734,224.818 43.139,97.603  "/>
<polygon fill="#00fcdd" points="552.691,156.750 454.340,318.297 246.862,563.474  "/>
<polygon fill="#9820ae" points="459.172,548.063 540.578,39.115 366.708,318.391  "/>
<polygon fill="#057b65" points="520.613,318.675 77.494,124.233 203.050,179.444  "/>
<polygon fill="#bedc75" points="258.867,438.165 153.325,282.721 186.258,299.295  "/>
<polygon fill="#959f47" points="77.258,528.254 255.727,126.839 539.296,53.718  "/>
<polygon fill="#6a0273" points="373.064,23.302 151.362,376.110 56.584,65.846  "/>
<polygon fill="#aee445" points="185.855,423.777 98.649,182.214 553.478,458.383  "/>
<polygon fill="#f19dca" points="557.961,520.213 125.059,577.201 471.064,431.945  "/>
<polygon fill="#77a622" points="382.553,247.345 508.580,4.117 342.243,439.024  "/>
<polygon fill="#664644" points="361.963,209.169 352.558,349.783 264.549,138.419  "/>
<polygon fill="#0b7b02" points="495.527,63.602 173.390,45.070 71.712,406.778  "/>
<polygon fill="#226c41" points="575.535,566.426 339.373,564.697 309.020,541.371  "/>
<polygon fill="#291b33" points="583.295,203.207 28.765,547.846 164.019,452.382  "/>
<polygon fill="#4400cf" points="338.370,413.464 226.828,387.901 107.196,449.729  "/>
<polygon fill="#75c935" points="505.030,131.846 349.093,439.539 259.299,582.532  "/>
<polygon fill="#6d21f9" points="56.459,584.983 495.501,181.101 432.099,417.699  "/>
<polygon fill="#ec8916" points="551.866,449.165 57.315,189.808 275.270,28.564  "/>
<polygon fill="#c22bdd" points="218.672,231.091 278.464,210.102 48.561,314.253  "/>
<polygon fill="#6c48c0" points="548.113,479.006 493.325,112.438 441.885,453.712  "/>
<polygon fill="#82cf82" points="250.917,360.430 572.006,261.843 204.939,496.556  "/>
<polygon fill="#18842f" points="263.959,360.842 545.507,540.850 218.007,113.635  "/>
<polygon fill="#e92faf" points="76.426,453.410 403.841,293.433 54.409,241.819  "/>
<polygon fill="#e78d39" points="118.630,66.345 259.077,506.562 115.114,371.747  "/>
<polygon fill="#d3cd1d" points="482.357,36.280 120.063,216.951 434.487,450.554  "/>
<polygon fill="#98b16c" points="568.443,519.761 38.951,553.239 115.953,235.159  "/>
<polygon fill="#21d912" points="218.095,511.937 108.584,532.889 107.369,478.552  "/>
<polygon fill="#7f1449" points="429.755,415.380 352.729,254.196 389.210,109.759  "/>
<polygon fill="#6840c7" points="245.542,515.833 85.846,495.282 344.406,317.427  "/>
<polygon fill="#d113ba" points="323.172,400.904 414.508,207.389 301.621,270.892  "/>
<polygon fill="#b63f89" points="379.185,216.417 501.919,415.256 374.295,528.541  "/>
<polygon fill="#cfa7b6" points="206.828,53.243 156.218,19.407 499.036,254.194  "/>
<polygon fill="#66930e" points="563.822,130.861 377.545,48.113 211.871,144.060  "/>
<polygon fill="#763f05" points="136.831,114.357 510.954,346.794 196.228,246.346  "/>
<polygon fill="#9e4f38" points="215.074,554.194 162.659,307.998 260.268,357.144  "/>
<polygon fill="#8670e2" points="40.399,511.982 122.678,435.948 6.857,407.360  "/>
<polygon fill="#9acb53" points="12.328,585.893 266.038,330.943 457.653,162.254  "/>
<polygon fill="#c8448f" points="186.724,315.247 469.967,272.918 32.408,281.183  "/>
<polygon fill="#845cdc" points="279.174,199.355 440.932,317.516 40.598,586.415  "/>
<polygon fill="#9b0b15" points="5.937,102.855 253.013,274.069 153.584,436.332  "/>
<polygon fill="#46c62b" points="449.999,265.708 87.499,88.282 565.800,564.926  "/>
<polygon fill="#eb428b" points="70.487,57.337 334.007,536.815 118.190,253.168  "/>
<polygon fill="#ba1f3d" points="81.844,9.173 266.309,291.474 70.199,293.560  "/>
<polygon fill="#93334b" points="388.921,499.926 313.950,419.679 421.697,337.406  "/>
<polygon fill="#97d765" points="546.658,345.973 432.437,82.170 31.362,258.995  "/>
<polygon fill="#bdac51" points="414.084,218.195 473.223,582.054 483.278,515.355  "/>
<polygon fill="#6593c7" points="587.483,163.016 268.618,599.258 434.948,589.932  "/>
<polygon fill="#4cf17b" points="534.113,61.124 526.293,208.250 231.831,385.009  "/>
<polygon fill="#b71ba1" points="73.553,220.900 78.441,450.549 202.490,29.252  "/>
<polygon fill="#285905" points="433.510,587.189 347.183,161.133 284.260,232.159  "/>
<polygon fill="#31c5f2" points="1.409,92.391 348.698,527.189 419.854,92.424  "/>
<polygon fill="#278f0b" points="319.390,364.877 41.875,551.633 565.067,361.434  "/>
<polygon fill="#dd0d14" points="225.477,499.333 113.124,154.378 502.251,370.825  "/>
<polygon fill="#c4de15" points="5.913,362.153 179.447,274.035 385.522,575.861  "/>
<polygon fill="#27149c" points="337.102,537.887 420.284,88.295 174.309,244.868  "/>
<polygon fill="#a39ae9" points="360.719,471.908 57.582,263.517 445.225,359.882  "/>
<polygon fill="#ec608c" points="414.420,412.705 345.581,2.959 18.201,164.488  "/>
<polygon fill="#28ba31" points="133.689,58.270 179.081,169.282 190.419,336.374  "/>
<polygon fill="#135752" points="43.498,551.661 147.597,397.252 306.762,214.689  "/>
<polygon fill="#c61d0d" points="45.239,304.030 498.983,287.301 508.353,244.717  "/>
<polygon fill="#d90c8d" points="338.444,117.807 524.760,168.958 289.994,577.174  "/>
<polygon fill="#56513a" points="594.804,287.562 57.891,409.618 267.936,44.235  "/>
</svg>