<?xml version="1.0" encoding="utf-8"?>
<!-- Generator: Python script. InTeResTinG -->
<!DOCTYPE svg PUBLIC "-//W3C//DTD SVG 1.1//EN" "http://www.w3.org/Graphics/SVG/1.1/DTD/svg11.dtd">
<svg version="1.1" id="Layer_1" xmlns="http://www.w3.org/2000/svg" xmlns:xlink="http://www.w3.org/1999/xlink" x="0px" y="0px" width="600.000px" height="600.000px" viewBox="0 0 600.000 600.000" enable-background="new 0 0 600.000 600.000" xml:space="preserve">
<polygon fill="#ffc855" points="188.256,435.225 337.089,115.743 116.391,587.372  "/>
<polygon fill="#83f522" points="391.202,184.254 435.460,204.645 440.732,339.842  "/>
<polygon fill="#548b20" points="489.783,265.619 127.757,70.252 168.403,523.657  "/>
<polygon fill="#79c255" points="273.498,79.172 186.830,543.487 556.160,556.752  "/>
<polygon fill="#818861" points="294.706,567.628 577.379,458.871 196.263,435.828  "/>
<polygon fill="#f7027f" points="226.881,335.632 248.837,496.039 277.969,303.376  "/>
<polygon fill="#7f1aed" points="88.189,170.956 415.424,139.517 327.078,406.812  "/>
<polygon fill="#adf1c4" points="265.121,4.064 181.797,257.070 197.166,426.451  "/>
<polygon fill="#0de505" points="170.832,329.159 459.495,333.666 327.751,71.767  "/>
<polygon fill="#93499a" points="144.748,6.140 79.647,361.862 470.461,426.976  "/>
<polygon fill="#42bb8e" points="354.257,0.105 447.842,75.464 463.784,371.502  "/>
<polygon fill="#ffc4d6" points="104.804,75.614 59.743,288.735 312.709,194.122  "/>
<polygon fill="#3d8e89" points="570.757,544.762 420.127,387.939 556.469,564.534  "/>
<polygon fill="#16d613" points="34.923,29.154 108.391,403.179 269.837,592.267  "/>
<polygon fill="#14d566" points="246.981,236.763 138.011,450.056 203.807,487.117  "/>
<polygon fill="#f4aeaf" points="152.638,10.120 475.226,345.471 46.899,120.259  "/>
<polygon fill="#461bc5" points="189.518,460.461 545.123,311.881 17.292,212.743  "/>
<polygon fill="#a7688b" points="221.992,2.319 85.439,50.352 548.193,541.271  "/>
<polygon fill="#01316b" points="489.957,500.772 302.230,582.461 471.642,186.938  "/>
<polygon fill="#53db54" points="496.648,547.297 114.345,531.449 428.811,114.640  "/>
<polygon fill="#58fb51" points="52.756,291.869 31.558,596.740 383.071,302.697  "/>
<polygon fill="#10ac83" points="145.436,213.923 291.718,230.051 394.319,101.960  "/>
<polygon fill="#3efe4c" points="322.952,466.970 522.567,520.481 114.379,274.350  "/>
<polygon fill="#04e259" points="408.743,73.429 546.278,184.630 400.488,123.557  "/>
<polygon fill="#e7e02f" points="343.574,539.141 111.244,325.966 242.385,125.006  "/>
<polygon fill="#d5d53b" points="492.497,271.913 595.161,356.777 100.024,237.914  "/>
<polygon fill="#0de731" points="23.374,260.558 11.193,316.690 186.535,36.755  "/>
<polygon fill="#9b4e5e" points="486.579,535.536 455.107,40.797 480.120,303.350  "/>
<polygon fill="#8c3f6a" points="580.649,358.129 305.312,556.052 347.407,598.906  "/>
<polygon fill="#e8ff43" points="551.150,482.118 545.335,66.106 224.390,56.480  "/>
<polygon fill="#feff6b" points="577.274,289.777 392.852,11.005 425.950,457.521  "/>
<polygon fill="#123303" points="343.536,270.054 587.834,555.296 460.304,434.787  "/>
<polygon fill="#a7786c" points="197.534,351.244 538.027,343.772 143.489,54.912  "/>
<polygon fill="#1185c4" points="527.293,184.190 228.296,422.664 286.205,133.951  "/>
<polygon fill="#088b8e" points="244.755,547.188 22.914,209.782 349.930,274.539  "/>
<polygon fill="#9c613a" points="551.221,330.031 455.124,189.163 585.141,588.891  "/>
<polygon fill="#bdc989" points="82.411,23.547 289.525,124.565 14.619,453.318  "/>
<polygon fill="#723a0d" points="365.893,181.720 446.259,34.195 427.293,64.768  "/>
<polygon fill="#9a90a9" points="509.510,472.388 446.448,516.134 350.521,47.671  "/>
<polygon fill="#0818d0" points="592.546,56.414 322.119,319.142 212.783,19.730  "/>
<polygon fill="#120d76" points="205.140,107.483 196.522,189.121 575.530,338.724  "/>
<polygon fill="#801e8b" points="99.155,465.490 407.416,494.225 304.034,265.612  "/>
<polygon fill="#893bf8" points="295.361,286.701 189.453,235.696 282.467,414.519  "/>
<polygon fill="#6e250a" points="79.120,386.983 516.887,270.603 54.244,102.652  "/>
<polygon fill="#472116" points="192.769,200.766 336.872,244.053 545.549,482.813  "/>
<polygon fill="#ad702f" points="281.420,365.572 228.303,264.322 527.590,21.433  "/>
<polygon fill="#43e933" points="180.822,583.705 419.471,310.942 361.933,112.536  "/>
<polygon fill="#5712c5" points="298.001,413.550 445.754,490.842 380.661,12.917  "/>
<polygon fill="#5246ba" points="240.184,516.136 179.748,165.829 340.956,327.387  "/>
<polygon fill="#aee02b" points="6.762,497.861 475.166,255.377 498.837,382.339  "/>
<polygon fill="#6d572c" points="506.457,415.030 484.579,72.217 199.240,40.078  "/>
<polygon fill="#9dfedd" points="510.226,430.570 270.552,137.820 382.900,134.951  "/>
<polygon fill="#618424" points="281.825,450.175 159.830,224.086 4.757,154.046  "/>
<polygon fill="#ac6b0c" points="194.654,19.486 197.676,249.101 391.087,159.414  "/>
<polygon fill="#a67292" points="45.567,142.485 402.835,448.014 109.272,503.194  "/>
<polygon fill="#f59328" points="150.783,256.965 555.114,447.224 291.658,543.888  "/>
<polygon fill="#eaa5f0" points="202.196,533.526 422.298,125.908 274.027,8.237  "/>
<polygon fill="#a6f1a3" points="320.005,217.623 297.627,364.417 353.215,83.021  "/>
</svg>