<?xml version="1.0" encoding="utf-8"?>
<!-- Generator: Python script. InTeResTinG -->
<!DOCTYPE svg PUBLIC "-//W3C//DTD SVG 1.1//EN" "http://www.w3.org/Graphics/SVG/1.1/DTD/svg11.dtd">
<svg version="1.1" id="Layer_1" xmlns="http://www.w3.org/2000/svg" xmlns:xlink="http://www.w3.org/1999/xlink" x="0px" y="0px" width="600.000px" height="600.000px" viewBox="0 0 600.000 600.000" enable-background="new 0 0 600.000 600.000" xml:space="preserve">
<polygon fill="#4e5495" points="461.350,385.797 450.793,14.915 318.982,497.551  "/>
<polygon fill="#d94fca" points="13.240,142.202 462.998,252.520 450.954,272.922  "/>
<polygon fill="#b7b1fc" points="103.598,456.133 126.554,151.488 575.809,531.463  "/>
<polygon fill="#aa8eef" points="533.167,362.208 7.399,362.346 62.726,479.997  "/>
<polygon fill="#2ce386" points="415.221,234.071 445.589,234.985 227.579,488.902  "/>
<polygon fill="#55b9b1" points="346.673,169.393 530.549,486.306 97.736,91.342  "/>
<polygon fill="#d08b61" points="451.579,233.347 380.649,586.771 361.058,77.242  "/>
<polygon fill="#9c60d1" points="252.518,548.247 256.998,116.659 245.582,276.009  "/>
<polygon fill="#38bd39" points="542.558,259.745 312.554,237.656 313.745,308.501  "/>
<polygon fill="#efa6aa" points="508.008,351.764 376.892,299.968 469.312,189.277  "/>
<polygon fill="#73dd2d" points="495.698,596.993 186.122,498.312 34.868,42.617  "/>
<polygon fill="#21dd29" points="225.388,114.433 293.853,210.780 508.559,468.352  "/>
<polygon fill="#72dd99" points="263.320,99.106 387.842,444.692 367.757,96.913  "/>
<polygon fill="#e4e41e" points="364.478,472.155 1.846,264.664 477.398,486.748  "/>
<polygon fill="#a33c3a" points="245.715,395.453 130.772,370.788 569.324,338.891  "/>
<polygon fill="#125d96" points="191.289,599.833 422.441,524.260 430.020,130.156  "/>
<polygon fill="#4fe74b" points="328.968,80.028 590.056,458.011 598.620,529.644  "/>
<polygon fill="#c79149" points="54.586,487.299 117.814,268.263 105.389,149.224  "/>
<polygon fill="#23f344" points="350.793,493.034 192.400,113.913 403.158,287.932  "/>
<polygon fill="#67c159" points="219.856,228.801 464.521,463.240 182.835,405.686  "/>
<polygon fill="#9970a4" points="488.529,280.765 568.215,47.263 382.508,514.125  "/>
<polygon fill="#6a4d16" points="504.853,329.831 210.367,232.486 568.288,344.608  "/>
<polygon fill="#05dfbb" points="499.830,591.859 388.828,297.425 227.400,33.202  "/>
<polygon fill="#65e5ad" points="338.807,338.793 318.626,363.545 239.419,220.400  "/>
<polygon fill="#4f21ac" points="527.188,218.691 211.587,336.572 197.379,146.308  "/>
<polygon fill="#4069cf" points="402.384,349.308 230.957,207.164 151.995,571.549  "/>
<polygon fill="#ab6fe5" points="139.980,212.034 19.519,422.115 360.593,500.910  "/>
<polygon fill="#8f3ad9" points="469.084,133.130 278.760,550.737 284.785,393.731  "/>
<polygon fill="#ec49c4" points="57.489,434.556 295.295,348.437 263.348,359.258  "/>
<polygon fill="#42de78" points="18.131,26.483 52.038,209.151 189.741,417.885  "/>
<polygon fill="#713f4c" points="303.198,478.903 587.220,347.937 325.413,327.886  "/>
<polygon fill="#f1141e" points="155.784,444.416 87.484,444.605 585.353,585.229  "/>
<polygon fill="#7acc2b" points="62.092,96.994 363.825,67.285 164.606,86.249  "/>
<polygon fill="#e8945e" points="417.739,386.994 296.229,361.562 211.606,226.601  "/>
<polygon fill="#16000a" points="87.866,98.287 474.638,52.114 256.868,561.420  "/>
<polygon fill="#9ad850" points="46.734,183.158 478.639,352.156 106.577,78.395  "/>
<polygon fill="#f74ead" points="344.307,279.676 490.892,495.836 150.912,244.580  "/>
<polygon fill="#a7133b" points="31.858,320.479 587.233,6.667 359.348,77.172  "/>
<polygon fill="#289100" points="399.968,239.788 42.180,522.277 109.046,233.014  "/>
<polygon fill="#2e7829" points="127.424,42.416 155.861,373.929 520.577,16.766  "/>
<polygon fill="#88a5c4" points="589.020,131.158 204.812,14.641 136.407,192.354  "/>
<polygon fill="#5817b7" points="273.182,405.845 198.772,551.700 351.923,138.224  "/>
<polygon fill="#99a5a9" points="16.101,153.016 68.099,94.643 69.437,156.160  "/>
<polygon fill="#79acb7" points="448.949,30.052 383.509,425.045 451.004,125.210  "/>
<polygon fill="#8ea97b" points="142.776,301.614 10.361,421.617 177.083,190.803  "/>
<polygon fill="#ce6d94" points="434.952,170.035 459.289,51.577 169.379,186.698  "/>
<polygon fill="#f70826" points="578.920,132.616 176.873,176.872 190.819,594.043  "/>
<polygon fill="#bd3c01" points="247.891,327.330 382.867,68.610 489.615,208.862  "/>
<polygon fill="#123b81" points="189.140,308.047 487.508,275.199 479.249,129.967  "/>
<polygon fill="#02a062" points="213.313,305.810 315.938,429.791 555.631,278.937  "/>
<polygon fill="#a16ba7" points="173.437,458.255 242.977,404.279 404.256,467.961  "/>
<polygon fill="#8bdd77" points="128.496,180.143 552.750,280.161 119.340,201.544  "/>
<polygon fill="#9d00f5" points="547.471,223.695 367.888,76.300 280.680,242.100  "/>
<polygon fill="#dee80b" points="303.730,250.479 458.531,73.714 191.350,547.253  "/>
<polygon fill="#18132a" points="310.163,145.290 132.928,20.777 191.295,63.012  "/>
<polygon fill="#886e35" points="69.506,239.281 146.839,45.798 12.481,305.940  "/>
<polygon fill="#e7268c" points="53.301,139.300 131.933,338.491 296.065,145.363  "/>
<polygon fill="#4d68cd" points="0.873,278.356 396.666,547.990 359.943,551.357  "/>
<polygon fill="#275260" points="143.574,336.751 386.030,430.934 102.780,575.725  "/>
<polygon fill="#7b2223" points="26.830,376.314 519.312,486.901 186.086,337.554  "/>
<polygon fill="#4fdc49" points="469.195,295.676 277.422,411.178 585.666,11.364  "/>
<polygon fill="#cf8ad3" points="390.619,527.263 287.704,40.854 483.760,122.476  "/>
<polygon fill="#b65d11" points="245.795,235.481 118.365,287.317 40.640,25.778  "/>
<polygon fill="#86cfe4" points="577.231,497.564 403.327,346.464 340.092,104.613  "/>
<polygon fill="#7ffd82" points="427.796,535.434 498.583,296.815 546.137,557.422  "/>
<polygon fill="#254299" points="351.499,472.115 546.739,60.505 502.323,492.562  "/>
<polygon fill="#1375e2" points="296.875,79.647 106.006,29.984 412.424,499.240  "/>
<polygon fill="#daa625" points="550.549,253.376 376.130,169.226 501.961,104.839  "/>
<polygon fill="#d4d1f6" points="534.252,274.862 561.899,88.101 25.850,261.433  "/>
<polygon fill="#86af4b" points="79.985,409.330 406.814,550.732 77.704,304.207  "/>
</svg>