<?xml version="1.0" encoding="utf-8"?>
<!-- Generator: Python script. InTeResTinG -->
<!DOCTYPE svg PUBLIC "-//W3C//DTD SVG 1.1//EN" "http://www.w3.org/Graphics/SVG/1.1/DTD/svg11.dtd">
<svg version="1.1" id="Layer_1" xmlns="http://www.w3.org/2000/svg" xmlns:xlink="http://www.w3.org/1999/xlink" x="0px" y="0px" width="600.000px" height="600.000px" viewBox="0 0 600.000 600.000" enable-background="new 0 0 600.000 600.000" xml:space="preserve">
<polygon fill="#25e4c0" points="221.989,173.935 465.845,29.673 93.931,83.437  "/>
<polygon fill="#1ec2c6" points="375.470,499.243 406.435,471.093 149.103,481.289  "/>
<polygon fill="#4ecc81" points="493.546,95.554 568.232,41.673 120.605,524.400  "/>
<polygon fill="#17aeb6" points="284.376,322.452 198.446,466.026 286.031,211.429  "/>
<polygon fill="#ab20bd" points="568.034,563.600 13.516,427.084 130.075,519.130  "/>
<polygon fill="#09da01" points="576.389,515.288 289.727,13.215 408.409,185.931  "/>
<polygon fill="#c2f57d" points="182.077,426.875 18.837,303.427 299.315,262.744  "/>
<polygon fill="#2577ce" points="476.196,237.278 337.782,341.171 470.845,354.967  "/>
<polygon fill="#0f9dc0" points="139.454,376.778 394.907,372.459 102.269,4.894  "/>
<polygon fill="#803ce9" points="371.144,485.202 400.815,340.220 230.206,363.688  "/>
<polygon fill="#bc6248" points="84.509,126.757 153.174,343.832 225.586,159.816  "/>
<polygon fill="#115009" points="399.142,390.634 584.743,337.931 288.691,479.555  "/>
<polygon fill="#94e512" points="56.159,592.073 26.284,336.362 320.884,38.821  "/>
<polygon fill="#9ed62e" points="368.941,115.967 599.144,91.100 389.139,146.837  "/>
<polygon fill="#60ec5d" points="405.013,517.975 232.402,568.394 348.887,77.234  "/>
<polygon fill="#68efda" points="58.572,484.266 120.001,165.789 527.694,456.660  "/>
<polygon fill="#6a93ef" points="170.846,175.605 309.819,296.370 9.364,465.725  "/>
<polygon fill="#157b4e" points="592.930,269.205 230.857,61.490 586.832,127.098  "/>
<polygon fill="#73f6d3" points="35.958,240.475 16.524,36.624 156.860,334.015  "/>
<polygon fill="#b63467" points="507.165,121.773 178.645,66.038 525.507,532.527  "/>
<polygon fill="#5584cc" points="454.487,291.420 273.952,507.981 487.282,345.373  "/>
<polygon fill="#47541f" points="516.084,219.583 424.598,384.876 568.381,485.108  "/>
<polygon fill="#a4e59d" points="13.358,345.601 64.363,51.448 500.799,589.067  "/>
<polygon fill="#60488f" points="235.796,472.495 341.508,40.952 569.876,446.472  "/>
<polygon fill="#113f3a" points="364.716,76.083 107.096,299.602 368.014,89.111  "/>
<polygon fill="#11f5df" points="108.644,173.805 529.851,427.772 599.170,513.011  "/>
<polygon fill="#873309" points="19.380,301.003 38.597,285.653 533.466,495.233  "/>
<polygon fill="#e3a08e" points="11.639,326.527 330.864,36.298 340.810,467.643  "/>
<polygon fill="#5c11ce" points="309.356,196.777 532.906,184.427 364.518,164.512  "/>
<polygon fill="#43cfba" points="533.415,37.628 187.880,202.470 241.405,148.123  "/>
<polygon fill="#6769af" points="29.562,507.790 358.109,403.285 564.252,464.909  "/>
<polygon fill="#552665" points="588.469,212.607 465.008,508.394 265.547,315.203  "/>
<polygon fill="#4ee524" points="110.079,102.763 103.676,293.251 316.915,151.548  "/>
<polygon fill="#e6ba83" points="505.110,520.070 569.443,90.711 425.079,451.573  "/>
<polygon fill="#9bc1a8" points="554.452,104.178 66.421,208.131 367.092,392.175  "/>
<polygon fill="#ab1cd7" points="517.805,77.397 116.584,528.178 166.162,394.505  "/>
<polygon fill="#e9dfcd" points="230.625,240.281 591.719,597.266 162.946,420.478  "/>
<polygon fill="#b7c03b" points="325.429,197.479 92.025,309.544 399.733,225.503  "/>
<polygon fill="#71a4a5" points="437.661,275.010 166.271,117.466 550.920,378.229  "/>
<polygon fill="#9ff257" points="418.243,40.846 100.997,252.691 387.742,104.946  "/>
<polygon fill="#4a3e69" points="246.487,111.689 295.195,296.779 252.324,417.296  "/>
<polygon fill="#063e30" points="338.844,560.945 249.921,11.685 6.759,447.107  "/>
<polygon fill="#53d979" points="161.975,186.961 380.736,337.076 374.114,291.081  "/>
<polygon fill="#3c7526" points="380.904,519.144 62.058,151.062 121.195,404.169  "/>
<polygon fill="#c36f80" points="173.926,121.716 262.264,268.085 406.086,412.402  "/>
<polygon fill="#be363a" points="112.317,378.500 353.133,396.845 464.088,572.495  "/>
<polygon fill="#0db503" points="200.925,227.183 193.916,404.601 314.060,307.240  "/>
<polygon fill="#95d738" points="501.716,286.121 502.331,44.724 226.752,497.364  "/>
<polygon fill="#61f79e" points="599.820,499.805 131.491,460.603 473.266,10.200  "/>
<polygon fill="#e20946" points="281.922,407.009 267.263,179.857 170.114,175.234  "/>
<polygon fill="#506caf" points="219.949,151.856 307.946,84.805 423.067,210.372  "/>
<polygon fill="#9e2828" points="333.035,140.768 169.513,51.573 3.591,107.652  "/>
<polygon fill="#65e55b" points="389.986,348.635 221.768,15.990 78.013,241.981  "/>
<polygon fill="#737d29" points="276.689,140.566 337.590,176.468 583.367,56.475  "/>
<polygon fill="#516c15" points="158.409,24.512 452.142,369.262 42.112,354.615  "/>
<polygon fill="#f04de4" points="236.676,417.633 327.682,88.956 507.457,197.561  "/>
<polygon fill="#94ce41" points="423.204,477.336 110.267,64.002 394.193,236.114  "/>
<polygon fill="#289b17" points="32.204,222.910 505.449,437.033 560.626,480.690  "/>
<polygon fill="#3662c4" points="540.811,530.988 375.390,425.403 314.285,137.884  "/>
<polygon fill="#664616" points="435.534,539.508 330.757,576.818 331.753,329.205  "/>
<polygon fill="#eecbeb" points="320.510,240.222 568.933,365.344 70.401,65.726  "/>
<polygon fill="#8aad0d" points="334.790,427.838 467.552,115.451 451.037,412.849  "/>
<polygon fill="#5ebda1" points="451.042,493.754 367.729,566.828 19.446,374.347  "/>
<polygon fill="#4a19fc" points="327.065,598.088 359.859,525.941 317.005,353.558  "/>
<polygon fill="#7238bd" points="545.659,478.928 339.097,36.533 589.059,341.012  "/>
<polygon fill="#4ec628" points="433.463,559.339 104.505,510.532 134.712,585.188  "/>
<polygon fill="#711479" points="243.001,238.605 448.111,152.710 450.972,457.252  "/>
</svg>