<?xml version="1.0" encoding="utf-8"?>
<!-- Generator: Python script. InTeResTinG -->
<!DOCTYPE svg PUBLIC "-//W3C//DTD SVG 1.1//EN" "http://www.w3.org/Graphics/SVG/1.1/DTD/svg11.dtd">
<svg version="1.1" id="Layer_1" xmlns="http://www.w3.org/2000/svg" xmlns:xlink="http://www.w3.org/1999/xlink" x="0px" y="0px" width="600.000px" height="600.000px" viewBox="0 0 600.000 600.000" enable-background="new 0 0 600.000 600.000" xml:space="preserve">
<polygon fill="#9b6a33" points="301.802,75.604 242.134,560.634 594.886,423.018  "/>
<polygon fill="#f3e7a2" points="108.820,372.658 222.029,10.925 110.591,238.077  "/>
<polygon fill="#8cf17e" points="22.811,190.362 509.353,175.563 463.979,304.430  "/>
<polygon fill="#49fb89" points="496.446,20.584 503.966,70.777 296.990,535.227  "/>
<polygon fill="#e9f2fb" points="438.191,285.765 525.254,336.006 253.641,220.191  "/>
<polygon fill="#0ddf5c" points="146.077,575.782 513.309,490.123 482.980,361.062  "/>
<polygon fill="#75b226" points="67.293,168.516 193.688,39.954 24.977,194.756  "/>
<polygon fill="#52fdb5" points="406.722,480.354 72.661,157.655 434.020,357.213  "/>
<polygon fill="#818fc8" points="447.970,184.981 519.306,541.294 241.973,523.452  "/>
<polygon fill="#7b6689" points="535.165,207.472 327.896,253.331 300.538,152.548  "/>
<polygon fill="#da0423" points="76.026,522.374 218.179,38.090 326.399,359.060  "/>
<polygon fill="#5cd537" points="60.127,305.530 296.890,334.651 338.372,343.558  "/>
<polygon fill="#d42409" points="503.328,12.271 131.254,28.971 439.309,143.124  "/>
<polygon fill="#22d194" points="96.586,453.085 281.597,303.054 45.932,149.724  "/>
<polygon fill="#021e34" points="173.775,408.542 56.825,180.989 449.660,381.665  "/>
<polygon fill="#511c1e" points="598.315,212.479 64.245,457.531 19.693,372.261  "/>
<polygon fill="#4ee6da" points="479.720,422.583 358.018,189.438 288.049,446.715  "/>
<polygon fill="#d5e7e6" points="225.176,588.386 242.906,197.097 452.658,406.534  "/>
<polygon fill="#7593b0" points="307.163,386.692 453.334,133.789 267.619,167.438  "/>
<polygon fill="#bd0587" points="111.825,207.654 568.111,94.725 84.815,93.040  "/>
<polygon fill="#7b4a4b" points="7.756,287.708 281.333,472.462 459.342,550.988  "/>
<polygon fill="#5162c0" points="144.227,170.028 359.447,275.669 359.069,340.504  "/>
<polygon fill="#3855c3" points="168.879,456.419 522.587,509.488 131.674,355.216  "/>
<polygon fill="#cae803" points="478.627,231.645 383.571,202.337 75.474,549.392  "/>
<polygon fill="#a849ee" points="222.067,472.735 233.281,491.507 241.421,109.320  "/>
<polygon fill="#6937d2" points="421.582,363.245 88.791,559.976 231.367,151.078  "/>
<polygon fill="#62a35f" points="168.322,278.767 350.421,168.012 308.296,214.384  "/>
<polygon fill="#79c6d5" points="328.395,262.226 418.553,40.354 71.670,175.430  "/>
<polygon fill="#fa3c4a" points="341.156,563.157 142.807,15.143 310.836,332.614  "/>
<polygon fill="#d3a291" points="379.038,510.006 33.260,191.957 217.805,237.264  "/>
<polygon fill="#0b4afa" points="575.584,492.881 119.885,495.967 214.340,109.384  "/>
<polygon fill="#0ad369" points="527.021,154.041 91.496,431.114 536.127,414.743  "/>
<polygon fill="#9bd5a5" points="57.305,389.081 22.086,422.081 588.754,356.413  "/>
<polygon fill="#8030d2" points="359.809,157.646 420.560,39.357 207.886,524.244  "/>
<polygon fill="#293a8d" points="15.296,4.289 7.171,287.935 228.017,53.203  "/>
<polygon fill="#ba6060" points="502.196,559.777 76.772,18.143 594.270,481.061  "/>
<polygon fill="#a0fb03" points="580.353,431.628 80.419,38.381 207.893,172.779  "/>
<polygon fill="#d1e1a5" points="326.687,290.233 330.862,583.285 213.674,178.560  "/>
<polygon fill="#48dc63" points="504.763,537.044 288.181,418.065 195.774,247.238  "/>
<polygon fill="#613e12" points="49.633,28.273 322.469,121.471 94.679,252.468  "/>
<polygon fill="#e6b009" points="174.964,221.589 104.720,28.132 159.621,96.312  "/>
<polygon fill="#64290c" points="16.328,320.649 272.582,575.987 506.418,409.455  "/>
<polygon fill="#c9d9ea" points="590.487,286.793 187.039,105.960 23.490,0.927  "/>
<polygon fill="#71b7e3" points="5.477,125.072 158.765,459.890 478.699,149.430  "/>
<polygon fill="#f23d76" points="11.566,11.618 144.393,497.778 434.176,557.193  "/>
<polygon fill="#e90f89" points="476.299,197.178 124.663,443.683 444.296,208.958  "/>
<polygon fill="#61ff6b" points="321.981,476.274 442.566,475.660 108.706,496.728  "/>
<polygon fill="#dc1900" points="442.854,126.096 499.838,551.748 145.576,506.040  "/>
<polygon fill="#104f2d" points="431.903,64.873 389.695,169.262 163.368,362.936  "/>
<polygon fill="#f4001b" points="390.876,503.252 490.191,204.361 77.635,333.074  "/>
</svg>