<?xml version="1.0" encoding="utf-8"?>
<!-- Generator: Python script. InTeResTinG -->
<!DOCTYPE svg PUBLIC "-//W3C//DTD SVG 1.1//EN" "http://www.w3.org/Graphics/SVG/1.1/DTD/svg11.dtd">
<svg version="1.1" id="Layer_1" xmlns="http://www.w3.org/2000/svg" xmlns:xlink="http://www.w3.org/1999/xlink" x="0px" y="0px" width="600.000px" height="600.000px" viewBox="0 0 600.000 600.000" enable-background="new 0 0 600.000 600.000" xml:space="preserve">
<polygon fill="#b4b937" points="460.838,210.710 494.762,539.238 536.573,589.637  "/>
<polygon fill="#71eac2" points="348.889,89.283 315.094,545.528 103.393,374.758  "/>
<polygon fill="#bca305" points="379.763,16.278 455.988,8.631 198.764,246.617  "/>
<polygon fill="#8007d3" points="446.152,44.124 165.435,290.611 340.160,365.323  "/>
<polygon fill="#6f123f" points="233.382,447.339 442.392,254.971 119.702,339.734  "/>
<polygon fill="#691c83" points="301.544,185.498 70.876,486.832 68.050,269.678  "/>
<polygon fill="#494416" points="243.606,145.423 538.905,352.546 344.512,91.838  "/>
<polygon fill="#17a489" points="154.769,485.162 266.983,284.854 301.865,243.513  "/>
<polygon fill="#16c04f" points="57.949,363.390 50.511,469.444 30.430,226.290  "/>
<polygon fill="#8fe706" points="206.359,95.231 289.591,10.641 77.580,369.891  "/>
<polygon fill="#b99e1a" points="173.124,193.180 457.642,316.717 224.162,450.095  "/>
<polygon fill="#057a41" points="169.086,487.275 521.687,163.106 511.842,510.819  "/>
<polygon fill="#1d6a41" points="202.705,136.803 89.113,434.481 13.165,335.154  "/>
<polygon fill="#86960f" points="18.267,5.050 479.687,515.429 476.738,144.478  "/>
<polygon fill="#6fea5d" points="194.268,288.563 25.376,397.349 399.012,388.256  "/>
<polygon fill="#bce649" points="226.557,27.422 199.121,26.894 513.199,344.450  "/>
<polygon fill="#6311e6" points="421.269,192.640 13.650,281.566 482.811,536.540  "/>
<polygon fill="#2b6378" points="182.055,368.401 154.911,472.060 103.805,508.567  "/>
<polygon fill="#51f058" points="376.115,465.885 220.957,189.785 339.574,298.910  "/>
<polygon fill="#1e1614" points="72.129,334.208 537.339,304.236 563.815,515.022  "/>
<polygon fill="#2d715e" points="567.512,22.034 543.176,82.221 531.289,283.428  "/>
<polygon fill="#d51ea8" points="222.821,291.297 555.673,370.171 177.745,233.758  "/>
<polygon fill="#4cc4a6" points="254.561,271.979 98.049,365.269 506.326,90.019  "/>
<polygon fill="#557fab" points="100.871,307.527 37.063,283.559 418.445,367.247  "/>
<polygon fill="#416242" points="234.365,285.618 454.806,229.505 235.190,369.988  "/>
<polygon fill="#7f5004" points="37.200,527.408 522.850,325.215 20.176,582.092  "/>
<polygon fill="#d6ca79" points="407.871,329.567 273.709,409.747 2.524,372.060  "/>
<polygon fill="#565a52" points="254.692,345.750 174.376,301.623 102.857,326.017  "/>
<polygon fill="#fccdea" points="15.411,216.754 129.735,160.531 595.142,421.897  "/>
<polygon fill="#c9e609" points="560.154,312.245 477.224,73.650 392.202,395.362  "/>
<polygon fill="#598ae9" points="483.818,416.070 458.635,58.768 141.299,189.468  "/>
<polygon fill="#5e280c" points="547.797,560.278 126.561,35.454 285.935,180.826  "/>
<polygon fill="#d46b3e" points="428.307,269.679 50.670,582.439 132.452,590.628  "/>
<polygon fill="#a12430" points="368.566,67.157 246.052,522.843 98.702,266.451  "/>
<polygon fill="#44048b" points="483.079,365.488 341.262,571.165 299.436,319.224  "/>
<polygon fill="#2d2192" points="233.682,262.115 581.662,529.370 12.977,370.715  "/>
<polygon fill="#90a591" points="474.646,299.071 40.831,34.526 10.269,256.003  "/>
<polygon fill="#441523" points="444.013,168.990 185.234,575.931 564.169,69.062  "/>
<polygon fill="#47128f" points="392.086,556.710 116.840,464.776 354.237,2.202  "/>
<polygon fill="#8d6a50" points="541.326,501.617 276.842,441.208 134.489,575.761  "/>
<polygon fill="#3013e4" points="10.808,494.816 78.226,442.486 196.673,149.114  "/>
<polygon fill="#570820" points="242.331,142.793 101.872,315.449 436.807,379.628  "/>
<polygon fill="#9dbbf9" points="75.161,524.513 532.369,323.369 469.413,244.876  "/>
<polygon fill="#3a159b" points="83.356,77.818 146.941,461.594 425.199,75.223  "/>
<polygon fill="#be0395" points="244.085,254.699 266.299,237.917 138.633,263.933  "/>
<polygon fill="#7ce7af" points="473.691,348.012 552.993,251.004 594.745,115.154  "/>
<polygon fill="#11a228" points="539.047,29.627 61.478,221.877 281.417,565.782  "/>
<polygon fill="#bf8c44" points="182.805,40.568 153.647,318.816 498.443,230.179  "/>
<polygon fill="#5fd8c7" points="484.496,465.762 471.127,27.027 561.647,159.396  "/>
<polygon fill="#d5ea94" points="27.822,545.818 516.442,273.821 136.590,231.190  "/>
<polygon fill="#19bad5" points="267.730,584.274 297.758,460.083 326.902,387.588  "/>
<polygon fill="#20057f" points="482.168,439.653 376.864,352.639 149.730,473.806  "/>
<polygon fill="#885791" points="86.657,18.556 340.291,259.878 543.691,570.600  "/>
<polygon fill="#139da8" points="130.740,506.789 274.483,451.127 25.652,79.941  "/>
<polygon fill="#d5c0f2" points="584.098,381.509 549.633,477.846 407.190,152.548  "/>
<polygon fill="#8bd8b9" points="480.758,383.467 265.586,599.651 341.408,199.332  "/>
<polygon fill="#e20750" points="527.739,11.230 511.348,227.506 446.850,557.517  "/>
<polygon fill="#548d7c" points="529.712,483.644 45.107,424.954 40.728,477.823  "/>
<polygon fill="#a2119e" points="423.322,321.408 557.753,440.766 367.279,254.172  "/>
<polygon fill="#a7ca96" points="134.086,32.385 149.831,593.682 492.061,64.359  "/>
<polygon fill="#05977f" points="323.626,588.385 500.129,558.193 93.059,11.249  "/>
<polygon fill="#ef940b" points="180.025,261.009 319.143,104.873 112.512,236.541  "/>
<polygon fill="#1090d8" points="353.928,550.144 302.461,123.239 136.058,534.597  "/>
<polygon fill="#c0d71e" points="314.547,264.745 539.692,312.038 12.551,1.475  "/>
<polygon fill="#238da8" points="77.272,182.154 265.289,92.686 356.303,134.320  "/>
<polygon fill="#eb3e08" points="546.580,579.943 333.950,89.745 149.939,499.107  "/>
<polygon fill="#f762ec" points="512.740,288.187 284.552,561.853 194.261,461.257  "/>
<polygon fill="#c56d31" points="141.720,20.678 191.822,253.684 467.826,133.877  "/>
</svg>