<?xml version="1.0" encoding="utf-8"?>
<!-- Generator: Python script. InTeResTinG -->
<!DOCTYPE svg PUBLIC "-//W3C//DTD SVG 1.1//EN" "http://www.w3.org/Graphics/SVG/1.1/DTD/svg11.dtd">
<svg version="1.1" id="Layer_1" xmlns="http://www.w3.org/2000/svg" xmlns:xlink="http://www.w3.org/1999/xlink" x="0px" y="0px" width="600.000px" height="600.000px" viewBox="0 0 600.000 600.000" enable-background="new 0 0 600.000 600.000" xml:space="preserve">
<polygon fill="#242406" points="341.295,27.299 290.805,60.130 141.956,50.391  "/>
<polygon fill="#724cbe" points="145.726,247.796 477.519,522.840 574.610,15.116  "/>
<polygon fill="#a8a9bf" points="7.741,467.614 322.271,591.371 540.700,507.146  "/>
<polygon fill="#18aae1" points="44.311,442.807 504.573,476.756 211.161,357.488  "/>
<polygon fill="#e040d8" points="265.926,294.455 501.154,486.213 125.230,122.374  "/>
<polygon fill="#3945fe" points="127.427,280.982 111.892,350.588 307.776,286.761  "/>
<polygon fill="#157895" points="360.708,80.064 517.448,493.662 585.748,540.086  "/>
<polygon fill="#324e73" points="325.985,282.040 192.023,48.909 432.814,316.703  "/>
<polygon fill="#bc295b" points="230.941,356.092 330.194,257.926 352.729,166.187  "/>
<polygon fill="#3834fe" points="448.782,516.395 565.567,146.889 300.529,561.125  "/>
<polygon fill="#d687f5" points="560.142,330.571 243.732,20.542 593.200,423.704  "/>
<polygon fill="#8092f8" points="405.576,585.432 423.484,61.812 92.993,551.680  "/>
<polygon fill="#c52658" points="537.871,452.475 410.319,99.693 587.536,41.515  "/>
<polygon fill="#ce8c6a" points="320.746,315.932 209.961,16.460 257.001,146.745  "/>
<polygon fill="#07e329" points="99.252,206.279 224.856,24.239 16.569,348.101  "/>
<polygon fill="#dc6b9b" points="81.510,220.685 567.785,43.272 523.270,62.020  "/>
<polygon fill="#a2ff08" points="236.518,542.057 115.090,594.537 12.766,597.068  "/>
<polygon fill="#b79d41" points="300.265,2.274 503.188,75.207 62.403,391.427  "/>
<polygon fill="#d7c306" points="335.088,68.275 159.143,276.165 169.004,540.282  "/>
<polygon fill="#78dae9" points="548.872,238.243 299.700,60.917 35.425,34.070  "/>
<polygon fill="#9d7000" points="251.616,193.566 536.100,202.309 268.649,242.013  "/>
<polygon fill="#efe3dc" points="198.992,114.242 384.701,333.889 594.591,167.638  "/>
<polygon fill="#6a3c44" points="118.670,466.625 445.440,423.698 271.989,444.521  "/>
<polygon fill="#e946d4" points="223.110,472.383 362.974,288.591 584.638,484.671  "/>
<polygon fill="#a4e00f" points="436.300,427.852 599.803,383.848 597.992,164.804  "/>
<polygon fill="#f15c64" points="126.586,270.233 265.927,461.428 351.918,558.261  "/>
<polygon fill="#554a59" points="65.430,100.365 172.502,404.914 128.294,173.191  "/>
<polygon fill="#6475ec" points="110.415,427.632 572.350,315.396 509.166,147.528  "/>
<polygon fill="#edcced" points="532.842,236.058 289.023,7.940 389.891,341.755  "/>
<polygon fill="#3d3347" points="16.094,105.707 287.935,558.895 455.627,466.561  "/>
<polygon fill="#f83b3c" points="231.229,356.926 60.013,63.011 29.957,596.994  "/>
<polygon fill="#e6d96d" points="462.598,171.409 456.931,201.722 569.441,32.882  "/>
<polygon fill="#f09d7f" points="103.481,421.980 10.947,33.090 105.877,13.477  "/>
<polygon fill="#c1095f" points="195.251,112.756 327.007,121.080 325.715,459.474  "/>
<polygon fill="#effdd8" points="72.065,38.219 68.847,107.645 280.590,227.134  "/>
<polygon fill="#65666a" points="506.728,581.343 79.531,558.677 35.396,250.819  "/>
<polygon fill="#b8fdb3" points="484.219,544.903 193.833,203.817 500.327,474.079  "/>
<polygon fill="#9f6dcd" points="502.136,0.214 216.581,335.621 342.496,386.806  "/>
<polygon fill="#53af76" points="263.021,7.925 535.752,346.067 472.668,524.899  "/>
<polygon fill="#b1e51c" points="504.393,70.563 108.919,174.478 367.624,90.978  "/>
<polygon fill="#d50eab" points="26.435,90.948 351.704,158.126 223.031,109.675  "/>
<polygon fill="#370cba" points="110.283,245.210 460.973,422.026 488.408,109.351  "/>
<polygon fill="#f49773" points="414.338,235.814 376.506,566.600 254.622,580.238  "/>
<polygon fill="#bfc386" points="306.064,201.806 62.056,312.342 407.566,458.928  "/>
<polygon fill="#e68c7c" points="457.935,497.962 214.972,271.192 255.527,386.489  "/>
<polygon fill="#ca3b89" points="69.944,530.138 335.781,451.960 347.003,376.568  "/>
<polygon fill="#6996a9" points="269.383,96.420 261.034,50.275 0.600,45.797  "/>
<polygon fill="#374202" points="234.869,161.309 514.893,430.581 442.547,144.726  "/>
<polygon fill="#46f487" points="578.544,450.082 207.190,13.993 566.685,52.705  "/>
<polygon fill="#033889" points="318.363,525.694 576.104,343.691 45.917,158.678  "/>
<polygon fill="#9c3346" points="585.416,106.059 283.387,560.121 303.926,394.342  "/>
<polygon fill="#0e563b" points="260.167,492.269 564.972,459.038 102.796,356.577  "/>
<polygon fill="#1dcb12" points="42.188,538.435 230.110,111.378 491.110,73.928  "/>
<polygon fill="#d15d80" points="468.196,419.913 228.772,252.871 440.655,194.890  "/>
<polygon fill="#fd9dc5" points="153.584,33.535 88.803,538.823 531.306,277.382  "/>
<polygon fill="#2cf9ba" points="72.134,267.933 272.260,437.632 370.244,216.072  "/>
<polygon fill="#827c9c" points="157.797,56.620 24.830,504.069 429.096,334.484  "/>
</svg>