<?xml version="1.0" encoding="utf-8"?>
<!-- Generator: Python script. InTeResTinG -->
<!DOCTYPE svg PUBLIC "-//W3C//DTD SVG 1.1//EN" "http://www.w3.org/Graphics/SVG/1.1/DTD/svg11.dtd">
<svg version="1.1" id="Layer_1" xmlns="http://www.w3.org/2000/svg" xmlns:xlink="http://www.w3.org/1999/xlink" x="0px" y="0px" width="600.000px" height="600.000px" viewBox="0 0 600.000 600.000" enable-background="new 0 0 600.000 600.000" xml:space="preserve">
<polygon fill="#bd4b3d" points="233.211,447.752 108.205,328.500 295.132,181.436  "/>
<polygon fill="#ba3081" points="584.480,274.265 308.507,275.860 408.078,312.085  "/>
<polygon fill="#164a65" points="351.930,516.573 51.683,274.580 258.542,72.080  "/>
<polygon fill="#a4389b" points="221.559,174.235 179.999,353.346 231.283,442.303  "/>
<polygon fill="#d2dc8b" points="336.021,466.393 476.367,66.784 286.476,366.700  "/>
<polygon fill="#663baa" points="499.816,481.199 563.798,72.256 565.220,576.820  "/>
<polygon fill="#2e754c" points="149.734,404.042 150.931,286.633 208.219,506.465  "/>
<polygon fill="#be0293" points="523.014,230.443 419.314,386.907 368.743,264.620  "/>
<polygon fill="#cfd67f" points="33.780,8.595 191.239,402.378 488.607,468.537  "/>
<polygon fill="#26091b" points="306.749,218.125 244.848,52.000 64.036,407.306  "/>
<polygon fill="#f6eda7" points="211.579,187.459 108.116,226.939 104.249,51.516  "/>
<polygon fill="#e04daf" points="46.690,29.913 118.431,164.852 5.334,128.538  "/>
<polygon fill="#48b13a" points="446.675,462.009 414.194,469.648 54.138,193.186  "/>
<polygon fill="#6857cf" points="465.444,417.591 251.958,209.757 476.913,160.275  "/>
<polygon fill="#220d9f" points="49.483,366.622 295.410,321.650 518.077,63.034  "/>
<polygon fill="#3dc126" points="544.983,151.251 426.439,205.037 431.878,144.736  "/>
<polygon fill="#a437fe" points="56.036,329.702 195.668,299.139 570.055,568.672  "/>
<polygon fill="#e4a01c" points="455.594,246.488 226.191,93.567 398.866,318.393  "/>
<polygon fill="#e57761" points="364.879,40.587 336.300,213.135 75.443,484.611  "/>
<polygon fill="#13afe2" points="490.679,463.552 490.037,373.476 126.169,310.339  "/>
<polygon fill="#485975" points="339.826,181.733 256.666,561.268 523.003,107.348  "/>
<polygon fill="#517f56" points="290.860,534.350 477.224,563.338 29.282,140.266  "/>
<polygon fill="#eab528" points="56.400,578.402 145.564,326.214 557.828,397.849  "/>
<polygon fill="#9b5145" points="162.263,467.483 595.215,199.282 284.221,279.085  "/>
<polygon fill="#a9ba79" points="236.151,185.738 73.346,32.029 32.230,70.765  "/>
<polygon fill="#9fe2fc" points="160.727,549.042 121.069,18.314 287.364,45.304  "/>
<polygon fill="#92b6bd" points="206.688,289.633 27.703,269.141 533.198,530.235  "/>
<polygon fill="#7d7cd4" points="104.763,2.040 578.437,336.247 567.264,209.185  "/>
<polygon fill="#bce443" points="323.433,310.459 283.489,439.109 55.454,404.964  "/>
<polygon fill="#a89845" points="63.148,104.325 231.889,218.385 57.210,263.116  "/>
<polygon fill="#673cf3" points="469.189,434.644 236.830,358.597 156.803,447.344  "/>
<polygon fill="#90a665" points="36.863,520.627 242.635,261.675 243.032,208.560  "/>
<polygon fill="#d6322e" points="294.337,393.521 551.009,130.351 541.602,205.810  "/>
<polygon fill="#e7c161" points="333.507,203.201 380.920,255.294 78.738,492.033  "/>
<polygon fill="#2d7a97" points="492.556,124.305 519.010,261.023 584.104,245.945  "/>
<polygon fill="#535046" points="91.275,431.025 276.847,203.123 92.246,425.345  "/>
<polygon fill="#51fe45" points="500.279,196.626 177.999,585.822 183.745,66.144  "/>
<polygon fill="#f19335" points="69.922,121.508 134.138,89.599 416.588,463.352  "/>
<polygon fill="#f04d28" points="221.028,551.465 304.024,459.599 287.065,77.584  "/>
<polygon fill="#ac75ce" points="384.608,359.691 201.618,215.645 245.150,310.310  "/>
<polygon fill="#ae5724" points="408.710,170.947 27.081,389.006 179.471,187.470  "/>
<polygon fill="#46f62a" points="391.402,566.451 450.334,326.437 506.923,574.802  "/>
<polygon fill="#3c51d0" points="216.259,435.437 228.674,293.588 138.252,105.637  "/>
<polygon fill="#1a177b" points="319.275,461.877 516.751,535.306 12.384,259.214  "/>
<polygon fill="#4d4879" points="279.708,83.052 171.709,124.410 415.786,368.858  "/>
<polygon fill="#1af390" points="417.076,472.842 85.809,207.035 160.790,275.481  "/>
<polygon fill="#77a21b" points="137.719,393.606 67.773,177.231 483.455,116.249  "/>
<polygon fill="#bb6adf" points="235.389,361.422 174.926,159.778 69.796,403.820  "/>
<polygon fill="#f6473f" points="22.965,269.807 368.386,517.159 211.716,144.734  "/>
<polygon fill="#56f1e6" points="574.740,182.667 508.678,395.116 599.262,246.843  "/>
<polygon fill="#a0fd13" points="153.403,201.842 331.158,17.702 208.437,507.332  "/>
<polygon fill="#551d3d" points="25.200,501.313 385.717,43.695 460.005,531.053  "/>
<polygon fill="#134ae1" points="517.935,474.296 18.978,239.395 105.596,215.455  "/>
<polygon fill="#187d6b" points="503.793,275.773 509.967,599.078 537.750,554.351  "/>
<polygon fill="#89c40c" points="40.088,487.624 593.649,504.383 161.918,167.485  "/>
<polygon fill="#ffb7fe" points="355.496,283.154 376.257,349.025 275.846,204.741  "/>
<polygon fill="#26f8cf" points="8.092,271.706 82.787,515.441 240.984,327.931  "/>
<polygon fill="#d2d837" points="113.689,378.111 252.131,256.567 100.325,556.049  "/>
<polygon fill="#9b12ca" points="5.361,273.559 479.397,469.989 348.480,146.305  "/>
<polygon fill="#80b6f3" points="301.592,192.194 206.175,471.089 274.130,590.464  "/>
</svg>