<?xml version="1.0" encoding="utf-8"?>
<!-- Generator: Python script. InTeResTinG -->
<!DOCTYPE svg PUBLIC "-//W3C//DTD SVG 1.1//EN" "http://www.w3.org/Graphics/SVG/1.1/DTD/svg11.dtd">
<svg version="1.1" id="Layer_1" xmlns="http://www.w3.org/2000/svg" xmlns:xlink="http://www.w3.org/1999/xlink" x="0px" y="0px" width="600.000px" height="600.000px" viewBox="0 0 600.000 600.000" enable-background="new 0 0 600.000 600.000" xml:space="preserve">
<polygon fill="#17e140" points="372.926,92.782 177.209,460.726 3.022,544.498  "/>
<polygon fill="#0e1b7e" points="567.453,107.623 211.715,332.689 377.783,297.461  "/>
<polygon fill="#d050d3" points="420.809,593.144 136.603,40.584 371.984,505.839  "/>
<polygon fill="#728812" points="331.406,316.786 508.154,531.452 304.583,211.464  "/>
<polygon fill="#018558" points="561.902,88.401 105.957,492.305 146.654,318.595  "/>
<polygon fill="#10882e" points="77.419,338.475 483.431,303.047 184.333,460.000  "/>
<polygon fill="#521575" points="14.999,485.285 415.855,253.094 558.473,264.356  "/>
<polygon fill="#5bde95" points="456.062,51.788 176.540,311.027 275.209,353.359  "/>
<polygon fill="#3041a4" points="215.326,427.136 63.891,80.130 334.675,556.043  "/>
<polygon fill="#6256a0" points="145.232,261.494 530.469,41.174 124.718,54.626  "/>
<polygon fill="#56aa84" points="334.293,281.527 311.164,181.010 300.329,534.904  "/>
<polygon fill="#9a03db" points="61.428,494.988 540.781,443.168 105.505,36.641  "/>
<polygon fill="#d5f254" points="54.265,257.309 116.973,95.375 402.943,507.907  "/>
<polygon fill="#23725b" points="449.607,274.360 458.067,183.087 391.320,431.769  "/>
<polygon fill="#bf2d20" points="5.784,294.713 18.223,492.891 390.488,41.442  "/>
<polygon fill="#1588fe" points="261.834,301.081 42.093,150.444 193.713,209.467  "/>
<polygon fill="#99cf23" points="538.011,129.432 546.522,357.966 102.552,235.716  "/>
<polygon fill="#a27aa4" points="222.235,195.892 188.053,206.871 20.366,209.159  "/>
<polygon fill="#789e94" points="197.943,395.471 547.078,298.143 512.028,42.156  "/>
<polygon fill="#ab4633" points="152.465,320.712 46.138,234.024 441.224,469.488  "/>
<polygon fill="#3556e1" points="472.810,560.515 277.412,407.638 46.099,37.792  "/>
<polygon fill="#fa620f" points="319.367,546.919 531.295,449.119 134.632,9.700  "/>
<polygon fill="#219041" points="337.718,145.498 490.099,33.606 108.678,78.736  "/>
<polygon fill="#2e069e" points="40.481,127.402 509.773,315.532 309.989,468.745  "/>
<polygon fill="#7df016" points="304.643,250.746 5.997,55.222 182.166,70.593  "/>
<polygon fill="#9a8589" points="299.040,291.707 199.295,181.238 539.052,304.588  "/>
<polygon fill="#700f17" points="575.228,492.746 197.431,137.214 452.637,364.531  "/>
<polygon fill="#f3042e" points="272.541,108.911 415.048,499.428 80.803,303.047  "/>
<polygon fill="#39de35" points="78.947,166.390 483.411,129.505 261.462,136.270  "/>
<polygon fill="#37ed25" points="113.881,545.352 98.530,107.790 291.633,194.398  "/>
<polygon fill="#3de114" points="479.684,44.477 553.589,572.166 302.226,158.928  "/>
<polygon fill="#af73ec" points="104.829,214.750 396.610,439.503 103.690,131.758  "/>
<polygon fill="#efe10c" points="314.512,128.993 95.640,478.354 262.397,120.440  "/>
<polygon fill="#17a8f9" points="489.744,582.142 308.570,308.343 599.179,574.285  "/>
<polygon fill="#5438d7" points="528.914,538.946 262.805,378.600 332.977,464.186  "/>
<polygon fill="#c7681d" points="289.956,54.244 58.583,275.430 356.890,583.762  "/>
<polygon fill="#e30632" points="531.981,469.112 325.636,586.563 364.449,220.138  "/>
<polygon fill="#fc7162" points="541.195,483.556 543.941,400.830 291.340,39.849  "/>
<polygon fill="#69d4a0" points="512.476,456.131 154.554,558.786 178.531,543.201  "/>
<polygon fill="#6ab125" points="500.644,458.444 277.834,316.177 405.467,328.720  "/>
<polygon fill="#f36e8b" points="545.777,13.922 199.579,339.575 111.221,342.147  "/>
<polygon fill="#933f5e" points="143.577,343.968 433.801,535.281 592.583,593.079  "/>
<polygon fill="#ba8842" points="335.805,245.550 173.009,45.226 408.524,43.158  "/>
<polygon fill="#0f108d" points="43.801,79.238 15.854,67.337 168.345,280.104  "/>
<polygon fill="#c34b1d" points="60.834,163.966 538.573,407.959 54.578,142.790  "/>
<polygon fill="#76a573" points="129.697,180.220 259.004,354.448 375.252,263.830  "/>
<polygon fill="#a25303" points="527.159,53.037 559.459,52.460 170.810,297.282  "/>
<polygon fill="#d84479" points="244.844,441.748 456.975,431.768 464.325,520.520  "/>
<polygon fill="#02808a" points="97.395,593.750 568.498,564.824 42.315,512.811  "/>
<polygon fill="#570514" points="150.338,233.678 442.119,56.477 28.472,584.443  "/>
<polygon fill="#a34b11" points="336.755,436.707 223.087,113.476 260.425,484.191  "/>
<polygon fill="#5913c3" points="39.110,286.631 347.012,45.823 568.717,313.106  "/>
<polygon fill="#0df9cb" points="33.879,532.522 25.185,319.597 541.373,132.335  "/>
<polygon fill="#d0299f" points="192.666,159.633 330.203,399.212 545.338,564.994  "/>
<polygon fill="#e02739" points="234.478,371.471 201.003,87.371 27.271,350.124  "/>
<polygon fill="#f8dc28" points="341.255,557.612 137.182,436.105 309.148,272.203  "/>
<polygon fill="#53c4ac" points="451.848,239.573 40.657,500.127 296.258,371.463  "/>
<polygon fill="#2e3c25" points="28.294,310.088 197.091,556.830 517.483,234.951  "/>
<polygon fill="#c6af49" points="392.576,45.983 454.473,235.670 94.177,60.581  "/>
</svg>