<?xml version="1.0" encoding="utf-8"?>
<!-- Generator: Python script. InTeResTinG -->
<!DOCTYPE svg PUBLIC "-//W3C//DTD SVG 1.1//EN" "http://www.w3.org/Graphics/SVG/1.1/DTD/svg11.dtd">
<svg version="1.1" id="Layer_1" xmlns="http://www.w3.org/2000/svg" xmlns:xlink="http://www.w3.org/1999/xlink" x="0px" y="0px" width="600.000px" height="600.000px" viewBox="0 0 600.000 600.000" enable-background="new 0 0 600.000 600.000" xml:space="preserve">
<polygon fill="#3b0247" points="340.017,493.535 195.301,359.302 575.475,98.869  "/>
<polygon fill="#e05ea6" points="503.851,586.362 113.181,200.866 408.610,45.678  "/>
<polygon fill="#baab90" points="180.627,467.006 510.871,151.138 86.854,587.086  "/>
<polygon fill="#d206e7" points="327.888,496.709 283.483,308.761 37.402,470.621  "/>
<polygon fill="#6b5169" points="97.447,164.699 179.641,94.031 137.417,104.541  "/>
<polygon fill="#cb10c5" points="290.799,492.293 7.894,119.538 181.084,525.432  "/>
<polygon fill="#e14dde" points="580.669,454.903 477.059,477.314 289.061,479.121  "/>
<polygon fill="#1dc2ff" points="110.864,299.637 203.250,442.122 399.916,213.533  "/>
<polygon fill="#12c3a4" points="499.998,55.596 276.354,473.191 545.310,94.226  "/>
<polygon fill="#1382e2" points="375.904,429.484 143.977,113.277 575.526,211.279  "/>
<polygon fill="#b818c7" points="310.487,314.935 406.588,310.447 577.934,596.940  "/>
<polygon fill="#1a8cc4" points="293.812,386.553 539.588,523.634 61.609,200.335  "/>
<polygon fill="#e5946f" points="436.742,550.700 256.169,395.450 68.048,414.406  "/>
<polygon fill="#90fcff" points="11.784,469.775 588.595,105.724 449.474,477.894  "/>
<polygon fill="#2afa99" points="5.505,586.650 579.101,529.293 299.463,360.610  "/>
<polygon fill="#d4b0e1" points="594.488,197.807 354.881,508.294 283.276,343.155  "/>
<polygon fill="#3321ec" points="348.445,263.321 270.886,596.687 193.881,360.527  "/>
<polygon fill="#ce423e" points="428.837,524.719 30.830,77.082 273.281,287.434  "/>
<polygon fill="#57687a" points="204.689,369.978 472.531,292.048 212.987,517.252  "/>
<polygon fill="#14c681" points="300.704,252.219 4.084,170.236 497.102,55.243  "/>
<polygon fill="#891cc5" points="387.042,491.969 146.850,597.334 479.222,337.982  "/>
<polygon fill="#2190e4" points="403.661,265.401 200.115,382.855 524.817,524.967  "/>
<polygon fill="#f8ed6e" points="349.376,454.299 569.043,102.614 38.907,518.688  "/>
<polygon fill="#65db53" points="464.050,29.965 358.540,197.575 277.088,39.888  "/>
<polygon fill="#6c4feb" points="527.782,390.351 89.967,156.678 48.432,357.115  "/>
<polygon fill="#7154d8" points="413.699,459.848 509.090,495.125 274.381,390.111  "/>
<polygon fill="#87d567" points="14.689,490.181 419.188,485.274 290.056,41.688  "/>
<polygon fill="#3da7e9" points="53.159,592.059 98.115,510.319 167.321,482.117  "/>
<polygon fill="#60057c" points="452.526,578.497 357.373,247.071 437.596,139.726  "/>
<polygon fill="#6ced2f" points="218.191,232.953 287.236,98.978 92.496,151.099  "/>
<polygon fill="#d1d078" points="531.325,373.268 537.681,410.443 599.109,213.662  "/>
<polygon fill="#966a75" points="568.716,525.842 39.135,15.839 598.850,158.053  "/>
<polygon fill="#aec14b" points="273.699,395.677 234.924,230.282 327.991,395.742  "/>
<polygon fill="#caec1b" points="388.174,199.993 281.824,2.294 246.733,445.083  "/>
<polygon fill="#b34b4f" points="313.236,144.724 184.247,85.272 363.453,408.586  "/>
<polygon fill="#0c3f16" points="104.018,260.021 421.846,41.225 258.304,584.555  "/>
<polygon fill="#d6de70" points="286.232,151.980 507.248,108.455 397.214,110.687  "/>
<polygon fill="#482460" points="169.098,581.248 504.289,55.499 447.701,39.552  "/>
<polygon fill="#b80789" points="8.743,79.515 12.863,99.893 305.967,248.496  "/>
<polygon fill="#6b1d39" points="247.767,537.987 322.360,489.992 359.009,516.236  "/>
<polygon fill="#602781" points="325.061,528.841 40.157,189.614 396.275,335.358  "/>
<polygon fill="#826d0a" points="582.726,329.761 377.915,9.510 377.625,67.980  "/>
<polygon fill="#3c3b29" points="452.944,8.200 30.901,261.222 130.751,86.311  "/>
<polygon fill="#9b4647" points="141.188,104.693 198.853,437.032 130.069,278.873  "/>
<polygon fill="#696a66" points="88.575,242.519 89.218,490.488 59.068,69.688  "/>
<polygon fill="#2c445b" points="469.608,300.989 385.746,588.463 235.769,64.419  "/>
<polygon fill="#fdcd52" points="491.633,545.165 567.263,212.879 24.681,521.597  "/>
<polygon fill="#76b524" points="376.756,253.248 394.228,193.918 287.770,480.479  "/>
<polygon fill="#507dbd" points="23.869,237.178 460.387,588.974 496.142,142.058  "/>
<polygon fill="#1fa02e" points="2.009,204.455 397.360,93.718 291.064,108.191  "/>
<polygon fill="#627815" points="138.230,151.300 29.097,22.383 108.981,74.484  "/>
<polygon fill="#7f5269" points="38.032,163.870 498.541,103.948 355.197,424.092  "/>
<polygon fill="#c28754" points="291.850,168.198 96.887,154.088 491.277,249.768  "/>
<polygon fill="#a54e17" points="102.935,537.997 456.726,231.320 70.193,225.634  "/>
<polygon fill="#d482f2" points="377.510,518.258 396.390,7.247 119.097,483.392  "/>
<polygon fill="#a2bbba" points="531.131,48.787 110.237,199.870 36.135,420.927  "/>
<polygon fill="#1adbb1" points="536.496,382.924 37.609,495.131 248.615,504.801  "/>
<polygon fill="#36cd4b" points="581.120,15.059 87.663,184.492 588.160,396.741  "/>
<polygon fill="#e900b9" points="22.681,27.321 88.755,468.888 233.366,270.769  "/>
<polygon fill="#681d31" points="254.920,407.637 588.193,148.656 449.011,76.255  "/>
<polygon fill="#76836b" points="415.279,280.039 566.785,476.685 83.970,542.747  "/>
<polygon fill="#b9be22" points="421.567,56.906 1.467,258.042 504.198,176.270  "/>
<polygon fill="#6d09d1" points="89.318,317.078 266.682,328.778 79.049,89.377  "/>
<polygon fill="#ab5d02" points="497.745,221.994 568.178,118.174 430.823,348.286  "/>
</svg>