<?xml version="1.0" encoding="utf-8"?>
<!-- Generator: Python script. InTeResTinG -->
<!DOCTYPE svg PUBLIC "-//W3C//DTD SVG 1.1//EN" "http://www.w3.org/Graphics/SVG/1.1/DTD/svg11.dtd">
<svg version="1.1" id="Layer_1" xmlns="http://www.w3.org/2000/svg" xmlns:xlink="http://www.w3.org/1999/xlink" x="0px" y="0px" width="600.000px" height="600.000px" viewBox="0 0 600.000 600.000" enable-background="new 0 0 600.000 600.000" xml:space="preserve">
<polygon fill="#8400fd" points="511.304,383.117 291.524,368.802 9.669,506.795  "/>
<polygon fill="#cf5d47" points="206.709,401.131 463.605,247.064 447.145,144.420  "/>
<polygon fill="#1ab0ad" points="568.411,45.810 340.937,363.084 235.065,361.259  "/>
<polygon fill="#f7c0d7" points="340.182,1.776 351.252,422.783 49.218,572.503  "/>
<polygon fill="#3386eb" points="8.195,51.062 205.898,146.115 197.230,46.205  "/>
<polygon fill="#fceb10" points="428.023,77.615 247.492,500.970 488.453,441.699  "/>
<polygon fill="#7e8ac3" points="129.564,222.687 2.063,484.354 217.154,294.378  "/>
<polygon fill="#6fc266" points="3.554,572.201 122.961,29.339 328.030,413.942  "/>
<polygon fill="#4a7980" points="153.019,595.171 403.586,105.493 173.200,187.328  "/>
<polygon fill="#ad1e29" points="145.271,472.813 365.530,25.692 508.052,323.875  "/>
<polygon fill="#9c00f6" points="88.772,155.674 126.429,31.756 45.138,184.258  "/>
<polygon fill="#562b8a" points="127.602,304.804 458.690,11.170 199.742,346.336  "/>
<polygon fill="#a2ffaa" points="488.951,68.111 211.582,138.435 60.526,508.391  "/>
<polygon fill="#5c0979" points="37.581,431.798 63.593,54.275 364.306,442.618  "/>
<polygon fill="#8c79ec" points="254.074,247.621 178.295,542.901 470.493,506.919  "/>
<polygon fill="#55f06f" points="18.668,14.604 487.741,383.145 213.974,330.957  "/>
<polygon fill="#ca9505" points="510.664,401.024 426.437,330.446 25.919,367.984  "/>
<polygon fill="#2033d2" points="97.128,366.789 1.298,380.009 501.508,89.962  "/>
<polygon fill="#ce1d58" points="563.330,475.868 566.111,436.141 235.451,283.767  "/>
<polygon fill="#6477eb" points="100.628,148.398 271.956,378.965 151.548,247.428  "/>
<polygon fill="#959399" points="265.426,531.561 301.279,376.176 459.440,48.428  "/>
<polygon fill="#ab410d" points="555.013,497.799 48.022,213.418 174.335,378.822  "/>
<polygon fill="#8e3ef7" points="183.949,508.068 547.393,387.100 413.358,254.930  "/>
<polygon fill="#a9f42b" points="63.673,289.756 393.553,393.968 246.102,239.587  "/>
<polygon fill="#099065" points="209.397,137.114 352.264,417.665 111.296,440.930  "/>
<polygon fill="#070655" points="279.322,170.702 38.773,1.291 468.283,291.980  "/>
<polygon fill="#15acdd" points="5.033,496.197 58.421,28.028 432.145,328.850  "/>
<polygon fill="#1a86bf" points="228.861,549.017 556.855,35.204 66.507,182.229  "/>
<polygon fill="#81c3c6" points="51.025,189.077 25.653,504.423 46.206,404.788  "/>
<polygon fill="#5e148e" points="441.366,549.744 350.473,94.206 489.854,441.476  "/>
<polygon fill="#407c0a" points="190.706,343.385 443.468,516.809 71.413,147.179  "/>
<polygon fill="#918472" points="91.865,575.275 487.095,332.213 581.160,550.216  "/>
<polygon fill="#51e309" points="586.308,410.845 531.524,93.953 2.773,297.586  "/>
<polygon fill="#580083" points="49.600,563.251 521.040,411.307 29.410,147.838  "/>
<polygon fill="#6c1030" points="434.916,394.491 359.205,76.068 291.917,559.001  "/>
<polygon fill="#099be1" points="262.040,394.686 123.460,116.181 199.489,263.298  "/>
<polygon fill="#f5ac21" points="565.878,222.538 146.546,15.501 42.546,275.714  "/>
<polygon fill="#ae9dce" points="449.532,486.547 591.084,284.459 201.623,327.260  "/>
<polygon fill="#d82440" points="142.115,453.113 391.233,278.084 230.299,375.402  "/>
<polygon fill="#d7f4e6" points="35.934,71.580 128.294,493.134 406.025,270.733  "/>
<polygon fill="#82b8bc" points="391.887,562.970 142.102,584.242 501.284,597.973  "/>
<polygon fill="#e89300" points="591.405,101.182 552.680,567.736 446.547,77.759  "/>
<polygon fill="#28db96" points="496.765,468.054 174.620,43.249 126.257,552.330  "/>
<polygon fill="#224e10" points="352.420,358.849 413.217,391.374 170.945,175.834  "/>
<polygon fill="#2acb70" points="410.785,516.229 190.781,72.448 166.416,260.291  "/>
<polygon fill="#be260e" points="417.123,254.225 387.461,79.500 411.001,410.036  "/>
<polygon fill="#0188f2" points="47.174,141.393 338.876,284.412 148.201,554.679  "/>
<polygon fill="#f069c2" points="195.312,473.317 464.974,102.284 204.922,264.958  "/>
<polygon fill="#91c19f" points="35.429,346.406 469.056,343.371 140.757,277.099  "/>
<polygon fill="#54c63d" points="446.957,154.186 113.579,251.020 245.427,240.597  "/>
<polygon fill="#cf3831" points="241.560,117.434 298.410,14.443 267.937,40.236  "/>
<polygon fill="#cfe789" points="70.832,417.776 500.921,461.487 228.685,527.557  "/>
<polygon fill="#e7cd3b" points="142.790,56.764 530.831,161.049 529.493,83.158  "/>
<polygon fill="#5f1b52" points="94.952,228.595 273.441,32.843 430.464,373.653  "/>
<polygon fill="#e81fbd" points="465.861,338.521 147.467,318.279 215.403,50.331  "/>
<polygon fill="#cdf200" points="256.530,353.003 171.292,287.856 571.493,221.435  "/>
<polygon fill="#b31a50" points="111.640,126.828 87.904,96.468 164.115,593.480  "/>
<polygon fill="#60c2db" points="581.140,585.360 486.161,15.810 296.372,288.234  "/>
<polygon fill="#793879" points="69.448,127.454 216.815,459.431 366.127,568.382  "/>
<polygon fill="#aec095" points="338.647,89.299 142.501,408.732 582.013,508.795  "/>
<polygon fill="#27c0f1" points="583.773,419.169 120.268,359.922 481.088,209.269  "/>
<polygon fill="#712b36" points="372.569,42.051 28.389,353.158 371.391,226.357  "/>
<polygon fill="#9eb621" points="68.301,315.133 352.640,175.553 208.222,46.194  "/>
<polygon fill="#9b1a5f" points="279.667,427.035 398.758,542.785 279.283,168.127  "/>
<polygon fill="#8e4b9a" points="175.509,94.719 302.829,446.777 422.658,59.680  "/>
<polygon fill="#b7b453" points="426.451,523.004 159.197,212.142 472.070,391.972  "/>
<polygon fill="#e39baa" points="273.540,216.880 560.378,57.387 547.025,47.400  "/>
<polygon fill="#3b42b6" points="204.600,536.043 522.237,464.497 480.173,377.415  "/>
<polygon fill="#f68922" points="43.801,321.998 489.597,35.677 597.797,159.835  "/>
<polygon fill="#b24e66" points="344.957,450.318 379.246,25.613 257.927,33.829  "/>
<polygon fill="#970ce4" points="369.640,249.866 146.520,405.860 248.640,7.100  "/>
</svg>