<?xml version="1.0" encoding="utf-8"?>
<!-- Generator: Python script. InTeResTinG -->
<!DOCTYPE svg PUBLIC "-//W3C//DTD SVG 1.1//EN" "http://www.w3.org/Graphics/SVG/1.1/DTD/svg11.dtd">
<svg version="1.1" id="Layer_1" xmlns="http://www.w3.org/2000/svg" xmlns:xlink="http://www.w3.org/1999/xlink" x="0px" y="0px" width="600.000px" height="600.000px" viewBox="0 0 600.000 600.000" enable-background="new 0 0 600.000 600.000" xml:space="preserve">
<polygon fill="#b5d419" points="98.108,268.792 78.412,300.624 315.059,35.447  "/>
<polygon fill="#53d71c" points="11.474,288.565 356.756,498.074 384.477,207.467  "/>
<polygon fill="#41fc53" points="91.875,395.710 222.800,183.379 332.064,25.516  "/>
<polygon fill="#dbf0f0" points="432.397,569.263 501.465,57.476 287.728,562.023  "/>
<polygon fill="#bb7de9" points="193.097,493.026 539.993,234.984 378.633,59.452  "/>
<polygon fill="#99ae53" points="430.277,518.622 47.548,199.525 411.981,579.866  "/>
<polygon fill="#7d09c4" points="219.131,279.274 166.748,31.736 171.346,469.003  "/>
<polygon fill="#57aa3b" points="287.094,255.845 12.232,539.034 191.540,464.767  "/>
<polygon fill="#1d5775" points="11.177,417.682 531.817,345.887 277.522,177.738  "/>
<polygon fill="#088589" points="171.039,359.404 277.614,126.635 147.962,8.286  "/>
<polygon fill="#a302b5" points="62.642,198.608 115.276,50.159 473.117,559.379  "/>
<polygon fill="#6b84b8" points="541.748,272.751 189.831,556.641 579.422,127.633  "/>
<polygon fill="#83f097" points="321.004,197.070 357.286,427.748 26.404,320.296  "/>
<polygon fill="#45535e" points="510.414,422.045 43.168,33.342 298.707,316.501  "/>
<polygon fill="#3b9a8e" points="49.996,296.693 388.480,43.941 373.199,339.011  "/>
<polygon fill="#81ae8c" points="392.780,121.072 4.758,217.602 366.834,70.662  "/>
<polygon fill="#c9069e" points="102.721,47.040 469.427,32.860 240.785,162.702  "/>
<polygon fill="#4e597f" points="386.431,347.869 578.328,264.716 218.257,459.182  "/>
<polygon fill="#2a5642" points="579.176,237.562 247.987,8.663 571.328,286.009  "/>
<polygon fill="#ca471f" points="401.309,196.944 194.212,56.352 124.304,324.810  "/>
<polygon fill="#c8d823" points="594.613,357.575 359.695,496.081 213.547,114.833  "/>
<polygon fill="#b2a647" points="482.013,272.410 291.949,126.590 537.048,264.129  "/>
<polygon fill="#3d7e0d" points="311.154,45.516 258.370,346.639 559.884,540.793  "/>
<polygon fill="#c8ef57" points="482.953,32.594 268.953,348.232 408.403,288.181  "/>
<polygon fill="#b3cc0f" points="209.527,342.512 283.068,237.881 582.460,122.157  "/>
<polygon fill="#be6d71" points="115.454,591.825 43.309,122.817 251.286,217.726  "/>
<polygon fill="#a22784" points="551.145,232.752 71.380,140.111 26.456,559.055  "/>
<polygon fill="#e7e1b1" points="154.801,62.826 149.875,564.779 94.580,208.479  "/>
<polygon fill="#c556f3" points="441.735,182.438 458.193,42.094 476.434,269.043  "/>
<polygon fill="#7063de" points="145.731,156.997 435.530,302.196 278.001,456.385  "/>
<polygon fill="#de73b5" points="337.388,423.997 317.973,542.326 55.291,488.704  "/>
<polygon fill="#840702" points="3.066,506.804 414.915,380.893 236.270,16.393  "/>
<polygon fill="#6c4c5a" points="457.741,199.081 30.806,226.313 348.819,512.444  "/>
<polygon fill="#2cc88b" points="175.656,387.509 221.669,89.368 336.985,320.919  "/>
<polygon fill="#7359d5" points="337.571,208.640 7.666,392.785 102.019,314.631  "/>
<polygon fill="#3b22fe" points="337.586,314.874 139.953,448.507 116.072,115.950  "/>
<polygon fill="#c339c6" points="111.033,0.905 312.745,557.801 381.578,550.998  "/>
<polygon fill="#742385" points="522.190,101.579 522.555,355.146 411.761,212.398  "/>
<polygon fill="#4069cd" points="376.203,576.900 215.791,102.845 397.234,201.473  "/>
<polygon fill="#e14f21" points="59.580,224.170 368.337,424.927 37.376,557.710  "/>
<polygon fill="#b29d37" points="466.042,546.725 591.762,169.615 432.927,204.510  "/>
<polygon fill="#6776ab" points="241.456,145.494 432.210,424.455 327.354,424.070  "/>
<polygon fill="#b2bc8e" points="418.599,158.387 397.207,131.222 512.171,158.011  "/>
<polygon fill="#0b34c1" points="175.858,565.196 451.313,518.411 157.713,224.278  "/>
<polygon fill="#b0b278" points="444.912,325.081 379.825,332.733 78.090,126.732  "/>
<polygon fill="#5fd8b0" points="101.338,163.203 331.860,216.264 425.066,266.133  "/>
<polygon fill="#2408bf" points="476.623,212.389 557.139,598.234 593.949,84.909  "/>
<polygon fill="#373def" points="136.788,206.325 455.660,267.874 364.274,334.009  "/>
<polygon fill="#7419f0" points="583.668,9.654 153.548,418.001 129.563,461.237  "/>
<polygon fill="#35f741" points="521.800,380.300 426.628,276.152 302.284,458.592  "/>
<polygon fill="#296e20" points="140.960,10.701 208.049,547.816 110.130,26.429  "/>
<polygon fill="#7cb7a3" points="517.032,509.673 330.824,239.326 362.892,540.106  "/>
<polygon fill="#e29c03" points="454.817,74.219 179.079,563.491 161.541,227.815  "/>
<polygon fill="#1cc2b9" points="248.456,383.480 388.979,518.786 414.554,371.269  "/>
<polygon fill="#541b30" points="2.671,538.528 184.144,457.581 442.704,175.053  "/>
<polygon fill="#96bdda" points="449.750,599.121 224.294,290.752 281.516,10.693  "/>
<polygon fill="#9e6c59" points="183.066,531.694 227.001,514.931 182.971,461.718  "/>
<polygon fill="#e18b09" points="73.905,395.302 243.847,255.757 193.349,338.436  "/>
<polygon fill="#788edf" points="163.049,415.047 11.419,104.471 324.270,360.791  "/>
<polygon fill="#7cae34" points="529.531,108.331 586.574,42.191 399.053,454.618  "/>
<polygon fill="#392627" points="26.620,557.705 537.414,63.842 364.029,351.021  "/>
<polygon fill="#c8d1d0" points="406.667,55.209 545.873,307.377 245.887,40.943  "/>
</svg>