<?xml version="1.0" encoding="utf-8"?>
<!-- Generator: Python script. InTeResTinG -->
<!DOCTYPE svg PUBLIC "-//W3C//DTD SVG 1.1//EN" "http://www.w3.org/Graphics/SVG/1.1/DTD/svg11.dtd">
<svg version="1.1" id="Layer_1" xmlns="http://www.w3.org/2000/svg" xmlns:xlink="http://www.w3.org/1999/xlink" x="0px" y="0px" width="600.000px" height="600.000px" viewBox="0 0 600.000 600.000" enable-background="new 0 0 600.000 600.000" xml:space="preserve">
<polygon fill="#d669c2" points="297.378,370.010 225.406,274.929 478.598,17.855  "/>
<polygon fill="#11d67a" points="501.588,101.835 309.266,193.031 169.891,492.788  "/>
<polygon fill="#31e577" points="517.582,200.433 232.133,368.089 49.982,462.834  "/>
<polygon fill="#12566b" points="108.453,219.073 566.235,383.403 326.382,220.593  "/>
<polygon fill="#f081fc" points="14.372,415.231 423.693,247.185 271.056,437.980  "/>
<polygon fill="#33ab3f" points="239.605,134.099 503.231,444.968 401.301,459.587  "/>
<polygon fill="#3ed4f2" points="586.512,482.753 501.815,466.049 377.945,91.723  "/>
<polygon fill="#7fdd54" points="209.105,579.902 195.212,325.905 347.875,583.360  "/>
<polygon fill="#c4a970" points="222.353,468.385 9.746,153.269 170.152,234.614  "/>
<polygon fill="#b50975" points="30.085,7.641 448.162,432.247 548.031,298.447  "/>
<polygon fill="#80cfb0" points="411.419,175.882 452.257,450.701 487.104,279.826  "/>
<polygon fill="#0e14ff" points="512.873,190.194 32.372,105.624 531.752,83.809  "/>
<polygon fill="#b21c01" points="213.717,162.137 396.175,68.744 393.578,222.222  "/>
<polygon fill="#d5605f" points="587.722,321.481 114.773,273.421 516.762,351.272  "/>
<polygon fill="#d4dad7" points="66.913,349.316 362.544,312.978 389.826,108.030  "/>
<polygon fill="#e9d78c" points="429.538,543.107 365.184,47.620 182.133,259.692  "/>
<polygon fill="#7172b6" points="407.059,261.134 323.917,366.984 579.232,581.467  "/>
<polygon fill="#2bb220" points="256.546,345.833 487.232,346.328 179.398,189.710  "/>
<polygon fill="#59a71f" points="58.795,308.981 195.620,216.379 493.074,105.898  "/>
<polygon fill="#3b7a21" points="527.600,580.062 0.713,123.353 194.405,206.909  "/>
<polygon fill="#7c12f1" points="573.687,280.267 259.931,240.029 193.106,168.660  "/>
<polygon fill="#cd9721" points="290.188,155.402 173.465,243.029 41.605,571.176  "/>
<polygon fill="#38fbfd" points="590.369,59.346 274.323,421.249 105.653,587.846  "/>
<polygon fill="#10fe95" points="298.730,423.472 511.973,231.434 448.667,417.788  "/>
<polygon fill="#e9feeb" points="445.616,86.677 126.060,412.752 598.513,164.635  "/>
<polygon fill="#457222" points="446.797,287.807 257.012,48.095 254.365,60.090  "/>
<polygon fill="#47b20a" points="264.683,163.048 298.806,576.953 458.889,440.289  "/>
<polygon fill="#9f9013" points="515.860,531.216 309.568,295.442 8.841,159.209  "/>
<polygon fill="#0a8a85" points="556.916,413.849 527.259,362.794 283.607,241.749  "/>
<polygon fill="#913f3c" points="323.386,500.455 300.182,422.796 215.478,389.381  "/>
<polygon fill="#e2e7e2" points="20.989,504.652 505.967,405.357 347.711,376.729  "/>
<polygon fill="#dc2d7a" points="328.924,265.934 482.210,316.409 519.813,7.085  "/>
<polygon fill="#fde4c2" points="84.325,56.714 286.980,62.846 54.500,514.485  "/>
<polygon fill="#2132aa" points="537.600,292.571 286.360,407.125 7.835,431.919  "/>
<polygon fill="#5d6147" points="124.014,567.957 550.991,67.044 431.138,159.542  "/>
<polygon fill="#e8f640" points="378.444,187.138 222.857,210.378 222.333,228.629  "/>
<polygon fill="#bfb2a0" points="46.855,225.698 558.066,304.881 204.726,177.903  "/>
<polygon fill="#2d9c23" points="52.632,159.841 586.024,48.892 84.629,111.406  "/>
<polygon fill="#24523a" points="401.529,217.406 193.237,521.157 404.254,543.486  "/>
<polygon fill="#377155" points="576.616,464.252 353.725,534.632 296.254,40.501  "/>
<polygon fill="#289c9a" points="49.277,69.789 24.540,12.437 509.078,542.750  "/>
<polygon fill="#6675c9" points="271.072,529.911 191.013,471.786 29.039,569.162  "/>
<polygon fill="#20528b" points="180.340,97.810 324.408,220.262 385.377,100.314  "/>
<polygon fill="#b4a0b4" points="140.532,73.209 414.061,156.798 10.594,590.098  "/>
<polygon fill="#e4b677" points="405.332,294.046 583.243,269.969 241.832,436.686  "/>
<polygon fill="#ac6354" points="151.574,22.902 233.441,62.192 261.482,433.136  "/>
<polygon fill="#1749a6" points="255.435,419.292 178.222,512.821 335.373,581.272  "/>
<polygon fill="#787384" points="549.383,57.339 501.997,423.178 208.115,355.038  "/>
<polygon fill="#e56aa1" points="442.543,402.484 496.340,254.666 313.370,127.280  "/>
<polygon fill="#5f8c10" points="175.766,423.072 209.267,285.380 136.139,481.376  "/>
<polygon fill="#22df78" points="87.120,401.481 150.301,137.246 314.633,181.712  "/>
<polygon fill="#de5a5f" points="583.943,113.544 311.890,390.072 129.458,300.817  "/>
<polygon fill="#19d6af" points="308.701,507.515 522.015,154.994 124.021,168.830  "/>
<polygon fill="#855c42" points="148.417,446.626 205.508,488.022 296.822,71.780  "/>
</svg>