<?xml version="1.0" encoding="utf-8"?>
<!-- Generator: Python script. InTeResTinG -->
<!DOCTYPE svg PUBLIC "-//W3C//DTD SVG 1.1//EN" "http://www.w3.org/Graphics/SVG/1.1/DTD/svg11.dtd">
<svg version="1.1" id="Layer_1" xmlns="http://www.w3.org/2000/svg" xmlns:xlink="http://www.w3.org/1999/xlink" x="0px" y="0px" width="600.000px" height="600.000px" viewBox="0 0 600.000 600.000" enable-background="new 0 0 600.000 600.000" xml:space="preserve">
<polygon fill="#0e15c3" points="305.106,201.073 222.185,453.301 144.746,203.296  "/>
<polygon fill="#5756d8" points="190.294,238.963 416.148,77.957 223.794,312.257  "/>
<polygon fill="#20a52b" points="0.996,223.562 590.979,241.739 37.860,288.854  "/>
<polygon fill="#d2e199" points="150.260,157.064 202.550,447.774 575.824,241.725  "/>
<polygon fill="#bb2602" points="570.806,406.094 160.226,389.054 312.238,77.142  "/>
<polygon fill="#a165dc" points="141.242,159.218 68.323,295.424 377.975,210.564  "/>
<polygon fill="#80e62e" points="39.648,108.194 305.547,129.845 151.793,464.960  "/>
<polygon fill="#67133b" points="152.461,149.216 11.110,593.627 423.031,289.548  "/>
<polygon fill="#e53090" points="23.763,341.801 140.706,434.821 56.894,331.808  "/>
<polygon fill="#c98b44" points="233.685,86.923 518.821,429.839 22.777,407.801  "/>
<polygon fill="#13e370" points="265.887,296.428 348.831,433.744 18.967,350.499  "/>
<polygon fill="#50decf" points="290.885,340.138 456.737,384.275 172.370,5.828  "/>
<polygon fill="#46eac9" points="101.816,210.278 211.893,472.225 281.238,203.360  "/>
<polygon fill="#c2ca21" points="71.382,321.534 486.839,290.540 317.701,554.339  "/>
<polygon fill="#506774" points="277.541,405.638 487.330,557.464 181.045,276.341  "/>
<polygon fill="#f5b1ef" points="252.557,575.308 372.412,454.208 506.326,368.033  "/>
<polygon fill="#f7b564" points="344.080,52.270 549.906,2.488 68.511,256.710  "/>
<polygon fill="#5e198a" points="31.605,468.855 545.072,133.321 205.741,127.520  "/>
<polygon fill="#046b42" points="154.715,286.242 510.238,390.822 82.801,230.826  "/>
<polygon fill="#477c98" points="499.319,477.866 99.650,167.775 519.423,219.651  "/>
<polygon fill="#ba6365" points="168.598,14.945 441.085,396.327 102.380,147.875  "/>
<polygon fill="#fd7b46" points="389.682,134.468 548.655,179.234 401.596,219.899  "/>
<polygon fill="#3a0421" points="417.830,560.950 8.352,177.642 47.604,566.568  "/>
<polygon fill="#d925b4" points="110.462,32.515 463.770,47.847 516.739,158.171  "/>
<polygon fill="#d9db66" points="378.369,520.300 244.886,193.192 173.127,397.838  "/>
<polygon fill="#6e9f7b" points="309.769,314.855 427.829,88.000 129.502,566.840  "/>
<polygon fill="#64fe7b" points="398.381,332.358 426.837,440.234 48.021,145.699  "/>
<polygon fill="#c896db" points="516.830,57.275 358.833,593.697 346.295,550.694  "/>
<polygon fill="#e100e1" points="101.588,4.404 412.384,453.850 552.141,540.824  "/>
<polygon fill="#f3d2ee" points="191.159,145.359 596.200,99.317 521.535,6.896  "/>
<polygon fill="#53fe89" points="544.005,150.870 374.697,424.328 172.871,309.337  "/>
<polygon fill="#c07ed1" points="511.143,485.327 405.519,423.946 123.553,433.463  "/>
<polygon fill="#a61333" points="590.481,398.660 508.812,165.052 532.278,210.902  "/>
<polygon fill="#fda21c" points="10.801,138.985 157.743,494.707 574.482,479.858  "/>
<polygon fill="#2ff0ea" points="478.202,190.045 96.269,530.622 5.928,362.965  "/>
<polygon fill="#d54ed1" points="189.287,530.489 57.226,559.925 128.968,103.814  "/>
<polygon fill="#d928c0" points="183.127,432.979 188.563,179.667 259.645,492.658  "/>
<polygon fill="#acfbd8" points="40.192,6.196 376.423,213.704 313.162,413.310  "/>
<polygon fill="#a2e5ee" points="291.090,286.994 162.988,202.442 565.706,158.625  "/>
<polygon fill="#971dbc" points="11.555,461.681 265.754,514.027 426.618,338.197  "/>
<polygon fill="#c1dc8c" points="198.940,59.877 17.187,399.547 559.069,546.087  "/>
<polygon fill="#cd0535" points="516.680,584.603 322.318,318.216 132.369,122.402  "/>
<polygon fill="#8c9753" points="256.079,484.658 68.921,170.284 5.551,488.382  "/>
<polygon fill="#02c9b6" points="29.869,509.506 554.034,233.264 307.284,526.995  "/>
<polygon fill="#ab27bf" points="439.583,121.278 374.701,570.700 422.669,306.254  "/>
<polygon fill="#f9b554" points="466.666,577.365 510.298,105.834 535.763,355.592  "/>
<polygon fill="#b04a94" points="209.498,152.698 304.659,381.540 0.350,595.472  "/>
<polygon fill="#f10ba6" points="330.843,171.351 301.045,299.200 86.991,373.597  "/>
<polygon fill="#dd3892" points="483.987,424.954 267.316,357.034 382.650,127.455  "/>
<polygon fill="#f3948d" points="324.862,558.803 327.688,433.098 221.947,0.684  "/>
<polygon fill="#64512a" points="108.673,445.202 355.412,137.464 483.718,304.981  "/>
<polygon fill="#731131" points="78.907,280.709 579.167,400.939 517.679,328.152  "/>
<polygon fill="#27a57f" points="494.291,450.161 377.788,389.789 559.746,291.557  "/>
<polygon fill="#d21774" points="430.940,139.625 437.662,540.837 179.012,453.765  "/>
<polygon fill="#980e93" points="326.056,60.543 279.523,331.679 361.890,446.978  "/>
<polygon fill="#9c8c22" points="400.382,110.023 241.911,568.396 384.591,89.000  "/>
<polygon fill="#fd1fed" points="509.021,325.278 552.109,234.326 100.848,568.932  "/>
<polygon fill="#3f8143" points="406.133,530.351 501.329,0.493 168.296,367.461  "/>
<polygon fill="#60d625" points="530.967,458.968 544.245,583.068 272.232,305.668  "/>
<polygon fill="#842b8c" points="345.405,527.416 353.502,172.593 533.693,505.787  "/>
<polygon fill="#9964e8" points="256.530,241.037 326.622,407.366 318.636,54.634  "/>
<polygon fill="#37ee2c" points="231.728,463.942 394.879,169.082 281.127,97.830  "/>
<polygon fill="#b190f4" points="520.048,216.645 100.268,444.064 310.526,203.647  "/>
<polygon fill="#6a6672" points="200.671,146.269 289.789,297.870 401.258,44.886  "/>
<polygon fill="#e2a754" points="143.854,244.379 30.220,87.895 62.850,477.214  "/>
<polygon fill="#a36c18" points="67.137,155.908 99.012,359.340 491.982,259.557  "/>
<polygon fill="#0abc86" points="195.541,123.286 393.140,197.399 406.710,73.263  "/>
<polygon fill="#b0a78a" points="434.796,84.978 417.472,498.591 197.487,445.136  "/>
<polygon fill="#598bd8" points="517.913,102.359 171.867,167.938 47.711,491.993  "/>
</svg>