<?xml version="1.0" encoding="utf-8"?>
<!-- Generator: Python script. InTeResTinG -->
<!DOCTYPE svg PUBLIC "-//W3C//DTD SVG 1.1//EN" "http://www.w3.org/Graphics/SVG/1.1/DTD/svg11.dtd">
<svg version="1.1" id="Layer_1" xmlns="http://www.w3.org/2000/svg" xmlns:xlink="http://www.w3.org/1999/xlink" x="0px" y="0px" width="600.000px" height="600.000px" viewBox="0 0 600.000 600.000" enable-background="new 0 0 600.000 600.000" xml:space="preserve">
<polygon fill="#87c47e" points="503.590,253.987 239.160,539.947 595.943,536.238  "/>
<polygon fill="#d1f7c5" points="566.125,19.535 335.256,320.943 18.284,107.902  "/>
<polygon fill="#a80096" points="184.177,459.663 331.716,38.427 73.318,166.000  "/>
<polygon fill="#f091bd" points="325.354,90.561 340.570,212.638 109.737,366.057  "/>
<polygon fill="#5ea391" points="31.419,481.399 12.955,113.853 316.972,402.773  "/>
<polygon fill="#c9517d" points="476.217,548.802 72.824,23.046 467.365,107.839  "/>
<polygon fill="#4c82b1" points="286.689,147.208 192.047,124.393 451.932,338.064  "/>
<polygon fill="#44003c" points="218.321,368.094 427.563,429.513 83.271,151.941  "/>
<polygon fill="#995850" points="207.116,70.718 495.424,388.267 490.257,461.975  "/>
<polygon fill="#7062d0" points="571.964,34.339 53.809,88.960 451.561,547.458  "/>
<polygon fill="#827dba" points="288.048,378.091 533.767,595.406 318.328,467.827  "/>
<polygon fill="#07a732" points="97.021,195.038 534.844,190.895 355.458,160.655  "/>
<polygon fill="#c2f231" points="523.832,251.797 18.581,39.127 84.877,369.090  "/>
<polygon fill="#1c87c2" points="533.296,20.613 481.368,151.502 245.275,410.262  "/>
<polygon fill="#dc64f3" points="326.139,474.616 314.768,237.854 81.550,274.685  "/>
<polygon fill="#26b463" points="214.973,327.128 6.323,267.806 122.962,455.465  "/>
<polygon fill="#8b2820" points="21.898,446.173 280.914,412.852 516.707,31.872  "/>
<polygon fill="#cd677a" points="187.657,528.613 377.529,91.131 527.784,160.544  "/>
<polygon fill="#9e674d" points="512.340,179.107 568.684,58.978 33.060,175.857  "/>
<polygon fill="#c1d22b" points="3.106,195.437 158.747,483.177 401.221,199.332  "/>
<polygon fill="#258007" points="2.157,321.694 104.360,62.544 510.284,132.157  "/>
<polygon fill="#41ef4d" points="446.972,205.667 14.791,180.017 354.925,403.808  "/>
<polygon fill="#ac67c5" points="585.983,257.408 361.657,320.338 375.576,396.511  "/>
<polygon fill="#419596" points="242.921,60.581 336.672,449.656 445.389,92.520  "/>
<polygon fill="#723f74" points="346.035,16.006 511.607,445.163 590.389,374.172  "/>
<polygon fill="#345a84" points="432.085,558.865 243.956,256.721 453.512,252.138  "/>
<polygon fill="#b6e31b" points="204.348,170.988 344.679,460.140 16.751,268.840  "/>
<polygon fill="#128c07" points="211.505,436.277 492.439,314.368 297.446,243.857  "/>
<polygon fill="#fc38b4" points="49.651,68.494 335.318,147.291 346.397,248.457  "/>
<polygon fill="#03e2e9" points="526.168,426.331 154.718,67.151 66.910,256.326  "/>
<polygon fill="#f5f570" points="430.604,254.356 298.485,357.891 162.291,342.962  "/>
<polygon fill="#0b3355" points="193.577,301.822 393.907,475.779 25.958,7.241  "/>
<polygon fill="#fefe16" points="571.000,100.627 295.540,474.932 477.536,568.408  "/>
<polygon fill="#e5fb95" points="160.384,250.421 438.006,155.310 223.351,280.023  "/>
<polygon fill="#acb99b" points="259.451,460.078 306.884,399.857 174.492,285.153  "/>
<polygon fill="#3efb2d" points="151.443,347.424 398.872,358.954 6.321,57.966  "/>
<polygon fill="#f6bc6a" points="67.690,311.820 49.334,244.355 422.040,260.785  "/>
<polygon fill="#6678e3" points="374.423,39.516 114.798,4.853 160.662,313.626  "/>
<polygon fill="#644c5c" points="195.230,489.408 238.387,511.190 86.137,395.597  "/>
<polygon fill="#4ddd6d" points="434.649,9.191 463.901,318.309 115.470,272.998  "/>
<polygon fill="#7826d3" points="324.402,407.519 411.851,379.237 556.233,99.159  "/>
<polygon fill="#d4eebe" points="442.924,177.605 370.554,201.491 508.705,29.981  "/>
<polygon fill="#e122bc" points="213.697,108.814 517.607,145.696 207.894,231.377  "/>
<polygon fill="#c8dae2" points="553.763,271.626 392.513,314.389 97.284,583.737  "/>
<polygon fill="#e828ee" points="77.127,4.864 379.872,73.308 121.414,348.610  "/>
<polygon fill="#6ce0b4" points="28.217,515.019 535.606,421.363 326.970,390.714  "/>
<polygon fill="#e6fd77" points="551.443,541.981 487.388,483.908 467.891,399.782  "/>
<polygon fill="#a691b2" points="9.816,38.814 85.369,474.890 502.799,400.574  "/>
<polygon fill="#54e2c6" points="505.513,252.474 411.480,483.063 174.751,140.094  "/>
<polygon fill="#0476a7" points="319.983,64.580 207.800,175.774 463.792,414.834  "/>
<polygon fill="#6dc9e4" points="228.959,203.101 354.405,101.428 431.902,514.886  "/>
<polygon fill="#4ef9e0" points="87.399,32.399 478.989,8.321 420.500,468.864  "/>
<polygon fill="#db232e" points="464.094,303.357 11.783,536.861 117.067,315.873  "/>
<polygon fill="#7495dd" points="462.218,298.512 469.646,80.963 255.878,271.103  "/>
<polygon fill="#cce64a" points="226.066,282.216 73.602,109.025 479.724,471.929  "/>
<polygon fill="#363ed6" points="509.888,367.787 519.383,469.146 568.400,488.913  "/>
<polygon fill="#456799" points="167.833,216.185 73.395,547.695 14.627,549.551  "/>
<polygon fill="#de6761" points="217.581,110.262 18.444,463.669 597.848,415.550  "/>
<polygon fill="#199880" points="505.380,226.589 249.143,367.598 231.924,360.359  "/>
<polygon fill="#7ebbc9" points="401.782,230.847 153.049,33.633 224.176,65.480  "/>
<polygon fill="#d81353" points="571.494,37.576 167.889,341.147 406.949,362.295  "/>
<polygon fill="#a7f571" points="43.037,368.037 543.662,77.888 198.896,568.792  "/>
</svg>