<?xml version="1.0" encoding="utf-8"?>
<!-- Generator: Python script. InTeResTinG -->
<!DOCTYPE svg PUBLIC "-//W3C//DTD SVG 1.1//EN" "http://www.w3.org/Graphics/SVG/1.1/DTD/svg11.dtd">
<svg version="1.1" id="Layer_1" xmlns="http://www.w3.org/2000/svg" xmlns:xlink="http://www.w3.org/1999/xlink" x="0px" y="0px" width="600.000px" height="600.000px" viewBox="0 0 600.000 600.000" enable-background="new 0 0 600.000 600.000" xml:space="preserve">
<polygon fill="#e1a128" points="566.480,481.472 461.255,212.985 292.049,431.987  "/>
<polygon fill="#730b2c" points="90.647,269.396 360.090,65.575 429.755,362.853  "/>
<polygon fill="#4ff6ba" points="35.750,284.661 254.829,298.430 394.801,328.309  "/>
<polygon fill="#b4e8f1" points="4.291,552.138 449.723,593.552 357.836,132.664  "/>
<polygon fill="#b5b7bc" points="118.578,417.988 64.941,133.529 418.378,129.641  "/>
<polygon fill="#1d3b92" points="559.459,189.572 557.796,177.871 140.556,589.564  "/>
<polygon fill="#48242a" points="223.876,61.402 54.228,460.852 202.420,332.725  "/>
<polygon fill="#5b0d31" points="475.922,542.265 192.230,146.596 422.783,69.749  "/>
<polygon fill="#0d690e" points="352.579,56.985 109.246,221.698 141.206,406.570  "/>
<polygon fill="#8a5a8f" points="274.435,307.713 426.447,273.406 405.303,576.781  "/>
<polygon fill="#ec3a92" points="486.252,298.749 37.399,186.503 263.755,205.449  "/>
<polygon fill="#731fbf" points="71.243,231.219 461.978,431.394 407.173,214.317  "/>
<polygon fill="#934372" points="125.094,13.461 254.210,420.482 566.471,76.521  "/>
<polygon fill="#2cbf9c" points="352.223,414.546 376.191,580.391 543.591,100.334  "/>
<polygon fill="#667f9a" points="115.573,419.329 486.247,164.828 221.909,508.486  "/>
<polygon fill="#8fd595" points="202.838,480.178 424.688,524.648 532.657,588.350  "/>
<polygon fill="#6a2aa1" points="401.999,365.234 34.794,486.898 349.932,441.745  "/>
<polygon fill="#0cc1b0" points="380.054,596.725 118.115,412.881 226.948,483.384  "/>
<polygon fill="#7b413b" points="505.910,514.592 443.673,527.139 493.633,279.973  "/>
<polygon fill="#b3088c" points="235.434,295.632 453.062,409.934 88.258,474.201  "/>
<polygon fill="#5eefc4" points="332.954,512.218 288.653,487.006 145.253,335.338  "/>
<polygon fill="#cb270e" points="197.453,16.799 64.197,515.122 365.239,18.691  "/>
<polygon fill="#f138e0" points="335.914,12.041 456.802,122.315 7.031,183.317  "/>
<polygon fill="#6ad24e" points="41.716,226.668 546.969,572.882 316.320,495.479  "/>
<polygon fill="#f9dbe2" points="17.393,323.672 55.954,446.661 325.047,471.339  "/>
<polygon fill="#53b4d4" points="210.951,299.184 116.071,377.732 521.385,383.729  "/>
<polygon fill="#60823a" points="108.799,167.214 340.373,221.361 440.312,236.870  "/>
<polygon fill="#b28fa8" points="428.178,114.368 132.069,508.797 241.704,12.189  "/>
<polygon fill="#410b2e" points="6.166,248.457 583.760,37.635 585.085,41.630  "/>
<polygon fill="#1cc784" points="476.663,458.011 359.020,110.439 283.473,223.781  "/>
<polygon fill="#9efb68" points="28.383,79.965 276.898,91.739 549.870,409.264  "/>
<polygon fill="#1b16ed" points="387.158,555.939 109.976,176.166 40.522,113.597  "/>
<polygon fill="#e3c06d" points="523.094,107.481 74.753,385.647 163.579,569.667  "/>
<polygon fill="#b8ab06" points="429.777,561.787 487.178,560.805 366.264,504.787  "/>
<polygon fill="#45a637" points="170.735,331.882 337.931,470.163 149.487,593.726  "/>
<polygon fill="#b32fa2" points="459.465,31.940 553.070,274.786 94.387,134.538  "/>
<polygon fill="#d607bd" points="46.678,353.163 95.917,72.350 393.843,53.538  "/>
<polygon fill="#9c9fec" points="116.942,29.203 225.518,273.369 48.962,65.247  "/>
<polygon fill="#af3f7b" points="379.323,442.407 330.717,245.542 105.247,567.528  "/>
<polygon fill="#517b8b" points="517.038,149.362 93.873,50.096 543.941,539.753  "/>
<polygon fill="#3146c5" points="110.750,494.015 325.370,314.448 523.210,454.951  "/>
<polygon fill="#a6e77c" points="590.059,363.001 501.133,529.292 30.963,256.311  "/>
<polygon fill="#689e02" points="374.126,235.227 32.816,391.644 83.471,588.431  "/>
<polygon fill="#a75917" points="357.540,352.214 516.787,140.104 311.077,18.511  "/>
<polygon fill="#124d84" points="136.440,120.460 516.428,567.565 551.879,482.537  "/>
<polygon fill="#5634e7" points="348.235,57.334 5.763,421.047 538.911,190.283  "/>
<polygon fill="#7505b1" points="182.179,99.423 154.683,494.642 493.299,138.209  "/>
<polygon fill="#ac1492" points="553.192,327.674 82.299,288.988 519.029,202.115  "/>
<polygon fill="#b02b97" points="124.968,481.244 295.497,116.833 494.917,168.417  "/>
<polygon fill="#9a4616" points="470.142,457.042 399.934,571.916 549.407,80.156  "/>
<polygon fill="#2fc792" points="427.499,334.972 40.368,279.250 586.551,567.203  "/>
<polygon fill="#a5ed8a" points="516.923,215.296 498.834,569.419 416.103,141.174  "/>
<polygon fill="#33e5dd" points="353.807,560.799 220.106,526.426 466.448,299.129  "/>
<polygon fill="#e2cb5f" points="399.399,41.674 159.267,11.751 428.455,557.450  "/>
</svg>