<?xml version="1.0" encoding="utf-8"?>
<!-- Generator: Python script. InTeResTinG -->
<!DOCTYPE svg PUBLIC "-//W3C//DTD SVG 1.1//EN" "http://www.w3.org/Graphics/SVG/1.1/DTD/svg11.dtd">
<svg version="1.1" id="Layer_1" xmlns="http://www.w3.org/2000/svg" xmlns:xlink="http://www.w3.org/1999/xlink" x="0px" y="0px" width="600.000px" height="600.000px" viewBox="0 0 600.000 600.000" enable-background="new 0 0 600.000 600.000" xml:space="preserve">
<polygon fill="#e0f4bc" points="443.083,520.154 548.198,342.076 216.168,262.713  "/>
<polygon fill="#d36717" points="343.464,20.347 52.928,497.194 365.744,378.228  "/>
<polygon fill="#d1cfcd" points="410.664,462.297 435.880,254.728 11.781,208.647  "/>
<polygon fill="#101c2d" points="39.497,528.398 415.389,13.623 527.541,281.308  "/>
<polygon fill="#f191a7" points="15.719,366.989 160.293,235.456 96.267,309.939  "/>
<polygon fill="#65900a" points="90.775,469.320 450.463,86.675 69.719,420.026  "/>
<polygon fill="#d5a2f6" points="324.996,154.329 552.803,549.177 422.605,80.953  "/>
<polygon fill="#4782cd" points="518.278,154.233 241.950,85.285 57.945,285.484  "/>
<polygon fill="#72463c" points="503.439,48.439 255.074,582.534 352.604,421.287  "/>
<polygon fill="#c09fb6" points="81.776,113.251 412.986,302.645 132.872,436.327  "/>
<polygon fill="#27513b" points="448.372,28.655 219.095,465.579 165.164,260.554  "/>
<polygon fill="#1334d0" points="536.585,310.476 484.763,133.709 105.943,477.778  "/>
<polygon fill="#42845a" points="58.752,454.083 305.228,377.096 85.614,305.354  "/>
<polygon fill="#7b0f92" points="269.686,569.220 299.128,176.874 109.187,376.568  "/>
<polygon fill="#0e2e75" points="166.782,207.161 466.578,87.413 436.090,83.618  "/>
<polygon fill="#e65614" points="324.035,82.535 314.184,358.632 510.261,572.749  "/>
<polygon fill="#7ac4ea" points="535.891,286.479 271.581,166.310 432.501,561.221  "/>
<polygon fill="#031ff5" points="194.995,583.682 352.674,394.161 84.992,329.135  "/>
<polygon fill="#f1b45a" points="36.108,393.151 4.288,455.837 368.910,463.880  "/>
<polygon fill="#62dd4d" points="32.548,68.529 62.637,196.188 339.604,150.313  "/>
<polygon fill="#607828" points="187.178,1.872 47.332,396.501 172.543,150.966  "/>
<polygon fill="#ce720d" points="315.656,134.623 297.479,242.171 553.280,273.080  "/>
<polygon fill="#1c20ed" points="167.380,265.973 563.422,124.977 517.330,184.719  "/>
<polygon fill="#78c027" points="444.889,105.909 82.323,570.949 273.405,459.710  "/>
<polygon fill="#5ae507" points="415.010,88.618 225.590,531.632 535.662,85.433  "/>
<polygon fill="#7df23f" points="94.266,159.599 473.466,435.546 406.579,548.861  "/>
<polygon fill="#21e11f" points="122.381,450.661 585.683,364.631 596.916,115.925  "/>
<polygon fill="#d348fb" points="566.277,518.398 277.360,510.227 528.003,448.138  "/>
<polygon fill="#dcb19f" points="420.143,415.407 246.788,471.455 128.644,217.969  "/>
<polygon fill="#048c4d" points="521.416,90.176 375.748,393.445 408.390,389.608  "/>
<polygon fill="#d358b4" points="412.938,320.560 403.354,442.606 401.461,422.448  "/>
<polygon fill="#5d4a3d" points="459.989,537.982 417.323,308.329 143.816,469.627  "/>
<polygon fill="#6e0a86" points="81.263,501.159 415.692,366.642 112.992,454.627  "/>
<polygon fill="#b4fbdf" points="335.729,561.060 49.453,549.698 76.868,184.063  "/>
<polygon fill="#a2013e" points="194.271,441.338 25.887,495.928 321.633,534.748  "/>
<polygon fill="#16669f" points="149.063,78.421 436.111,573.981 438.932,67.819  "/>
<polygon fill="#bab50c" points="480.017,257.223 561.594,284.451 534.721,315.889  "/>
<polygon fill="#e4213d" points="352.717,109.074 204.885,65.623 146.837,330.794  "/>
<polygon fill="#66063d" points="218.621,510.086 424.533,528.223 374.465,489.887  "/>
<polygon fill="#ba1246" points="235.042,577.012 255.310,172.949 561.901,95.172  "/>
<polygon fill="#2d0b4c" points="111.871,184.125 340.196,522.106 363.192,146.823  "/>
<polygon fill="#920a7b" points="277.668,530.101 132.483,113.796 519.239,289.820  "/>
<polygon fill="#e83cb8" points="532.954,490.791 547.826,75.812 242.121,309.206  "/>
<polygon fill="#89bc0e" points="199.671,316.219 518.212,50.663 185.032,181.937  "/>
<polygon fill="#503eb7" points="503.573,524.808 470.184,120.191 237.537,577.777  "/>
<polygon fill="#bc372e" points="380.903,17.383 450.448,95.216 345.024,66.479  "/>
<polygon fill="#300847" points="382.226,222.697 123.379,137.553 568.291,580.438  "/>
<polygon fill="#45165c" points="343.757,371.807 202.189,12.323 254.881,151.900  "/>
<polygon fill="#90ae36" points="496.796,317.432 564.375,179.671 127.373,302.427  "/>
<polygon fill="#565385" points="427.435,3.780 95.520,511.208 425.788,246.069  "/>
<polygon fill="#427f7d" points="109.632,153.583 458.503,554.543 185.104,68.453  "/>
<polygon fill="#310afb" points="252.087,416.347 2.827,383.984 37.474,231.925  "/>
</svg>