<?xml version="1.0" encoding="utf-8"?>
<!-- Generator: Python script. InTeResTinG -->
<!DOCTYPE svg PUBLIC "-//W3C//DTD SVG 1.1//EN" "http://www.w3.org/Graphics/SVG/1.1/DTD/svg11.dtd">
<svg version="1.1" id="Layer_1" xmlns="http://www.w3.org/2000/svg" xmlns:xlink="http://www.w3.org/1999/xlink" x="0px" y="0px" width="600.000px" height="600.000px" viewBox="0 0 600.000 600.000" enable-background="new 0 0 600.000 600.000" xml:space="preserve">
<polygon fill="#dd9c48" points="43.346,456.480 276.105,581.962 433.674,576.480  "/>
<polygon fill="#754064" points="56.385,162.740 38.499,50.730 157.808,354.553  "/>
<polygon fill="#821f93" points="419.688,441.121 299.671,347.308 238.023,311.834  "/>
<polygon fill="#e5ece1" points="545.322,117.524 379.404,566.241 228.865,373.784  "/>
<polygon fill="#748962" points="61.634,415.591 65.332,407.220 409.717,518.147  "/>
<polygon fill="#3bcf5a" points="362.965,277.863 551.206,40.978 71.695,131.608  "/>
<polygon fill="#5cc58a" points="31.749,536.000 187.569,324.756 367.643,375.861  "/>
<polygon fill="#ed82e9" points="144.869,203.581 590.199,78.762 512.459,521.713  "/>
<polygon fill="#e431d1" points="242.670,138.885 264.620,257.517 159.153,333.533  "/>
<polygon fill="#e68e81" points="324.652,255.576 565.772,141.088 449.073,474.842  "/>
<polygon fill="#f0eaf3" points="17.505,523.688 171.447,13.176 99.854,0.246  "/>
<polygon fill="#cbe688" points="353.369,146.789 532.111,427.986 466.234,136.563  "/>
<polygon fill="#e775de" points="423.225,530.904 532.920,423.714 149.518,356.264  "/>
<polygon fill="#57859e" points="467.319,158.556 134.355,136.339 209.449,163.141  "/>
<polygon fill="#60fa07" points="423.226,162.264 357.629,396.658 305.193,252.586  "/>
<polygon fill="#3a7f87" points="435.982,125.885 547.484,42.619 473.435,299.507  "/>
<polygon fill="#d4e483" points="109.819,509.015 359.653,451.255 149.754,446.390  "/>
<polygon fill="#06f0f8" points="13.778,552.362 117.237,90.027 151.013,138.290  "/>
<polygon fill="#52faf3" points="581.558,464.224 529.553,101.579 446.426,541.282  "/>
<polygon fill="#575cdb" points="553.036,407.929 482.499,488.566 590.970,425.751  "/>
<polygon fill="#28dbd6" points="565.388,298.831 148.265,247.623 434.665,37.271  "/>
<polygon fill="#ceee94" points="347.395,196.631 307.175,66.672 250.080,14.225  "/>
<polygon fill="#8c6078" points="547.241,153.127 253.584,114.835 83.098,208.291  "/>
<polygon fill="#d23f79" points="512.205,364.927 158.474,385.300 480.144,24.835  "/>
<polygon fill="#8ca7b3" points="87.202,410.084 386.782,422.429 468.843,221.306  "/>
<polygon fill="#48dfab" points="552.476,161.724 247.930,303.344 268.616,287.805  "/>
<polygon fill="#e2eb74" points="445.265,136.781 239.923,15.504 383.844,24.885  "/>
<polygon fill="#5bb3ac" points="6.100,395.677 66.061,528.322 599.723,94.699  "/>
<polygon fill="#a368d8" points="90.539,449.016 170.611,54.732 426.674,89.756  "/>
<polygon fill="#fd0ff8" points="27.398,246.172 517.426,451.570 300.477,382.056  "/>
<polygon fill="#eb6d99" points="569.158,36.435 131.560,326.152 117.053,394.964  "/>
<polygon fill="#8bdbb9" points="472.725,133.712 150.872,127.497 279.880,140.331  "/>
<polygon fill="#8a71cf" points="220.104,589.461 417.628,521.749 285.005,52.995  "/>
<polygon fill="#c634f3" points="205.247,334.641 568.024,568.806 474.254,584.910  "/>
<polygon fill="#951129" points="331.609,221.615 34.093,589.046 351.181,583.655  "/>
<polygon fill="#0118bf" points="218.915,403.065 202.027,443.679 336.833,296.674  "/>
<polygon fill="#a69c71" points="295.920,121.351 547.685,474.198 453.781,294.663  "/>
<polygon fill="#7bbad5" points="277.770,8.697 367.081,166.728 225.490,225.674  "/>
<polygon fill="#c097f1" points="295.977,216.188 131.832,335.597 209.241,225.799  "/>
<polygon fill="#9d7abb" points="94.972,265.404 420.628,19.120 198.093,92.332  "/>
<polygon fill="#82a5d6" points="120.910,357.389 508.627,549.467 126.464,315.538  "/>
<polygon fill="#fdc011" points="93.754,503.210 54.937,378.329 536.057,300.420  "/>
<polygon fill="#dd8b43" points="131.798,298.740 407.581,189.743 63.304,524.577  "/>
<polygon fill="#d269f4" points="177.661,322.122 437.556,414.806 27.766,23.674  "/>
<polygon fill="#e553c0" points="566.515,547.668 33.253,249.917 78.143,525.337  "/>
<polygon fill="#c8fa5a" points="347.850,109.234 190.722,51.656 34.975,578.292  "/>
<polygon fill="#0fb939" points="101.773,365.085 105.756,135.439 528.821,283.278  "/>
<polygon fill="#c6bcf3" points="591.269,276.256 413.761,63.621 52.223,424.609  "/>
<polygon fill="#0bed00" points="468.676,310.875 108.142,562.147 320.262,490.101  "/>
<polygon fill="#3e1760" points="294.290,240.338 346.894,379.953 367.412,589.030  "/>
</svg>