<?xml version="1.0" encoding="utf-8"?>
<!-- Generator: Python script. InTeResTinG -->
<!DOCTYPE svg PUBLIC "-//W3C//DTD SVG 1.1//EN" "http://www.w3.org/Graphics/SVG/1.1/DTD/svg11.dtd">
<svg version="1.1" id="Layer_1" xmlns="http://www.w3.org/2000/svg" xmlns:xlink="http://www.w3.org/1999/xlink" x="0px" y="0px" width="600.000px" height="600.000px" viewBox="0 0 600.000 600.000" enable-background="new 0 0 600.000 600.000" xml:space="preserve">
<polygon fill="#c6d888" points="360.860,326.307 375.494,475.139 329.918,370.646  "/>
<polygon fill="#98979e" points="49.875,261.433 272.015,150.685 506.815,342.260  "/>
<polygon fill="#cce4da" points="318.450,199.856 37.773,366.200 409.061,412.173  "/>
<polygon fill="#cae062" points="175.586,373.670 490.736,413.111 308.040,99.672  "/>
<polygon fill="#34543d" points="15.074,33.167 77.542,450.642 459.990,430.910  "/>
<polygon fill="#37bebb" points="34.703,502.207 259.755,292.149 332.784,587.057  "/>
<polygon fill="#a96fdf" points="203.113,395.571 79.548,207.571 238.456,412.745  "/>
<polygon fill="#171942" points="158.087,456.740 111.527,85.658 115.113,95.756  "/>
<polygon fill="#040374" points="517.503,500.224 132.588,77.064 0.471,89.371  "/>
<polygon fill="#fb54f0" points="121.501,526.266 106.510,312.463 532.463,49.989  "/>
<polygon fill="#4e3a22" points="37.822,322.293 317.702,281.979 413.687,353.819  "/>
<polygon fill="#a5bf74" points="404.595,430.731 116.200,38.112 325.069,354.908  "/>
<polygon fill="#9ab3ba" points="360.073,325.597 424.628,404.090 337.939,125.974  "/>
<polygon fill="#504100" points="83.922,183.673 158.487,530.945 549.266,158.838  "/>
<polygon fill="#31f7ae" points="593.231,390.224 7.897,390.583 496.088,158.139  "/>
<polygon fill="#3f7382" points="494.914,563.111 174.127,588.489 94.402,124.904  "/>
<polygon fill="#089dfb" points="33.874,374.651 136.647,143.418 596.345,121.709  "/>
<polygon fill="#6b731f" points="391.774,560.643 552.048,123.542 288.541,386.410  "/>
<polygon fill="#180342" points="577.607,110.525 294.080,589.032 465.084,251.402  "/>
<polygon fill="#0889c4" points="390.011,363.466 342.376,94.963 23.764,516.717  "/>
<polygon fill="#1062fe" points="557.057,111.696 376.265,134.371 223.244,581.448  "/>
<polygon fill="#0b5e1f" points="436.289,233.042 338.918,319.695 206.555,115.436  "/>
<polygon fill="#91e1b0" points="123.345,25.739 393.112,193.430 33.245,355.820  "/>
<polygon fill="#1bfcec" points="554.854,92.683 568.317,416.097 320.090,323.535  "/>
<polygon fill="#3f222e" points="189.311,81.290 325.792,484.165 599.971,372.844  "/>
<polygon fill="#2081ed" points="37.586,385.141 216.494,28.629 472.859,251.375  "/>
<polygon fill="#f07e4d" points="367.166,281.881 578.313,471.312 494.550,96.815  "/>
<polygon fill="#a10af2" points="384.474,93.502 89.056,138.936 112.123,41.954  "/>
<polygon fill="#c55a84" points="572.692,501.038 54.544,309.364 68.012,129.520  "/>
<polygon fill="#7448da" points="449.931,494.562 557.584,249.019 245.019,485.334  "/>
<polygon fill="#1144da" points="76.850,509.125 110.850,188.007 464.895,418.534  "/>
<polygon fill="#811101" points="502.869,301.382 172.671,440.612 597.899,175.325  "/>
<polygon fill="#97e222" points="267.282,554.149 430.385,223.342 534.757,495.487  "/>
<polygon fill="#c3ee5b" points="418.104,507.809 220.591,534.731 427.156,42.074  "/>
<polygon fill="#f86af9" points="514.612,380.634 486.178,154.762 410.112,533.340  "/>
<polygon fill="#21d1a1" points="297.168,23.929 566.753,60.395 332.021,45.184  "/>
<polygon fill="#a525a9" points="382.377,352.866 351.181,411.352 43.140,36.213  "/>
<polygon fill="#69bac7" points="155.115,331.259 557.094,71.366 364.134,416.670  "/>
<polygon fill="#c776a5" points="283.967,563.541 417.690,17.904 550.502,437.915  "/>
<polygon fill="#e76298" points="224.778,33.753 231.316,565.282 134.713,473.218  "/>
<polygon fill="#51de3a" points="42.824,415.877 2.175,347.241 44.457,40.855  "/>
<polygon fill="#b27dd4" points="159.367,336.099 227.819,560.318 86.472,370.825  "/>
<polygon fill="#4195af" points="194.371,280.411 214.077,130.518 241.806,543.309  "/>
<polygon fill="#65f9d3" points="374.772,259.371 463.571,581.951 594.867,262.853  "/>
<polygon fill="#2c3139" points="73.404,7.637 326.431,355.074 410.363,402.454  "/>
<polygon fill="#4d70b3" points="306.293,220.122 142.163,417.697 587.410,475.862  "/>
<polygon fill="#d0908f" points="248.078,149.119 573.514,478.188 203.091,356.033  "/>
<polygon fill="#1d76aa" points="570.966,82.117 151.204,252.643 322.587,145.383  "/>
<polygon fill="#ec846c" points="295.327,595.695 558.372,530.819 432.434,451.570  "/>
<polygon fill="#6fac18" points="361.142,304.211 595.794,289.131 335.345,457.338  "/>
<polygon fill="#c93ed3" points="506.128,309.114 37.124,322.319 375.070,593.110  "/>
<polygon fill="#f03111" points="280.944,70.204 115.121,400.399 393.423,138.631  "/>
<polygon fill="#87c2f2" points="450.214,157.121 391.084,286.348 433.628,477.887  "/>
</svg>