<?xml version="1.0" encoding="utf-8"?>
<!-- Generator: Python script. InTeResTinG -->
<!DOCTYPE svg PUBLIC "-//W3C//DTD SVG 1.1//EN" "http://www.w3.org/Graphics/SVG/1.1/DTD/svg11.dtd">
<svg version="1.1" id="Layer_1" xmlns="http://www.w3.org/2000/svg" xmlns:xlink="http://www.w3.org/1999/xlink" x="0px" y="0px" width="600.000px" height="600.000px" viewBox="0 0 600.000 600.000" enable-background="new 0 0 600.000 600.000" xml:space="preserve">
<polygon fill="#5adf4c" points="233.535,100.226 443.829,209.465 16.040,262.123  "/>
<polygon fill="#3bbb34" points="548.864,54.845 344.154,300.058 288.904,72.597  "/>
<polygon fill="#f94083" points="49.742,118.870 215.337,44.699 103.834,330.055  "/>
<polygon fill="#4fc380" points="361.270,425.028 403.181,593.008 383.102,24.929  "/>
<polygon fill="#631066" points="334.372,255.924 26.052,542.110 498.161,87.468  "/>
<polygon fill="#a31a8c" points="550.334,297.131 515.094,558.437 456.410,326.658  "/>
<polygon fill="#fa03b2" points="177.371,56.882 76.532,137.352 170.825,9.508  "/>
<polygon fill="#38ada6" points="4.317,328.160 24.897,122.178 599.628,575.629  "/>
<polygon fill="#ba1fab" points="349.348,457.390 53.650,118.966 218.600,281.010  "/>
<polygon fill="#dcd833" points="194.788,18.916 488.739,64.820 0.256,161.228  "/>
<polygon fill="#34873a" points="5.650,190.015 70.521,413.208 378.015,113.125  "/>
<polygon fill="#4ef7f5" points="86.651,236.342 341.968,227.414 151.708,566.788  "/>
<polygon fill="#f3ded7" points="139.023,590.008 115.434,591.303 73.549,277.276  "/>
<polygon fill="#6d8b9d" points="61.325,407.971 552.382,23.203 121.362,141.772  "/>
<polygon fill="#60f82b" points="26.467,379.966 408.409,485.840 304.783,299.863  "/>
<polygon fill="#428ef6" points="443.484,416.514 81.286,155.758 532.928,359.024  "/>
<polygon fill="#281b07" points="558.875,185.184 470.655,42.871 387.755,176.297  "/>
<polygon fill="#692f8e" points="112.637,513.206 114.050,142.913 199.422,188.953  "/>
<polygon fill="#2a3422" points="394.836,442.184 582.508,549.122 128.054,159.565  "/>
<polygon fill="#07e444" points="333.180,514.626 64.881,356.870 517.997,91.023  "/>
<polygon fill="#152e7e" points="272.831,51.080 31.258,490.152 28.612,7.548  "/>
<polygon fill="#141cfd" points="366.443,184.660 184.922,589.664 237.054,386.126  "/>
<polygon fill="#379259" points="202.023,168.921 199.016,317.035 68.744,590.494  "/>
<polygon fill="#b82ebc" points="194.998,232.468 241.252,352.638 252.979,469.814  "/>
<polygon fill="#7b84cd" points="387.577,189.439 472.062,127.813 562.892,553.505  "/>
<polygon fill="#d6dcc8" points="116.222,295.148 575.579,179.570 444.991,566.455  "/>
<polygon fill="#1d0fbf" points="396.512,197.643 189.187,458.055 151.119,194.063  "/>
<polygon fill="#a2ef71" points="474.455,112.040 100.533,489.674 545.872,257.582  "/>
<polygon fill="#2f49fb" points="217.880,409.735 158.949,92.835 555.678,268.069  "/>
<polygon fill="#409740" points="273.466,64.868 21.793,589.106 531.897,456.313  "/>
<polygon fill="#947459" points="355.405,212.756 90.099,544.283 276.868,35.637  "/>
<polygon fill="#4c5394" points="354.619,178.542 397.202,33.123 299.871,230.253  "/>
<polygon fill="#e96d65" points="221.975,228.601 438.204,95.329 186.480,479.551  "/>
<polygon fill="#8b9862" points="167.731,589.346 269.771,444.370 543.452,441.042  "/>
<polygon fill="#06d53c" points="79.058,574.772 23.598,260.100 547.479,513.166  "/>
<polygon fill="#76e5aa" points="27.516,113.250 149.882,119.992 121.137,213.406  "/>
<polygon fill="#eb8f03" points="269.840,174.120 380.462,188.308 572.618,12.327  "/>
<polygon fill="#b6dd56" points="76.849,419.254 128.455,144.319 399.835,486.449  "/>
<polygon fill="#90afd7" points="219.143,436.283 81.270,176.676 196.103,554.083  "/>
<polygon fill="#3e00a7" points="537.982,303.178 589.846,585.159 426.887,18.365  "/>
<polygon fill="#daeebc" points="39.363,554.970 21.178,344.530 23.018,544.388  "/>
<polygon fill="#97edc9" points="489.295,588.717 493.397,148.226 520.659,320.865  "/>
<polygon fill="#e15e95" points="82.537,151.645 502.525,94.769 303.647,344.557  "/>
<polygon fill="#70be0f" points="257.543,313.018 225.562,289.604 565.835,233.258  "/>
<polygon fill="#a6bc55" points="389.465,485.088 367.749,141.714 157.655,297.695  "/>
<polygon fill="#c92fff" points="10.060,340.125 366.908,521.256 96.355,410.884  "/>
<polygon fill="#2b9577" points="519.818,23.022 252.659,444.464 127.211,203.297  "/>
<polygon fill="#a8bb39" points="421.918,397.959 565.019,133.028 384.837,22.798  "/>
<polygon fill="#0d7316" points="377.349,148.990 388.002,383.973 478.195,205.139  "/>
<polygon fill="#0e6525" points="351.892,25.475 328.672,269.310 243.311,1.152  "/>
<polygon fill="#f86704" points="557.475,540.221 302.323,24.048 519.929,525.823  "/>
<polygon fill="#107f24" points="332.821,228.675 334.258,417.508 316.524,35.223  "/>
<polygon fill="#08bc25" points="82.366,323.320 359.220,61.195 488.282,145.529  "/>
<polygon fill="#f93c4d" points="163.113,489.003 345.883,130.610 337.409,399.566  "/>
<polygon fill="#d1a511" points="516.821,298.534 30.476,546.756 88.155,493.079  "/>
</svg>