<?xml version="1.0" encoding="utf-8"?>
<!-- Generator: Python script. InTeResTinG -->
<!DOCTYPE svg PUBLIC "-//W3C//DTD SVG 1.1//EN" "http://www.w3.org/Graphics/SVG/1.1/DTD/svg11.dtd">
<svg version="1.1" id="Layer_1" xmlns="http://www.w3.org/2000/svg" xmlns:xlink="http://www.w3.org/1999/xlink" x="0px" y="0px" width="600.000px" height="600.000px" viewBox="0 0 600.000 600.000" enable-background="new 0 0 600.000 600.000" xml:space="preserve">
<polygon fill="#ae9cdb" points="530.717,297.875 150.614,528.073 160.319,480.532  "/>
<polygon fill="#753513" points="32.508,516.756 303.651,451.253 519.396,257.892  "/>
<polygon fill="#859900" points="528.629,374.100 111.018,522.000 383.043,145.841  "/>
<polygon fill="#2e7736" points="30.263,101.449 321.127,6.826 275.832,255.898  "/>
<polygon fill="#19a158" points="364.950,585.189 117.758,213.423 325.453,507.708  "/>
<polygon fill="#824237" points="217.692,228.505 226.729,117.909 365.150,33.977  "/>
<polygon fill="#f86203" points="424.129,305.495 21.689,217.505 350.913,157.510  "/>
<polygon fill="#e0c65d" points="77.078,122.354 161.020,332.511 451.805,429.783  "/>
<polygon fill="#adbea2" points="105.893,238.837 396.829,429.111 443.796,130.499  "/>
<polygon fill="#8d1202" points="398.958,93.460 130.328,511.007 396.932,371.469  "/>
<polygon fill="#ea77b0" points="448.745,159.841 133.931,435.500 144.118,368.741  "/>
<polygon fill="#36799b" points="445.110,105.197 202.423,545.123 541.347,128.662  "/>
<polygon fill="#0f739d" points="479.206,469.292 440.908,373.570 178.832,297.816  "/>
<polygon fill="#b644bf" points="206.923,95.178 137.402,174.597 145.705,411.667  "/>
<polygon fill="#fbf05c" points="174.619,7.475 489.402,289.034 419.142,112.000  "/>
<polygon fill="#cb2b0e" points="555.451,340.609 370.636,44.642 420.329,338.040  "/>
<polygon fill="#ba9b07" points="351.873,356.111 382.457,382.477 434.148,558.846  "/>
<polygon fill="#faa565" points="581.693,72.710 330.930,510.894 557.999,403.807  "/>
<polygon fill="#dbaa18" points="485.037,360.725 340.904,4.160 453.875,247.952  "/>
<polygon fill="#8fbb93" points="201.336,81.965 263.587,468.791 572.865,447.701  "/>
<polygon fill="#82222f" points="125.651,205.591 220.547,480.729 251.352,295.814  "/>
<polygon fill="#4db469" points="519.279,499.923 303.876,391.960 570.504,434.992  "/>
<polygon fill="#05a8bf" points="352.570,315.753 325.185,32.131 423.675,298.143  "/>
<polygon fill="#19ba08" points="149.161,384.955 597.253,252.712 39.850,462.861  "/>
<polygon fill="#5bbf11" points="222.246,187.683 461.527,190.501 285.210,594.517  "/>
<polygon fill="#328554" points="218.803,213.518 537.033,252.025 582.062,527.560  "/>
<polygon fill="#cd2c9b" points="363.986,209.478 275.505,133.625 139.940,552.795  "/>
<polygon fill="#cdd29b" points="502.446,357.002 224.213,374.049 55.586,73.250  "/>
<polygon fill="#3b8681" points="594.881,16.511 278.305,118.288 31.202,91.830  "/>
<polygon fill="#5262b2" points="232.741,328.449 375.743,237.031 557.091,200.296  "/>
<polygon fill="#87ed80" points="232.051,48.618 354.010,270.093 553.779,76.025  "/>
<polygon fill="#48f1c9" points="470.174,545.517 579.923,273.662 154.365,468.042  "/>
<polygon fill="#59ca5c" points="203.970,427.606 74.582,124.614 208.441,22.258  "/>
<polygon fill="#05488b" points="66.074,354.220 560.746,80.873 65.687,320.733  "/>
<polygon fill="#d08ff4" points="257.617,175.217 210.251,593.069 562.110,359.356  "/>
<polygon fill="#139d30" points="456.166,515.938 98.608,375.443 448.022,361.685  "/>
<polygon fill="#74fc33" points="482.763,412.990 516.365,554.992 186.275,36.272  "/>
<polygon fill="#f4b089" points="196.948,468.939 325.821,477.569 99.102,391.234  "/>
<polygon fill="#d68d05" points="554.720,92.358 39.968,572.402 560.842,259.270  "/>
<polygon fill="#751377" points="578.976,244.640 524.011,2.045 238.053,323.656  "/>
<polygon fill="#c68fc7" points="46.882,403.234 292.352,211.960 59.165,311.146  "/>
<polygon fill="#36d8e3" points="400.819,501.630 313.243,183.986 126.371,407.786  "/>
<polygon fill="#e623a1" points="123.831,480.882 504.150,39.720 194.275,312.107  "/>
<polygon fill="#50d64f" points="158.584,468.095 200.502,199.889 560.604,568.883  "/>
<polygon fill="#60614a" points="354.111,438.184 572.886,540.109 394.113,211.543  "/>
<polygon fill="#87358b" points="554.026,494.182 501.169,474.814 511.163,422.841  "/>
<polygon fill="#803165" points="213.949,270.490 92.056,541.524 52.419,44.571  "/>
<polygon fill="#1f8c3f" points="102.584,528.435 199.302,103.863 561.753,51.958  "/>
<polygon fill="#92729e" points="525.193,51.737 495.584,331.399 475.855,511.112  "/>
<polygon fill="#00aa1e" points="334.347,504.702 253.677,245.305 57.458,294.306  "/>
<polygon fill="#3db66f" points="267.304,172.907 286.010,14.695 382.677,176.880  "/>
<polygon fill="#73549a" points="72.122,222.753 205.481,502.095 110.054,510.882  "/>
<polygon fill="#137b5f" points="320.813,273.138 561.387,10.319 577.399,174.507  "/>
<polygon fill="#40dd92" points="539.696,146.622 554.594,417.404 333.086,335.603  "/>
<polygon fill="#0ab803" points="41.125,515.900 172.014,84.480 460.823,253.175  "/>
<polygon fill="#4f756b" points="37.492,411.992 384.883,272.401 147.221,475.109  "/>
<polygon fill="#dca179" points="0.040,96.959 61.028,108.435 177.126,24.606  "/>
<polygon fill="#16857f" points="192.923,298.279 72.374,236.541 270.842,439.439  "/>
<polygon fill="#35e053" points="381.778,447.918 387.816,172.313 147.296,293.229  "/>
<polygon fill="#ae6479" points="586.723,91.880 69.299,204.673 325.096,209.168  "/>
<polygon fill="#d2f4f6" points="372.917,285.765 495.746,594.884 100.901,399.906  "/>
<polygon fill="#647ddd" points="381.053,52.322 179.104,350.487 469.257,415.334  "/>
<polygon fill="#ec62ff" points="292.840,525.373 125.139,251.449 97.644,521.053  "/>
<polygon fill="#025fd6" points="585.982,545.469 366.525,187.417 304.436,109.488  "/>
<polygon fill="#eca240" points="306.796,484.058 134.888,129.375 267.359,243.880  "/>
<polygon fill="#4fa386" points="382.157,551.501 282.762,574.849 396.396,376.936  "/>
</svg>