<?xml version="1.0" encoding="utf-8"?>
<!-- Generator: Python script. InTeResTinG -->
<!DOCTYPE svg PUBLIC "-//W3C//DTD SVG 1.1//EN" "http://www.w3.org/Graphics/SVG/1.1/DTD/svg11.dtd">
<svg version="1.1" id="Layer_1" xmlns="http://www.w3.org/2000/svg" xmlns:xlink="http://www.w3.org/1999/xlink" x="0px" y="0px" width="600.000px" height="600.000px" viewBox="0 0 600.000 600.000" enable-background="new 0 0 600.000 600.000" xml:space="preserve">
<polygon fill="#3782b9" points="177.847,592.737 372.187,137.027 19.753,303.421  "/>
<polygon fill="#36ef5b" points="531.034,107.219 2.485,487.288 44.238,1.233  "/>
<polygon fill="#0854f8" points="37.195,299.590 413.398,570.376 337.948,341.957  "/>
<polygon fill="#0a3924" points="215.024,598.008 269.145,36.759 369.619,522.801  "/>
<polygon fill="#fa7965" points="596.089,200.122 13.262,431.369 131.019,310.384  "/>
<polygon fill="#fda5da" points="556.987,406.172 201.719,90.844 71.840,423.781  "/>
<polygon fill="#e765d7" points="51.181,177.931 554.183,226.383 167.572,562.730  "/>
<polygon fill="#6f69ee" points="524.610,62.468 496.781,263.543 25.062,383.447  "/>
<polygon fill="#c480ee" points="535.077,272.053 20.179,89.443 324.678,203.321  "/>
<polygon fill="#a1e977" points="264.827,113.224 406.629,233.053 514.700,67.893  "/>
<polygon fill="#c0c558" points="60.776,68.358 366.376,119.792 306.752,268.299  "/>
<polygon fill="#ac1909" points="170.155,189.180 301.223,101.320 217.980,486.957  "/>
<polygon fill="#d2e7a0" points="232.170,330.808 178.176,288.225 408.397,502.427  "/>
<polygon fill="#2f8611" points="294.382,419.345 581.244,374.936 224.035,557.201  "/>
<polygon fill="#098b0e" points="132.932,181.838 17.445,132.241 398.944,284.267  "/>
<polygon fill="#f8ac58" points="445.636,412.543 548.513,384.032 326.693,281.109  "/>
<polygon fill="#be74a9" points="66.696,198.857 379.901,15.439 369.382,37.633  "/>
<polygon fill="#35312d" points="524.610,351.063 60.457,91.118 99.280,599.030  "/>
<polygon fill="#235f5b" points="21.320,495.274 541.475,158.471 205.648,320.880  "/>
<polygon fill="#64505c" points="301.982,364.286 338.144,439.758 250.556,518.363  "/>
<polygon fill="#0bcfac" points="387.129,516.472 475.073,4.582 361.218,205.164  "/>
<polygon fill="#60b858" points="544.758,525.012 319.031,518.163 31.057,539.068  "/>
<polygon fill="#7b638c" points="100.991,229.051 288.818,83.452 410.882,304.427  "/>
<polygon fill="#4707d0" points="127.765,164.568 276.128,428.327 490.012,274.624  "/>
<polygon fill="#9e1b37" points="151.361,230.657 224.867,196.386 358.711,159.051  "/>
<polygon fill="#a99d89" points="534.336,133.658 243.146,255.525 590.746,187.866  "/>
<polygon fill="#2c17d2" points="210.339,160.732 263.407,462.182 398.966,448.938  "/>
<polygon fill="#6c2e9c" points="146.941,141.873 354.507,405.998 404.981,79.834  "/>
<polygon fill="#0f575a" points="289.500,61.215 572.493,112.365 106.428,54.269  "/>
<polygon fill="#19e13c" points="215.550,341.086 414.950,531.181 359.897,388.069  "/>
<polygon fill="#878e39" points="99.503,338.784 551.822,426.308 111.043,455.243  "/>
<polygon fill="#d05342" points="404.727,488.086 501.766,236.282 517.857,471.703  "/>
<polygon fill="#85a339" points="246.974,26.074 278.681,570.373 99.361,589.887  "/>
<polygon fill="#a6fb61" points="455.400,560.361 463.546,535.383 104.489,166.168  "/>
<polygon fill="#470abe" points="163.577,288.864 550.092,262.563 228.088,135.771  "/>
<polygon fill="#9860f1" points="60.882,213.825 429.489,191.026 487.155,269.825  "/>
<polygon fill="#3f2d84" points="166.876,227.655 388.734,531.758 65.264,58.104  "/>
<polygon fill="#54b1c4" points="14.273,378.004 526.359,235.330 356.248,113.869  "/>
<polygon fill="#5c9cb0" points="163.618,39.013 149.426,41.206 438.766,378.915  "/>
<polygon fill="#1461cb" points="372.720,96.235 111.422,461.383 392.579,7.477  "/>
<polygon fill="#2716db" points="106.052,75.832 467.713,89.313 375.527,336.098  "/>
<polygon fill="#6a12a7" points="136.819,20.309 413.771,295.415 11.272,1.410  "/>
<polygon fill="#21406c" points="498.453,189.822 83.883,503.779 322.741,537.952  "/>
<polygon fill="#f79ad8" points="276.452,167.575 107.040,416.257 422.670,565.915  "/>
<polygon fill="#97b38a" points="487.618,157.366 32.856,22.800 54.095,477.377  "/>
<polygon fill="#5c3124" points="231.922,23.550 14.088,564.249 519.084,72.493  "/>
<polygon fill="#e86573" points="80.234,105.087 9.268,320.336 342.296,142.528  "/>
<polygon fill="#6da1e7" points="59.010,433.404 464.096,149.287 323.683,130.474  "/>
<polygon fill="#cab187" points="54.457,407.990 574.194,462.329 374.686,266.030  "/>
<polygon fill="#0f57f0" points="15.932,53.658 509.259,493.737 54.034,110.566  "/>
<polygon fill="#b9362b" points="84.194,143.617 207.425,348.722 501.936,520.081  "/>
<polygon fill="#fc64f7" points="339.916,406.340 536.603,240.588 354.673,85.051  "/>
<polygon fill="#380f20" points="539.598,418.139 321.243,126.496 289.158,33.118  "/>
<polygon fill="#391e25" points="284.970,167.176 165.855,99.648 451.311,33.832  "/>
<polygon fill="#0e76fb" points="426.422,176.874 35.471,485.893 6.176,550.808  "/>
<polygon fill="#6a3547" points="271.424,145.909 269.926,494.017 60.855,46.667  "/>
<polygon fill="#c5098e" points="45.833,456.070 412.054,215.049 78.631,60.929  "/>
<polygon fill="#10a1b3" points="15.124,137.391 316.970,385.747 303.929,487.509  "/>
<polygon fill="#900d28" points="197.191,361.484 365.908,462.789 523.454,419.501  "/>
<polygon fill="#375ade" points="87.752,228.803 515.383,386.764 79.835,492.196  "/>
<polygon fill="#594415" points="151.562,276.014 558.430,407.888 132.918,158.624  "/>
<polygon fill="#c41258" points="559.626,325.526 323.246,504.847 433.459,554.654  "/>
<polygon fill="#912d7c" points="105.574,319.684 291.636,417.620 424.576,522.641  "/>
<polygon fill="#380b58" points="39.726,115.773 157.929,311.195 122.007,86.587  "/>
<polygon fill="#2d9f8e" points="324.699,548.463 308.383,239.169 254.262,124.753  "/>
<polygon fill="#79f689" points="329.066,410.232 597.882,207.136 63.097,29.907  "/>
<polygon fill="#f38a1c" points="38.893,492.011 13.641,147.931 13.955,14.724  "/>
</svg>