<?xml version="1.0" encoding="utf-8"?>
<!-- Generator: Python script. InTeResTinG -->
<!DOCTYPE svg PUBLIC "-//W3C//DTD SVG 1.1//EN" "http://www.w3.org/Graphics/SVG/1.1/DTD/svg11.dtd">
<svg version="1.1" id="Layer_1" xmlns="http://www.w3.org/2000/svg" xmlns:xlink="http://www.w3.org/1999/xlink" x="0px" y="0px" width="600.000px" height="600.000px" viewBox="0 0 600.000 600.000" enable-background="new 0 0 600.000 600.000" xml:space="preserve">
<polygon fill="#192c19" points="550.288,44.938 206.621,200.852 537.664,111.266  "/>
<polygon fill="#e8a12c" points="132.675,5.199 85.216,368.742 364.316,49.196  "/>
<polygon fill="#4d3ee8" points="170.591,133.209 261.972,484.887 227.525,171.858  "/>
<polygon fill="#265beb" points="583.823,390.600 569.770,393.029 33.544,246.932  "/>
<polygon fill="#951b05" points="7.260,336.916 102.391,463.969 583.195,69.284  "/>
<polygon fill="#330a82" points="468.185,476.529 266.744,485.259 561.417,369.029  "/>
<polygon fill="#3350d7" points="129.123,243.465 167.625,175.612 482.360,179.360  "/>
<polygon fill="#e23c4b" points="207.589,476.544 165.873,373.225 316.780,309.913  "/>
<polygon fill="#30d435" points="298.856,23.612 543.792,57.294 234.092,96.688  "/>
<polygon fill="#8b4abc" points="587.370,83.421 168.928,235.710 457.940,10.206  "/>
<polygon fill="#1b50e8" points="599.223,336.189 484.328,334.336 252.234,557.014  "/>
<polygon fill="#938b87" points="328.192,434.118 291.383,96.213 358.110,354.563  "/>
<polygon fill="#578bc1" points="440.110,110.040 296.922,194.835 499.964,29.187  "/>
<polygon fill="#5103ae" points="172.577,143.032 5.779,171.206 507.421,500.395  "/>
<polygon fill="#e55e96" points="130.001,0.807 214.957,147.439 228.889,469.315  "/>
<polygon fill="#c4c951" points="514.204,583.678 472.903,158.933 246.979,396.543  "/>
<polygon fill="#5d075c" points="96.460,73.813 117.225,368.410 155.639,82.713  "/>
<polygon fill="#1ded35" points="305.339,148.727 34.233,87.007 558.903,246.266  "/>
<polygon fill="#b80d72" points="111.428,302.369 471.320,228.404 398.885,461.142  "/>
<polygon fill="#38b85c" points="121.617,71.618 264.352,93.376 503.888,555.257  "/>
<polygon fill="#932d9e" points="268.820,127.151 233.782,57.051 36.061,43.066  "/>
<polygon fill="#4635ab" points="141.675,261.584 73.291,414.968 222.265,121.737  "/>
<polygon fill="#d4c8cf" points="521.616,66.541 287.712,139.836 133.316,220.360  "/>
<polygon fill="#24e3fa" points="72.995,224.125 579.499,312.421 18.107,357.710  "/>
<polygon fill="#81884c" points="400.941,461.231 128.341,309.410 29.614,22.000  "/>
<polygon fill="#a05a73" points="433.570,303.623 386.526,14.453 556.452,177.557  "/>
<polygon fill="#3d3b7f" points="416.482,66.638 405.920,252.864 562.153,386.523  "/>
<polygon fill="#3146ca" points="119.591,444.856 573.884,70.552 82.236,216.347  "/>
<polygon fill="#dae964" points="548.188,530.724 593.978,550.651 106.957,411.736  "/>
<polygon fill="#ca19c2" points="428.121,544.520 37.551,103.280 455.266,76.126  "/>
<polygon fill="#35014f" points="563.373,499.492 355.108,304.042 322.390,191.906  "/>
<polygon fill="#36e481" points="344.335,337.190 177.718,67.553 486.992,379.270  "/>
<polygon fill="#9e3334" points="226.231,276.301 365.733,207.436 222.655,33.049  "/>
<polygon fill="#26cf55" points="561.854,513.930 581.458,354.054 323.835,564.536  "/>
<polygon fill="#09d900" points="113.165,515.441 260.627,105.619 515.071,272.894  "/>
<polygon fill="#eaa43a" points="165.867,67.900 38.030,584.907 221.331,16.745  "/>
<polygon fill="#82baf6" points="365.562,445.320 590.872,209.261 459.273,597.897  "/>
<polygon fill="#29cb88" points="257.263,79.567 75.205,279.589 326.852,239.332  "/>
<polygon fill="#50f73b" points="484.255,256.699 279.905,264.894 113.172,330.510  "/>
<polygon fill="#a0ceb7" points="239.034,402.251 133.783,63.650 455.467,554.638  "/>
<polygon fill="#5d77ea" points="254.430,135.743 352.680,34.909 42.241,567.668  "/>
<polygon fill="#f69d96" points="62.898,287.191 364.890,165.588 448.866,493.307  "/>
<polygon fill="#8be3c4" points="136.918,440.342 298.531,231.025 139.540,386.855  "/>
<polygon fill="#1a820d" points="554.786,17.017 216.107,1.135 370.694,480.772  "/>
<polygon fill="#d52daf" points="147.304,438.831 598.903,274.187 24.796,115.814  "/>
<polygon fill="#ce9ac6" points="234.416,581.517 547.080,464.473 403.804,441.461  "/>
<polygon fill="#057403" points="129.178,496.368 505.357,266.001 297.812,165.165  "/>
<polygon fill="#e34383" points="4.216,246.179 241.034,241.130 502.800,160.249  "/>
<polygon fill="#520ce7" points="200.037,565.505 134.450,238.824 375.836,545.334  "/>
<polygon fill="#ca5cbb" points="45.205,133.171 8.817,378.454 99.322,493.751  "/>
<polygon fill="#8d18e8" points="579.522,43.296 345.962,12.907 327.083,340.454  "/>
<polygon fill="#3ac42d" points="376.054,367.155 21.374,443.014 359.024,405.328  "/>
<polygon fill="#4f405e" points="533.672,273.376 393.507,298.630 299.658,597.406  "/>
<polygon fill="#655c13" points="18.246,9.069 461.290,190.530 578.243,371.534  "/>
<polygon fill="#080a0b" points="284.060,338.291 51.838,139.230 343.548,544.259  "/>
<polygon fill="#142eb7" points="484.900,185.465 454.963,394.659 544.993,384.026  "/>
<polygon fill="#9beff0" points="170.708,461.723 168.410,318.872 456.427,116.943  "/>
<polygon fill="#a45d51" points="89.117,458.093 423.387,132.519 156.536,326.634  "/>
</svg>