<?xml version="1.0" encoding="utf-8"?>
<!-- Generator: Python script. InTeResTinG -->
<!DOCTYPE svg PUBLIC "-//W3C//DTD SVG 1.1//EN" "http://www.w3.org/Graphics/SVG/1.1/DTD/svg11.dtd">
<svg version="1.1" id="Layer_1" xmlns="http://www.w3.org/2000/svg" xmlns:xlink="http://www.w3.org/1999/xlink" x="0px" y="0px" width="600.000px" height="600.000px" viewBox="0 0 600.000 600.000" enable-background="new 0 0 600.000 600.000" xml:space="preserve">
<polygon fill="#197d7e" points="458.645,214.206 327.579,95.354 382.688,119.369  "/>
<polygon fill="#7a6fcd" points="225.511,448.956 120.249,295.985 355.010,227.526  "/>
<polygon fill="#86deba" points="302.661,9.597 548.387,509.338 487.586,338.666  "/>
<polygon fill="#9bcab0" points="65.863,15.868 381.286,299.519 226.874,468.900  "/>
<polygon fill="#cdd530" points="352.378,389.525 521.823,508.895 587.999,416.187  "/>
<polygon fill="#ccb5f4" points="47.505,55.119 314.808,464.557 372.447,57.934  "/>
<polygon fill="#6e19e9" points="391.431,451.394 26.642,470.357 382.278,333.737  "/>
<polygon fill="#127159" points="161.508,507.568 149.911,258.965 463.155,512.119  "/>
<polygon fill="#11590b" points="80.078,429.047 249.159,421.707 46.048,548.530  "/>
<polygon fill="#606eb2" points="484.400,283.581 343.470,104.832 206.548,256.891  "/>
<polygon fill="#41223e" points="475.570,233.522 342.594,342.278 132.085,323.705  "/>
<polygon fill="#50c436" points="134.662,413.375 50.326,147.607 132.837,25.794  "/>
<polygon fill="#e1e319" points="337.665,300.368 132.120,381.749 557.014,70.277  "/>
<polygon fill="#074c14" points="143.789,225.755 92.474,454.365 258.038,80.491  "/>
<polygon fill="#805e12" points="593.097,399.016 429.773,461.994 374.702,36.485  "/>
<polygon fill="#5f7c1a" points="432.818,43.653 155.193,106.652 197.430,193.928  "/>
<polygon fill="#8f055d" points="547.901,491.151 510.346,105.086 205.689,363.150  "/>
<polygon fill="#7077be" points="78.832,341.859 106.171,19.542 379.556,543.805  "/>
<polygon fill="#df8a5f" points="314.677,319.584 396.923,297.986 483.319,373.258  "/>
<polygon fill="#01bb0d" points="405.792,585.027 564.869,271.663 357.592,341.354  "/>
<polygon fill="#80e0ba" points="481.763,41.115 557.883,559.922 249.470,184.581  "/>
<polygon fill="#af6db2" points="5.214,105.068 298.343,525.674 416.623,66.909  "/>
<polygon fill="#acce9e" points="414.609,498.009 501.418,96.717 586.056,334.155  "/>
<polygon fill="#1bf0a6" points="216.069,505.558 142.528,505.811 129.429,503.166  "/>
<polygon fill="#f8134b" points="348.043,250.025 117.819,208.635 282.895,43.902  "/>
<polygon fill="#d294cf" points="507.822,541.027 303.191,450.159 496.779,502.259  "/>
<polygon fill="#09a272" points="515.660,220.377 535.543,327.563 121.354,15.197  "/>
<polygon fill="#33bfee" points="576.776,124.031 518.255,180.497 94.376,589.089  "/>
<polygon fill="#385c76" points="296.205,407.766 90.387,225.045 233.449,552.235  "/>
<polygon fill="#c08325" points="262.841,3.092 436.213,562.661 22.639,562.687  "/>
<polygon fill="#68d6c0" points="261.998,189.322 107.416,33.778 158.791,19.354  "/>
<polygon fill="#d9cf9c" points="292.105,441.574 558.730,551.417 299.235,248.834  "/>
<polygon fill="#1e9ceb" points="75.024,589.038 6.987,363.252 453.430,466.661  "/>
<polygon fill="#30820a" points="447.050,116.899 476.086,177.544 433.731,346.039  "/>
<polygon fill="#8321db" points="536.094,150.553 282.587,579.916 475.740,202.882  "/>
<polygon fill="#11d288" points="433.691,247.851 215.076,91.787 230.814,200.745  "/>
<polygon fill="#b3a22b" points="79.209,568.452 179.578,106.283 82.352,132.411  "/>
<polygon fill="#b6e02b" points="243.955,186.292 388.262,533.610 291.444,129.196  "/>
<polygon fill="#2c1541" points="234.212,517.078 561.080,151.171 83.944,542.876  "/>
<polygon fill="#042e7d" points="164.375,404.899 136.344,208.161 272.452,385.557  "/>
<polygon fill="#b3d2bd" points="79.791,192.018 231.284,111.946 250.113,513.994  "/>
<polygon fill="#78c480" points="202.214,417.004 36.068,81.747 369.157,317.851  "/>
<polygon fill="#aff124" points="559.782,196.571 418.501,391.569 508.560,249.989  "/>
<polygon fill="#147e4b" points="154.651,455.754 476.592,168.500 255.533,178.534  "/>
<polygon fill="#315bd8" points="466.112,11.800 525.020,295.133 304.526,113.172  "/>
<polygon fill="#77c36d" points="34.621,244.391 462.953,311.662 55.018,73.219  "/>
<polygon fill="#dd97a7" points="171.295,290.699 472.221,17.303 152.652,199.384  "/>
<polygon fill="#a40142" points="414.195,269.649 405.298,330.680 471.880,480.449  "/>
<polygon fill="#6e8699" points="256.038,27.662 382.872,456.727 327.186,92.450  "/>
<polygon fill="#3dc2a6" points="271.086,555.224 307.955,464.187 232.262,315.871  "/>
</svg>