<?xml version="1.0" encoding="utf-8"?>
<!-- Generator: Python script. InTeResTinG -->
<!DOCTYPE svg PUBLIC "-//W3C//DTD SVG 1.1//EN" "http://www.w3.org/Graphics/SVG/1.1/DTD/svg11.dtd">
<svg version="1.1" id="Layer_1" xmlns="http://www.w3.org/2000/svg" xmlns:xlink="http://www.w3.org/1999/xlink" x="0px" y="0px" width="600.000px" height="600.000px" viewBox="0 0 600.000 600.000" enable-background="new 0 0 600.000 600.000" xml:space="preserve">
<polygon fill="#fc12bf" points="377.737,587.780 504.334,397.853 422.311,199.192  "/>
<polygon fill="#af9160" points="143.441,566.014 191.369,475.711 545.711,56.546  "/>
<polygon fill="#800056" points="375.205,234.696 265.671,132.679 275.552,214.421  "/>
<polygon fill="#0f3771" points="561.790,431.801 304.745,465.494 345.439,587.755  "/>
<polygon fill="#a8fd67" points="16.658,369.284 485.410,360.430 93.756,478.960  "/>
<polygon fill="#14b91f" points="391.065,252.459 358.332,431.676 165.440,85.717  "/>
<polygon fill="#bf618e" points="261.158,374.463 405.709,284.804 277.779,572.817  "/>
<polygon fill="#b68976" points="533.858,343.608 445.737,521.047 359.481,513.957  "/>
<polygon fill="#816a1d" points="140.360,354.587 442.657,526.599 357.274,11.276  "/>
<polygon fill="#937019" points="510.246,437.436 138.371,283.578 22.661,2.022  "/>
<polygon fill="#725477" points="329.054,577.431 85.598,467.499 54.781,90.257  "/>
<polygon fill="#d241c4" points="306.220,26.582 396.360,476.349 162.562,457.905  "/>
<polygon fill="#57d955" points="415.377,337.677 127.317,180.369 54.374,269.803  "/>
<polygon fill="#b26b04" points="9.620,0.108 406.522,366.726 504.597,510.541  "/>
<polygon fill="#eef65b" points="174.120,415.399 549.710,477.242 514.322,60.830  "/>
<polygon fill="#125c8d" points="512.893,193.867 321.166,200.935 523.311,513.320  "/>
<polygon fill="#d7b013" points="526.952,98.045 338.608,330.264 565.903,477.129  "/>
<polygon fill="#fe04fa" points="370.706,575.651 425.759,47.161 221.067,376.300  "/>
<polygon fill="#14afb2" points="595.441,539.444 289.692,220.715 302.028,80.209  "/>
<polygon fill="#2b5a74" points="387.642,203.064 308.919,72.063 209.437,389.302  "/>
<polygon fill="#d09d55" points="26.827,141.410 69.778,105.303 504.154,144.624  "/>
<polygon fill="#27fc83" points="284.362,499.042 30.475,39.707 156.730,285.035  "/>
<polygon fill="#370bf9" points="387.502,23.584 25.322,284.379 484.179,206.354  "/>
<polygon fill="#6311a6" points="344.758,555.019 32.649,89.037 313.194,55.701  "/>
<polygon fill="#6b2ba5" points="241.430,224.424 416.625,48.488 10.888,258.774  "/>
<polygon fill="#c90fd4" points="322.511,94.746 506.576,471.540 503.648,246.341  "/>
<polygon fill="#5b8d61" points="565.675,191.784 280.051,556.645 496.492,186.347  "/>
<polygon fill="#171365" points="455.421,104.405 498.066,59.393 51.401,315.147  "/>
<polygon fill="#363a86" points="436.534,465.537 575.628,315.554 84.269,479.862  "/>
<polygon fill="#eefcc3" points="424.995,354.734 188.596,293.330 452.394,414.128  "/>
<polygon fill="#0109b3" points="325.857,63.552 70.482,516.128 273.260,372.790  "/>
<polygon fill="#4a2825" points="302.834,321.499 36.155,475.866 283.502,83.663  "/>
<polygon fill="#daa461" points="204.368,478.317 167.063,74.506 125.918,182.245  "/>
<polygon fill="#ef7aa9" points="138.714,144.341 306.160,321.839 422.578,53.949  "/>
<polygon fill="#4e8c1f" points="258.453,438.749 39.629,482.680 531.472,107.158  "/>
<polygon fill="#cd07ad" points="286.792,88.486 597.050,501.770 315.294,300.827  "/>
<polygon fill="#2a73fb" points="203.568,288.025 358.682,500.167 77.081,388.259  "/>
<polygon fill="#d06550" points="10.760,159.597 302.729,119.545 388.408,549.762  "/>
<polygon fill="#4efada" points="66.745,384.976 151.974,193.900 231.894,197.646  "/>
<polygon fill="#d5c8d4" points="432.966,322.458 248.018,17.280 357.632,445.028  "/>
<polygon fill="#d8c420" points="262.797,550.669 478.834,341.398 322.059,314.318  "/>
<polygon fill="#31a469" points="264.487,85.369 484.869,410.352 549.634,123.637  "/>
<polygon fill="#f8d39f" points="319.768,557.536 358.270,338.614 116.431,412.848  "/>
<polygon fill="#8468b0" points="16.931,38.913 536.234,241.323 269.654,70.357  "/>
<polygon fill="#d12d47" points="363.922,114.886 590.278,96.711 477.055,7.915  "/>
<polygon fill="#ff92a1" points="536.104,542.633 256.239,195.679 494.961,359.762  "/>
<polygon fill="#854a19" points="464.802,349.129 587.247,144.685 386.342,563.792  "/>
<polygon fill="#280e83" points="443.543,36.078 473.414,357.746 537.455,103.108  "/>
<polygon fill="#2e5179" points="312.164,553.191 290.567,244.235 327.681,134.781  "/>
<polygon fill="#cd3ed4" points="479.755,26.829 83.406,503.124 265.319,545.659  "/>
<polygon fill="#35d528" points="114.148,119.258 359.715,161.928 471.482,133.656  "/>
<polygon fill="#f92c4d" points="496.999,156.097 588.715,529.057 281.360,67.787  "/>
<polygon fill="#1b1347" points="208.773,334.615 127.184,581.917 579.412,93.039  "/>
<polygon fill="#6594fd" points="63.235,374.841 229.910,109.782 178.250,41.966  "/>
<polygon fill="#56c8d7" points="352.263,232.558 188.909,392.306 314.155,100.114  "/>
<polygon fill="#0112a5" points="210.280,573.521 278.973,125.127 63.424,57.628  "/>
<polygon fill="#577332" points="231.296,92.798 458.227,248.999 590.425,101.356  "/>
<polygon fill="#2e1e23" points="121.498,550.067 156.714,202.443 374.848,420.030  "/>
</svg>