<?xml version="1.0" encoding="utf-8"?>
<!-- Generator: Python script. InTeResTinG -->
<!DOCTYPE svg PUBLIC "-//W3C//DTD SVG 1.1//EN" "http://www.w3.org/Graphics/SVG/1.1/DTD/svg11.dtd">
<svg version="1.1" id="Layer_1" xmlns="http://www.w3.org/2000/svg" xmlns:xlink="http://www.w3.org/1999/xlink" x="0px" y="0px" width="600.000px" height="600.000px" viewBox="0 0 600.000 600.000" enable-background="new 0 0 600.000 600.000" xml:space="preserve">
<polygon fill="#99209a" points="186.602,50.710 52.683,530.132 546.053,514.593  "/>
<polygon fill="#bbaec3" points="284.956,324.026 398.018,569.301 124.350,121.050  "/>
<polygon fill="#c93a10" points="374.394,384.684 204.710,207.376 0.576,285.693  "/>
<polygon fill="#a09f38" points="44.837,218.702 513.588,426.425 161.938,249.138  "/>
<polygon fill="#8d30f9" points="444.747,595.881 95.595,434.090 535.361,326.392  "/>
<polygon fill="#c6f512" points="242.669,216.633 442.513,361.937 216.184,193.746  "/>
<polygon fill="#dad311" points="258.564,363.658 101.260,500.139 536.269,470.839  "/>
<polygon fill="#226d05" points="93.656,25.380 110.459,425.134 252.266,40.660  "/>
<polygon fill="#862c4a" points="239.771,13.280 231.856,102.100 177.781,293.386  "/>
<polygon fill="#d09100" points="373.309,263.347 383.398,512.991 388.371,513.882  "/>
<polygon fill="#38da1c" points="128.652,20.539 531.721,26.335 244.993,313.263  "/>
<polygon fill="#600896" points="123.926,516.709 165.237,463.813 586.688,57.069  "/>
<polygon fill="#cdd316" points="553.508,319.885 444.179,478.927 142.106,508.630  "/>
<polygon fill="#8afac8" points="367.191,195.193 335.506,252.693 221.475,215.354  "/>
<polygon fill="#779668" points="548.180,544.198 50.402,249.650 111.020,260.760  "/>
<polygon fill="#44e769" points="396.976,561.533 147.286,554.577 416.429,49.127  "/>
<polygon fill="#b90fde" points="542.027,320.567 484.926,242.567 492.303,456.002  "/>
<polygon fill="#e5f7f2" points="32.094,78.042 55.219,93.649 417.617,85.402  "/>
<polygon fill="#fe46eb" points="200.993,45.054 144.312,540.126 69.471,307.782  "/>
<polygon fill="#c2ad2c" points="544.658,42.885 355.573,423.905 53.789,194.793  "/>
<polygon fill="#e00878" points="400.308,467.783 98.419,401.303 80.561,155.773  "/>
<polygon fill="#adefc0" points="557.294,138.502 209.031,555.702 125.632,359.752  "/>
<polygon fill="#04225b" points="306.874,540.943 442.710,309.962 574.673,436.123  "/>
<polygon fill="#f7cc87" points="502.270,229.135 580.718,413.704 366.617,583.543  "/>
<polygon fill="#d40931" points="393.264,372.837 298.428,449.319 300.828,200.154  "/>
<polygon fill="#de1655" points="325.523,146.169 283.120,597.629 524.451,427.621  "/>
<polygon fill="#d83fa5" points="495.602,79.806 422.035,315.382 485.563,140.652  "/>
<polygon fill="#4cd501" points="493.014,321.032 147.402,427.471 241.343,581.801  "/>
<polygon fill="#bceda2" points="65.311,558.200 578.409,518.874 41.550,56.839  "/>
<polygon fill="#93668c" points="18.324,426.576 183.852,121.004 475.698,335.402  "/>
<polygon fill="#cdc92b" points="255.081,56.179 567.766,395.109 19.725,253.324  "/>
<polygon fill="#5cd29d" points="110.488,273.574 559.283,408.741 446.706,341.711  "/>
<polygon fill="#2638c1" points="44.094,125.671 6.953,552.361 317.672,58.457  "/>
<polygon fill="#6b5b6b" points="572.759,583.630 532.899,505.227 362.746,222.853  "/>
<polygon fill="#5752d3" points="191.834,218.942 171.354,555.414 313.132,188.203  "/>
<polygon fill="#b4e5b4" points="243.122,32.280 207.430,498.984 326.428,179.575  "/>
<polygon fill="#f9bd54" points="556.559,342.556 450.400,125.312 61.716,377.383  "/>
<polygon fill="#f0aa5a" points="66.424,581.546 221.984,6.689 505.667,240.143  "/>
<polygon fill="#83d8c1" points="421.471,313.279 160.717,294.187 174.649,275.747  "/>
<polygon fill="#cd787a" points="472.299,120.049 506.630,551.147 207.583,571.117  "/>
<polygon fill="#0931c3" points="113.046,498.188 437.396,280.949 208.411,239.034  "/>
<polygon fill="#8f54a2" points="226.210,476.441 544.636,108.300 308.602,49.467  "/>
<polygon fill="#f0b408" points="125.405,104.353 498.883,264.763 350.429,79.865  "/>
<polygon fill="#214609" points="394.685,145.981 127.424,553.173 524.008,141.360  "/>
<polygon fill="#3944cb" points="234.674,251.433 7.536,136.513 330.320,78.015  "/>
<polygon fill="#a05910" points="288.686,30.018 11.395,239.050 441.374,297.828  "/>
<polygon fill="#a02faf" points="211.407,207.360 343.641,356.196 227.128,358.205  "/>
<polygon fill="#d26010" points="592.690,554.407 196.614,233.964 332.559,105.719  "/>
<polygon fill="#75ba7f" points="11.833,537.639 484.510,199.799 391.670,125.297  "/>
<polygon fill="#9204e7" points="594.938,208.355 489.226,229.098 130.093,124.330  "/>
<polygon fill="#6d5c97" points="476.617,544.897 217.534,531.114 444.297,214.588  "/>
<polygon fill="#8119bf" points="14.511,458.945 521.119,532.011 390.250,103.281  "/>
<polygon fill="#e13021" points="435.796,347.310 531.993,137.936 363.240,453.765  "/>
<polygon fill="#a757fb" points="379.599,561.032 496.420,121.536 316.121,310.345  "/>
<polygon fill="#529557" points="79.549,212.325 77.904,205.378 403.300,344.488  "/>
<polygon fill="#c39820" points="516.691,308.082 33.525,331.631 103.307,236.973  "/>
<polygon fill="#f35c45" points="527.899,537.958 454.121,125.536 387.693,458.875  "/>
<polygon fill="#33dd7f" points="506.186,313.078 512.431,434.876 557.999,204.447  "/>
<polygon fill="#894aa5" points="199.268,353.758 512.326,211.259 586.005,528.449  "/>
<polygon fill="#a8d543" points="227.645,350.048 61.644,345.724 520.114,592.269  "/>
<polygon fill="#a795b9" points="438.201,284.235 228.755,457.304 527.821,455.294  "/>
<polygon fill="#66acb4" points="438.547,512.709 238.880,398.126 577.391,18.014  "/>
<polygon fill="#9ac0ed" points="41.892,413.308 461.621,428.768 344.531,566.486  "/>
<polygon fill="#405df1" points="577.205,461.346 410.328,81.570 186.418,437.373  "/>
<polygon fill="#319091" points="269.044,319.007 152.564,561.117 593.070,63.813  "/>
<polygon fill="#bf76b1" points="9.153,41.117 491.714,535.410 338.794,436.940  "/>
<polygon fill="#0340c8" points="222.018,63.306 465.505,532.505 344.065,228.672  "/>
<polygon fill="#1e9bae" points="584.844,140.766 449.301,573.025 434.697,455.152  "/>
</svg>