<?xml version="1.0" encoding="utf-8"?>
<!-- Generator: Python script. InTeResTinG -->
<!DOCTYPE svg PUBLIC "-//W3C//DTD SVG 1.1//EN" "http://www.w3.org/Graphics/SVG/1.1/DTD/svg11.dtd">
<svg version="1.1" id="Layer_1" xmlns="http://www.w3.org/2000/svg" xmlns:xlink="http://www.w3.org/1999/xlink" x="0px" y="0px" width="600.000px" height="600.000px" viewBox="0 0 600.000 600.000" enable-background="new 0 0 600.000 600.000" xml:space="preserve">
<polygon fill="#f7d19a" points="509.022,456.734 459.243,452.623 26.290,118.347  "/>
<polygon fill="#d96a87" points="132.152,273.686 330.135,236.392 310.096,151.107  "/>
<polygon fill="#ac5e2c" points="492.045,357.313 10.598,293.158 333.494,331.986  "/>
<polygon fill="#96a686" points="191.433,592.946 454.974,225.593 469.946,291.015  "/>
<polygon fill="#59c9a5" points="344.812,457.470 410.812,512.797 354.181,100.161  "/>
<polygon fill="#96393b" points="439.037,116.200 279.064,291.712 467.278,271.706  "/>
<polygon fill="#a0a361" points="208.149,4.795 370.415,113.234 491.322,466.472  "/>
<polygon fill="#5b7675" points="416.759,55.634 469.443,543.132 184.879,570.410  "/>
<polygon fill="#f7467c" points="582.634,3.458 391.839,485.399 456.997,474.986  "/>
<polygon fill="#5a20bd" points="273.252,319.682 201.329,172.638 330.449,249.815  "/>
<polygon fill="#860d27" points="38.896,224.909 46.399,501.842 165.173,443.171  "/>
<polygon fill="#c7a036" points="64.660,62.358 452.839,131.940 43.887,362.082  "/>
<polygon fill="#546302" points="377.257,139.359 346.160,166.006 250.145,64.932  "/>
<polygon fill="#86c19d" points="129.476,489.961 27.451,74.402 306.583,249.742  "/>
<polygon fill="#550cff" points="439.649,144.145 92.872,207.831 220.263,546.550  "/>
<polygon fill="#3c39ef" points="154.784,406.921 588.358,101.971 436.871,507.427  "/>
<polygon fill="#ce17cd" points="99.939,554.968 112.728,597.909 2.816,139.419  "/>
<polygon fill="#dc4c1d" points="44.843,248.236 23.675,335.988 542.792,45.776  "/>
<polygon fill="#1fb0ec" points="333.080,314.863 556.446,455.298 75.956,168.871  "/>
<polygon fill="#30f812" points="135.785,19.461 247.725,399.714 567.317,430.561  "/>
<polygon fill="#e1aa3b" points="270.980,458.344 518.650,277.744 456.753,324.020  "/>
<polygon fill="#11851e" points="414.861,91.054 422.711,509.076 24.854,262.805  "/>
<polygon fill="#32487f" points="450.348,591.851 411.546,236.735 7.614,50.506  "/>
<polygon fill="#b34c80" points="326.589,380.339 361.215,244.050 129.646,199.082  "/>
<polygon fill="#e98b0e" points="588.909,197.665 584.320,396.971 334.681,61.992  "/>
<polygon fill="#fa162d" points="596.846,251.362 73.385,520.633 514.035,532.322  "/>
<polygon fill="#416bd9" points="306.857,524.496 444.184,61.535 502.290,168.834  "/>
<polygon fill="#733749" points="13.663,32.451 96.955,472.748 228.369,126.288  "/>
<polygon fill="#7f1688" points="142.003,238.820 598.639,184.347 80.051,136.768  "/>
<polygon fill="#3353fd" points="170.529,206.368 531.986,390.998 78.187,424.805  "/>
<polygon fill="#6f0a21" points="336.480,530.751 312.218,50.154 139.235,154.294  "/>
<polygon fill="#21a86f" points="267.619,426.063 410.160,199.149 166.296,52.816  "/>
<polygon fill="#c2058c" points="578.663,380.607 556.517,140.709 338.722,318.030  "/>
<polygon fill="#a4d70e" points="429.391,446.759 531.497,549.426 419.324,47.676  "/>
<polygon fill="#b5a17d" points="489.147,407.831 256.209,440.009 307.897,532.055  "/>
<polygon fill="#410f22" points="110.672,514.809 367.632,500.273 585.969,210.463  "/>
<polygon fill="#2ea5cf" points="113.055,370.547 559.473,453.169 309.651,518.982  "/>
<polygon fill="#018aff" points="400.711,563.293 165.036,70.915 337.594,93.081  "/>
<polygon fill="#259624" points="163.021,195.373 127.852,374.903 170.002,72.807  "/>
<polygon fill="#7c0d61" points="488.798,497.066 176.949,384.233 448.654,209.335  "/>
<polygon fill="#a07527" points="326.776,15.897 438.945,478.014 583.712,578.336  "/>
<polygon fill="#617125" points="270.726,584.885 47.279,581.289 490.933,24.403  "/>
<polygon fill="#7f2558" points="290.760,62.405 576.604,29.919 330.166,119.006  "/>
<polygon fill="#88aa9e" points="32.159,126.002 503.616,269.795 178.156,438.210  "/>
<polygon fill="#2a2e5f" points="35.096,242.435 597.302,527.303 596.683,266.395  "/>
<polygon fill="#faa144" points="564.998,136.190 253.339,503.553 119.506,591.362  "/>
<polygon fill="#39b09a" points="47.568,356.116 580.347,41.591 54.689,592.542  "/>
<polygon fill="#f32762" points="251.978,268.287 567.034,57.475 424.314,467.671  "/>
<polygon fill="#599dc4" points="572.581,290.213 584.996,392.885 364.792,412.470  "/>
<polygon fill="#12cdbb" points="556.297,269.816 565.582,321.317 494.902,387.556  "/>
<polygon fill="#f3bd99" points="91.574,499.701 271.153,445.861 194.265,580.625  "/>
<polygon fill="#5d2d61" points="59.505,279.312 92.002,34.904 391.680,504.885  "/>
<polygon fill="#220705" points="541.984,252.143 176.355,205.351 470.815,405.118  "/>
<polygon fill="#3ac4a1" points="403.764,571.027 231.059,63.079 509.480,47.335  "/>
</svg>