<?xml version="1.0" encoding="utf-8"?>
<!-- Generator: Python script. InTeResTinG -->
<!DOCTYPE svg PUBLIC "-//W3C//DTD SVG 1.1//EN" "http://www.w3.org/Graphics/SVG/1.1/DTD/svg11.dtd">
<svg version="1.1" id="Layer_1" xmlns="http://www.w3.org/2000/svg" xmlns:xlink="http://www.w3.org/1999/xlink" x="0px" y="0px" width="600.000px" height="600.000px" viewBox="0 0 600.000 600.000" enable-background="new 0 0 600.000 600.000" xml:space="preserve">
<polygon fill="#a28779" points="581.864,521.758 14.347,203.780 26.234,196.840  "/>
<polygon fill="#432fa9" points="181.054,394.213 489.496,520.494 168.613,293.618  "/>
<polygon fill="#38c5a1" points="102.083,61.893 574.366,469.762 364.577,596.329  "/>
<polygon fill="#618932" points="510.068,548.556 151.770,542.066 549.146,110.684  "/>
<polygon fill="#b3c53c" points="474.059,320.164 597.105,541.358 258.783,109.556  "/>
<polygon fill="#460de7" points="524.375,150.913 280.532,245.042 111.554,496.119  "/>
<polygon fill="#130c4e" points="230.418,471.045 485.221,137.877 207.316,78.401  "/>
<polygon fill="#20be55" points="261.837,267.461 238.424,4.978 545.856,306.275  "/>
<polygon fill="#8aa89f" points="354.086,392.265 273.264,419.121 360.270,276.631  "/>
<polygon fill="#6e713d" points="158.581,352.592 366.841,282.692 340.131,510.073  "/>
<polygon fill="#3175e8" points="348.666,309.172 9.523,413.002 206.838,335.558  "/>
<polygon fill="#0b43b4" points="236.462,108.004 141.232,509.722 154.769,21.608  "/>
<polygon fill="#949d5a" points="47.440,326.875 458.070,469.389 60.419,560.293  "/>
<polygon fill="#ddb553" points="265.152,262.196 140.940,464.016 506.269,497.038  "/>
<polygon fill="#a58608" points="479.842,572.984 178.782,531.877 208.691,238.573  "/>
<polygon fill="#235ed9" points="270.460,53.741 340.346,281.369 494.689,238.620  "/>
<polygon fill="#900ee8" points="573.420,162.613 37.061,449.015 28.254,165.211  "/>
<polygon fill="#fdbfba" points="546.302,392.380 310.245,331.741 473.148,463.828  "/>
<polygon fill="#eab1ae" points="95.810,358.170 139.746,492.356 355.205,191.121  "/>
<polygon fill="#c9f8d7" points="257.146,520.473 420.680,534.242 132.848,165.106  "/>
<polygon fill="#c65ab9" points="12.996,511.245 80.424,141.326 296.453,349.326  "/>
<polygon fill="#deecea" points="595.763,196.792 322.336,54.252 6.595,509.594  "/>
<polygon fill="#dab968" points="530.707,473.785 438.985,77.728 1.509,514.068  "/>
<polygon fill="#afa696" points="542.498,88.383 173.788,201.677 70.458,177.890  "/>
<polygon fill="#f65842" points="360.239,345.967 55.754,396.334 382.950,49.573  "/>
<polygon fill="#1e34b1" points="108.866,25.221 473.840,1.416 350.288,18.412  "/>
<polygon fill="#e67397" points="285.404,65.833 370.892,459.082 373.802,195.888  "/>
<polygon fill="#8f35f4" points="8.641,66.616 408.410,153.370 575.174,394.334  "/>
<polygon fill="#821b52" points="380.906,314.312 520.921,128.392 448.726,402.112  "/>
<polygon fill="#1daa95" points="30.932,14.032 517.486,112.492 437.596,313.592  "/>
<polygon fill="#5f7cb6" points="257.421,94.819 105.654,159.652 149.223,178.212  "/>
<polygon fill="#581841" points="274.052,261.081 299.325,132.003 108.537,315.518  "/>
<polygon fill="#6bf920" points="405.696,179.513 594.918,1.493 151.736,453.120  "/>
<polygon fill="#996592" points="447.427,116.103 501.338,379.821 10.781,62.935  "/>
<polygon fill="#2e25a1" points="67.437,527.864 128.751,135.954 341.581,511.576  "/>
<polygon fill="#fae3e1" points="453.064,406.011 280.113,59.703 245.439,495.733  "/>
<polygon fill="#0e75ea" points="31.574,187.689 465.753,275.997 444.386,301.485  "/>
<polygon fill="#a6cc93" points="557.794,75.015 76.126,411.359 212.751,404.632  "/>
<polygon fill="#5dd83b" points="100.693,86.788 581.140,173.588 132.470,233.132  "/>
<polygon fill="#def9a7" points="584.407,366.724 423.126,483.456 456.939,342.523  "/>
<polygon fill="#d28a82" points="421.327,220.142 124.530,443.465 562.515,54.897  "/>
<polygon fill="#aa2f76" points="141.970,377.578 68.498,583.661 319.404,262.945  "/>
<polygon fill="#1e2065" points="236.988,193.306 471.363,450.183 519.996,525.165  "/>
<polygon fill="#afe143" points="144.087,422.981 557.127,260.988 412.033,86.873  "/>
<polygon fill="#bd5a43" points="506.999,336.410 561.095,116.077 564.642,323.269  "/>
<polygon fill="#d662ca" points="188.600,329.493 271.645,200.734 200.461,389.180  "/>
<polygon fill="#10a0f4" points="115.138,370.526 371.605,211.015 71.269,591.431  "/>
<polygon fill="#c374fb" points="267.628,515.363 457.475,591.895 224.011,554.855  "/>
<polygon fill="#1c6c5a" points="504.232,403.685 270.021,311.782 452.548,441.068  "/>
<polygon fill="#5dbc91" points="254.535,330.502 199.378,95.377 73.730,386.735  "/>
</svg>