<?xml version="1.0" encoding="utf-8"?>
<!-- Generator: Python script. InTeResTinG -->
<!DOCTYPE svg PUBLIC "-//W3C//DTD SVG 1.1//EN" "http://www.w3.org/Graphics/SVG/1.1/DTD/svg11.dtd">
<svg version="1.1" id="Layer_1" xmlns="http://www.w3.org/2000/svg" xmlns:xlink="http://www.w3.org/1999/xlink" x="0px" y="0px" width="600.000px" height="600.000px" viewBox="0 0 600.000 600.000" enable-background="new 0 0 600.000 600.000" xml:space="preserve">
<polygon fill="#4b9a7b" points="62.943,554.411 103.199,353.530 598.863,377.596  "/>
<polygon fill="#fd5b2e" points="287.137,205.748 558.624,312.059 475.028,404.589  "/>
<polygon fill="#d80b5e" points="518.784,538.502 159.929,98.706 488.231,235.867  "/>
<polygon fill="#ec712a" points="390.454,317.648 539.820,345.169 474.341,496.868  "/>
<polygon fill="#690e6d" points="221.096,358.145 236.386,124.765 6.442,211.475  "/>
<polygon fill="#5b366b" points="186.386,86.802 503.722,450.271 10.631,541.177  "/>
<polygon fill="#c77242" points="364.727,189.345 319.939,339.855 313.436,314.960  "/>
<polygon fill="#35942b" points="197.074,88.216 465.146,86.564 72.788,111.705  "/>
<polygon fill="#d55254" points="67.025,517.487 149.832,541.172 327.341,346.491  "/>
<polygon fill="#77d5de" points="466.960,188.075 16.728,13.496 452.335,368.672  "/>
<polygon fill="#097fd0" points="12.159,102.341 11.810,321.186 291.713,68.035  "/>
<polygon fill="#6e9d93" points="494.607,294.779 24.001,63.860 351.261,303.812  "/>
<polygon fill="#0423f8" points="572.701,97.974 481.167,165.302 73.482,477.597  "/>
<polygon fill="#fdd589" points="414.511,229.133 164.098,498.209 185.542,335.637  "/>
<polygon fill="#924ce4" points="292.580,253.805 459.750,182.557 104.514,307.018  "/>
<polygon fill="#6d1503" points="253.866,104.888 444.867,103.489 156.904,151.073  "/>
<polygon fill="#d652fc" points="510.446,519.229 284.360,340.650 192.472,520.769  "/>
<polygon fill="#23f157" points="155.392,45.002 392.560,518.313 542.030,538.963  "/>
<polygon fill="#3e01bf" points="109.958,31.383 474.070,585.910 473.645,505.761  "/>
<polygon fill="#dfd717" points="51.020,74.619 146.750,565.382 156.639,178.467  "/>
<polygon fill="#446492" points="253.075,308.821 337.109,85.715 96.975,324.179  "/>
<polygon fill="#0022c3" points="106.802,504.142 43.934,341.955 524.719,91.403  "/>
<polygon fill="#665373" points="319.004,298.465 128.810,39.891 535.396,144.054  "/>
<polygon fill="#b81f00" points="432.083,61.783 560.831,68.644 343.731,295.892  "/>
<polygon fill="#2bd284" points="4.240,512.840 246.977,155.047 8.543,299.227  "/>
<polygon fill="#03daa3" points="324.850,39.521 249.822,139.083 125.427,514.052  "/>
<polygon fill="#6dbef4" points="184.226,368.304 543.940,575.981 146.956,172.985  "/>
<polygon fill="#24331b" points="462.917,512.489 278.498,459.097 536.082,117.798  "/>
<polygon fill="#d0de48" points="404.282,395.070 206.341,568.747 37.829,543.572  "/>
<polygon fill="#8d8ddb" points="189.258,368.643 209.966,328.380 73.398,363.466  "/>
<polygon fill="#57ac1f" points="584.411,494.875 441.928,324.837 463.274,277.402  "/>
<polygon fill="#c24ae3" points="481.291,452.078 394.782,118.121 259.791,32.645  "/>
<polygon fill="#8d78f8" points="594.901,223.467 165.059,193.016 130.287,20.597  "/>
<polygon fill="#2b2010" points="479.967,125.751 99.565,192.456 359.170,461.696  "/>
<polygon fill="#955e79" points="278.147,542.802 294.356,390.787 186.187,410.934  "/>
<polygon fill="#bc6e29" points="27.158,128.485 259.445,71.101 345.026,576.175  "/>
<polygon fill="#123c3a" points="30.426,133.738 320.499,550.021 232.448,53.570  "/>
<polygon fill="#a7131a" points="82.193,332.018 367.321,109.505 287.304,326.758  "/>
<polygon fill="#6df08f" points="43.013,580.225 79.734,96.821 295.076,538.381  "/>
<polygon fill="#dbfdd2" points="211.052,596.359 479.095,150.942 382.082,435.303  "/>
<polygon fill="#2e68a7" points="329.012,123.242 249.726,72.979 540.929,226.482  "/>
<polygon fill="#371994" points="405.312,239.179 20.184,48.893 498.031,583.507  "/>
<polygon fill="#d273aa" points="552.599,286.957 207.098,117.237 585.506,358.561  "/>
<polygon fill="#ba4dfb" points="235.026,397.753 575.304,337.483 163.715,120.756  "/>
<polygon fill="#68d1b1" points="420.795,310.855 60.604,87.041 134.908,329.588  "/>
<polygon fill="#15e730" points="354.802,336.171 241.130,263.840 390.287,538.979  "/>
<polygon fill="#a9fa6b" points="69.097,230.308 39.841,83.505 205.381,558.947  "/>
<polygon fill="#5f463b" points="487.126,463.628 475.099,173.338 497.545,544.813  "/>
<polygon fill="#1e7a27" points="296.571,399.674 372.084,545.318 282.301,399.878  "/>
<polygon fill="#8babde" points="244.508,593.454 141.188,472.906 502.231,359.816  "/>
<polygon fill="#5ab8ae" points="505.958,16.220 147.646,22.594 120.446,485.208  "/>
<polygon fill="#152e6f" points="100.348,257.703 42.272,469.856 482.395,177.923  "/>
<polygon fill="#f42924" points="297.832,343.887 393.908,120.443 269.844,105.603  "/>
<polygon fill="#2c9887" points="55.147,551.151 165.895,71.667 321.897,512.792  "/>
<polygon fill="#9b02b6" points="137.353,368.022 419.227,364.616 405.488,270.281  "/>
<polygon fill="#6df7bf" points="471.412,396.478 327.712,317.710 265.626,70.239  "/>
<polygon fill="#59b11a" points="577.358,266.239 145.693,544.000 29.381,334.134  "/>
<polygon fill="#aa231f" points="375.463,534.880 20.714,356.633 398.456,474.823  "/>
<polygon fill="#91d486" points="586.112,435.905 274.402,332.239 216.835,157.930  "/>
<polygon fill="#ade9c4" points="372.274,117.773 130.264,148.572 170.164,363.797  "/>
<polygon fill="#8e0ec3" points="157.284,542.484 300.108,275.041 164.031,432.224  "/>
<polygon fill="#b2132e" points="54.167,425.750 179.450,383.624 372.301,2.133  "/>
<polygon fill="#4061dd" points="105.249,254.016 564.898,34.745 492.993,408.905  "/>
<polygon fill="#370c60" points="380.307,106.479 331.468,413.151 367.089,364.552  "/>
<polygon fill="#207972" points="486.740,0.288 59.392,141.670 250.123,76.771  "/>
<polygon fill="#d7743b" points="519.671,579.299 270.853,267.211 256.160,157.617  "/>
<polygon fill="#ddf3c8" points="339.375,420.615 551.913,336.216 254.517,432.282  "/>
<polygon fill="#4236a0" points="456.421,334.754 482.614,99.611 65.836,439.448  "/>
<polygon fill="#95107a" points="286.997,62.398 386.205,346.316 77.705,309.636  "/>
<polygon fill="#685458" points="419.674,94.469 64.574,239.582 79.208,312.665  "/>
<polygon fill="#270a2a" points="370.138,261.482 487.758,122.969 349.788,535.193  "/>
</svg>