<?xml version="1.0" encoding="utf-8"?>
<!-- Generator: Python script. InTeResTinG -->
<!DOCTYPE svg PUBLIC "-//W3C//DTD SVG 1.1//EN" "http://www.w3.org/Graphics/SVG/1.1/DTD/svg11.dtd">
<svg version="1.1" id="Layer_1" xmlns="http://www.w3.org/2000/svg" xmlns:xlink="http://www.w3.org/1999/xlink" x="0px" y="0px" width="600.000px" height="600.000px" viewBox="0 0 600.000 600.000" enable-background="new 0 0 600.000 600.000" xml:space="preserve">
<polygon fill="#6f1e53" points="64.429,476.758 84.636,578.118 259.535,579.396  "/>
<polygon fill="#fcd146" points="465.061,363.952 144.580,598.203 146.471,352.326  "/>
<polygon fill="#1f63b2" points="21.522,37.332 349.466,426.432 338.553,444.149  "/>
<polygon fill="#661ed8" points="140.179,23.060 386.597,578.311 492.399,250.218  "/>
<polygon fill="#f5e3f6" points="218.725,72.553 290.115,153.990 166.321,503.624  "/>
<polygon fill="#fe110c" points="423.645,135.357 246.543,582.203 250.131,39.756  "/>
<polygon fill="#abe590" points="405.489,452.981 72.992,419.119 571.805,240.902  "/>
<polygon fill="#35435f" points="193.544,359.557 540.250,189.796 100.852,88.226  "/>
<polygon fill="#dd567e" points="179.952,231.616 474.757,500.747 223.950,565.702  "/>
<polygon fill="#ecda6e" points="340.391,410.290 520.955,12.548 485.045,131.321  "/>
<polygon fill="#86ebee" points="252.756,305.963 62.108,119.246 325.781,236.730  "/>
<polygon fill="#7809e4" points="16.291,474.113 122.302,210.754 517.029,82.729  "/>
<polygon fill="#7a39fc" points="510.696,426.267 260.260,383.973 294.700,220.209  "/>
<polygon fill="#9652b5" points="340.320,303.057 279.446,500.192 136.030,315.438  "/>
<polygon fill="#a8ed3b" points="31.758,510.003 280.898,24.070 63.322,297.021  "/>
<polygon fill="#2e156e" points="229.584,300.211 276.977,476.269 550.576,572.313  "/>
<polygon fill="#1e3154" points="447.725,382.111 6.792,162.671 539.481,424.782  "/>
<polygon fill="#c94fd1" points="355.923,188.405 65.392,9.925 122.525,597.619  "/>
<polygon fill="#e7c45a" points="312.246,224.871 477.270,347.854 195.507,44.817  "/>
<polygon fill="#75e95a" points="336.050,63.323 235.418,145.666 583.639,45.139  "/>
<polygon fill="#26395a" points="117.296,74.656 542.328,345.039 578.160,274.578  "/>
<polygon fill="#30b739" points="262.186,479.083 11.786,125.085 393.005,556.115  "/>
<polygon fill="#6742ff" points="388.023,453.319 227.714,138.466 120.182,585.566  "/>
<polygon fill="#62fa4c" points="449.145,82.351 384.071,529.133 244.859,385.494  "/>
<polygon fill="#0320fa" points="2.097,424.522 390.643,179.933 291.933,297.222  "/>
<polygon fill="#982eb4" points="325.241,319.806 138.930,508.900 170.811,321.421  "/>
<polygon fill="#00f3ef" points="158.939,502.252 295.688,344.093 541.483,267.403  "/>
<polygon fill="#6650b4" points="257.755,537.371 518.014,101.076 594.900,410.093  "/>
<polygon fill="#d50a16" points="477.803,515.875 553.795,376.052 495.163,577.236  "/>
<polygon fill="#991722" points="28.257,250.589 499.001,453.842 528.996,182.413  "/>
<polygon fill="#0795b7" points="472.580,45.623 324.460,110.144 179.390,246.139  "/>
<polygon fill="#8de4fc" points="88.002,137.287 576.356,192.626 226.762,432.490  "/>
<polygon fill="#d348a4" points="315.384,519.599 301.787,477.843 197.296,598.161  "/>
<polygon fill="#95d863" points="274.902,70.321 179.852,181.297 214.327,217.426  "/>
<polygon fill="#fec263" points="386.165,388.783 446.398,56.730 171.326,459.813  "/>
<polygon fill="#e7125a" points="173.049,23.837 390.687,202.098 559.924,148.120  "/>
<polygon fill="#279dd1" points="182.343,60.355 118.095,542.363 19.815,210.797  "/>
<polygon fill="#d5442b" points="28.173,136.687 91.047,437.098 597.848,571.169  "/>
<polygon fill="#368a1a" points="116.744,191.382 147.135,199.159 238.618,185.995  "/>
<polygon fill="#1d4e9d" points="199.835,193.445 291.241,62.819 546.877,207.551  "/>
<polygon fill="#49c89d" points="280.296,75.267 538.953,491.175 15.704,469.582  "/>
<polygon fill="#4676ad" points="593.017,133.800 96.884,296.421 546.497,508.369  "/>
<polygon fill="#ea4409" points="578.494,379.919 140.075,338.545 565.010,69.031  "/>
<polygon fill="#33d765" points="388.723,81.540 519.959,268.432 285.700,215.427  "/>
<polygon fill="#9a6261" points="508.918,406.943 70.539,210.443 97.240,422.945  "/>
<polygon fill="#cf44a3" points="286.681,224.442 238.191,186.357 77.924,364.230  "/>
<polygon fill="#ae5312" points="27.100,500.747 447.241,88.941 116.736,34.245  "/>
<polygon fill="#9f14b9" points="302.610,81.481 526.799,598.318 185.458,169.524  "/>
<polygon fill="#e585e3" points="284.594,233.841 329.866,497.279 454.245,181.837  "/>
<polygon fill="#f7db2a" points="188.633,338.236 99.352,367.263 507.679,479.908  "/>
<polygon fill="#741b49" points="129.684,18.854 126.227,316.900 106.231,114.270  "/>
<polygon fill="#1b0fa1" points="8.291,148.454 352.829,30.009 279.901,282.469  "/>
</svg>