<?xml version="1.0" encoding="utf-8"?>
<!-- Generator: Python script. InTeResTinG -->
<!DOCTYPE svg PUBLIC "-//W3C//DTD SVG 1.1//EN" "http://www.w3.org/Graphics/SVG/1.1/DTD/svg11.dtd">
<svg version="1.1" id="Layer_1" xmlns="http://www.w3.org/2000/svg" xmlns:xlink="http://www.w3.org/1999/xlink" x="0px" y="0px" width="600.000px" height="600.000px" viewBox="0 0 600.000 600.000" enable-background="new 0 0 600.000 600.000" xml:space="preserve">
<polygon fill="#12359c" points="538.431,499.895 359.767,363.373 28.979,176.706  "/>
<polygon fill="#0606db" points="413.179,413.725 392.647,363.493 176.880,470.172  "/>
<polygon fill="#191962" points="396.081,225.568 445.029,176.704 401.072,232.659  "/>
<polygon fill="#b1b6bc" points="414.937,590.181 6.733,263.110 297.114,492.502  "/>
<polygon fill="#dae4a2" points="446.771,238.234 413.250,291.178 267.242,301.641  "/>
<polygon fill="#811d52" points="332.891,486.003 77.679,126.120 442.447,351.014  "/>
<polygon fill="#679114" points="535.357,201.963 504.712,45.331 171.959,137.065  "/>
<polygon fill="#c356b4" points="129.123,326.573 287.067,98.943 34.028,149.225  "/>
<polygon fill="#e53eac" points="131.314,445.936 205.198,413.291 380.133,297.101  "/>
<polygon fill="#2b0694" points="404.331,192.219 291.975,415.464 465.302,433.141  "/>
<polygon fill="#08e7e1" points="450.943,70.931 486.950,326.922 75.348,312.971  "/>
<polygon fill="#12cf79" points="595.523,62.572 442.315,157.558 126.171,380.818  "/>
<polygon fill="#3a2968" points="538.506,55.355 10.759,568.588 89.555,518.646  "/>
<polygon fill="#221d6e" points="289.673,323.974 292.156,501.468 570.910,147.910  "/>
<polygon fill="#6e73df" points="230.660,420.972 98.327,1.785 406.122,364.851  "/>
<polygon fill="#d099a7" points="298.231,311.645 582.568,505.884 500.380,312.375  "/>
<polygon fill="#db49c9" points="32.713,494.605 380.813,380.536 322.003,449.403  "/>
<polygon fill="#803481" points="156.220,568.898 402.584,80.096 74.717,448.788  "/>
<polygon fill="#18c49c" points="372.498,593.401 403.586,165.937 134.783,278.640  "/>
<polygon fill="#ac3e38" points="17.245,486.544 227.741,284.113 86.984,108.159  "/>
<polygon fill="#0ed390" points="532.495,128.520 370.480,59.298 528.611,420.272  "/>
<polygon fill="#27e665" points="180.322,529.840 497.056,130.176 476.473,90.589  "/>
<polygon fill="#b9fc30" points="157.480,193.031 145.910,47.027 280.835,320.559  "/>
<polygon fill="#edfbfc" points="547.715,394.019 582.907,2.253 2.497,29.841  "/>
<polygon fill="#342213" points="85.592,388.016 109.831,575.937 238.719,370.997  "/>
<polygon fill="#0d8a33" points="357.287,19.783 398.319,284.236 376.973,441.711  "/>
<polygon fill="#42de8c" points="233.312,18.280 96.965,473.681 165.245,557.068  "/>
<polygon fill="#ac13b8" points="413.028,437.333 214.050,272.266 327.373,389.688  "/>
<polygon fill="#66cda4" points="36.439,479.296 83.749,258.387 394.379,67.627  "/>
<polygon fill="#3f12f0" points="558.962,310.817 547.914,527.471 3.606,287.661  "/>
<polygon fill="#57c3e9" points="202.270,305.882 216.856,109.065 424.283,64.687  "/>
<polygon fill="#b6a483" points="202.194,437.483 124.366,449.393 560.681,161.054  "/>
<polygon fill="#bb72d1" points="534.488,436.307 227.614,447.760 426.541,394.789  "/>
<polygon fill="#031e0e" points="483.188,329.277 18.468,274.642 356.348,106.851  "/>
<polygon fill="#c22a58" points="264.831,452.451 236.616,200.643 119.207,253.099  "/>
<polygon fill="#5b6fee" points="342.595,334.541 67.943,340.766 39.978,526.281  "/>
<polygon fill="#23ba97" points="505.825,80.397 545.919,112.057 572.324,265.923  "/>
<polygon fill="#b75b5d" points="223.376,305.401 592.212,414.143 84.399,102.846  "/>
<polygon fill="#a2a8f2" points="70.890,384.614 319.775,48.160 251.797,448.755  "/>
<polygon fill="#5913a2" points="356.802,531.450 77.451,582.486 38.109,520.057  "/>
<polygon fill="#e464dd" points="242.236,592.210 13.039,282.520 319.075,277.951  "/>
<polygon fill="#cf2907" points="450.670,585.410 63.430,388.808 395.600,537.671  "/>
<polygon fill="#d2f419" points="372.528,531.465 103.339,245.526 70.621,347.127  "/>
<polygon fill="#caad81" points="102.609,51.535 300.292,459.491 321.022,35.239  "/>
<polygon fill="#5d9a5e" points="183.264,463.374 468.880,223.156 241.965,140.167  "/>
<polygon fill="#049297" points="346.673,6.846 52.366,29.615 13.018,162.536  "/>
<polygon fill="#c6757c" points="121.143,528.644 436.973,187.935 159.913,380.077  "/>
<polygon fill="#d34266" points="392.777,69.438 183.989,422.040 526.029,428.506  "/>
<polygon fill="#42d0dc" points="401.108,408.164 390.569,27.197 380.689,459.194  "/>
<polygon fill="#4820df" points="189.758,482.546 411.226,595.581 467.158,90.713  "/>
<polygon fill="#15e6a4" points="509.541,8.764 25.708,472.126 459.544,49.364  "/>
<polygon fill="#72dc1d" points="158.041,399.370 557.526,161.249 44.056,187.835  "/>
<polygon fill="#3113e9" points="448.672,508.256 100.642,499.035 33.334,440.732  "/>
<polygon fill="#2f8724" points="267.794,204.352 511.670,94.971 348.733,149.275  "/>
</svg>