<?xml version="1.0" encoding="utf-8"?>
<!-- Generator: Python script. InTeResTinG -->
<!DOCTYPE svg PUBLIC "-//W3C//DTD SVG 1.1//EN" "http://www.w3.org/Graphics/SVG/1.1/DTD/svg11.dtd">
<svg version="1.1" id="Layer_1" xmlns="http://www.w3.org/2000/svg" xmlns:xlink="http://www.w3.org/1999/xlink" x="0px" y="0px" width="600.000px" height="600.000px" viewBox="0 0 600.000 600.000" enable-background="new 0 0 600.000 600.000" xml:space="preserve">
<polygon fill="#50b53e" points="329.079,416.881 583.867,275.335 385.402,206.333  "/>
<polygon fill="#165199" points="550.772,361.919 20.397,9.953 544.847,78.205  "/>
<polygon fill="#384bf1" points="584.032,458.863 570.568,65.361 345.397,557.436  "/>
<polygon fill="#d91c73" points="394.731,64.979 361.556,496.580 118.669,36.370  "/>
<polygon fill="#45331a" points="545.295,483.402 32.322,451.465 280.462,65.540  "/>
<polygon fill="#d1d6d2" points="419.177,214.713 547.249,7.677 426.945,264.945  "/>
<polygon fill="#636fc5" points="539.429,8.543 555.843,296.649 18.369,52.993  "/>
<polygon fill="#a819b1" points="314.942,71.301 272.715,281.205 244.064,496.518  "/>
<polygon fill="#f54f22" points="574.487,463.342 79.496,261.378 38.037,470.225  "/>
<polygon fill="#7b2e7d" points="205.806,123.269 476.080,196.129 160.212,183.259  "/>
<polygon fill="#b8ab69" points="230.757,129.936 384.168,489.860 412.289,104.329  "/>
<polygon fill="#d04db9" points="28.332,64.197 85.327,437.075 574.868,143.565  "/>
<polygon fill="#6a64d9" points="125.898,359.425 70.745,195.676 580.459,351.550  "/>
<polygon fill="#a8b3e9" points="90.754,32.438 342.341,13.740 91.074,253.755  "/>
<polygon fill="#942449" points="513.286,430.337 322.060,302.555 243.920,294.800  "/>
<polygon fill="#c53d6f" points="321.188,110.852 588.271,80.892 501.912,161.894  "/>
<polygon fill="#a9549f" points="538.146,375.106 302.889,51.066 226.690,195.582  "/>
<polygon fill="#091ecf" points="433.896,4.158 118.464,277.794 394.877,349.518  "/>
<polygon fill="#d0b668" points="393.385,123.785 251.485,419.030 167.872,358.516  "/>
<polygon fill="#de73a5" points="356.700,292.127 591.648,486.118 516.714,277.110  "/>
<polygon fill="#fb0e6e" points="353.741,164.849 279.798,358.060 228.794,330.290  "/>
<polygon fill="#a3de9f" points="44.808,31.360 254.701,73.934 242.636,387.962  "/>
<polygon fill="#2ed3d8" points="150.187,226.991 248.117,512.243 201.895,7.734  "/>
<polygon fill="#9cdc66" points="224.612,346.976 84.451,159.605 467.122,249.247  "/>
<polygon fill="#e44786" points="58.945,120.719 173.981,54.067 403.701,388.605  "/>
<polygon fill="#5e3d68" points="346.377,443.070 5.425,599.950 508.951,371.268  "/>
<polygon fill="#e2bbb9" points="351.188,146.438 498.031,356.382 51.492,354.656  "/>
<polygon fill="#e49f72" points="469.130,154.588 306.596,413.410 273.800,474.148  "/>
<polygon fill="#e138c6" points="236.775,174.467 215.220,244.827 363.303,393.625  "/>
<polygon fill="#be3503" points="262.258,531.322 507.449,301.527 484.055,195.700  "/>
<polygon fill="#611b7b" points="566.867,208.701 248.038,574.460 427.014,408.963  "/>
<polygon fill="#9ddf7e" points="199.183,134.447 434.033,207.042 57.157,345.120  "/>
<polygon fill="#c1d334" points="17.556,558.987 26.488,130.612 205.931,19.565  "/>
<polygon fill="#575368" points="422.998,130.339 227.317,173.655 466.061,568.988  "/>
<polygon fill="#af6120" points="584.385,56.559 172.088,179.759 586.554,76.438  "/>
<polygon fill="#982da1" points="55.724,339.978 174.327,117.455 208.412,339.222  "/>
<polygon fill="#f199c7" points="384.662,81.359 198.755,553.672 558.041,193.474  "/>
<polygon fill="#964bda" points="547.840,266.779 340.449,89.254 165.066,424.701  "/>
<polygon fill="#ee52cf" points="285.525,572.533 205.125,501.481 298.493,135.022  "/>
<polygon fill="#7224cb" points="3.164,173.726 39.202,312.796 353.927,26.891  "/>
<polygon fill="#254bc6" points="573.004,416.259 532.759,15.825 145.833,80.463  "/>
<polygon fill="#4ae831" points="257.373,433.130 454.988,7.739 387.421,55.817  "/>
<polygon fill="#7d9d8c" points="153.679,123.094 552.284,421.632 154.536,534.613  "/>
<polygon fill="#15b11c" points="494.472,319.566 53.700,68.751 394.414,133.363  "/>
<polygon fill="#63c8d6" points="314.600,70.006 27.812,325.014 444.809,184.631  "/>
<polygon fill="#565c3a" points="214.957,394.687 378.428,487.985 272.070,319.720  "/>
<polygon fill="#d1f432" points="416.334,527.267 333.748,124.202 504.572,401.611  "/>
<polygon fill="#410371" points="51.438,17.843 384.033,198.511 590.386,191.414  "/>
<polygon fill="#89695f" points="361.498,329.795 429.426,154.304 399.663,321.861  "/>
<polygon fill="#a2a502" points="380.932,127.862 94.990,219.328 268.691,266.004  "/>
<polygon fill="#1824cd" points="19.552,381.899 151.629,551.439 391.368,409.594  "/>
<polygon fill="#f35ca1" points="310.045,224.138 62.185,353.840 400.438,6.288  "/>
<polygon fill="#bb723f" points="558.126,582.330 69.898,333.692 343.262,261.751  "/>
<polygon fill="#f2e1cb" points="487.270,461.082 1.912,512.032 123.929,87.501  "/>
</svg>