<?xml version="1.0" encoding="utf-8"?>
<!-- Generator: Python script. InTeResTinG -->
<!DOCTYPE svg PUBLIC "-//W3C//DTD SVG 1.1//EN" "http://www.w3.org/Graphics/SVG/1.1/DTD/svg11.dtd">
<svg version="1.1" id="Layer_1" xmlns="http://www.w3.org/2000/svg" xmlns:xlink="http://www.w3.org/1999/xlink" x="0px" y="0px" width="600.000px" height="600.000px" viewBox="0 0 600.000 600.000" enable-background="new 0 0 600.000 600.000" xml:space="preserve">
<polygon fill="#74eff9" points="549.299,35.800 169.828,367.714 9.990,398.055  "/>
<polygon fill="#00b7df" points="260.269,275.666 523.188,112.317 171.009,63.608  "/>
<polygon fill="#ca2f4a" points="64.484,549.761 146.027,130.664 279.817,158.421  "/>
<polygon fill="#278db4" points="374.514,207.652 455.706,529.976 339.762,207.081  "/>
<polygon fill="#43e207" points="414.691,316.656 365.477,410.928 121.204,373.462  "/>
<polygon fill="#c796cb" points="125.565,404.651 372.203,476.571 230.955,491.529  "/>
<polygon fill="#5df9e5" points="552.711,230.811 432.394,491.424 251.964,413.668  "/>
<polygon fill="#80e670" points="395.230,389.333 588.379,288.976 146.325,525.762  "/>
<polygon fill="#c717cc" points="514.636,456.103 400.428,132.999 175.028,15.349  "/>
<polygon fill="#3f7d85" points="65.806,553.692 291.183,111.303 80.460,82.149  "/>
<polygon fill="#1ab24f" points="174.558,383.204 561.645,159.050 185.304,158.996  "/>
<polygon fill="#93d0bb" points="144.091,545.179 442.924,402.112 459.437,482.106  "/>
<polygon fill="#ba72b8" points="280.365,109.604 584.693,476.358 320.832,433.619  "/>
<polygon fill="#9f5d00" points="517.523,252.006 238.595,64.095 165.041,232.025  "/>
<polygon fill="#f43aab" points="299.347,374.629 531.411,405.044 213.269,356.479  "/>
<polygon fill="#b0bcd8" points="55.650,451.559 30.118,117.806 504.039,138.622  "/>
<polygon fill="#12cc25" points="406.072,218.967 29.476,216.919 246.807,433.575  "/>
<polygon fill="#918386" points="595.500,104.068 328.135,467.977 160.227,541.047  "/>
<polygon fill="#77372c" points="556.025,192.219 357.918,328.494 262.451,268.728  "/>
<polygon fill="#b8bbd1" points="590.145,482.053 159.718,365.598 264.341,240.850  "/>
<polygon fill="#1536c7" points="296.016,140.730 252.501,27.768 158.963,169.008  "/>
<polygon fill="#2052d0" points="419.810,463.402 217.736,101.145 156.428,481.846  "/>
<polygon fill="#4ee953" points="313.914,315.791 215.700,218.298 282.508,350.772  "/>
<polygon fill="#fc9e35" points="446.868,114.013 297.118,362.045 509.012,537.151  "/>
<polygon fill="#f8bd4d" points="31.972,277.497 410.882,148.018 118.400,521.345  "/>
<polygon fill="#95d21b" points="203.092,110.996 576.732,130.921 489.525,544.474  "/>
<polygon fill="#bbe73b" points="43.889,62.509 561.149,544.664 181.666,493.386  "/>
<polygon fill="#29e599" points="491.112,90.001 280.266,304.602 144.986,264.743  "/>
<polygon fill="#f38365" points="310.511,14.958 349.560,86.008 159.714,13.182  "/>
<polygon fill="#6ee3bb" points="281.083,430.205 543.374,247.649 19.716,117.049  "/>
<polygon fill="#70582f" points="551.367,548.793 57.631,598.351 543.134,352.404  "/>
<polygon fill="#743e0b" points="272.944,70.043 186.303,472.798 531.013,541.700  "/>
<polygon fill="#30c5e8" points="351.133,179.471 391.506,458.791 68.228,60.155  "/>
<polygon fill="#b867e3" points="110.162,541.553 299.164,375.421 157.697,50.736  "/>
<polygon fill="#592a57" points="260.935,168.960 105.808,550.117 315.738,283.531  "/>
<polygon fill="#ba02ab" points="570.764,253.348 562.325,238.184 362.995,186.320  "/>
<polygon fill="#44d955" points="124.578,81.503 186.718,297.276 593.609,295.702  "/>
<polygon fill="#69529c" points="464.663,320.706 566.513,431.930 124.001,186.164  "/>
<polygon fill="#ce469b" points="180.717,199.855 362.328,285.866 323.025,212.806  "/>
<polygon fill="#3ba1fb" points="165.355,497.661 396.865,520.090 265.880,466.754  "/>
<polygon fill="#7abb63" points="577.196,582.061 519.216,329.862 98.214,146.101  "/>
<polygon fill="#68469d" points="388.458,216.121 153.420,240.681 518.527,218.922  "/>
<polygon fill="#97b229" points="246.365,473.693 22.727,84.709 503.771,401.576  "/>
<polygon fill="#558ce6" points="66.333,280.787 510.318,104.088 413.832,558.129  "/>
<polygon fill="#d4ef16" points="162.683,360.927 230.923,245.836 496.530,44.104  "/>
<polygon fill="#01ae04" points="324.718,563.723 72.651,310.282 212.963,555.696  "/>
<polygon fill="#d4cba2" points="32.473,258.637 330.706,463.505 40.253,106.641  "/>
<polygon fill="#a932fc" points="153.303,4.932 280.340,220.573 73.003,278.578  "/>
<polygon fill="#21c58d" points="64.637,583.519 307.577,544.645 232.988,203.630  "/>
<polygon fill="#49dfe9" points="70.490,471.736 151.820,324.935 282.572,4.603  "/>
<polygon fill="#7fe516" points="302.701,176.025 377.336,254.426 370.923,469.144  "/>
<polygon fill="#17f07c" points="493.330,330.022 318.136,444.790 382.042,440.346  "/>
<polygon fill="#fcdabc" points="267.165,172.155 4.135,407.211 103.938,109.558  "/>
<polygon fill="#3f9c66" points="279.357,111.870 358.051,132.839 3.880,181.891  "/>
<polygon fill="#1319eb" points="566.675,535.092 598.917,414.303 279.022,565.061  "/>
</svg>