<?xml version="1.0" encoding="utf-8"?>
<!-- Generator: Python script. InTeResTinG -->
<!DOCTYPE svg PUBLIC "-//W3C//DTD SVG 1.1//EN" "http://www.w3.org/Graphics/SVG/1.1/DTD/svg11.dtd">
<svg version="1.1" id="Layer_1" xmlns="http://www.w3.org/2000/svg" xmlns:xlink="http://www.w3.org/1999/xlink" x="0px" y="0px" width="600.000px" height="600.000px" viewBox="0 0 600.000 600.000" enable-background="new 0 0 600.000 600.000" xml:space="preserve">
<polygon fill="#0cf196" points="324.096,31.337 531.481,162.237 279.849,96.442  "/>
<polygon fill="#a5e11e" points="5.239,466.004 338.678,412.117 287.294,133.542  "/>
<polygon fill="#b64dcc" points="358.689,228.627 411.248,327.774 61.324,518.632  "/>
<polygon fill="#76e255" points="158.129,313.309 543.001,27.616 294.608,6.351  "/>
<polygon fill="#fe799d" points="11.776,529.143 200.919,420.587 290.598,194.251  "/>
<polygon fill="#0e5f1a" points="517.329,214.950 372.811,599.710 121.197,511.144  "/>
<polygon fill="#55d3cf" points="563.690,384.021 398.170,513.893 307.237,43.693  "/>
<polygon fill="#4a3f99" points="250.800,361.466 494.875,460.493 343.666,155.186  "/>
<polygon fill="#a0e7ab" points="480.579,159.835 199.404,288.128 392.938,466.691  "/>
<polygon fill="#b17cbd" points="316.153,149.550 231.496,486.636 172.855,138.863  "/>
<polygon fill="#cfa1ae" points="411.482,6.883 493.075,349.809 252.347,352.632  "/>
<polygon fill="#b5ae94" points="352.843,310.759 237.752,148.901 103.395,20.687  "/>
<polygon fill="#478999" points="569.550,33.369 470.721,285.410 369.358,588.505  "/>
<polygon fill="#330841" points="182.171,271.758 409.651,598.689 486.273,295.695  "/>
<polygon fill="#776e2c" points="576.759,220.966 583.619,527.157 420.293,53.992  "/>
<polygon fill="#a1c1f3" points="447.776,203.448 167.454,112.075 16.148,190.570  "/>
<polygon fill="#f3cbc3" points="569.199,424.699 443.176,81.678 245.115,498.039  "/>
<polygon fill="#f150dc" points="256.591,195.582 178.979,96.976 122.503,270.779  "/>
<polygon fill="#09d496" points="188.000,289.434 475.422,156.759 47.635,405.093  "/>
<polygon fill="#8bc15d" points="194.576,61.977 73.188,392.638 344.377,387.164  "/>
<polygon fill="#efd113" points="246.719,522.911 280.497,126.557 189.682,272.883  "/>
<polygon fill="#8ff661" points="390.314,489.874 541.073,370.578 269.344,481.828  "/>
<polygon fill="#3a7db2" points="168.409,399.521 337.615,449.249 452.808,587.084  "/>
<polygon fill="#c7dd8d" points="515.668,406.143 484.818,140.261 255.992,15.976  "/>
<polygon fill="#d32b84" points="482.774,162.880 341.289,205.361 401.739,142.858  "/>
<polygon fill="#02c0fd" points="388.980,461.146 532.028,379.412 38.010,398.451  "/>
<polygon fill="#58e559" points="399.958,201.075 275.580,391.593 270.648,384.174  "/>
<polygon fill="#c31bec" points="561.945,76.992 460.750,362.698 83.331,329.339  "/>
<polygon fill="#1c133d" points="313.725,266.262 209.178,261.597 216.334,214.208  "/>
<polygon fill="#68af40" points="298.722,494.959 44.420,272.598 137.909,210.818  "/>
<polygon fill="#c0ad37" points="55.689,514.358 31.251,5.941 228.245,291.647  "/>
<polygon fill="#018558" points="240.118,500.119 141.408,480.435 292.686,498.800  "/>
<polygon fill="#eda722" points="371.806,111.292 184.837,491.549 367.246,453.102  "/>
<polygon fill="#b2bdac" points="151.932,417.677 75.000,408.718 356.737,559.834  "/>
<polygon fill="#84055f" points="266.902,235.049 281.759,243.989 229.069,82.783  "/>
<polygon fill="#7a6af1" points="293.657,338.144 210.756,322.252 11.656,450.205  "/>
<polygon fill="#31eadf" points="497.571,44.596 112.625,373.141 197.732,337.695  "/>
<polygon fill="#c5a7bb" points="363.286,309.416 215.451,523.568 205.657,341.339  "/>
<polygon fill="#35ed09" points="586.870,516.354 527.879,14.662 589.083,98.854  "/>
<polygon fill="#5e7ec2" points="465.803,207.206 292.466,596.419 130.783,295.137  "/>
<polygon fill="#82768f" points="266.575,289.318 156.838,214.027 455.994,314.981  "/>
<polygon fill="#d9965e" points="187.458,530.442 63.032,145.944 151.818,498.476  "/>
<polygon fill="#3a0996" points="425.196,211.660 152.765,65.821 421.165,441.064  "/>
<polygon fill="#d4abca" points="51.340,280.582 211.030,261.757 436.980,341.851  "/>
<polygon fill="#98dac2" points="63.470,118.718 194.836,194.114 478.107,400.891  "/>
<polygon fill="#9f1272" points="262.934,149.605 358.674,212.434 394.742,122.769  "/>
<polygon fill="#da30ac" points="26.796,367.397 526.497,444.326 328.418,541.709  "/>
<polygon fill="#7a62c0" points="353.696,164.206 447.208,384.056 436.103,51.814  "/>
<polygon fill="#8c31a1" points="67.137,77.230 566.580,253.543 549.965,358.385  "/>
<polygon fill="#1482f5" points="277.813,424.041 524.476,112.649 563.613,8.176  "/>
<polygon fill="#5eac8a" points="544.471,388.262 505.985,477.863 125.840,526.075  "/>
<polygon fill="#b818c7" points="168.557,375.978 276.704,424.271 45.520,409.144  "/>
<polygon fill="#929db3" points="179.873,477.661 331.622,98.478 406.413,49.008  "/>
<polygon fill="#d14625" points="560.737,9.478 311.345,202.946 118.424,451.897  "/>
<polygon fill="#93d923" points="362.282,308.127 392.330,17.558 100.557,509.902  "/>
<polygon fill="#0ef41f" points="210.311,439.011 308.803,385.705 344.855,325.854  "/>
<polygon fill="#7dacd3" points="533.350,172.963 435.035,329.550 426.952,31.037  "/>
<polygon fill="#e58ab0" points="35.798,150.020 540.686,378.773 73.399,410.597  "/>
<polygon fill="#dbe75d" points="404.046,267.569 52.759,355.705 490.045,187.115  "/>
<polygon fill="#a7763b" points="430.108,518.298 243.597,92.827 577.704,185.023  "/>
<polygon fill="#4b03c1" points="34.664,509.452 249.107,496.563 533.415,101.606  "/>
<polygon fill="#955899" points="280.004,91.366 155.744,570.747 333.708,100.904  "/>
<polygon fill="#fda1e3" points="442.563,349.517 173.778,584.584 229.046,52.475  "/>
<polygon fill="#f450cc" points="162.456,528.747 444.744,525.740 60.009,34.333  "/>
</svg>