<?xml version="1.0" encoding="utf-8"?>
<!-- Generator: Python script. InTeResTinG -->
<!DOCTYPE svg PUBLIC "-//W3C//DTD SVG 1.1//EN" "http://www.w3.org/Graphics/SVG/1.1/DTD/svg11.dtd">
<svg version="1.1" id="Layer_1" xmlns="http://www.w3.org/2000/svg" xmlns:xlink="http://www.w3.org/1999/xlink" x="0px" y="0px" width="600.000px" height="600.000px" viewBox="0 0 600.000 600.000" enable-background="new 0 0 600.000 600.000" xml:space="preserve">
<polygon fill="#146a96" points="42.520,302.024 545.976,280.135 550.177,50.187  "/>
<polygon fill="#b0f420" points="82.986,184.695 487.124,563.345 507.417,160.680  "/>
<polygon fill="#0761c7" points="49.805,224.170 484.154,48.872 397.054,305.602  "/>
<polygon fill="#e9731b" points="48.073,278.779 255.866,23.636 159.318,454.199  "/>
<polygon fill="#0bf434" points="281.001,29.321 221.620,67.450 214.793,274.919  "/>
<polygon fill="#735f6b" points="408.056,314.949 533.714,238.844 443.056,564.775  "/>
<polygon fill="#329f23" points="76.754,26.572 572.513,90.967 486.463,436.499  "/>
<polygon fill="#a7b49c" points="302.271,409.822 498.426,148.771 225.071,581.707  "/>
<polygon fill="#555aab" points="420.269,215.663 43.099,295.309 380.771,375.080  "/>
<polygon fill="#62c215" points="453.851,491.374 30.549,597.133 440.204,220.423  "/>
<polygon fill="#882353" points="147.441,264.139 269.724,223.015 98.812,289.037  "/>
<polygon fill="#dd7e08" points="571.885,590.373 536.779,11.988 466.458,171.441  "/>
<polygon fill="#787d9c" points="538.717,584.684 330.867,136.585 363.500,208.622  "/>
<polygon fill="#3b47a5" points="531.920,467.251 119.213,593.526 211.856,7.495  "/>
<polygon fill="#ac22a2" points="223.067,62.943 246.573,4.245 578.694,83.858  "/>
<polygon fill="#fcffe5" points="66.226,354.183 43.629,404.021 83.123,112.677  "/>
<polygon fill="#19c8bc" points="159.499,425.951 356.775,459.786 563.491,32.269  "/>
<polygon fill="#ebf703" points="265.638,23.615 130.274,533.355 25.714,597.267  "/>
<polygon fill="#0f061b" points="276.578,466.524 227.556,483.634 15.446,595.182  "/>
<polygon fill="#767ee5" points="223.383,458.322 50.757,458.172 45.104,594.633  "/>
<polygon fill="#bcfdc5" points="593.761,398.499 429.689,44.809 432.615,336.082  "/>
<polygon fill="#efc686" points="82.756,460.463 448.392,22.122 585.964,412.313  "/>
<polygon fill="#c2288a" points="357.223,219.856 405.936,550.652 228.357,217.044  "/>
<polygon fill="#626d25" points="274.232,449.141 261.024,139.367 443.451,73.766  "/>
<polygon fill="#f22159" points="265.609,60.416 0.451,23.413 522.174,20.769  "/>
<polygon fill="#b6d8d1" points="5.822,599.612 90.911,157.297 511.711,142.867  "/>
<polygon fill="#4af036" points="229.176,582.654 430.289,121.350 41.785,128.079  "/>
<polygon fill="#f4d9c0" points="51.663,254.347 474.902,568.324 526.594,569.556  "/>
<polygon fill="#e3527b" points="261.269,128.534 134.268,217.770 374.459,79.423  "/>
<polygon fill="#c8e299" points="322.538,568.051 534.118,540.487 97.798,427.162  "/>
<polygon fill="#b94cb7" points="271.487,489.435 592.151,334.576 176.071,105.849  "/>
<polygon fill="#104372" points="146.973,100.944 432.273,56.752 588.236,139.907  "/>
<polygon fill="#45279d" points="374.795,492.978 101.461,430.066 216.285,483.902  "/>
<polygon fill="#28e331" points="560.730,540.133 542.229,553.201 189.956,384.949  "/>
<polygon fill="#694d82" points="576.513,114.183 484.543,57.114 479.194,181.602  "/>
<polygon fill="#432b49" points="336.244,359.872 338.643,211.121 325.968,93.219  "/>
<polygon fill="#cf15fc" points="547.262,123.714 242.982,513.266 148.505,445.450  "/>
<polygon fill="#4eb498" points="399.098,443.079 351.042,293.794 336.195,168.470  "/>
<polygon fill="#01f0a7" points="155.967,164.939 73.883,143.446 84.015,83.625  "/>
<polygon fill="#d7cca3" points="493.642,483.411 514.356,57.306 522.333,19.568  "/>
<polygon fill="#29bb24" points="241.360,7.631 580.924,509.206 492.415,180.457  "/>
<polygon fill="#149f66" points="148.542,524.132 68.930,591.956 266.913,317.330  "/>
<polygon fill="#9153f8" points="214.957,547.206 201.242,150.441 437.028,480.266  "/>
<polygon fill="#66219e" points="299.367,517.509 123.527,154.030 538.821,527.929  "/>
<polygon fill="#211662" points="408.945,35.340 598.520,501.648 423.531,262.186  "/>
<polygon fill="#a11b52" points="124.182,446.453 481.969,43.368 355.937,287.096  "/>
<polygon fill="#5fab88" points="534.453,273.116 423.334,122.212 165.416,598.767  "/>
<polygon fill="#aea90c" points="402.961,48.406 378.702,422.268 62.313,514.887  "/>
<polygon fill="#ecff1a" points="170.423,413.675 199.715,26.060 450.334,393.149  "/>
<polygon fill="#d53939" points="245.612,370.923 362.134,294.561 241.900,441.638  "/>
<polygon fill="#753d7f" points="429.986,580.136 592.886,327.773 448.856,472.737  "/>
<polygon fill="#9189fc" points="103.152,289.334 585.319,486.806 252.299,389.427  "/>
<polygon fill="#368671" points="119.996,477.620 177.185,285.534 335.407,3.218  "/>
<polygon fill="#4b94e9" points="230.768,244.519 506.722,100.613 124.517,116.915  "/>
<polygon fill="#c8994a" points="55.058,545.093 476.139,269.977 58.703,559.994  "/>
<polygon fill="#6485ea" points="107.557,432.768 245.633,102.782 204.289,440.685  "/>
<polygon fill="#717fe6" points="449.098,428.475 130.067,265.388 572.308,177.664  "/>
<polygon fill="#4d239c" points="494.053,549.224 95.052,209.216 578.366,587.139  "/>
</svg>