<?xml version="1.0" encoding="utf-8"?>
<!-- Generator: Python script. InTeResTinG -->
<!DOCTYPE svg PUBLIC "-//W3C//DTD SVG 1.1//EN" "http://www.w3.org/Graphics/SVG/1.1/DTD/svg11.dtd">
<svg version="1.1" id="Layer_1" xmlns="http://www.w3.org/2000/svg" xmlns:xlink="http://www.w3.org/1999/xlink" x="0px" y="0px" width="600.000px" height="600.000px" viewBox="0 0 600.000 600.000" enable-background="new 0 0 600.000 600.000" xml:space="preserve">
<polygon fill="#ad6e82" points="463.038,466.550 3.981,115.318 66.790,42.026  "/>
<polygon fill="#130157" points="282.412,599.580 304.169,319.047 421.448,509.105  "/>
<polygon fill="#3f254b" points="366.156,349.436 594.415,294.473 37.103,129.567  "/>
<polygon fill="#46dc98" points="524.482,491.615 240.625,492.921 540.238,81.477  "/>
<polygon fill="#44625c" points="157.834,45.208 288.339,561.847 53.809,104.634  "/>
<polygon fill="#35424b" points="280.461,361.695 315.564,4.822 402.703,186.419  "/>
<polygon fill="#d0ffb3" points="391.643,568.745 472.132,44.031 22.418,504.418  "/>
<polygon fill="#bb4ea6" points="62.086,396.321 497.786,532.128 118.963,500.264  "/>
<polygon fill="#f43bbc" points="375.711,213.207 201.917,47.239 102.832,265.813  "/>
<polygon fill="#37bd61" points="199.916,185.197 125.049,65.953 427.509,287.366  "/>
<polygon fill="#4d6034" points="151.541,192.086 308.531,355.189 593.207,519.435  "/>
<polygon fill="#0779ed" points="263.461,304.830 167.379,245.835 327.589,526.096  "/>
<polygon fill="#e85bd1" points="91.382,66.204 370.473,547.894 432.774,84.312  "/>
<polygon fill="#1a4e0d" points="458.485,237.990 462.118,404.661 281.319,391.067  "/>
<polygon fill="#766b9a" points="25.659,60.745 208.174,139.993 271.945,437.263  "/>
<polygon fill="#56b9c8" points="77.821,122.470 31.814,522.789 269.480,331.266  "/>
<polygon fill="#1246e2" points="252.613,580.013 342.604,426.887 43.269,299.949  "/>
<polygon fill="#0d69d8" points="135.301,465.781 402.203,70.613 112.852,7.041  "/>
<polygon fill="#9716e3" points="323.759,323.935 585.006,453.172 289.827,256.763  "/>
<polygon fill="#abc6fa" points="227.074,282.124 289.482,326.337 561.461,284.825  "/>
<polygon fill="#b4ce8e" points="178.721,421.324 232.123,422.688 276.532,326.080  "/>
<polygon fill="#2581ca" points="488.893,454.339 60.927,574.033 4.796,532.772  "/>
<polygon fill="#13818a" points="537.138,322.026 251.655,0.761 329.285,578.221  "/>
<polygon fill="#90198d" points="219.445,64.148 485.643,136.751 302.508,244.773  "/>
<polygon fill="#f16af0" points="33.285,314.616 262.449,217.613 102.267,12.836  "/>
<polygon fill="#c90e23" points="201.161,321.504 225.591,270.855 584.499,16.866  "/>
<polygon fill="#607961" points="563.125,148.936 597.229,405.162 114.440,451.378  "/>
<polygon fill="#28d3e5" points="297.220,18.344 121.301,124.353 597.548,306.601  "/>
<polygon fill="#52f0e5" points="345.588,43.430 193.034,369.489 526.836,50.146  "/>
<polygon fill="#9cb855" points="329.791,44.165 47.381,211.430 221.598,87.383  "/>
<polygon fill="#429199" points="442.249,249.302 228.641,171.614 334.294,265.689  "/>
<polygon fill="#ef6bc7" points="482.557,11.321 115.410,167.223 504.177,262.639  "/>
<polygon fill="#70ce0b" points="23.833,445.743 89.516,260.772 222.999,572.703  "/>
<polygon fill="#c45ab2" points="502.412,523.797 14.604,27.547 319.186,355.413  "/>
<polygon fill="#56f7ac" points="273.870,100.797 26.604,201.265 343.458,485.368  "/>
<polygon fill="#ac1584" points="581.645,334.603 311.025,516.079 182.571,155.625  "/>
<polygon fill="#3e640e" points="588.798,380.639 28.268,549.308 190.926,286.075  "/>
<polygon fill="#ea877a" points="475.053,18.248 501.460,225.875 104.875,386.333  "/>
<polygon fill="#35c2da" points="362.516,86.573 38.576,272.290 431.848,85.731  "/>
<polygon fill="#6ca75c" points="496.852,545.568 427.929,220.314 476.823,161.444  "/>
<polygon fill="#60aa96" points="322.694,427.323 510.081,486.651 342.616,171.869  "/>
<polygon fill="#2409e7" points="298.546,166.350 227.756,371.349 208.617,205.156  "/>
<polygon fill="#7ad904" points="93.947,255.006 446.265,350.219 176.767,287.196  "/>
<polygon fill="#cb11a5" points="38.444,264.682 328.899,325.168 85.726,309.195  "/>
<polygon fill="#e9b2ba" points="542.730,474.400 69.313,18.493 62.887,454.507  "/>
<polygon fill="#0f34b8" points="440.780,254.437 462.935,38.907 446.137,407.014  "/>
<polygon fill="#e58fbb" points="353.270,61.710 591.737,406.341 208.041,383.546  "/>
<polygon fill="#4df2d9" points="8.235,52.465 499.248,490.496 386.908,172.450  "/>
<polygon fill="#f94779" points="580.032,158.237 515.636,313.936 216.334,194.698  "/>
<polygon fill="#49c3d0" points="450.279,584.355 457.872,142.156 66.215,320.921  "/>
<polygon fill="#5ad5e4" points="555.222,194.964 290.266,179.160 230.177,504.036  "/>
<polygon fill="#001fc6" points="6.814,231.427 255.701,29.229 271.788,560.603  "/>
<polygon fill="#4c2f1d" points="56.341,170.890 114.424,454.913 518.874,132.587  "/>
<polygon fill="#cd7a59" points="386.916,362.994 514.657,355.525 123.154,16.333  "/>
<polygon fill="#e1a0ab" points="117.515,96.366 48.277,157.437 544.726,238.419  "/>
<polygon fill="#d01552" points="436.432,35.511 349.210,471.891 188.140,125.466  "/>
<polygon fill="#66091e" points="256.749,507.319 289.135,219.023 458.543,60.811  "/>
<polygon fill="#ffe05b" points="503.549,594.710 306.070,92.851 332.714,411.825  "/>
<polygon fill="#290960" points="505.574,294.542 11.113,57.037 478.005,182.671  "/>
</svg>