<?xml version="1.0" encoding="utf-8"?>
<!-- Generator: Python script. InTeResTinG -->
<!DOCTYPE svg PUBLIC "-//W3C//DTD SVG 1.1//EN" "http://www.w3.org/Graphics/SVG/1.1/DTD/svg11.dtd">
<svg version="1.1" id="Layer_1" xmlns="http://www.w3.org/2000/svg" xmlns:xlink="http://www.w3.org/1999/xlink" x="0px" y="0px" width="600.000px" height="600.000px" viewBox="0 0 600.000 600.000" enable-background="new 0 0 600.000 600.000" xml:space="preserve">
<polygon fill="#447115" points="188.429,169.348 297.597,284.278 276.172,492.687  "/>
<polygon fill="#fcf1f3" points="72.451,342.016 108.394,151.748 183.391,399.547  "/>
<polygon fill="#c8fe36" points="191.502,544.545 230.689,496.675 222.923,287.818  "/>
<polygon fill="#85ff4d" points="189.335,12.720 51.971,448.536 470.180,10.360  "/>
<polygon fill="#d2a379" points="182.334,475.592 149.062,482.542 433.224,171.000  "/>
<polygon fill="#918a43" points="78.758,574.764 182.165,160.909 20.376,581.688  "/>
<polygon fill="#ea1ee6" points="249.055,85.205 559.436,112.356 39.173,517.454  "/>
<polygon fill="#c78346" points="237.875,21.716 251.861,246.201 156.286,417.642  "/>
<polygon fill="#4a8424" points="318.935,496.276 587.271,295.677 450.429,242.993  "/>
<polygon fill="#bfdf55" points="593.309,417.266 576.952,159.616 440.773,524.633  "/>
<polygon fill="#ea5188" points="209.340,248.460 106.391,598.521 132.085,199.827  "/>
<polygon fill="#e39af4" points="114.124,411.079 176.959,237.917 129.670,403.052  "/>
<polygon fill="#5761b6" points="161.387,54.637 566.854,107.841 521.492,103.000  "/>
<polygon fill="#a333ef" points="378.457,516.048 219.179,244.454 42.189,294.583  "/>
<polygon fill="#9e8efe" points="471.598,224.577 110.114,85.337 38.542,502.340  "/>
<polygon fill="#a350b3" points="542.738,435.299 371.140,303.217 24.905,495.068  "/>
<polygon fill="#9a41cf" points="231.009,187.583 531.374,475.032 182.424,478.511  "/>
<polygon fill="#fe5981" points="16.932,269.209 175.527,593.726 599.473,374.874  "/>
<polygon fill="#fd2570" points="198.145,230.062 553.777,477.285 292.949,374.792  "/>
<polygon fill="#cd735d" points="428.807,471.527 185.457,181.619 113.973,13.446  "/>
<polygon fill="#fe764a" points="379.230,423.152 29.396,194.074 296.935,474.906  "/>
<polygon fill="#6a240c" points="515.763,171.126 583.714,240.333 92.615,426.406  "/>
<polygon fill="#853cbc" points="3.613,323.109 264.933,70.313 416.956,367.219  "/>
<polygon fill="#ed8e89" points="55.302,209.218 486.016,269.906 193.471,568.329  "/>
<polygon fill="#98d97c" points="461.333,580.200 321.728,356.111 272.591,229.263  "/>
<polygon fill="#01324d" points="477.166,479.243 75.214,270.597 207.851,548.006  "/>
<polygon fill="#46e14b" points="341.552,585.637 83.781,229.544 466.884,185.998  "/>
<polygon fill="#769fc4" points="333.265,592.150 483.563,155.572 249.865,185.248  "/>
<polygon fill="#9124f8" points="229.315,401.720 221.362,34.815 366.440,382.569  "/>
<polygon fill="#80f7b8" points="214.857,468.450 543.356,113.154 62.637,51.221  "/>
<polygon fill="#4a2129" points="483.540,321.210 169.053,589.550 363.813,346.473  "/>
<polygon fill="#ddb97f" points="545.221,413.375 28.074,239.326 14.076,459.018  "/>
<polygon fill="#445bbf" points="86.751,465.182 422.725,400.108 466.473,401.508  "/>
<polygon fill="#58b4cc" points="350.220,126.969 29.058,231.941 369.106,300.495  "/>
<polygon fill="#08bcf5" points="470.977,528.814 550.054,145.617 215.911,257.917  "/>
<polygon fill="#94a602" points="166.276,312.221 174.462,338.272 216.508,467.875  "/>
<polygon fill="#a36486" points="18.468,452.832 581.122,435.246 464.017,130.580  "/>
<polygon fill="#d16b88" points="107.198,473.083 577.718,549.792 325.977,148.142  "/>
<polygon fill="#ea13c6" points="44.951,81.982 599.359,300.324 396.320,396.510  "/>
<polygon fill="#65029c" points="424.661,253.559 549.210,31.519 32.697,179.581  "/>
<polygon fill="#26a11a" points="22.065,459.160 376.347,346.171 314.635,218.462  "/>
<polygon fill="#93eead" points="348.627,123.655 92.952,353.062 461.628,163.133  "/>
<polygon fill="#fc4b94" points="24.788,533.806 478.229,245.234 221.984,464.264  "/>
<polygon fill="#7b6cf9" points="599.369,191.014 582.168,502.064 138.656,245.595  "/>
<polygon fill="#d1227a" points="152.310,230.110 424.506,352.963 166.019,493.657  "/>
<polygon fill="#d68f80" points="531.293,569.939 129.460,202.812 256.595,257.394  "/>
<polygon fill="#6fd24d" points="166.283,405.341 118.350,302.016 360.097,38.271  "/>
<polygon fill="#bffe3e" points="405.897,119.075 213.917,283.053 496.997,281.555  "/>
<polygon fill="#9b9b70" points="198.526,483.825 37.894,528.018 280.146,163.175  "/>
<polygon fill="#4d7b50" points="185.753,258.594 180.689,494.434 200.289,310.147  "/>
<polygon fill="#06eac8" points="466.376,2.184 562.961,564.929 102.508,187.642  "/>
<polygon fill="#358c84" points="339.705,554.208 172.510,570.172 588.379,101.018  "/>
<polygon fill="#4205a3" points="208.267,598.211 350.840,96.444 436.044,378.879  "/>
<polygon fill="#cd66ac" points="568.592,322.630 315.052,565.345 442.276,526.386  "/>
<polygon fill="#373d2d" points="588.370,491.178 388.579,458.565 464.154,137.811  "/>
<polygon fill="#49135c" points="189.901,64.307 479.044,312.401 570.463,380.946  "/>
</svg>