<?xml version="1.0" encoding="utf-8"?>
<!-- Generator: Python script. InTeResTinG -->
<!DOCTYPE svg PUBLIC "-//W3C//DTD SVG 1.1//EN" "http://www.w3.org/Graphics/SVG/1.1/DTD/svg11.dtd">
<svg version="1.1" id="Layer_1" xmlns="http://www.w3.org/2000/svg" xmlns:xlink="http://www.w3.org/1999/xlink" x="0px" y="0px" width="600.000px" height="600.000px" viewBox="0 0 600.000 600.000" enable-background="new 0 0 600.000 600.000" xml:space="preserve">
<polygon fill="#7bcf98" points="315.550,185.221 506.714,357.766 113.925,186.458  "/>
<polygon fill="#a70619" points="10.884,86.433 395.118,184.641 533.368,348.429  "/>
<polygon fill="#4d2af5" points="237.205,501.365 345.330,276.936 351.329,277.772  "/>
<polygon fill="#7bcb27" points="127.094,284.486 137.419,87.713 234.863,228.997  "/>
<polygon fill="#cc697d" points="213.500,595.773 220.799,350.594 491.375,23.838  "/>
<polygon fill="#cdcc2a" points="67.531,535.663 82.305,207.943 581.482,583.565  "/>
<polygon fill="#443d73" points="151.627,262.383 129.229,506.320 413.135,460.711  "/>
<polygon fill="#aac676" points="498.528,368.495 424.298,489.382 373.242,313.173  "/>
<polygon fill="#da227f" points="437.145,80.897 80.146,593.623 115.976,237.681  "/>
<polygon fill="#958d99" points="76.921,214.327 147.338,259.567 574.702,211.171  "/>
<polygon fill="#913195" points="137.155,132.450 452.682,478.173 246.850,570.666  "/>
<polygon fill="#b3e727" points="131.202,513.137 64.827,110.321 349.560,325.070  "/>
<polygon fill="#a85f14" points="431.536,67.371 358.708,523.771 388.815,562.356  "/>
<polygon fill="#c38e87" points="241.071,561.335 165.522,354.161 485.626,526.782  "/>
<polygon fill="#749e06" points="390.249,521.050 185.224,572.867 248.008,445.585  "/>
<polygon fill="#d8eaeb" points="74.580,372.522 161.981,68.374 81.199,288.397  "/>
<polygon fill="#fcbb8c" points="204.279,391.194 396.543,522.872 130.060,72.594  "/>
<polygon fill="#1aea6c" points="129.849,570.704 302.761,516.647 324.076,305.694  "/>
<polygon fill="#c7c283" points="412.865,502.925 71.824,169.533 91.204,6.465  "/>
<polygon fill="#a7794f" points="564.728,533.159 596.111,297.839 435.189,440.717  "/>
<polygon fill="#78faf9" points="455.057,41.859 428.878,598.984 480.723,246.946  "/>
<polygon fill="#7e691a" points="105.534,568.061 234.508,29.275 405.102,545.863  "/>
<polygon fill="#b7212f" points="173.495,366.866 328.506,545.364 495.897,517.916  "/>
<polygon fill="#4e0201" points="492.355,20.502 142.227,388.862 493.701,168.536  "/>
<polygon fill="#e3fbf9" points="229.410,48.946 16.497,401.302 321.518,388.928  "/>
<polygon fill="#8625ef" points="243.011,505.769 285.965,209.847 34.754,88.298  "/>
<polygon fill="#87d85a" points="308.349,389.313 261.993,469.447 45.942,318.016  "/>
<polygon fill="#4eacb4" points="200.764,468.358 567.194,387.978 208.481,584.081  "/>
<polygon fill="#c5dba8" points="78.922,431.017 285.183,459.177 296.157,214.899  "/>
<polygon fill="#82309d" points="85.487,45.279 494.997,464.597 142.778,423.630  "/>
<polygon fill="#b0dca9" points="528.358,229.144 373.811,117.238 551.491,107.583  "/>
<polygon fill="#9c029d" points="500.635,434.892 109.682,402.257 227.094,166.447  "/>
<polygon fill="#47715d" points="180.996,36.708 140.198,280.413 521.172,134.384  "/>
<polygon fill="#136326" points="98.720,564.296 33.492,48.040 256.603,504.021  "/>
<polygon fill="#1fe88e" points="395.249,212.509 155.375,453.090 399.876,86.216  "/>
<polygon fill="#ddc004" points="583.668,68.906 350.444,78.125 285.099,97.455  "/>
<polygon fill="#3b07c1" points="383.239,285.097 298.155,351.696 525.076,209.760  "/>
<polygon fill="#9cddf7" points="463.690,556.759 439.949,597.178 379.851,422.301  "/>
<polygon fill="#00e277" points="195.869,314.760 134.545,531.141 468.791,578.008  "/>
<polygon fill="#25e875" points="244.254,127.617 541.315,213.256 378.885,230.064  "/>
<polygon fill="#19ecb2" points="254.754,253.483 26.769,599.584 112.181,280.593  "/>
<polygon fill="#632204" points="543.651,574.178 157.228,315.376 552.579,157.566  "/>
<polygon fill="#581679" points="538.531,9.269 549.081,529.897 68.009,428.385  "/>
<polygon fill="#49f789" points="568.085,517.736 23.610,156.703 534.615,485.969  "/>
<polygon fill="#bcc6a1" points="322.422,157.353 395.535,171.052 406.191,396.462  "/>
<polygon fill="#fb1dae" points="6.727,460.006 408.963,572.313 434.759,98.475  "/>
<polygon fill="#5e30de" points="528.729,242.916 369.236,173.873 177.727,115.542  "/>
<polygon fill="#398fae" points="25.817,300.116 203.729,335.259 167.472,77.743  "/>
<polygon fill="#7f4975" points="294.139,131.506 125.013,155.724 59.920,300.357  "/>
<polygon fill="#de3e0a" points="454.822,282.676 549.921,65.481 331.004,493.332  "/>
<polygon fill="#76cfd1" points="522.014,36.416 466.293,384.883 175.659,563.562  "/>
<polygon fill="#74e1b6" points="354.878,507.909 303.681,243.242 493.947,72.958  "/>
<polygon fill="#cb2f7e" points="228.181,468.481 288.063,387.305 67.925,495.831  "/>
<polygon fill="#056034" points="418.963,506.696 42.069,431.564 426.196,481.726  "/>
<polygon fill="#7c41a9" points="514.786,52.978 338.480,22.509 426.486,138.547  "/>
<polygon fill="#bfccf8" points="439.588,311.113 162.167,464.727 474.223,63.632  "/>
<polygon fill="#26ae93" points="554.797,212.246 526.874,342.420 128.523,289.119  "/>
<polygon fill="#c73405" points="383.427,169.764 441.893,460.142 505.452,576.823  "/>
<polygon fill="#eafd5a" points="297.561,228.631 583.898,304.471 199.016,94.283  "/>
<polygon fill="#b2d88f" points="372.796,90.762 425.594,385.362 404.683,314.970  "/>
<polygon fill="#3c3bc1" points="411.761,452.294 264.117,186.893 420.104,157.161  "/>
<polygon fill="#cefe06" points="325.187,185.111 201.948,74.224 32.022,310.838  "/>
<polygon fill="#d36aa9" points="101.073,56.870 282.199,556.814 127.563,172.110  "/>
<polygon fill="#038f97" points="304.420,232.872 240.429,212.246 432.467,456.842  "/>
<polygon fill="#555045" points="523.626,249.065 533.314,97.908 494.527,548.660  "/>
<polygon fill="#a12d03" points="103.731,54.271 485.542,224.613 576.889,470.702  "/>
<polygon fill="#db2a15" points="9.289,23.996 296.084,357.707 12.120,368.435  "/>
<polygon fill="#02a0fc" points="466.493,599.027 260.468,132.817 482.846,360.195  "/>
<polygon fill="#932798" points="381.908,47.707 440.707,459.845 524.872,462.953  "/>
<polygon fill="#4fbac7" points="111.093,33.607 139.711,109.730 557.868,518.759  "/>
<polygon fill="#4beb29" points="264.290,460.804 339.643,348.779 277.520,525.436  "/>
</svg>