<?xml version="1.0" encoding="utf-8"?>
<!-- Generator: Python script. InTeResTinG -->
<!DOCTYPE svg PUBLIC "-//W3C//DTD SVG 1.1//EN" "http://www.w3.org/Graphics/SVG/1.1/DTD/svg11.dtd">
<svg version="1.1" id="Layer_1" xmlns="http://www.w3.org/2000/svg" xmlns:xlink="http://www.w3.org/1999/xlink" x="0px" y="0px" width="600.000px" height="600.000px" viewBox="0 0 600.000 600.000" enable-background="new 0 0 600.000 600.000" xml:space="preserve">
<polygon fill="#46ffa9" points="8.650,22.162 320.458,336.936 69.343,571.606  "/>
<polygon fill="#5fb15f" points="140.579,83.261 157.234,22.345 119.395,526.591  "/>
<polygon fill="#67a121" points="277.506,61.676 54.782,34.276 527.110,566.925  "/>
<polygon fill="#e0e460" points="231.079,231.461 352.065,14.762 598.090,513.889  "/>
<polygon fill="#1448a5" points="428.556,269.060 336.708,155.440 472.815,346.768  "/>
<polygon fill="#ca490f" points="268.843,248.785 497.294,474.382 179.728,541.545  "/>
<polygon fill="#82d297" points="376.958,70.569 297.797,262.843 458.652,445.018  "/>
<polygon fill="#8df217" points="474.322,188.796 69.199,520.531 493.409,408.374  "/>
<polygon fill="#6024fc" points="351.513,245.859 563.244,497.649 352.533,178.844  "/>
<polygon fill="#a5ecb1" points="183.480,268.898 407.861,414.401 182.540,249.000  "/>
<polygon fill="#d56f0d" points="568.041,598.345 325.531,106.962 364.211,576.353  "/>
<polygon fill="#343e31" points="288.058,452.432 73.274,478.008 495.296,9.907  "/>
<polygon fill="#e2396f" points="381.741,280.618 107.280,168.812 294.107,257.752  "/>
<polygon fill="#8b52cd" points="565.633,480.565 465.436,148.328 112.988,515.902  "/>
<polygon fill="#76683c" points="56.878,181.025 490.118,447.129 395.472,562.698  "/>
<polygon fill="#5838b3" points="346.087,478.835 316.601,26.146 88.395,314.351  "/>
<polygon fill="#07db5d" points="529.757,330.643 286.660,114.017 232.315,393.066  "/>
<polygon fill="#c6919f" points="484.068,168.874 175.813,332.436 534.785,478.892  "/>
<polygon fill="#221da8" points="405.649,494.616 204.622,86.989 10.144,307.908  "/>
<polygon fill="#d3525b" points="594.130,101.036 420.323,174.830 402.797,33.263  "/>
<polygon fill="#0f4c56" points="561.850,303.145 250.639,327.748 23.731,587.563  "/>
<polygon fill="#138596" points="169.258,82.718 548.060,482.747 275.810,407.254  "/>
<polygon fill="#6592cc" points="518.057,203.515 145.646,178.489 134.737,511.917  "/>
<polygon fill="#548559" points="305.470,62.019 457.849,132.995 402.447,370.070  "/>
<polygon fill="#4600fe" points="122.645,143.769 351.459,589.698 32.522,39.068  "/>
<polygon fill="#c90b24" points="363.354,21.349 152.112,215.339 394.395,85.430  "/>
<polygon fill="#8de22f" points="22.748,252.459 28.232,225.942 411.498,518.288  "/>
<polygon fill="#2f32ce" points="562.189,376.430 131.715,25.557 104.536,159.143  "/>
<polygon fill="#677b1a" points="318.337,1.098 41.966,193.845 484.527,263.354  "/>
<polygon fill="#07cc3f" points="388.476,381.895 442.478,110.151 547.403,425.139  "/>
<polygon fill="#dbe124" points="599.766,497.095 380.950,564.810 375.719,386.125  "/>
<polygon fill="#762add" points="229.882,159.549 510.133,400.781 182.936,269.370  "/>
<polygon fill="#ff77c0" points="23.988,417.192 177.872,117.922 252.106,35.942  "/>
<polygon fill="#34bd70" points="159.553,8.737 273.554,164.111 480.722,219.607  "/>
<polygon fill="#7c4619" points="261.892,348.308 363.057,517.496 284.177,397.327  "/>
<polygon fill="#b0dd5e" points="533.306,168.118 245.847,161.937 18.278,80.156  "/>
<polygon fill="#e401c0" points="422.705,383.257 413.740,431.326 76.923,15.305  "/>
<polygon fill="#ef4a59" points="381.206,371.354 18.451,76.830 538.077,164.242  "/>
<polygon fill="#8542dc" points="172.234,245.648 70.539,231.164 57.514,222.441  "/>
<polygon fill="#9ee557" points="179.532,100.808 512.959,258.760 536.138,198.365  "/>
<polygon fill="#2aa2e2" points="151.541,561.744 456.765,428.029 273.934,438.856  "/>
<polygon fill="#9d6fb0" points="252.243,340.597 511.979,20.401 98.879,147.172  "/>
<polygon fill="#90fe88" points="326.421,48.059 385.734,142.543 339.770,421.945  "/>
<polygon fill="#cb54bf" points="538.976,349.117 226.314,593.276 390.394,361.242  "/>
<polygon fill="#54acea" points="576.419,400.379 139.925,54.557 378.325,213.278  "/>
<polygon fill="#acdf52" points="348.472,478.192 298.798,408.690 358.030,359.848  "/>
<polygon fill="#ce2513" points="309.197,265.875 558.187,116.891 387.688,143.157  "/>
<polygon fill="#9b5390" points="319.626,125.170 339.858,115.103 272.502,44.411  "/>
<polygon fill="#f9bbdd" points="283.301,114.556 195.208,183.000 99.285,103.025  "/>
<polygon fill="#425d1b" points="68.920,56.481 330.087,204.767 490.929,341.071  "/>
<polygon fill="#6b73af" points="48.220,318.222 51.851,417.553 121.271,258.167  "/>
<polygon fill="#d38a4a" points="358.086,50.929 208.560,527.247 555.961,167.300  "/>
<polygon fill="#6c5efe" points="578.682,50.730 443.037,130.593 588.644,277.290  "/>
</svg>