<?xml version="1.0" encoding="utf-8"?>
<!-- Generator: Python script. InTeResTinG -->
<!DOCTYPE svg PUBLIC "-//W3C//DTD SVG 1.1//EN" "http://www.w3.org/Graphics/SVG/1.1/DTD/svg11.dtd">
<svg version="1.1" id="Layer_1" xmlns="http://www.w3.org/2000/svg" xmlns:xlink="http://www.w3.org/1999/xlink" x="0px" y="0px" width="600.000px" height="600.000px" viewBox="0 0 600.000 600.000" enable-background="new 0 0 600.000 600.000" xml:space="preserve">
<polygon fill="#87c08e" points="570.319,115.811 568.045,517.467 40.908,426.292  "/>
<polygon fill="#2157b2" points="23.509,584.307 471.510,479.959 303.438,387.100  "/>
<polygon fill="#c3e69c" points="263.762,546.265 483.274,333.556 588.815,598.874  "/>
<polygon fill="#fb62f6" points="583.621,301.194 383.653,196.606 213.995,515.460  "/>
<polygon fill="#dca2c3" points="99.468,325.679 524.862,143.149 119.704,257.354  "/>
<polygon fill="#67c251" points="32.570,145.813 54.858,520.106 424.232,359.659  "/>
<polygon fill="#648446" points="562.117,142.715 388.889,388.410 288.855,361.865  "/>
<polygon fill="#792b4e" points="75.524,475.645 414.177,297.219 197.464,541.017  "/>
<polygon fill="#391c3a" points="549.426,311.383 492.782,413.135 33.908,79.607  "/>
<polygon fill="#e3c3cd" points="521.164,20.695 302.376,544.339 365.877,476.093  "/>
<polygon fill="#d6c7a6" points="252.475,76.644 111.111,426.702 288.066,74.251  "/>
<polygon fill="#22c337" points="524.798,381.362 264.875,356.090 286.898,293.293  "/>
<polygon fill="#147cb3" points="426.470,465.205 56.641,111.251 451.287,149.868  "/>
<polygon fill="#1b1906" points="38.735,350.480 471.131,576.057 272.080,196.775  "/>
<polygon fill="#2923b6" points="233.553,326.332 301.021,477.613 163.683,599.385  "/>
<polygon fill="#35506c" points="310.679,220.392 347.014,178.822 174.383,576.114  "/>
<polygon fill="#b7bb88" points="469.091,229.859 446.996,223.027 254.757,29.903  "/>
<polygon fill="#ce7c0e" points="487.447,274.943 247.767,21.859 241.753,472.390  "/>
<polygon fill="#230db5" points="375.735,67.455 446.559,521.594 555.720,270.811  "/>
<polygon fill="#1664bd" points="332.218,398.551 513.321,513.350 525.281,465.024  "/>
<polygon fill="#3289ef" points="365.041,245.709 29.500,240.543 58.442,476.553  "/>
<polygon fill="#94dc7c" points="227.325,281.135 432.424,449.448 554.140,101.955  "/>
<polygon fill="#3fda66" points="386.734,224.309 510.526,159.149 588.825,223.667  "/>
<polygon fill="#e80f36" points="108.573,125.581 192.685,548.449 422.056,170.383  "/>
<polygon fill="#07e42a" points="297.144,213.995 73.325,358.129 225.035,580.446  "/>
<polygon fill="#105a85" points="97.468,488.594 507.709,548.064 401.256,68.000  "/>
<polygon fill="#2e5e65" points="312.294,21.533 363.391,573.722 111.333,227.084  "/>
<polygon fill="#b5b1b8" points="6.183,264.032 451.538,86.355 319.626,345.390  "/>
<polygon fill="#531961" points="435.853,504.160 105.845,63.182 305.533,299.454  "/>
<polygon fill="#f540ae" points="37.431,536.706 147.665,504.743 230.513,148.793  "/>
<polygon fill="#8a8835" points="86.032,142.147 0.071,106.566 276.810,154.490  "/>
<polygon fill="#2ca00f" points="548.835,291.091 276.435,316.440 212.107,53.283  "/>
<polygon fill="#ca9ec9" points="113.367,116.579 363.295,495.785 506.237,192.890  "/>
<polygon fill="#a269f8" points="26.258,592.030 382.724,458.292 584.531,530.445  "/>
<polygon fill="#236d85" points="210.392,515.828 0.013,88.247 367.568,284.697  "/>
<polygon fill="#03e7a5" points="535.870,226.278 158.187,428.337 571.832,26.645  "/>
<polygon fill="#e11d7c" points="123.540,432.535 50.965,358.199 587.055,231.430  "/>
<polygon fill="#8a01b7" points="539.065,84.426 309.684,58.238 525.121,165.988  "/>
<polygon fill="#0d4d1f" points="93.337,498.971 57.599,431.176 25.593,240.793  "/>
<polygon fill="#721ce0" points="367.514,183.400 99.942,368.106 232.164,348.461  "/>
<polygon fill="#a13ded" points="437.800,590.411 210.201,573.160 243.514,45.957  "/>
<polygon fill="#6e4524" points="428.636,51.255 22.238,415.815 125.535,440.813  "/>
<polygon fill="#a0a601" points="169.053,224.288 533.073,257.228 1.634,575.211  "/>
<polygon fill="#2cb42a" points="157.544,400.604 506.958,476.072 322.756,37.015  "/>
<polygon fill="#73eea7" points="38.774,137.299 184.479,578.023 234.804,150.733  "/>
<polygon fill="#f32038" points="253.032,347.899 578.486,348.925 73.399,554.478  "/>
<polygon fill="#2e7418" points="402.334,0.776 100.522,246.874 519.588,291.483  "/>
<polygon fill="#76a23c" points="451.307,273.726 123.095,247.758 351.416,357.173  "/>
<polygon fill="#84eced" points="212.856,318.649 566.527,331.820 91.606,162.826  "/>
<polygon fill="#2081ee" points="36.056,546.809 456.110,526.653 100.380,366.316  "/>
<polygon fill="#1c01ac" points="355.469,247.666 58.989,222.769 355.993,31.640  "/>
<polygon fill="#b58514" points="78.043,456.089 299.487,216.314 268.078,282.318  "/>
<polygon fill="#9c35e2" points="233.051,384.708 207.925,280.522 378.055,421.418  "/>
<polygon fill="#74d954" points="302.353,144.956 35.697,137.399 313.147,173.322  "/>
<polygon fill="#b2959c" points="436.054,220.678 592.404,340.740 523.843,201.889  "/>
<polygon fill="#ff4ec7" points="98.734,275.250 582.855,196.330 112.176,180.100  "/>
<polygon fill="#e657dd" points="438.030,462.573 246.898,343.825 114.757,296.034  "/>
<polygon fill="#c38fe8" points="283.685,352.448 459.720,61.565 5.467,254.094  "/>
<polygon fill="#f9c863" points="316.877,197.652 530.047,177.234 518.498,295.721  "/>
<polygon fill="#0d9ae5" points="417.649,1.773 49.462,496.843 140.953,254.175  "/>
<polygon fill="#41848c" points="404.203,36.830 505.666,165.591 71.915,53.039  "/>
<polygon fill="#8d1968" points="588.719,550.619 296.140,516.233 540.259,264.586  "/>
</svg>