<?xml version="1.0" encoding="utf-8"?>
<!-- Generator: Python script. InTeResTinG -->
<!DOCTYPE svg PUBLIC "-//W3C//DTD SVG 1.1//EN" "http://www.w3.org/Graphics/SVG/1.1/DTD/svg11.dtd">
<svg version="1.1" id="Layer_1" xmlns="http://www.w3.org/2000/svg" xmlns:xlink="http://www.w3.org/1999/xlink" x="0px" y="0px" width="600.000px" height="600.000px" viewBox="0 0 600.000 600.000" enable-background="new 0 0 600.000 600.000" xml:space="preserve">
<polygon fill="#489be6" points="259.590,104.958 19.588,326.087 166.164,136.393  "/>
<polygon fill="#20c809" points="256.561,599.474 509.710,567.691 301.242,407.994  "/>
<polygon fill="#f00306" points="260.685,399.844 37.399,425.666 84.812,492.014  "/>
<polygon fill="#ec5894" points="301.336,480.815 32.597,303.417 545.961,247.836  "/>
<polygon fill="#60443b" points="176.211,76.736 314.922,469.898 24.408,99.076  "/>
<polygon fill="#98aa6c" points="549.134,367.982 314.175,160.290 268.245,189.295  "/>
<polygon fill="#ae17f4" points="124.087,506.182 427.425,533.044 40.475,479.664  "/>
<polygon fill="#4758ba" points="376.870,465.427 392.770,296.000 163.614,307.477  "/>
<polygon fill="#356cb6" points="34.912,545.425 569.486,156.831 420.051,13.352  "/>
<polygon fill="#f86ab9" points="438.364,483.893 367.862,320.617 220.021,148.295  "/>
<polygon fill="#ea01aa" points="44.879,529.230 84.953,502.922 175.351,3.968  "/>
<polygon fill="#3f02ff" points="13.502,185.807 199.748,108.357 64.786,288.077  "/>
<polygon fill="#499149" points="393.884,271.998 335.883,169.691 0.545,126.778  "/>
<polygon fill="#f8c13e" points="367.320,446.271 435.370,533.193 70.050,200.068  "/>
<polygon fill="#62ef73" points="289.042,286.545 339.201,309.628 598.297,379.701  "/>
<polygon fill="#82bf21" points="400.567,568.906 278.856,89.433 285.568,528.283  "/>
<polygon fill="#74c909" points="62.253,110.221 501.385,505.954 291.662,13.461  "/>
<polygon fill="#36c5fe" points="445.276,567.508 106.708,201.264 30.316,305.675  "/>
<polygon fill="#65ce80" points="559.267,283.811 496.226,393.534 63.876,139.959  "/>
<polygon fill="#5e598d" points="142.531,308.122 223.703,406.916 580.730,558.009  "/>
<polygon fill="#6069dd" points="546.783,35.401 140.612,48.114 231.339,74.160  "/>
<polygon fill="#cc6a44" points="14.571,328.911 504.415,344.337 203.343,12.535  "/>
<polygon fill="#0f316a" points="2.816,587.603 513.154,587.551 376.041,48.767  "/>
<polygon fill="#040bbd" points="179.907,585.358 218.528,578.504 27.201,151.678  "/>
<polygon fill="#84355e" points="580.245,318.550 364.455,122.733 599.781,517.856  "/>
<polygon fill="#60164b" points="205.542,528.911 439.746,353.112 329.377,490.913  "/>
<polygon fill="#fb4a95" points="40.673,408.108 472.200,106.808 254.552,273.478  "/>
<polygon fill="#24a6e0" points="353.128,510.573 448.543,256.634 76.050,368.423  "/>
<polygon fill="#624c54" points="586.151,330.502 27.119,20.476 351.974,42.918  "/>
<polygon fill="#ef36b0" points="300.675,147.923 562.941,587.924 40.759,245.746  "/>
<polygon fill="#ed387a" points="205.478,19.592 102.068,592.787 63.503,595.920  "/>
<polygon fill="#1a4a95" points="403.908,218.789 575.927,530.014 65.759,549.577  "/>
<polygon fill="#db2457" points="40.247,511.642 19.598,492.970 36.218,155.250  "/>
<polygon fill="#fdd733" points="2.773,166.719 252.677,102.172 87.532,575.829  "/>
<polygon fill="#34b056" points="308.090,564.397 328.559,81.527 279.620,402.012  "/>
<polygon fill="#4d1f71" points="32.604,68.991 568.732,503.878 262.620,331.752  "/>
<polygon fill="#a83d2e" points="245.717,97.420 554.793,597.758 199.081,518.948  "/>
<polygon fill="#89279d" points="141.846,566.812 546.536,11.228 476.966,9.519  "/>
<polygon fill="#bb569d" points="582.919,160.612 504.061,392.006 434.149,24.224  "/>
<polygon fill="#61fe7d" points="122.334,159.206 448.562,476.928 163.395,275.031  "/>
<polygon fill="#a50514" points="342.290,36.764 454.053,154.543 200.784,316.488  "/>
<polygon fill="#f2a879" points="103.616,544.660 169.200,50.446 389.639,163.437  "/>
<polygon fill="#095d0b" points="132.998,489.315 104.970,77.684 490.227,576.553  "/>
<polygon fill="#61e4b2" points="163.628,392.900 195.518,527.691 418.764,455.759  "/>
<polygon fill="#2de0ab" points="133.841,523.223 463.061,358.503 71.388,224.845  "/>
<polygon fill="#44a1f7" points="382.602,431.169 98.044,490.450 357.314,35.624  "/>
<polygon fill="#b924a0" points="233.647,442.354 194.781,428.152 39.407,186.268  "/>
<polygon fill="#1a6471" points="432.071,485.592 112.072,198.280 434.479,245.068  "/>
<polygon fill="#a8e334" points="432.361,38.528 532.514,251.144 307.738,448.038  "/>
<polygon fill="#4a6196" points="184.507,248.072 107.407,592.067 299.355,51.386  "/>
<polygon fill="#b97bb6" points="207.660,23.718 558.208,268.634 340.480,599.170  "/>
<polygon fill="#df2835" points="296.262,144.365 92.078,353.620 38.975,8.467  "/>
<polygon fill="#a16ad9" points="460.091,568.518 562.873,379.024 123.969,115.153  "/>
<polygon fill="#781420" points="152.653,123.555 498.228,426.871 83.672,25.857  "/>
<polygon fill="#fc26fb" points="373.294,335.229 501.617,421.301 184.489,350.109  "/>
<polygon fill="#e8053a" points="551.791,488.959 391.202,540.711 294.835,476.733  "/>
<polygon fill="#bf9d31" points="511.698,112.414 32.199,388.954 311.634,20.257  "/>
<polygon fill="#a5778c" points="450.986,267.518 434.490,72.676 407.894,79.972  "/>
<polygon fill="#3302e0" points="101.717,61.032 594.362,272.294 286.552,245.989  "/>
</svg>