<?xml version="1.0" encoding="utf-8"?>
<!-- Generator: Python script. InTeResTinG -->
<!DOCTYPE svg PUBLIC "-//W3C//DTD SVG 1.1//EN" "http://www.w3.org/Graphics/SVG/1.1/DTD/svg11.dtd">
<svg version="1.1" id="Layer_1" xmlns="http://www.w3.org/2000/svg" xmlns:xlink="http://www.w3.org/1999/xlink" x="0px" y="0px" width="600.000px" height="600.000px" viewBox="0 0 600.000 600.000" enable-background="new 0 0 600.000 600.000" xml:space="preserve">
<polygon fill="#d59186" points="351.247,447.493 229.454,454.361 179.282,27.875  "/>
<polygon fill="#2c64eb" points="71.595,12.873 292.901,188.965 328.036,152.326  "/>
<polygon fill="#7e1745" points="404.373,121.281 501.223,163.428 18.888,207.070  "/>
<polygon fill="#bd10f1" points="499.339,329.648 129.047,45.420 289.415,599.582  "/>
<polygon fill="#0794aa" points="404.137,465.867 443.790,414.930 499.575,237.599  "/>
<polygon fill="#b3785f" points="524.158,257.625 47.801,446.365 419.729,389.182  "/>
<polygon fill="#649228" points="274.855,413.946 383.390,523.912 442.240,496.527  "/>
<polygon fill="#ffddad" points="570.879,428.148 309.823,41.659 426.821,166.027  "/>
<polygon fill="#b9fe4f" points="381.215,162.412 64.861,173.663 72.474,381.013  "/>
<polygon fill="#0916b3" points="186.117,569.580 470.815,11.984 137.828,34.134  "/>
<polygon fill="#5b13b5" points="474.915,312.700 88.805,551.282 67.322,204.251  "/>
<polygon fill="#b5f5e2" points="363.932,483.290 151.915,499.178 50.292,94.052  "/>
<polygon fill="#b29085" points="319.785,323.176 365.583,357.850 482.077,155.785  "/>
<polygon fill="#266d14" points="338.629,316.270 15.322,59.931 100.318,537.017  "/>
<polygon fill="#c92f0d" points="210.113,595.511 320.714,41.587 212.549,498.360  "/>
<polygon fill="#5387ec" points="415.124,452.528 495.632,90.538 402.790,389.698  "/>
<polygon fill="#658d7c" points="374.690,329.961 272.119,187.855 2.300,160.345  "/>
<polygon fill="#62bf49" points="531.214,535.348 258.538,369.886 598.567,119.858  "/>
<polygon fill="#29a74b" points="132.990,400.856 385.642,514.109 378.155,73.544  "/>
<polygon fill="#da5f27" points="580.704,81.633 477.931,512.313 323.111,79.733  "/>
<polygon fill="#d80972" points="292.095,1.648 233.693,218.830 279.276,30.311  "/>
<polygon fill="#01d541" points="542.334,393.536 508.811,212.692 80.397,364.946  "/>
<polygon fill="#9a6c43" points="333.321,60.822 502.601,304.263 418.850,142.436  "/>
<polygon fill="#35573e" points="382.419,487.218 356.228,469.300 29.546,27.615  "/>
<polygon fill="#d5b5d7" points="288.016,299.273 87.239,502.503 507.614,480.589  "/>
<polygon fill="#655b05" points="570.234,516.179 10.204,12.871 71.951,477.305  "/>
<polygon fill="#c44fba" points="569.686,200.521 206.403,142.970 512.169,448.719  "/>
<polygon fill="#4ef97a" points="105.802,320.747 533.798,256.181 588.522,443.505  "/>
<polygon fill="#b22fca" points="78.729,432.359 580.667,367.141 383.125,537.584  "/>
<polygon fill="#31ce7b" points="564.914,449.830 350.604,189.290 544.891,116.568  "/>
<polygon fill="#6a15fb" points="445.841,141.828 316.685,537.667 111.075,124.280  "/>
<polygon fill="#8c6f5c" points="217.916,20.624 115.649,371.532 266.226,258.858  "/>
<polygon fill="#3a121b" points="481.609,231.489 371.147,194.086 190.159,66.556  "/>
<polygon fill="#1c039b" points="415.440,115.547 366.175,267.808 428.367,199.130  "/>
<polygon fill="#fcc35a" points="166.503,246.927 222.829,335.860 271.170,364.459  "/>
<polygon fill="#0d2055" points="152.166,497.728 164.598,419.682 85.455,78.636  "/>
<polygon fill="#3a1e01" points="348.041,564.424 243.265,251.798 557.711,510.433  "/>
<polygon fill="#574f51" points="128.637,284.926 400.540,161.073 395.042,38.281  "/>
<polygon fill="#813ee8" points="429.995,531.067 400.435,152.335 187.110,322.760  "/>
<polygon fill="#c5c6ea" points="574.786,171.709 488.815,304.195 28.600,265.803  "/>
<polygon fill="#cae144" points="524.567,139.659 469.025,397.854 360.155,340.808  "/>
<polygon fill="#54df2c" points="45.198,568.398 508.311,535.407 510.803,45.086  "/>
<polygon fill="#ee0030" points="39.408,181.434 219.449,95.850 511.792,328.164  "/>
<polygon fill="#219ce5" points="175.010,375.057 102.514,15.056 115.220,98.243  "/>
<polygon fill="#e689b7" points="399.604,463.649 132.580,233.143 492.113,311.633  "/>
<polygon fill="#dd1770" points="400.044,592.088 375.781,90.970 590.506,233.149  "/>
<polygon fill="#60bab1" points="499.217,577.196 131.884,309.698 570.810,454.922  "/>
<polygon fill="#a11d47" points="362.478,480.790 332.289,254.754 216.385,313.005  "/>
<polygon fill="#326ece" points="556.566,327.559 471.055,537.767 275.957,535.747  "/>
<polygon fill="#a3347a" points="540.149,424.869 149.580,164.845 306.075,531.355  "/>
<polygon fill="#6537f5" points="493.171,598.770 66.457,542.763 83.860,219.088  "/>
<polygon fill="#b2319a" points="574.130,462.298 66.459,40.033 358.314,342.604  "/>
<polygon fill="#8a61f8" points="530.139,293.952 317.668,466.705 556.631,463.685  "/>
<polygon fill="#1e0985" points="306.486,446.987 213.922,416.192 32.185,406.377  "/>
<polygon fill="#c3da23" points="83.935,320.207 524.336,498.726 128.293,547.700  "/>
<polygon fill="#e56667" points="185.550,55.178 297.314,25.547 302.411,469.600  "/>
<polygon fill="#8208a0" points="575.080,411.226 541.892,41.842 560.903,125.449  "/>
<polygon fill="#f1382a" points="127.422,83.986 82.940,413.977 204.706,380.872  "/>
<polygon fill="#07ffee" points="216.717,61.980 428.408,520.540 110.074,140.641  "/>
<polygon fill="#d23e39" points="319.208,12.940 127.560,357.614 192.783,591.745  "/>
<polygon fill="#4b164f" points="288.348,213.913 124.895,217.679 313.744,179.173  "/>
<polygon fill="#ff1961" points="501.023,287.874 346.950,502.505 562.736,296.916  "/>
<polygon fill="#4af31c" points="66.571,425.098 8.607,36.216 336.570,514.851  "/>
</svg>