<?xml version="1.0" encoding="utf-8"?>
<!-- Generator: Python script. InTeResTinG -->
<!DOCTYPE svg PUBLIC "-//W3C//DTD SVG 1.1//EN" "http://www.w3.org/Graphics/SVG/1.1/DTD/svg11.dtd">
<svg version="1.1" id="Layer_1" xmlns="http://www.w3.org/2000/svg" xmlns:xlink="http://www.w3.org/1999/xlink" x="0px" y="0px" width="600.000px" height="600.000px" viewBox="0 0 600.000 600.000" enable-background="new 0 0 600.000 600.000" xml:space="preserve">
<polygon fill="#fc10f1" points="336.398,89.889 408.084,554.775 356.781,21.585  "/>
<polygon fill="#c1627f" points="583.201,437.133 67.361,420.782 518.374,484.907  "/>
<polygon fill="#c3131e" points="308.137,335.800 482.345,590.228 78.553,135.310  "/>
<polygon fill="#35aace" points="101.561,310.244 409.697,203.212 84.597,454.077  "/>
<polygon fill="#5d66f4" points="342.415,48.448 309.013,320.675 64.077,99.028  "/>
<polygon fill="#addfb9" points="289.376,296.700 4.897,171.133 140.472,378.835  "/>
<polygon fill="#b77315" points="597.886,144.048 15.780,294.161 81.395,39.352  "/>
<polygon fill="#e39744" points="151.469,331.831 447.300,471.883 517.816,521.016  "/>
<polygon fill="#8ce521" points="395.750,290.276 268.674,29.344 246.640,511.193  "/>
<polygon fill="#5b8680" points="590.972,460.055 216.902,562.458 68.632,222.283  "/>
<polygon fill="#426542" points="594.054,192.772 126.396,260.293 281.509,166.335  "/>
<polygon fill="#f0db79" points="545.537,171.699 365.340,540.421 67.855,556.162  "/>
<polygon fill="#5e5e68" points="535.983,300.128 226.821,589.041 366.412,276.614  "/>
<polygon fill="#6368a9" points="141.297,461.812 208.724,163.891 399.751,26.750  "/>
<polygon fill="#52bc37" points="262.791,184.158 36.166,379.079 493.214,24.207  "/>
<polygon fill="#8b9f77" points="193.183,271.127 360.923,176.188 565.618,465.107  "/>
<polygon fill="#8bfa5c" points="421.466,382.853 596.989,238.184 267.946,161.469  "/>
<polygon fill="#cd4d41" points="471.614,107.136 580.009,473.783 420.744,233.892  "/>
<polygon fill="#4b7c42" points="198.170,194.479 194.552,108.909 294.389,161.027  "/>
<polygon fill="#7f5141" points="535.187,420.155 130.410,428.671 157.036,358.743  "/>
<polygon fill="#e32900" points="579.512,420.382 123.413,390.875 527.117,106.820  "/>
<polygon fill="#b98a47" points="10.153,256.969 305.403,561.098 372.195,422.597  "/>
<polygon fill="#16b660" points="465.369,147.371 260.832,70.780 146.333,349.704  "/>
<polygon fill="#6e4774" points="357.974,548.573 429.024,187.098 284.249,312.668  "/>
<polygon fill="#204c5d" points="373.725,30.371 406.369,248.955 40.008,552.936  "/>
<polygon fill="#928380" points="62.696,592.509 435.816,99.979 565.926,63.581  "/>
<polygon fill="#e2334a" points="268.511,10.061 595.429,305.522 224.218,259.063  "/>
<polygon fill="#4297ba" points="294.331,42.671 191.513,385.502 376.589,572.570  "/>
<polygon fill="#0de066" points="299.474,403.070 556.566,166.064 447.082,582.720  "/>
<polygon fill="#632862" points="475.544,189.721 348.140,94.688 538.782,534.480  "/>
<polygon fill="#29f6be" points="155.572,394.151 264.698,454.952 535.104,299.109  "/>
<polygon fill="#8c0bbb" points="421.969,171.993 29.083,485.935 218.161,217.282  "/>
<polygon fill="#a28e95" points="64.129,182.470 542.786,402.344 348.415,212.431  "/>
<polygon fill="#feadf5" points="32.851,476.725 400.922,249.782 192.063,447.575  "/>
<polygon fill="#71b6bb" points="253.003,401.533 190.402,337.733 98.650,531.136  "/>
<polygon fill="#b21afb" points="409.963,50.233 164.326,385.032 152.044,458.958  "/>
<polygon fill="#915683" points="458.448,245.962 320.446,309.969 573.466,517.721  "/>
<polygon fill="#e902a8" points="14.898,181.642 4.337,522.108 480.099,360.508  "/>
<polygon fill="#9a47b7" points="163.438,2.749 415.662,23.972 56.685,275.321  "/>
<polygon fill="#f3abc3" points="391.255,382.330 233.097,298.909 384.805,428.962  "/>
<polygon fill="#dfcf99" points="179.994,560.913 270.345,584.289 226.965,491.356  "/>
<polygon fill="#a5e91b" points="119.011,205.958 555.908,491.354 526.689,271.043  "/>
<polygon fill="#ce211f" points="317.626,328.265 51.209,506.597 314.924,432.422  "/>
<polygon fill="#4bfbe6" points="81.386,401.777 156.197,195.839 30.742,96.466  "/>
<polygon fill="#896334" points="206.805,171.937 439.563,519.835 533.272,69.985  "/>
<polygon fill="#59c576" points="44.899,66.886 242.803,39.898 572.205,188.549  "/>
<polygon fill="#fd40d0" points="431.490,282.725 84.033,223.357 484.670,373.328  "/>
<polygon fill="#f29483" points="548.269,341.615 53.268,448.226 418.714,399.218  "/>
<polygon fill="#674718" points="271.338,521.490 350.996,28.298 527.203,340.568  "/>
<polygon fill="#b655ff" points="373.108,250.238 492.885,413.673 447.817,106.027  "/>
<polygon fill="#10ac96" points="513.815,101.169 215.838,448.674 415.389,371.979  "/>
<polygon fill="#af8a7e" points="335.671,511.171 583.418,202.259 567.356,456.999  "/>
<polygon fill="#8b4c0d" points="168.776,428.696 595.608,141.108 581.243,587.823  "/>
<polygon fill="#04ec2a" points="92.683,238.465 535.016,334.840 144.255,144.125  "/>
<polygon fill="#ccc874" points="295.519,69.271 155.522,425.521 263.197,398.676  "/>
<polygon fill="#5b679e" points="268.420,57.472 187.340,522.048 525.185,323.567  "/>
<polygon fill="#f352d0" points="557.162,571.892 28.451,431.278 526.413,225.356  "/>
<polygon fill="#dd8898" points="399.747,423.675 220.564,504.370 248.387,356.756  "/>
<polygon fill="#646d02" points="355.289,361.152 581.863,22.706 283.368,385.236  "/>
<polygon fill="#afd847" points="144.675,224.319 109.069,73.600 577.420,348.594  "/>
<polygon fill="#eb0a8d" points="560.213,366.814 358.748,45.623 390.566,217.785  "/>
</svg>