<?xml version="1.0" encoding="utf-8"?>
<!-- Generator: Python script. InTeResTinG -->
<!DOCTYPE svg PUBLIC "-//W3C//DTD SVG 1.1//EN" "http://www.w3.org/Graphics/SVG/1.1/DTD/svg11.dtd">
<svg version="1.1" id="Layer_1" xmlns="http://www.w3.org/2000/svg" xmlns:xlink="http://www.w3.org/1999/xlink" x="0px" y="0px" width="600.000px" height="600.000px" viewBox="0 0 600.000 600.000" enable-background="new 0 0 600.000 600.000" xml:space="preserve">
<polygon fill="#cb9164" points="598.516,390.191 344.804,468.660 348.069,282.992  "/>
<polygon fill="#945f96" points="194.937,320.667 516.575,40.044 247.309,379.893  "/>
<polygon fill="#a071d0" points="523.642,81.317 42.652,333.330 533.702,261.562  "/>
<polygon fill="#a56427" points="390.719,250.199 255.872,195.990 194.282,268.616  "/>
<polygon fill="#0b124f" points="115.614,205.169 518.016,562.194 492.408,337.783  "/>
<polygon fill="#92d51f" points="560.509,119.974 245.138,215.261 377.146,416.214  "/>
<polygon fill="#6c76e2" points="6.805,268.028 490.235,20.536 527.547,470.792  "/>
<polygon fill="#30a1ff" points="234.923,135.184 168.653,181.767 107.052,197.111  "/>
<polygon fill="#1e2c3f" points="187.000,388.651 256.657,112.152 253.788,371.990  "/>
<polygon fill="#3c7d1f" points="304.141,264.022 284.936,227.866 452.787,112.982  "/>
<polygon fill="#f2850b" points="203.211,14.569 364.906,521.939 436.650,80.843  "/>
<polygon fill="#09147a" points="420.841,9.113 437.628,351.272 124.347,343.731  "/>
<polygon fill="#748056" points="154.074,239.001 425.085,109.591 37.858,231.146  "/>
<polygon fill="#62a37e" points="398.276,422.146 117.108,17.666 577.081,20.108  "/>
<polygon fill="#80bf2c" points="176.057,243.878 87.147,39.575 267.457,372.085  "/>
<polygon fill="#7a9daa" points="377.556,292.720 566.660,369.890 344.485,568.581  "/>
<polygon fill="#967c12" points="570.203,412.874 403.524,113.439 228.412,1.538  "/>
<polygon fill="#f5e8e6" points="496.879,163.078 535.071,527.415 314.398,362.130  "/>
<polygon fill="#610e2d" points="12.724,278.085 324.788,170.959 23.228,60.626  "/>
<polygon fill="#98386a" points="97.545,532.124 415.518,485.632 337.357,227.699  "/>
<polygon fill="#57ec47" points="273.506,35.987 311.108,361.173 516.442,411.945  "/>
<polygon fill="#82553c" points="278.353,358.216 560.673,47.411 209.495,476.298  "/>
<polygon fill="#6fc5a4" points="323.642,188.197 326.361,23.518 553.981,409.700  "/>
<polygon fill="#fec276" points="576.329,418.515 93.016,16.247 524.650,492.173  "/>
<polygon fill="#defcc6" points="51.530,168.572 243.911,217.007 564.865,328.631  "/>
<polygon fill="#f720ab" points="400.705,457.741 155.531,63.425 196.104,312.851  "/>
<polygon fill="#cf5fc2" points="485.623,535.727 547.712,544.552 91.162,566.350  "/>
<polygon fill="#7decf8" points="270.220,577.418 400.848,558.113 104.948,370.524  "/>
<polygon fill="#c2956d" points="499.387,514.652 255.129,234.866 29.148,406.794  "/>
<polygon fill="#ed8c6c" points="99.821,204.045 356.279,134.104 459.298,36.992  "/>
<polygon fill="#4d45a0" points="387.470,591.418 587.647,347.929 251.858,550.144  "/>
<polygon fill="#768dfe" points="366.548,167.144 468.216,235.833 552.378,192.083  "/>
<polygon fill="#2bed29" points="219.419,306.649 125.409,209.831 68.831,162.163  "/>
<polygon fill="#e4619e" points="200.045,480.517 153.719,230.757 134.085,149.301  "/>
<polygon fill="#14427e" points="348.029,302.061 416.877,103.029 371.861,376.738  "/>
<polygon fill="#6a067f" points="557.881,488.869 331.298,17.054 340.394,432.006  "/>
<polygon fill="#98a974" points="152.691,509.473 550.602,596.494 596.441,416.333  "/>
<polygon fill="#f69628" points="322.260,522.516 437.595,419.023 262.202,82.602  "/>
<polygon fill="#7b7f2a" points="576.467,339.189 440.914,595.668 330.611,539.622  "/>
<polygon fill="#9949bc" points="495.670,383.357 136.627,429.199 21.158,376.849  "/>
<polygon fill="#2de749" points="94.348,392.283 474.659,214.961 225.114,292.967  "/>
<polygon fill="#7bd910" points="205.105,26.194 271.332,28.691 321.836,450.124  "/>
<polygon fill="#0b88ec" points="422.576,457.462 118.982,202.684 581.941,583.183  "/>
<polygon fill="#bba17c" points="418.665,259.080 11.303,395.768 350.529,358.365  "/>
<polygon fill="#42cc84" points="480.191,368.417 226.566,212.448 157.090,427.820  "/>
<polygon fill="#01d753" points="428.046,481.412 450.919,14.122 5.238,436.071  "/>
<polygon fill="#2da41f" points="106.536,148.724 179.769,127.482 137.799,149.931  "/>
<polygon fill="#65f1de" points="192.752,244.307 137.994,39.546 515.528,509.943  "/>
<polygon fill="#143d7c" points="23.866,361.954 75.997,515.371 505.767,366.355  "/>
<polygon fill="#b0938a" points="145.413,391.475 303.935,41.822 556.187,393.909  "/>
<polygon fill="#bdc2ef" points="508.751,96.092 578.862,580.262 598.617,316.466  "/>
<polygon fill="#4aa03b" points="26.475,47.750 139.425,349.947 499.427,28.415  "/>
<polygon fill="#d5c45c" points="522.890,201.907 378.009,417.603 23.116,472.051  "/>
<polygon fill="#edae40" points="321.337,223.401 265.162,380.447 526.201,66.415  "/>
<polygon fill="#f438b4" points="70.925,453.190 244.989,290.976 211.178,491.252  "/>
<polygon fill="#6b2c85" points="495.231,109.929 485.246,199.181 566.535,392.861  "/>
<polygon fill="#9e9cfb" points="373.122,69.150 380.845,482.132 5.434,321.636  "/>
<polygon fill="#5c32ab" points="574.023,44.017 149.808,571.390 386.825,415.180  "/>
<polygon fill="#4dc710" points="500.128,599.947 353.683,435.795 282.238,599.388  "/>
<polygon fill="#aa5152" points="323.610,329.536 470.952,391.988 412.407,110.350  "/>
<polygon fill="#4924b2" points="354.080,71.397 503.327,92.597 599.545,510.522  "/>
<polygon fill="#6a1897" points="318.798,187.900 323.591,308.527 38.725,573.188  "/>
<polygon fill="#ebb05f" points="385.774,186.418 406.363,570.180 4.694,532.883  "/>
<polygon fill="#f23e14" points="270.281,207.964 290.148,497.198 106.404,205.018  "/>
</svg>