<?xml version="1.0" encoding="utf-8"?>
<!-- Generator: Python script. InTeResTinG -->
<!DOCTYPE svg PUBLIC "-//W3C//DTD SVG 1.1//EN" "http://www.w3.org/Graphics/SVG/1.1/DTD/svg11.dtd">
<svg version="1.1" id="Layer_1" xmlns="http://www.w3.org/2000/svg" xmlns:xlink="http://www.w3.org/1999/xlink" x="0px" y="0px" width="600.000px" height="600.000px" viewBox="0 0 600.000 600.000" enable-background="new 0 0 600.000 600.000" xml:space="preserve">
<polygon fill="#116fdb" points="255.132,573.791 527.735,228.558 266.070,349.118  "/>
<polygon fill="#0815ee" points="107.117,572.467 500.480,66.557 251.688,154.566  "/>
<polygon fill="#0a70e5" points="365.157,539.213 328.826,533.003 321.087,485.330  "/>
<polygon fill="#2640d3" points="24.756,515.306 567.118,316.190 314.917,477.591  "/>
<polygon fill="#55d1fa" points="291.283,563.913 574.745,199.047 284.970,340.974  "/>
<polygon fill="#3d0280" points="356.340,178.173 85.540,459.757 223.285,376.863  "/>
<polygon fill="#e70458" points="362.419,339.565 507.833,212.971 592.989,403.701  "/>
<polygon fill="#af5e19" points="248.750,397.700 296.619,253.826 221.024,334.566  "/>
<polygon fill="#e88cbd" points="212.572,151.481 362.112,185.061 216.694,351.611  "/>
<polygon fill="#63b8da" points="405.909,395.274 379.388,477.205 565.274,96.294  "/>
<polygon fill="#db2c8a" points="434.929,40.814 31.979,415.911 69.975,84.083  "/>
<polygon fill="#1285b5" points="4.423,270.032 281.679,511.712 202.327,57.905  "/>
<polygon fill="#d5ae42" points="322.818,115.512 64.026,180.971 304.916,295.436  "/>
<polygon fill="#5f5db8" points="462.496,393.265 508.098,368.171 463.740,423.440  "/>
<polygon fill="#0d2f81" points="544.018,294.844 97.497,158.352 441.797,117.412  "/>
<polygon fill="#bf4e13" points="40.398,390.841 593.235,438.258 135.846,423.301  "/>
<polygon fill="#5a0e9b" points="94.966,170.875 316.652,509.185 531.162,23.239  "/>
<polygon fill="#38dd55" points="321.364,242.313 319.747,219.346 447.024,266.829  "/>
<polygon fill="#c7657f" points="241.126,407.340 427.419,566.191 409.917,302.883  "/>
<polygon fill="#be0451" points="182.180,342.306 64.217,529.583 346.290,419.287  "/>
<polygon fill="#13b3de" points="418.990,334.431 53.971,458.859 33.397,500.338  "/>
<polygon fill="#2c7178" points="597.781,262.848 300.086,41.376 71.009,322.926  "/>
<polygon fill="#eef1f8" points="1.817,87.519 328.367,95.129 566.869,500.304  "/>
<polygon fill="#818e47" points="300.323,318.194 461.459,98.416 106.604,211.693  "/>
<polygon fill="#b1e8b2" points="278.765,201.573 223.180,595.869 450.330,502.185  "/>
<polygon fill="#467fa2" points="180.435,195.802 118.093,509.891 453.878,558.669  "/>
<polygon fill="#8e729a" points="92.487,453.123 276.477,47.647 154.061,566.658  "/>
<polygon fill="#158a5c" points="97.874,174.568 530.895,128.212 136.522,125.676  "/>
<polygon fill="#b6e686" points="416.368,312.672 120.756,174.147 163.650,143.004  "/>
<polygon fill="#061e53" points="592.984,241.271 26.489,213.905 294.268,300.069  "/>
<polygon fill="#a3848f" points="507.456,33.050 405.584,458.999 522.708,545.612  "/>
<polygon fill="#eb83b7" points="251.465,531.654 517.929,501.072 426.746,495.479  "/>
<polygon fill="#1cab53" points="179.109,200.069 235.925,430.088 435.252,126.226  "/>
<polygon fill="#21c484" points="449.190,150.276 18.256,252.357 525.711,221.120  "/>
<polygon fill="#1922f6" points="163.367,354.551 478.430,525.984 480.385,31.585  "/>
<polygon fill="#d5a903" points="568.658,500.047 568.908,45.618 579.393,144.023  "/>
<polygon fill="#b2dd43" points="522.367,11.215 167.980,392.754 322.193,378.286  "/>
<polygon fill="#71cef1" points="570.512,123.499 435.645,61.140 255.157,582.860  "/>
<polygon fill="#e7fd8d" points="396.626,594.678 382.969,149.567 194.824,242.350  "/>
<polygon fill="#43aef7" points="143.373,287.351 48.678,253.161 490.411,380.216  "/>
<polygon fill="#de06d3" points="459.745,129.787 248.906,415.094 274.944,405.272  "/>
<polygon fill="#9deb24" points="305.265,599.227 585.192,529.346 360.124,118.483  "/>
<polygon fill="#6b9bb4" points="364.653,452.678 563.597,434.201 540.469,545.859  "/>
<polygon fill="#2e03f7" points="18.011,449.201 328.864,517.278 511.784,530.696  "/>
<polygon fill="#1dc9b6" points="176.728,592.708 250.648,206.016 15.246,299.942  "/>
<polygon fill="#c0c3e0" points="483.800,138.774 186.582,171.673 503.034,340.047  "/>
<polygon fill="#b0ac70" points="23.093,106.506 320.624,428.638 438.412,192.159  "/>
<polygon fill="#72e6c5" points="211.237,131.595 108.560,86.969 40.041,163.980  "/>
<polygon fill="#2c8f33" points="265.075,167.530 464.226,96.247 386.745,277.943  "/>
<polygon fill="#757424" points="364.569,267.176 402.738,81.056 497.892,481.879  "/>
<polygon fill="#618569" points="297.754,223.918 364.537,273.292 315.045,356.607  "/>
<polygon fill="#e5a5ed" points="94.160,278.180 327.595,538.179 289.941,512.661  "/>
<polygon fill="#51745e" points="397.807,235.078 47.724,316.223 297.339,180.540  "/>
<polygon fill="#5b84c5" points="317.695,109.700 470.935,45.212 447.322,393.604  "/>
<polygon fill="#08cdd1" points="65.768,399.635 525.960,246.196 477.333,565.943  "/>
</svg>