<?xml version="1.0" encoding="utf-8"?>
<!-- Generator: Python script. InTeResTinG -->
<!DOCTYPE svg PUBLIC "-//W3C//DTD SVG 1.1//EN" "http://www.w3.org/Graphics/SVG/1.1/DTD/svg11.dtd">
<svg version="1.1" id="Layer_1" xmlns="http://www.w3.org/2000/svg" xmlns:xlink="http://www.w3.org/1999/xlink" x="0px" y="0px" width="600.000px" height="600.000px" viewBox="0 0 600.000 600.000" enable-background="new 0 0 600.000 600.000" xml:space="preserve">
<polygon fill="#c6258d" points="469.856,447.120 33.827,524.721 76.090,120.174  "/>
<polygon fill="#114d66" points="17.343,164.219 232.339,273.513 255.030,255.591  "/>
<polygon fill="#07ab3c" points="87.622,322.748 389.268,85.512 21.943,226.492  "/>
<polygon fill="#bad27b" points="250.355,581.756 309.089,525.524 229.325,494.049  "/>
<polygon fill="#b4128a" points="595.684,477.748 34.810,446.297 47.108,574.985  "/>
<polygon fill="#df2c36" points="91.890,208.107 39.029,84.069 443.762,80.935  "/>
<polygon fill="#10a181" points="128.091,429.343 348.158,598.059 5.294,597.426  "/>
<polygon fill="#0e0b73" points="158.164,297.402 247.030,20.496 16.617,92.010  "/>
<polygon fill="#393174" points="448.244,579.908 293.892,310.077 444.299,487.002  "/>
<polygon fill="#5adb94" points="532.415,29.551 375.134,165.865 550.444,492.210  "/>
<polygon fill="#abbe6a" points="515.274,254.524 536.957,335.548 273.090,294.585  "/>
<polygon fill="#90f533" points="407.652,191.308 23.946,211.377 311.646,511.941  "/>
<polygon fill="#ef10c4" points="212.980,57.916 209.197,381.117 299.384,285.471  "/>
<polygon fill="#c70570" points="386.847,582.341 497.873,271.960 337.449,330.914  "/>
<polygon fill="#da16b4" points="516.532,142.028 340.484,577.136 374.974,595.961  "/>
<polygon fill="#f5f250" points="598.362,333.816 355.762,434.025 487.156,407.440  "/>
<polygon fill="#aa34bf" points="252.553,216.664 458.365,446.061 537.119,50.674  "/>
<polygon fill="#d20a90" points="497.005,260.450 372.316,435.912 513.201,151.911  "/>
<polygon fill="#9a7c06" points="276.370,270.601 367.649,497.592 498.672,463.343  "/>
<polygon fill="#5b1476" points="477.663,550.545 494.699,468.301 294.941,171.286  "/>
<polygon fill="#3e8f71" points="4.219,489.813 558.750,173.816 174.477,533.369  "/>
<polygon fill="#4ba80c" points="46.355,117.013 459.350,356.253 85.493,336.048  "/>
<polygon fill="#6c7afd" points="526.078,205.463 75.789,246.056 212.799,357.047  "/>
<polygon fill="#f44689" points="595.796,311.167 252.170,85.191 467.277,136.241  "/>
<polygon fill="#6d2cae" points="339.477,136.821 257.924,444.030 381.255,454.876  "/>
<polygon fill="#2b7f06" points="396.480,225.392 437.814,107.003 309.128,403.118  "/>
<polygon fill="#7d8630" points="299.227,323.969 53.063,359.256 292.575,225.988  "/>
<polygon fill="#f7db58" points="437.047,131.502 322.201,95.866 381.271,335.425  "/>
<polygon fill="#52acc3" points="488.625,387.052 403.504,348.793 546.467,135.061  "/>
<polygon fill="#c6e375" points="382.125,459.801 410.888,365.797 374.311,199.920  "/>
<polygon fill="#0e2084" points="470.224,552.770 284.590,42.694 294.561,351.749  "/>
<polygon fill="#74a83c" points="119.377,10.695 373.937,406.499 397.674,383.271  "/>
<polygon fill="#8545c6" points="17.209,357.082 126.078,152.977 127.008,462.659  "/>
<polygon fill="#b32538" points="237.283,249.588 377.278,177.646 226.850,527.105  "/>
<polygon fill="#900a60" points="380.521,462.971 269.727,374.642 293.476,51.029  "/>
<polygon fill="#0fce1c" points="2.910,517.179 347.514,438.319 44.031,374.018  "/>
<polygon fill="#25c6a8" points="134.790,25.923 214.502,365.988 531.309,567.596  "/>
<polygon fill="#f4bd92" points="226.827,195.950 45.670,118.435 300.883,462.755  "/>
<polygon fill="#eb548d" points="126.774,518.342 234.659,583.140 160.905,430.942  "/>
<polygon fill="#30f5b1" points="64.140,227.160 262.505,100.397 583.191,81.287  "/>
<polygon fill="#653e04" points="550.069,402.229 38.213,25.740 71.074,566.015  "/>
<polygon fill="#ff95f7" points="71.814,110.409 166.913,150.423 11.115,589.309  "/>
<polygon fill="#5cb03e" points="69.534,20.798 71.195,283.686 378.491,55.588  "/>
<polygon fill="#eaf04c" points="248.826,160.943 277.637,107.535 592.909,568.053  "/>
<polygon fill="#18f3ce" points="191.778,175.742 447.591,569.924 518.897,318.968  "/>
<polygon fill="#2f5014" points="536.251,41.534 88.237,219.882 300.138,383.414  "/>
<polygon fill="#f85e97" points="196.209,12.160 123.011,473.877 214.692,211.179  "/>
<polygon fill="#9603fe" points="508.214,220.689 325.195,357.903 410.538,558.816  "/>
<polygon fill="#5a8412" points="393.521,164.200 159.948,235.235 222.544,419.846  "/>
<polygon fill="#258864" points="498.245,331.528 454.096,428.130 48.909,546.181  "/>
<polygon fill="#4045ae" points="496.431,559.918 231.346,150.983 423.908,587.711  "/>
<polygon fill="#0f8ffe" points="156.199,255.458 168.839,448.258 391.044,102.250  "/>
<polygon fill="#f4ac28" points="399.354,44.128 490.422,532.722 506.335,156.133  "/>
<polygon fill="#ec71f2" points="343.317,468.187 297.025,557.578 231.361,584.681  "/>
<polygon fill="#25004b" points="468.736,354.761 387.186,291.680 537.810,190.556  "/>
<polygon fill="#b86921" points="116.108,57.697 164.051,160.906 259.017,488.371  "/>
<polygon fill="#20ce00" points="597.213,246.198 557.127,380.796 548.791,566.800  "/>
<polygon fill="#89f55e" points="495.058,542.319 321.656,130.620 346.473,7.838  "/>
</svg>