<?xml version="1.0" encoding="utf-8"?>
<!-- Generator: Python script. InTeResTinG -->
<!DOCTYPE svg PUBLIC "-//W3C//DTD SVG 1.1//EN" "http://www.w3.org/Graphics/SVG/1.1/DTD/svg11.dtd">
<svg version="1.1" id="Layer_1" xmlns="http://www.w3.org/2000/svg" xmlns:xlink="http://www.w3.org/1999/xlink" x="0px" y="0px" width="600.000px" height="600.000px" viewBox="0 0 600.000 600.000" enable-background="new 0 0 600.000 600.000" xml:space="preserve">
<polygon fill="#a30d93" points="396.831,366.888 141.088,324.504 331.013,19.570  "/>
<polygon fill="#5cbb73" points="573.864,354.146 109.500,485.328 581.308,515.739  "/>
<polygon fill="#f39bd5" points="188.024,289.238 548.722,299.023 71.057,480.111  "/>
<polygon fill="#fa7736" points="318.823,523.157 422.031,257.514 285.634,594.383  "/>
<polygon fill="#a25ee7" points="37.010,439.438 9.251,84.946 460.057,193.359  "/>
<polygon fill="#31f3c8" points="236.905,6.807 599.389,62.890 117.101,599.905  "/>
<polygon fill="#105caa" points="202.746,5.374 524.035,331.307 447.319,400.277  "/>
<polygon fill="#9e8c05" points="230.121,195.532 548.520,78.986 536.141,474.034  "/>
<polygon fill="#c7620e" points="143.642,40.510 442.292,257.713 488.313,438.258  "/>
<polygon fill="#c6c724" points="255.043,142.432 0.479,1.435 325.636,293.827  "/>
<polygon fill="#608d97" points="209.478,529.854 448.376,435.571 70.861,359.415  "/>
<polygon fill="#015349" points="248.629,303.733 220.458,291.963 555.465,266.333  "/>
<polygon fill="#85b46a" points="50.664,158.365 450.946,194.044 249.700,489.831  "/>
<polygon fill="#1f1bcd" points="439.316,240.559 129.788,561.176 195.452,502.767  "/>
<polygon fill="#be21c1" points="202.722,156.273 334.481,321.834 194.273,309.446  "/>
<polygon fill="#99cdb5" points="196.862,13.829 119.988,307.738 82.376,112.089  "/>
<polygon fill="#d89189" points="95.860,409.113 286.502,1.068 80.466,312.267  "/>
<polygon fill="#811316" points="201.397,41.172 8.457,419.379 99.444,114.533  "/>
<polygon fill="#a9b174" points="529.112,227.240 335.503,119.649 371.422,87.090  "/>
<polygon fill="#6f03e1" points="295.175,284.145 236.794,117.879 88.597,99.842  "/>
<polygon fill="#92163d" points="290.395,415.865 382.821,473.117 586.323,456.751  "/>
<polygon fill="#ed75d0" points="188.715,108.576 92.939,528.276 387.445,241.081  "/>
<polygon fill="#a8d4df" points="30.616,405.433 26.527,500.763 242.658,390.718  "/>
<polygon fill="#602a4f" points="289.873,465.520 282.700,545.136 265.944,229.885  "/>
<polygon fill="#4cb9f6" points="279.478,240.737 344.601,524.562 474.402,533.484  "/>
<polygon fill="#e5079d" points="283.040,172.360 456.531,385.263 126.294,469.686  "/>
<polygon fill="#840705" points="8.453,406.210 89.258,136.213 55.151,179.839  "/>
<polygon fill="#14749a" points="509.751,214.794 555.731,254.024 86.913,127.442  "/>
<polygon fill="#96a95b" points="7.607,521.218 505.984,526.113 223.245,93.759  "/>
<polygon fill="#0cea46" points="151.875,19.524 118.299,406.347 333.959,359.725  "/>
<polygon fill="#beb82c" points="296.006,363.338 343.403,285.046 323.562,507.486  "/>
<polygon fill="#e35306" points="260.811,63.331 219.412,440.027 232.033,514.105  "/>
<polygon fill="#538b30" points="343.490,73.276 206.121,455.602 293.682,493.159  "/>
<polygon fill="#890f79" points="256.510,376.284 210.340,281.036 411.689,199.980  "/>
<polygon fill="#666b64" points="557.348,14.055 312.760,360.953 147.354,412.831  "/>
<polygon fill="#6f42ca" points="14.405,592.409 265.142,481.559 557.728,336.330  "/>
<polygon fill="#530b92" points="399.901,204.926 293.282,140.973 89.082,103.146  "/>
<polygon fill="#635520" points="139.375,171.887 527.355,119.885 253.072,254.597  "/>
<polygon fill="#b91d9b" points="280.213,198.426 262.636,201.826 6.026,594.061  "/>
<polygon fill="#443bff" points="68.531,513.192 139.186,42.189 159.484,493.595  "/>
<polygon fill="#817168" points="373.552,334.716 541.183,134.892 180.721,308.610  "/>
<polygon fill="#a27194" points="102.306,331.043 109.524,378.876 363.843,0.052  "/>
<polygon fill="#0bbca8" points="232.110,264.077 390.986,453.593 493.290,291.948  "/>
<polygon fill="#f530ee" points="403.887,346.585 56.218,334.088 108.029,100.490  "/>
<polygon fill="#b0fa83" points="127.237,116.190 241.301,255.500 45.903,143.977  "/>
<polygon fill="#746a8c" points="453.810,543.946 391.778,171.930 148.974,166.298  "/>
<polygon fill="#b57795" points="518.020,315.616 480.774,576.372 508.685,329.705  "/>
<polygon fill="#81d2a8" points="571.823,369.293 587.019,58.789 14.685,561.614  "/>
<polygon fill="#c6685c" points="300.437,74.205 537.825,95.406 42.134,66.766  "/>
<polygon fill="#aeb496" points="306.502,162.204 85.893,9.048 278.508,528.836  "/>
<polygon fill="#932e1c" points="120.093,498.919 51.055,130.256 457.495,405.890  "/>
<polygon fill="#34c931" points="465.616,165.188 561.120,546.021 325.249,255.895  "/>
<polygon fill="#a1656d" points="169.267,108.090 268.031,394.163 131.327,239.119  "/>
<polygon fill="#b22d03" points="507.744,420.153 258.633,308.913 393.260,435.896  "/>
<polygon fill="#61ed11" points="5.065,530.519 149.654,222.744 333.584,1.519  "/>
<polygon fill="#914d38" points="325.200,153.202 571.603,36.597 197.781,270.545  "/>
<polygon fill="#a611d3" points="436.355,257.843 239.173,172.214 38.394,88.769  "/>
<polygon fill="#61d178" points="2.895,160.556 75.779,295.646 56.939,501.561  "/>
<polygon fill="#a633fb" points="537.720,355.186 570.105,429.962 55.857,134.496  "/>
<polygon fill="#9ac154" points="119.846,433.188 582.761,299.828 207.656,502.592  "/>
<polygon fill="#d322f5" points="270.782,279.447 250.248,480.064 56.544,391.410  "/>
<polygon fill="#5629be" points="11.444,447.632 114.666,76.747 65.027,178.157  "/>
<polygon fill="#f867fe" points="480.049,84.580 301.007,312.126 9.142,482.923  "/>
<polygon fill="#4b3204" points="382.454,353.722 95.441,289.952 337.975,266.447  "/>
<polygon fill="#23de02" points="525.928,391.787 455.899,566.336 27.353,229.730  "/>
</svg>