<?xml version="1.0" encoding="utf-8"?>
<!-- Generator: Python script. InTeResTinG -->
<!DOCTYPE svg PUBLIC "-//W3C//DTD SVG 1.1//EN" "http://www.w3.org/Graphics/SVG/1.1/DTD/svg11.dtd">
<svg version="1.1" id="Layer_1" xmlns="http://www.w3.org/2000/svg" xmlns:xlink="http://www.w3.org/1999/xlink" x="0px" y="0px" width="600.000px" height="600.000px" viewBox="0 0 600.000 600.000" enable-background="new 0 0 600.000 600.000" xml:space="preserve">
<polygon fill="#880e60" points="521.193,426.923 21.682,136.749 46.965,29.692  "/>
<polygon fill="#fa0556" points="350.405,260.812 413.852,568.553 127.814,439.238  "/>
<polygon fill="#2fac0f" points="313.831,347.935 62.818,261.902 163.945,250.261  "/>
<polygon fill="#21246f" points="6.249,540.502 287.274,303.631 414.242,360.031  "/>
<polygon fill="#f51331" points="450.384,77.561 94.193,311.175 533.744,530.819  "/>
<polygon fill="#412ed0" points="105.576,93.033 507.370,521.361 69.558,304.743  "/>
<polygon fill="#858b12" points="399.594,87.695 476.537,390.900 125.918,598.941  "/>
<polygon fill="#ffc78f" points="144.253,482.132 371.185,120.905 27.238,269.177  "/>
<polygon fill="#ade318" points="455.938,184.216 5.261,362.984 4.413,157.979  "/>
<polygon fill="#5d153a" points="11.660,332.362 5.317,367.477 89.013,501.351  "/>
<polygon fill="#4667d3" points="513.639,296.362 441.729,529.261 169.135,452.334  "/>
<polygon fill="#9f6849" points="162.292,272.646 207.449,18.772 463.371,271.277  "/>
<polygon fill="#febda9" points="203.061,457.534 51.870,210.131 232.895,20.572  "/>
<polygon fill="#342f8d" points="353.423,583.549 89.257,13.873 338.026,16.653  "/>
<polygon fill="#ccc932" points="284.876,68.852 5.017,323.557 161.471,41.371  "/>
<polygon fill="#6e6dc9" points="443.687,246.289 394.630,560.660 143.668,305.370  "/>
<polygon fill="#60b91a" points="396.848,496.575 108.860,564.165 326.568,362.660  "/>
<polygon fill="#778bdd" points="326.393,469.542 28.959,214.801 132.281,178.883  "/>
<polygon fill="#d018fe" points="265.148,314.794 336.107,373.642 163.084,162.319  "/>
<polygon fill="#6356f5" points="438.143,510.247 114.351,293.822 365.399,266.924  "/>
<polygon fill="#e73241" points="12.903,221.207 214.150,370.405 242.673,422.788  "/>
<polygon fill="#33687d" points="106.436,434.162 334.776,81.609 396.276,297.707  "/>
<polygon fill="#02029d" points="201.031,347.687 13.447,280.710 502.997,186.019  "/>
<polygon fill="#0aa544" points="582.376,369.020 459.950,414.000 537.192,130.508  "/>
<polygon fill="#ef8a70" points="193.167,202.069 476.615,538.749 158.846,257.316  "/>
<polygon fill="#0f61c2" points="147.843,429.604 61.412,28.940 126.191,65.659  "/>
<polygon fill="#c6de46" points="13.937,49.427 351.164,332.836 388.343,505.521  "/>
<polygon fill="#0b34b4" points="0.401,310.784 384.506,589.868 473.032,303.339  "/>
<polygon fill="#1afb9e" points="379.769,565.187 537.362,293.918 224.901,455.448  "/>
<polygon fill="#f33afc" points="246.549,437.500 33.881,404.806 591.110,80.711  "/>
<polygon fill="#5e977f" points="500.869,327.545 118.105,183.416 131.789,380.974  "/>
<polygon fill="#e20157" points="478.886,458.994 562.515,577.959 366.019,82.581  "/>
<polygon fill="#fd6dd8" points="530.748,371.608 242.866,246.265 92.347,400.385  "/>
<polygon fill="#48c2f8" points="67.713,108.868 144.993,56.721 46.783,146.776  "/>
<polygon fill="#8e7e4c" points="117.779,577.885 164.057,97.479 214.187,571.667  "/>
<polygon fill="#f3fa15" points="577.351,254.667 517.093,74.150 347.895,60.164  "/>
<polygon fill="#abd94f" points="96.325,189.854 408.734,270.540 536.430,591.723  "/>
<polygon fill="#651c27" points="548.732,368.402 269.887,412.454 48.523,199.457  "/>
<polygon fill="#bda4a8" points="122.931,63.538 568.276,441.266 482.359,541.906  "/>
<polygon fill="#355c6b" points="575.463,70.787 322.973,488.801 579.024,493.362  "/>
<polygon fill="#fa1a51" points="247.536,100.767 194.412,7.516 499.616,500.211  "/>
<polygon fill="#a3e712" points="3.624,243.799 1.024,495.746 76.585,500.008  "/>
<polygon fill="#c02598" points="302.364,4.635 204.423,58.752 432.772,99.063  "/>
<polygon fill="#21e31c" points="539.968,140.076 269.506,170.500 127.325,81.138  "/>
<polygon fill="#60bb31" points="423.676,270.485 428.207,312.103 382.068,98.919  "/>
<polygon fill="#9f2d0a" points="314.542,5.141 437.739,81.878 288.991,240.363  "/>
<polygon fill="#9a75ea" points="54.835,493.171 249.686,566.734 232.062,146.920  "/>
<polygon fill="#98489c" points="400.904,558.222 107.114,341.902 544.058,240.957  "/>
<polygon fill="#2a033d" points="457.374,102.517 289.579,362.125 446.642,247.796  "/>
<polygon fill="#f1b9df" points="437.910,421.414 16.539,54.135 192.481,176.245  "/>
<polygon fill="#f8971f" points="243.694,283.286 342.990,352.587 155.108,210.122  "/>
<polygon fill="#fbb8d3" points="336.455,20.950 501.600,595.789 439.646,286.529  "/>
<polygon fill="#d53627" points="390.947,100.132 99.716,499.507 530.135,280.384  "/>
<polygon fill="#0b02c6" points="49.752,167.292 156.764,152.462 597.330,579.610  "/>
<polygon fill="#d73777" points="360.656,180.594 295.448,63.610 111.398,501.062  "/>
<polygon fill="#c27c98" points="192.809,384.127 461.666,50.553 423.404,168.206  "/>
<polygon fill="#ef09a3" points="134.623,48.374 129.451,239.061 7.708,200.811  "/>
<polygon fill="#b43bb3" points="513.415,49.120 412.408,569.110 472.847,240.871  "/>
<polygon fill="#072513" points="586.726,392.163 468.474,60.015 39.716,567.637  "/>
<polygon fill="#18a4ed" points="518.263,134.327 571.486,453.564 322.031,259.680  "/>
<polygon fill="#731aa3" points="544.601,449.602 199.109,308.965 577.676,190.592  "/>
<polygon fill="#0d5374" points="151.266,250.170 183.014,164.439 271.933,492.052  "/>
<polygon fill="#c929ec" points="260.873,441.598 76.894,196.852 287.430,45.767  "/>
<polygon fill="#de98ff" points="427.316,474.793 149.929,347.485 485.647,117.932  "/>
<polygon fill="#36644f" points="194.475,151.462 140.492,425.455 48.618,101.896  "/>
<polygon fill="#7d8795" points="35.415,266.951 275.893,365.366 251.696,364.060  "/>
<polygon fill="#f3f6d9" points="279.038,194.142 267.586,91.958 501.165,187.633  "/>
</svg>