<?xml version="1.0" encoding="utf-8"?>
<!-- Generator: Python script. InTeResTinG -->
<!DOCTYPE svg PUBLIC "-//W3C//DTD SVG 1.1//EN" "http://www.w3.org/Graphics/SVG/1.1/DTD/svg11.dtd">
<svg version="1.1" id="Layer_1" xmlns="http://www.w3.org/2000/svg" xmlns:xlink="http://www.w3.org/1999/xlink" x="0px" y="0px" width="600.000px" height="600.000px" viewBox="0 0 600.000 600.000" enable-background="new 0 0 600.000 600.000" xml:space="preserve">
<polygon fill="#50d837" points="89.013,271.321 383.040,77.486 238.531,564.140  "/>
<polygon fill="#799db5" points="41.051,491.385 243.825,21.343 26.678,387.750  "/>
<polygon fill="#be9230" points="138.002,473.326 368.945,401.810 378.718,493.486  "/>
<polygon fill="#8ceeb3" points="323.948,594.495 561.471,155.320 314.950,20.952  "/>
<polygon fill="#b5b584" points="332.567,381.846 465.048,291.507 53.592,584.690  "/>
<polygon fill="#e654cd" points="304.120,173.826 218.554,191.003 5.106,495.811  "/>
<polygon fill="#5529ef" points="368.788,370.833 187.861,201.399 31.754,504.745  "/>
<polygon fill="#9e3c9b" points="103.707,555.880 61.437,112.121 516.746,180.658  "/>
<polygon fill="#3033d1" points="431.298,465.733 237.014,597.028 77.543,273.259  "/>
<polygon fill="#d5dee4" points="119.566,320.389 179.985,440.864 11.134,286.936  "/>
<polygon fill="#dd066f" points="182.396,140.133 151.351,274.836 508.471,262.967  "/>
<polygon fill="#36d0db" points="580.929,465.227 291.999,55.308 488.567,2.155  "/>
<polygon fill="#036a0c" points="236.458,582.633 116.686,431.640 573.155,209.207  "/>
<polygon fill="#141c33" points="25.203,79.575 274.430,259.929 466.838,209.294  "/>
<polygon fill="#9fcb21" points="195.131,572.905 456.304,40.078 51.112,187.846  "/>
<polygon fill="#0717cf" points="504.749,98.313 572.305,414.850 321.434,219.244  "/>
<polygon fill="#87fc71" points="373.224,304.550 576.203,336.807 515.777,592.791  "/>
<polygon fill="#68b4ba" points="419.967,412.766 441.394,65.468 32.140,290.665  "/>
<polygon fill="#123835" points="473.207,30.927 14.571,443.906 550.263,360.572  "/>
<polygon fill="#c517c1" points="467.949,381.660 170.495,416.172 11.431,36.790  "/>
<polygon fill="#fd7a3a" points="94.161,54.054 482.506,355.716 560.886,127.615  "/>
<polygon fill="#2c7156" points="146.510,142.969 232.595,598.685 377.180,393.855  "/>
<polygon fill="#d88081" points="427.856,200.320 26.676,543.500 9.627,114.339  "/>
<polygon fill="#4c7171" points="518.833,157.452 457.225,518.253 100.233,46.464  "/>
<polygon fill="#13868a" points="364.922,110.941 564.905,254.760 355.437,117.428  "/>
<polygon fill="#71358f" points="409.145,284.199 175.647,25.626 423.406,338.198  "/>
<polygon fill="#19f205" points="437.744,512.861 394.802,362.262 94.672,327.995  "/>
<polygon fill="#3bb2ec" points="455.971,245.136 132.975,405.092 138.683,266.931  "/>
<polygon fill="#ed5aab" points="187.412,194.964 296.900,90.690 230.140,384.916  "/>
<polygon fill="#847a39" points="301.828,495.088 175.858,528.936 508.461,576.136  "/>
<polygon fill="#35a4e1" points="225.343,156.768 260.083,260.758 22.582,198.446  "/>
<polygon fill="#231dc5" points="565.912,209.775 113.487,240.068 491.567,346.961  "/>
<polygon fill="#df7a96" points="426.372,519.340 32.164,132.453 368.002,190.583  "/>
<polygon fill="#146d5f" points="502.782,63.491 65.346,537.754 417.817,405.250  "/>
<polygon fill="#6cea86" points="96.784,350.962 509.355,235.020 592.761,226.416  "/>
<polygon fill="#1fa48c" points="533.101,482.303 236.942,473.509 403.157,180.985  "/>
<polygon fill="#b5e70e" points="486.513,260.732 134.401,168.529 458.869,297.722  "/>
<polygon fill="#f9b445" points="41.580,94.485 488.602,266.888 565.350,121.637  "/>
<polygon fill="#26b990" points="43.360,462.640 29.519,323.964 516.922,145.152  "/>
<polygon fill="#4e27a3" points="380.326,207.688 546.857,318.808 561.947,526.620  "/>
<polygon fill="#2d3b3f" points="379.151,449.346 543.547,338.488 448.110,296.642  "/>
<polygon fill="#3675ef" points="25.856,200.206 290.150,432.310 213.264,567.834  "/>
<polygon fill="#f6a8f6" points="333.970,503.199 346.026,475.773 143.349,324.234  "/>
<polygon fill="#29fbe4" points="337.212,172.586 202.841,282.024 411.546,202.479  "/>
<polygon fill="#cb2ca0" points="199.181,530.313 427.683,114.484 223.558,350.016  "/>
<polygon fill="#336644" points="21.375,183.330 57.094,418.950 593.185,189.261  "/>
<polygon fill="#c39790" points="538.256,282.265 125.379,594.446 72.133,429.361  "/>
<polygon fill="#8efaa8" points="583.718,488.450 454.212,34.572 100.418,281.918  "/>
<polygon fill="#eba8eb" points="4.525,483.095 421.654,111.372 136.070,37.035  "/>
<polygon fill="#322cd4" points="30.121,85.278 522.247,137.614 16.042,253.447  "/>
<polygon fill="#6fd7e9" points="560.228,532.851 474.658,388.402 532.031,441.918  "/>
<polygon fill="#e3ad2e" points="144.665,5.936 109.966,330.475 256.577,277.440  "/>
<polygon fill="#d9dd66" points="190.826,182.757 464.326,313.453 319.341,539.306  "/>
<polygon fill="#7bc5f8" points="209.441,86.048 93.107,481.009 437.276,235.748  "/>
<polygon fill="#9d4b5c" points="65.891,466.262 226.713,310.263 336.745,504.510  "/>
<polygon fill="#4351ed" points="356.193,423.607 492.687,557.924 498.667,290.513  "/>
<polygon fill="#be503c" points="186.225,502.999 304.332,269.780 422.846,414.685  "/>
<polygon fill="#de3d45" points="541.586,215.637 133.065,546.893 398.017,194.669  "/>
<polygon fill="#f1957d" points="499.942,444.658 125.467,25.420 591.678,233.889  "/>
<polygon fill="#621e9e" points="252.444,194.911 5.256,285.860 300.320,483.682  "/>
<polygon fill="#a96024" points="232.057,206.065 289.441,476.713 164.837,489.391  "/>
<polygon fill="#02f181" points="110.309,212.681 289.395,581.883 215.891,306.807  "/>
</svg>