<?xml version="1.0" encoding="utf-8"?>
<!-- Generator: Python script. InTeResTinG -->
<!DOCTYPE svg PUBLIC "-//W3C//DTD SVG 1.1//EN" "http://www.w3.org/Graphics/SVG/1.1/DTD/svg11.dtd">
<svg version="1.1" id="Layer_1" xmlns="http://www.w3.org/2000/svg" xmlns:xlink="http://www.w3.org/1999/xlink" x="0px" y="0px" width="600.000px" height="600.000px" viewBox="0 0 600.000 600.000" enable-background="new 0 0 600.000 600.000" xml:space="preserve">
<polygon fill="#60c828" points="213.532,312.612 541.293,561.939 586.842,471.787  "/>
<polygon fill="#546692" points="432.285,419.851 164.727,318.843 113.088,221.992  "/>
<polygon fill="#79ab3f" points="393.893,200.035 230.115,578.193 225.922,591.085  "/>
<polygon fill="#9d49b5" points="354.043,420.117 451.971,570.276 250.961,515.666  "/>
<polygon fill="#b8d284" points="371.176,205.120 362.008,406.543 146.490,141.057  "/>
<polygon fill="#34385c" points="346.306,431.473 132.340,293.355 346.939,204.218  "/>
<polygon fill="#ad6d21" points="448.953,546.321 315.977,154.503 568.632,570.637  "/>
<polygon fill="#0cccc6" points="174.307,501.228 82.488,242.323 574.928,420.281  "/>
<polygon fill="#2e6832" points="157.249,580.349 431.346,46.080 55.651,124.692  "/>
<polygon fill="#e030c3" points="167.807,401.694 323.089,20.539 518.664,188.912  "/>
<polygon fill="#644f55" points="283.184,580.632 96.449,31.825 153.928,83.295  "/>
<polygon fill="#cb896d" points="280.740,336.781 274.888,412.052 12.149,83.101  "/>
<polygon fill="#a37f02" points="321.050,285.995 317.987,377.140 301.064,50.862  "/>
<polygon fill="#03c768" points="427.024,460.718 10.989,135.602 341.456,95.251  "/>
<polygon fill="#af7a3f" points="311.461,333.558 449.407,480.491 113.713,120.649  "/>
<polygon fill="#a67036" points="482.765,493.425 69.264,118.240 71.132,344.164  "/>
<polygon fill="#f55a96" points="348.803,427.755 508.796,192.716 302.697,524.649  "/>
<polygon fill="#dc07cf" points="185.865,191.018 1.896,559.448 373.717,6.666  "/>
<polygon fill="#f61017" points="26.907,549.514 243.015,119.632 282.578,259.958  "/>
<polygon fill="#4b3cec" points="591.925,122.172 230.437,132.880 544.400,275.847  "/>
<polygon fill="#305796" points="150.442,148.640 49.728,45.425 136.857,463.613  "/>
<polygon fill="#65234c" points="203.489,240.888 69.273,471.824 356.319,369.854  "/>
<polygon fill="#73106c" points="174.487,24.384 414.732,556.211 250.683,447.363  "/>
<polygon fill="#864f26" points="335.070,59.483 37.670,489.017 488.354,466.256  "/>
<polygon fill="#4c84aa" points="23.293,220.173 223.871,507.226 272.550,83.014  "/>
<polygon fill="#44a850" points="5.925,150.886 112.709,457.435 416.866,191.767  "/>
<polygon fill="#095d53" points="434.111,64.651 316.043,382.042 67.688,493.755  "/>
<polygon fill="#ad4f19" points="253.478,455.463 172.187,1.549 379.577,104.749  "/>
<polygon fill="#bf2251" points="134.359,436.750 100.746,193.866 331.087,542.431  "/>
<polygon fill="#18677c" points="443.756,49.918 165.100,155.360 48.010,104.106  "/>
<polygon fill="#b04e14" points="458.824,115.806 12.407,511.508 94.110,252.752  "/>
<polygon fill="#ee0b3e" points="489.554,368.280 77.441,328.257 91.730,164.989  "/>
<polygon fill="#3d48d3" points="535.219,30.890 259.731,180.308 248.947,120.786  "/>
<polygon fill="#324247" points="140.501,38.424 367.540,390.096 141.830,177.851  "/>
<polygon fill="#4e184b" points="549.498,27.034 467.582,135.477 41.552,259.549  "/>
<polygon fill="#ea64fd" points="373.067,599.248 74.485,371.675 79.549,441.838  "/>
<polygon fill="#b76fc4" points="103.146,243.088 407.309,264.502 304.220,109.339  "/>
<polygon fill="#b8bb92" points="226.750,125.631 532.109,592.133 330.820,216.776  "/>
<polygon fill="#98a1d6" points="439.111,596.396 327.010,246.242 139.084,54.945  "/>
<polygon fill="#ca68bd" points="131.763,345.796 485.982,302.408 495.029,525.436  "/>
<polygon fill="#714f54" points="76.236,2.028 363.795,531.112 80.385,159.444  "/>
<polygon fill="#22b987" points="541.955,404.804 458.248,291.965 481.533,245.051  "/>
<polygon fill="#b18010" points="125.133,23.025 246.342,539.792 94.038,236.853  "/>
<polygon fill="#99cd57" points="318.393,63.761 432.589,54.909 388.950,505.119  "/>
<polygon fill="#5fbd61" points="545.292,353.520 430.419,515.449 353.212,403.811  "/>
<polygon fill="#410f63" points="140.762,151.404 289.456,132.564 80.277,553.201  "/>
<polygon fill="#964335" points="345.191,499.297 405.993,80.281 199.476,350.903  "/>
<polygon fill="#6e10f4" points="224.987,199.022 433.467,81.533 490.856,501.580  "/>
<polygon fill="#1b5516" points="384.149,155.523 106.058,123.902 245.505,71.302  "/>
<polygon fill="#262d78" points="19.533,381.892 572.479,179.158 8.532,401.396  "/>
<polygon fill="#d81056" points="85.570,397.298 537.478,356.913 298.867,224.245  "/>
<polygon fill="#d292f4" points="368.103,64.212 22.315,569.012 455.954,509.003  "/>
<polygon fill="#f4061c" points="565.203,346.272 475.211,357.115 572.932,588.942  "/>
<polygon fill="#d26f6e" points="95.235,548.104 126.275,516.870 564.167,452.864  "/>
<polygon fill="#d79fe9" points="474.634,487.631 144.101,267.102 418.075,214.289  "/>
<polygon fill="#e06970" points="497.461,194.461 126.280,59.349 337.524,556.036  "/>
<polygon fill="#3925db" points="283.159,447.295 330.036,541.646 108.983,274.138  "/>
</svg>