<?xml version="1.0" encoding="utf-8"?>
<!-- Generator: Python script. InTeResTinG -->
<!DOCTYPE svg PUBLIC "-//W3C//DTD SVG 1.1//EN" "http://www.w3.org/Graphics/SVG/1.1/DTD/svg11.dtd">
<svg version="1.1" id="Layer_1" xmlns="http://www.w3.org/2000/svg" xmlns:xlink="http://www.w3.org/1999/xlink" x="0px" y="0px" width="600.000px" height="600.000px" viewBox="0 0 600.000 600.000" enable-background="new 0 0 600.000 600.000" xml:space="preserve">
<polygon fill="#dbee1b" points="341.010,289.765 336.525,266.471 465.939,160.692  "/>
<polygon fill="#c4e8aa" points="218.037,582.290 455.895,387.802 47.474,172.696  "/>
<polygon fill="#b1cf84" points="220.588,457.155 461.212,463.225 193.527,580.908  "/>
<polygon fill="#2c97f0" points="427.761,120.461 255.712,118.270 378.643,72.619  "/>
<polygon fill="#6aec8a" points="378.697,217.673 25.246,529.907 164.342,212.940  "/>
<polygon fill="#045dfd" points="168.913,293.671 78.166,71.653 73.956,432.868  "/>
<polygon fill="#fb5c4a" points="358.976,149.401 68.278,406.144 46.479,215.627  "/>
<polygon fill="#d46b99" points="211.645,37.425 518.603,71.507 430.639,412.477  "/>
<polygon fill="#06a73c" points="401.021,126.799 262.548,560.395 92.089,279.250  "/>
<polygon fill="#4f43f9" points="405.439,39.405 363.657,35.507 31.947,49.565  "/>
<polygon fill="#db477b" points="543.277,8.373 418.133,214.128 59.895,395.529  "/>
<polygon fill="#65a9e1" points="159.960,33.154 220.835,177.510 206.768,537.848  "/>
<polygon fill="#de5994" points="149.742,317.104 198.460,139.315 108.308,306.439  "/>
<polygon fill="#a076e1" points="49.540,238.600 115.128,96.391 597.135,451.525  "/>
<polygon fill="#cd02c3" points="273.501,292.199 132.130,570.158 241.183,332.481  "/>
<polygon fill="#7cc3e8" points="346.167,195.304 90.189,94.246 363.476,591.279  "/>
<polygon fill="#2b9228" points="460.207,405.985 526.524,260.989 492.725,189.253  "/>
<polygon fill="#ebda65" points="28.679,262.700 224.776,222.886 242.045,589.205  "/>
<polygon fill="#766b82" points="131.088,148.224 269.303,278.008 300.959,371.874  "/>
<polygon fill="#f57db0" points="24.453,278.489 374.395,412.818 487.330,475.033  "/>
<polygon fill="#c80ebd" points="593.972,58.818 245.473,147.031 446.250,28.776  "/>
<polygon fill="#e8812c" points="231.124,322.577 274.370,276.931 86.077,583.915  "/>
<polygon fill="#aa801b" points="251.049,290.802 417.609,152.050 230.099,342.598  "/>
<polygon fill="#ea657b" points="122.210,319.367 492.246,560.744 547.935,377.836  "/>
<polygon fill="#e2e889" points="115.788,310.301 77.101,225.249 355.794,272.205  "/>
<polygon fill="#365dae" points="327.502,564.757 285.450,217.799 224.544,438.878  "/>
<polygon fill="#0c4384" points="489.566,274.511 570.902,54.365 323.792,243.697  "/>
<polygon fill="#b5cd37" points="34.704,320.186 572.822,417.481 275.490,213.705  "/>
<polygon fill="#3a11d6" points="57.294,428.907 528.119,64.018 400.241,366.291  "/>
<polygon fill="#f58fd1" points="473.316,414.053 139.978,258.996 561.327,412.670  "/>
<polygon fill="#543dce" points="249.268,117.856 399.950,267.671 104.761,518.792  "/>
<polygon fill="#077042" points="159.321,48.706 419.842,424.403 542.760,570.962  "/>
<polygon fill="#a536a0" points="97.868,227.690 272.068,156.034 573.049,183.942  "/>
<polygon fill="#fa6e12" points="348.281,260.597 380.425,585.837 512.049,386.021  "/>
<polygon fill="#d49c5e" points="182.319,284.184 85.473,59.538 374.399,315.186  "/>
<polygon fill="#a138d0" points="571.429,290.536 537.149,425.010 88.048,30.459  "/>
<polygon fill="#b86c3e" points="551.054,123.499 435.752,165.969 553.988,14.177  "/>
<polygon fill="#15a2d6" points="358.430,286.805 190.162,494.250 414.032,171.582  "/>
<polygon fill="#395072" points="595.111,276.089 440.266,16.107 567.653,480.077  "/>
<polygon fill="#29b9db" points="566.494,92.972 90.202,334.572 473.267,155.036  "/>
<polygon fill="#1f71df" points="345.816,361.829 552.513,208.547 255.066,422.561  "/>
<polygon fill="#0193b9" points="503.214,500.149 131.461,529.601 172.413,404.149  "/>
<polygon fill="#e00c84" points="421.910,572.222 381.727,492.147 169.910,73.176  "/>
<polygon fill="#c5f5c6" points="440.116,330.444 222.606,199.640 29.446,478.109  "/>
<polygon fill="#841413" points="257.420,481.449 154.129,500.724 342.008,238.170  "/>
<polygon fill="#face0b" points="113.353,300.360 10.523,33.659 59.560,273.008  "/>
<polygon fill="#f80f25" points="33.199,82.217 545.864,485.911 576.639,472.927  "/>
<polygon fill="#20d845" points="55.784,18.015 579.207,182.980 506.553,77.305  "/>
<polygon fill="#5cdaaa" points="599.669,47.144 209.390,370.743 143.496,277.111  "/>
<polygon fill="#f7b467" points="462.473,107.479 556.849,442.874 389.382,426.377  "/>
<polygon fill="#58d5db" points="193.943,417.167 246.886,490.374 530.543,166.086  "/>
<polygon fill="#1bb142" points="317.330,324.739 151.715,9.782 323.434,329.514  "/>
<polygon fill="#fd3e12" points="161.223,139.890 446.442,31.801 563.946,429.393  "/>
<polygon fill="#5c103d" points="102.259,327.323 147.197,569.143 109.248,57.089  "/>
<polygon fill="#386df1" points="491.264,151.421 500.859,78.758 409.990,316.625  "/>
<polygon fill="#aa04b1" points="476.540,198.441 140.707,195.582 187.525,378.511  "/>
<polygon fill="#2691fd" points="160.766,551.223 154.995,394.735 204.640,137.962  "/>
<polygon fill="#fa3298" points="324.639,409.528 468.296,32.511 596.919,384.155  "/>
</svg>