<?xml version="1.0" encoding="utf-8"?>
<!-- Generator: Python script. InTeResTinG -->
<!DOCTYPE svg PUBLIC "-//W3C//DTD SVG 1.1//EN" "http://www.w3.org/Graphics/SVG/1.1/DTD/svg11.dtd">
<svg version="1.1" id="Layer_1" xmlns="http://www.w3.org/2000/svg" xmlns:xlink="http://www.w3.org/1999/xlink" x="0px" y="0px" width="600.000px" height="600.000px" viewBox="0 0 600.000 600.000" enable-background="new 0 0 600.000 600.000" xml:space="preserve">
<polygon fill="#0a33c0" points="565.799,458.356 485.305,208.119 184.481,236.237  "/>
<polygon fill="#db1563" points="333.159,285.250 535.296,101.688 491.564,529.539  "/>
<polygon fill="#e19d8c" points="494.297,447.300 2.593,555.148 301.211,347.940  "/>
<polygon fill="#613996" points="472.623,322.698 426.693,185.192 597.093,192.455  "/>
<polygon fill="#575ffe" points="412.120,450.032 173.319,436.920 203.583,544.140  "/>
<polygon fill="#e17836" points="231.034,454.944 126.360,8.788 494.172,433.274  "/>
<polygon fill="#1c582b" points="284.350,315.110 184.436,496.932 23.649,56.777  "/>
<polygon fill="#49bc15" points="522.730,562.000 10.029,433.046 180.712,272.774  "/>
<polygon fill="#cb93a9" points="549.866,293.420 247.580,504.193 263.963,460.974  "/>
<polygon fill="#d697c7" points="544.710,462.855 35.636,517.181 39.580,233.936  "/>
<polygon fill="#682b13" points="144.176,365.789 77.857,173.028 337.750,8.859  "/>
<polygon fill="#d339ef" points="262.321,14.702 496.372,426.900 565.836,56.191  "/>
<polygon fill="#08e111" points="275.996,36.922 405.795,335.979 313.772,397.962  "/>
<polygon fill="#e21e4f" points="368.652,273.353 504.496,183.965 292.791,187.901  "/>
<polygon fill="#1a0f36" points="3.352,384.108 73.734,375.962 366.047,518.046  "/>
<polygon fill="#6425a3" points="418.038,68.086 310.355,34.511 88.504,331.756  "/>
<polygon fill="#3ff101" points="48.061,140.138 51.334,207.499 293.980,111.063  "/>
<polygon fill="#b0e49e" points="478.371,513.879 302.932,73.325 217.394,73.808  "/>
<polygon fill="#75a09d" points="275.064,158.574 119.326,446.474 301.668,511.474  "/>
<polygon fill="#7fd121" points="338.015,42.907 197.728,171.494 187.029,169.090  "/>
<polygon fill="#6d497b" points="59.225,513.141 535.998,5.147 352.243,386.190  "/>
<polygon fill="#8dcd87" points="54.275,482.014 252.085,311.893 61.356,520.774  "/>
<polygon fill="#df8e7e" points="412.947,350.073 12.784,547.061 22.243,496.308  "/>
<polygon fill="#0380a0" points="4.714,167.188 306.818,53.870 254.389,373.850  "/>
<polygon fill="#9766dc" points="293.075,162.527 382.387,167.703 126.707,413.748  "/>
<polygon fill="#20ded0" points="414.465,30.804 564.676,512.412 423.268,502.340  "/>
<polygon fill="#f79e34" points="109.243,325.134 443.619,130.473 586.994,378.646  "/>
<polygon fill="#577902" points="593.074,329.871 7.710,537.561 64.198,396.950  "/>
<polygon fill="#38cd9e" points="110.857,251.426 387.826,117.964 76.755,83.158  "/>
<polygon fill="#3d3f25" points="145.893,230.268 500.483,281.830 471.049,312.481  "/>
<polygon fill="#ca7e86" points="228.117,286.249 315.769,494.375 53.222,100.369  "/>
<polygon fill="#7ac34c" points="540.728,392.039 318.332,456.670 385.794,26.922  "/>
<polygon fill="#f9d050" points="386.980,59.223 209.469,292.908 325.180,195.831  "/>
<polygon fill="#633dd1" points="323.864,105.598 482.302,140.220 212.816,431.047  "/>
<polygon fill="#6d7315" points="284.418,393.105 78.942,139.301 518.873,526.276  "/>
<polygon fill="#7056b1" points="418.804,550.769 499.680,524.334 131.231,144.761  "/>
<polygon fill="#361502" points="185.232,161.054 410.988,524.668 528.858,323.949  "/>
<polygon fill="#2a155b" points="383.058,340.281 104.538,198.336 259.914,595.062  "/>
<polygon fill="#cdcac3" points="227.157,586.424 538.798,279.671 467.985,55.680  "/>
<polygon fill="#7008fc" points="532.164,229.410 182.070,231.921 413.046,237.591  "/>
<polygon fill="#90650f" points="288.530,327.014 389.222,61.087 395.814,41.112  "/>
<polygon fill="#8650aa" points="99.808,301.226 214.781,401.622 121.988,599.525  "/>
<polygon fill="#6b507a" points="463.938,582.502 301.763,278.200 595.333,135.135  "/>
<polygon fill="#4d556e" points="129.587,377.290 153.506,46.902 267.971,557.131  "/>
<polygon fill="#45ced6" points="398.224,206.499 26.091,518.105 464.056,573.851  "/>
<polygon fill="#054dd3" points="320.666,360.848 93.590,381.469 77.692,564.736  "/>
<polygon fill="#6e3576" points="443.291,447.921 446.541,270.531 310.916,291.766  "/>
<polygon fill="#415bad" points="213.210,190.906 291.205,236.363 411.461,525.910  "/>
<polygon fill="#715040" points="500.165,377.253 443.817,457.950 411.593,197.954  "/>
<polygon fill="#b49606" points="154.648,591.948 583.472,230.743 363.877,252.836  "/>
<polygon fill="#deb2f1" points="86.989,447.499 498.688,304.087 6.274,287.839  "/>
<polygon fill="#f6ab1f" points="68.086,90.498 154.858,451.292 390.058,253.119  "/>
<polygon fill="#20bdbf" points="480.045,120.219 162.606,382.386 443.098,430.056  "/>
<polygon fill="#7e070f" points="365.897,43.840 152.098,434.794 241.322,461.637  "/>
<polygon fill="#aa94bc" points="550.616,162.154 333.996,83.259 395.334,295.315  "/>
<polygon fill="#4cf5b1" points="582.555,571.113 524.041,253.613 444.222,309.894  "/>
<polygon fill="#e92271" points="419.427,291.944 111.120,392.075 565.545,444.955  "/>
</svg>