<?xml version="1.0" encoding="utf-8"?>
<!-- Generator: Python script. InTeResTinG -->
<!DOCTYPE svg PUBLIC "-//W3C//DTD SVG 1.1//EN" "http://www.w3.org/Graphics/SVG/1.1/DTD/svg11.dtd">
<svg version="1.1" id="Layer_1" xmlns="http://www.w3.org/2000/svg" xmlns:xlink="http://www.w3.org/1999/xlink" x="0px" y="0px" width="600.000px" height="600.000px" viewBox="0 0 600.000 600.000" enable-background="new 0 0 600.000 600.000" xml:space="preserve">
<polygon fill="#d5fd08" points="487.981,159.696 401.893,232.047 536.102,572.496  "/>
<polygon fill="#7cd572" points="467.152,556.478 211.566,84.014 589.300,506.979  "/>
<polygon fill="#501f70" points="227.626,337.300 310.999,465.630 173.538,401.596  "/>
<polygon fill="#0a1e2d" points="371.405,105.372 391.221,17.935 20.082,398.860  "/>
<polygon fill="#35e998" points="221.046,581.935 117.354,65.200 303.579,79.963  "/>
<polygon fill="#450ada" points="113.324,396.433 139.829,544.692 492.829,84.760  "/>
<polygon fill="#65f3ad" points="130.657,360.718 373.856,5.873 287.638,212.095  "/>
<polygon fill="#17174c" points="216.404,346.070 572.680,143.691 7.388,434.288  "/>
<polygon fill="#d0fb6a" points="384.622,19.767 503.119,213.637 393.219,309.200  "/>
<polygon fill="#a041e0" points="370.363,222.611 272.638,211.199 6.287,31.612  "/>
<polygon fill="#20b30b" points="384.207,593.125 35.183,407.639 505.849,555.876  "/>
<polygon fill="#081085" points="132.425,274.121 555.563,349.940 49.191,307.926  "/>
<polygon fill="#8c06af" points="480.579,384.058 550.085,121.315 515.690,587.500  "/>
<polygon fill="#bfc0ad" points="489.745,52.095 164.376,54.714 126.122,394.603  "/>
<polygon fill="#ef854d" points="451.522,122.091 569.073,346.133 325.435,159.379  "/>
<polygon fill="#0b21b5" points="180.150,529.585 16.933,347.105 265.125,498.975  "/>
<polygon fill="#d4cd49" points="249.483,126.383 444.907,332.700 440.483,523.708  "/>
<polygon fill="#b5e92c" points="500.957,577.079 130.022,523.129 597.803,437.470  "/>
<polygon fill="#aeb9c4" points="87.816,187.557 175.582,273.745 227.836,147.157  "/>
<polygon fill="#4ad543" points="429.068,304.561 501.396,11.654 129.359,202.308  "/>
<polygon fill="#af7e07" points="235.000,259.772 467.454,598.993 337.938,549.865  "/>
<polygon fill="#8ccf78" points="3.172,167.479 151.370,421.643 490.247,213.311  "/>
<polygon fill="#d51d9e" points="395.070,221.752 325.771,437.057 28.001,350.875  "/>
<polygon fill="#27edf7" points="23.490,343.088 63.836,66.087 260.641,224.617  "/>
<polygon fill="#441774" points="406.103,162.139 446.899,464.257 558.155,234.175  "/>
<polygon fill="#374b20" points="339.437,406.200 512.753,384.248 366.171,98.560  "/>
<polygon fill="#82da3b" points="489.920,371.680 137.451,184.794 229.193,535.173  "/>
<polygon fill="#65476e" points="400.643,142.819 108.416,33.732 218.939,583.480  "/>
<polygon fill="#706a3f" points="208.191,444.607 555.569,290.035 178.398,478.326  "/>
<polygon fill="#c39f12" points="282.306,381.903 3.587,441.366 548.429,29.435  "/>
<polygon fill="#0c9084" points="249.976,78.459 135.770,597.299 349.496,330.535  "/>
<polygon fill="#e8bf76" points="295.258,81.123 234.568,466.736 386.413,583.083  "/>
<polygon fill="#d2c329" points="531.329,200.018 365.472,69.494 96.350,353.678  "/>
<polygon fill="#fc36a2" points="279.783,63.715 271.427,586.962 67.166,165.417  "/>
<polygon fill="#f0bdb4" points="8.691,430.119 580.707,319.865 62.707,134.007  "/>
<polygon fill="#f098e2" points="30.610,8.885 458.942,565.105 123.050,66.907  "/>
<polygon fill="#ae6d47" points="73.253,122.652 28.307,96.556 32.833,143.469  "/>
<polygon fill="#9bf0eb" points="2.663,348.098 325.468,7.006 455.631,461.491  "/>
<polygon fill="#a214d6" points="553.168,222.708 503.406,405.074 573.050,383.836  "/>
<polygon fill="#aeeca9" points="1.659,57.736 515.567,480.463 234.272,144.018  "/>
<polygon fill="#1a03c5" points="550.707,128.858 486.843,143.076 94.119,331.392  "/>
<polygon fill="#a09575" points="511.570,269.196 180.207,437.436 76.068,4.404  "/>
<polygon fill="#242768" points="425.607,88.290 248.296,336.646 196.522,492.621  "/>
<polygon fill="#d1274d" points="164.937,145.100 118.953,436.169 153.386,495.038  "/>
<polygon fill="#7ff40d" points="531.341,298.292 570.120,177.191 296.130,503.902  "/>
<polygon fill="#108724" points="423.887,68.357 230.641,535.793 222.075,317.180  "/>
<polygon fill="#1d72ec" points="190.517,314.934 109.117,105.105 116.594,372.424  "/>
<polygon fill="#005acc" points="105.927,486.712 426.704,592.033 119.516,4.358  "/>
<polygon fill="#cb9144" points="246.725,501.031 293.724,124.928 457.963,145.095  "/>
<polygon fill="#a09646" points="183.643,599.309 453.226,222.760 205.121,456.716  "/>
<polygon fill="#858835" points="572.234,455.106 216.800,573.278 221.295,374.485  "/>
<polygon fill="#c02862" points="492.990,549.595 596.853,411.532 291.941,531.192  "/>
<polygon fill="#92ae33" points="147.902,112.914 159.584,230.265 297.517,378.773  "/>
<polygon fill="#ade7a2" points="329.840,429.034 172.644,466.590 113.571,162.006  "/>
</svg>