<?xml version="1.0" encoding="utf-8"?>
<!-- Generator: Python script. InTeResTinG -->
<!DOCTYPE svg PUBLIC "-//W3C//DTD SVG 1.1//EN" "http://www.w3.org/Graphics/SVG/1.1/DTD/svg11.dtd">
<svg version="1.1" id="Layer_1" xmlns="http://www.w3.org/2000/svg" xmlns:xlink="http://www.w3.org/1999/xlink" x="0px" y="0px" width="600.000px" height="600.000px" viewBox="0 0 600.000 600.000" enable-background="new 0 0 600.000 600.000" xml:space="preserve">
<polygon fill="#f7befe" points="291.718,341.671 226.881,208.488 378.115,79.557  "/>
<polygon fill="#b26978" points="40.438,407.028 264.291,247.029 348.743,543.823  "/>
<polygon fill="#423e51" points="98.530,439.762 50.248,381.841 564.241,484.267  "/>
<polygon fill="#5d8e72" points="433.208,158.403 128.829,361.139 492.816,134.376  "/>
<polygon fill="#456017" points="63.278,271.252 440.118,216.970 333.621,446.396  "/>
<polygon fill="#854caa" points="382.819,506.587 401.531,537.446 501.454,218.080  "/>
<polygon fill="#ee915a" points="96.147,589.237 388.287,336.046 390.998,225.709  "/>
<polygon fill="#30098b" points="16.997,0.505 259.012,579.276 270.357,300.228  "/>
<polygon fill="#2234ce" points="547.303,463.101 348.177,275.547 537.466,286.762  "/>
<polygon fill="#12b4fa" points="393.498,553.626 529.080,128.808 423.157,124.772  "/>
<polygon fill="#b5a9fa" points="428.886,238.163 556.374,67.018 550.298,374.200  "/>
<polygon fill="#266a76" points="526.385,210.594 386.265,509.048 70.264,199.240  "/>
<polygon fill="#011dba" points="399.888,482.948 94.326,52.806 202.326,7.392  "/>
<polygon fill="#a60bff" points="287.291,96.656 2.785,330.045 342.981,4.733  "/>
<polygon fill="#cd0449" points="231.104,586.079 306.317,565.524 555.176,77.858  "/>
<polygon fill="#e12a62" points="279.211,314.109 586.461,403.678 492.611,0.339  "/>
<polygon fill="#f904ab" points="95.962,376.088 178.678,578.894 514.233,201.672  "/>
<polygon fill="#02ba44" points="136.246,348.283 449.659,187.415 523.956,50.531  "/>
<polygon fill="#91fb84" points="557.632,260.413 425.800,542.365 502.563,267.089  "/>
<polygon fill="#ba7255" points="426.164,519.433 225.684,382.213 264.549,192.019  "/>
<polygon fill="#872eed" points="355.851,493.325 273.535,79.127 236.061,338.426  "/>
<polygon fill="#101590" points="428.249,504.583 160.019,311.292 319.785,57.612  "/>
<polygon fill="#19c193" points="547.230,335.898 375.583,544.761 498.843,127.824  "/>
<polygon fill="#882828" points="3.525,503.042 218.947,161.478 507.214,39.005  "/>
<polygon fill="#129019" points="196.004,528.199 186.784,60.145 460.680,35.306  "/>
<polygon fill="#cbfacf" points="240.387,322.316 342.072,126.269 369.267,79.422  "/>
<polygon fill="#328ac0" points="84.915,594.108 18.648,388.046 162.561,263.287  "/>
<polygon fill="#73a901" points="415.799,302.780 106.426,278.712 339.874,1.368  "/>
<polygon fill="#46e4db" points="445.305,230.130 88.964,497.163 248.361,337.658  "/>
<polygon fill="#63a2df" points="193.334,565.630 104.083,156.151 312.927,442.161  "/>
<polygon fill="#c4a46f" points="456.360,23.100 75.833,448.900 337.885,258.117  "/>
<polygon fill="#0ace9d" points="174.527,305.652 38.616,226.415 170.096,592.054  "/>
<polygon fill="#eb6039" points="170.955,350.737 368.141,343.986 485.060,412.593  "/>
<polygon fill="#54493e" points="408.162,577.537 483.208,349.753 29.205,389.823  "/>
<polygon fill="#cfe620" points="474.402,582.399 540.689,415.311 553.788,415.208  "/>
<polygon fill="#5e142f" points="165.739,313.895 444.057,413.345 468.869,248.958  "/>
<polygon fill="#5fb7c6" points="23.827,137.622 203.268,39.397 176.886,7.014  "/>
<polygon fill="#f4d972" points="313.926,196.217 299.649,598.844 525.448,91.593  "/>
<polygon fill="#08e8da" points="14.954,556.406 305.850,541.137 519.533,556.180  "/>
<polygon fill="#790b7f" points="474.727,377.515 467.856,11.534 303.007,115.509  "/>
<polygon fill="#b1c8df" points="537.757,295.919 95.939,383.751 247.402,185.433  "/>
<polygon fill="#d0169d" points="319.412,307.406 335.171,97.034 318.158,189.050  "/>
<polygon fill="#948853" points="197.991,87.716 585.861,407.487 415.572,51.998  "/>
<polygon fill="#06a1a8" points="261.167,472.356 374.112,412.583 91.264,403.805  "/>
<polygon fill="#bfa268" points="100.296,11.240 26.051,310.902 437.791,46.869  "/>
<polygon fill="#165608" points="583.219,515.933 474.766,317.662 51.137,488.099  "/>
<polygon fill="#096389" points="545.175,510.227 113.631,565.903 370.160,366.919  "/>
<polygon fill="#1fbd9a" points="17.491,398.755 498.301,455.093 560.630,299.039  "/>
<polygon fill="#58d95b" points="529.655,510.199 353.473,122.661 226.215,133.364  "/>
<polygon fill="#b97d6e" points="365.659,249.931 71.409,136.975 360.161,233.315  "/>
<polygon fill="#82790e" points="54.494,332.634 334.733,333.397 310.449,397.445  "/>
<polygon fill="#a1f7e7" points="15.170,121.313 115.698,435.526 297.375,301.987  "/>
<polygon fill="#c1c56d" points="417.698,37.012 67.821,489.182 491.325,302.292  "/>
<polygon fill="#fe6ae3" points="209.206,318.870 156.400,562.643 285.877,375.424  "/>
<polygon fill="#0a2d52" points="0.932,181.905 53.175,536.679 170.767,30.937  "/>
<polygon fill="#f4a3ea" points="9.831,23.078 138.398,31.030 379.912,36.018  "/>
<polygon fill="#033311" points="412.108,36.239 366.808,460.664 579.748,332.173  "/>
<polygon fill="#a20e60" points="425.340,584.386 368.567,454.279 325.649,301.020  "/>
<polygon fill="#e1d0ef" points="353.903,11.535 315.595,179.966 111.594,452.716  "/>
<polygon fill="#96fbcc" points="538.560,87.930 172.208,144.160 253.496,580.097  "/>
<polygon fill="#be1608" points="566.556,363.910 301.854,161.555 233.039,426.554  "/>
<polygon fill="#6a1387" points="267.215,176.972 176.022,229.262 32.204,229.583  "/>
<polygon fill="#674be9" points="532.700,486.606 150.346,429.524 204.627,340.392  "/>
<polygon fill="#8b1a90" points="85.141,590.632 415.005,298.815 362.986,373.053  "/>
<polygon fill="#282190" points="353.558,16.267 589.472,590.533 210.448,3.125  "/>
<polygon fill="#ecbbc4" points="264.465,519.741 18.242,597.129 406.038,109.889  "/>
<polygon fill="#3913f1" points="400.960,461.295 324.041,146.364 3.332,426.643  "/>
<polygon fill="#e3e230" points="589.432,155.202 435.877,307.259 253.873,246.656  "/>
<polygon fill="#394387" points="488.187,455.299 359.583,114.570 260.655,207.819  "/>
</svg>