<?xml version="1.0" encoding="utf-8"?>
<!-- Generator: Python script. InTeResTinG -->
<!DOCTYPE svg PUBLIC "-//W3C//DTD SVG 1.1//EN" "http://www.w3.org/Graphics/SVG/1.1/DTD/svg11.dtd">
<svg version="1.1" id="Layer_1" xmlns="http://www.w3.org/2000/svg" xmlns:xlink="http://www.w3.org/1999/xlink" x="0px" y="0px" width="600.000px" height="600.000px" viewBox="0 0 600.000 600.000" enable-background="new 0 0 600.000 600.000" xml:space="preserve">
<polygon fill="#4c15e5" points="63.386,382.202 4.866,270.372 301.917,39.023  "/>
<polygon fill="#b4d347" points="354.171,560.012 160.308,534.045 373.804,161.733  "/>
<polygon fill="#15db01" points="464.153,374.845 415.894,216.219 546.368,50.440  "/>
<polygon fill="#13260f" points="115.162,522.003 203.489,133.720 340.664,443.463  "/>
<polygon fill="#d0d03f" points="495.210,291.409 464.460,133.007 571.145,61.218  "/>
<polygon fill="#3e5290" points="200.407,226.976 426.010,351.170 74.263,19.751  "/>
<polygon fill="#f3e416" points="515.193,117.114 86.582,119.162 524.192,342.640  "/>
<polygon fill="#de36d6" points="496.520,16.205 424.811,442.373 574.541,369.475  "/>
<polygon fill="#a7d038" points="65.933,232.466 54.161,79.750 556.468,367.813  "/>
<polygon fill="#372c7d" points="181.635,310.234 11.169,378.365 178.335,132.776  "/>
<polygon fill="#209125" points="405.215,215.972 212.517,63.345 325.965,479.192  "/>
<polygon fill="#7da6d1" points="258.495,236.188 2.621,303.872 181.909,188.495  "/>
<polygon fill="#660b2f" points="559.645,374.248 310.838,513.524 309.409,485.970  "/>
<polygon fill="#78b47e" points="143.101,270.817 512.640,406.186 160.824,245.197  "/>
<polygon fill="#aef9b7" points="391.879,162.720 49.357,569.251 185.385,168.003  "/>
<polygon fill="#b54b64" points="51.558,585.975 144.712,252.542 40.551,512.898  "/>
<polygon fill="#fc3a19" points="532.625,337.107 462.429,440.352 66.762,272.733  "/>
<polygon fill="#2e8880" points="410.545,305.417 275.247,205.443 364.550,469.727  "/>
<polygon fill="#6476e1" points="462.348,5.547 258.493,129.374 249.332,353.085  "/>
<polygon fill="#c26196" points="456.099,353.923 49.429,196.786 399.232,19.889  "/>
<polygon fill="#c66275" points="485.336,319.678 392.581,589.832 503.126,491.520  "/>
<polygon fill="#167233" points="563.037,546.077 588.631,478.172 400.649,14.990  "/>
<polygon fill="#8fcbd2" points="347.326,280.634 376.865,134.222 244.194,261.445  "/>
<polygon fill="#d0f4c9" points="503.703,425.939 265.039,434.778 108.461,378.442  "/>
<polygon fill="#17a85b" points="323.743,62.357 83.471,24.105 318.020,381.305  "/>
<polygon fill="#1fdb0b" points="496.971,63.927 353.717,161.286 124.693,168.998  "/>
<polygon fill="#cef514" points="151.874,67.009 521.809,485.536 469.081,49.528  "/>
<polygon fill="#1f7b72" points="470.500,352.173 455.679,149.230 524.298,26.958  "/>
<polygon fill="#5645b4" points="413.129,327.447 389.825,505.329 527.228,408.342  "/>
<polygon fill="#f60f3d" points="393.073,297.237 120.802,494.134 527.166,501.691  "/>
<polygon fill="#f33449" points="450.327,243.401 309.379,127.592 73.550,250.822  "/>
<polygon fill="#da5903" points="131.567,337.061 414.278,94.029 548.092,84.393  "/>
<polygon fill="#f4f46d" points="338.001,343.203 72.593,149.107 308.923,364.905  "/>
<polygon fill="#17d6a1" points="315.306,294.469 528.055,426.206 11.199,336.481  "/>
<polygon fill="#a66e9b" points="557.565,352.133 27.660,309.596 9.284,418.266  "/>
<polygon fill="#d52e8a" points="172.099,93.098 148.964,574.335 308.930,25.499  "/>
<polygon fill="#e0f4cf" points="13.056,202.407 539.903,595.307 13.185,482.672  "/>
<polygon fill="#712180" points="505.337,170.305 96.580,403.803 589.646,595.905  "/>
<polygon fill="#53d837" points="402.397,318.237 585.124,167.504 597.469,330.325  "/>
<polygon fill="#38a42e" points="560.104,232.106 237.880,208.467 172.027,538.390  "/>
<polygon fill="#928296" points="507.371,275.406 260.873,373.082 133.200,216.936  "/>
<polygon fill="#a7ab07" points="113.846,75.283 125.700,175.881 413.439,587.774  "/>
<polygon fill="#352fec" points="434.236,204.216 368.574,10.834 238.678,397.121  "/>
<polygon fill="#906a21" points="133.727,70.619 542.032,352.723 59.216,144.212  "/>
<polygon fill="#12f519" points="189.390,18.148 287.421,585.507 434.304,383.103  "/>
<polygon fill="#535fd3" points="141.766,2.246 218.815,233.874 561.621,478.756  "/>
<polygon fill="#bbb661" points="392.060,379.295 337.762,465.542 97.273,506.530  "/>
<polygon fill="#605a8d" points="70.555,117.840 372.612,435.157 534.843,403.986  "/>
<polygon fill="#ef8545" points="437.368,246.687 349.053,154.682 8.665,582.701  "/>
<polygon fill="#346bf6" points="553.506,518.582 3.645,74.558 227.696,106.753  "/>
<polygon fill="#cc2853" points="239.945,191.623 501.988,196.856 421.159,581.869  "/>
<polygon fill="#cc02a0" points="551.981,223.254 537.564,33.403 172.410,226.515  "/>
<polygon fill="#a000d4" points="346.516,285.903 299.659,598.360 266.483,21.905  "/>
<polygon fill="#7cf1ae" points="413.432,106.047 205.776,494.256 407.486,139.618  "/>
<polygon fill="#abe94b" points="54.735,272.179 52.907,189.116 497.848,289.130  "/>
<polygon fill="#c89569" points="274.052,61.616 56.530,489.154 348.196,157.504  "/>
<polygon fill="#7194ae" points="36.928,29.840 152.878,476.514 292.916,141.873  "/>
<polygon fill="#cb1401" points="298.051,500.060 133.303,236.484 534.051,308.171  "/>
<polygon fill="#465c2a" points="50.099,513.212 287.181,156.187 317.770,145.428  "/>
<polygon fill="#7ea459" points="78.132,555.875 595.345,562.778 396.655,308.857  "/>
<polygon fill="#ebf9aa" points="494.375,527.396 569.157,416.525 568.896,37.615  "/>
<polygon fill="#999f6c" points="548.919,189.906 256.879,144.033 58.143,100.872  "/>
<polygon fill="#ee8af2" points="459.731,182.914 488.084,462.625 157.250,337.977  "/>
</svg>