<?xml version="1.0" encoding="utf-8"?>
<!-- Generator: Python script. InTeResTinG -->
<!DOCTYPE svg PUBLIC "-//W3C//DTD SVG 1.1//EN" "http://www.w3.org/Graphics/SVG/1.1/DTD/svg11.dtd">
<svg version="1.1" id="Layer_1" xmlns="http://www.w3.org/2000/svg" xmlns:xlink="http://www.w3.org/1999/xlink" x="0px" y="0px" width="600.000px" height="600.000px" viewBox="0 0 600.000 600.000" enable-background="new 0 0 600.000 600.000" xml:space="preserve">
<polygon fill="#0f8d63" points="522.747,458.921 568.052,74.893 57.840,355.993  "/>
<polygon fill="#162103" points="292.405,235.570 229.161,219.434 95.048,178.924  "/>
<polygon fill="#d70af2" points="365.477,303.480 187.748,192.056 187.062,439.827  "/>
<polygon fill="#f60140" points="340.744,536.734 519.110,272.769 173.611,154.733  "/>
<polygon fill="#899c7a" points="325.789,52.066 170.875,96.052 553.669,449.975  "/>
<polygon fill="#15ba59" points="432.525,457.218 552.230,292.384 341.940,141.935  "/>
<polygon fill="#37f5df" points="151.682,218.085 6.586,238.059 250.119,442.372  "/>
<polygon fill="#64e0a2" points="513.652,396.712 116.510,75.334 163.839,292.559  "/>
<polygon fill="#9c5f39" points="112.181,387.670 237.295,281.365 2.762,182.221  "/>
<polygon fill="#0c0630" points="84.780,314.741 299.507,572.152 372.792,432.828  "/>
<polygon fill="#b7c6d1" points="56.916,398.125 363.669,496.707 213.235,264.785  "/>
<polygon fill="#bb627d" points="80.531,163.144 18.961,384.366 456.249,5.275  "/>
<polygon fill="#803bec" points="193.094,37.024 23.571,18.430 529.794,252.555  "/>
<polygon fill="#84aee6" points="224.030,509.462 164.055,556.575 142.183,509.087  "/>
<polygon fill="#13ea6c" points="308.890,279.392 121.373,14.867 406.406,439.308  "/>
<polygon fill="#a962b5" points="95.711,552.666 161.979,353.987 539.594,359.000  "/>
<polygon fill="#9fc11f" points="67.557,452.723 329.564,200.562 237.065,23.827  "/>
<polygon fill="#ac0abf" points="304.312,524.571 6.022,13.397 16.021,79.782  "/>
<polygon fill="#9a8c52" points="286.499,54.882 389.689,314.373 173.883,53.401  "/>
<polygon fill="#5635de" points="270.565,301.713 596.300,424.014 68.013,572.852  "/>
<polygon fill="#e491f6" points="382.268,189.921 163.342,112.161 90.195,512.572  "/>
<polygon fill="#3e8d27" points="356.118,501.291 433.870,60.999 429.031,486.503  "/>
<polygon fill="#d6b539" points="397.719,159.737 175.677,196.632 228.940,454.521  "/>
<polygon fill="#98928f" points="446.877,35.241 390.362,402.227 6.117,390.722  "/>
<polygon fill="#a4262c" points="247.620,212.855 104.413,203.610 12.005,151.518  "/>
<polygon fill="#1d2083" points="241.534,371.706 180.294,471.607 207.685,169.028  "/>
<polygon fill="#34f29a" points="177.143,145.134 349.915,92.979 96.862,49.505  "/>
<polygon fill="#d8e818" points="529.414,98.997 564.800,131.078 531.521,285.543  "/>
<polygon fill="#9079cc" points="209.037,117.141 239.057,440.383 416.881,478.349  "/>
<polygon fill="#465ee0" points="297.097,72.288 130.706,599.497 520.269,596.465  "/>
<polygon fill="#2e94a7" points="27.536,60.471 187.443,161.188 437.917,439.539  "/>
<polygon fill="#913ae9" points="396.675,355.177 419.880,268.961 316.321,405.524  "/>
<polygon fill="#8612ac" points="366.460,278.109 269.896,320.119 285.268,93.885  "/>
<polygon fill="#d14c01" points="180.306,269.486 38.381,27.101 453.616,155.240  "/>
<polygon fill="#de445b" points="103.896,388.230 263.333,501.297 364.959,427.863  "/>
<polygon fill="#0bc8af" points="133.558,244.523 316.908,542.226 451.629,472.854  "/>
<polygon fill="#51a9a1" points="498.048,30.115 472.943,406.675 87.100,389.490  "/>
<polygon fill="#289c7f" points="177.975,190.841 8.317,54.348 362.698,126.669  "/>
<polygon fill="#7eb130" points="371.650,235.824 301.527,579.378 598.691,188.722  "/>
<polygon fill="#a1aa38" points="491.995,18.790 474.822,468.708 25.290,558.059  "/>
<polygon fill="#9fad5c" points="150.183,112.206 208.158,318.017 578.606,428.228  "/>
<polygon fill="#d18493" points="576.434,361.298 379.493,526.656 21.353,255.061  "/>
<polygon fill="#3fb682" points="395.870,434.170 79.049,543.254 553.670,216.598  "/>
<polygon fill="#b4003b" points="107.122,556.190 315.481,408.806 467.203,486.119  "/>
<polygon fill="#2066fe" points="77.861,311.880 237.737,7.166 400.061,429.283  "/>
<polygon fill="#1af98d" points="131.536,426.830 459.790,299.412 436.549,397.925  "/>
<polygon fill="#5c1a01" points="548.523,303.106 486.207,459.413 469.570,464.999  "/>
<polygon fill="#4ea3b8" points="465.057,6.335 337.324,418.166 38.585,126.119  "/>
<polygon fill="#97feb1" points="79.719,320.223 77.289,365.577 102.352,469.845  "/>
<polygon fill="#faa836" points="457.837,525.506 335.903,101.079 220.778,539.743  "/>
<polygon fill="#b4e066" points="343.417,557.427 160.417,352.049 479.145,442.227  "/>
<polygon fill="#8e32af" points="408.724,288.006 164.262,527.997 526.879,161.118  "/>
<polygon fill="#37e301" points="342.729,68.013 236.019,308.516 447.907,358.624  "/>
<polygon fill="#584746" points="379.330,61.284 329.979,331.809 350.200,188.736  "/>
<polygon fill="#980a46" points="15.217,425.655 411.633,146.400 386.371,72.037  "/>
<polygon fill="#a79e46" points="329.371,242.802 150.034,95.983 461.369,33.902  "/>
<polygon fill="#7bb588" points="394.883,316.606 21.189,307.431 513.698,93.277  "/>
<polygon fill="#52ae06" points="476.831,94.090 292.302,562.973 58.510,584.402  "/>
<polygon fill="#0497db" points="175.211,286.395 204.698,438.638 349.697,408.068  "/>
<polygon fill="#23cf8a" points="416.689,385.569 407.171,168.213 257.545,397.540  "/>
<polygon fill="#b0565a" points="373.018,529.933 495.488,441.542 506.460,532.221  "/>
<polygon fill="#018bf0" points="45.667,174.536 574.782,291.331 233.231,87.028  "/>
<polygon fill="#dc7d34" points="242.277,196.789 449.202,398.640 5.579,465.242  "/>
<polygon fill="#d10e43" points="90.737,281.337 226.896,90.517 141.983,521.692  "/>
<polygon fill="#c7ffc0" points="8.699,184.103 235.435,404.186 427.489,145.005  "/>
<polygon fill="#694b5e" points="319.134,541.832 97.336,463.848 473.047,54.060  "/>
<polygon fill="#42cdb7" points="184.722,188.815 344.281,503.497 493.266,389.458  "/>
<polygon fill="#512153" points="469.779,301.241 568.495,82.665 314.668,66.068  "/>
<polygon fill="#b64adc" points="459.978,514.148 406.055,539.514 254.287,130.292  "/>
<polygon fill="#cbaa07" points="375.439,430.029 195.194,530.273 364.338,274.591  "/>
<polygon fill="#59a30c" points="444.459,311.163 353.915,276.803 545.540,373.088  "/>
</svg>