<?xml version="1.0" encoding="utf-8"?>
<!-- Generator: Python script. InTeResTinG -->
<!DOCTYPE svg PUBLIC "-//W3C//DTD SVG 1.1//EN" "http://www.w3.org/Graphics/SVG/1.1/DTD/svg11.dtd">
<svg version="1.1" id="Layer_1" xmlns="http://www.w3.org/2000/svg" xmlns:xlink="http://www.w3.org/1999/xlink" x="0px" y="0px" width="600.000px" height="600.000px" viewBox="0 0 600.000 600.000" enable-background="new 0 0 600.000 600.000" xml:space="preserve">
<polygon fill="#159efd" points="598.090,125.034 121.721,326.685 369.534,472.191  "/>
<polygon fill="#5fabb4" points="199.755,491.974 0.149,280.042 289.059,18.469  "/>
<polygon fill="#7fad88" points="253.308,129.012 509.241,525.614 185.129,276.704  "/>
<polygon fill="#cfa452" points="113.320,379.561 505.465,22.044 579.922,216.953  "/>
<polygon fill="#40f2d9" points="243.752,422.280 435.868,538.467 559.720,16.300  "/>
<polygon fill="#e52ff0" points="18.233,198.220 62.019,169.645 207.300,119.482  "/>
<polygon fill="#5c971e" points="327.144,348.258 45.439,150.010 370.645,442.280  "/>
<polygon fill="#dc948f" points="496.285,338.099 409.879,425.683 588.796,480.833  "/>
<polygon fill="#962993" points="168.958,220.162 565.372,512.620 597.464,284.206  "/>
<polygon fill="#3463a5" points="391.876,147.896 283.703,300.383 515.593,543.793  "/>
<polygon fill="#d87fe2" points="67.877,375.192 575.876,22.217 115.582,529.373  "/>
<polygon fill="#8e797c" points="120.146,215.554 372.100,566.079 151.072,193.167  "/>
<polygon fill="#f21e76" points="310.678,197.292 583.641,323.936 23.557,414.207  "/>
<polygon fill="#ba8046" points="131.399,575.585 312.605,377.567 5.556,386.441  "/>
<polygon fill="#eff409" points="448.655,475.767 573.406,503.125 86.566,50.978  "/>
<polygon fill="#566dea" points="14.384,94.682 350.293,312.033 532.168,335.169  "/>
<polygon fill="#a3db95" points="136.734,52.952 94.311,349.444 447.107,350.412  "/>
<polygon fill="#de1072" points="239.015,536.410 127.545,53.351 429.505,310.882  "/>
<polygon fill="#e9480e" points="231.705,533.703 37.760,269.911 234.553,74.997  "/>
<polygon fill="#c6b119" points="239.909,440.405 54.965,278.091 429.003,492.260  "/>
<polygon fill="#825e35" points="418.774,16.095 452.904,237.826 433.617,242.773  "/>
<polygon fill="#09340f" points="127.039,469.837 158.626,156.909 315.946,330.627  "/>
<polygon fill="#2d7c91" points="107.815,589.371 265.679,75.742 216.626,154.924  "/>
<polygon fill="#807d0b" points="13.863,127.932 150.421,64.871 461.924,308.187  "/>
<polygon fill="#2ec398" points="39.145,199.617 561.893,21.335 67.495,283.130  "/>
<polygon fill="#2531cd" points="587.909,224.277 399.713,196.863 432.083,174.553  "/>
<polygon fill="#1e4461" points="154.920,26.432 73.700,101.729 274.660,181.724  "/>
<polygon fill="#5e363b" points="10.253,535.694 511.084,449.814 532.135,40.853  "/>
<polygon fill="#6e9700" points="365.890,127.230 173.221,155.616 384.994,579.133  "/>
<polygon fill="#0db7bc" points="64.080,81.160 31.710,305.119 282.478,567.005  "/>
<polygon fill="#5be52c" points="87.745,353.348 59.774,174.349 396.258,129.470  "/>
<polygon fill="#a23e69" points="538.094,274.692 70.820,530.116 294.367,459.989  "/>
<polygon fill="#587f76" points="93.646,141.175 376.062,378.163 236.270,97.559  "/>
<polygon fill="#84ddfe" points="366.761,433.163 74.471,65.899 324.997,78.831  "/>
<polygon fill="#e2dc1e" points="169.488,83.418 13.643,348.292 553.311,422.853  "/>
<polygon fill="#a4bec7" points="581.723,268.753 445.462,586.876 295.921,470.055  "/>
<polygon fill="#5d65d9" points="188.668,431.145 23.396,293.962 360.523,117.063  "/>
<polygon fill="#730fd1" points="388.792,349.238 428.766,299.919 148.350,566.101  "/>
<polygon fill="#c72bbb" points="544.530,480.166 187.440,348.495 535.832,552.125  "/>
<polygon fill="#81c245" points="23.143,94.054 182.873,393.414 476.610,77.088  "/>
<polygon fill="#5dd587" points="553.119,340.643 422.329,488.183 81.963,195.936  "/>
<polygon fill="#dc4858" points="369.224,231.635 111.743,158.740 422.296,260.521  "/>
<polygon fill="#659650" points="48.611,246.120 55.537,322.310 481.896,328.362  "/>
<polygon fill="#f49018" points="115.050,317.229 140.742,73.136 289.648,586.772  "/>
<polygon fill="#f8a585" points="186.509,544.373 73.424,474.096 514.563,223.326  "/>
<polygon fill="#3f297b" points="166.419,34.981 189.945,502.818 450.061,439.426  "/>
<polygon fill="#73a6c1" points="349.282,400.908 189.325,418.903 100.702,262.330  "/>
<polygon fill="#be9e7c" points="211.894,556.985 238.861,191.794 566.647,355.016  "/>
<polygon fill="#42b095" points="411.154,448.842 421.263,81.999 402.949,167.646  "/>
<polygon fill="#f3c74d" points="140.576,554.185 358.759,101.217 371.214,101.303  "/>
<polygon fill="#3b57f1" points="108.192,443.885 181.028,405.699 207.894,456.595  "/>
<polygon fill="#4433f3" points="36.020,532.440 446.580,417.193 34.943,394.514  "/>
<polygon fill="#2b8797" points="15.958,151.634 445.697,254.867 391.611,330.645  "/>
<polygon fill="#ce0b08" points="455.330,240.531 188.688,364.054 235.259,557.876  "/>
<polygon fill="#0b2db9" points="334.025,585.894 21.277,197.335 335.422,99.953  "/>
<polygon fill="#c7c02d" points="422.288,9.755 230.401,101.227 520.558,460.867  "/>
<polygon fill="#3b91fa" points="224.956,28.265 454.166,64.167 297.338,594.426  "/>
<polygon fill="#4a1745" points="110.639,357.734 369.510,132.048 174.673,479.478  "/>
<polygon fill="#3ce674" points="425.511,248.033 148.816,269.100 401.499,10.804  "/>
<polygon fill="#6d6036" points="205.339,527.778 53.836,305.784 524.311,79.960  "/>
<polygon fill="#7d9fa2" points="109.107,527.132 418.493,370.722 113.477,435.073  "/>
<polygon fill="#45076b" points="461.966,330.746 68.165,256.124 169.725,384.795  "/>
<polygon fill="#f51d16" points="358.382,572.348 589.744,481.273 529.888,265.566  "/>
</svg>