<?xml version="1.0" encoding="utf-8"?>
<!-- Generator: Python script. InTeResTinG -->
<!DOCTYPE svg PUBLIC "-//W3C//DTD SVG 1.1//EN" "http://www.w3.org/Graphics/SVG/1.1/DTD/svg11.dtd">
<svg version="1.1" id="Layer_1" xmlns="http://www.w3.org/2000/svg" xmlns:xlink="http://www.w3.org/1999/xlink" x="0px" y="0px" width="600.000px" height="600.000px" viewBox="0 0 600.000 600.000" enable-background="new 0 0 600.000 600.000" xml:space="preserve">
<polygon fill="#af281d" points="505.826,198.201 185.885,152.151 81.766,77.800  "/>
<polygon fill="#999463" points="135.714,507.742 357.101,420.020 95.403,137.458  "/>
<polygon fill="#e29076" points="521.369,318.149 34.519,375.592 258.936,471.204  "/>
<polygon fill="#d9bec3" points="82.251,128.722 469.581,355.404 100.276,63.114  "/>
<polygon fill="#1e6f2e" points="93.810,104.958 135.506,470.226 167.250,139.552  "/>
<polygon fill="#877ea6" points="244.523,71.683 17.455,565.284 351.350,257.887  "/>
<polygon fill="#251939" points="102.118,458.078 239.268,400.798 135.265,596.066  "/>
<polygon fill="#7065b8" points="201.944,553.521 518.863,273.352 185.239,567.657  "/>
<polygon fill="#12579c" points="72.532,497.338 162.730,471.461 529.806,354.995  "/>
<polygon fill="#80d201" points="474.201,370.926 210.341,425.628 450.935,165.501  "/>
<polygon fill="#f2c6ae" points="490.293,504.075 60.029,540.535 322.760,93.825  "/>
<polygon fill="#874a5e" points="382.587,182.222 86.357,528.568 275.986,257.459  "/>
<polygon fill="#7b058a" points="377.000,214.546 540.166,224.172 81.270,293.723  "/>
<polygon fill="#5e6ad9" points="464.545,310.879 201.543,19.478 367.733,343.156  "/>
<polygon fill="#f1b143" points="513.115,316.103 445.360,532.167 408.451,64.216  "/>
<polygon fill="#bdc76b" points="332.807,272.672 261.264,314.643 53.365,414.931  "/>
<polygon fill="#84d18d" points="466.978,282.909 372.284,352.895 145.179,5.676  "/>
<polygon fill="#7dc8f6" points="533.356,90.540 316.885,318.772 598.135,403.536  "/>
<polygon fill="#d4a002" points="174.594,78.250 98.129,545.226 320.634,362.288  "/>
<polygon fill="#f7ea14" points="352.524,230.477 206.021,345.655 393.153,396.656  "/>
<polygon fill="#b05dad" points="438.944,185.683 122.348,158.679 394.106,30.550  "/>
<polygon fill="#137870" points="329.502,158.288 466.395,380.366 358.240,418.007  "/>
<polygon fill="#035872" points="243.189,462.641 302.537,108.126 415.196,157.044  "/>
<polygon fill="#e0e51f" points="295.693,7.742 106.002,534.956 205.844,271.286  "/>
<polygon fill="#611a13" points="432.322,465.402 86.854,59.627 20.943,80.590  "/>
<polygon fill="#113bd2" points="339.719,455.727 220.703,550.988 458.657,379.561  "/>
<polygon fill="#9db070" points="0.354,594.742 219.774,589.328 261.348,250.829  "/>
<polygon fill="#44092f" points="86.235,475.578 1.095,365.731 158.610,46.036  "/>
<polygon fill="#b612b0" points="487.273,23.440 34.403,366.291 453.790,39.206  "/>
<polygon fill="#89d559" points="222.085,526.803 411.550,428.703 583.026,91.976  "/>
<polygon fill="#f33f48" points="521.675,540.864 583.609,46.117 70.660,275.934  "/>
<polygon fill="#d15460" points="344.159,594.331 399.352,308.677 206.930,396.750  "/>
<polygon fill="#6a55f3" points="24.828,338.990 363.812,204.039 587.252,449.534  "/>
<polygon fill="#6f65e0" points="572.034,386.737 584.089,385.464 299.957,237.123  "/>
<polygon fill="#b293c4" points="10.480,319.547 323.061,503.892 317.275,30.393  "/>
<polygon fill="#f874c0" points="99.499,117.798 305.840,452.184 7.704,17.425  "/>
<polygon fill="#4d71a5" points="128.314,345.222 319.140,467.365 143.376,445.322  "/>
<polygon fill="#e1791f" points="194.548,467.245 394.502,302.825 464.970,273.299  "/>
<polygon fill="#c9a372" points="120.272,568.522 203.478,97.559 579.590,566.803  "/>
<polygon fill="#1e9bfc" points="306.388,273.430 176.970,389.247 13.480,54.005  "/>
<polygon fill="#7f4cf8" points="366.819,452.234 493.982,419.895 159.167,593.301  "/>
<polygon fill="#17c04c" points="376.443,464.359 128.955,217.427 196.110,408.461  "/>
<polygon fill="#24968e" points="192.350,373.812 181.066,335.469 297.013,147.054  "/>
<polygon fill="#377f85" points="330.343,96.867 46.959,584.014 144.182,328.465  "/>
<polygon fill="#0a3797" points="119.173,40.065 260.929,384.894 371.095,137.483  "/>
<polygon fill="#e72869" points="19.348,228.079 20.675,586.621 417.474,248.736  "/>
<polygon fill="#452d9c" points="245.791,536.616 503.282,554.544 242.581,303.109  "/>
<polygon fill="#e93fe2" points="349.146,129.212 266.252,496.823 66.438,373.331  "/>
<polygon fill="#0b0943" points="159.327,399.753 415.943,585.823 252.873,597.724  "/>
<polygon fill="#54b215" points="45.536,152.258 296.891,39.023 206.846,204.765  "/>
<polygon fill="#b67b4a" points="470.109,357.300 152.495,537.416 235.170,359.805  "/>
<polygon fill="#bf765c" points="467.032,465.255 89.230,505.574 575.238,207.924  "/>
</svg>