<?xml version="1.0" encoding="utf-8"?>
<!-- Generator: Python script. InTeResTinG -->
<!DOCTYPE svg PUBLIC "-//W3C//DTD SVG 1.1//EN" "http://www.w3.org/Graphics/SVG/1.1/DTD/svg11.dtd">
<svg version="1.1" id="Layer_1" xmlns="http://www.w3.org/2000/svg" xmlns:xlink="http://www.w3.org/1999/xlink" x="0px" y="0px" width="600.000px" height="600.000px" viewBox="0 0 600.000 600.000" enable-background="new 0 0 600.000 600.000" xml:space="preserve">
<polygon fill="#1b933f" points="126.007,559.284 314.912,189.455 30.944,312.504  "/>
<polygon fill="#55f3aa" points="254.973,504.479 347.861,374.494 445.171,390.210  "/>
<polygon fill="#5a881a" points="440.732,335.876 354.103,348.510 208.133,265.003  "/>
<polygon fill="#883fc5" points="289.558,377.415 75.661,424.856 147.623,383.531  "/>
<polygon fill="#aeff43" points="28.293,467.860 338.663,180.237 17.399,267.168  "/>
<polygon fill="#0b667e" points="375.974,420.772 179.164,484.578 287.559,177.271  "/>
<polygon fill="#30bfdd" points="243.934,52.480 328.942,351.680 158.066,385.105  "/>
<polygon fill="#eae1cf" points="14.794,13.509 408.507,530.156 579.834,536.634  "/>
<polygon fill="#a6b259" points="517.242,365.598 505.557,325.592 177.747,285.693  "/>
<polygon fill="#4881b2" points="380.001,444.712 399.003,503.757 563.189,291.188  "/>
<polygon fill="#ce74f0" points="506.933,362.442 322.429,268.385 427.590,433.645  "/>
<polygon fill="#b93e7d" points="271.371,74.916 590.944,475.800 208.399,574.588  "/>
<polygon fill="#b04c18" points="553.682,343.009 248.454,304.624 372.924,285.377  "/>
<polygon fill="#e024ee" points="93.452,407.959 421.466,49.199 599.391,148.151  "/>
<polygon fill="#78a964" points="508.245,467.430 0.985,70.823 330.521,285.399  "/>
<polygon fill="#0a62dc" points="397.817,388.037 460.303,478.258 492.228,454.881  "/>
<polygon fill="#41a8b6" points="165.894,133.429 34.082,58.855 183.256,439.831  "/>
<polygon fill="#47623a" points="229.823,255.583 201.041,204.984 89.825,90.582  "/>
<polygon fill="#7a0a81" points="491.957,410.746 138.452,62.145 428.791,490.301  "/>
<polygon fill="#0895f2" points="492.669,585.795 517.781,217.842 233.670,440.216  "/>
<polygon fill="#25c09b" points="124.198,471.657 273.658,79.184 526.452,308.394  "/>
<polygon fill="#9bb033" points="252.909,374.545 229.094,490.877 182.022,255.544  "/>
<polygon fill="#f25082" points="503.518,199.130 193.900,569.542 565.175,169.327  "/>
<polygon fill="#8971cf" points="268.490,441.328 350.280,543.136 596.789,413.565  "/>
<polygon fill="#dccabc" points="402.509,541.931 207.838,14.050 382.474,327.119  "/>
<polygon fill="#d631ca" points="303.599,423.666 453.633,154.842 100.953,507.321  "/>
<polygon fill="#f499e7" points="239.648,372.163 471.021,583.166 4.581,448.904  "/>
<polygon fill="#e95d3b" points="132.561,491.398 262.325,243.608 373.159,515.915  "/>
<polygon fill="#db0b02" points="561.386,380.185 278.814,150.745 188.656,149.121  "/>
<polygon fill="#f8560d" points="99.202,466.552 147.099,404.716 298.728,223.643  "/>
<polygon fill="#2cfc3e" points="314.043,209.785 427.668,245.388 360.386,431.990  "/>
<polygon fill="#f1f9b1" points="333.717,433.547 10.742,227.776 535.990,313.252  "/>
<polygon fill="#a7d054" points="474.653,333.157 263.326,579.585 565.895,77.335  "/>
<polygon fill="#a3bb23" points="369.156,147.722 94.872,163.927 7.857,581.548  "/>
<polygon fill="#da6752" points="207.065,586.176 367.025,385.612 4.932,220.605  "/>
<polygon fill="#161fbe" points="380.939,213.553 220.384,240.212 356.263,256.359  "/>
<polygon fill="#2e73cb" points="330.479,203.100 186.289,481.489 489.388,61.902  "/>
<polygon fill="#48f912" points="78.121,67.645 119.539,557.845 12.263,446.306  "/>
<polygon fill="#bd5d1d" points="287.988,392.211 127.863,480.972 138.943,471.626  "/>
<polygon fill="#bb1480" points="123.706,112.020 26.745,360.228 150.702,157.817  "/>
<polygon fill="#ff5ea2" points="118.051,571.007 123.189,272.562 307.418,43.350  "/>
<polygon fill="#887e54" points="206.818,8.030 284.183,187.674 132.280,270.751  "/>
<polygon fill="#d2cc52" points="307.456,591.449 276.751,14.016 181.206,11.322  "/>
<polygon fill="#f0ece0" points="0.109,335.993 488.717,383.416 279.002,125.069  "/>
<polygon fill="#4ff690" points="496.810,449.012 543.317,366.751 366.409,238.121  "/>
<polygon fill="#05dc82" points="268.923,457.515 4.007,105.733 546.585,479.505  "/>
<polygon fill="#f9a66c" points="196.129,200.711 183.248,303.299 470.443,363.721  "/>
<polygon fill="#17fd94" points="29.226,96.979 421.312,370.479 591.474,139.142  "/>
<polygon fill="#3b2c2b" points="516.685,95.661 102.289,523.304 531.728,573.291  "/>
<polygon fill="#97a60e" points="326.303,190.447 555.636,310.005 140.826,83.885  "/>
<polygon fill="#771975" points="9.457,212.201 379.502,106.509 457.031,363.858  "/>
<polygon fill="#5d96a0" points="30.259,444.430 222.068,466.886 547.772,390.517  "/>
<polygon fill="#ef4626" points="279.621,53.111 118.571,520.035 75.597,257.673  "/>
<polygon fill="#8bf2ac" points="43.543,202.343 462.065,188.313 557.690,243.123  "/>
<polygon fill="#ecc1bd" points="535.115,228.026 163.033,66.665 441.027,274.113  "/>
<polygon fill="#5bbb32" points="301.569,22.056 122.463,185.189 257.263,100.849  "/>
<polygon fill="#3d2714" points="37.234,300.800 102.913,326.225 384.394,170.313  "/>
<polygon fill="#73e9c9" points="445.862,94.663 453.583,471.308 299.952,370.398  "/>
<polygon fill="#9ac649" points="443.673,238.113 374.146,203.782 348.341,589.623  "/>
<polygon fill="#8b69f5" points="522.860,44.777 446.969,569.800 587.699,206.158  "/>
<polygon fill="#cb16c8" points="305.678,356.145 364.543,0.494 65.544,126.424  "/>
<polygon fill="#319fc6" points="332.069,509.305 186.639,272.977 438.373,550.935  "/>
<polygon fill="#7d0d72" points="2.638,409.515 120.273,7.774 309.303,419.315  "/>
<polygon fill="#98bbde" points="515.167,199.299 8.833,84.190 378.077,420.306  "/>
<polygon fill="#b3f719" points="188.986,193.672 535.860,128.567 174.371,68.015  "/>
<polygon fill="#514ccc" points="343.450,122.128 596.116,383.280 517.667,54.678  "/>
<polygon fill="#b5e1aa" points="187.909,108.673 453.833,16.558 460.540,427.637  "/>
<polygon fill="#32b956" points="182.771,366.395 269.740,267.210 402.908,515.669  "/>
<polygon fill="#4ff710" points="444.693,545.493 114.878,351.011 307.699,554.445  "/>
<polygon fill="#a92389" points="304.309,448.761 575.100,236.572 594.418,137.815  "/>
<polygon fill="#5b5ee9" points="373.151,396.005 141.797,529.869 517.600,133.887  "/>
</svg>