<?xml version="1.0" encoding="utf-8"?>
<!-- Generator: Python script. InTeResTinG -->
<!DOCTYPE svg PUBLIC "-//W3C//DTD SVG 1.1//EN" "http://www.w3.org/Graphics/SVG/1.1/DTD/svg11.dtd">
<svg version="1.1" id="Layer_1" xmlns="http://www.w3.org/2000/svg" xmlns:xlink="http://www.w3.org/1999/xlink" x="0px" y="0px" width="600.000px" height="600.000px" viewBox="0 0 600.000 600.000" enable-background="new 0 0 600.000 600.000" xml:space="preserve">
<polygon fill="#0feac0" points="491.110,369.696 179.107,555.284 329.060,374.106  "/>
<polygon fill="#c05722" points="400.627,79.843 16.439,588.966 395.938,447.309  "/>
<polygon fill="#d51ba8" points="151.691,477.708 289.422,466.859 294.847,507.247  "/>
<polygon fill="#31f732" points="126.459,259.049 308.473,537.993 151.755,413.515  "/>
<polygon fill="#93cd91" points="304.185,541.435 267.321,440.956 94.122,566.183  "/>
<polygon fill="#edfafa" points="49.870,193.605 206.300,69.919 134.399,587.369  "/>
<polygon fill="#fa8dbe" points="324.375,530.744 100.180,310.919 209.401,150.066  "/>
<polygon fill="#2042f7" points="418.927,514.469 23.778,286.415 16.992,420.705  "/>
<polygon fill="#370b50" points="322.735,238.229 154.185,192.088 487.926,462.097  "/>
<polygon fill="#4522a9" points="253.398,182.073 298.396,339.296 83.555,591.273  "/>
<polygon fill="#00d23d" points="229.422,312.382 545.306,148.205 137.186,125.019  "/>
<polygon fill="#95fbdd" points="437.972,545.533 62.096,160.688 376.823,373.385  "/>
<polygon fill="#22b3fb" points="305.944,390.132 332.837,592.952 48.302,130.662  "/>
<polygon fill="#5d388b" points="287.302,333.319 52.027,481.781 355.777,294.780  "/>
<polygon fill="#3d5208" points="387.136,111.465 203.189,463.403 432.598,281.177  "/>
<polygon fill="#f3567f" points="519.602,242.811 376.739,288.353 582.219,249.365  "/>
<polygon fill="#0b887f" points="595.783,362.795 555.003,421.336 107.948,153.466  "/>
<polygon fill="#b6e5fa" points="0.385,305.675 470.388,246.726 486.063,306.253  "/>
<polygon fill="#be437e" points="70.135,80.904 354.980,229.195 382.465,184.191  "/>
<polygon fill="#bb9943" points="111.953,568.852 82.680,567.419 115.211,346.750  "/>
<polygon fill="#8c02c4" points="87.118,56.532 173.049,99.079 473.100,540.179  "/>
<polygon fill="#d3ea84" points="113.139,243.882 187.867,571.484 30.113,293.345  "/>
<polygon fill="#3e24ab" points="42.865,243.777 365.405,259.680 220.971,598.622  "/>
<polygon fill="#421e9a" points="272.720,511.386 558.785,118.067 310.862,143.916  "/>
<polygon fill="#4dcecb" points="393.633,142.095 539.401,372.831 192.130,224.397  "/>
<polygon fill="#0171c0" points="175.937,103.123 388.581,109.234 418.988,76.577  "/>
<polygon fill="#ef9580" points="111.923,5.515 142.034,525.065 171.039,266.234  "/>
<polygon fill="#bb7b96" points="510.963,463.145 77.139,145.313 205.753,403.088  "/>
<polygon fill="#5e9bee" points="210.083,401.982 221.489,148.473 593.906,587.707  "/>
<polygon fill="#e3b2b8" points="225.998,442.317 146.705,419.714 55.106,556.619  "/>
<polygon fill="#76b869" points="596.690,132.466 153.211,582.721 532.510,590.952  "/>
<polygon fill="#a91144" points="197.905,574.024 38.206,415.541 276.325,81.238  "/>
<polygon fill="#4114bb" points="3.812,172.797 500.166,266.818 145.107,369.723  "/>
<polygon fill="#c5ef87" points="200.226,334.947 270.605,418.459 464.791,353.637  "/>
<polygon fill="#f737ca" points="365.346,524.468 457.390,166.733 255.248,197.117  "/>
<polygon fill="#4e7767" points="374.491,544.957 227.509,35.367 2.575,407.403  "/>
<polygon fill="#103f62" points="88.935,108.093 592.423,500.830 93.596,81.732  "/>
<polygon fill="#556979" points="222.509,157.379 276.098,427.451 28.857,469.541  "/>
<polygon fill="#a0c5a5" points="482.320,16.238 128.346,265.390 448.011,383.919  "/>
<polygon fill="#297e98" points="17.730,235.774 135.706,86.774 357.219,452.973  "/>
<polygon fill="#88b840" points="479.709,514.812 320.434,340.997 187.602,545.620  "/>
<polygon fill="#0f760f" points="573.300,489.196 39.422,516.339 445.117,533.810  "/>
<polygon fill="#3a80c7" points="502.539,283.220 221.286,165.184 326.597,538.018  "/>
<polygon fill="#2de5e5" points="563.153,385.778 198.783,528.767 75.828,387.925  "/>
<polygon fill="#f4ab81" points="273.225,250.523 429.753,201.072 327.614,332.544  "/>
<polygon fill="#7a616d" points="257.042,301.691 339.919,390.220 97.765,300.746  "/>
<polygon fill="#c27055" points="440.206,415.785 594.562,419.805 293.447,455.567  "/>
<polygon fill="#0baf02" points="466.253,575.339 230.422,121.963 294.443,335.405  "/>
<polygon fill="#2dc585" points="358.889,209.639 244.859,502.774 26.107,237.351  "/>
<polygon fill="#3480d1" points="17.216,110.084 542.725,53.514 167.804,519.366  "/>
<polygon fill="#507239" points="249.362,465.328 480.630,575.471 254.922,307.907  "/>
<polygon fill="#d8064b" points="71.937,139.837 404.611,599.726 477.885,457.477  "/>
<polygon fill="#3303a8" points="206.635,137.649 55.097,554.531 349.129,99.825  "/>
<polygon fill="#c9452f" points="288.191,494.934 549.049,405.472 375.134,347.034  "/>
<polygon fill="#3511fd" points="436.412,15.249 33.163,378.412 296.526,508.528  "/>
<polygon fill="#56a8ac" points="397.786,229.630 485.252,408.028 402.876,435.385  "/>
<polygon fill="#97663b" points="413.569,520.765 438.332,338.586 63.366,3.886  "/>
<polygon fill="#486171" points="188.849,7.382 40.029,489.292 113.792,417.267  "/>
<polygon fill="#4a1607" points="79.312,566.276 262.121,134.855 253.086,411.691  "/>
<polygon fill="#b3dd5a" points="308.944,130.881 382.778,220.144 131.559,294.369  "/>
<polygon fill="#3c3c9a" points="337.768,222.780 429.141,419.130 306.156,407.701  "/>
<polygon fill="#4831d6" points="308.596,441.541 87.593,301.544 540.889,52.797  "/>
<polygon fill="#4e7e60" points="233.334,490.945 376.221,372.724 88.052,91.369  "/>
<polygon fill="#4d9347" points="536.460,236.814 38.127,325.686 112.497,366.351  "/>
<polygon fill="#17ebaa" points="492.455,171.564 17.354,179.597 55.880,95.560  "/>
<polygon fill="#0b4936" points="201.550,298.252 414.541,315.595 531.259,473.525  "/>
<polygon fill="#2fb22c" points="266.856,265.009 572.023,486.666 352.291,166.094  "/>
<polygon fill="#e67437" points="393.160,38.866 310.209,123.029 365.726,441.020  "/>
</svg>