<?xml version="1.0" encoding="utf-8"?>
<!-- Generator: Python script. InTeResTinG -->
<!DOCTYPE svg PUBLIC "-//W3C//DTD SVG 1.1//EN" "http://www.w3.org/Graphics/SVG/1.1/DTD/svg11.dtd">
<svg version="1.1" id="Layer_1" xmlns="http://www.w3.org/2000/svg" xmlns:xlink="http://www.w3.org/1999/xlink" x="0px" y="0px" width="600.000px" height="600.000px" viewBox="0 0 600.000 600.000" enable-background="new 0 0 600.000 600.000" xml:space="preserve">
<polygon fill="#e43410" points="75.894,367.007 479.689,559.025 212.659,524.484  "/>
<polygon fill="#1d58a1" points="39.518,39.392 475.332,200.390 523.621,273.371  "/>
<polygon fill="#d03bd2" points="486.171,94.224 172.134,551.805 116.613,598.936  "/>
<polygon fill="#a15663" points="575.385,91.354 195.938,414.254 75.614,515.229  "/>
<polygon fill="#a56ad5" points="509.492,214.023 192.885,592.795 209.622,279.015  "/>
<polygon fill="#a75c69" points="386.058,184.703 474.715,106.469 23.628,412.002  "/>
<polygon fill="#1105fc" points="473.242,227.333 459.191,21.362 489.454,19.786  "/>
<polygon fill="#87a841" points="440.951,532.786 353.685,172.555 162.849,90.960  "/>
<polygon fill="#be11c4" points="477.624,315.131 323.440,345.984 175.193,89.646  "/>
<polygon fill="#6546eb" points="528.501,444.447 408.491,378.781 102.877,598.425  "/>
<polygon fill="#1d7792" points="252.913,393.428 258.356,157.444 327.022,548.536  "/>
<polygon fill="#64fc9f" points="582.695,236.555 517.908,52.785 205.239,277.081  "/>
<polygon fill="#757e89" points="267.699,436.059 282.619,504.924 457.962,432.156  "/>
<polygon fill="#ce50f0" points="455.195,3.089 347.832,237.811 155.562,294.955  "/>
<polygon fill="#092596" points="318.318,23.496 302.323,422.216 330.556,13.583  "/>
<polygon fill="#bb0311" points="94.404,173.048 253.979,77.365 559.698,44.744  "/>
<polygon fill="#d8b9cb" points="0.253,374.469 292.542,190.533 326.425,12.976  "/>
<polygon fill="#9b16f2" points="206.414,270.472 176.397,40.142 251.353,441.711  "/>
<polygon fill="#e0cea3" points="567.102,438.559 569.427,314.549 572.905,370.950  "/>
<polygon fill="#54fd70" points="344.763,53.435 524.200,504.842 49.333,308.712  "/>
<polygon fill="#d57d9c" points="523.350,459.504 115.006,328.826 505.763,407.729  "/>
<polygon fill="#447b54" points="369.799,203.244 583.637,161.620 544.993,509.672  "/>
<polygon fill="#4cbeb3" points="85.885,557.358 530.866,566.244 128.714,53.556  "/>
<polygon fill="#fcc65a" points="444.777,432.922 38.904,578.972 245.760,346.424  "/>
<polygon fill="#9fb078" points="413.263,16.611 91.943,354.415 460.064,316.302  "/>
<polygon fill="#f9e316" points="191.081,341.441 199.933,335.130 154.864,106.557  "/>
<polygon fill="#cd9c60" points="85.546,173.104 153.058,415.221 80.932,411.978  "/>
<polygon fill="#7e505c" points="91.599,369.519 192.081,259.006 297.356,103.309  "/>
<polygon fill="#1dcba8" points="248.731,92.155 310.742,75.965 415.462,185.136  "/>
<polygon fill="#e45b97" points="388.833,180.781 65.582,248.602 324.218,489.561  "/>
<polygon fill="#129b4f" points="68.488,302.910 557.971,439.823 398.220,31.756  "/>
<polygon fill="#1994cc" points="565.479,99.212 583.714,295.156 392.422,259.934  "/>
<polygon fill="#e68281" points="469.722,297.347 319.701,78.254 412.149,545.063  "/>
<polygon fill="#556ee6" points="221.311,30.074 449.965,336.426 49.607,541.833  "/>
<polygon fill="#8257c6" points="557.766,404.280 289.236,426.593 127.248,532.713  "/>
<polygon fill="#03dd93" points="501.624,158.965 191.524,489.663 535.215,525.261  "/>
<polygon fill="#a256c3" points="326.621,525.551 325.404,463.562 310.517,526.762  "/>
<polygon fill="#acbca6" points="113.376,386.901 232.400,211.277 89.901,547.847  "/>
<polygon fill="#1b4705" points="435.784,459.190 183.607,28.891 215.529,539.059  "/>
<polygon fill="#71c92a" points="371.355,87.584 412.650,23.070 319.088,158.949  "/>
<polygon fill="#d7e38c" points="423.640,358.641 398.456,75.797 87.354,339.668  "/>
<polygon fill="#789fe2" points="23.502,406.917 371.534,149.325 545.504,479.202  "/>
<polygon fill="#e7a6a4" points="513.825,243.175 124.453,337.658 213.750,84.215  "/>
<polygon fill="#7aa253" points="592.407,176.734 305.456,323.460 370.881,567.400  "/>
<polygon fill="#2878a6" points="265.949,76.059 22.734,554.589 335.389,224.737  "/>
<polygon fill="#186fdc" points="593.825,244.797 473.796,288.943 222.424,394.062  "/>
<polygon fill="#91d04e" points="570.252,241.916 271.847,374.935 587.412,479.215  "/>
<polygon fill="#3bb4de" points="440.724,587.183 253.177,318.963 188.318,328.825  "/>
<polygon fill="#70b9e6" points="471.140,322.329 285.945,590.832 565.425,477.246  "/>
<polygon fill="#0ccb5b" points="164.447,231.468 45.735,491.866 490.974,264.524  "/>
<polygon fill="#ac4bd5" points="443.138,7.810 407.694,323.988 250.536,260.041  "/>
<polygon fill="#917c43" points="472.809,509.057 281.876,238.727 254.158,595.095  "/>
<polygon fill="#c79d59" points="252.704,291.018 377.511,541.513 327.948,250.238  "/>
<polygon fill="#417a23" points="363.528,544.107 371.322,349.373 568.450,299.669  "/>
<polygon fill="#ec7108" points="339.683,203.850 464.974,303.753 427.698,29.124  "/>
<polygon fill="#ea420f" points="32.193,318.355 189.739,70.473 447.165,171.513  "/>
<polygon fill="#5641eb" points="391.393,353.183 130.910,439.353 215.398,34.965  "/>
</svg>