<?xml version="1.0" encoding="utf-8"?>
<!-- Generator: Python script. InTeResTinG -->
<!DOCTYPE svg PUBLIC "-//W3C//DTD SVG 1.1//EN" "http://www.w3.org/Graphics/SVG/1.1/DTD/svg11.dtd">
<svg version="1.1" id="Layer_1" xmlns="http://www.w3.org/2000/svg" xmlns:xlink="http://www.w3.org/1999/xlink" x="0px" y="0px" width="600.000px" height="600.000px" viewBox="0 0 600.000 600.000" enable-background="new 0 0 600.000 600.000" xml:space="preserve">
<polygon fill="#fee64c" points="75.495,4.807 109.329,61.284 20.445,332.257  "/>
<polygon fill="#3659ce" points="173.013,334.255 453.589,479.511 89.168,298.514  "/>
<polygon fill="#f63bef" points="248.286,51.094 395.683,61.462 60.280,188.298  "/>
<polygon fill="#e11ff3" points="0.180,357.882 483.788,118.810 491.227,368.515  "/>
<polygon fill="#b48459" points="321.782,96.948 92.391,68.746 296.638,136.703  "/>
<polygon fill="#d6ce7f" points="130.400,142.163 324.456,343.178 498.877,258.438  "/>
<polygon fill="#b89b88" points="19.727,242.700 546.088,437.351 32.709,199.328  "/>
<polygon fill="#255c12" points="32.189,358.588 78.438,513.955 396.579,500.645  "/>
<polygon fill="#62fb66" points="219.954,328.447 203.182,377.067 325.132,368.783  "/>
<polygon fill="#e9e8da" points="225.952,46.660 590.889,0.832 175.358,255.463  "/>
<polygon fill="#3314b5" points="351.491,148.821 112.762,109.267 55.127,350.843  "/>
<polygon fill="#6bd2e7" points="284.180,315.070 147.447,532.270 139.941,108.844  "/>
<polygon fill="#a6ecb6" points="224.418,482.478 206.349,368.794 288.446,276.669  "/>
<polygon fill="#f8a275" points="109.176,32.475 227.082,550.048 151.294,16.822  "/>
<polygon fill="#191abc" points="473.288,113.151 20.076,579.344 160.293,447.619  "/>
<polygon fill="#36e465" points="68.224,223.001 511.152,438.008 238.183,228.842  "/>
<polygon fill="#dce07c" points="116.887,158.346 332.039,138.334 594.067,392.070  "/>
<polygon fill="#cfccb6" points="473.423,567.278 229.028,573.923 535.132,438.880  "/>
<polygon fill="#85e4f9" points="510.196,70.331 350.170,588.185 121.903,457.249  "/>
<polygon fill="#32437d" points="171.689,282.393 534.597,262.596 197.519,224.641  "/>
<polygon fill="#2eab19" points="486.671,529.093 574.637,161.167 186.885,446.912  "/>
<polygon fill="#a6728a" points="301.691,281.500 110.183,21.441 441.822,537.408  "/>
<polygon fill="#233bc3" points="483.494,572.148 59.809,505.993 425.007,503.360  "/>
<polygon fill="#43c8c9" points="156.136,415.280 273.904,538.934 468.979,338.098  "/>
<polygon fill="#3a63d0" points="566.111,87.339 571.398,548.175 570.327,561.654  "/>
<polygon fill="#922a41" points="508.224,270.607 215.395,257.750 54.172,324.660  "/>
<polygon fill="#96bc0a" points="126.761,31.326 591.729,420.130 222.060,274.419  "/>
<polygon fill="#320da5" points="282.801,298.352 359.215,224.998 561.800,511.658  "/>
<polygon fill="#61d76a" points="40.845,164.393 471.412,584.856 365.551,202.774  "/>
<polygon fill="#48cc71" points="102.086,492.025 440.328,542.829 327.020,558.627  "/>
<polygon fill="#dc3135" points="232.571,250.642 353.291,444.677 46.698,402.007  "/>
<polygon fill="#cfb775" points="247.508,494.508 438.259,37.745 215.739,510.045  "/>
<polygon fill="#2538b8" points="199.891,331.216 208.345,479.393 416.104,87.065  "/>
<polygon fill="#bb3a63" points="355.413,244.766 346.387,48.806 269.479,541.176  "/>
<polygon fill="#d91886" points="114.775,418.855 471.897,301.903 355.500,400.363  "/>
<polygon fill="#8e108a" points="503.184,349.413 594.839,167.845 57.060,208.831  "/>
<polygon fill="#bac84a" points="165.539,408.179 355.035,223.097 227.077,56.293  "/>
<polygon fill="#212ad1" points="556.330,551.682 505.313,220.707 157.865,102.831  "/>
<polygon fill="#72e99b" points="166.197,478.094 44.786,564.364 254.519,296.669  "/>
<polygon fill="#334e5c" points="565.625,556.492 124.887,587.580 334.566,32.679  "/>
<polygon fill="#7e43c6" points="430.983,38.442 119.401,180.253 299.350,284.225  "/>
<polygon fill="#8cb374" points="150.432,581.636 39.263,119.986 510.319,453.984  "/>
<polygon fill="#d95fdd" points="65.944,355.519 284.325,151.253 541.396,368.164  "/>
<polygon fill="#639fb8" points="153.354,297.937 221.136,117.365 245.293,533.972  "/>
<polygon fill="#da5598" points="217.921,140.821 33.565,10.449 274.595,224.474  "/>
<polygon fill="#54cbe7" points="470.177,144.903 499.887,579.590 218.757,267.416  "/>
<polygon fill="#5ed9dc" points="249.026,546.431 233.868,545.261 28.621,117.908  "/>
<polygon fill="#9cba72" points="46.512,573.796 505.035,379.108 115.402,281.741  "/>
<polygon fill="#3ef86e" points="387.706,403.415 494.364,131.278 539.529,302.829  "/>
<polygon fill="#d71c1f" points="194.152,460.003 460.478,419.159 593.350,239.225  "/>
<polygon fill="#442442" points="225.311,44.847 499.921,273.486 540.131,316.605  "/>
<polygon fill="#d4cffc" points="137.836,397.053 288.608,393.730 357.441,551.052  "/>
<polygon fill="#976921" points="418.285,399.878 469.444,391.873 6.433,438.602  "/>
<polygon fill="#b132b3" points="485.049,246.043 599.606,69.393 136.390,292.637  "/>
<polygon fill="#e3fc2d" points="103.612,240.735 245.019,175.428 371.291,43.060  "/>
<polygon fill="#462157" points="16.594,364.771 359.519,379.128 136.499,256.281  "/>
<polygon fill="#0efd41" points="331.754,311.841 399.337,315.854 39.869,575.304  "/>
<polygon fill="#367dd8" points="270.174,105.646 485.273,90.644 309.392,225.678  "/>
<polygon fill="#23a87f" points="84.555,278.525 481.626,12.278 191.313,504.986  "/>
<polygon fill="#c3d4e2" points="472.499,415.477 296.301,184.221 63.528,139.681  "/>
<polygon fill="#355ec3" points="591.623,553.233 196.301,51.598 214.226,531.588  "/>
<polygon fill="#d68337" points="568.784,560.475 222.489,429.505 169.040,234.380  "/>
<polygon fill="#8f9d95" points="203.396,234.019 511.696,121.483 599.985,49.414  "/>
</svg>