<?xml version="1.0" encoding="utf-8"?>
<!-- Generator: Python script. InTeResTinG -->
<!DOCTYPE svg PUBLIC "-//W3C//DTD SVG 1.1//EN" "http://www.w3.org/Graphics/SVG/1.1/DTD/svg11.dtd">
<svg version="1.1" id="Layer_1" xmlns="http://www.w3.org/2000/svg" xmlns:xlink="http://www.w3.org/1999/xlink" x="0px" y="0px" width="600.000px" height="600.000px" viewBox="0 0 600.000 600.000" enable-background="new 0 0 600.000 600.000" xml:space="preserve">
<polygon fill="#97b521" points="552.657,561.413 515.204,269.747 353.618,476.673  "/>
<polygon fill="#03d1fb" points="583.417,305.934 96.615,453.557 119.054,477.606  "/>
<polygon fill="#1eab73" points="389.334,13.592 357.032,150.789 389.039,374.126  "/>
<polygon fill="#adc075" points="170.842,56.096 311.194,108.342 365.403,103.062  "/>
<polygon fill="#5f4ac3" points="114.292,478.674 143.712,28.861 327.450,320.545  "/>
<polygon fill="#317c81" points="115.060,469.351 311.271,578.491 220.238,568.244  "/>
<polygon fill="#e54618" points="499.283,11.758 470.656,173.657 2.856,394.098  "/>
<polygon fill="#209311" points="221.919,6.150 222.787,569.300 111.778,199.770  "/>
<polygon fill="#bdcf96" points="43.646,89.081 206.106,563.677 131.197,86.068  "/>
<polygon fill="#e720ee" points="495.501,488.612 445.586,56.986 130.718,183.191  "/>
<polygon fill="#e2a1da" points="142.079,317.487 52.930,163.674 231.277,392.817  "/>
<polygon fill="#794cfa" points="341.559,171.272 274.707,193.260 469.502,490.060  "/>
<polygon fill="#98104d" points="556.305,312.294 177.900,102.378 418.652,79.118  "/>
<polygon fill="#67ac8c" points="48.357,132.376 110.340,371.262 100.892,302.100  "/>
<polygon fill="#e5e6db" points="512.086,578.134 369.681,99.184 367.100,329.804  "/>
<polygon fill="#8ad527" points="179.884,482.087 213.541,50.422 34.192,429.486  "/>
<polygon fill="#39071f" points="342.360,582.220 202.500,350.844 595.244,273.581  "/>
<polygon fill="#ade1fb" points="299.043,579.125 371.593,204.450 33.488,308.871  "/>
<polygon fill="#0654e9" points="230.693,170.886 341.388,567.879 509.287,81.464  "/>
<polygon fill="#56246a" points="377.349,190.945 432.639,151.445 139.572,391.993  "/>
<polygon fill="#9bf531" points="502.061,63.552 523.765,401.799 92.296,19.743  "/>
<polygon fill="#16752f" points="555.699,13.627 177.587,436.017 501.743,568.215  "/>
<polygon fill="#fbf9af" points="593.218,552.735 558.071,264.205 397.921,387.849  "/>
<polygon fill="#8ba371" points="203.816,107.901 54.951,197.573 204.082,467.113  "/>
<polygon fill="#836e23" points="238.158,432.735 480.989,414.004 229.404,427.334  "/>
<polygon fill="#35eb17" points="30.105,203.153 330.388,325.014 305.200,498.312  "/>
<polygon fill="#b07345" points="56.425,245.175 95.482,67.046 153.206,383.096  "/>
<polygon fill="#bb3b05" points="134.558,497.038 344.541,469.338 411.973,200.402  "/>
<polygon fill="#967832" points="44.729,561.205 498.249,245.387 552.290,38.281  "/>
<polygon fill="#d8866c" points="186.526,332.982 517.697,535.673 161.130,247.685  "/>
<polygon fill="#c5c360" points="540.936,575.529 346.947,475.857 409.561,460.752  "/>
<polygon fill="#c61a9d" points="360.220,506.871 76.622,450.956 172.808,81.008  "/>
<polygon fill="#e34002" points="150.559,423.108 483.840,389.993 76.153,38.179  "/>
<polygon fill="#a1137a" points="536.932,291.678 567.461,451.742 14.383,455.694  "/>
<polygon fill="#da0d4d" points="131.727,557.760 35.934,371.117 272.074,510.570  "/>
<polygon fill="#67a599" points="530.115,555.320 198.839,181.480 271.440,547.308  "/>
<polygon fill="#74f332" points="327.648,297.448 81.812,156.808 293.876,489.564  "/>
<polygon fill="#05d712" points="48.332,396.795 529.189,67.304 187.547,396.162  "/>
<polygon fill="#8f414a" points="479.600,304.979 176.740,28.497 252.043,360.803  "/>
<polygon fill="#940b53" points="513.525,64.386 55.425,244.423 186.408,61.414  "/>
<polygon fill="#c00d64" points="2.413,290.829 529.640,79.694 304.285,7.502  "/>
<polygon fill="#89b7c1" points="374.251,102.888 110.594,370.656 150.094,355.491  "/>
<polygon fill="#4d768b" points="560.372,103.324 508.804,461.765 124.499,86.299  "/>
<polygon fill="#d2e13e" points="332.039,88.523 42.684,50.090 217.040,136.054  "/>
<polygon fill="#369605" points="117.755,465.492 596.145,168.029 597.142,117.570  "/>
<polygon fill="#544fd4" points="224.050,261.672 66.061,64.864 202.103,213.305  "/>
<polygon fill="#e86272" points="230.518,180.177 273.632,157.483 121.637,35.686  "/>
<polygon fill="#00fe7e" points="366.582,239.537 430.895,507.846 354.571,102.139  "/>
<polygon fill="#eab98b" points="536.334,236.834 155.428,306.116 293.944,301.542  "/>
<polygon fill="#891218" points="179.111,531.435 437.000,538.577 586.333,30.824  "/>
<polygon fill="#8b15cf" points="199.298,173.990 94.291,76.655 326.372,542.500  "/>
<polygon fill="#a76281" points="37.073,457.334 21.889,40.165 94.373,479.369  "/>
<polygon fill="#aedd13" points="585.189,144.381 493.372,372.516 238.953,403.374  "/>
<polygon fill="#c76bb2" points="128.538,261.867 36.466,566.274 486.082,152.973  "/>
<polygon fill="#b6a798" points="7.673,598.397 511.555,249.380 41.720,559.060  "/>
<polygon fill="#7266cd" points="501.653,474.469 539.335,61.871 552.414,565.148  "/>
<polygon fill="#9729d9" points="130.223,484.977 52.672,41.113 558.150,585.323  "/>
<polygon fill="#a6018c" points="463.994,79.378 503.208,59.675 20.712,76.118  "/>
<polygon fill="#8f831d" points="444.229,458.366 276.316,29.511 146.957,148.461  "/>
<polygon fill="#fb2e33" points="241.391,546.461 472.681,596.834 298.145,106.836  "/>
<polygon fill="#f121b0" points="424.408,44.561 565.052,206.796 160.107,329.470  "/>
<polygon fill="#c503e6" points="141.255,456.944 376.897,579.830 74.803,20.847  "/>
<polygon fill="#03ae8d" points="589.697,395.743 436.230,484.747 549.585,264.100  "/>
<polygon fill="#0ea302" points="118.881,104.792 563.285,507.672 223.659,474.543  "/>
<polygon fill="#77ba18" points="556.201,179.384 455.807,144.167 558.266,186.337  "/>
<polygon fill="#966f25" points="565.935,360.480 538.989,482.198 593.731,580.262  "/>
<polygon fill="#a8fe93" points="122.536,453.542 345.706,390.283 299.141,26.936  "/>
<polygon fill="#e70870" points="341.648,205.235 87.148,583.485 406.326,276.992  "/>
<polygon fill="#202b61" points="381.391,221.091 502.227,437.640 454.300,371.920  "/>
</svg>