<?xml version="1.0" encoding="utf-8"?>
<!-- Generator: Python script. InTeResTinG -->
<!DOCTYPE svg PUBLIC "-//W3C//DTD SVG 1.1//EN" "http://www.w3.org/Graphics/SVG/1.1/DTD/svg11.dtd">
<svg version="1.1" id="Layer_1" xmlns="http://www.w3.org/2000/svg" xmlns:xlink="http://www.w3.org/1999/xlink" x="0px" y="0px" width="600.000px" height="600.000px" viewBox="0 0 600.000 600.000" enable-background="new 0 0 600.000 600.000" xml:space="preserve">
<polygon fill="#9a4c5e" points="158.449,368.646 121.647,160.525 233.902,54.464  "/>
<polygon fill="#d9a5f8" points="125.008,579.094 597.296,125.674 563.759,95.260  "/>
<polygon fill="#e5823f" points="503.137,63.909 394.911,163.637 363.950,422.685  "/>
<polygon fill="#4b3f7c" points="315.475,171.501 120.138,182.237 253.275,319.445  "/>
<polygon fill="#d31ac6" points="158.444,334.786 255.160,88.547 312.742,252.615  "/>
<polygon fill="#f197d0" points="96.090,176.846 334.060,426.686 90.868,536.764  "/>
<polygon fill="#bf9254" points="215.157,387.174 576.863,41.507 379.345,541.014  "/>
<polygon fill="#ddcc6c" points="518.717,451.838 307.503,297.221 28.441,430.875  "/>
<polygon fill="#82c66c" points="574.582,40.430 414.520,359.495 404.833,484.758  "/>
<polygon fill="#245ef3" points="133.342,483.657 400.113,555.927 117.687,111.905  "/>
<polygon fill="#182ffd" points="337.967,435.698 362.748,158.140 28.209,35.127  "/>
<polygon fill="#6180f0" points="347.301,171.042 369.960,559.800 414.035,166.578  "/>
<polygon fill="#f1f1aa" points="411.469,156.270 530.450,364.476 66.926,598.125  "/>
<polygon fill="#8d03d8" points="431.257,540.401 339.881,94.410 58.003,570.820  "/>
<polygon fill="#2a5ea4" points="129.028,206.049 536.922,178.241 255.350,481.891  "/>
<polygon fill="#6ea149" points="345.238,397.050 392.356,406.451 555.604,584.207  "/>
<polygon fill="#5ef033" points="486.008,198.886 147.044,458.027 372.879,206.629  "/>
<polygon fill="#cd5c5f" points="433.100,599.727 242.417,378.961 431.959,370.704  "/>
<polygon fill="#4d413c" points="384.243,341.421 568.700,403.691 157.404,175.819  "/>
<polygon fill="#cced46" points="58.411,64.844 149.192,68.290 361.314,312.133  "/>
<polygon fill="#81a1a6" points="63.087,527.822 8.450,283.721 350.872,313.384  "/>
<polygon fill="#214eb1" points="63.863,495.659 173.478,580.401 172.954,30.168  "/>
<polygon fill="#e9d28d" points="561.865,474.641 556.251,214.067 368.455,75.600  "/>
<polygon fill="#8ad383" points="287.422,490.084 456.676,147.082 15.334,67.633  "/>
<polygon fill="#858d99" points="135.353,195.765 589.029,387.687 212.880,540.509  "/>
<polygon fill="#5a1476" points="246.996,13.400 60.741,8.435 584.911,179.826  "/>
<polygon fill="#78e0bf" points="285.525,314.166 386.815,385.143 538.304,91.554  "/>
<polygon fill="#3a3920" points="390.134,508.311 1.132,465.392 360.705,61.131  "/>
<polygon fill="#592e2f" points="157.689,111.376 218.020,303.749 503.424,528.367  "/>
<polygon fill="#244ea0" points="486.102,374.217 409.681,373.621 46.595,210.139  "/>
<polygon fill="#3614e4" points="329.867,186.679 266.067,145.390 121.082,574.708  "/>
<polygon fill="#c4db2e" points="230.284,344.701 263.774,380.516 445.243,532.182  "/>
<polygon fill="#ab036d" points="599.692,555.953 535.579,326.605 328.652,59.868  "/>
<polygon fill="#2f7b85" points="569.520,256.607 275.084,528.050 273.860,329.137  "/>
<polygon fill="#0a9d78" points="300.378,58.744 60.610,212.243 479.186,88.309  "/>
<polygon fill="#4f158f" points="379.745,552.941 246.183,232.023 83.802,348.644  "/>
<polygon fill="#594d11" points="60.187,356.895 475.836,390.583 448.044,388.483  "/>
<polygon fill="#64abc1" points="440.131,16.186 531.123,442.003 428.426,397.207  "/>
<polygon fill="#2f2bfa" points="498.708,486.415 159.028,479.845 510.345,465.634  "/>
<polygon fill="#490e56" points="561.755,158.976 22.062,551.481 116.554,46.713  "/>
<polygon fill="#b2fabd" points="544.802,505.859 4.041,146.422 237.387,409.210  "/>
<polygon fill="#ce22b8" points="40.986,555.095 371.597,172.195 143.521,436.918  "/>
<polygon fill="#7bb5e4" points="198.385,35.446 490.216,449.361 37.802,527.663  "/>
<polygon fill="#a060b2" points="119.992,66.523 374.824,329.107 268.332,404.382  "/>
<polygon fill="#64eb8a" points="192.967,161.032 357.497,365.888 437.644,313.352  "/>
<polygon fill="#c75c3f" points="578.742,364.742 121.304,26.446 494.240,474.791  "/>
<polygon fill="#440dd1" points="128.615,491.272 490.092,486.898 409.823,428.262  "/>
<polygon fill="#25c1e2" points="59.607,279.791 342.897,452.501 320.576,424.800  "/>
<polygon fill="#bd8853" points="472.207,391.357 568.528,553.056 166.881,226.883  "/>
<polygon fill="#1c5c33" points="240.078,423.671 237.961,289.508 599.402,384.875  "/>
<polygon fill="#933ea5" points="305.195,166.234 212.050,152.217 255.379,34.216  "/>
<polygon fill="#49f628" points="281.175,165.177 80.779,374.338 245.943,574.061  "/>
<polygon fill="#b15bc7" points="55.775,233.652 251.179,511.452 241.124,57.094  "/>
<polygon fill="#a333a0" points="521.615,438.030 204.517,447.925 539.653,504.143  "/>
<polygon fill="#23267a" points="34.220,403.028 129.608,264.775 563.558,314.666  "/>
<polygon fill="#f15fb9" points="413.535,169.405 7.406,110.059 494.610,323.308  "/>
<polygon fill="#861eab" points="20.259,544.979 162.863,256.886 238.810,542.678  "/>
<polygon fill="#c690f6" points="420.422,315.923 73.151,15.912 545.922,228.547  "/>
<polygon fill="#e83d6f" points="442.236,465.731 393.162,151.842 582.557,356.768  "/>
</svg>