<?xml version="1.0" encoding="utf-8"?>
<!-- Generator: Python script. InTeResTinG -->
<!DOCTYPE svg PUBLIC "-//W3C//DTD SVG 1.1//EN" "http://www.w3.org/Graphics/SVG/1.1/DTD/svg11.dtd">
<svg version="1.1" id="Layer_1" xmlns="http://www.w3.org/2000/svg" xmlns:xlink="http://www.w3.org/1999/xlink" x="0px" y="0px" width="600.000px" height="600.000px" viewBox="0 0 600.000 600.000" enable-background="new 0 0 600.000 600.000" xml:space="preserve">
<polygon fill="#3e4271" points="74.928,48.978 43.776,317.731 156.057,23.212  "/>
<polygon fill="#77d034" points="374.615,215.629 307.125,599.495 336.709,556.025  "/>
<polygon fill="#c53d75" points="269.717,443.917 460.204,388.781 268.827,510.294  "/>
<polygon fill="#25b00d" points="78.953,535.374 531.182,33.659 460.799,504.086  "/>
<polygon fill="#8857df" points="413.621,404.445 103.344,100.008 594.998,550.824  "/>
<polygon fill="#237573" points="587.745,540.149 432.230,452.537 131.159,133.318  "/>
<polygon fill="#f7b968" points="79.304,536.227 64.716,211.974 22.970,538.899  "/>
<polygon fill="#7caea7" points="23.573,319.336 92.397,456.669 183.404,510.469  "/>
<polygon fill="#c6bd69" points="112.381,473.384 447.275,561.124 267.395,549.502  "/>
<polygon fill="#68ccb3" points="250.662,536.971 536.455,111.322 154.274,475.407  "/>
<polygon fill="#d85a68" points="213.154,537.797 394.496,457.845 276.068,184.532  "/>
<polygon fill="#f98a91" points="457.759,319.334 528.347,94.577 147.934,130.983  "/>
<polygon fill="#875047" points="570.910,383.552 55.998,536.287 387.477,137.903  "/>
<polygon fill="#9b248c" points="294.527,578.041 445.761,522.471 389.869,168.237  "/>
<polygon fill="#5f2013" points="201.321,108.548 299.784,479.481 247.881,382.093  "/>
<polygon fill="#6abcb4" points="476.740,431.553 235.833,97.997 515.575,209.856  "/>
<polygon fill="#57d5d7" points="150.966,358.226 372.833,126.745 347.770,580.313  "/>
<polygon fill="#0b4d52" points="10.042,141.124 268.034,82.720 588.371,80.156  "/>
<polygon fill="#e36834" points="46.213,544.132 244.980,497.098 551.968,445.067  "/>
<polygon fill="#b132ba" points="513.522,577.264 477.863,422.073 311.788,448.317  "/>
<polygon fill="#ad3653" points="158.936,509.327 189.264,453.275 58.271,562.067  "/>
<polygon fill="#1e5c58" points="61.670,4.693 222.342,521.298 578.306,357.862  "/>
<polygon fill="#2b5bc0" points="377.263,199.967 123.864,36.875 377.711,497.101  "/>
<polygon fill="#f987f7" points="121.518,166.016 209.745,595.948 315.513,528.438  "/>
<polygon fill="#ea0698" points="318.880,299.059 354.728,103.218 551.053,407.559  "/>
<polygon fill="#de2162" points="412.243,226.399 550.717,444.244 404.720,14.026  "/>
<polygon fill="#6f44a1" points="206.570,6.048 243.926,463.052 523.901,354.397  "/>
<polygon fill="#5ab1c7" points="487.341,113.742 263.090,221.245 586.101,10.110  "/>
<polygon fill="#2af375" points="176.629,431.760 359.721,500.473 33.928,382.648  "/>
<polygon fill="#5962e8" points="462.313,294.286 166.291,92.624 399.534,536.657  "/>
<polygon fill="#c6e6ff" points="164.215,200.116 16.783,463.732 93.538,519.706  "/>
<polygon fill="#6ede6b" points="417.662,127.429 160.521,487.557 67.835,104.541  "/>
<polygon fill="#3c081f" points="100.196,533.228 447.311,58.450 115.991,432.780  "/>
<polygon fill="#cd308d" points="285.365,426.467 515.846,399.183 532.169,480.368  "/>
<polygon fill="#f40533" points="255.877,289.243 552.660,114.115 404.638,119.432  "/>
<polygon fill="#f7e1a3" points="269.452,59.933 494.746,100.439 448.119,465.893  "/>
<polygon fill="#3fe710" points="575.667,252.644 537.623,457.273 26.803,321.672  "/>
<polygon fill="#569bde" points="3.693,368.744 216.691,335.261 463.293,417.325  "/>
<polygon fill="#92cc4e" points="512.307,433.630 160.321,437.341 531.198,216.587  "/>
<polygon fill="#707d19" points="46.618,463.602 487.167,262.033 221.388,428.405  "/>
<polygon fill="#bde712" points="133.495,64.526 459.972,596.685 462.367,41.536  "/>
<polygon fill="#ec557f" points="280.959,11.211 39.973,171.912 6.715,234.243  "/>
<polygon fill="#0d66b1" points="404.865,158.772 345.390,533.950 238.116,372.944  "/>
<polygon fill="#96d0b9" points="571.797,253.373 282.014,239.786 325.039,266.431  "/>
<polygon fill="#0ceaa6" points="567.170,569.971 49.837,303.133 491.419,539.715  "/>
<polygon fill="#80750b" points="328.149,100.433 364.416,6.439 504.153,64.726  "/>
<polygon fill="#ae7e8a" points="207.429,285.526 234.787,471.656 313.083,365.364  "/>
<polygon fill="#bc96de" points="420.559,564.758 108.477,218.579 152.746,369.404  "/>
<polygon fill="#0f57d0" points="390.614,502.987 452.561,482.484 303.422,70.806  "/>
<polygon fill="#e15283" points="530.690,288.057 342.246,417.319 426.951,235.598  "/>
<polygon fill="#912b40" points="465.624,468.939 491.014,138.606 458.104,437.931  "/>
<polygon fill="#633b83" points="263.554,549.232 194.201,83.735 295.227,120.567  "/>
<polygon fill="#65e2b9" points="470.098,451.966 277.869,52.414 516.910,376.714  "/>
<polygon fill="#b48220" points="266.496,505.339 58.870,66.587 291.102,357.000  "/>
<polygon fill="#65cc55" points="8.140,457.179 580.383,228.217 312.586,503.322  "/>
<polygon fill="#7aabeb" points="410.083,594.420 131.189,366.533 483.495,50.845  "/>
</svg>