<?xml version="1.0" encoding="utf-8"?>
<!-- Generator: Python script. InTeResTinG -->
<!DOCTYPE svg PUBLIC "-//W3C//DTD SVG 1.1//EN" "http://www.w3.org/Graphics/SVG/1.1/DTD/svg11.dtd">
<svg version="1.1" id="Layer_1" xmlns="http://www.w3.org/2000/svg" xmlns:xlink="http://www.w3.org/1999/xlink" x="0px" y="0px" width="600.000px" height="600.000px" viewBox="0 0 600.000 600.000" enable-background="new 0 0 600.000 600.000" xml:space="preserve">
<polygon fill="#900717" points="68.875,326.574 140.475,232.050 233.222,47.455  "/>
<polygon fill="#357e0b" points="292.603,135.633 454.286,410.917 92.362,454.953  "/>
<polygon fill="#f0cf82" points="321.609,422.487 574.062,71.043 212.228,496.527  "/>
<polygon fill="#ab45df" points="236.600,393.401 597.426,242.235 137.938,151.829  "/>
<polygon fill="#b97436" points="43.466,526.678 90.727,454.019 134.569,245.319  "/>
<polygon fill="#a69926" points="374.411,151.936 501.721,143.958 189.034,345.351  "/>
<polygon fill="#98aa78" points="366.965,189.813 59.220,335.844 451.604,135.659  "/>
<polygon fill="#1d0165" points="517.483,572.064 371.176,567.211 275.099,573.603  "/>
<polygon fill="#34bc8a" points="74.989,581.085 140.250,255.873 452.428,69.064  "/>
<polygon fill="#fb819e" points="251.866,188.304 294.655,380.936 167.693,175.209  "/>
<polygon fill="#206c4b" points="156.156,483.153 434.260,215.667 512.685,150.024  "/>
<polygon fill="#d0cf4b" points="532.408,593.485 436.828,279.539 357.753,406.583  "/>
<polygon fill="#933455" points="430.889,450.584 130.631,479.565 480.819,361.346  "/>
<polygon fill="#49079a" points="20.105,280.635 105.399,589.328 53.422,569.984  "/>
<polygon fill="#75e896" points="2.038,564.998 376.438,39.613 351.070,46.002  "/>
<polygon fill="#236c39" points="79.201,434.178 565.267,409.440 514.010,344.846  "/>
<polygon fill="#66ab78" points="262.974,82.321 428.466,158.664 536.992,73.836  "/>
<polygon fill="#afaa7a" points="23.051,381.167 546.711,547.078 0.953,595.430  "/>
<polygon fill="#459d08" points="321.200,448.724 295.842,536.283 397.976,89.308  "/>
<polygon fill="#8da6c2" points="437.243,126.925 569.989,129.820 437.328,446.073  "/>
<polygon fill="#e7f3c1" points="368.727,472.049 537.094,96.266 106.571,337.772  "/>
<polygon fill="#fa9c13" points="282.761,116.045 272.852,459.070 451.534,50.080  "/>
<polygon fill="#1ff9b3" points="468.864,385.994 229.654,411.310 32.997,10.879  "/>
<polygon fill="#23aef6" points="92.137,387.826 282.918,519.429 419.408,292.919  "/>
<polygon fill="#4899d1" points="241.066,480.434 499.205,234.974 166.428,457.212  "/>
<polygon fill="#ba45d5" points="76.868,42.269 317.136,476.183 41.347,583.179  "/>
<polygon fill="#1b7ebc" points="493.439,34.526 372.598,334.942 350.777,93.429  "/>
<polygon fill="#2bd721" points="565.451,194.990 126.864,241.036 24.143,238.326  "/>
<polygon fill="#a9171b" points="265.914,392.629 190.974,92.182 543.544,580.342  "/>
<polygon fill="#b554e2" points="47.524,353.807 488.613,159.581 472.679,396.990  "/>
<polygon fill="#0a4934" points="424.862,442.164 532.575,347.497 593.149,396.106  "/>
<polygon fill="#0be519" points="198.225,538.619 161.370,45.313 579.800,5.860  "/>
<polygon fill="#b4898c" points="568.147,39.311 26.957,410.959 280.375,483.184  "/>
<polygon fill="#21cb9f" points="500.513,554.658 566.108,447.732 442.590,597.848  "/>
<polygon fill="#84164b" points="279.605,297.808 525.614,164.515 543.019,88.196  "/>
<polygon fill="#63adf7" points="385.238,151.768 162.465,308.063 70.382,308.497  "/>
<polygon fill="#d4e132" points="290.478,88.907 255.634,164.322 0.226,68.433  "/>
<polygon fill="#f60b59" points="543.035,582.800 120.513,553.267 137.317,464.944  "/>
<polygon fill="#0275e0" points="275.866,193.720 60.575,516.126 435.520,520.347  "/>
<polygon fill="#a248f0" points="559.086,141.479 531.971,43.059 389.073,267.782  "/>
<polygon fill="#d0318a" points="494.480,277.908 134.653,37.021 414.541,223.478  "/>
<polygon fill="#60c09a" points="501.793,156.417 551.795,532.218 91.579,189.971  "/>
<polygon fill="#aea5d5" points="25.371,100.096 144.526,173.039 589.560,166.066  "/>
<polygon fill="#0ac420" points="254.968,239.484 212.823,55.974 485.512,287.980  "/>
<polygon fill="#699c29" points="263.760,349.275 93.120,405.320 151.960,88.992  "/>
<polygon fill="#7ac223" points="562.150,514.441 236.247,585.006 65.144,332.016  "/>
<polygon fill="#806b77" points="180.514,494.480 300.426,394.044 251.240,479.706  "/>
<polygon fill="#b3728e" points="384.416,118.855 119.887,357.985 460.018,56.842  "/>
<polygon fill="#05f6e7" points="495.077,209.396 7.916,435.943 52.606,192.679  "/>
<polygon fill="#afdc99" points="409.609,242.694 567.209,93.693 309.808,151.618  "/>
<polygon fill="#dd3797" points="16.783,31.603 482.048,326.122 459.094,431.155  "/>
<polygon fill="#b4367b" points="349.358,30.536 37.703,258.164 367.085,577.841  "/>
<polygon fill="#616e2c" points="560.687,294.128 251.205,572.769 238.000,269.946  "/>
<polygon fill="#b0a574" points="239.137,41.566 377.994,138.200 428.704,263.718  "/>
<polygon fill="#a90def" points="28.626,8.385 13.495,391.554 128.545,138.347  "/>
<polygon fill="#75bce6" points="80.449,213.559 20.629,96.099 585.483,216.926  "/>
<polygon fill="#efd5af" points="527.192,473.795 402.891,239.695 122.628,472.907  "/>
<polygon fill="#d0db54" points="242.480,178.033 153.354,524.064 240.123,288.940  "/>
<polygon fill="#853cac" points="263.293,567.764 222.261,561.862 323.076,174.506  "/>
<polygon fill="#d6df1c" points="70.329,83.215 187.233,227.084 180.440,482.666  "/>
<polygon fill="#8f41ca" points="263.620,374.305 279.346,351.302 505.800,7.449  "/>
<polygon fill="#752c01" points="86.937,21.971 234.124,119.156 233.191,275.042  "/>
</svg>