<?xml version="1.0" encoding="utf-8"?>
<!-- Generator: Python script. InTeResTinG -->
<!DOCTYPE svg PUBLIC "-//W3C//DTD SVG 1.1//EN" "http://www.w3.org/Graphics/SVG/1.1/DTD/svg11.dtd">
<svg version="1.1" id="Layer_1" xmlns="http://www.w3.org/2000/svg" xmlns:xlink="http://www.w3.org/1999/xlink" x="0px" y="0px" width="600.000px" height="600.000px" viewBox="0 0 600.000 600.000" enable-background="new 0 0 600.000 600.000" xml:space="preserve">
<polygon fill="#33de52" points="536.259,42.473 249.508,79.657 112.374,54.100  "/>
<polygon fill="#79f82f" points="249.299,355.598 428.759,125.304 497.804,434.792  "/>
<polygon fill="#287e41" points="531.743,242.838 577.031,87.371 157.124,212.573  "/>
<polygon fill="#395949" points="476.175,220.721 138.746,209.887 319.621,164.000  "/>
<polygon fill="#07620e" points="565.527,444.874 104.011,261.323 424.826,560.480  "/>
<polygon fill="#fa314a" points="294.754,562.806 249.226,563.830 97.313,519.629  "/>
<polygon fill="#87f29f" points="337.562,190.614 530.583,477.277 492.477,251.871  "/>
<polygon fill="#556431" points="499.105,235.557 72.197,431.761 103.853,413.746  "/>
<polygon fill="#017ad0" points="527.048,154.272 499.995,361.249 518.265,414.085  "/>
<polygon fill="#566ff2" points="282.899,46.126 160.926,534.228 275.444,97.451  "/>
<polygon fill="#ace997" points="352.323,363.581 71.562,259.779 423.117,166.271  "/>
<polygon fill="#29c2c9" points="385.468,221.799 81.011,28.691 381.673,218.198  "/>
<polygon fill="#3e8b8a" points="27.442,571.935 31.989,350.784 552.304,176.942  "/>
<polygon fill="#defa03" points="447.671,20.569 255.659,6.660 376.988,389.460  "/>
<polygon fill="#0674fa" points="60.468,374.568 312.701,307.857 172.895,262.843  "/>
<polygon fill="#97429d" points="521.711,187.545 214.866,96.626 304.760,535.153  "/>
<polygon fill="#e8d853" points="138.188,405.352 149.422,334.799 415.208,316.585  "/>
<polygon fill="#af22c6" points="141.061,376.440 240.199,598.945 357.611,246.342  "/>
<polygon fill="#ccf819" points="33.644,142.217 289.361,404.289 85.235,426.511  "/>
<polygon fill="#d6c023" points="180.521,594.799 319.036,403.419 462.766,388.328  "/>
<polygon fill="#b69f0b" points="66.150,262.747 383.481,456.014 167.162,382.845  "/>
<polygon fill="#bbcd86" points="591.019,588.706 326.936,445.863 2.338,245.793  "/>
<polygon fill="#717ccc" points="347.398,338.971 320.123,480.707 529.303,593.216  "/>
<polygon fill="#d516ed" points="271.007,65.799 333.715,248.014 489.241,422.786  "/>
<polygon fill="#ad5e81" points="570.951,353.563 135.412,83.008 497.581,132.379  "/>
<polygon fill="#ad35d4" points="262.146,52.078 417.476,103.909 483.390,199.882  "/>
<polygon fill="#6b3653" points="545.578,396.221 479.622,524.762 75.238,76.721  "/>
<polygon fill="#6850a1" points="387.903,309.832 454.944,566.900 209.921,154.938  "/>
<polygon fill="#fa91a6" points="66.523,35.020 497.893,562.679 257.790,477.506  "/>
<polygon fill="#8016cd" points="215.250,522.285 22.415,19.905 42.403,312.133  "/>
<polygon fill="#469091" points="208.006,232.562 411.526,378.851 22.270,8.271  "/>
<polygon fill="#379c49" points="227.010,544.995 42.196,371.752 60.245,257.402  "/>
<polygon fill="#d1ad62" points="124.773,546.037 425.601,148.553 328.848,514.046  "/>
<polygon fill="#7b47d2" points="428.698,354.338 252.973,401.182 210.695,365.007  "/>
<polygon fill="#6289d2" points="244.038,210.069 350.688,87.337 351.888,108.729  "/>
<polygon fill="#87c618" points="100.769,79.552 222.073,468.732 131.874,598.930  "/>
<polygon fill="#d1c1d7" points="319.832,499.081 594.936,127.203 91.891,14.285  "/>
<polygon fill="#f784e6" points="381.719,269.476 558.934,345.949 97.633,229.265  "/>
<polygon fill="#5870a8" points="215.349,456.028 101.083,398.993 207.617,326.187  "/>
<polygon fill="#d58b2f" points="564.395,283.835 91.808,183.836 15.814,439.920  "/>
<polygon fill="#0d9097" points="463.129,176.093 169.834,439.221 129.948,572.234  "/>
<polygon fill="#d2590a" points="367.600,122.178 50.289,193.575 8.730,76.930  "/>
<polygon fill="#229ff3" points="584.415,118.519 151.324,201.734 497.958,421.777  "/>
<polygon fill="#4d00e4" points="243.090,473.652 220.745,93.363 585.025,116.646  "/>
<polygon fill="#d3804b" points="48.902,97.294 136.344,126.808 529.789,567.360  "/>
<polygon fill="#f41bad" points="299.430,101.864 331.176,103.009 574.583,86.223  "/>
<polygon fill="#463c2b" points="45.690,582.709 212.579,273.636 18.957,318.835  "/>
<polygon fill="#ccc5f3" points="329.155,525.208 127.099,522.532 433.183,494.733  "/>
<polygon fill="#80e784" points="552.666,413.122 271.522,370.521 316.653,282.026  "/>
<polygon fill="#5448ec" points="97.169,286.860 525.656,167.113 179.835,230.255  "/>
<polygon fill="#4c664a" points="84.892,305.081 404.526,81.102 151.760,12.769  "/>
<polygon fill="#c34828" points="492.309,185.873 282.744,415.652 414.745,192.616  "/>
<polygon fill="#5b47d2" points="410.837,334.395 392.237,575.855 436.738,539.971  "/>
<polygon fill="#d3e4d2" points="463.751,79.812 481.827,481.089 69.600,136.397  "/>
<polygon fill="#e80c6d" points="219.815,67.158 117.690,86.928 171.365,186.799  "/>
<polygon fill="#1f3289" points="363.713,262.839 436.960,477.046 69.037,247.105  "/>
<polygon fill="#58a4e7" points="568.708,379.831 112.768,592.900 139.585,206.033  "/>
<polygon fill="#166683" points="24.402,499.685 60.842,571.314 228.088,353.229  "/>
<polygon fill="#602963" points="559.366,367.055 300.103,461.511 172.804,378.292  "/>
</svg>