<?xml version="1.0" encoding="utf-8"?>
<!-- Generator: Python script. InTeResTinG -->
<!DOCTYPE svg PUBLIC "-//W3C//DTD SVG 1.1//EN" "http://www.w3.org/Graphics/SVG/1.1/DTD/svg11.dtd">
<svg version="1.1" id="Layer_1" xmlns="http://www.w3.org/2000/svg" xmlns:xlink="http://www.w3.org/1999/xlink" x="0px" y="0px" width="600.000px" height="600.000px" viewBox="0 0 600.000 600.000" enable-background="new 0 0 600.000 600.000" xml:space="preserve">
<polygon fill="#dfef16" points="424.746,285.292 511.423,497.944 583.653,274.208  "/>
<polygon fill="#da619f" points="535.974,408.582 149.397,360.675 35.812,534.264  "/>
<polygon fill="#7c8fcb" points="473.674,313.162 99.993,384.988 573.893,313.796  "/>
<polygon fill="#0dd0ec" points="486.393,118.692 501.904,403.077 22.584,522.216  "/>
<polygon fill="#0c361f" points="398.838,509.641 406.312,547.349 598.428,406.220  "/>
<polygon fill="#03a2fe" points="507.529,557.748 464.423,168.923 189.139,65.284  "/>
<polygon fill="#0e3372" points="181.128,364.486 284.565,368.724 486.584,219.987  "/>
<polygon fill="#170835" points="223.545,421.858 194.962,482.159 233.939,259.460  "/>
<polygon fill="#27346a" points="57.136,56.364 390.995,279.687 137.587,365.585  "/>
<polygon fill="#36e75d" points="37.984,554.318 1.372,127.338 39.071,564.031  "/>
<polygon fill="#f6d24c" points="595.265,295.751 342.928,473.230 429.652,145.768  "/>
<polygon fill="#5e7b49" points="530.020,76.537 20.404,490.717 513.709,406.316  "/>
<polygon fill="#48e396" points="520.821,556.476 217.018,226.261 296.728,194.161  "/>
<polygon fill="#27778b" points="178.601,44.838 461.256,170.337 471.007,525.694  "/>
<polygon fill="#1e625b" points="391.074,337.007 544.739,340.117 290.639,159.539  "/>
<polygon fill="#0a5489" points="434.911,150.878 42.891,221.174 501.128,162.461  "/>
<polygon fill="#a2c488" points="90.856,259.432 209.113,190.109 536.342,370.336  "/>
<polygon fill="#2b5e75" points="501.003,47.718 243.862,180.285 147.949,304.948  "/>
<polygon fill="#3d6ad2" points="324.645,465.713 229.065,293.047 572.211,298.661  "/>
<polygon fill="#b35b98" points="467.142,405.984 83.585,139.371 89.099,73.287  "/>
<polygon fill="#b6a654" points="377.117,72.899 567.135,177.833 84.860,68.571  "/>
<polygon fill="#3dd28f" points="588.950,100.523 596.883,536.103 26.480,531.709  "/>
<polygon fill="#fd223e" points="433.943,94.123 387.141,163.657 499.691,516.904  "/>
<polygon fill="#09e79a" points="286.549,2.512 523.838,88.293 11.154,209.262  "/>
<polygon fill="#d86ceb" points="113.445,221.840 373.259,94.985 234.610,249.905  "/>
<polygon fill="#25dced" points="398.500,297.168 476.366,464.675 453.029,542.001  "/>
<polygon fill="#6389e4" points="311.246,57.352 214.589,63.159 242.275,353.543  "/>
<polygon fill="#5d73e2" points="364.195,146.235 134.113,338.129 314.468,536.809  "/>
<polygon fill="#bc4952" points="193.741,156.268 269.879,41.288 597.161,173.742  "/>
<polygon fill="#508cb9" points="47.196,224.820 103.314,71.759 586.436,451.273  "/>
<polygon fill="#3d0606" points="270.010,309.690 19.920,395.904 351.057,528.103  "/>
<polygon fill="#87afef" points="391.428,553.054 135.246,111.578 315.229,348.379  "/>
<polygon fill="#a2c0ba" points="356.060,165.652 195.908,182.048 320.175,15.491  "/>
<polygon fill="#ce5bdf" points="4.973,183.031 534.604,86.737 105.093,237.462  "/>
<polygon fill="#c97bdf" points="447.154,539.920 192.181,400.094 236.687,507.342  "/>
<polygon fill="#a8e69d" points="298.537,514.972 100.962,324.973 242.664,330.184  "/>
<polygon fill="#abeb57" points="319.123,331.523 211.188,476.290 243.428,198.385  "/>
<polygon fill="#ba6ea1" points="268.256,30.339 153.521,471.153 260.821,592.638  "/>
<polygon fill="#4a09de" points="156.852,564.021 446.652,365.050 305.073,486.162  "/>
<polygon fill="#f6a2c9" points="409.072,456.997 559.563,259.984 568.209,201.280  "/>
<polygon fill="#f80287" points="335.121,437.794 271.661,312.633 587.194,159.351  "/>
<polygon fill="#564317" points="590.463,361.432 326.577,87.519 384.438,460.981  "/>
<polygon fill="#6678e2" points="444.757,47.815 109.200,263.031 499.762,556.335  "/>
<polygon fill="#7bb318" points="413.558,564.182 425.899,467.340 65.952,478.166  "/>
<polygon fill="#5b9941" points="375.092,214.294 457.165,31.622 248.429,217.870  "/>
<polygon fill="#45d4d0" points="245.957,326.136 342.198,2.940 351.066,139.332  "/>
<polygon fill="#0bdfe3" points="354.224,516.595 402.328,589.617 516.083,228.642  "/>
<polygon fill="#a86d22" points="271.824,83.255 75.693,210.179 2.849,590.957  "/>
<polygon fill="#4d9faa" points="439.573,295.522 9.483,510.050 95.059,215.552  "/>
<polygon fill="#b9ccf1" points="481.360,131.198 82.037,424.010 566.146,585.665  "/>
<polygon fill="#defbb8" points="572.914,487.613 79.320,110.760 191.579,20.210  "/>
<polygon fill="#71b435" points="469.445,558.339 139.825,135.108 419.782,302.913  "/>
<polygon fill="#92bf57" points="440.374,282.790 14.613,3.357 521.408,442.497  "/>
<polygon fill="#1ff31a" points="61.792,559.153 462.555,93.015 51.483,30.085  "/>
<polygon fill="#7b0322" points="465.745,493.073 102.474,236.468 503.123,437.838  "/>
<polygon fill="#e6fa28" points="309.550,319.626 449.398,213.336 379.767,192.332  "/>
<polygon fill="#e91498" points="266.360,446.361 277.780,488.127 235.496,568.503  "/>
<polygon fill="#6d60e0" points="427.285,272.554 85.425,137.500 42.586,141.839  "/>
<polygon fill="#d17326" points="549.721,529.541 573.938,91.696 249.901,430.155  "/>
<polygon fill="#9a86a8" points="8.085,81.547 478.395,320.175 227.696,209.437  "/>
<polygon fill="#41fcc7" points="246.793,280.191 464.520,179.630 428.880,403.950  "/>
</svg>