<?xml version="1.0" encoding="utf-8"?>
<!-- Generator: Python script. InTeResTinG -->
<!DOCTYPE svg PUBLIC "-//W3C//DTD SVG 1.1//EN" "http://www.w3.org/Graphics/SVG/1.1/DTD/svg11.dtd">
<svg version="1.1" id="Layer_1" xmlns="http://www.w3.org/2000/svg" xmlns:xlink="http://www.w3.org/1999/xlink" x="0px" y="0px" width="600.000px" height="600.000px" viewBox="0 0 600.000 600.000" enable-background="new 0 0 600.000 600.000" xml:space="preserve">
<polygon fill="#bea34a" points="545.241,337.523 336.189,563.684 31.858,72.499  "/>
<polygon fill="#ef2f87" points="345.654,281.019 257.639,516.398 59.291,275.610  "/>
<polygon fill="#798c94" points="569.482,547.343 146.503,412.680 373.018,433.406  "/>
<polygon fill="#d897e2" points="51.891,392.495 131.641,126.817 149.942,33.846  "/>
<polygon fill="#709277" points="491.244,241.262 571.116,89.994 37.677,230.791  "/>
<polygon fill="#3525bc" points="47.117,304.722 26.654,530.033 349.165,202.697  "/>
<polygon fill="#761c3d" points="333.074,36.326 85.923,307.562 355.835,479.869  "/>
<polygon fill="#d01af3" points="43.773,455.075 328.532,512.294 162.268,451.060  "/>
<polygon fill="#0f1bf5" points="429.269,64.676 495.847,183.064 478.713,306.235  "/>
<polygon fill="#fd5264" points="183.874,30.524 595.498,415.604 134.553,208.923  "/>
<polygon fill="#d22924" points="85.480,99.266 323.273,524.838 197.915,476.517  "/>
<polygon fill="#423d0f" points="458.464,554.871 324.145,74.291 400.127,516.721  "/>
<polygon fill="#203b49" points="588.547,342.524 377.768,257.990 556.710,227.638  "/>
<polygon fill="#4200b8" points="30.518,269.707 381.577,469.396 159.154,190.328  "/>
<polygon fill="#2e180a" points="420.699,551.968 37.657,539.495 169.709,268.230  "/>
<polygon fill="#1da399" points="587.278,282.024 279.795,350.444 550.591,368.745  "/>
<polygon fill="#cf2804" points="326.677,392.383 5.074,72.071 497.991,543.307  "/>
<polygon fill="#45df56" points="40.466,446.037 366.154,505.043 86.305,580.503  "/>
<polygon fill="#d15125" points="33.745,89.143 472.182,294.799 148.939,253.221  "/>
<polygon fill="#a9ccb1" points="516.901,37.268 332.631,321.884 542.616,111.695  "/>
<polygon fill="#afbb1e" points="574.573,514.997 419.765,292.488 188.901,235.847  "/>
<polygon fill="#1d5d69" points="11.224,182.844 296.519,171.438 315.875,181.190  "/>
<polygon fill="#9937c9" points="111.551,199.943 226.667,195.154 330.955,69.920  "/>
<polygon fill="#36193b" points="154.674,193.187 296.096,232.949 366.609,567.724  "/>
<polygon fill="#89aafe" points="413.607,562.189 478.466,233.421 398.174,11.056  "/>
<polygon fill="#3fbc51" points="465.376,533.487 244.788,378.116 52.555,556.125  "/>
<polygon fill="#193fea" points="401.077,186.322 439.516,411.425 115.421,288.992  "/>
<polygon fill="#597526" points="22.300,266.039 416.778,523.499 316.707,29.972  "/>
<polygon fill="#1b431b" points="476.489,257.169 201.743,364.634 358.334,77.219  "/>
<polygon fill="#f5157b" points="144.669,276.266 249.754,30.126 417.226,486.271  "/>
<polygon fill="#55b883" points="373.073,507.289 327.327,205.467 58.919,62.964  "/>
<polygon fill="#df88fc" points="434.342,176.698 173.511,249.488 103.378,376.488  "/>
<polygon fill="#5d82a5" points="427.540,375.998 577.695,509.629 250.049,122.511  "/>
<polygon fill="#295124" points="256.155,385.887 115.210,11.064 574.030,468.766  "/>
<polygon fill="#921a6e" points="519.963,218.986 58.419,181.190 235.591,180.336  "/>
<polygon fill="#dd5a27" points="405.510,134.653 154.169,233.439 23.246,119.054  "/>
<polygon fill="#03a0ed" points="293.475,298.626 213.241,245.976 212.064,372.349  "/>
<polygon fill="#bb42db" points="386.469,206.757 262.347,237.361 174.315,582.810  "/>
<polygon fill="#7ea640" points="564.289,312.639 135.782,100.765 464.206,182.736  "/>
<polygon fill="#e60b16" points="68.569,269.719 116.709,127.966 8.478,345.884  "/>
<polygon fill="#f52f54" points="216.255,375.319 427.524,267.180 82.883,72.459  "/>
<polygon fill="#983c25" points="99.933,203.707 339.752,580.301 162.965,48.819  "/>
<polygon fill="#e38469" points="229.757,179.316 114.593,575.131 427.891,524.510  "/>
<polygon fill="#31448e" points="392.078,442.118 401.725,260.582 358.666,374.509  "/>
<polygon fill="#01dc74" points="122.483,395.031 493.154,90.737 514.565,152.502  "/>
<polygon fill="#50d15e" points="170.461,543.001 415.467,384.449 490.833,404.553  "/>
<polygon fill="#bbf9e7" points="288.221,152.329 216.944,280.323 83.086,286.083  "/>
<polygon fill="#3aeee0" points="593.069,109.175 413.570,473.024 241.874,259.392  "/>
<polygon fill="#5c962a" points="406.622,268.094 422.052,138.539 30.879,460.706  "/>
<polygon fill="#75902e" points="299.857,499.162 0.562,22.656 594.435,50.673  "/>
<polygon fill="#780b9c" points="80.010,173.790 175.361,67.595 403.945,334.415  "/>
<polygon fill="#1dc418" points="496.303,482.095 50.171,338.509 333.449,33.209  "/>
<polygon fill="#6e0990" points="247.507,110.387 67.156,374.463 8.221,62.623  "/>
<polygon fill="#11154f" points="592.067,415.944 82.509,119.307 235.681,498.105  "/>
<polygon fill="#e146d4" points="312.029,42.869 87.612,551.125 295.494,292.027  "/>
<polygon fill="#1232fc" points="433.512,396.621 188.125,11.253 217.721,383.206  "/>
<polygon fill="#0a2d2d" points="480.672,151.348 453.175,317.815 59.438,500.248  "/>
<polygon fill="#86ce9a" points="392.880,133.612 398.949,429.878 233.667,384.029  "/>
</svg>