<?xml version="1.0" encoding="utf-8"?>
<!-- Generator: Python script. InTeResTinG -->
<!DOCTYPE svg PUBLIC "-//W3C//DTD SVG 1.1//EN" "http://www.w3.org/Graphics/SVG/1.1/DTD/svg11.dtd">
<svg version="1.1" id="Layer_1" xmlns="http://www.w3.org/2000/svg" xmlns:xlink="http://www.w3.org/1999/xlink" x="0px" y="0px" width="600.000px" height="600.000px" viewBox="0 0 600.000 600.000" enable-background="new 0 0 600.000 600.000" xml:space="preserve">
<polygon fill="#58f127" points="322.348,51.704 576.744,372.264 444.651,498.880  "/>
<polygon fill="#c94603" points="541.959,260.790 227.618,451.311 552.542,575.099  "/>
<polygon fill="#fb747e" points="528.468,177.136 374.148,572.183 54.295,80.544  "/>
<polygon fill="#68367d" points="133.930,468.426 89.744,223.417 152.505,193.309  "/>
<polygon fill="#809e39" points="72.577,51.679 125.427,498.560 540.856,431.988  "/>
<polygon fill="#cac40f" points="593.954,313.825 136.673,417.829 327.707,522.532  "/>
<polygon fill="#16d217" points="386.582,223.037 45.920,428.138 418.681,578.513  "/>
<polygon fill="#e1cef3" points="298.114,197.559 447.140,535.445 507.692,357.974  "/>
<polygon fill="#754a22" points="43.736,15.702 580.978,376.520 265.926,292.167  "/>
<polygon fill="#00268d" points="201.263,185.603 222.152,231.338 561.917,407.471  "/>
<polygon fill="#bf1f0a" points="130.535,59.174 403.287,522.867 149.425,463.039  "/>
<polygon fill="#5dbef6" points="154.961,29.280 366.233,476.242 109.484,43.930  "/>
<polygon fill="#64205e" points="344.549,18.901 195.129,382.338 94.134,548.027  "/>
<polygon fill="#81cae0" points="199.806,462.216 290.807,44.703 384.184,372.892  "/>
<polygon fill="#7cdac6" points="531.739,95.813 555.107,431.356 137.677,301.900  "/>
<polygon fill="#a25810" points="304.647,312.020 577.686,113.422 553.156,163.979  "/>
<polygon fill="#fb8be9" points="35.289,353.699 492.143,147.266 401.983,112.634  "/>
<polygon fill="#d1344f" points="189.897,170.435 9.746,42.558 283.034,77.836  "/>
<polygon fill="#86c84e" points="373.714,22.491 442.451,368.663 420.497,190.897  "/>
<polygon fill="#ee2b35" points="385.229,251.960 79.066,500.691 40.326,141.518  "/>
<polygon fill="#3ebdbe" points="197.253,410.429 67.578,118.284 592.863,590.371  "/>
<polygon fill="#bcf80b" points="450.280,437.552 164.892,239.805 75.148,453.590  "/>
<polygon fill="#d6a754" points="101.560,92.201 51.424,234.036 100.324,284.658  "/>
<polygon fill="#a1048a" points="13.927,388.781 177.007,60.699 378.639,140.571  "/>
<polygon fill="#0e8d3d" points="216.291,47.162 127.955,283.904 402.806,408.042  "/>
<polygon fill="#e4a023" points="429.858,130.574 262.548,207.445 357.980,128.400  "/>
<polygon fill="#22001b" points="545.319,279.173 463.275,355.784 356.057,317.206  "/>
<polygon fill="#a30897" points="290.049,3.666 466.726,166.627 415.059,310.240  "/>
<polygon fill="#95736d" points="523.517,320.141 49.175,292.952 216.868,76.927  "/>
<polygon fill="#725720" points="247.488,139.685 6.210,493.980 153.298,525.778  "/>
<polygon fill="#52dfe0" points="393.829,281.472 427.781,221.535 115.838,443.284  "/>
<polygon fill="#9b39d8" points="36.595,173.469 567.991,180.930 52.947,114.049  "/>
<polygon fill="#37fde9" points="116.494,138.250 260.494,448.257 29.073,405.303  "/>
<polygon fill="#e3f43d" points="327.257,491.400 593.874,216.176 311.483,467.741  "/>
<polygon fill="#f542ce" points="190.336,501.462 428.487,94.212 559.982,297.748  "/>
<polygon fill="#be6850" points="353.067,128.118 597.171,203.035 81.368,273.557  "/>
<polygon fill="#d9beec" points="433.082,327.748 2.556,18.323 48.024,538.408  "/>
<polygon fill="#40bf70" points="259.973,290.436 583.553,397.296 416.402,334.772  "/>
<polygon fill="#66b5fe" points="133.936,9.682 165.869,16.754 356.223,200.381  "/>
<polygon fill="#652e8a" points="520.553,10.143 167.207,580.892 408.384,369.390  "/>
<polygon fill="#4d1969" points="127.761,241.350 43.947,85.569 547.991,92.431  "/>
<polygon fill="#8ccc99" points="117.073,45.243 326.660,448.172 229.279,473.562  "/>
<polygon fill="#6b7777" points="72.784,383.891 556.077,489.458 279.987,392.216  "/>
<polygon fill="#f5afc7" points="301.685,243.007 145.372,344.675 147.957,236.755  "/>
<polygon fill="#ba90dc" points="79.111,106.692 256.817,415.127 322.481,407.160  "/>
<polygon fill="#02a63b" points="273.709,154.806 485.118,286.392 461.704,157.361  "/>
<polygon fill="#a6a6fb" points="529.197,30.186 270.131,46.822 6.859,293.068  "/>
<polygon fill="#b22e98" points="38.494,86.621 524.624,32.459 176.138,35.061  "/>
<polygon fill="#f805a4" points="274.889,297.927 407.523,339.357 542.821,49.260  "/>
<polygon fill="#85ea39" points="362.490,499.150 223.531,80.227 32.364,263.423  "/>
<polygon fill="#6e630c" points="380.274,486.450 214.427,18.435 140.975,260.601  "/>
<polygon fill="#619618" points="41.636,109.884 589.412,202.974 44.236,199.078  "/>
<polygon fill="#934554" points="523.232,364.343 32.397,61.930 310.369,59.026  "/>
<polygon fill="#c99db7" points="493.855,210.172 26.652,318.689 235.616,402.974  "/>
<polygon fill="#6b1192" points="568.309,500.026 501.034,442.906 92.195,490.189  "/>
<polygon fill="#6cd45d" points="378.455,272.440 463.012,564.992 380.611,139.272  "/>
<polygon fill="#21c0ec" points="224.030,124.107 91.685,333.690 361.170,80.497  "/>
</svg>