<?xml version="1.0" encoding="utf-8"?>
<!-- Generator: Python script. InTeResTinG -->
<!DOCTYPE svg PUBLIC "-//W3C//DTD SVG 1.1//EN" "http://www.w3.org/Graphics/SVG/1.1/DTD/svg11.dtd">
<svg version="1.1" id="Layer_1" xmlns="http://www.w3.org/2000/svg" xmlns:xlink="http://www.w3.org/1999/xlink" x="0px" y="0px" width="600.000px" height="600.000px" viewBox="0 0 600.000 600.000" enable-background="new 0 0 600.000 600.000" xml:space="preserve">
<polygon fill="#9a99d4" points="165.690,566.661 499.383,131.995 8.858,322.763  "/>
<polygon fill="#1c2cd4" points="49.794,394.138 130.109,116.006 388.174,260.164  "/>
<polygon fill="#cca21e" points="205.282,226.693 115.166,41.052 496.778,352.397  "/>
<polygon fill="#2d1943" points="314.967,314.048 50.714,557.176 70.801,159.482  "/>
<polygon fill="#ce38f1" points="20.241,394.447 409.523,472.878 14.521,534.242  "/>
<polygon fill="#7384eb" points="168.800,190.615 399.936,531.192 429.728,314.866  "/>
<polygon fill="#348e36" points="558.767,81.598 435.167,391.015 185.740,367.218  "/>
<polygon fill="#f41c9e" points="194.556,296.916 163.876,86.618 386.432,104.468  "/>
<polygon fill="#2c8249" points="34.239,332.488 289.874,31.010 501.216,18.567  "/>
<polygon fill="#e2899a" points="92.106,524.539 212.425,428.349 205.641,433.851  "/>
<polygon fill="#d5ad26" points="129.127,138.195 174.996,442.276 543.797,121.690  "/>
<polygon fill="#755df4" points="66.119,455.192 467.320,354.461 388.512,244.471  "/>
<polygon fill="#e10886" points="27.291,381.103 103.125,343.206 299.867,575.552  "/>
<polygon fill="#a81284" points="598.306,81.401 562.393,349.855 57.215,561.563  "/>
<polygon fill="#ac3e11" points="289.510,252.848 1.541,157.925 462.614,363.377  "/>
<polygon fill="#4eed56" points="11.576,69.894 35.020,245.159 402.783,42.345  "/>
<polygon fill="#b89ad2" points="309.491,583.961 97.930,70.969 291.810,529.074  "/>
<polygon fill="#812938" points="399.380,425.507 411.055,553.286 537.608,201.514  "/>
<polygon fill="#7bc6ef" points="548.519,399.429 595.055,421.149 184.046,583.652  "/>
<polygon fill="#24f035" points="336.571,359.106 276.337,562.572 39.783,87.122  "/>
<polygon fill="#2b11b9" points="85.532,383.424 408.998,158.071 312.993,431.052  "/>
<polygon fill="#7f9a50" points="429.594,509.830 136.097,248.125 208.666,87.551  "/>
<polygon fill="#398298" points="407.768,36.176 136.691,67.239 472.395,353.670  "/>
<polygon fill="#11115f" points="159.298,213.232 497.486,506.676 326.339,204.872  "/>
<polygon fill="#c5952a" points="570.127,86.678 331.446,481.573 10.415,60.257  "/>
<polygon fill="#d4a881" points="216.537,402.377 505.826,301.482 288.527,43.749  "/>
<polygon fill="#d93ed1" points="312.461,356.245 500.284,156.981 166.049,503.600  "/>
<polygon fill="#28ab0a" points="114.233,502.367 402.579,470.002 403.222,221.070  "/>
<polygon fill="#9d6765" points="169.278,212.479 561.490,498.834 557.295,172.055  "/>
<polygon fill="#372c34" points="449.273,525.152 242.930,311.757 110.571,452.065  "/>
<polygon fill="#2fe00e" points="597.496,84.183 308.084,400.221 294.141,562.914  "/>
<polygon fill="#9fde1c" points="338.456,76.022 370.849,94.418 98.559,79.176  "/>
<polygon fill="#cab732" points="254.252,439.533 409.827,73.399 329.131,72.999  "/>
<polygon fill="#1533a0" points="515.061,93.461 574.107,308.521 144.695,421.301  "/>
<polygon fill="#850497" points="185.127,596.670 67.215,113.387 177.980,215.429  "/>
<polygon fill="#e74743" points="122.322,547.011 498.091,217.692 509.606,54.265  "/>
<polygon fill="#82d8ac" points="251.264,322.229 574.487,295.387 235.226,524.182  "/>
<polygon fill="#77c441" points="363.700,150.072 149.391,46.246 587.334,580.967  "/>
<polygon fill="#1c959f" points="180.217,146.220 458.645,350.781 453.245,46.476  "/>
<polygon fill="#033335" points="157.922,440.297 157.393,212.761 536.194,187.801  "/>
<polygon fill="#74a5f6" points="587.507,201.539 94.263,59.828 535.356,504.632  "/>
<polygon fill="#bf7032" points="426.571,80.766 419.353,117.398 53.555,593.463  "/>
<polygon fill="#6750fd" points="70.441,139.420 386.027,269.005 187.742,427.083  "/>
<polygon fill="#59fe4e" points="266.377,347.276 267.261,163.099 342.940,208.246  "/>
<polygon fill="#b8439c" points="562.064,494.882 78.923,471.994 247.312,548.499  "/>
<polygon fill="#1b17fe" points="422.050,468.470 245.633,226.511 428.117,302.270  "/>
<polygon fill="#ced79b" points="76.414,395.312 458.559,141.183 238.178,128.316  "/>
<polygon fill="#5ed871" points="50.352,415.541 484.216,277.658 531.929,52.178  "/>
<polygon fill="#daadef" points="427.517,272.080 237.603,407.623 567.302,26.289  "/>
<polygon fill="#7e35db" points="265.132,592.503 232.371,220.096 127.725,516.127  "/>
<polygon fill="#a7ecab" points="294.761,114.562 403.342,595.980 111.450,367.233  "/>
<polygon fill="#8315e6" points="435.094,530.492 425.153,19.543 428.589,437.781  "/>
<polygon fill="#6f99ae" points="84.689,530.821 586.143,48.233 239.527,529.012  "/>
<polygon fill="#73b426" points="456.982,365.908 153.622,111.377 554.050,29.291  "/>
<polygon fill="#32a499" points="555.244,429.397 426.852,153.005 447.895,519.811  "/>
<polygon fill="#48fec2" points="413.376,334.112 296.650,110.863 11.671,288.201  "/>
<polygon fill="#d4cf59" points="269.939,351.252 324.938,19.350 303.591,401.790  "/>
<polygon fill="#bccc4a" points="440.001,245.721 401.282,599.153 63.513,204.319  "/>
<polygon fill="#f1c43f" points="332.453,239.246 72.695,161.906 413.038,477.366  "/>
<polygon fill="#9f70b4" points="457.678,76.121 368.826,230.927 349.246,567.008  "/>
<polygon fill="#7cba7f" points="463.945,463.071 309.315,244.646 66.354,143.642  "/>
<polygon fill="#e08f48" points="216.938,585.703 324.621,269.984 524.787,169.818  "/>
</svg>