<?xml version="1.0" encoding="utf-8"?>
<!-- Generator: Python script. InTeResTinG -->
<!DOCTYPE svg PUBLIC "-//W3C//DTD SVG 1.1//EN" "http://www.w3.org/Graphics/SVG/1.1/DTD/svg11.dtd">
<svg version="1.1" id="Layer_1" xmlns="http://www.w3.org/2000/svg" xmlns:xlink="http://www.w3.org/1999/xlink" x="0px" y="0px" width="600.000px" height="600.000px" viewBox="0 0 600.000 600.000" enable-background="new 0 0 600.000 600.000" xml:space="preserve">
<polygon fill="#4145cd" points="190.702,526.334 38.194,399.058 205.351,14.907  "/>
<polygon fill="#817e2f" points="517.510,419.065 477.427,491.916 371.904,475.791  "/>
<polygon fill="#935d09" points="490.423,575.208 159.952,388.395 528.100,212.402  "/>
<polygon fill="#9b3b25" points="341.672,498.462 500.066,375.740 346.074,381.673  "/>
<polygon fill="#b5bf47" points="422.747,581.628 18.106,401.870 478.141,542.570  "/>
<polygon fill="#c6be6c" points="322.358,579.265 156.048,159.057 345.071,452.797  "/>
<polygon fill="#f67005" points="202.341,46.269 1.855,268.234 499.165,50.578  "/>
<polygon fill="#578c47" points="24.170,390.768 387.089,507.411 460.608,9.216  "/>
<polygon fill="#102d17" points="210.475,249.073 491.345,495.883 143.869,40.504  "/>
<polygon fill="#839a38" points="120.272,329.470 69.827,34.951 463.757,318.863  "/>
<polygon fill="#297710" points="7.346,286.820 465.023,58.880 348.525,429.664  "/>
<polygon fill="#7f2035" points="376.845,331.669 561.156,491.336 417.277,82.167  "/>
<polygon fill="#00816b" points="255.366,300.275 188.282,396.803 490.856,12.811  "/>
<polygon fill="#96da02" points="233.054,286.496 555.725,54.138 60.508,421.727  "/>
<polygon fill="#a5c2f6" points="82.258,503.396 125.592,129.951 417.250,568.043  "/>
<polygon fill="#674a40" points="534.945,480.505 122.706,596.609 279.601,208.939  "/>
<polygon fill="#d6daea" points="7.194,446.233 570.772,99.783 3.988,61.875  "/>
<polygon fill="#ebc949" points="10.650,218.977 83.277,589.887 254.229,211.180  "/>
<polygon fill="#4cbd49" points="70.797,247.241 344.352,174.200 447.013,252.811  "/>
<polygon fill="#04b4af" points="137.192,596.791 438.803,249.882 468.119,146.817  "/>
<polygon fill="#f7c0b5" points="111.862,547.689 261.205,453.953 592.003,418.536  "/>
<polygon fill="#6d7b40" points="547.290,419.358 113.966,124.485 391.246,280.117  "/>
<polygon fill="#3f1bcd" points="172.341,523.222 222.934,588.280 63.941,77.351  "/>
<polygon fill="#79584c" points="546.092,545.434 301.270,584.612 67.395,345.658  "/>
<polygon fill="#386fce" points="404.902,6.079 83.493,560.424 281.552,38.456  "/>
<polygon fill="#28e125" points="295.395,502.906 245.104,3.298 443.755,225.248  "/>
<polygon fill="#718a96" points="316.377,116.643 87.632,36.877 115.604,525.204  "/>
<polygon fill="#4ddd56" points="160.790,402.004 302.812,9.287 436.124,16.047  "/>
<polygon fill="#9f0998" points="199.725,585.759 340.920,451.075 367.603,279.719  "/>
<polygon fill="#901536" points="455.637,247.517 243.559,187.801 581.365,599.714  "/>
<polygon fill="#ec8930" points="404.515,447.077 30.197,21.211 301.588,489.668  "/>
<polygon fill="#47dd18" points="348.062,63.582 487.827,266.358 300.076,276.073  "/>
<polygon fill="#bd921c" points="393.526,576.819 123.232,140.006 530.393,10.881  "/>
<polygon fill="#a43d62" points="500.902,549.620 221.241,207.676 100.700,91.018  "/>
<polygon fill="#74a80f" points="511.923,363.690 391.325,427.444 474.917,315.118  "/>
<polygon fill="#dc08d1" points="426.635,370.539 286.134,155.132 517.523,4.983  "/>
<polygon fill="#1350ba" points="470.148,197.709 235.947,517.998 363.439,126.493  "/>
<polygon fill="#03a7ab" points="40.654,334.823 503.228,309.880 418.380,273.073  "/>
<polygon fill="#d0ca59" points="472.737,366.711 414.996,447.936 551.901,8.737  "/>
<polygon fill="#037e4e" points="334.286,115.748 84.864,162.333 214.158,30.073  "/>
<polygon fill="#830a5e" points="234.882,169.094 157.094,424.913 169.453,480.211  "/>
<polygon fill="#1ac13d" points="89.320,48.650 487.179,71.406 431.780,173.163  "/>
<polygon fill="#3dbbd1" points="582.559,424.436 347.295,73.091 140.267,366.369  "/>
<polygon fill="#46b613" points="39.438,269.680 89.688,356.090 124.290,314.705  "/>
<polygon fill="#48660d" points="235.750,86.721 143.258,423.707 371.736,478.523  "/>
<polygon fill="#b801e9" points="416.727,527.750 223.997,444.747 445.477,441.897  "/>
<polygon fill="#1732a7" points="12.650,462.508 489.100,398.074 133.938,493.404  "/>
<polygon fill="#9b6b95" points="538.385,590.340 272.710,216.702 195.234,462.148  "/>
<polygon fill="#9182a7" points="423.733,360.154 547.176,83.701 108.202,417.977  "/>
<polygon fill="#d81e59" points="170.186,27.741 298.888,44.849 537.587,85.197  "/>
<polygon fill="#c11da0" points="263.688,536.679 581.055,578.992 281.453,483.103  "/>
<polygon fill="#b07cfc" points="143.285,201.307 219.305,201.449 24.927,39.127  "/>
<polygon fill="#4ff9d2" points="366.023,472.638 168.258,545.292 28.575,251.772  "/>
<polygon fill="#ea34d2" points="587.354,204.382 74.325,282.830 102.045,536.642  "/>
<polygon fill="#4f9895" points="355.635,435.496 114.374,178.732 321.286,97.774  "/>
<polygon fill="#00343d" points="585.592,38.339 340.724,454.070 120.061,518.100  "/>
<polygon fill="#63da78" points="532.521,169.308 528.218,595.394 384.625,264.940  "/>
<polygon fill="#d0859d" points="12.750,107.205 127.237,504.807 141.202,7.562  "/>
<polygon fill="#95a825" points="396.502,281.926 97.056,347.251 283.194,537.592  "/>
<polygon fill="#909abc" points="211.264,297.627 432.036,539.008 232.640,588.209  "/>
<polygon fill="#eaa48a" points="432.741,472.102 587.559,167.967 492.880,325.210  "/>
<polygon fill="#e75f50" points="329.490,38.354 539.292,536.318 10.957,531.999  "/>
<polygon fill="#2b1517" points="62.416,554.623 360.958,597.349 33.199,78.033  "/>
</svg>