<?xml version="1.0" encoding="utf-8"?>
<!-- Generator: Python script. InTeResTinG -->
<!DOCTYPE svg PUBLIC "-//W3C//DTD SVG 1.1//EN" "http://www.w3.org/Graphics/SVG/1.1/DTD/svg11.dtd">
<svg version="1.1" id="Layer_1" xmlns="http://www.w3.org/2000/svg" xmlns:xlink="http://www.w3.org/1999/xlink" x="0px" y="0px" width="600.000px" height="600.000px" viewBox="0 0 600.000 600.000" enable-background="new 0 0 600.000 600.000" xml:space="preserve">
<polygon fill="#e526f3" points="597.526,475.183 138.036,368.582 229.569,124.828  "/>
<polygon fill="#2ae05c" points="562.852,322.907 447.073,78.627 387.223,337.140  "/>
<polygon fill="#13e8f0" points="340.756,116.863 574.572,407.564 584.740,530.270  "/>
<polygon fill="#7d99e7" points="123.471,169.620 6.135,131.574 408.436,85.789  "/>
<polygon fill="#270a83" points="541.207,353.636 7.145,151.502 300.059,205.026  "/>
<polygon fill="#f42d81" points="151.857,34.954 276.304,277.126 423.156,96.101  "/>
<polygon fill="#35efdd" points="597.218,233.509 440.463,334.702 167.494,304.469  "/>
<polygon fill="#42f8e5" points="369.749,75.359 237.664,248.572 593.493,469.854  "/>
<polygon fill="#2418a8" points="513.689,430.921 18.450,396.529 12.335,353.306  "/>
<polygon fill="#cf7f97" points="587.332,255.908 558.756,19.327 570.652,446.071  "/>
<polygon fill="#eef0e5" points="233.451,306.032 12.289,279.063 461.081,514.612  "/>
<polygon fill="#306550" points="40.260,555.771 382.727,351.929 328.713,96.549  "/>
<polygon fill="#4d298a" points="586.469,559.013 343.457,576.207 459.804,523.895  "/>
<polygon fill="#d95e6f" points="76.536,33.189 397.483,295.936 482.412,451.151  "/>
<polygon fill="#5d068b" points="74.009,363.388 185.761,442.561 74.829,133.362  "/>
<polygon fill="#a887d4" points="380.872,323.564 167.522,218.738 560.052,34.726  "/>
<polygon fill="#39d56b" points="273.501,183.494 555.928,529.882 386.283,315.617  "/>
<polygon fill="#67eef4" points="167.950,253.513 509.693,353.252 105.124,29.903  "/>
<polygon fill="#fc66f9" points="199.456,161.050 300.584,551.500 415.663,8.703  "/>
<polygon fill="#8719c9" points="67.115,221.969 476.139,192.443 272.241,345.656  "/>
<polygon fill="#f63289" points="596.253,264.205 568.655,548.303 402.599,159.102  "/>
<polygon fill="#e6b688" points="261.159,366.094 20.210,488.223 449.510,306.849  "/>
<polygon fill="#b739b4" points="258.532,433.945 76.863,103.465 418.422,97.363  "/>
<polygon fill="#7feea8" points="241.305,296.701 536.820,194.845 581.917,487.681  "/>
<polygon fill="#05fdc0" points="154.694,102.327 54.795,219.512 299.149,86.578  "/>
<polygon fill="#df2837" points="73.786,379.352 120.504,129.712 16.384,345.989  "/>
<polygon fill="#4fa191" points="413.033,416.299 570.855,236.779 238.574,50.574  "/>
<polygon fill="#aa49f7" points="464.602,377.378 207.927,543.738 379.882,282.532  "/>
<polygon fill="#9b16b7" points="553.851,400.233 551.741,529.926 416.177,266.350  "/>
<polygon fill="#77c968" points="423.459,261.793 135.526,305.296 398.698,326.960  "/>
<polygon fill="#f8b104" points="383.825,487.137 415.952,21.803 464.446,470.540  "/>
<polygon fill="#778f0b" points="266.086,300.851 193.229,346.694 293.997,423.499  "/>
<polygon fill="#cdf630" points="143.830,295.666 14.794,437.502 330.996,440.985  "/>
<polygon fill="#0e8684" points="102.996,247.703 267.301,189.225 27.074,38.797  "/>
<polygon fill="#02439b" points="178.898,539.186 113.721,323.569 553.025,272.727  "/>
<polygon fill="#66fb9f" points="380.061,362.905 123.196,102.215 29.664,572.611  "/>
<polygon fill="#181bb8" points="593.590,211.838 63.524,19.947 369.507,272.722  "/>
<polygon fill="#528d4f" points="357.694,361.919 374.280,166.980 428.629,402.483  "/>
<polygon fill="#0a1e51" points="181.878,218.799 427.320,456.279 226.416,394.599  "/>
<polygon fill="#73c641" points="226.347,568.642 258.930,260.645 16.406,205.133  "/>
<polygon fill="#16f625" points="195.292,542.550 108.733,589.562 113.297,350.973  "/>
<polygon fill="#eb1f8f" points="252.805,215.346 436.433,172.177 426.578,588.826  "/>
<polygon fill="#223e21" points="59.350,367.450 564.175,299.247 269.668,566.598  "/>
<polygon fill="#fb156c" points="283.107,472.660 568.609,423.601 52.920,344.743  "/>
<polygon fill="#932b1d" points="96.458,434.571 106.466,113.558 20.250,558.440  "/>
<polygon fill="#c1f7ed" points="140.983,312.877 100.654,540.356 373.629,418.232  "/>
<polygon fill="#2acd32" points="184.931,213.238 258.315,462.280 298.456,535.622  "/>
<polygon fill="#a57807" points="33.835,207.633 131.646,325.118 482.703,245.558  "/>
<polygon fill="#e07200" points="466.921,200.113 164.891,267.234 442.576,444.471  "/>
<polygon fill="#02291e" points="112.692,279.967 222.623,498.666 515.557,22.036  "/>
<polygon fill="#5827ad" points="176.938,384.054 489.911,530.733 226.026,505.348  "/>
<polygon fill="#540ee0" points="301.754,117.055 190.090,410.666 270.338,571.460  "/>
<polygon fill="#e8ec98" points="91.552,280.694 47.676,179.762 457.133,311.067  "/>
<polygon fill="#23fbbc" points="254.419,66.839 88.288,518.851 132.801,57.508  "/>
<polygon fill="#843104" points="2.232,416.457 418.455,493.329 512.750,193.280  "/>
<polygon fill="#af68de" points="382.157,528.317 444.118,457.563 87.693,519.443  "/>
<polygon fill="#14db4f" points="552.475,30.551 361.549,417.514 428.916,247.346  "/>
<polygon fill="#02a268" points="542.498,116.615 30.968,444.956 293.691,3.239  "/>
<polygon fill="#9497e1" points="403.380,220.962 350.768,455.822 368.214,367.826  "/>
<polygon fill="#796bf5" points="580.796,549.676 147.894,25.608 89.050,290.013  "/>
<polygon fill="#9c74a4" points="388.160,591.420 119.045,19.872 326.427,189.698  "/>
<polygon fill="#a925a0" points="282.155,27.092 1.554,459.526 219.789,413.491  "/>
<polygon fill="#af506f" points="298.066,46.734 473.658,409.787 329.258,130.743  "/>
<polygon fill="#f579a4" points="356.060,144.982 126.552,243.585 281.403,148.759  "/>
<polygon fill="#aa3aea" points="274.647,463.884 170.380,146.321 345.917,188.997  "/>
<polygon fill="#6156ac" points="435.052,95.950 267.136,466.772 232.249,7.935  "/>
<polygon fill="#bc3680" points="343.999,416.638 264.291,582.725 261.424,421.108  "/>
<polygon fill="#3e747d" points="350.204,502.309 315.689,261.255 208.317,11.234  "/>
</svg>