<?xml version="1.0" encoding="utf-8"?>
<!-- Generator: Python script. InTeResTinG -->
<!DOCTYPE svg PUBLIC "-//W3C//DTD SVG 1.1//EN" "http://www.w3.org/Graphics/SVG/1.1/DTD/svg11.dtd">
<svg version="1.1" id="Layer_1" xmlns="http://www.w3.org/2000/svg" xmlns:xlink="http://www.w3.org/1999/xlink" x="0px" y="0px" width="600.000px" height="600.000px" viewBox="0 0 600.000 600.000" enable-background="new 0 0 600.000 600.000" xml:space="preserve">
<polygon fill="#1dfa64" points="257.828,15.226 154.461,153.625 593.241,69.750  "/>
<polygon fill="#aaff4f" points="409.444,372.258 455.699,567.164 368.550,297.516  "/>
<polygon fill="#cf0915" points="147.366,314.466 343.763,591.834 277.176,593.167  "/>
<polygon fill="#d3ddb6" points="333.084,45.529 42.008,48.268 572.066,89.936  "/>
<polygon fill="#4a1fc1" points="332.068,377.535 557.154,59.627 179.232,87.480  "/>
<polygon fill="#d8ab1e" points="208.501,395.818 357.490,106.164 396.047,417.692  "/>
<polygon fill="#45bf99" points="317.687,183.137 155.967,380.454 199.993,431.673  "/>
<polygon fill="#e835e1" points="203.045,409.388 323.067,142.986 529.243,31.585  "/>
<polygon fill="#80bd19" points="54.586,281.980 297.752,141.756 70.782,103.068  "/>
<polygon fill="#52ead5" points="199.601,27.110 173.255,55.279 510.251,192.784  "/>
<polygon fill="#112854" points="504.468,237.218 25.941,291.927 113.373,445.338  "/>
<polygon fill="#d55767" points="126.938,280.965 580.996,594.736 291.185,342.496  "/>
<polygon fill="#17b2c9" points="448.384,293.562 536.941,153.430 341.251,44.398  "/>
<polygon fill="#fc84b3" points="47.216,483.362 599.085,510.357 237.529,22.182  "/>
<polygon fill="#6c626c" points="375.626,299.754 155.427,434.871 498.351,205.074  "/>
<polygon fill="#160265" points="180.511,77.746 255.834,581.389 593.034,272.311  "/>
<polygon fill="#ecc55f" points="39.276,289.172 211.136,120.641 385.558,517.585  "/>
<polygon fill="#6a5b83" points="190.818,58.017 169.888,495.953 579.626,507.432  "/>
<polygon fill="#2d9637" points="357.593,248.065 295.140,20.322 366.918,325.670  "/>
<polygon fill="#72a9db" points="34.564,197.264 425.146,144.462 8.565,65.026  "/>
<polygon fill="#b91dbd" points="540.099,250.356 31.080,232.547 461.834,217.193  "/>
<polygon fill="#531eec" points="459.688,411.302 534.148,421.300 539.440,273.624  "/>
<polygon fill="#af97bf" points="207.368,101.710 264.144,432.282 567.368,380.815  "/>
<polygon fill="#8260d4" points="312.637,576.635 385.510,397.626 534.260,305.993  "/>
<polygon fill="#2c7ab2" points="193.258,540.696 507.184,275.161 439.024,90.104  "/>
<polygon fill="#91a11b" points="479.897,523.373 560.073,506.685 569.019,322.365  "/>
<polygon fill="#0efde2" points="153.089,269.745 423.784,246.861 593.356,132.998  "/>
<polygon fill="#605b67" points="392.942,224.298 54.063,204.800 222.018,408.954  "/>
<polygon fill="#b6e847" points="595.631,157.913 132.643,560.033 470.485,396.160  "/>
<polygon fill="#0e42ad" points="132.111,149.248 410.613,43.277 408.519,305.185  "/>
<polygon fill="#87449b" points="598.616,146.149 209.779,177.927 97.596,270.050  "/>
<polygon fill="#bc8392" points="46.603,241.028 162.605,315.312 160.588,168.537  "/>
<polygon fill="#df9a64" points="559.033,294.612 153.948,233.555 35.418,516.198  "/>
<polygon fill="#9bed94" points="444.401,28.543 51.003,418.944 507.197,512.069  "/>
<polygon fill="#2b9704" points="479.121,278.364 319.043,289.011 414.831,207.819  "/>
<polygon fill="#bbc27a" points="513.163,379.250 0.739,301.642 257.878,269.903  "/>
<polygon fill="#ab1f82" points="234.434,536.025 76.098,475.612 58.847,486.871  "/>
<polygon fill="#7985ef" points="23.423,39.814 151.912,264.799 33.032,568.121  "/>
<polygon fill="#40aa2f" points="323.036,115.678 61.979,495.839 545.556,35.469  "/>
<polygon fill="#f64bcc" points="435.324,334.770 426.599,560.138 295.957,256.133  "/>
<polygon fill="#3b7a6c" points="120.375,293.575 74.778,254.505 271.681,205.614  "/>
<polygon fill="#fedc37" points="509.495,27.514 561.157,360.069 43.963,397.506  "/>
<polygon fill="#febf61" points="263.169,131.413 494.773,141.537 26.128,431.928  "/>
<polygon fill="#c84d71" points="325.837,315.196 576.849,355.777 291.349,65.988  "/>
<polygon fill="#291f08" points="196.596,504.069 68.960,554.807 597.370,182.320  "/>
<polygon fill="#cd36f3" points="548.712,420.264 222.032,304.396 587.201,101.020  "/>
<polygon fill="#a50ec5" points="540.644,67.408 62.278,447.701 122.040,225.130  "/>
<polygon fill="#6e2cf0" points="261.460,9.523 376.549,184.944 248.848,324.203  "/>
<polygon fill="#aa0571" points="413.903,324.325 489.954,103.261 591.640,381.657  "/>
<polygon fill="#89c26c" points="422.504,303.547 264.543,540.885 81.905,272.145  "/>
<polygon fill="#f87570" points="259.448,531.127 197.905,107.573 406.633,312.423  "/>
<polygon fill="#29759e" points="519.733,480.211 545.085,197.590 124.535,495.392  "/>
<polygon fill="#e63b19" points="327.479,150.969 364.219,121.891 282.565,381.980  "/>
<polygon fill="#eda130" points="335.623,50.482 49.071,484.240 392.866,326.401  "/>
<polygon fill="#4a5fd4" points="20.300,18.206 385.683,527.526 18.434,118.863  "/>
<polygon fill="#c2d630" points="152.726,559.330 558.175,587.990 172.835,335.036  "/>
<polygon fill="#1e6826" points="459.029,523.809 517.089,71.768 52.434,140.691  "/>
<polygon fill="#8fed6a" points="490.015,564.091 285.964,555.532 216.606,552.505  "/>
<polygon fill="#2433d9" points="340.460,596.321 52.263,68.877 289.175,274.855  "/>
<polygon fill="#f7fcae" points="571.113,475.078 59.200,546.662 598.911,447.086  "/>
<polygon fill="#441e78" points="222.085,561.529 309.033,502.260 393.194,106.231  "/>
<polygon fill="#e196bc" points="427.141,446.722 410.436,494.106 78.137,38.901  "/>
<polygon fill="#ba6acc" points="599.705,36.524 499.720,285.491 360.014,12.866  "/>
<polygon fill="#566892" points="124.571,499.860 296.982,317.312 215.146,133.439  "/>
<polygon fill="#9bb312" points="82.680,269.034 88.102,469.171 274.354,49.282  "/>
<polygon fill="#4fccb3" points="356.510,216.172 427.859,215.003 132.900,278.317  "/>
<polygon fill="#6225f8" points="192.653,138.868 540.792,321.441 571.435,500.866  "/>
<polygon fill="#544883" points="176.505,251.967 184.338,259.962 569.165,194.493  "/>
<polygon fill="#4e4364" points="224.215,313.562 528.600,359.584 26.217,339.090  "/>
<polygon fill="#a6b7ce" points="585.661,48.483 36.198,68.065 68.271,121.735  "/>
<polygon fill="#043df8" points="493.408,579.152 282.103,131.060 86.682,139.700  "/>
</svg>