<?xml version="1.0" encoding="utf-8"?>
<!-- Generator: Python script. InTeResTinG -->
<!DOCTYPE svg PUBLIC "-//W3C//DTD SVG 1.1//EN" "http://www.w3.org/Graphics/SVG/1.1/DTD/svg11.dtd">
<svg version="1.1" id="Layer_1" xmlns="http://www.w3.org/2000/svg" xmlns:xlink="http://www.w3.org/1999/xlink" x="0px" y="0px" width="600.000px" height="600.000px" viewBox="0 0 600.000 600.000" enable-background="new 0 0 600.000 600.000" xml:space="preserve">
<polygon fill="#27423a" points="63.084,163.025 62.492,375.870 445.967,279.747  "/>
<polygon fill="#fd226f" points="82.645,107.036 207.751,184.624 597.532,6.343  "/>
<polygon fill="#58edbd" points="430.618,519.539 363.889,489.231 586.671,86.042  "/>
<polygon fill="#6c6e28" points="285.137,276.685 134.396,63.407 264.097,397.687  "/>
<polygon fill="#36e899" points="51.181,168.288 249.310,192.280 360.266,121.855  "/>
<polygon fill="#285801" points="537.133,245.798 584.434,119.562 525.875,231.912  "/>
<polygon fill="#b9062f" points="404.378,18.141 315.162,128.155 92.940,485.641  "/>
<polygon fill="#332758" points="365.088,391.045 481.287,179.060 387.148,161.744  "/>
<polygon fill="#17ecb2" points="253.342,150.570 332.155,74.979 484.040,388.557  "/>
<polygon fill="#c2a446" points="140.683,388.639 495.012,369.287 221.081,160.047  "/>
<polygon fill="#c55dab" points="564.188,576.701 105.665,446.069 144.123,488.400  "/>
<polygon fill="#99e4bf" points="64.342,488.172 175.424,570.088 588.117,489.894  "/>
<polygon fill="#73495d" points="429.513,599.511 432.500,554.749 63.253,186.261  "/>
<polygon fill="#dd81ac" points="175.099,591.879 578.510,191.808 574.456,561.580  "/>
<polygon fill="#50ee05" points="476.950,258.335 87.836,289.718 362.314,279.028  "/>
<polygon fill="#4d49f7" points="158.490,394.224 86.353,551.040 347.516,58.825  "/>
<polygon fill="#7fccaf" points="475.314,311.257 514.072,215.360 273.508,276.422  "/>
<polygon fill="#469004" points="108.787,505.961 580.210,457.729 53.672,229.553  "/>
<polygon fill="#063370" points="343.583,480.796 251.067,51.122 264.522,564.181  "/>
<polygon fill="#44139b" points="294.210,188.576 418.705,468.337 558.531,97.353  "/>
<polygon fill="#0fe6d9" points="225.219,499.311 553.282,53.193 237.541,552.339  "/>
<polygon fill="#3e48a6" points="374.834,13.464 515.827,484.941 192.535,518.290  "/>
<polygon fill="#012e21" points="322.756,363.294 550.887,28.483 144.232,580.318  "/>
<polygon fill="#028bb3" points="119.509,271.468 388.862,399.659 360.962,340.974  "/>
<polygon fill="#ac0246" points="434.841,438.373 218.771,117.032 365.200,450.192  "/>
<polygon fill="#44b85a" points="195.755,335.833 169.428,224.974 18.679,25.030  "/>
<polygon fill="#e5a712" points="378.042,275.899 582.833,359.585 159.429,326.705  "/>
<polygon fill="#212eed" points="372.456,544.563 342.890,172.393 520.251,392.078  "/>
<polygon fill="#84439f" points="443.375,265.680 416.376,297.128 113.681,503.894  "/>
<polygon fill="#63ad48" points="335.404,28.394 142.160,395.865 531.103,19.305  "/>
<polygon fill="#1ac957" points="64.703,12.321 194.586,123.683 159.394,429.354  "/>
<polygon fill="#f734aa" points="515.884,124.700 405.560,584.345 420.504,268.489  "/>
<polygon fill="#757a55" points="238.565,356.294 53.966,565.904 351.779,377.035  "/>
<polygon fill="#f2f677" points="381.454,271.982 12.423,247.421 400.190,571.540  "/>
<polygon fill="#53154a" points="137.672,48.143 278.486,153.980 334.351,212.449  "/>
<polygon fill="#10ee94" points="425.470,360.911 99.752,9.156 70.186,365.467  "/>
<polygon fill="#a78de6" points="591.585,251.025 83.482,275.879 558.587,263.584  "/>
<polygon fill="#b969d9" points="65.503,60.621 439.212,289.019 537.334,384.859  "/>
<polygon fill="#8b605d" points="172.441,276.651 328.921,234.045 430.703,237.963  "/>
<polygon fill="#67860e" points="519.057,480.717 391.835,520.884 111.683,429.656  "/>
<polygon fill="#79a1b5" points="314.663,93.057 238.018,545.216 21.927,171.869  "/>
<polygon fill="#5d2779" points="341.611,254.544 449.951,588.668 460.000,486.767  "/>
<polygon fill="#2a5a86" points="374.161,140.306 374.574,76.004 349.499,470.452  "/>
<polygon fill="#2c832d" points="86.801,221.816 433.821,112.474 529.394,564.717  "/>
<polygon fill="#654d83" points="233.072,102.572 83.077,119.066 529.166,307.721  "/>
<polygon fill="#1d156f" points="449.629,2.335 183.621,69.011 509.391,508.242  "/>
<polygon fill="#86cd48" points="246.417,29.383 96.781,581.083 61.969,174.190  "/>
<polygon fill="#564944" points="471.064,272.593 536.383,168.569 322.559,571.247  "/>
<polygon fill="#5ae86b" points="229.872,556.071 492.481,368.248 243.377,66.872  "/>
<polygon fill="#1814c1" points="51.494,585.147 550.496,79.915 70.661,42.774  "/>
<polygon fill="#142b50" points="590.821,180.322 102.457,212.401 514.746,271.452  "/>
<polygon fill="#d2f3e4" points="35.968,166.227 36.673,312.143 228.497,310.949  "/>
<polygon fill="#d76bf7" points="172.114,549.312 12.870,29.747 395.491,243.004  "/>
<polygon fill="#22496d" points="341.141,467.260 268.671,407.596 276.480,539.760  "/>
<polygon fill="#2de7a2" points="294.578,292.776 319.451,210.136 232.387,516.428  "/>
<polygon fill="#85680d" points="269.195,202.730 1.421,139.401 218.406,597.253  "/>
</svg>