<?xml version="1.0" encoding="utf-8"?>
<!-- Generator: Python script. InTeResTinG -->
<!DOCTYPE svg PUBLIC "-//W3C//DTD SVG 1.1//EN" "http://www.w3.org/Graphics/SVG/1.1/DTD/svg11.dtd">
<svg version="1.1" id="Layer_1" xmlns="http://www.w3.org/2000/svg" xmlns:xlink="http://www.w3.org/1999/xlink" x="0px" y="0px" width="600.000px" height="600.000px" viewBox="0 0 600.000 600.000" enable-background="new 0 0 600.000 600.000" xml:space="preserve">
<polygon fill="#d9d832" points="98.656,145.207 593.606,463.441 71.297,589.390  "/>
<polygon fill="#8e1df8" points="164.713,563.845 208.592,209.421 269.569,348.806  "/>
<polygon fill="#11205a" points="594.960,115.495 517.327,332.081 403.565,151.899  "/>
<polygon fill="#46ba87" points="28.335,168.780 548.148,143.885 30.813,580.604  "/>
<polygon fill="#96a0f5" points="306.551,200.082 103.093,515.267 463.161,247.267  "/>
<polygon fill="#9921e1" points="102.753,163.686 592.529,378.291 252.430,582.204  "/>
<polygon fill="#ce044a" points="340.412,123.274 125.414,19.239 587.255,59.629  "/>
<polygon fill="#f90d93" points="18.023,206.754 204.795,525.772 154.544,153.093  "/>
<polygon fill="#771211" points="441.284,500.096 9.138,114.536 464.470,393.658  "/>
<polygon fill="#c28a99" points="181.839,303.170 408.433,344.125 64.075,363.204  "/>
<polygon fill="#d09e2d" points="68.938,463.293 353.489,104.158 461.499,41.711  "/>
<polygon fill="#8b09c3" points="250.925,565.484 440.043,136.868 480.333,509.340  "/>
<polygon fill="#790a99" points="241.916,36.264 441.939,585.141 447.659,84.360  "/>
<polygon fill="#9c9d9b" points="505.247,471.337 432.681,371.138 238.743,558.545  "/>
<polygon fill="#3509d9" points="13.597,469.056 235.046,213.217 18.360,493.230  "/>
<polygon fill="#ac18ed" points="356.464,597.671 517.077,264.647 354.025,75.368  "/>
<polygon fill="#ac61e3" points="142.085,25.191 56.021,455.784 399.353,227.285  "/>
<polygon fill="#a6e919" points="561.168,256.770 367.751,375.114 9.252,515.945  "/>
<polygon fill="#40cffe" points="473.937,488.955 594.526,194.517 25.188,243.749  "/>
<polygon fill="#b67a18" points="215.364,365.262 367.129,153.824 425.997,369.335  "/>
<polygon fill="#a09c48" points="227.582,390.687 442.702,153.957 366.475,213.862  "/>
<polygon fill="#50e5ee" points="126.022,52.138 460.285,212.096 351.409,247.231  "/>
<polygon fill="#5e2a04" points="276.625,591.172 204.301,183.795 531.362,491.074  "/>
<polygon fill="#aea0df" points="388.968,529.746 137.698,11.416 228.509,293.322  "/>
<polygon fill="#238c6f" points="588.433,275.119 387.564,397.891 295.675,211.789  "/>
<polygon fill="#88d86b" points="536.631,68.684 180.093,85.294 297.020,580.948  "/>
<polygon fill="#5b0793" points="269.603,43.516 106.174,11.114 96.914,43.620  "/>
<polygon fill="#13c820" points="451.578,221.421 254.304,417.969 396.312,385.737  "/>
<polygon fill="#12dd93" points="352.408,198.124 484.588,411.955 179.273,376.440  "/>
<polygon fill="#5a7ac8" points="220.849,174.886 61.043,495.258 255.164,549.563  "/>
<polygon fill="#285643" points="292.852,393.890 593.529,535.029 267.432,500.368  "/>
<polygon fill="#95ce40" points="282.122,530.784 127.599,201.692 328.336,426.756  "/>
<polygon fill="#cec6ad" points="131.947,342.693 28.107,85.589 178.895,440.969  "/>
<polygon fill="#6e36f7" points="544.141,338.421 175.930,536.997 284.396,549.764  "/>
<polygon fill="#dfaa2f" points="21.782,224.767 192.379,4.777 43.118,481.006  "/>
<polygon fill="#f802af" points="41.439,29.119 580.740,465.963 397.378,316.057  "/>
<polygon fill="#a6d4b1" points="428.589,278.438 382.511,148.840 74.986,45.245  "/>
<polygon fill="#1ed50c" points="148.665,124.232 207.738,38.602 171.098,550.982  "/>
<polygon fill="#b7020c" points="505.520,444.352 268.624,169.927 466.904,413.255  "/>
<polygon fill="#25dd3a" points="86.017,356.188 389.678,285.653 451.372,128.279  "/>
<polygon fill="#fdd465" points="535.391,289.459 243.271,336.059 566.194,432.068  "/>
<polygon fill="#6456a7" points="63.421,593.212 275.596,145.530 271.875,402.384  "/>
<polygon fill="#0338ea" points="486.320,64.773 110.392,553.029 222.452,552.555  "/>
<polygon fill="#c0fab5" points="55.385,268.238 353.972,94.802 157.033,339.631  "/>
<polygon fill="#9af9d0" points="357.807,93.242 41.160,429.378 497.844,514.499  "/>
<polygon fill="#2672ef" points="292.891,105.715 183.047,544.373 286.442,282.185  "/>
<polygon fill="#69f526" points="255.367,298.003 28.395,451.244 505.114,496.455  "/>
<polygon fill="#9d1943" points="248.648,405.238 574.360,539.167 371.647,326.933  "/>
<polygon fill="#3f7924" points="338.338,137.912 535.470,401.513 125.036,26.126  "/>
<polygon fill="#003f72" points="46.218,497.596 385.323,115.565 586.572,45.866  "/>
<polygon fill="#efd819" points="434.613,24.761 375.658,160.521 563.242,224.665  "/>
<polygon fill="#151f08" points="511.241,132.466 232.105,577.633 236.475,294.368  "/>
<polygon fill="#07dee5" points="355.563,388.897 270.703,312.736 473.012,60.068  "/>
<polygon fill="#d18d7a" points="61.852,72.806 64.877,161.046 570.090,161.077  "/>
</svg>