<?xml version="1.0" encoding="utf-8"?>
<!-- Generator: Python script. InTeResTinG -->
<!DOCTYPE svg PUBLIC "-//W3C//DTD SVG 1.1//EN" "http://www.w3.org/Graphics/SVG/1.1/DTD/svg11.dtd">
<svg version="1.1" id="Layer_1" xmlns="http://www.w3.org/2000/svg" xmlns:xlink="http://www.w3.org/1999/xlink" x="0px" y="0px" width="600.000px" height="600.000px" viewBox="0 0 600.000 600.000" enable-background="new 0 0 600.000 600.000" xml:space="preserve">
<polygon fill="#e663c2" points="219.246,502.469 139.031,452.014 148.024,20.204  "/>
<polygon fill="#25237a" points="249.787,73.576 502.643,358.921 128.283,477.489  "/>
<polygon fill="#d826a8" points="300.850,540.778 361.131,495.191 536.620,8.458  "/>
<polygon fill="#5bc6d5" points="141.925,30.636 396.688,587.242 28.473,208.291  "/>
<polygon fill="#7f075d" points="476.637,332.807 330.627,593.085 159.984,316.018  "/>
<polygon fill="#0d46c2" points="153.900,131.064 477.118,117.331 18.024,400.520  "/>
<polygon fill="#bc224f" points="18.982,414.624 422.766,532.915 239.597,462.091  "/>
<polygon fill="#5389a7" points="582.900,99.458 83.067,340.664 487.333,289.176  "/>
<polygon fill="#890074" points="440.576,137.280 254.119,374.568 245.553,85.322  "/>
<polygon fill="#329855" points="266.431,369.139 265.846,225.236 80.248,334.301  "/>
<polygon fill="#8a4bfc" points="179.439,89.092 567.271,474.909 555.308,588.632  "/>
<polygon fill="#57462e" points="369.904,41.550 597.181,420.160 410.179,260.282  "/>
<polygon fill="#220a4b" points="342.074,426.961 386.553,536.336 472.446,207.607  "/>
<polygon fill="#381213" points="585.543,570.335 256.199,531.056 387.324,106.347  "/>
<polygon fill="#0d47c3" points="181.381,156.931 538.282,490.624 181.360,274.027  "/>
<polygon fill="#cbfcd3" points="320.368,452.229 110.227,100.167 404.859,529.846  "/>
<polygon fill="#892476" points="571.415,71.560 467.442,382.657 297.923,311.329  "/>
<polygon fill="#435040" points="9.051,391.153 84.212,439.837 191.531,132.059  "/>
<polygon fill="#354943" points="203.929,571.844 339.741,113.388 576.842,12.424  "/>
<polygon fill="#df3062" points="108.831,174.052 280.825,315.920 58.800,431.444  "/>
<polygon fill="#8605c2" points="84.867,263.459 292.649,222.453 111.204,398.888  "/>
<polygon fill="#760a5b" points="31.115,263.948 454.602,529.624 37.757,130.250  "/>
<polygon fill="#7f479f" points="120.776,385.500 166.383,564.305 505.812,599.154  "/>
<polygon fill="#58e6fa" points="51.269,364.860 481.739,436.719 437.999,360.482  "/>
<polygon fill="#208f10" points="312.526,313.835 38.992,463.655 429.811,87.436  "/>
<polygon fill="#9e705a" points="258.456,368.600 277.317,442.058 387.929,38.678  "/>
<polygon fill="#77216b" points="75.189,170.991 367.548,123.500 581.610,525.884  "/>
<polygon fill="#41cb25" points="445.763,173.648 359.014,147.339 14.143,480.658  "/>
<polygon fill="#7628e2" points="326.078,568.616 250.117,454.829 590.538,457.828  "/>
<polygon fill="#a054e9" points="373.892,95.031 28.514,481.778 501.619,17.006  "/>
<polygon fill="#f15862" points="402.045,342.148 428.140,288.247 545.887,239.928  "/>
<polygon fill="#444507" points="176.336,222.608 146.033,484.047 136.209,22.402  "/>
<polygon fill="#f6e695" points="322.884,32.327 430.204,382.152 88.123,0.411  "/>
<polygon fill="#0da413" points="393.053,328.388 99.838,119.294 253.646,425.286  "/>
<polygon fill="#336932" points="87.951,235.842 426.507,505.016 549.907,81.462  "/>
<polygon fill="#3119b6" points="352.061,299.984 317.078,27.709 468.951,210.496  "/>
<polygon fill="#317242" points="478.237,41.558 79.677,32.096 292.573,53.404  "/>
<polygon fill="#bc2c02" points="64.586,244.908 448.649,132.303 419.496,548.596  "/>
<polygon fill="#ebee04" points="15.534,334.224 290.302,46.430 469.310,538.620  "/>
<polygon fill="#e8bb56" points="10.266,417.236 483.619,198.161 552.649,205.356  "/>
<polygon fill="#a0595b" points="277.768,594.634 286.176,301.653 62.506,537.166  "/>
<polygon fill="#d7feb7" points="158.784,267.254 471.475,50.704 18.012,7.596  "/>
<polygon fill="#1b4c54" points="286.186,254.550 352.537,140.489 513.124,25.314  "/>
<polygon fill="#d9b830" points="74.344,264.736 227.160,250.370 369.346,295.878  "/>
<polygon fill="#e444cd" points="204.734,432.543 48.757,20.297 472.993,161.171  "/>
<polygon fill="#762555" points="43.068,217.132 379.678,229.196 275.174,301.314  "/>
<polygon fill="#cc75a6" points="297.985,138.440 455.609,244.169 419.407,353.541  "/>
<polygon fill="#c5e638" points="423.755,455.684 389.799,377.548 309.885,465.706  "/>
<polygon fill="#30d98f" points="230.223,402.870 572.948,465.203 579.689,237.482  "/>
<polygon fill="#c8ea4b" points="129.520,568.179 480.057,444.458 402.074,394.831  "/>
<polygon fill="#1a11e5" points="139.188,395.485 411.685,558.992 58.960,407.917  "/>
<polygon fill="#9d5ef4" points="43.914,71.270 366.069,42.795 211.554,311.440  "/>
<polygon fill="#bb8384" points="56.465,480.574 63.003,241.757 482.740,253.890  "/>
<polygon fill="#375921" points="115.252,167.844 66.426,286.537 148.177,381.540  "/>
<polygon fill="#a78968" points="334.060,319.139 450.502,188.079 371.835,503.774  "/>
<polygon fill="#31e7b4" points="399.901,569.526 469.916,104.511 295.103,559.454  "/>
<polygon fill="#611009" points="190.085,324.585 171.760,343.657 554.792,476.482  "/>
<polygon fill="#8a52a3" points="480.321,285.461 121.150,255.616 442.740,217.419  "/>
<polygon fill="#27eec0" points="571.983,401.544 308.618,23.728 285.605,401.979  "/>
<polygon fill="#d3ec15" points="190.770,5.380 7.398,546.020 52.989,14.761  "/>
<polygon fill="#901b68" points="319.484,473.290 336.758,465.039 195.256,401.533  "/>
<polygon fill="#48df6f" points="569.933,445.831 180.144,61.843 197.616,405.630  "/>
<polygon fill="#253225" points="301.468,543.687 95.040,57.532 435.857,313.336  "/>
<polygon fill="#b2123a" points="346.107,136.311 407.740,333.148 523.123,381.925  "/>
<polygon fill="#27ae46" points="232.996,210.275 178.253,386.183 349.974,529.401  "/>
<polygon fill="#32f36a" points="565.026,297.136 56.339,528.379 256.226,106.882  "/>
<polygon fill="#6c71e7" points="214.848,429.484 267.989,368.879 239.762,454.705  "/>
<polygon fill="#02a45d" points="395.735,3.171 556.038,347.066 395.618,165.474  "/>
<polygon fill="#4ec6f6" points="526.062,556.911 236.840,593.555 76.599,428.247  "/>
<polygon fill="#e552d3" points="87.570,555.271 364.191,242.039 202.618,592.997  "/>
</svg>