<?xml version="1.0" encoding="utf-8"?>
<!-- Generator: Python script. InTeResTinG -->
<!DOCTYPE svg PUBLIC "-//W3C//DTD SVG 1.1//EN" "http://www.w3.org/Graphics/SVG/1.1/DTD/svg11.dtd">
<svg version="1.1" id="Layer_1" xmlns="http://www.w3.org/2000/svg" xmlns:xlink="http://www.w3.org/1999/xlink" x="0px" y="0px" width="600.000px" height="600.000px" viewBox="0 0 600.000 600.000" enable-background="new 0 0 600.000 600.000" xml:space="preserve">
<polygon fill="#6c7f46" points="76.274,173.441 205.422,194.491 339.747,96.548  "/>
<polygon fill="#1167e5" points="193.638,385.429 385.135,429.200 213.448,436.728  "/>
<polygon fill="#1a0ebf" points="156.415,436.130 285.896,31.110 400.074,45.225  "/>
<polygon fill="#725431" points="555.270,566.771 578.158,361.186 534.133,133.492  "/>
<polygon fill="#038168" points="337.023,504.063 264.535,222.249 120.017,262.172  "/>
<polygon fill="#4dc87d" points="272.747,420.884 56.066,117.582 424.222,30.646  "/>
<polygon fill="#58ab74" points="412.344,522.931 422.795,312.844 558.843,416.012  "/>
<polygon fill="#7627c1" points="269.762,19.504 389.220,472.008 42.102,405.710  "/>
<polygon fill="#476509" points="352.463,7.579 181.522,182.506 578.036,216.156  "/>
<polygon fill="#68cf6a" points="545.412,18.446 519.731,75.378 498.233,146.041  "/>
<polygon fill="#ccc188" points="308.875,229.366 185.836,126.152 182.678,398.577  "/>
<polygon fill="#3a752f" points="198.604,561.392 77.858,525.170 444.624,470.780  "/>
<polygon fill="#dfe169" points="153.437,556.225 567.610,521.289 200.116,168.645  "/>
<polygon fill="#0c08d5" points="574.487,296.915 543.187,334.944 270.545,136.506  "/>
<polygon fill="#cc5d93" points="243.632,165.608 65.565,519.163 386.131,518.595  "/>
<polygon fill="#e2aa90" points="416.767,210.166 472.793,328.649 32.060,27.374  "/>
<polygon fill="#96de55" points="133.378,332.848 251.524,396.805 477.940,196.221  "/>
<polygon fill="#428805" points="514.698,529.834 152.331,137.963 155.252,99.014  "/>
<polygon fill="#f4ab55" points="318.040,192.206 33.113,469.258 322.672,331.327  "/>
<polygon fill="#1a02f3" points="329.223,443.302 298.912,327.417 350.301,84.406  "/>
<polygon fill="#d463b1" points="27.139,588.408 143.726,584.747 545.389,27.524  "/>
<polygon fill="#1d5682" points="454.782,144.635 496.310,251.687 357.745,55.581  "/>
<polygon fill="#c070dd" points="69.314,176.666 54.761,4.427 457.397,554.085  "/>
<polygon fill="#68f7e7" points="547.940,229.079 256.423,21.956 460.576,80.535  "/>
<polygon fill="#15c69d" points="246.359,75.955 569.532,239.522 215.932,336.890  "/>
<polygon fill="#7a57d4" points="165.236,107.540 481.642,413.820 104.320,281.358  "/>
<polygon fill="#5538ec" points="480.330,101.709 317.247,444.791 103.822,157.358  "/>
<polygon fill="#06cafa" points="278.784,50.710 267.274,459.762 319.623,231.777  "/>
<polygon fill="#355d3b" points="49.134,69.959 436.402,586.031 449.108,525.032  "/>
<polygon fill="#4e0ced" points="582.819,591.888 1.993,581.784 515.584,529.073  "/>
<polygon fill="#9cd0b8" points="487.697,379.204 579.590,232.957 512.687,348.027  "/>
<polygon fill="#b2f600" points="562.999,146.590 574.366,359.860 157.999,116.140  "/>
<polygon fill="#a7ad46" points="148.272,211.435 470.609,118.340 586.691,594.070  "/>
<polygon fill="#bd7dfe" points="11.208,297.147 148.678,596.861 28.052,25.364  "/>
<polygon fill="#a214a7" points="322.808,306.546 265.631,246.220 64.250,386.668  "/>
<polygon fill="#179fed" points="564.828,369.266 422.220,261.234 359.803,426.630  "/>
<polygon fill="#1745b1" points="439.381,200.123 260.536,514.891 505.784,295.385  "/>
<polygon fill="#936c53" points="263.130,348.704 224.914,424.762 334.654,41.772  "/>
<polygon fill="#c7913b" points="546.026,458.116 494.995,161.520 71.721,584.276  "/>
<polygon fill="#1ccb2b" points="511.372,187.864 228.779,564.932 495.487,565.752  "/>
<polygon fill="#23187e" points="499.054,416.083 545.518,583.204 550.045,218.611  "/>
<polygon fill="#537f7c" points="490.997,442.112 476.286,311.173 157.859,463.360  "/>
<polygon fill="#c92a7c" points="147.709,74.341 442.787,211.900 573.200,343.237  "/>
<polygon fill="#a15b95" points="84.741,72.229 381.889,517.479 595.521,596.432  "/>
<polygon fill="#38d6d1" points="466.283,400.703 445.410,49.015 150.288,279.965  "/>
<polygon fill="#858ad4" points="503.748,371.078 344.180,168.128 164.529,117.275  "/>
<polygon fill="#69ec4e" points="24.419,301.145 32.444,401.774 546.410,98.048  "/>
<polygon fill="#8a511d" points="578.965,29.169 313.619,318.083 583.562,309.336  "/>
<polygon fill="#1d6b8a" points="242.964,406.415 363.857,464.497 258.075,296.121  "/>
<polygon fill="#87d75d" points="147.043,443.697 379.934,256.124 4.864,92.757  "/>
<polygon fill="#21ecb6" points="428.918,462.161 100.755,0.440 364.090,259.022  "/>
<polygon fill="#67012c" points="132.473,540.105 366.487,18.978 119.195,421.885  "/>
<polygon fill="#dcd6c5" points="446.164,522.372 565.661,380.250 282.846,69.321  "/>
</svg>