<?xml version="1.0" encoding="utf-8"?>
<!-- Generator: Python script. InTeResTinG -->
<!DOCTYPE svg PUBLIC "-//W3C//DTD SVG 1.1//EN" "http://www.w3.org/Graphics/SVG/1.1/DTD/svg11.dtd">
<svg version="1.1" id="Layer_1" xmlns="http://www.w3.org/2000/svg" xmlns:xlink="http://www.w3.org/1999/xlink" x="0px" y="0px" width="600.000px" height="600.000px" viewBox="0 0 600.000 600.000" enable-background="new 0 0 600.000 600.000" xml:space="preserve">
<polygon fill="#87f398" points="207.435,104.252 292.193,153.424 452.215,90.737  "/>
<polygon fill="#852e55" points="518.097,240.612 237.835,519.937 257.536,14.050  "/>
<polygon fill="#156b46" points="266.445,72.498 339.942,215.556 599.610,122.242  "/>
<polygon fill="#a56cf9" points="209.258,391.816 343.623,45.889 256.744,328.080  "/>
<polygon fill="#f1c4c5" points="36.029,190.507 63.204,41.220 399.828,585.783  "/>
<polygon fill="#31d5ad" points="329.307,596.418 421.337,550.081 26.722,523.691  "/>
<polygon fill="#c32125" points="582.726,516.912 224.251,592.709 236.903,83.399  "/>
<polygon fill="#928572" points="560.779,318.308 26.266,38.740 514.376,381.827  "/>
<polygon fill="#46fc11" points="415.922,18.678 92.293,506.587 261.160,7.597  "/>
<polygon fill="#89866f" points="477.292,319.410 447.555,336.015 288.314,122.330  "/>
<polygon fill="#746918" points="327.182,135.070 57.778,366.906 307.386,491.894  "/>
<polygon fill="#c07379" points="356.437,417.210 328.942,167.602 497.854,90.395  "/>
<polygon fill="#fa4cc7" points="36.059,214.211 339.523,152.567 71.713,16.700  "/>
<polygon fill="#2664a8" points="274.596,440.039 526.770,200.707 332.613,159.546  "/>
<polygon fill="#cce00c" points="564.805,70.335 586.129,20.764 335.174,507.037  "/>
<polygon fill="#7a7fdf" points="348.374,376.700 45.918,502.482 32.672,133.031  "/>
<polygon fill="#109160" points="481.311,295.565 280.112,563.972 246.735,470.351  "/>
<polygon fill="#cc5006" points="57.157,520.719 353.617,416.579 535.649,501.045  "/>
<polygon fill="#4d18f4" points="118.505,259.286 231.339,275.026 573.444,266.114  "/>
<polygon fill="#b4d256" points="312.941,529.274 373.576,95.878 135.179,305.944  "/>
<polygon fill="#dff43b" points="140.333,193.045 282.516,124.889 176.151,125.275  "/>
<polygon fill="#6c7d85" points="68.217,341.498 290.857,532.314 283.386,425.587  "/>
<polygon fill="#af8ef1" points="295.901,524.147 568.472,274.258 323.170,128.182  "/>
<polygon fill="#f4dd34" points="373.311,299.786 378.412,6.668 222.141,552.555  "/>
<polygon fill="#56f85f" points="51.393,136.058 323.852,424.750 191.897,100.277  "/>
<polygon fill="#f6ff51" points="308.461,407.636 485.973,112.747 450.848,348.644  "/>
<polygon fill="#911209" points="146.345,530.607 178.970,60.188 100.271,373.269  "/>
<polygon fill="#c5cc09" points="343.282,82.625 376.553,271.596 20.369,418.005  "/>
<polygon fill="#ef5aec" points="14.170,395.692 90.199,478.375 414.710,343.050  "/>
<polygon fill="#7e71e0" points="29.964,46.318 218.830,365.480 506.602,70.319  "/>
<polygon fill="#0f690c" points="374.214,564.528 154.660,83.258 517.367,155.834  "/>
<polygon fill="#5c2259" points="562.101,164.369 80.340,24.409 33.262,599.679  "/>
<polygon fill="#49cd9b" points="405.369,345.273 102.253,392.190 245.209,354.061  "/>
<polygon fill="#5ca667" points="488.209,520.850 572.944,578.328 130.172,226.833  "/>
<polygon fill="#73ed5f" points="395.652,427.098 58.124,387.805 468.598,537.132  "/>
<polygon fill="#a95b12" points="339.483,116.665 242.769,592.521 398.866,322.451  "/>
<polygon fill="#7fa03e" points="51.333,448.730 566.047,456.831 304.119,542.279  "/>
<polygon fill="#f6725b" points="107.430,209.905 401.301,494.799 441.968,513.964  "/>
<polygon fill="#282a1a" points="69.675,94.206 391.583,101.852 533.338,519.751  "/>
<polygon fill="#1704f6" points="526.422,497.505 574.217,443.892 263.074,97.386  "/>
<polygon fill="#81cb14" points="139.345,544.225 563.644,19.844 519.110,206.297  "/>
<polygon fill="#cb0ce4" points="579.934,512.089 114.058,37.364 188.936,206.331  "/>
<polygon fill="#26a1de" points="319.124,372.362 36.756,207.415 492.340,599.675  "/>
<polygon fill="#25d89c" points="546.372,371.420 450.306,167.679 352.835,522.292  "/>
<polygon fill="#7b5aee" points="585.048,588.035 447.162,446.420 10.562,14.355  "/>
<polygon fill="#11f093" points="408.757,536.578 545.398,152.802 135.996,475.972  "/>
<polygon fill="#bec231" points="591.631,580.655 43.967,350.643 120.378,298.304  "/>
<polygon fill="#0892db" points="60.666,38.998 380.002,598.556 108.424,248.193  "/>
<polygon fill="#3b3dcd" points="56.030,561.669 467.843,325.890 52.879,140.161  "/>
<polygon fill="#b10cf0" points="512.252,474.422 23.706,18.902 295.972,241.261  "/>
<polygon fill="#dfc955" points="555.810,17.440 164.528,561.503 71.777,419.614  "/>
</svg>