<?xml version="1.0" encoding="utf-8"?>
<!-- Generator: Python script. InTeResTinG -->
<!DOCTYPE svg PUBLIC "-//W3C//DTD SVG 1.1//EN" "http://www.w3.org/Graphics/SVG/1.1/DTD/svg11.dtd">
<svg version="1.1" id="Layer_1" xmlns="http://www.w3.org/2000/svg" xmlns:xlink="http://www.w3.org/1999/xlink" x="0px" y="0px" width="600.000px" height="600.000px" viewBox="0 0 600.000 600.000" enable-background="new 0 0 600.000 600.000" xml:space="preserve">
<polygon fill="#b5c69b" points="232.756,124.238 30.718,2.582 74.393,223.070  "/>
<polygon fill="#80cd45" points="190.182,60.311 338.417,148.924 163.581,19.316  "/>
<polygon fill="#32c4e9" points="228.089,576.591 124.989,164.855 5.304,1.242  "/>
<polygon fill="#19a17a" points="121.241,107.851 190.082,10.590 582.187,220.739  "/>
<polygon fill="#e26b92" points="213.624,243.875 362.549,517.034 386.225,369.626  "/>
<polygon fill="#59c535" points="454.506,575.219 554.128,457.408 254.397,215.017  "/>
<polygon fill="#341855" points="40.100,544.900 327.406,121.466 50.289,117.962  "/>
<polygon fill="#ede208" points="501.018,523.642 193.226,580.722 102.841,165.079  "/>
<polygon fill="#5963db" points="520.948,56.981 412.963,66.307 469.443,392.178  "/>
<polygon fill="#0397f0" points="80.737,345.613 19.367,454.216 525.976,494.436  "/>
<polygon fill="#1d8c1e" points="401.314,240.087 353.751,202.679 574.610,200.059  "/>
<polygon fill="#4dc25d" points="132.408,165.046 416.802,283.331 241.798,511.670  "/>
<polygon fill="#8cd409" points="6.051,508.935 589.027,235.849 492.940,125.189  "/>
<polygon fill="#c20da0" points="105.812,400.827 241.486,364.343 30.788,388.407  "/>
<polygon fill="#81fd32" points="181.783,321.079 350.456,210.376 477.584,508.162  "/>
<polygon fill="#76ccb2" points="230.652,211.879 277.479,500.650 240.592,556.439  "/>
<polygon fill="#d94f3a" points="519.542,488.443 10.642,291.253 387.668,356.319  "/>
<polygon fill="#81b758" points="539.429,227.508 252.393,552.776 555.625,279.364  "/>
<polygon fill="#3a7c69" points="264.141,230.003 592.167,486.647 242.194,506.606  "/>
<polygon fill="#38e914" points="260.345,221.321 104.923,432.148 443.512,542.890  "/>
<polygon fill="#72721f" points="562.451,54.426 70.822,20.603 592.831,535.010  "/>
<polygon fill="#f7c3fb" points="117.783,274.658 535.518,270.184 460.686,316.062  "/>
<polygon fill="#da0fc7" points="171.694,149.452 15.672,486.773 334.771,440.338  "/>
<polygon fill="#62945b" points="182.769,54.412 75.278,597.277 375.643,48.341  "/>
<polygon fill="#943d83" points="217.242,211.737 278.713,582.352 82.750,66.712  "/>
<polygon fill="#cd38ae" points="170.864,94.685 379.430,281.621 25.309,126.874  "/>
<polygon fill="#165403" points="366.895,175.778 518.692,388.071 301.530,476.971  "/>
<polygon fill="#69be7c" points="353.134,234.366 152.475,599.450 474.102,3.217  "/>
<polygon fill="#2fe665" points="412.399,565.481 76.910,240.542 246.253,47.213  "/>
<polygon fill="#e6a3c9" points="18.848,154.896 573.132,296.132 413.950,419.759  "/>
<polygon fill="#2cc5d4" points="348.500,312.398 298.102,567.655 2.168,536.076  "/>
<polygon fill="#b35514" points="202.541,139.030 84.941,504.595 581.387,155.041  "/>
<polygon fill="#916078" points="437.163,22.939 49.518,423.634 134.135,52.470  "/>
<polygon fill="#94b842" points="1.992,432.751 472.196,442.382 326.821,156.012  "/>
<polygon fill="#403e8c" points="546.420,543.207 159.256,240.081 592.352,253.813  "/>
<polygon fill="#e8eab7" points="216.167,526.794 22.253,81.048 177.318,588.833  "/>
<polygon fill="#0de73e" points="228.460,323.012 135.988,192.197 581.059,138.984  "/>
<polygon fill="#876773" points="454.519,66.933 336.329,168.605 112.032,258.045  "/>
<polygon fill="#826e64" points="596.322,319.866 310.882,164.330 511.131,59.801  "/>
<polygon fill="#9294d2" points="2.874,547.820 203.417,588.591 325.503,339.898  "/>
<polygon fill="#60d725" points="385.505,412.873 7.978,212.454 265.388,410.126  "/>
<polygon fill="#2e4823" points="28.941,213.050 335.049,227.561 22.469,585.552  "/>
<polygon fill="#69a76d" points="570.323,13.464 104.566,50.144 594.859,390.653  "/>
<polygon fill="#0a4ace" points="371.953,125.830 335.032,406.844 139.208,56.192  "/>
<polygon fill="#993622" points="230.904,572.811 203.425,397.667 84.504,117.088  "/>
<polygon fill="#7cd4a9" points="437.490,500.860 125.593,579.048 7.372,114.459  "/>
<polygon fill="#40e0a4" points="169.389,22.811 524.052,157.071 38.783,389.883  "/>
<polygon fill="#e9d668" points="252.665,15.222 504.307,57.834 482.042,263.800  "/>
<polygon fill="#cfc1d7" points="361.045,555.807 241.631,246.450 78.541,143.256  "/>
<polygon fill="#0cc857" points="441.291,453.722 236.251,435.948 387.619,372.449  "/>
<polygon fill="#72bb90" points="189.045,432.493 226.823,191.912 469.400,211.628  "/>
<polygon fill="#0357ae" points="418.757,245.813 417.043,411.203 152.415,496.290  "/>
<polygon fill="#c2b9d3" points="319.043,340.379 320.444,97.623 280.445,227.831  "/>
<polygon fill="#c7a9b8" points="385.630,585.845 164.312,324.902 409.322,49.945  "/>
<polygon fill="#a1e059" points="268.322,562.805 537.188,410.605 129.046,337.008  "/>
<polygon fill="#ee1c19" points="460.520,547.774 191.240,11.343 380.448,349.563  "/>
<polygon fill="#3a400c" points="12.303,395.165 285.568,535.800 437.252,83.731  "/>
<polygon fill="#a08310" points="12.906,494.869 156.387,399.046 123.633,578.321  "/>
<polygon fill="#1abd3b" points="300.719,473.801 549.368,468.675 449.645,228.906  "/>
<polygon fill="#b528d5" points="478.136,242.239 485.991,80.850 252.700,359.128  "/>
<polygon fill="#3e66e4" points="127.599,131.855 244.576,497.797 273.260,124.055  "/>
<polygon fill="#3e67c6" points="63.673,427.305 277.723,221.861 172.746,219.827  "/>
<polygon fill="#d06674" points="422.610,521.329 133.747,449.822 468.444,537.096  "/>
<polygon fill="#0c22cc" points="466.014,306.776 502.801,573.795 168.220,575.812  "/>
</svg>