<?xml version="1.0" encoding="utf-8"?>
<!-- Generator: Python script. InTeResTinG -->
<!DOCTYPE svg PUBLIC "-//W3C//DTD SVG 1.1//EN" "http://www.w3.org/Graphics/SVG/1.1/DTD/svg11.dtd">
<svg version="1.1" id="Layer_1" xmlns="http://www.w3.org/2000/svg" xmlns:xlink="http://www.w3.org/1999/xlink" x="0px" y="0px" width="600.000px" height="600.000px" viewBox="0 0 600.000 600.000" enable-background="new 0 0 600.000 600.000" xml:space="preserve">
<polygon fill="#814e29" points="404.571,482.087 327.140,396.325 85.730,491.963  "/>
<polygon fill="#c94b3a" points="596.710,76.625 500.724,70.924 490.122,556.524  "/>
<polygon fill="#c701d9" points="310.717,246.361 543.185,27.103 382.280,565.998  "/>
<polygon fill="#1163d6" points="383.186,413.694 12.249,599.312 460.216,13.611  "/>
<polygon fill="#ea4fe3" points="565.321,182.715 281.473,17.636 309.135,473.287  "/>
<polygon fill="#d745ea" points="166.863,43.685 440.811,190.478 578.007,207.920  "/>
<polygon fill="#be3a5f" points="11.103,388.486 596.618,274.445 401.720,263.417  "/>
<polygon fill="#51a402" points="359.312,169.771 533.050,453.336 576.780,91.913  "/>
<polygon fill="#cecca3" points="242.501,516.005 530.410,501.774 288.282,31.022  "/>
<polygon fill="#56bf45" points="412.642,86.503 554.641,108.468 77.281,78.821  "/>
<polygon fill="#cc1cb2" points="123.626,549.257 582.119,520.458 142.605,476.165  "/>
<polygon fill="#16fb6d" points="594.235,302.125 565.353,130.813 334.566,243.763  "/>
<polygon fill="#072d29" points="403.382,273.425 152.052,264.322 300.513,471.103  "/>
<polygon fill="#200425" points="84.484,230.350 79.750,427.080 206.217,438.493  "/>
<polygon fill="#7905c9" points="415.373,194.199 99.575,387.769 110.220,98.425  "/>
<polygon fill="#640665" points="341.304,476.746 388.867,290.492 145.737,167.315  "/>
<polygon fill="#c47b38" points="273.790,331.458 397.066,281.803 408.159,427.524  "/>
<polygon fill="#81b73b" points="6.667,198.847 6.195,201.045 487.795,140.385  "/>
<polygon fill="#e009c8" points="142.609,420.676 230.992,237.484 136.324,410.446  "/>
<polygon fill="#33a3de" points="110.438,174.774 402.494,534.223 558.420,491.941  "/>
<polygon fill="#7083e6" points="331.876,384.120 437.696,409.918 211.971,195.290  "/>
<polygon fill="#21c04f" points="99.125,211.871 551.576,52.013 204.277,25.653  "/>
<polygon fill="#8b6400" points="187.967,474.131 403.378,334.206 222.326,121.798  "/>
<polygon fill="#e6d3f6" points="3.099,63.956 427.402,197.935 97.691,203.843  "/>
<polygon fill="#b8d3f6" points="352.494,369.965 62.761,265.773 37.024,459.838  "/>
<polygon fill="#384890" points="382.997,74.103 356.822,401.774 32.637,480.462  "/>
<polygon fill="#c0dcdb" points="257.390,306.904 58.447,64.293 335.598,189.104  "/>
<polygon fill="#286615" points="52.358,573.514 348.193,117.363 400.943,403.877  "/>
<polygon fill="#914b80" points="450.926,242.913 166.737,549.955 557.448,513.496  "/>
<polygon fill="#9a1fb4" points="451.225,515.540 67.808,222.168 32.737,129.138  "/>
<polygon fill="#a62342" points="505.525,48.432 150.210,447.519 176.402,133.050  "/>
<polygon fill="#315149" points="383.464,22.147 250.562,23.227 236.809,257.783  "/>
<polygon fill="#164319" points="303.915,518.788 214.353,207.238 574.675,361.841  "/>
<polygon fill="#b52d17" points="492.537,109.865 279.140,577.705 477.129,88.036  "/>
<polygon fill="#1c7e8a" points="518.522,311.333 317.717,394.344 584.711,366.415  "/>
<polygon fill="#85f1f2" points="172.997,460.030 567.211,343.220 424.955,493.418  "/>
<polygon fill="#a0c003" points="580.923,24.890 527.414,525.126 226.805,291.839  "/>
<polygon fill="#f7f8a6" points="89.361,83.841 187.202,381.762 450.220,246.768  "/>
<polygon fill="#314ac9" points="344.374,433.973 302.839,298.713 526.708,443.599  "/>
<polygon fill="#ffef5f" points="319.390,257.506 245.127,593.859 300.327,12.674  "/>
<polygon fill="#eef3b6" points="239.828,189.149 388.848,147.329 14.383,566.911  "/>
<polygon fill="#f2c459" points="214.414,485.616 310.810,427.009 449.881,199.740  "/>
<polygon fill="#793f56" points="319.394,193.818 415.399,457.075 488.925,281.126  "/>
<polygon fill="#760a4c" points="307.499,319.915 361.890,427.358 68.984,25.171  "/>
<polygon fill="#3310bd" points="360.957,335.043 140.680,17.683 459.584,423.850  "/>
<polygon fill="#c47be1" points="561.101,234.539 154.630,518.447 236.833,468.019  "/>
<polygon fill="#5b76d4" points="472.140,53.400 374.218,189.102 449.227,356.577  "/>
<polygon fill="#a2390a" points="248.018,15.844 246.299,286.221 375.108,591.776  "/>
<polygon fill="#865d5a" points="223.420,260.038 366.192,152.895 415.869,472.450  "/>
<polygon fill="#c91db0" points="379.261,228.791 299.847,243.415 450.322,57.431  "/>
<polygon fill="#258528" points="440.145,297.997 341.249,419.357 98.979,373.063  "/>
<polygon fill="#2f1931" points="74.100,474.616 388.063,329.961 390.717,23.846  "/>
<polygon fill="#3b4781" points="429.893,252.055 508.916,212.140 527.886,117.452  "/>
</svg>