<?xml version="1.0" encoding="utf-8"?>
<!-- Generator: Python script. InTeResTinG -->
<!DOCTYPE svg PUBLIC "-//W3C//DTD SVG 1.1//EN" "http://www.w3.org/Graphics/SVG/1.1/DTD/svg11.dtd">
<svg version="1.1" id="Layer_1" xmlns="http://www.w3.org/2000/svg" xmlns:xlink="http://www.w3.org/1999/xlink" x="0px" y="0px" width="600.000px" height="600.000px" viewBox="0 0 600.000 600.000" enable-background="new 0 0 600.000 600.000" xml:space="preserve">
<polygon fill="#e83ac0" points="274.168,213.374 149.791,77.672 157.603,515.175  "/>
<polygon fill="#08371c" points="595.354,561.211 197.094,412.140 81.195,19.706  "/>
<polygon fill="#dcbba0" points="33.876,285.052 369.592,92.914 404.743,563.300  "/>
<polygon fill="#5614a2" points="547.176,365.602 244.886,319.935 174.196,371.817  "/>
<polygon fill="#ae11d3" points="570.408,191.276 393.491,537.609 572.647,479.422  "/>
<polygon fill="#6402d7" points="298.678,111.375 115.441,405.192 400.260,278.703  "/>
<polygon fill="#779b9e" points="15.968,38.116 435.082,361.857 104.863,494.520  "/>
<polygon fill="#42e5a7" points="142.650,518.258 395.922,111.547 435.907,357.721  "/>
<polygon fill="#2f9def" points="74.972,96.629 564.945,66.854 209.637,289.495  "/>
<polygon fill="#fa348d" points="241.057,47.027 421.550,273.892 35.018,266.863  "/>
<polygon fill="#ba1495" points="287.584,504.252 182.820,89.835 42.323,392.719  "/>
<polygon fill="#54e2f5" points="141.852,392.616 395.990,438.726 533.133,15.942  "/>
<polygon fill="#4335ab" points="480.403,139.858 285.673,181.289 595.570,161.434  "/>
<polygon fill="#8a7742" points="179.383,63.268 388.224,230.137 177.688,251.339  "/>
<polygon fill="#7f4c28" points="220.863,189.924 150.476,194.385 26.560,300.122  "/>
<polygon fill="#08bd6a" points="91.966,138.649 196.276,122.413 409.829,149.018  "/>
<polygon fill="#447ec7" points="430.694,250.854 218.690,6.405 271.399,136.227  "/>
<polygon fill="#0c6a49" points="199.915,8.966 461.124,185.717 153.580,516.976  "/>
<polygon fill="#2824cf" points="251.961,371.800 469.316,563.150 430.365,144.382  "/>
<polygon fill="#f292be" points="399.621,581.567 56.211,443.550 59.327,263.338  "/>
<polygon fill="#3312c8" points="290.136,374.266 295.677,229.877 181.200,152.677  "/>
<polygon fill="#a2d7d7" points="186.440,324.389 456.793,333.804 271.111,478.723  "/>
<polygon fill="#516461" points="1.387,6.825 425.816,576.446 241.532,552.294  "/>
<polygon fill="#634080" points="200.295,357.245 119.035,210.451 411.996,409.604  "/>
<polygon fill="#aaadfa" points="545.649,146.298 178.518,373.386 468.053,86.450  "/>
<polygon fill="#051f1e" points="431.169,39.222 592.030,11.328 537.450,576.200  "/>
<polygon fill="#2ffaf5" points="455.660,166.059 254.870,113.928 189.948,514.323  "/>
<polygon fill="#c4f9b5" points="170.212,273.917 23.280,50.965 88.471,334.691  "/>
<polygon fill="#a8ad92" points="146.694,458.808 67.523,207.861 514.213,33.319  "/>
<polygon fill="#ecfc67" points="336.332,112.113 444.193,547.584 180.233,511.167  "/>
<polygon fill="#23509c" points="52.720,83.951 561.324,369.814 39.577,403.189  "/>
<polygon fill="#b743e6" points="524.365,138.078 224.623,127.827 157.592,516.790  "/>
<polygon fill="#19a4b0" points="262.072,140.413 226.183,17.304 282.238,597.784  "/>
<polygon fill="#b3ec66" points="213.673,94.728 384.105,579.841 162.273,423.759  "/>
<polygon fill="#a87803" points="268.836,308.377 484.643,83.196 318.967,449.737  "/>
<polygon fill="#4614a5" points="298.156,168.521 139.035,287.346 506.707,199.866  "/>
<polygon fill="#890f8a" points="86.443,513.605 313.619,336.685 48.532,195.189  "/>
<polygon fill="#c8e596" points="230.982,251.714 325.492,22.678 202.854,426.493  "/>
<polygon fill="#45c222" points="227.646,9.373 505.100,282.934 8.069,1.976  "/>
<polygon fill="#fb5847" points="281.305,352.037 585.644,507.468 98.298,574.057  "/>
<polygon fill="#5cf542" points="222.441,384.322 212.409,507.234 63.385,255.825  "/>
<polygon fill="#69019b" points="122.295,59.444 130.554,480.090 318.011,123.953  "/>
<polygon fill="#aef95b" points="418.123,289.724 127.584,213.168 392.852,337.492  "/>
<polygon fill="#f40df3" points="497.841,282.319 130.389,399.822 435.056,578.935  "/>
<polygon fill="#1d6680" points="46.044,276.166 333.614,76.072 90.238,487.494  "/>
<polygon fill="#34f1e8" points="38.048,199.059 538.843,475.565 27.734,388.166  "/>
<polygon fill="#66630a" points="18.220,305.838 346.471,596.775 254.959,216.827  "/>
<polygon fill="#554e94" points="495.120,203.604 338.434,505.509 141.526,327.473  "/>
<polygon fill="#dd12dc" points="342.573,395.820 403.518,198.298 530.160,119.975  "/>
<polygon fill="#bcc61d" points="564.402,483.972 188.167,53.032 364.751,154.387  "/>
<polygon fill="#b45c4c" points="580.703,410.120 98.215,312.741 159.916,388.305  "/>
<polygon fill="#6fbe1a" points="128.224,283.224 568.098,260.628 512.689,236.683  "/>
<polygon fill="#1d03d4" points="134.523,355.728 19.225,495.021 57.430,75.745  "/>
<polygon fill="#15c00c" points="226.185,6.423 162.599,74.512 533.855,102.257  "/>
<polygon fill="#4554c3" points="499.471,363.070 9.354,409.189 65.242,437.027  "/>
<polygon fill="#7f6b1c" points="309.585,438.953 299.371,79.406 504.436,214.877  "/>
<polygon fill="#f02820" points="558.705,583.759 15.135,122.313 546.502,531.713  "/>
<polygon fill="#8737f7" points="523.603,304.029 46.094,239.316 90.117,573.771  "/>
<polygon fill="#1491d0" points="193.837,143.520 140.326,568.588 72.157,328.934  "/>
<polygon fill="#7db173" points="24.334,250.758 353.610,223.896 498.530,307.763  "/>
<polygon fill="#d88001" points="590.945,312.895 47.475,68.246 516.385,421.217  "/>
<polygon fill="#5beab7" points="182.337,277.929 75.402,6.417 573.119,196.890  "/>
<polygon fill="#4adf90" points="96.599,251.491 27.337,43.142 101.015,450.490  "/>
<polygon fill="#03e1ad" points="296.187,128.636 135.328,448.134 586.756,489.316  "/>
<polygon fill="#1edbdc" points="245.132,507.539 279.676,501.508 112.953,309.936  "/>
</svg>