<?xml version="1.0" encoding="utf-8"?>
<!-- Generator: Python script. InTeResTinG -->
<!DOCTYPE svg PUBLIC "-//W3C//DTD SVG 1.1//EN" "http://www.w3.org/Graphics/SVG/1.1/DTD/svg11.dtd">
<svg version="1.1" id="Layer_1" xmlns="http://www.w3.org/2000/svg" xmlns:xlink="http://www.w3.org/1999/xlink" x="0px" y="0px" width="600.000px" height="600.000px" viewBox="0 0 600.000 600.000" enable-background="new 0 0 600.000 600.000" xml:space="preserve">
<polygon fill="#ad6796" points="256.992,117.619 586.649,142.883 415.261,445.177  "/>
<polygon fill="#856573" points="231.974,131.515 92.940,523.576 165.750,29.593  "/>
<polygon fill="#97ef23" points="338.897,438.535 248.757,26.244 517.918,500.924  "/>
<polygon fill="#7108db" points="245.871,183.752 423.841,24.587 305.856,266.201  "/>
<polygon fill="#d50010" points="209.182,112.850 370.312,190.723 392.013,503.325  "/>
<polygon fill="#b4f5da" points="185.507,330.682 257.938,570.896 365.176,493.671  "/>
<polygon fill="#d078cd" points="375.175,265.611 371.409,599.728 550.499,58.005  "/>
<polygon fill="#08780f" points="485.086,149.054 41.545,144.619 106.500,242.141  "/>
<polygon fill="#2a6e95" points="98.652,144.012 506.166,319.228 235.000,364.748  "/>
<polygon fill="#14b4ae" points="134.013,322.838 344.208,533.964 135.233,156.571  "/>
<polygon fill="#bc9df7" points="298.737,26.612 392.503,91.796 332.104,182.026  "/>
<polygon fill="#4e9c1a" points="333.417,554.363 180.404,220.494 134.431,216.180  "/>
<polygon fill="#d51386" points="514.472,364.344 547.559,227.118 362.893,357.565  "/>
<polygon fill="#479703" points="265.578,523.166 400.670,252.552 262.543,391.567  "/>
<polygon fill="#87fef9" points="137.584,121.913 566.340,82.371 73.682,112.998  "/>
<polygon fill="#6ff7cd" points="510.929,259.498 575.148,229.999 197.750,222.232  "/>
<polygon fill="#f30307" points="439.206,563.068 525.320,62.576 46.708,232.335  "/>
<polygon fill="#18a12f" points="434.045,14.877 332.140,229.094 365.590,254.915  "/>
<polygon fill="#4228ba" points="395.553,472.045 198.982,509.767 283.629,179.604  "/>
<polygon fill="#4499cb" points="58.048,17.327 44.646,61.154 450.801,212.796  "/>
<polygon fill="#b7bdba" points="358.751,347.251 121.668,582.309 434.859,63.136  "/>
<polygon fill="#302f91" points="81.123,23.957 114.659,117.877 491.866,302.975  "/>
<polygon fill="#150970" points="41.451,109.773 93.609,70.612 350.484,47.844  "/>
<polygon fill="#3b72aa" points="113.817,391.515 106.767,124.809 381.824,429.967  "/>
<polygon fill="#c2178a" points="219.267,59.168 330.024,445.794 466.277,258.747  "/>
<polygon fill="#c910d0" points="229.150,509.559 248.879,519.687 586.025,57.440  "/>
<polygon fill="#7a070b" points="232.307,441.095 483.680,320.099 112.169,228.091  "/>
<polygon fill="#b08724" points="15.439,190.399 270.088,505.762 152.513,397.336  "/>
<polygon fill="#448ef2" points="289.942,363.901 441.283,574.797 259.225,348.772  "/>
<polygon fill="#2c5076" points="95.460,569.987 240.240,484.153 412.896,499.020  "/>
<polygon fill="#3ef199" points="11.348,229.751 588.705,513.146 496.182,285.696  "/>
<polygon fill="#f6be92" points="319.351,161.694 506.447,487.947 66.489,383.392  "/>
<polygon fill="#811cb8" points="468.396,0.658 305.682,598.575 546.892,244.512  "/>
<polygon fill="#4be976" points="194.789,71.604 123.016,197.850 143.541,438.125  "/>
<polygon fill="#730f46" points="381.017,336.255 499.048,121.534 362.646,22.994  "/>
<polygon fill="#d149c5" points="379.475,568.853 438.385,491.941 164.033,194.539  "/>
<polygon fill="#0b0b85" points="341.800,419.938 531.257,253.589 35.913,83.670  "/>
<polygon fill="#44e1c0" points="459.304,298.078 477.897,416.284 248.107,252.506  "/>
<polygon fill="#adb127" points="71.432,52.712 230.550,189.305 560.340,235.353  "/>
<polygon fill="#e59311" points="51.897,114.714 242.624,222.555 104.262,234.876  "/>
<polygon fill="#d857d9" points="438.589,509.048 288.451,128.777 66.136,420.487  "/>
<polygon fill="#88b373" points="373.620,513.417 502.615,166.155 441.740,477.827  "/>
<polygon fill="#f959db" points="352.563,29.508 519.573,50.178 181.031,279.559  "/>
<polygon fill="#9a76c2" points="343.448,405.522 140.826,215.823 453.747,15.708  "/>
<polygon fill="#381ced" points="300.332,239.463 178.887,517.252 301.842,78.316  "/>
<polygon fill="#5a7ff4" points="200.375,409.028 454.233,257.331 361.107,481.825  "/>
<polygon fill="#0bf553" points="31.882,362.010 147.768,384.142 230.139,452.075  "/>
<polygon fill="#06db42" points="413.334,301.085 462.284,146.099 163.407,505.230  "/>
<polygon fill="#2c078a" points="161.720,174.316 534.976,524.518 317.296,221.959  "/>
<polygon fill="#199729" points="230.701,374.977 17.971,214.931 344.452,375.185  "/>
</svg>