<?xml version="1.0" encoding="utf-8"?>
<!-- Generator: Python script. InTeResTinG -->
<!DOCTYPE svg PUBLIC "-//W3C//DTD SVG 1.1//EN" "http://www.w3.org/Graphics/SVG/1.1/DTD/svg11.dtd">
<svg version="1.1" id="Layer_1" xmlns="http://www.w3.org/2000/svg" xmlns:xlink="http://www.w3.org/1999/xlink" x="0px" y="0px" width="600.000px" height="600.000px" viewBox="0 0 600.000 600.000" enable-background="new 0 0 600.000 600.000" xml:space="preserve">
<polygon fill="#d1b601" points="447.917,531.437 409.833,263.339 582.927,252.707  "/>
<polygon fill="#5d853f" points="423.364,508.647 168.997,545.208 180.789,302.110  "/>
<polygon fill="#13484d" points="207.305,407.238 83.158,235.814 533.430,56.072  "/>
<polygon fill="#3d9cb3" points="511.501,255.050 562.778,310.204 116.881,505.646  "/>
<polygon fill="#fb2fdc" points="258.986,525.076 490.585,60.791 499.724,72.780  "/>
<polygon fill="#a41886" points="563.489,399.178 61.624,547.863 211.639,178.514  "/>
<polygon fill="#df4cb6" points="357.711,489.069 110.108,293.392 417.599,253.645  "/>
<polygon fill="#92b46b" points="497.741,391.751 53.960,422.619 271.683,493.929  "/>
<polygon fill="#74ed60" points="472.658,242.615 106.688,448.528 319.474,11.355  "/>
<polygon fill="#c5b86b" points="421.024,284.060 15.605,285.327 6.444,590.676  "/>
<polygon fill="#0a62fd" points="158.084,275.561 464.328,358.786 52.213,320.742  "/>
<polygon fill="#330b73" points="276.486,514.828 330.198,397.386 211.096,196.480  "/>
<polygon fill="#4932b2" points="135.145,583.478 25.633,355.370 540.882,175.641  "/>
<polygon fill="#c4d849" points="7.526,439.878 557.572,439.525 463.863,455.970  "/>
<polygon fill="#ae41da" points="328.301,81.347 495.097,54.885 267.555,375.989  "/>
<polygon fill="#dd7295" points="1.966,36.499 218.928,512.842 307.976,327.262  "/>
<polygon fill="#2421f1" points="505.128,256.158 9.559,36.961 205.206,159.382  "/>
<polygon fill="#b9d731" points="144.339,536.303 167.676,433.962 555.230,188.833  "/>
<polygon fill="#8e05c1" points="61.639,35.681 510.607,453.576 183.871,59.498  "/>
<polygon fill="#d3e58d" points="293.706,213.488 450.244,220.372 389.162,435.708  "/>
<polygon fill="#7663fe" points="409.376,317.205 406.664,555.787 346.160,425.972  "/>
<polygon fill="#9bf6ee" points="235.340,82.736 118.961,331.386 428.698,225.074  "/>
<polygon fill="#b0abc3" points="179.534,341.960 327.174,65.410 14.432,102.855  "/>
<polygon fill="#13a4a7" points="172.016,0.891 269.978,435.130 152.721,13.222  "/>
<polygon fill="#7a60af" points="483.832,353.534 317.045,77.498 248.703,36.517  "/>
<polygon fill="#d49257" points="26.263,235.218 268.048,497.398 559.145,108.014  "/>
<polygon fill="#f7362a" points="498.795,536.995 439.453,344.100 428.640,47.446  "/>
<polygon fill="#6f6131" points="232.077,278.568 193.645,404.110 539.085,317.846  "/>
<polygon fill="#0fe760" points="305.457,182.445 272.879,494.000 7.891,324.008  "/>
<polygon fill="#71c8b4" points="383.831,483.064 356.858,355.495 540.784,6.487  "/>
<polygon fill="#f33587" points="382.835,392.851 313.448,17.040 493.828,325.399  "/>
<polygon fill="#135347" points="415.772,24.148 45.151,483.852 311.475,254.579  "/>
<polygon fill="#d254b8" points="149.388,267.370 422.838,178.594 63.606,290.399  "/>
<polygon fill="#c3daba" points="60.972,274.374 66.065,506.609 121.701,284.847  "/>
<polygon fill="#540b9d" points="278.837,382.996 284.117,399.781 459.503,39.278  "/>
<polygon fill="#e28488" points="481.959,29.906 190.379,166.107 347.708,430.480  "/>
<polygon fill="#3d7c9b" points="223.357,250.544 335.488,306.542 116.379,61.270  "/>
<polygon fill="#e6a295" points="550.453,158.942 42.820,199.325 563.386,133.276  "/>
<polygon fill="#44909d" points="224.440,170.138 581.301,99.121 440.366,425.371  "/>
<polygon fill="#3d9527" points="285.775,554.435 547.649,394.078 597.985,317.580  "/>
<polygon fill="#753498" points="126.079,169.463 171.427,51.053 154.267,561.503  "/>
<polygon fill="#3a3bcd" points="481.679,479.568 531.809,49.224 403.712,261.905  "/>
<polygon fill="#db02be" points="60.134,224.889 51.730,96.134 270.603,405.445  "/>
<polygon fill="#0fed0c" points="541.592,77.896 158.300,244.605 110.468,217.686  "/>
<polygon fill="#903d54" points="96.186,524.120 486.935,89.420 31.589,423.292  "/>
<polygon fill="#0c2138" points="521.162,468.141 215.299,80.836 340.726,224.784  "/>
<polygon fill="#0d0648" points="537.943,271.525 144.933,559.901 49.000,335.739  "/>
<polygon fill="#b0a09e" points="1.357,497.129 11.035,465.447 95.959,317.651  "/>
<polygon fill="#10f19c" points="584.267,173.648 433.238,555.756 283.520,317.314  "/>
<polygon fill="#eda2de" points="178.639,522.029 562.267,72.932 286.459,481.986  "/>
<polygon fill="#24273d" points="132.494,300.297 480.007,89.948 235.973,530.908  "/>
<polygon fill="#4b2ec9" points="500.779,357.363 69.881,24.860 512.854,572.615  "/>
<polygon fill="#377af1" points="261.835,231.907 136.783,314.288 385.271,384.637  "/>
<polygon fill="#abe107" points="494.944,224.122 581.759,550.344 121.669,274.595  "/>
<polygon fill="#c4cea2" points="65.206,52.682 99.432,112.164 320.451,211.777  "/>
<polygon fill="#050124" points="276.577,182.124 130.845,3.291 47.891,164.750  "/>
<polygon fill="#b4d668" points="545.949,48.339 237.688,595.717 542.620,175.635  "/>
<polygon fill="#8d8790" points="135.542,341.280 23.424,42.486 491.103,259.823  "/>
<polygon fill="#132421" points="556.496,34.436 219.808,370.169 345.039,37.931  "/>
<polygon fill="#15a52f" points="281.839,542.679 369.875,278.329 567.835,16.117  "/>
<polygon fill="#54893b" points="507.131,85.447 227.800,283.022 512.826,433.180  "/>
<polygon fill="#ccc5a1" points="418.420,245.726 499.937,595.381 16.474,558.490  "/>
<polygon fill="#a55fb7" points="462.173,444.866 329.939,139.209 516.353,142.425  "/>
<polygon fill="#fe47d2" points="390.001,337.187 3.519,291.827 286.211,375.402  "/>
<polygon fill="#100b83" points="492.905,248.999 191.550,134.219 471.796,166.036  "/>
<polygon fill="#1b7f8d" points="110.135,311.109 380.874,227.270 191.048,209.047  "/>
<polygon fill="#cd6c9f" points="34.180,455.901 546.318,304.936 350.857,181.240  "/>
<polygon fill="#bdc98c" points="227.035,181.311 361.128,148.289 502.779,586.574  "/>
<polygon fill="#3842b7" points="388.856,452.379 429.049,7.333 111.832,579.621  "/>
</svg>