<?xml version="1.0" encoding="utf-8"?>
<!-- Generator: Python script. InTeResTinG -->
<!DOCTYPE svg PUBLIC "-//W3C//DTD SVG 1.1//EN" "http://www.w3.org/Graphics/SVG/1.1/DTD/svg11.dtd">
<svg version="1.1" id="Layer_1" xmlns="http://www.w3.org/2000/svg" xmlns:xlink="http://www.w3.org/1999/xlink" x="0px" y="0px" width="600.000px" height="600.000px" viewBox="0 0 600.000 600.000" enable-background="new 0 0 600.000 600.000" xml:space="preserve">
<polygon fill="#78925c" points="509.972,408.105 313.592,317.249 54.782,488.276  "/>
<polygon fill="#8aa162" points="452.415,159.693 347.232,563.118 276.179,368.154  "/>
<polygon fill="#32b95e" points="233.634,454.479 420.417,561.399 585.631,4.061  "/>
<polygon fill="#888d2d" points="532.488,531.137 451.426,548.303 434.399,441.625  "/>
<polygon fill="#3a4f21" points="159.462,155.290 73.230,571.028 369.671,369.627  "/>
<polygon fill="#10b8c7" points="71.076,34.842 137.596,509.968 337.632,506.181  "/>
<polygon fill="#f93fb2" points="561.387,173.962 248.985,109.595 587.276,367.515  "/>
<polygon fill="#3ee540" points="554.987,268.383 201.855,185.317 124.379,27.616  "/>
<polygon fill="#c9510a" points="449.011,236.422 575.661,475.308 502.141,262.808  "/>
<polygon fill="#edc1cd" points="38.032,251.309 575.385,288.226 13.552,530.406  "/>
<polygon fill="#1df5db" points="418.851,501.228 387.405,352.638 171.956,277.510  "/>
<polygon fill="#4515c7" points="293.636,586.354 293.011,147.076 221.800,86.449  "/>
<polygon fill="#e54d16" points="447.873,288.275 215.334,470.119 446.750,515.310  "/>
<polygon fill="#5f5da4" points="458.361,210.957 21.498,382.414 599.114,30.578  "/>
<polygon fill="#54713b" points="367.073,243.881 309.947,129.558 16.556,268.031  "/>
<polygon fill="#7e7886" points="109.968,424.075 222.290,408.835 110.246,552.621  "/>
<polygon fill="#e1e69e" points="465.497,6.426 143.900,458.354 139.656,357.730  "/>
<polygon fill="#ce523e" points="485.214,350.985 385.740,427.880 201.001,79.687  "/>
<polygon fill="#6b83e2" points="548.632,334.553 132.124,573.218 12.235,155.753  "/>
<polygon fill="#fdce07" points="497.075,330.369 278.947,144.023 136.055,259.429  "/>
<polygon fill="#b7b521" points="240.558,28.604 179.354,317.385 324.524,126.856  "/>
<polygon fill="#37c919" points="32.550,150.556 2.087,233.573 81.438,508.972  "/>
<polygon fill="#35e006" points="413.799,197.905 177.651,381.010 334.006,53.124  "/>
<polygon fill="#4038ad" points="380.281,486.145 374.596,537.159 373.903,538.282  "/>
<polygon fill="#99f944" points="178.555,356.886 301.016,523.709 526.638,269.359  "/>
<polygon fill="#97a95c" points="443.131,296.302 56.950,498.754 470.024,379.928  "/>
<polygon fill="#882582" points="290.665,214.672 558.994,340.915 4.305,193.503  "/>
<polygon fill="#39e4f8" points="200.862,56.339 269.622,357.270 64.484,580.841  "/>
<polygon fill="#7570f6" points="582.565,91.517 503.868,52.542 469.533,147.445  "/>
<polygon fill="#7eede5" points="599.654,118.191 112.142,310.319 83.230,244.437  "/>
<polygon fill="#0b0111" points="545.248,94.304 51.415,531.090 163.364,244.242  "/>
<polygon fill="#1734a8" points="305.574,142.599 357.324,340.624 0.008,194.697  "/>
<polygon fill="#fc4572" points="18.166,570.785 101.829,312.166 273.373,589.562  "/>
<polygon fill="#fa0db6" points="432.320,80.253 128.645,565.568 388.645,180.192  "/>
<polygon fill="#82dbde" points="169.867,502.772 360.020,293.061 13.636,411.908  "/>
<polygon fill="#d929b7" points="29.538,35.022 105.761,531.889 57.238,487.094  "/>
<polygon fill="#4045bb" points="163.536,559.043 51.561,298.699 244.548,106.624  "/>
<polygon fill="#f89529" points="26.570,501.072 481.030,333.709 85.291,423.110  "/>
<polygon fill="#778fe1" points="124.468,455.709 316.223,563.464 131.358,342.134  "/>
<polygon fill="#8e1e04" points="477.447,16.919 105.083,543.610 180.182,50.059  "/>
<polygon fill="#3f9acb" points="242.985,306.040 489.312,46.964 450.061,484.059  "/>
<polygon fill="#fddd22" points="550.112,461.070 212.248,476.440 58.640,452.191  "/>
<polygon fill="#7780c6" points="273.582,174.497 533.316,385.879 305.528,90.631  "/>
<polygon fill="#fb3062" points="71.848,12.049 73.858,569.748 556.880,478.230  "/>
<polygon fill="#a545ce" points="52.797,336.874 259.953,443.115 227.737,413.673  "/>
<polygon fill="#2f8835" points="370.416,452.067 111.517,243.554 490.929,514.310  "/>
<polygon fill="#b0d9f7" points="261.899,17.727 40.034,234.714 271.532,195.315  "/>
<polygon fill="#2568a6" points="262.750,113.804 388.281,572.758 430.873,405.598  "/>
<polygon fill="#94303d" points="461.760,225.437 320.433,402.192 280.230,254.125  "/>
<polygon fill="#89cd10" points="442.447,283.939 394.440,395.751 585.900,373.287  "/>
<polygon fill="#61444d" points="128.323,512.187 220.678,485.947 334.149,72.117  "/>
<polygon fill="#7927bf" points="386.923,473.852 571.076,78.800 509.821,296.306  "/>
<polygon fill="#898cea" points="357.383,239.539 111.334,143.113 109.272,264.405  "/>
<polygon fill="#49ec2f" points="247.814,320.833 391.476,376.423 547.457,363.038  "/>
<polygon fill="#27e834" points="329.962,466.374 462.550,305.329 256.068,199.967  "/>
<polygon fill="#6c7e24" points="290.965,415.468 350.985,534.266 537.047,69.109  "/>
<polygon fill="#254529" points="391.255,559.107 475.821,7.549 246.742,78.300  "/>
<polygon fill="#327f4c" points="139.472,69.437 520.616,479.184 560.489,282.021  "/>
<polygon fill="#28392e" points="292.792,70.583 83.801,108.262 481.538,520.517  "/>
<polygon fill="#059887" points="454.851,409.002 72.342,45.518 439.395,326.340  "/>
<polygon fill="#5007f2" points="280.395,76.145 246.847,263.842 535.167,292.372  "/>
<polygon fill="#50d4d8" points="235.291,302.746 333.889,122.252 442.667,432.045  "/>
<polygon fill="#5b7105" points="494.119,131.019 451.665,386.245 137.642,426.415  "/>
<polygon fill="#44c0c6" points="378.321,561.550 525.760,443.619 384.020,175.796  "/>
<polygon fill="#fade65" points="574.667,473.966 20.632,55.659 238.112,328.823  "/>
<polygon fill="#75175a" points="344.526,452.743 413.677,268.510 590.843,184.290  "/>
<polygon fill="#974d7b" points="430.092,457.724 563.418,469.530 486.739,470.286  "/>
<polygon fill="#b4ffba" points="124.565,297.682 375.755,544.417 477.597,569.633  "/>
<polygon fill="#5df19c" points="106.435,399.059 43.682,400.561 337.568,430.941  "/>
<polygon fill="#576d39" points="537.080,404.112 122.566,555.435 160.671,567.864  "/>
</svg>