<?xml version="1.0" encoding="utf-8"?>
<!-- Generator: Python script. InTeResTinG -->
<!DOCTYPE svg PUBLIC "-//W3C//DTD SVG 1.1//EN" "http://www.w3.org/Graphics/SVG/1.1/DTD/svg11.dtd">
<svg version="1.1" id="Layer_1" xmlns="http://www.w3.org/2000/svg" xmlns:xlink="http://www.w3.org/1999/xlink" x="0px" y="0px" width="600.000px" height="600.000px" viewBox="0 0 600.000 600.000" enable-background="new 0 0 600.000 600.000" xml:space="preserve">
<polygon fill="#f092ef" points="398.912,477.551 361.290,107.838 308.253,443.614  "/>
<polygon fill="#1a2c02" points="354.263,172.514 243.082,128.430 317.261,345.174  "/>
<polygon fill="#9dd0be" points="522.019,299.247 182.281,282.259 371.223,234.165  "/>
<polygon fill="#20f9c4" points="251.765,10.141 383.908,277.380 446.074,480.771  "/>
<polygon fill="#134bd3" points="467.263,338.820 492.409,336.892 416.900,325.660  "/>
<polygon fill="#1b8149" points="335.131,91.146 31.900,29.576 412.716,294.549  "/>
<polygon fill="#797998" points="249.392,492.351 549.961,471.134 268.544,34.818  "/>
<polygon fill="#b90e5a" points="387.043,158.688 46.697,226.188 546.786,563.726  "/>
<polygon fill="#fde351" points="404.973,599.125 483.168,156.834 572.572,97.664  "/>
<polygon fill="#31e637" points="30.548,421.910 89.600,349.035 551.116,419.639  "/>
<polygon fill="#251ea5" points="341.929,156.119 532.153,459.645 351.102,47.349  "/>
<polygon fill="#ebe9a1" points="563.152,379.935 368.805,85.017 500.703,34.698  "/>
<polygon fill="#581c39" points="23.576,486.921 143.803,586.734 459.782,577.720  "/>
<polygon fill="#b16027" points="320.199,33.339 427.297,592.727 278.954,503.912  "/>
<polygon fill="#16218f" points="245.153,300.890 119.737,515.816 329.109,547.847  "/>
<polygon fill="#f712e6" points="402.565,156.213 596.321,275.434 508.480,570.183  "/>
<polygon fill="#0c4391" points="450.320,61.810 558.411,542.137 66.000,284.694  "/>
<polygon fill="#358d0f" points="375.566,165.641 393.544,479.219 596.561,157.106  "/>
<polygon fill="#128450" points="77.061,273.232 81.948,83.004 411.082,392.415  "/>
<polygon fill="#a73696" points="551.556,436.155 65.997,88.066 62.379,475.779  "/>
<polygon fill="#6bcf44" points="443.798,524.029 331.887,339.971 589.433,14.364  "/>
<polygon fill="#c5857a" points="456.546,106.302 10.980,281.264 372.336,107.300  "/>
<polygon fill="#bab54e" points="319.469,22.436 566.148,162.576 328.593,433.882  "/>
<polygon fill="#be2114" points="233.927,293.105 45.710,78.813 389.529,32.675  "/>
<polygon fill="#cde289" points="553.811,78.982 442.147,577.248 381.856,271.457  "/>
<polygon fill="#cf5a00" points="71.313,116.318 427.615,19.042 344.089,29.333  "/>
<polygon fill="#163678" points="30.342,550.033 250.315,26.511 65.005,54.128  "/>
<polygon fill="#e09a25" points="568.106,384.271 426.086,139.081 507.719,266.286  "/>
<polygon fill="#fb1c87" points="126.009,413.314 35.460,589.702 428.806,134.221  "/>
<polygon fill="#51cc39" points="373.360,115.419 118.314,320.075 48.966,470.997  "/>
<polygon fill="#2c2711" points="450.057,504.769 43.409,134.169 561.415,281.653  "/>
<polygon fill="#a09247" points="428.199,271.175 206.498,296.567 160.431,497.447  "/>
<polygon fill="#b43d17" points="283.878,420.201 531.125,236.648 133.189,424.560  "/>
<polygon fill="#1a8e21" points="562.351,361.137 508.672,185.998 99.056,575.110  "/>
<polygon fill="#8fe791" points="513.335,403.276 333.728,434.283 448.487,229.701  "/>
<polygon fill="#2634c9" points="248.186,501.442 52.622,263.290 206.176,67.072  "/>
<polygon fill="#434c3a" points="178.111,211.011 397.811,87.681 523.033,414.517  "/>
<polygon fill="#8942e2" points="281.081,210.394 509.564,528.467 302.787,49.323  "/>
<polygon fill="#4ad257" points="262.997,164.707 391.565,277.867 201.231,527.909  "/>
<polygon fill="#28371d" points="163.951,58.967 147.582,168.914 16.485,409.390  "/>
<polygon fill="#516ee8" points="187.296,379.597 99.924,411.404 216.792,287.112  "/>
<polygon fill="#04d151" points="336.339,515.291 561.496,318.248 44.189,402.423  "/>
<polygon fill="#cb2af9" points="502.907,133.757 236.530,329.674 161.843,364.313  "/>
<polygon fill="#eb3421" points="429.954,187.319 394.989,54.394 397.894,266.489  "/>
<polygon fill="#d56c9e" points="187.484,301.461 75.891,542.355 275.201,136.090  "/>
<polygon fill="#1072d0" points="312.051,439.683 205.045,327.571 465.374,553.642  "/>
<polygon fill="#d70f96" points="287.248,153.240 240.100,76.134 233.925,592.226  "/>
<polygon fill="#73079e" points="346.820,435.654 377.292,259.630 350.138,73.026  "/>
<polygon fill="#2ec96c" points="227.400,490.351 390.986,229.981 53.298,230.376  "/>
<polygon fill="#2e702e" points="333.838,179.403 478.486,356.963 10.567,301.338  "/>
<polygon fill="#c2b970" points="126.757,275.052 320.209,485.011 165.309,135.356  "/>
<polygon fill="#553bb6" points="379.522,222.599 217.311,205.307 538.514,17.394  "/>
<polygon fill="#c8971a" points="597.190,557.954 226.892,571.825 488.187,45.262  "/>
<polygon fill="#a04c28" points="29.752,191.499 53.505,231.049 381.571,224.441  "/>
<polygon fill="#1eedf7" points="11.720,31.710 301.899,530.401 514.598,492.818  "/>
</svg>