<?xml version="1.0" encoding="utf-8"?>
<!-- Generator: Python script. InTeResTinG -->
<!DOCTYPE svg PUBLIC "-//W3C//DTD SVG 1.1//EN" "http://www.w3.org/Graphics/SVG/1.1/DTD/svg11.dtd">
<svg version="1.1" id="Layer_1" xmlns="http://www.w3.org/2000/svg" xmlns:xlink="http://www.w3.org/1999/xlink" x="0px" y="0px" width="600.000px" height="600.000px" viewBox="0 0 600.000 600.000" enable-background="new 0 0 600.000 600.000" xml:space="preserve">
<polygon fill="#a431c0" points="86.033,464.633 147.442,287.675 265.367,78.396  "/>
<polygon fill="#b20165" points="205.336,103.200 380.757,588.328 373.156,7.272  "/>
<polygon fill="#fef448" points="499.232,48.871 55.500,398.555 116.757,165.858  "/>
<polygon fill="#9eefc8" points="161.038,382.595 133.251,211.855 120.056,505.420  "/>
<polygon fill="#c7abf8" points="315.362,585.075 212.978,274.010 513.303,518.037  "/>
<polygon fill="#8b6429" points="23.745,157.628 453.218,332.864 555.124,232.694  "/>
<polygon fill="#0c0633" points="513.314,210.163 102.587,563.022 397.790,558.034  "/>
<polygon fill="#0d8c1d" points="431.756,150.906 214.373,595.895 347.069,518.045  "/>
<polygon fill="#1e0fd1" points="104.001,414.448 506.766,325.471 307.251,245.713  "/>
<polygon fill="#c2873c" points="438.901,390.638 419.031,321.627 243.353,198.752  "/>
<polygon fill="#cce801" points="318.282,392.999 345.628,213.500 549.752,324.544  "/>
<polygon fill="#72f8a3" points="577.781,221.843 476.033,571.114 404.559,515.553  "/>
<polygon fill="#09615c" points="161.703,53.080 109.726,264.467 62.342,278.970  "/>
<polygon fill="#aba6ae" points="115.299,38.030 395.763,180.935 57.719,304.172  "/>
<polygon fill="#453cd2" points="436.358,199.179 22.640,592.475 10.310,366.907  "/>
<polygon fill="#f9e370" points="392.003,83.669 404.872,141.561 236.777,491.109  "/>
<polygon fill="#2e4885" points="324.338,325.880 217.209,294.175 272.591,255.654  "/>
<polygon fill="#1db529" points="230.780,348.681 134.441,430.043 265.863,496.447  "/>
<polygon fill="#d85d9b" points="330.091,125.295 192.071,200.866 55.340,444.989  "/>
<polygon fill="#4a33be" points="486.424,224.670 382.206,25.883 349.573,227.022  "/>
<polygon fill="#2d9013" points="573.892,469.952 559.162,396.396 595.177,177.773  "/>
<polygon fill="#496a1d" points="348.400,406.114 447.521,539.599 241.399,52.429  "/>
<polygon fill="#d03e36" points="454.810,239.450 166.297,404.811 235.953,348.758  "/>
<polygon fill="#c686a6" points="158.863,461.648 271.392,322.167 108.869,438.813  "/>
<polygon fill="#6ee582" points="139.362,345.117 214.968,111.996 166.378,254.639  "/>
<polygon fill="#2a5537" points="464.562,73.547 456.493,362.100 193.144,514.188  "/>
<polygon fill="#b1919e" points="395.881,209.240 230.684,408.280 193.339,561.489  "/>
<polygon fill="#af1e9d" points="61.006,474.630 386.059,5.237 446.098,24.898  "/>
<polygon fill="#54ed60" points="22.564,444.355 285.911,153.870 298.655,250.156  "/>
<polygon fill="#8cd8a0" points="150.257,596.084 278.177,379.629 395.348,6.127  "/>
<polygon fill="#4090bb" points="188.503,130.961 232.132,323.480 402.466,192.251  "/>
<polygon fill="#b6caeb" points="313.906,577.451 214.191,360.872 337.932,275.805  "/>
<polygon fill="#288c6b" points="591.863,185.777 579.895,90.073 540.647,115.444  "/>
<polygon fill="#48e2d2" points="316.365,545.920 566.169,445.006 348.617,486.143  "/>
<polygon fill="#10423b" points="427.845,402.564 314.293,178.223 367.220,557.089  "/>
<polygon fill="#55e4ea" points="402.558,69.782 582.886,520.457 101.907,566.304  "/>
<polygon fill="#77f871" points="144.792,557.006 479.416,53.482 123.866,233.858  "/>
<polygon fill="#6060ed" points="299.367,26.873 20.643,398.461 345.005,459.093  "/>
<polygon fill="#55c166" points="324.502,262.713 174.178,146.576 503.550,386.760  "/>
<polygon fill="#4fe942" points="390.700,182.615 15.733,378.467 286.971,122.938  "/>
<polygon fill="#08d8d2" points="583.236,305.796 32.843,592.893 352.327,402.348  "/>
<polygon fill="#7bb06f" points="102.585,465.505 338.696,281.171 211.015,442.303  "/>
<polygon fill="#f0439a" points="490.700,205.776 440.289,276.237 226.332,357.192  "/>
<polygon fill="#0296f9" points="194.207,67.986 573.233,101.198 519.677,474.311  "/>
<polygon fill="#82c3c1" points="117.233,24.072 569.403,541.693 519.098,152.233  "/>
<polygon fill="#111bef" points="197.353,77.571 386.102,434.976 264.433,115.865  "/>
<polygon fill="#6d0930" points="124.407,542.276 195.792,261.299 73.314,42.292  "/>
<polygon fill="#9829c8" points="72.194,14.331 545.633,144.633 260.015,586.379  "/>
<polygon fill="#bbdc11" points="122.892,251.475 323.108,481.362 516.273,409.410  "/>
<polygon fill="#ade0d9" points="82.596,498.286 390.316,339.914 561.860,322.072  "/>
<polygon fill="#c473d6" points="222.345,215.071 54.772,221.304 430.761,406.868  "/>
<polygon fill="#1a7373" points="90.688,238.703 267.962,367.673 527.235,75.764  "/>
<polygon fill="#8d97af" points="105.939,88.764 113.954,465.351 493.730,197.004  "/>
<polygon fill="#d7e194" points="195.462,92.182 250.049,78.512 400.764,294.813  "/>
<polygon fill="#577def" points="231.551,172.757 128.285,261.855 435.951,481.006  "/>
<polygon fill="#ff97c9" points="47.711,290.281 360.022,54.924 131.714,407.447  "/>
<polygon fill="#af4ac6" points="19.276,190.942 224.689,390.635 435.975,124.214  "/>
<polygon fill="#000f0e" points="433.990,241.550 125.567,87.011 209.248,90.287  "/>
</svg>