<?xml version="1.0" encoding="utf-8"?>
<!-- Generator: Python script. InTeResTinG -->
<!DOCTYPE svg PUBLIC "-//W3C//DTD SVG 1.1//EN" "http://www.w3.org/Graphics/SVG/1.1/DTD/svg11.dtd">
<svg version="1.1" id="Layer_1" xmlns="http://www.w3.org/2000/svg" xmlns:xlink="http://www.w3.org/1999/xlink" x="0px" y="0px" width="600.000px" height="600.000px" viewBox="0 0 600.000 600.000" enable-background="new 0 0 600.000 600.000" xml:space="preserve">
<polygon fill="#3fece6" points="412.671,212.271 102.185,94.993 261.908,590.225  "/>
<polygon fill="#ff04e8" points="294.013,43.886 370.958,421.806 371.497,334.970  "/>
<polygon fill="#cdc48d" points="87.073,260.542 570.746,4.562 552.981,480.419  "/>
<polygon fill="#158f0c" points="50.652,147.793 544.817,54.404 424.052,554.799  "/>
<polygon fill="#d91afa" points="164.833,530.408 570.274,28.684 263.104,276.241  "/>
<polygon fill="#398dc0" points="140.249,299.348 566.321,124.447 593.129,23.043  "/>
<polygon fill="#134cff" points="429.700,521.676 156.157,88.772 490.132,402.178  "/>
<polygon fill="#b221b9" points="193.776,354.218 399.299,504.448 503.182,429.357  "/>
<polygon fill="#f9536a" points="293.734,248.674 472.535,555.777 189.530,516.599  "/>
<polygon fill="#019207" points="536.390,480.209 445.466,402.546 110.647,330.701  "/>
<polygon fill="#3e35c1" points="327.330,188.841 224.369,265.811 354.825,573.798  "/>
<polygon fill="#d3a929" points="449.424,397.056 175.768,144.118 402.589,240.334  "/>
<polygon fill="#3a630c" points="72.455,376.071 224.201,502.173 564.037,521.155  "/>
<polygon fill="#a85c12" points="463.022,224.321 563.830,121.686 227.641,509.085  "/>
<polygon fill="#5c1092" points="125.429,173.219 490.415,522.736 526.080,288.419  "/>
<polygon fill="#796f6e" points="106.787,581.078 584.976,265.588 424.005,103.576  "/>
<polygon fill="#4f18f1" points="184.331,64.119 297.126,59.997 589.123,105.748  "/>
<polygon fill="#d3471d" points="477.784,113.871 25.014,17.876 148.903,430.455  "/>
<polygon fill="#0e9c27" points="192.419,526.902 474.093,103.979 137.793,34.171  "/>
<polygon fill="#828c05" points="293.741,288.352 296.232,71.091 184.246,525.297  "/>
<polygon fill="#b56a56" points="198.183,261.384 582.811,344.433 500.418,215.196  "/>
<polygon fill="#d66abf" points="323.846,594.312 542.695,23.880 592.681,72.996  "/>
<polygon fill="#91d9fb" points="117.886,108.673 593.507,298.977 69.251,217.877  "/>
<polygon fill="#c7cddf" points="535.935,216.128 526.635,472.318 121.594,102.382  "/>
<polygon fill="#c0f8af" points="233.086,212.575 391.591,473.362 64.001,347.667  "/>
<polygon fill="#d787d3" points="49.911,152.790 224.273,96.438 126.518,567.633  "/>
<polygon fill="#27b5b0" points="432.119,390.684 64.154,67.969 379.706,465.347  "/>
<polygon fill="#f6ae8d" points="168.751,534.025 284.823,180.617 338.874,224.723  "/>
<polygon fill="#76b5db" points="471.836,206.768 19.990,465.426 473.040,425.502  "/>
<polygon fill="#759208" points="130.341,22.373 387.840,39.271 215.491,362.602  "/>
<polygon fill="#8aa04a" points="408.131,435.950 255.977,441.550 223.833,204.434  "/>
<polygon fill="#be31b5" points="481.660,206.523 189.673,303.985 172.662,196.134  "/>
<polygon fill="#f79158" points="332.798,212.151 572.499,463.445 427.663,502.954  "/>
<polygon fill="#3b08e5" points="50.592,155.972 457.192,520.690 575.581,254.801  "/>
<polygon fill="#25faa6" points="248.187,200.624 536.665,188.976 59.764,372.311  "/>
<polygon fill="#9b5d9c" points="451.951,54.837 144.550,370.097 89.401,61.538  "/>
<polygon fill="#07c8d7" points="379.553,221.500 195.156,524.612 99.422,512.879  "/>
<polygon fill="#eb4c42" points="470.268,417.832 442.263,244.928 467.498,161.155  "/>
<polygon fill="#01a831" points="562.456,289.626 389.091,48.103 245.241,318.760  "/>
<polygon fill="#2fab29" points="437.597,585.398 479.752,387.605 395.378,291.116  "/>
<polygon fill="#f7c097" points="97.807,321.099 63.631,48.323 92.084,268.287  "/>
<polygon fill="#8077e4" points="391.808,564.974 190.187,467.846 251.044,407.931  "/>
<polygon fill="#8c09ae" points="8.825,475.848 268.646,57.864 327.428,183.192  "/>
<polygon fill="#fcdad9" points="245.822,365.832 595.395,586.938 245.362,424.558  "/>
<polygon fill="#a75fd7" points="532.700,326.199 246.939,323.330 588.871,212.715  "/>
<polygon fill="#a8e863" points="585.507,51.962 266.004,202.711 336.955,555.262  "/>
<polygon fill="#9ff9b1" points="591.310,260.312 534.750,239.929 211.334,586.831  "/>
<polygon fill="#6cfe89" points="481.362,84.781 60.068,470.198 6.996,513.007  "/>
<polygon fill="#164435" points="111.611,176.764 47.191,239.837 55.147,560.745  "/>
<polygon fill="#cea769" points="429.134,85.076 380.090,334.481 312.480,306.614  "/>
<polygon fill="#f14671" points="65.801,189.495 245.553,505.568 489.593,380.782  "/>
<polygon fill="#c37ed6" points="42.293,496.620 456.410,318.392 578.346,444.312  "/>
<polygon fill="#5d6ac0" points="20.312,335.915 240.483,449.603 430.508,544.988  "/>
<polygon fill="#7d572d" points="599.447,468.466 81.874,254.590 52.541,313.157  "/>
<polygon fill="#13e7de" points="227.593,448.654 209.290,554.493 293.717,382.053  "/>
<polygon fill="#c8a40d" points="290.383,346.074 599.981,513.259 11.851,39.961  "/>
<polygon fill="#228bfd" points="511.698,323.213 407.396,11.816 339.475,123.886  "/>
</svg>