<?xml version="1.0" encoding="utf-8"?>
<!-- Generator: Python script. InTeResTinG -->
<!DOCTYPE svg PUBLIC "-//W3C//DTD SVG 1.1//EN" "http://www.w3.org/Graphics/SVG/1.1/DTD/svg11.dtd">
<svg version="1.1" id="Layer_1" xmlns="http://www.w3.org/2000/svg" xmlns:xlink="http://www.w3.org/1999/xlink" x="0px" y="0px" width="600.000px" height="600.000px" viewBox="0 0 600.000 600.000" enable-background="new 0 0 600.000 600.000" xml:space="preserve">
<polygon fill="#0a45ab" points="106.624,144.835 564.705,13.816 519.938,345.021  "/>
<polygon fill="#25e474" points="117.625,587.185 40.986,378.819 31.975,221.095  "/>
<polygon fill="#8deaaf" points="498.878,202.833 502.534,292.924 465.531,295.193  "/>
<polygon fill="#e4fdf0" points="417.024,281.862 384.817,30.740 319.668,122.321  "/>
<polygon fill="#49291a" points="290.193,450.865 212.540,31.819 134.057,41.322  "/>
<polygon fill="#9f110d" points="542.611,201.811 425.810,536.392 205.688,467.872  "/>
<polygon fill="#cfd4ed" points="139.696,234.289 330.124,222.084 270.218,278.218  "/>
<polygon fill="#8494a9" points="432.798,109.249 449.165,415.993 454.855,233.624  "/>
<polygon fill="#52e729" points="596.923,185.288 576.635,443.195 584.313,351.911  "/>
<polygon fill="#a50d5d" points="428.841,365.618 403.125,148.427 328.443,124.161  "/>
<polygon fill="#d1f74c" points="219.452,200.431 273.141,435.281 283.045,203.365  "/>
<polygon fill="#d648ae" points="168.900,259.970 48.073,292.534 488.062,29.197  "/>
<polygon fill="#37e7d7" points="12.289,215.197 528.078,579.504 344.463,67.660  "/>
<polygon fill="#ef8e5e" points="379.455,485.011 578.071,21.945 358.376,105.388  "/>
<polygon fill="#7ac9ac" points="498.543,36.319 172.920,389.543 403.421,57.721  "/>
<polygon fill="#f33721" points="254.992,221.229 331.033,307.957 392.455,112.590  "/>
<polygon fill="#edebee" points="49.312,510.080 367.124,428.185 349.373,469.248  "/>
<polygon fill="#0e2a94" points="364.960,565.861 204.449,302.743 168.063,179.813  "/>
<polygon fill="#9fac0d" points="354.141,31.461 530.424,9.402 22.957,155.406  "/>
<polygon fill="#9586b1" points="35.111,119.969 563.474,154.418 436.043,101.407  "/>
<polygon fill="#1e8029" points="44.119,366.477 502.579,414.316 141.123,182.706  "/>
<polygon fill="#8a7fcf" points="446.186,529.098 569.151,221.309 74.400,470.777  "/>
<polygon fill="#37d4f2" points="413.690,100.182 120.373,349.435 376.962,261.437  "/>
<polygon fill="#a06333" points="38.821,553.849 511.323,471.799 273.356,372.622  "/>
<polygon fill="#bc899d" points="306.414,275.232 316.548,277.252 509.405,90.253  "/>
<polygon fill="#421ab1" points="527.807,567.297 272.673,216.816 553.001,312.514  "/>
<polygon fill="#90c90a" points="139.439,342.527 102.763,171.847 291.179,135.425  "/>
<polygon fill="#65bc2c" points="44.116,515.302 537.104,163.604 352.822,443.365  "/>
<polygon fill="#0e4ab4" points="196.917,375.758 15.536,105.218 419.202,207.996  "/>
<polygon fill="#0186a8" points="445.933,383.915 500.490,82.958 175.592,243.527  "/>
<polygon fill="#254bba" points="128.908,290.150 250.451,424.953 70.614,15.382  "/>
<polygon fill="#3c498d" points="463.093,401.729 137.103,501.197 339.800,51.209  "/>
<polygon fill="#52cf57" points="236.747,143.823 456.197,262.967 407.774,406.173  "/>
<polygon fill="#08987f" points="448.391,95.119 448.280,148.909 423.862,63.427  "/>
<polygon fill="#853a03" points="228.759,155.395 258.010,238.574 109.966,257.323  "/>
<polygon fill="#d5ac17" points="297.361,426.403 198.111,69.294 76.644,471.783  "/>
<polygon fill="#79fb2c" points="251.587,598.899 446.804,208.143 306.554,17.369  "/>
<polygon fill="#2b81c1" points="293.577,80.605 409.025,321.766 586.714,288.249  "/>
<polygon fill="#ed3935" points="257.935,218.992 324.579,187.576 159.334,289.378  "/>
<polygon fill="#c7fae8" points="408.933,84.628 571.913,109.381 557.808,364.453  "/>
<polygon fill="#4f6e49" points="598.618,371.818 596.547,297.553 112.402,67.594  "/>
<polygon fill="#38bd4e" points="37.801,225.437 470.908,249.378 244.256,407.943  "/>
<polygon fill="#8027b6" points="106.008,139.002 174.696,511.460 127.466,551.958  "/>
<polygon fill="#ebded7" points="511.729,400.346 8.161,358.919 18.459,549.605  "/>
<polygon fill="#797587" points="12.760,372.022 459.027,161.856 214.243,549.808  "/>
<polygon fill="#f5ce6f" points="412.255,346.722 212.272,138.979 448.300,538.700  "/>
<polygon fill="#5e86bd" points="580.586,415.672 362.689,80.533 153.771,118.485  "/>
<polygon fill="#ea8a80" points="114.384,342.668 212.589,598.390 222.253,454.003  "/>
<polygon fill="#5bcd98" points="134.694,233.257 428.453,489.350 171.002,138.907  "/>
<polygon fill="#3454b9" points="543.180,238.298 542.500,493.612 560.230,430.230  "/>
<polygon fill="#8be2dd" points="53.841,158.816 489.271,439.538 58.661,579.875  "/>
<polygon fill="#140c15" points="507.708,25.562 95.300,412.942 166.006,356.079  "/>
</svg>