<?xml version="1.0" encoding="utf-8"?>
<!-- Generator: Python script. InTeResTinG -->
<!DOCTYPE svg PUBLIC "-//W3C//DTD SVG 1.1//EN" "http://www.w3.org/Graphics/SVG/1.1/DTD/svg11.dtd">
<svg version="1.1" id="Layer_1" xmlns="http://www.w3.org/2000/svg" xmlns:xlink="http://www.w3.org/1999/xlink" x="0px" y="0px" width="600.000px" height="600.000px" viewBox="0 0 600.000 600.000" enable-background="new 0 0 600.000 600.000" xml:space="preserve">
<polygon fill="#36f65e" points="422.532,274.645 443.235,593.446 599.984,379.668  "/>
<polygon fill="#625781" points="580.988,282.546 446.533,567.793 129.759,38.536  "/>
<polygon fill="#3f8787" points="399.821,292.326 98.889,456.753 396.828,595.630  "/>
<polygon fill="#139799" points="460.240,492.076 195.456,282.135 118.757,32.825  "/>
<polygon fill="#8f16c0" points="334.983,444.936 24.951,304.210 334.637,45.676  "/>
<polygon fill="#d1a2a4" points="45.019,7.705 117.130,510.298 2.900,599.225  "/>
<polygon fill="#7e7c8d" points="388.595,152.890 527.630,217.682 586.431,81.641  "/>
<polygon fill="#53ae56" points="210.060,61.177 411.531,310.238 241.407,410.286  "/>
<polygon fill="#c5fda8" points="53.826,401.738 540.010,360.206 210.229,98.649  "/>
<polygon fill="#26c337" points="28.099,182.736 282.223,592.865 379.042,93.072  "/>
<polygon fill="#aae875" points="110.510,330.181 329.791,498.948 290.466,406.608  "/>
<polygon fill="#365b0a" points="342.921,474.063 344.591,243.997 386.665,581.042  "/>
<polygon fill="#142338" points="537.901,352.813 218.980,245.813 597.115,109.001  "/>
<polygon fill="#9f4ac7" points="173.639,564.425 558.500,274.631 588.764,242.391  "/>
<polygon fill="#e9003a" points="282.404,227.668 18.740,71.603 594.758,282.235  "/>
<polygon fill="#d26983" points="435.970,304.125 146.810,133.011 544.246,410.946  "/>
<polygon fill="#4eaa3d" points="17.030,200.256 42.935,411.557 410.129,60.270  "/>
<polygon fill="#f9165c" points="56.192,416.907 441.795,376.894 182.645,339.648  "/>
<polygon fill="#278fea" points="301.441,42.120 30.853,357.058 6.034,316.343  "/>
<polygon fill="#c56225" points="526.951,470.375 374.104,296.558 149.774,444.746  "/>
<polygon fill="#6f6b1e" points="494.083,300.157 532.751,449.961 352.829,156.893  "/>
<polygon fill="#de43e2" points="581.516,362.247 56.151,172.961 548.276,525.216  "/>
<polygon fill="#7b4fe7" points="335.652,253.019 534.876,349.682 2.734,501.174  "/>
<polygon fill="#d9e5af" points="276.758,493.485 193.490,27.257 59.771,304.714  "/>
<polygon fill="#cf183b" points="461.473,584.481 226.210,395.832 184.120,593.197  "/>
<polygon fill="#cd6b45" points="206.865,416.035 432.156,301.178 551.518,486.023  "/>
<polygon fill="#13fecc" points="405.147,90.101 281.807,535.170 43.867,236.319  "/>
<polygon fill="#ee2d67" points="297.492,389.291 373.522,151.184 336.577,578.362  "/>
<polygon fill="#f255f4" points="144.059,117.393 560.550,560.112 8.679,234.388  "/>
<polygon fill="#be6411" points="440.556,121.073 540.576,375.050 501.999,197.309  "/>
<polygon fill="#470ffd" points="559.214,289.413 273.662,323.519 200.537,22.218  "/>
<polygon fill="#979759" points="153.273,583.283 130.194,255.158 24.432,373.498  "/>
<polygon fill="#787c26" points="413.907,61.995 287.671,225.222 420.842,597.882  "/>
<polygon fill="#de33f7" points="523.638,164.662 352.849,59.185 180.354,329.892  "/>
<polygon fill="#1c5332" points="368.624,292.693 275.192,9.487 527.174,533.719  "/>
<polygon fill="#c8e3d1" points="119.235,37.880 441.306,398.731 441.481,48.752  "/>
<polygon fill="#7d1c31" points="141.127,268.497 287.850,483.556 159.424,157.896  "/>
<polygon fill="#62ac65" points="117.296,532.345 508.213,398.528 499.738,126.095  "/>
<polygon fill="#54a910" points="235.568,287.631 152.228,348.119 81.722,331.372  "/>
<polygon fill="#5e1620" points="582.561,269.580 266.323,596.113 366.867,106.565  "/>
<polygon fill="#6b465a" points="54.635,474.570 61.132,47.111 298.230,489.419  "/>
<polygon fill="#1a72f7" points="284.075,10.528 247.548,182.218 421.454,211.468  "/>
<polygon fill="#87be8a" points="438.813,182.588 475.072,149.514 390.796,185.235  "/>
<polygon fill="#721da9" points="350.425,473.594 210.499,243.469 361.771,247.242  "/>
<polygon fill="#06da0a" points="307.431,29.717 54.642,322.097 599.010,451.833  "/>
<polygon fill="#8abb72" points="282.878,433.157 96.724,229.804 441.921,156.350  "/>
<polygon fill="#08d2bb" points="379.029,535.934 28.255,444.455 501.655,574.234  "/>
<polygon fill="#4290d9" points="40.907,570.612 60.841,422.882 532.332,479.962  "/>
<polygon fill="#47df2e" points="279.215,318.947 490.047,135.264 50.915,35.469  "/>
<polygon fill="#d86f7f" points="339.664,497.308 406.382,154.684 363.662,284.467  "/>
<polygon fill="#1ef071" points="358.261,250.460 420.645,427.079 128.960,443.677  "/>
<polygon fill="#4ed019" points="421.395,21.185 240.454,84.958 515.398,291.741  "/>
<polygon fill="#f5f308" points="301.877,372.834 427.372,125.481 332.946,553.899  "/>
<polygon fill="#823a05" points="381.064,150.023 488.306,148.017 317.474,253.054  "/>
</svg>