<?xml version="1.0" encoding="utf-8"?>
<!-- Generator: Python script. InTeResTinG -->
<!DOCTYPE svg PUBLIC "-//W3C//DTD SVG 1.1//EN" "http://www.w3.org/Graphics/SVG/1.1/DTD/svg11.dtd">
<svg version="1.1" id="Layer_1" xmlns="http://www.w3.org/2000/svg" xmlns:xlink="http://www.w3.org/1999/xlink" x="0px" y="0px" width="600.000px" height="600.000px" viewBox="0 0 600.000 600.000" enable-background="new 0 0 600.000 600.000" xml:space="preserve">
<polygon fill="#c74cd9" points="536.414,374.541 529.219,439.692 281.229,303.580  "/>
<polygon fill="#001075" points="180.076,560.709 532.261,41.815 452.053,207.502  "/>
<polygon fill="#d3df7f" points="118.000,372.149 399.278,453.931 300.751,76.492  "/>
<polygon fill="#a3716e" points="262.426,20.328 93.575,368.401 44.653,12.654  "/>
<polygon fill="#54dbcd" points="289.503,316.862 53.541,523.212 519.701,284.536  "/>
<polygon fill="#63d7f1" points="6.257,279.391 15.267,589.589 520.788,178.977  "/>
<polygon fill="#72f97b" points="331.553,367.005 514.061,539.011 97.902,337.946  "/>
<polygon fill="#9d8e43" points="503.714,1.193 483.091,9.313 44.333,423.906  "/>
<polygon fill="#c11141" points="110.323,97.648 270.720,552.247 592.996,280.553  "/>
<polygon fill="#42e589" points="192.376,479.104 16.372,449.453 303.335,582.768  "/>
<polygon fill="#6cfa3b" points="419.007,359.155 103.995,131.763 116.995,532.609  "/>
<polygon fill="#881ac8" points="180.912,361.413 47.382,19.437 571.112,230.894  "/>
<polygon fill="#282a3e" points="598.033,557.151 338.799,551.297 303.785,376.074  "/>
<polygon fill="#1f545b" points="120.564,241.309 232.164,216.513 526.178,162.937  "/>
<polygon fill="#2c8c83" points="554.892,470.706 187.576,503.477 350.570,405.445  "/>
<polygon fill="#2b93b1" points="237.117,54.330 418.494,303.297 459.049,337.523  "/>
<polygon fill="#b4401c" points="411.713,176.923 327.230,587.940 321.802,113.645  "/>
<polygon fill="#69d2ff" points="268.386,114.900 217.861,490.137 383.282,201.383  "/>
<polygon fill="#ba5552" points="417.179,258.681 194.714,537.691 549.691,590.705  "/>
<polygon fill="#b8a334" points="486.654,516.272 186.448,231.097 515.029,113.815  "/>
<polygon fill="#31568c" points="378.203,559.191 440.120,22.112 282.487,214.372  "/>
<polygon fill="#5e8d22" points="136.958,13.848 108.773,140.987 422.718,45.673  "/>
<polygon fill="#da90ba" points="222.475,484.955 166.558,256.703 67.360,243.133  "/>
<polygon fill="#ce0200" points="380.962,10.036 243.473,263.806 149.374,598.704  "/>
<polygon fill="#d0119a" points="334.357,474.985 438.727,361.333 175.363,43.010  "/>
<polygon fill="#56de2b" points="434.481,421.615 247.853,4.909 440.584,375.323  "/>
<polygon fill="#24164c" points="366.558,511.820 501.005,557.631 553.306,151.040  "/>
<polygon fill="#f893b5" points="518.519,141.601 409.890,380.741 272.966,420.378  "/>
<polygon fill="#7e00de" points="256.063,542.319 220.956,183.071 380.296,593.520  "/>
<polygon fill="#712715" points="253.479,195.959 205.716,252.977 433.174,294.074  "/>
<polygon fill="#c72e99" points="351.122,334.109 327.589,105.867 7.246,470.932  "/>
<polygon fill="#494d67" points="5.993,393.630 580.851,229.813 39.530,384.203  "/>
<polygon fill="#ffafc4" points="273.726,205.975 272.615,382.947 7.217,246.171  "/>
<polygon fill="#5ce882" points="295.559,298.627 29.829,459.007 191.183,55.693  "/>
<polygon fill="#4d9714" points="440.089,107.716 31.908,571.491 268.751,428.958  "/>
<polygon fill="#d3e329" points="244.527,529.944 382.883,122.468 82.005,19.021  "/>
<polygon fill="#0a3d51" points="272.654,240.470 130.723,79.701 324.086,346.895  "/>
<polygon fill="#975ba4" points="544.441,123.242 548.297,42.183 114.243,508.228  "/>
<polygon fill="#ea9a29" points="118.596,227.403 51.341,85.737 399.172,541.494  "/>
<polygon fill="#bc7ef8" points="587.866,92.530 547.578,45.938 565.320,385.016  "/>
<polygon fill="#cbe52e" points="268.381,459.926 350.077,89.773 466.213,116.596  "/>
<polygon fill="#babb4b" points="584.830,447.820 125.063,373.771 326.532,309.379  "/>
<polygon fill="#549fd6" points="154.408,347.109 236.914,141.362 198.187,418.768  "/>
<polygon fill="#7b9ed9" points="39.212,404.791 270.118,398.409 149.692,352.120  "/>
<polygon fill="#aa1d53" points="216.485,555.047 10.140,10.299 514.241,478.624  "/>
<polygon fill="#4b1785" points="106.413,449.430 474.587,452.994 421.567,31.606  "/>
<polygon fill="#59d52a" points="190.200,139.004 122.766,458.669 337.778,451.286  "/>
<polygon fill="#09d568" points="319.866,456.684 349.488,67.458 263.305,259.486  "/>
<polygon fill="#61cea0" points="198.278,140.276 227.533,543.748 541.648,227.602  "/>
<polygon fill="#4d5b88" points="277.791,161.288 407.434,220.141 33.340,216.770  "/>
<polygon fill="#c6d9d8" points="355.451,20.322 520.313,575.727 224.502,466.657  "/>
<polygon fill="#caaa07" points="598.851,384.503 102.411,468.932 481.320,380.771  "/>
<polygon fill="#922745" points="225.492,230.895 538.140,217.765 221.126,168.143  "/>
<polygon fill="#7e9a45" points="234.888,545.064 222.419,380.395 354.708,361.886  "/>
<polygon fill="#7c067a" points="417.353,594.510 287.647,469.353 581.899,263.144  "/>
<polygon fill="#ead95d" points="12.795,342.813 530.033,561.962 131.303,293.921  "/>
<polygon fill="#453421" points="190.887,328.076 291.185,58.074 235.633,94.048  "/>
<polygon fill="#8e2b3d" points="569.985,307.650 33.651,381.317 314.810,62.853  "/>
<polygon fill="#2b7a7f" points="172.225,276.319 316.099,220.931 76.230,322.356  "/>
<polygon fill="#f6991d" points="248.268,124.127 59.436,216.543 345.541,446.224  "/>
<polygon fill="#3119ea" points="196.467,425.807 454.429,388.504 351.226,86.737  "/>
<polygon fill="#a9f31b" points="402.879,46.632 540.903,452.690 169.211,446.133  "/>
<polygon fill="#4931ee" points="354.187,550.036 380.680,376.764 7.529,499.585  "/>
<polygon fill="#bf5460" points="575.998,115.750 150.688,165.774 525.697,12.656  "/>
</svg>