<?xml version="1.0" encoding="utf-8"?>
<!-- Generator: Python script. InTeResTinG -->
<!DOCTYPE svg PUBLIC "-//W3C//DTD SVG 1.1//EN" "http://www.w3.org/Graphics/SVG/1.1/DTD/svg11.dtd">
<svg version="1.1" id="Layer_1" xmlns="http://www.w3.org/2000/svg" xmlns:xlink="http://www.w3.org/1999/xlink" x="0px" y="0px" width="600.000px" height="600.000px" viewBox="0 0 600.000 600.000" enable-background="new 0 0 600.000 600.000" xml:space="preserve">
<polygon fill="#b136e3" points="500.827,410.675 587.621,158.559 591.446,90.252  "/>
<polygon fill="#3d3db8" points="130.205,400.308 370.854,514.957 422.224,524.060  "/>
<polygon fill="#0e15ef" points="545.165,476.859 27.180,480.976 190.252,157.630  "/>
<polygon fill="#c26e93" points="484.819,336.140 523.143,266.827 479.820,165.169  "/>
<polygon fill="#7919a6" points="270.802,288.621 249.863,355.265 274.023,434.891  "/>
<polygon fill="#21f0d6" points="562.754,26.910 78.944,32.275 344.310,469.886  "/>
<polygon fill="#8752d9" points="222.639,312.599 232.325,16.377 372.581,422.644  "/>
<polygon fill="#90962e" points="345.688,169.471 321.857,101.677 40.966,210.084  "/>
<polygon fill="#89dc09" points="197.995,231.691 244.938,523.263 568.883,556.253  "/>
<polygon fill="#8804ce" points="570.630,588.848 493.983,523.155 125.184,474.111  "/>
<polygon fill="#732331" points="535.112,542.413 338.864,392.312 390.438,569.038  "/>
<polygon fill="#4a290b" points="7.662,99.736 337.095,209.088 322.823,540.696  "/>
<polygon fill="#d9b5b0" points="431.495,598.440 146.397,496.325 579.342,505.637  "/>
<polygon fill="#de8e23" points="232.670,461.563 194.455,492.152 236.515,331.322  "/>
<polygon fill="#b89170" points="567.594,171.091 485.610,254.697 93.959,195.376  "/>
<polygon fill="#5daba8" points="198.322,292.302 118.900,512.773 319.672,32.867  "/>
<polygon fill="#6afc49" points="188.042,45.595 265.567,342.007 195.376,65.621  "/>
<polygon fill="#e772f6" points="219.246,432.570 458.655,352.525 400.583,469.882  "/>
<polygon fill="#218188" points="560.442,261.983 477.324,124.172 438.660,286.846  "/>
<polygon fill="#403ade" points="486.393,141.132 72.665,326.454 181.506,72.991  "/>
<polygon fill="#a44650" points="559.459,581.412 120.985,409.738 252.422,138.883  "/>
<polygon fill="#4eff82" points="481.350,370.098 150.440,497.777 303.027,335.602  "/>
<polygon fill="#d2f37a" points="443.296,83.593 184.062,234.530 313.650,235.089  "/>
<polygon fill="#9bb923" points="162.079,553.336 312.180,81.617 509.100,276.991  "/>
<polygon fill="#8c52c9" points="359.945,587.481 595.626,512.296 530.998,92.159  "/>
<polygon fill="#a2229b" points="346.073,123.973 98.451,334.442 262.842,82.380  "/>
<polygon fill="#91b4ec" points="409.944,548.103 307.119,213.977 382.078,183.114  "/>
<polygon fill="#d8d307" points="212.823,408.165 168.960,151.414 527.210,46.772  "/>
<polygon fill="#a32473" points="225.824,321.109 76.522,552.777 179.541,555.340  "/>
<polygon fill="#2edf2e" points="173.372,160.813 486.109,427.991 394.737,386.090  "/>
<polygon fill="#8c2260" points="336.792,573.220 598.389,4.734 59.211,148.474  "/>
<polygon fill="#d4fdd0" points="44.344,417.676 78.211,120.430 266.669,37.777  "/>
<polygon fill="#b35ac9" points="110.722,194.898 556.497,183.545 93.127,61.024  "/>
<polygon fill="#eada6c" points="62.021,203.439 255.524,498.757 1.457,245.009  "/>
<polygon fill="#a606bb" points="339.859,460.656 374.180,298.430 343.450,67.884  "/>
<polygon fill="#946560" points="197.275,364.350 491.602,584.816 200.250,525.631  "/>
<polygon fill="#de5ec0" points="404.915,269.267 277.925,140.573 588.637,80.389  "/>
<polygon fill="#7ec4bb" points="369.830,392.478 323.571,372.042 288.163,497.710  "/>
<polygon fill="#ecbd2d" points="552.990,70.393 517.633,332.299 175.678,190.955  "/>
<polygon fill="#cf5bf1" points="130.308,409.393 591.540,599.194 91.372,439.343  "/>
<polygon fill="#311587" points="487.644,413.008 321.367,120.309 369.935,225.791  "/>
<polygon fill="#d98936" points="536.761,12.869 137.014,19.111 111.763,450.306  "/>
<polygon fill="#2ca822" points="306.706,174.596 128.330,504.701 447.125,487.671  "/>
<polygon fill="#b91012" points="291.503,125.242 59.934,89.791 474.316,354.713  "/>
<polygon fill="#77f041" points="373.774,559.748 76.655,520.488 578.179,183.074  "/>
<polygon fill="#5dd0cd" points="162.435,111.645 111.614,138.401 308.710,498.393  "/>
<polygon fill="#d0b013" points="81.977,538.797 215.602,472.268 167.509,496.546  "/>
<polygon fill="#0550fc" points="583.576,112.577 482.548,125.320 263.774,345.479  "/>
<polygon fill="#9956f7" points="34.512,509.504 57.684,83.565 178.538,555.252  "/>
<polygon fill="#c58869" points="546.271,345.866 47.113,241.751 398.993,14.079  "/>
<polygon fill="#6c14b4" points="169.167,595.091 51.981,111.926 32.261,55.999  "/>
<polygon fill="#a40a28" points="566.197,101.431 540.852,38.311 113.331,467.140  "/>
<polygon fill="#8baadd" points="418.362,113.031 206.268,1.540 150.543,50.889  "/>
<polygon fill="#321347" points="201.066,496.412 446.587,542.157 576.271,75.586  "/>
<polygon fill="#bfcd26" points="449.509,551.241 265.469,81.931 328.831,482.650  "/>
<polygon fill="#bc293f" points="359.030,214.931 475.610,147.989 357.639,401.446  "/>
<polygon fill="#8fdf07" points="231.229,355.084 346.472,382.635 119.552,256.404  "/>
<polygon fill="#3dfe62" points="599.285,484.887 515.659,155.184 530.906,420.372  "/>
</svg>