<?xml version="1.0" encoding="utf-8"?>
<!-- Generator: Python script. InTeResTinG -->
<!DOCTYPE svg PUBLIC "-//W3C//DTD SVG 1.1//EN" "http://www.w3.org/Graphics/SVG/1.1/DTD/svg11.dtd">
<svg version="1.1" id="Layer_1" xmlns="http://www.w3.org/2000/svg" xmlns:xlink="http://www.w3.org/1999/xlink" x="0px" y="0px" width="600.000px" height="600.000px" viewBox="0 0 600.000 600.000" enable-background="new 0 0 600.000 600.000" xml:space="preserve">
<polygon fill="#66ed29" points="539.641,448.976 332.805,28.432 365.279,295.382  "/>
<polygon fill="#43d329" points="335.730,332.601 392.677,483.996 144.567,512.092  "/>
<polygon fill="#ea3a4a" points="81.764,62.643 196.019,106.426 384.484,559.570  "/>
<polygon fill="#1035a4" points="259.707,415.989 594.619,308.682 86.042,388.109  "/>
<polygon fill="#8f323d" points="310.419,572.530 64.654,304.579 296.981,126.737  "/>
<polygon fill="#e1486b" points="9.223,158.533 282.833,109.289 206.549,245.272  "/>
<polygon fill="#146936" points="303.827,448.560 301.963,248.508 271.152,444.034  "/>
<polygon fill="#d21a3c" points="111.801,194.222 311.859,293.388 514.781,62.709  "/>
<polygon fill="#be34bc" points="552.899,568.479 68.822,400.155 204.591,69.584  "/>
<polygon fill="#e07f8d" points="13.538,147.043 213.738,392.099 588.125,366.011  "/>
<polygon fill="#fb1315" points="208.709,534.176 125.658,504.464 510.934,260.969  "/>
<polygon fill="#e9cfd9" points="205.440,156.860 376.733,564.417 460.348,329.745  "/>
<polygon fill="#3e3dd8" points="451.172,458.237 75.787,174.677 76.178,83.633  "/>
<polygon fill="#c11624" points="165.743,553.281 365.800,143.647 375.939,588.796  "/>
<polygon fill="#d85c25" points="550.611,5.422 225.202,223.847 345.530,576.437  "/>
<polygon fill="#636d02" points="421.117,525.251 3.184,429.842 80.269,574.113  "/>
<polygon fill="#9b50bf" points="8.940,34.618 366.040,88.606 327.460,54.134  "/>
<polygon fill="#ec6594" points="506.083,98.524 346.812,474.608 388.046,159.027  "/>
<polygon fill="#ebf099" points="241.424,70.382 27.837,307.275 557.606,26.159  "/>
<polygon fill="#85e6be" points="544.358,253.528 170.823,130.480 435.672,392.519  "/>
<polygon fill="#7d9108" points="359.819,383.845 115.137,311.546 67.339,459.369  "/>
<polygon fill="#9213e9" points="223.344,378.816 484.895,87.876 406.507,500.116  "/>
<polygon fill="#67c2a8" points="489.779,386.623 311.457,202.809 271.562,306.240  "/>
<polygon fill="#f13f7b" points="371.497,487.743 449.364,401.307 67.058,187.377  "/>
<polygon fill="#47f552" points="106.268,274.729 499.898,312.802 48.227,356.356  "/>
<polygon fill="#0d9be3" points="579.231,254.426 37.769,210.927 266.910,406.222  "/>
<polygon fill="#bfc41f" points="35.196,74.649 196.680,397.396 479.703,228.539  "/>
<polygon fill="#bd0aa2" points="96.537,309.805 226.149,40.087 206.508,60.329  "/>
<polygon fill="#b7b2e8" points="249.075,536.224 397.176,175.853 377.240,516.314  "/>
<polygon fill="#0cb977" points="95.617,134.929 18.758,465.301 171.578,328.338  "/>
<polygon fill="#f3df0b" points="537.314,79.404 415.503,7.805 479.771,65.874  "/>
<polygon fill="#9f7128" points="36.008,549.906 354.507,421.227 549.386,245.184  "/>
<polygon fill="#2e8b9a" points="139.207,365.731 67.483,474.506 194.966,413.388  "/>
<polygon fill="#3bb94f" points="124.356,524.836 60.572,158.822 565.478,65.784  "/>
<polygon fill="#2190bd" points="90.478,339.682 267.326,208.206 291.926,111.701  "/>
<polygon fill="#a0a5fd" points="386.797,15.555 269.093,441.451 548.918,443.852  "/>
<polygon fill="#27e7d6" points="308.023,2.264 86.581,77.269 319.497,232.101  "/>
<polygon fill="#7a20a8" points="485.156,295.857 587.848,113.526 541.270,508.480  "/>
<polygon fill="#4e8e4e" points="433.230,222.681 512.424,388.288 489.265,396.193  "/>
<polygon fill="#5bb10f" points="394.112,473.526 159.749,234.508 272.026,498.455  "/>
<polygon fill="#f59f06" points="136.348,346.867 458.305,253.507 19.632,98.210  "/>
<polygon fill="#c2eea6" points="531.141,428.745 534.605,276.054 488.558,57.486  "/>
<polygon fill="#b4d4ff" points="305.677,128.022 467.138,173.870 182.034,301.762  "/>
<polygon fill="#65f8b4" points="593.315,130.754 106.937,68.494 2.097,140.711  "/>
<polygon fill="#fc0208" points="468.163,577.405 96.336,384.344 200.415,34.760  "/>
<polygon fill="#7ba8e9" points="15.201,507.333 257.710,105.081 246.554,60.995  "/>
<polygon fill="#316ccd" points="486.588,255.961 124.670,48.216 262.645,310.860  "/>
<polygon fill="#da4390" points="536.666,189.953 134.031,401.077 481.848,137.984  "/>
<polygon fill="#7510af" points="82.104,314.358 186.912,444.405 335.937,241.175  "/>
<polygon fill="#dfac34" points="224.382,548.901 452.858,334.526 343.508,405.804  "/>
<polygon fill="#75cf5e" points="598.298,376.319 81.039,76.964 75.000,146.797  "/>
<polygon fill="#1ef507" points="550.760,145.846 542.014,510.334 19.862,303.652  "/>
</svg>