<?xml version="1.0" encoding="utf-8"?>
<!-- Generator: Python script. InTeResTinG -->
<!DOCTYPE svg PUBLIC "-//W3C//DTD SVG 1.1//EN" "http://www.w3.org/Graphics/SVG/1.1/DTD/svg11.dtd">
<svg version="1.1" id="Layer_1" xmlns="http://www.w3.org/2000/svg" xmlns:xlink="http://www.w3.org/1999/xlink" x="0px" y="0px" width="600.000px" height="600.000px" viewBox="0 0 600.000 600.000" enable-background="new 0 0 600.000 600.000" xml:space="preserve">
<polygon fill="#16c6b5" points="240.792,303.762 390.212,521.034 438.412,370.543  "/>
<polygon fill="#e8533c" points="281.732,349.355 341.510,160.079 101.989,299.290  "/>
<polygon fill="#860537" points="79.476,222.091 595.652,195.765 19.726,6.320  "/>
<polygon fill="#4adf60" points="191.592,124.229 56.842,388.975 205.102,202.936  "/>
<polygon fill="#74d986" points="180.092,260.463 175.816,561.838 306.745,154.761  "/>
<polygon fill="#e0ecc0" points="553.064,477.137 207.779,578.754 362.941,167.485  "/>
<polygon fill="#89b7a7" points="427.164,298.999 262.196,16.336 166.338,206.432  "/>
<polygon fill="#1215eb" points="269.946,455.579 13.651,415.527 144.780,289.002  "/>
<polygon fill="#85ab3c" points="416.883,484.268 14.691,259.904 361.794,449.079  "/>
<polygon fill="#b19366" points="225.466,374.853 397.089,78.852 306.596,89.290  "/>
<polygon fill="#1ae6cc" points="237.087,507.476 347.863,274.550 120.867,21.895  "/>
<polygon fill="#6bed48" points="503.034,533.125 483.117,157.443 377.151,410.795  "/>
<polygon fill="#6612c7" points="71.724,396.389 49.102,435.691 176.401,58.573  "/>
<polygon fill="#11d4a1" points="37.342,302.598 34.176,297.129 542.312,148.666  "/>
<polygon fill="#7f94e0" points="402.477,567.016 442.058,569.290 282.315,216.738  "/>
<polygon fill="#65af35" points="139.736,250.615 484.936,142.653 89.930,60.072  "/>
<polygon fill="#c1afbb" points="479.215,194.724 469.029,3.956 524.758,167.856  "/>
<polygon fill="#c092d7" points="468.273,13.112 101.916,491.584 170.872,559.913  "/>
<polygon fill="#ab546b" points="334.197,132.864 390.538,169.442 124.125,456.522  "/>
<polygon fill="#91bb9b" points="515.216,6.958 8.229,325.755 313.473,327.756  "/>
<polygon fill="#90c67b" points="87.689,371.298 177.521,252.591 281.438,369.608  "/>
<polygon fill="#b383a9" points="58.008,111.512 400.982,287.491 474.962,268.645  "/>
<polygon fill="#35a3b5" points="390.159,568.266 264.434,442.041 285.359,544.115  "/>
<polygon fill="#30784e" points="480.543,81.610 279.919,458.722 475.712,378.132  "/>
<polygon fill="#b76926" points="23.653,417.957 242.828,436.034 490.950,522.722  "/>
<polygon fill="#94c57c" points="352.152,589.701 169.784,211.431 521.531,476.553  "/>
<polygon fill="#53975a" points="261.299,33.785 480.752,355.544 258.280,593.582  "/>
<polygon fill="#8dbd5a" points="102.848,388.420 301.838,564.975 480.414,565.522  "/>
<polygon fill="#425ae0" points="220.458,77.031 376.399,560.536 80.617,186.992  "/>
<polygon fill="#efd3c0" points="481.025,189.049 205.025,589.372 199.448,442.929  "/>
<polygon fill="#1fcf71" points="452.730,263.581 260.390,156.051 492.919,307.138  "/>
<polygon fill="#7c904e" points="197.909,77.505 554.621,206.232 365.713,86.173  "/>
<polygon fill="#f14647" points="144.893,329.478 257.571,25.023 330.029,233.113  "/>
<polygon fill="#9449ee" points="205.803,512.605 287.272,2.260 246.535,553.324  "/>
<polygon fill="#35b9a1" points="67.232,105.231 106.762,410.277 411.440,364.641  "/>
<polygon fill="#75969d" points="292.912,177.384 568.864,447.132 25.994,139.234  "/>
<polygon fill="#ba7a4a" points="162.275,478.124 71.039,460.443 316.636,326.954  "/>
<polygon fill="#800c97" points="294.016,558.381 38.767,193.331 96.578,306.099  "/>
<polygon fill="#c45e7d" points="565.922,494.473 407.327,28.453 402.361,265.687  "/>
<polygon fill="#f59903" points="379.615,43.168 456.835,474.994 574.993,346.047  "/>
<polygon fill="#90441f" points="71.340,170.316 462.246,484.834 565.610,389.159  "/>
<polygon fill="#79890d" points="119.159,244.538 37.175,411.132 66.783,378.224  "/>
<polygon fill="#7e3c41" points="478.389,205.291 5.577,467.013 196.606,127.580  "/>
<polygon fill="#973b6b" points="549.358,113.844 61.603,109.022 12.523,341.953  "/>
<polygon fill="#7ec83d" points="536.645,260.753 50.928,310.102 111.786,247.859  "/>
<polygon fill="#4b79c7" points="17.998,144.583 217.147,196.395 487.406,3.906  "/>
<polygon fill="#549c50" points="66.515,506.434 325.330,317.363 231.624,369.217  "/>
<polygon fill="#3cd200" points="260.525,514.044 363.436,157.547 91.163,207.769  "/>
<polygon fill="#ef7c7e" points="391.377,296.047 298.606,288.156 411.892,307.274  "/>
<polygon fill="#113e49" points="19.133,436.132 560.710,555.629 504.552,326.327  "/>
<polygon fill="#230def" points="599.760,449.219 167.668,11.910 361.009,458.773  "/>
</svg>