<?xml version="1.0" encoding="utf-8"?>
<!-- Generator: Python script. InTeResTinG -->
<!DOCTYPE svg PUBLIC "-//W3C//DTD SVG 1.1//EN" "http://www.w3.org/Graphics/SVG/1.1/DTD/svg11.dtd">
<svg version="1.1" id="Layer_1" xmlns="http://www.w3.org/2000/svg" xmlns:xlink="http://www.w3.org/1999/xlink" x="0px" y="0px" width="600.000px" height="600.000px" viewBox="0 0 600.000 600.000" enable-background="new 0 0 600.000 600.000" xml:space="preserve">
<polygon fill="#bd95d8" points="483.810,387.584 440.048,486.752 428.099,84.855  "/>
<polygon fill="#2fdbc9" points="62.521,78.624 294.062,517.929 257.123,257.130  "/>
<polygon fill="#736a7a" points="10.001,578.055 26.819,123.725 444.787,409.345  "/>
<polygon fill="#6667b9" points="581.904,3.845 185.078,56.984 596.671,559.842  "/>
<polygon fill="#18a37f" points="178.387,102.866 185.085,279.183 108.136,119.347  "/>
<polygon fill="#00aecf" points="45.621,487.156 114.146,413.554 184.076,148.909  "/>
<polygon fill="#ec02a2" points="185.037,281.687 491.045,290.644 526.121,446.348  "/>
<polygon fill="#fa1659" points="473.294,271.985 80.194,476.251 318.393,446.386  "/>
<polygon fill="#309e45" points="90.931,172.125 584.725,4.676 411.935,288.796  "/>
<polygon fill="#d6d470" points="380.803,323.322 275.950,111.898 445.971,122.299  "/>
<polygon fill="#7ba651" points="103.752,59.716 278.969,22.962 191.329,522.807  "/>
<polygon fill="#56e332" points="365.904,51.406 596.307,182.474 71.782,156.742  "/>
<polygon fill="#804d1f" points="5.648,501.317 256.814,122.028 74.199,505.891  "/>
<polygon fill="#8664b9" points="136.819,56.898 157.815,238.453 174.476,339.787  "/>
<polygon fill="#6a4af6" points="235.910,206.321 510.289,448.613 445.060,339.794  "/>
<polygon fill="#efff92" points="44.480,92.581 379.177,393.104 162.582,502.557  "/>
<polygon fill="#67faff" points="486.377,204.969 592.991,125.661 368.005,317.360  "/>
<polygon fill="#2eb282" points="567.918,440.398 181.943,563.077 473.086,370.913  "/>
<polygon fill="#4b462e" points="158.265,312.265 128.651,250.169 184.117,330.711  "/>
<polygon fill="#63a663" points="552.212,507.476 546.837,490.960 517.599,470.323  "/>
<polygon fill="#9acc7c" points="218.822,416.644 448.974,440.234 551.481,553.861  "/>
<polygon fill="#98aaff" points="153.020,381.589 23.683,522.562 159.304,384.239  "/>
<polygon fill="#3142fd" points="211.924,437.053 343.043,432.501 409.585,513.755  "/>
<polygon fill="#922443" points="321.415,153.339 181.423,255.333 182.970,127.833  "/>
<polygon fill="#6ea499" points="267.025,32.534 309.365,277.303 339.083,41.343  "/>
<polygon fill="#71a9ca" points="3.697,58.817 78.332,145.728 77.591,37.585  "/>
<polygon fill="#272832" points="439.183,499.556 279.971,311.844 493.261,135.098  "/>
<polygon fill="#9a3062" points="96.838,93.827 548.092,164.805 261.899,58.115  "/>
<polygon fill="#2dba91" points="150.104,295.822 10.696,549.962 521.569,68.539  "/>
<polygon fill="#a9947c" points="110.555,294.705 557.434,81.169 551.685,120.145  "/>
<polygon fill="#2f8670" points="181.666,218.411 462.694,461.867 453.122,45.919  "/>
<polygon fill="#c4c506" points="61.759,309.761 431.387,474.914 469.862,576.013  "/>
<polygon fill="#3c71ba" points="329.175,548.542 425.893,389.667 99.426,435.773  "/>
<polygon fill="#54644a" points="481.234,195.386 195.482,75.321 195.981,298.073  "/>
<polygon fill="#f45dc7" points="108.133,173.290 266.943,127.411 136.247,574.534  "/>
<polygon fill="#a0b671" points="323.058,563.903 579.859,554.539 510.155,468.417  "/>
<polygon fill="#677400" points="567.926,569.682 481.674,158.631 316.419,468.358  "/>
<polygon fill="#28f4fc" points="382.754,86.252 64.198,258.348 532.602,456.083  "/>
<polygon fill="#42f4a2" points="500.478,219.599 216.690,450.518 557.961,328.025  "/>
<polygon fill="#5edaab" points="519.431,314.907 454.029,117.792 191.222,439.462  "/>
<polygon fill="#892ff0" points="436.838,325.077 168.211,332.072 339.098,155.523  "/>
<polygon fill="#501b9e" points="561.718,247.927 535.432,493.518 102.980,122.093  "/>
<polygon fill="#528d57" points="495.260,15.035 237.030,126.502 258.990,386.717  "/>
<polygon fill="#63546c" points="500.051,253.362 472.310,404.365 380.211,517.664  "/>
<polygon fill="#3f127b" points="56.823,309.326 10.348,54.559 265.882,324.938  "/>
<polygon fill="#bba8c9" points="392.686,186.339 96.384,214.687 282.609,269.166  "/>
<polygon fill="#77628f" points="350.849,93.257 480.287,150.259 256.977,163.847  "/>
<polygon fill="#66341b" points="130.870,543.041 544.282,192.626 409.860,268.376  "/>
<polygon fill="#29eec8" points="182.757,68.891 174.216,515.362 29.117,174.731  "/>
<polygon fill="#509148" points="438.929,143.378 358.020,267.166 578.301,502.946  "/>
<polygon fill="#f7a59c" points="502.384,169.993 248.240,72.380 89.787,557.387  "/>
<polygon fill="#63e8b1" points="170.637,499.075 177.132,120.292 512.270,597.838  "/>
<polygon fill="#8f9cf2" points="504.698,187.865 227.634,36.297 520.707,311.835  "/>
<polygon fill="#385ba7" points="183.260,35.079 553.531,529.568 571.389,61.730  "/>
<polygon fill="#180b0d" points="525.880,99.205 130.974,425.301 491.648,39.307  "/>
<polygon fill="#5469b1" points="285.521,495.380 169.144,86.440 464.531,407.989  "/>
<polygon fill="#35724b" points="538.833,276.116 275.329,477.671 495.488,228.478  "/>
<polygon fill="#22e077" points="200.364,398.369 52.019,241.208 589.930,565.016  "/>
<polygon fill="#ea2f73" points="4.893,80.912 300.973,349.950 589.203,442.723  "/>
<polygon fill="#99e7ce" points="214.891,206.941 185.438,18.539 536.100,519.360  "/>
<polygon fill="#d1c5f9" points="488.149,270.604 509.522,249.407 365.496,253.901  "/>
<polygon fill="#ec2637" points="293.177,489.263 148.150,504.179 331.886,182.624  "/>
<polygon fill="#4487b6" points="403.158,587.102 284.753,405.566 278.038,204.207  "/>
</svg>