<?xml version="1.0" encoding="utf-8"?>
<!-- Generator: Python script. InTeResTinG -->
<!DOCTYPE svg PUBLIC "-//W3C//DTD SVG 1.1//EN" "http://www.w3.org/Graphics/SVG/1.1/DTD/svg11.dtd">
<svg version="1.1" id="Layer_1" xmlns="http://www.w3.org/2000/svg" xmlns:xlink="http://www.w3.org/1999/xlink" x="0px" y="0px" width="600.000px" height="600.000px" viewBox="0 0 600.000 600.000" enable-background="new 0 0 600.000 600.000" xml:space="preserve">
<polygon fill="#fb755f" points="138.568,155.590 424.504,290.138 121.556,284.334  "/>
<polygon fill="#43f778" points="438.060,224.135 170.733,51.131 305.740,456.505  "/>
<polygon fill="#e9e7d4" points="255.783,245.108 347.470,200.227 294.336,496.064  "/>
<polygon fill="#b753bd" points="468.519,328.043 102.129,457.118 406.804,587.882  "/>
<polygon fill="#ed06f9" points="238.302,272.827 32.263,162.106 450.421,136.097  "/>
<polygon fill="#b67dfd" points="126.244,330.026 347.726,355.370 512.201,452.433  "/>
<polygon fill="#8a6ab2" points="413.801,550.470 205.117,177.095 134.024,139.425  "/>
<polygon fill="#617b3e" points="309.225,552.532 534.228,331.055 300.716,69.961  "/>
<polygon fill="#bb0494" points="21.105,584.691 151.918,241.150 579.552,96.737  "/>
<polygon fill="#222b81" points="177.440,446.687 10.907,396.217 331.736,336.472  "/>
<polygon fill="#1f4e86" points="241.881,106.178 340.905,256.657 102.255,375.415  "/>
<polygon fill="#ee97ae" points="40.477,245.645 296.824,449.526 56.020,335.226  "/>
<polygon fill="#40738b" points="229.382,247.439 373.364,366.313 106.777,427.572  "/>
<polygon fill="#b31cfd" points="0.720,470.969 134.350,123.937 512.124,431.973  "/>
<polygon fill="#b52676" points="148.237,228.442 240.306,349.576 17.104,576.403  "/>
<polygon fill="#d7185b" points="122.376,48.721 215.452,469.501 282.732,197.383  "/>
<polygon fill="#d5a916" points="293.801,88.188 529.731,309.028 174.048,392.629  "/>
<polygon fill="#ccab3f" points="22.475,504.635 589.315,114.959 148.963,549.814  "/>
<polygon fill="#b48ad2" points="381.755,464.448 566.439,404.413 581.599,164.430  "/>
<polygon fill="#2f1e17" points="34.201,400.251 454.402,475.296 375.456,427.628  "/>
<polygon fill="#eb4d2a" points="146.857,472.508 22.184,496.562 84.575,527.322  "/>
<polygon fill="#066644" points="144.407,99.194 91.553,13.095 270.407,562.094  "/>
<polygon fill="#f2a514" points="197.724,479.252 533.784,576.742 556.438,419.368  "/>
<polygon fill="#c69084" points="399.046,87.200 490.724,62.903 162.552,349.618  "/>
<polygon fill="#6690d2" points="97.637,197.682 491.440,565.012 426.841,75.977  "/>
<polygon fill="#8e1738" points="396.022,322.861 52.065,185.390 329.929,596.530  "/>
<polygon fill="#560989" points="8.449,166.658 99.554,146.049 216.859,231.296  "/>
<polygon fill="#5c1027" points="569.368,546.367 135.087,298.839 253.785,495.878  "/>
<polygon fill="#b310ff" points="287.703,483.232 181.695,539.732 338.855,316.774  "/>
<polygon fill="#f03610" points="157.978,8.888 493.513,527.128 403.233,542.198  "/>
<polygon fill="#abe8c7" points="130.144,338.437 497.838,507.785 455.913,464.692  "/>
<polygon fill="#d6fce4" points="292.347,167.895 0.057,447.319 34.786,468.216  "/>
<polygon fill="#37f658" points="432.262,507.527 432.230,16.048 172.897,467.770  "/>
<polygon fill="#6f3bcc" points="417.534,329.293 76.751,56.847 508.999,424.000  "/>
<polygon fill="#586f1b" points="449.344,177.445 540.322,215.313 225.048,558.090  "/>
<polygon fill="#d2fa4d" points="204.585,178.028 385.944,476.510 414.804,334.912  "/>
<polygon fill="#ad9f8e" points="221.015,594.495 363.269,389.259 131.472,309.445  "/>
<polygon fill="#7a0a01" points="147.936,152.365 28.591,386.894 48.163,14.787  "/>
<polygon fill="#82b871" points="280.693,36.979 161.573,177.269 155.824,470.018  "/>
<polygon fill="#212ed6" points="256.165,33.840 309.899,467.881 536.695,135.184  "/>
<polygon fill="#1f4f35" points="542.431,218.400 553.990,91.890 479.291,285.515  "/>
<polygon fill="#653d17" points="64.151,275.374 250.658,590.968 489.618,257.302  "/>
<polygon fill="#1d3264" points="464.483,70.869 289.620,139.229 547.962,437.723  "/>
<polygon fill="#4e40ca" points="108.110,230.012 258.261,177.043 436.811,520.597  "/>
<polygon fill="#b91842" points="324.139,15.065 564.421,453.796 88.417,417.209  "/>
<polygon fill="#ad5d36" points="217.916,445.288 182.795,329.223 27.040,470.651  "/>
<polygon fill="#4db6e9" points="456.033,131.614 177.263,269.822 144.212,556.547  "/>
<polygon fill="#f4cc1a" points="519.972,192.587 258.656,360.048 323.609,507.985  "/>
<polygon fill="#12a35d" points="215.827,238.595 85.501,377.884 265.011,537.501  "/>
<polygon fill="#3fe577" points="270.132,263.465 487.565,552.174 140.781,532.776  "/>
<polygon fill="#c9153e" points="208.541,84.411 593.308,374.998 14.433,9.551  "/>
<polygon fill="#3ebc26" points="88.425,170.598 363.296,552.863 589.684,129.915  "/>
<polygon fill="#2468f5" points="169.167,328.611 461.925,442.188 356.632,227.704  "/>
<polygon fill="#b4bafd" points="233.751,597.680 561.688,135.398 186.986,390.424  "/>
<polygon fill="#0e3d92" points="107.174,537.394 23.605,408.697 236.459,240.243  "/>
<polygon fill="#bfab44" points="299.142,218.794 16.764,583.792 239.425,8.400  "/>
<polygon fill="#71316b" points="122.203,290.044 340.242,281.131 15.047,337.586  "/>
<polygon fill="#5dbac6" points="16.766,595.928 435.187,89.708 213.695,161.993  "/>
<polygon fill="#853b6c" points="312.008,314.717 506.873,402.465 417.791,185.043  "/>
<polygon fill="#2fba50" points="409.052,589.659 27.487,215.913 422.420,438.681  "/>
<polygon fill="#90b511" points="523.839,547.358 331.779,528.698 164.449,300.584  "/>
<polygon fill="#3bb52f" points="27.399,4.907 570.693,9.296 27.337,357.306  "/>
<polygon fill="#e93e3f" points="422.802,352.032 198.699,575.066 265.234,38.625  "/>
<polygon fill="#60dc36" points="474.866,100.021 459.349,230.087 359.316,279.103  "/>
<polygon fill="#c14386" points="340.529,412.864 445.252,241.765 175.845,514.542  "/>
<polygon fill="#df4500" points="140.369,252.125 154.644,237.419 464.908,43.697  "/>
<polygon fill="#0aefa7" points="142.100,529.448 382.630,162.452 222.378,80.591  "/>
<polygon fill="#b53328" points="308.754,62.360 231.100,136.315 45.246,267.284  "/>
<polygon fill="#5a6d88" points="354.902,554.827 54.690,379.072 368.424,522.563  "/>
<polygon fill="#eaf03a" points="432.254,574.362 100.798,576.120 375.490,311.644  "/>
</svg>