<?xml version="1.0" encoding="utf-8"?>
<!-- Generator: Python script. InTeResTinG -->
<!DOCTYPE svg PUBLIC "-//W3C//DTD SVG 1.1//EN" "http://www.w3.org/Graphics/SVG/1.1/DTD/svg11.dtd">
<svg version="1.1" id="Layer_1" xmlns="http://www.w3.org/2000/svg" xmlns:xlink="http://www.w3.org/1999/xlink" x="0px" y="0px" width="600.000px" height="600.000px" viewBox="0 0 600.000 600.000" enable-background="new 0 0 600.000 600.000" xml:space="preserve">
<polygon fill="#483e24" points="549.487,172.962 550.272,583.240 32.258,481.303  "/>
<polygon fill="#184d5e" points="303.795,143.081 40.187,469.379 384.948,428.093  "/>
<polygon fill="#c77711" points="232.043,183.267 193.465,3.105 133.325,492.654  "/>
<polygon fill="#94bf73" points="240.488,23.039 57.662,315.647 63.100,465.252  "/>
<polygon fill="#58f059" points="437.643,544.067 432.334,547.813 506.649,254.522  "/>
<polygon fill="#fc6499" points="311.520,489.865 2.249,289.327 81.489,229.592  "/>
<polygon fill="#bb7d71" points="538.630,453.388 379.478,386.470 109.069,594.848  "/>
<polygon fill="#33ff1c" points="551.464,322.221 519.931,373.836 90.508,450.861  "/>
<polygon fill="#13701b" points="276.658,548.415 159.478,280.382 315.320,196.163  "/>
<polygon fill="#fb8f65" points="350.498,305.905 34.637,520.804 119.624,49.585  "/>
<polygon fill="#d377c1" points="203.821,481.665 587.756,159.384 274.130,82.739  "/>
<polygon fill="#9df8e6" points="547.483,364.871 196.348,157.059 92.481,441.882  "/>
<polygon fill="#4fd33e" points="453.187,180.750 306.999,558.041 95.783,172.616  "/>
<polygon fill="#a25e48" points="571.824,441.532 356.493,352.463 1.119,303.123  "/>
<polygon fill="#e3c9ac" points="529.322,315.042 118.380,228.261 424.688,518.557  "/>
<polygon fill="#59d65e" points="592.610,446.042 258.012,349.497 586.326,141.514  "/>
<polygon fill="#33fd3a" points="273.666,245.835 350.705,110.807 581.434,379.451  "/>
<polygon fill="#6d17da" points="511.888,555.300 5.109,234.611 538.242,36.104  "/>
<polygon fill="#cbe27d" points="172.090,77.210 216.964,113.241 136.383,392.443  "/>
<polygon fill="#3a60d8" points="110.948,355.047 137.716,261.871 178.988,508.420  "/>
<polygon fill="#93adee" points="380.841,163.107 323.829,539.118 5.591,47.388  "/>
<polygon fill="#6f864b" points="298.138,136.648 244.025,29.906 137.345,408.057  "/>
<polygon fill="#c88c1e" points="409.829,32.367 358.852,309.892 415.242,217.889  "/>
<polygon fill="#a43dd8" points="554.854,501.107 178.023,154.962 290.870,153.547  "/>
<polygon fill="#3dfac2" points="572.174,417.278 211.765,2.653 510.383,571.833  "/>
<polygon fill="#db9330" points="61.674,265.046 208.989,351.290 41.621,413.202  "/>
<polygon fill="#68253b" points="431.645,285.788 258.399,113.779 300.129,524.866  "/>
<polygon fill="#0f05ca" points="321.401,402.202 302.098,239.107 447.698,76.430  "/>
<polygon fill="#644a43" points="319.941,538.086 152.845,145.361 238.306,424.370  "/>
<polygon fill="#9e7b0f" points="514.606,28.958 418.014,167.439 393.208,244.711  "/>
<polygon fill="#5fc39c" points="512.069,1.630 574.563,144.185 586.994,380.033  "/>
<polygon fill="#a8f46f" points="480.660,409.378 343.917,520.051 62.260,111.875  "/>
<polygon fill="#43a076" points="109.507,66.068 123.835,518.635 509.616,561.658  "/>
<polygon fill="#41b7b5" points="415.038,536.098 541.856,328.615 172.494,299.472  "/>
<polygon fill="#ac2b38" points="439.602,414.169 14.296,308.384 538.183,115.455  "/>
<polygon fill="#70cd1b" points="488.961,526.173 269.646,472.612 225.510,12.400  "/>
<polygon fill="#6c59e3" points="487.596,574.485 23.175,47.472 217.694,126.809  "/>
<polygon fill="#09fe1f" points="593.996,16.112 511.988,195.082 160.354,595.183  "/>
<polygon fill="#55bae4" points="84.614,194.179 339.525,205.024 512.956,95.757  "/>
<polygon fill="#a756d6" points="494.567,192.499 290.654,18.755 557.388,444.242  "/>
<polygon fill="#86795a" points="78.003,277.052 3.478,468.373 347.608,105.287  "/>
<polygon fill="#172f4f" points="270.887,21.910 489.754,288.504 229.195,95.477  "/>
<polygon fill="#6627a3" points="167.273,240.648 209.524,301.788 328.336,496.724  "/>
<polygon fill="#adb932" points="506.159,304.110 430.249,411.832 553.644,0.342  "/>
<polygon fill="#906291" points="155.905,453.805 526.847,408.850 178.544,496.382  "/>
<polygon fill="#025a50" points="52.409,262.701 97.484,304.956 380.403,286.283  "/>
<polygon fill="#9f8a09" points="107.955,596.123 29.279,453.706 490.762,135.374  "/>
<polygon fill="#5e5a3d" points="422.178,239.181 317.843,588.507 263.438,331.259  "/>
<polygon fill="#f5c7e5" points="331.062,536.186 448.311,389.677 240.852,304.582  "/>
<polygon fill="#dc9ab5" points="162.688,26.838 400.355,41.254 98.487,593.258  "/>
<polygon fill="#5bce19" points="60.633,50.094 157.582,391.981 277.955,424.578  "/>
<polygon fill="#8bc8c4" points="201.738,466.466 594.285,210.059 113.131,138.634  "/>
<polygon fill="#ba7191" points="546.589,261.589 33.805,495.411 495.228,354.958  "/>
<polygon fill="#eb3b9c" points="220.172,464.609 306.812,540.029 21.013,243.991  "/>
<polygon fill="#6e7581" points="391.948,163.549 567.185,161.724 505.585,119.502  "/>
<polygon fill="#bb67a3" points="471.630,548.943 482.534,308.894 167.644,581.066  "/>
<polygon fill="#103e41" points="131.049,5.618 124.790,147.211 139.913,90.482  "/>
<polygon fill="#562cb2" points="45.496,350.303 5.374,71.571 72.229,451.443  "/>
<polygon fill="#b2a4c0" points="140.921,79.601 291.237,514.662 191.291,161.179  "/>
<polygon fill="#899f9e" points="539.015,235.812 49.627,410.269 304.383,185.740  "/>
<polygon fill="#dc4db2" points="360.522,573.003 381.982,576.896 415.605,247.894  "/>
</svg>