<?xml version="1.0" encoding="utf-8"?>
<!-- Generator: Python script. InTeResTinG -->
<!DOCTYPE svg PUBLIC "-//W3C//DTD SVG 1.1//EN" "http://www.w3.org/Graphics/SVG/1.1/DTD/svg11.dtd">
<svg version="1.1" id="Layer_1" xmlns="http://www.w3.org/2000/svg" xmlns:xlink="http://www.w3.org/1999/xlink" x="0px" y="0px" width="600.000px" height="600.000px" viewBox="0 0 600.000 600.000" enable-background="new 0 0 600.000 600.000" xml:space="preserve">
<polygon fill="#5bf1c2" points="306.173,439.876 570.194,25.802 361.043,2.996  "/>
<polygon fill="#6bfd4e" points="174.583,327.420 267.295,385.413 437.671,275.483  "/>
<polygon fill="#13f7f3" points="124.467,414.879 18.766,290.514 278.035,205.229  "/>
<polygon fill="#4e0831" points="395.379,466.862 426.288,118.257 395.775,344.002  "/>
<polygon fill="#ff5366" points="130.180,48.724 572.780,23.821 82.488,4.652  "/>
<polygon fill="#deeb56" points="161.206,319.079 105.122,205.766 18.765,444.647  "/>
<polygon fill="#e8bb87" points="8.050,93.867 138.561,203.038 352.793,483.757  "/>
<polygon fill="#667346" points="386.795,276.308 14.770,132.971 473.471,352.142  "/>
<polygon fill="#7e8305" points="507.319,421.236 224.869,268.661 289.313,497.477  "/>
<polygon fill="#9df2c7" points="80.468,16.267 385.878,355.563 154.418,26.324  "/>
<polygon fill="#dee84b" points="231.201,433.098 490.957,426.487 204.994,545.847  "/>
<polygon fill="#ad7c14" points="149.035,481.202 37.258,93.481 120.818,423.966  "/>
<polygon fill="#2c607c" points="396.653,477.618 463.935,567.198 413.650,108.579  "/>
<polygon fill="#b25303" points="109.161,464.974 486.042,310.644 454.495,572.449  "/>
<polygon fill="#bf7b24" points="95.718,345.042 374.065,4.369 565.130,530.325  "/>
<polygon fill="#dc94ac" points="325.091,371.842 207.316,83.101 233.725,363.488  "/>
<polygon fill="#e36aa1" points="80.762,318.486 212.151,260.698 159.345,40.251  "/>
<polygon fill="#53a8cc" points="84.103,509.693 220.196,479.521 172.829,400.836  "/>
<polygon fill="#9aadaf" points="405.573,532.822 244.063,460.691 360.451,237.842  "/>
<polygon fill="#83b087" points="82.456,47.025 294.598,169.742 103.323,480.164  "/>
<polygon fill="#ad274b" points="317.552,132.742 195.915,338.303 85.684,533.414  "/>
<polygon fill="#a5b252" points="182.858,141.866 339.638,184.547 507.493,548.799  "/>
<polygon fill="#675a1c" points="236.101,515.002 262.825,443.214 139.211,83.658  "/>
<polygon fill="#2c2dd3" points="425.335,324.917 16.389,85.793 3.368,464.111  "/>
<polygon fill="#e0229a" points="78.998,198.278 131.046,146.763 432.756,38.148  "/>
<polygon fill="#cfeed4" points="444.135,54.844 201.941,7.925 470.059,298.762  "/>
<polygon fill="#bea0ab" points="65.784,274.057 181.039,247.640 375.094,138.522  "/>
<polygon fill="#67dae0" points="588.313,202.798 105.185,334.999 121.776,176.555  "/>
<polygon fill="#619605" points="340.833,179.356 481.851,102.348 280.746,412.664  "/>
<polygon fill="#beeb43" points="249.431,337.927 75.092,503.574 135.704,276.429  "/>
<polygon fill="#29eb8c" points="208.124,265.786 366.231,193.898 445.967,112.609  "/>
<polygon fill="#158705" points="237.977,481.728 379.800,44.768 108.239,465.318  "/>
<polygon fill="#8492a1" points="483.325,5.221 404.393,160.064 311.075,170.164  "/>
<polygon fill="#641145" points="308.751,555.782 558.254,184.264 124.245,295.255  "/>
<polygon fill="#aec17d" points="111.612,472.896 574.445,134.829 469.173,277.855  "/>
<polygon fill="#d9c911" points="81.018,230.864 3.283,45.584 227.211,51.811  "/>
<polygon fill="#ba9e7a" points="384.052,544.605 337.568,522.138 79.322,409.560  "/>
<polygon fill="#beda63" points="166.241,529.952 264.295,195.726 558.548,34.912  "/>
<polygon fill="#f84888" points="412.125,22.346 198.980,84.423 481.993,390.703  "/>
<polygon fill="#cd3c9c" points="450.272,239.979 10.267,588.638 551.039,142.754  "/>
<polygon fill="#7bb68a" points="304.132,457.339 59.444,143.995 111.625,219.672  "/>
<polygon fill="#d3c666" points="20.683,452.552 418.280,297.150 183.757,458.833  "/>
<polygon fill="#9a60ae" points="571.697,438.851 514.670,274.168 195.240,507.460  "/>
<polygon fill="#071d42" points="463.203,115.438 165.779,314.657 514.417,104.436  "/>
<polygon fill="#c08575" points="151.957,457.163 246.571,536.498 416.670,295.061  "/>
<polygon fill="#2b5558" points="465.478,588.943 411.895,490.690 271.022,317.117  "/>
<polygon fill="#2117cd" points="426.288,256.719 504.605,0.966 126.701,277.889  "/>
<polygon fill="#99a8b6" points="538.212,289.664 296.721,322.683 206.289,58.692  "/>
<polygon fill="#bfe557" points="106.722,298.427 390.479,40.712 52.378,334.756  "/>
<polygon fill="#dfcfcf" points="574.672,279.104 256.952,112.089 275.023,576.669  "/>
<polygon fill="#e72ab0" points="387.895,488.154 397.420,320.438 578.455,137.140  "/>
<polygon fill="#7a7bca" points="414.843,143.109 404.772,243.376 3.419,10.390  "/>
<polygon fill="#2ac6a2" points="379.094,273.804 83.920,343.774 282.597,341.611  "/>
<polygon fill="#24f90a" points="251.614,232.954 486.194,357.393 264.912,525.195  "/>
<polygon fill="#24736f" points="457.372,431.887 457.648,47.142 463.203,170.793  "/>
</svg>