<?xml version="1.0" encoding="utf-8"?>
<!-- Generator: Python script. InTeResTinG -->
<!DOCTYPE svg PUBLIC "-//W3C//DTD SVG 1.1//EN" "http://www.w3.org/Graphics/SVG/1.1/DTD/svg11.dtd">
<svg version="1.1" id="Layer_1" xmlns="http://www.w3.org/2000/svg" xmlns:xlink="http://www.w3.org/1999/xlink" x="0px" y="0px" width="600.000px" height="600.000px" viewBox="0 0 600.000 600.000" enable-background="new 0 0 600.000 600.000" xml:space="preserve">
<polygon fill="#ccfe7c" points="590.381,455.167 253.618,351.080 392.933,543.918  "/>
<polygon fill="#07ec28" points="147.730,122.334 319.699,590.589 325.600,216.116  "/>
<polygon fill="#4654cd" points="213.726,427.742 153.791,142.435 554.838,248.365  "/>
<polygon fill="#879659" points="538.447,179.282 309.296,95.403 312.785,34.484  "/>
<polygon fill="#6a7b9a" points="50.100,220.481 517.461,574.966 476.535,180.440  "/>
<polygon fill="#2f372d" points="148.755,270.341 475.245,55.906 110.297,341.927  "/>
<polygon fill="#d79d2a" points="183.678,154.349 551.759,137.584 194.137,338.356  "/>
<polygon fill="#0acb8e" points="366.824,134.632 267.966,410.003 335.544,371.517  "/>
<polygon fill="#4c40f1" points="579.870,433.370 155.105,333.657 122.018,220.626  "/>
<polygon fill="#647320" points="478.686,319.499 262.551,25.547 439.870,197.425  "/>
<polygon fill="#10f6e8" points="574.463,129.618 103.408,90.073 561.130,545.819  "/>
<polygon fill="#9138ce" points="121.859,448.091 525.329,136.655 25.854,472.945  "/>
<polygon fill="#3d4274" points="286.050,443.921 40.081,548.359 69.527,131.095  "/>
<polygon fill="#a38562" points="374.971,99.600 407.212,71.883 382.531,283.466  "/>
<polygon fill="#50f340" points="261.370,537.926 401.448,481.965 89.322,239.367  "/>
<polygon fill="#20aeaa" points="522.614,556.839 434.909,547.205 471.197,200.836  "/>
<polygon fill="#1431e9" points="331.805,88.617 349.133,72.558 306.472,404.168  "/>
<polygon fill="#b615f6" points="189.275,575.779 213.862,523.775 292.518,70.394  "/>
<polygon fill="#88c368" points="261.975,599.942 410.063,170.823 180.362,528.223  "/>
<polygon fill="#78ac0b" points="439.156,69.525 299.213,196.236 556.121,56.025  "/>
<polygon fill="#291964" points="338.573,145.604 231.093,493.652 493.094,578.600  "/>
<polygon fill="#f0d894" points="18.687,204.808 170.445,52.190 81.497,273.471  "/>
<polygon fill="#cab19f" points="85.893,362.454 361.412,169.742 23.672,427.127  "/>
<polygon fill="#ae7315" points="410.029,209.848 37.573,95.945 141.442,57.915  "/>
<polygon fill="#60e40e" points="479.293,56.966 388.682,571.111 42.011,411.365  "/>
<polygon fill="#1bc328" points="240.447,569.983 149.639,414.612 91.140,304.612  "/>
<polygon fill="#90eee7" points="66.994,190.851 440.140,128.209 576.895,513.530  "/>
<polygon fill="#3b743f" points="276.833,372.235 290.173,12.583 282.511,492.854  "/>
<polygon fill="#2a69cf" points="105.196,96.224 419.629,375.854 224.665,295.948  "/>
<polygon fill="#66cb40" points="584.748,348.508 223.535,349.529 145.139,231.442  "/>
<polygon fill="#b5f2c9" points="80.649,220.201 377.969,392.404 428.171,409.895  "/>
<polygon fill="#9f07ba" points="381.886,518.859 90.709,324.298 135.728,33.480  "/>
<polygon fill="#57f814" points="36.233,412.707 482.243,225.517 581.049,183.349  "/>
<polygon fill="#5f825d" points="394.369,180.871 541.892,281.454 402.285,336.182  "/>
<polygon fill="#8a8624" points="381.219,6.078 295.664,366.825 252.886,122.094  "/>
<polygon fill="#897cc1" points="176.703,139.019 226.832,348.933 17.392,346.327  "/>
<polygon fill="#903727" points="579.269,528.837 444.953,55.181 463.314,127.965  "/>
<polygon fill="#89e543" points="511.509,451.776 314.506,371.936 358.548,133.675  "/>
<polygon fill="#28bafb" points="130.727,102.477 441.158,322.269 532.191,3.780  "/>
<polygon fill="#52e89b" points="131.279,565.082 45.647,56.581 285.984,309.186  "/>
<polygon fill="#aced4d" points="589.798,348.748 550.951,435.638 133.854,527.633  "/>
<polygon fill="#3a0097" points="596.437,492.892 466.446,299.290 22.625,151.721  "/>
<polygon fill="#2674f1" points="70.473,574.089 293.004,332.339 380.714,401.130  "/>
<polygon fill="#57d7fd" points="338.262,256.642 165.679,409.863 280.919,421.604  "/>
<polygon fill="#18dd8e" points="146.576,505.929 271.237,310.753 192.464,162.261  "/>
<polygon fill="#349df9" points="281.830,300.130 2.672,142.113 481.278,157.221  "/>
<polygon fill="#8d14e4" points="383.628,369.746 409.259,153.046 114.362,98.658  "/>
<polygon fill="#f791cc" points="34.014,67.165 498.456,557.246 538.513,498.924  "/>
<polygon fill="#e27d81" points="315.817,521.652 285.178,108.441 247.185,491.102  "/>
<polygon fill="#9ba2b4" points="47.343,5.010 198.063,327.537 525.042,589.558  "/>
<polygon fill="#5a5056" points="387.052,550.445 171.430,71.701 196.195,417.440  "/>
</svg>