<?xml version="1.0" encoding="utf-8"?>
<!-- Generator: Python script. InTeResTinG -->
<!DOCTYPE svg PUBLIC "-//W3C//DTD SVG 1.1//EN" "http://www.w3.org/Graphics/SVG/1.1/DTD/svg11.dtd">
<svg version="1.1" id="Layer_1" xmlns="http://www.w3.org/2000/svg" xmlns:xlink="http://www.w3.org/1999/xlink" x="0px" y="0px" width="600.000px" height="600.000px" viewBox="0 0 600.000 600.000" enable-background="new 0 0 600.000 600.000" xml:space="preserve">
<polygon fill="#e4102b" points="4.694,375.298 132.100,353.152 33.954,511.844  "/>
<polygon fill="#5986b7" points="3.953,27.863 81.853,449.441 532.076,459.213  "/>
<polygon fill="#b70dc1" points="431.292,60.641 556.162,132.864 487.626,349.195  "/>
<polygon fill="#f783e1" points="317.323,398.530 448.222,514.685 35.165,417.613  "/>
<polygon fill="#a7430a" points="361.695,361.809 317.111,194.226 160.329,313.747  "/>
<polygon fill="#1483c8" points="377.396,116.574 457.214,520.254 19.061,238.722  "/>
<polygon fill="#cb09d9" points="512.756,364.093 16.949,259.880 306.016,528.823  "/>
<polygon fill="#4692a0" points="288.991,191.698 68.744,589.637 599.503,340.312  "/>
<polygon fill="#f25e6b" points="79.537,285.521 327.060,323.168 104.298,543.349  "/>
<polygon fill="#7a509d" points="110.297,497.425 556.382,468.578 241.114,262.658  "/>
<polygon fill="#a9adaf" points="366.229,517.579 202.465,334.872 108.441,580.441  "/>
<polygon fill="#66cce0" points="334.501,456.613 108.776,196.018 120.854,8.831  "/>
<polygon fill="#35c5e3" points="157.677,42.898 338.786,130.561 389.482,106.909  "/>
<polygon fill="#52e95d" points="182.073,593.589 358.142,448.739 97.834,465.436  "/>
<polygon fill="#3fa036" points="481.395,346.123 521.958,197.100 481.876,256.626  "/>
<polygon fill="#58c8cd" points="240.158,405.101 241.979,383.484 54.214,211.355  "/>
<polygon fill="#e621a5" points="142.936,550.635 204.624,250.591 495.545,41.069  "/>
<polygon fill="#384a41" points="455.226,102.939 15.473,472.531 120.820,422.527  "/>
<polygon fill="#ed8337" points="444.503,280.461 587.393,122.713 145.572,159.019  "/>
<polygon fill="#88e5b8" points="203.886,92.383 2.086,16.623 371.317,196.815  "/>
<polygon fill="#ee836e" points="408.987,450.448 457.242,394.217 45.274,239.522  "/>
<polygon fill="#eb9a9d" points="122.529,422.580 132.816,526.316 212.027,66.575  "/>
<polygon fill="#d7626e" points="48.639,128.778 41.400,441.114 393.446,257.772  "/>
<polygon fill="#5f97c6" points="394.223,414.864 562.729,224.203 537.863,94.978  "/>
<polygon fill="#5e987f" points="452.764,362.799 597.201,100.924 151.121,456.345  "/>
<polygon fill="#44a83e" points="321.568,229.285 515.288,322.856 421.524,454.345  "/>
<polygon fill="#6fc51d" points="422.861,345.457 57.301,136.233 18.251,299.320  "/>
<polygon fill="#0ab277" points="117.086,426.611 347.395,9.117 74.996,122.890  "/>
<polygon fill="#dfe5ae" points="439.039,584.316 497.740,141.521 425.523,591.967  "/>
<polygon fill="#7cf480" points="497.630,255.562 588.976,87.843 466.163,118.159  "/>
<polygon fill="#e7c7ab" points="342.913,548.686 409.946,188.882 311.244,166.467  "/>
<polygon fill="#6bb3a6" points="550.471,552.988 183.758,209.551 251.468,479.868  "/>
<polygon fill="#9c23e9" points="353.465,383.869 336.388,450.982 103.371,550.306  "/>
<polygon fill="#f92b88" points="282.699,132.965 460.470,513.341 330.794,241.920  "/>
<polygon fill="#4e60cb" points="368.037,556.423 372.753,191.514 379.240,358.496  "/>
<polygon fill="#04606b" points="228.447,387.964 294.670,379.275 67.626,337.062  "/>
<polygon fill="#b96304" points="25.910,35.522 141.946,492.865 388.354,230.306  "/>
<polygon fill="#7a8356" points="213.216,296.242 581.646,575.213 243.628,192.774  "/>
<polygon fill="#e23fbc" points="407.258,207.807 277.760,105.893 436.867,46.229  "/>
<polygon fill="#70639f" points="5.325,420.283 574.267,61.373 293.357,459.627  "/>
<polygon fill="#c50460" points="280.460,435.180 315.329,354.637 269.334,318.018  "/>
<polygon fill="#97d649" points="300.196,568.977 103.566,566.592 537.609,111.002  "/>
<polygon fill="#08d5ef" points="200.838,45.673 258.088,297.988 38.698,416.877  "/>
<polygon fill="#6a8e53" points="585.766,300.656 376.888,432.275 491.323,411.436  "/>
<polygon fill="#1710f9" points="289.371,148.950 572.469,130.395 218.029,328.528  "/>
<polygon fill="#97d318" points="317.991,191.260 420.174,300.102 10.436,103.751  "/>
<polygon fill="#d82a06" points="84.811,217.029 95.413,345.507 415.455,220.186  "/>
<polygon fill="#6e5890" points="165.991,319.632 22.135,141.520 26.290,212.040  "/>
<polygon fill="#a810fd" points="159.586,35.381 294.283,70.842 367.177,273.672  "/>
<polygon fill="#a528b9" points="234.478,189.478 243.089,119.585 180.190,420.136  "/>
<polygon fill="#b5d856" points="304.056,470.797 83.596,161.753 152.712,468.141  "/>
<polygon fill="#72088e" points="88.976,510.330 134.740,198.517 120.833,35.019  "/>
<polygon fill="#73e146" points="291.925,224.578 338.340,427.895 220.452,136.363  "/>
<polygon fill="#107257" points="483.758,16.780 337.329,54.498 270.748,400.931  "/>
<polygon fill="#c62e92" points="107.908,315.244 468.726,273.010 301.130,7.080  "/>
<polygon fill="#caa4c5" points="145.783,261.712 333.898,396.276 481.218,371.539  "/>
<polygon fill="#b82596" points="276.545,485.632 104.687,510.232 269.829,96.750  "/>
<polygon fill="#18960d" points="491.198,433.526 469.645,378.973 346.654,342.241  "/>
<polygon fill="#f6bb19" points="591.361,306.850 418.595,5.159 159.139,291.278  "/>
<polygon fill="#baa414" points="182.370,182.824 472.404,229.797 233.903,593.890  "/>
<polygon fill="#51cf9c" points="543.206,457.940 375.142,484.970 94.393,287.022  "/>
<polygon fill="#128028" points="23.027,548.666 495.802,208.599 270.465,380.376  "/>
<polygon fill="#f9ec70" points="372.878,12.150 502.607,157.897 285.567,374.859  "/>
<polygon fill="#49d980" points="329.115,64.091 506.839,41.040 481.341,2.752  "/>
<polygon fill="#2bfa28" points="443.791,57.286 501.751,592.302 564.503,64.654  "/>
<polygon fill="#24713c" points="139.627,474.946 490.839,123.147 362.919,258.641  "/>
<polygon fill="#af22b2" points="277.031,67.856 245.958,286.890 360.565,252.022  "/>
<polygon fill="#e1b5b6" points="133.703,546.547 327.544,51.599 577.702,235.467  "/>
<polygon fill="#477b09" points="166.152,145.135 257.953,244.022 344.308,413.417  "/>
<polygon fill="#d432f0" points="196.068,253.913 226.880,585.804 421.242,191.947  "/>
<polygon fill="#70db56" points="85.854,394.690 97.726,598.201 45.176,496.917  "/>
</svg>