<?xml version="1.0" encoding="utf-8"?>
<!-- Generator: Python script. InTeResTinG -->
<!DOCTYPE svg PUBLIC "-//W3C//DTD SVG 1.1//EN" "http://www.w3.org/Graphics/SVG/1.1/DTD/svg11.dtd">
<svg version="1.1" id="Layer_1" xmlns="http://www.w3.org/2000/svg" xmlns:xlink="http://www.w3.org/1999/xlink" x="0px" y="0px" width="600.000px" height="600.000px" viewBox="0 0 600.000 600.000" enable-background="new 0 0 600.000 600.000" xml:space="preserve">
<polygon fill="#2ec51b" points="217.114,252.642 54.684,501.665 442.949,290.981  "/>
<polygon fill="#048279" points="27.397,42.119 37.146,249.353 519.552,522.716  "/>
<polygon fill="#71dc69" points="358.525,455.729 98.317,475.152 109.144,546.856  "/>
<polygon fill="#320ebf" points="417.907,11.084 340.370,92.298 143.687,566.119  "/>
<polygon fill="#5135a2" points="325.645,206.173 325.647,447.628 156.229,86.273  "/>
<polygon fill="#ad44eb" points="277.569,30.031 188.261,30.593 268.511,529.041  "/>
<polygon fill="#be0e92" points="418.260,378.679 37.210,228.561 46.421,122.485  "/>
<polygon fill="#2d6344" points="299.157,222.569 153.622,24.695 193.794,184.144  "/>
<polygon fill="#fc7e5c" points="114.986,555.597 562.568,276.254 509.880,324.052  "/>
<polygon fill="#d7ee3a" points="421.547,315.082 519.154,285.537 401.166,464.369  "/>
<polygon fill="#a2a2f2" points="131.130,560.906 402.794,434.989 72.221,422.217  "/>
<polygon fill="#3524f8" points="133.854,4.640 398.791,312.323 130.324,102.901  "/>
<polygon fill="#9be8ae" points="350.464,208.414 593.107,516.138 487.616,526.246  "/>
<polygon fill="#589630" points="426.177,342.805 71.098,226.405 152.278,4.499  "/>
<polygon fill="#97efc5" points="313.444,21.660 552.741,358.953 297.490,111.199  "/>
<polygon fill="#e392d8" points="508.755,435.029 595.444,142.479 331.513,229.319  "/>
<polygon fill="#2573fb" points="564.233,516.936 588.330,248.363 576.759,137.915  "/>
<polygon fill="#9e5bc5" points="243.250,485.103 471.319,67.112 257.160,82.945  "/>
<polygon fill="#15b2f4" points="210.246,253.214 259.195,224.006 149.930,96.569  "/>
<polygon fill="#6e82a5" points="323.368,301.451 455.263,64.749 432.977,56.877  "/>
<polygon fill="#3db5c0" points="217.923,434.414 372.673,284.811 367.262,208.456  "/>
<polygon fill="#5c2e33" points="122.235,515.300 475.236,6.089 351.460,422.771  "/>
<polygon fill="#50cda5" points="39.989,114.506 135.774,254.872 519.637,430.022  "/>
<polygon fill="#5138ac" points="48.389,545.773 570.678,277.466 550.714,312.438  "/>
<polygon fill="#038974" points="44.794,71.911 72.649,230.295 476.001,180.692  "/>
<polygon fill="#67ea67" points="130.523,124.520 495.208,163.111 383.207,401.933  "/>
<polygon fill="#6f9ecc" points="384.491,144.624 198.797,449.185 583.764,103.800  "/>
<polygon fill="#907db0" points="497.370,340.881 543.073,342.737 147.177,585.921  "/>
<polygon fill="#c6528a" points="89.131,157.110 76.342,206.237 242.238,460.414  "/>
<polygon fill="#46d863" points="150.706,267.988 411.654,363.999 518.806,321.488  "/>
<polygon fill="#5a5684" points="97.996,522.162 484.443,481.325 1.920,507.462  "/>
<polygon fill="#d5b4fd" points="431.082,265.740 525.780,461.718 203.525,63.864  "/>
<polygon fill="#f9419d" points="162.705,127.629 520.969,241.155 240.671,549.559  "/>
<polygon fill="#39bea9" points="81.096,593.320 94.667,119.108 173.627,176.682  "/>
<polygon fill="#5b878a" points="101.533,124.452 480.960,56.446 562.544,563.500  "/>
<polygon fill="#5a182d" points="230.224,501.963 594.636,59.488 532.376,107.038  "/>
<polygon fill="#90c23c" points="410.279,512.264 146.408,144.178 274.173,311.004  "/>
<polygon fill="#1b0768" points="536.361,25.424 137.363,596.413 140.367,160.041  "/>
<polygon fill="#abcc07" points="28.733,129.052 477.111,80.361 441.422,291.487  "/>
<polygon fill="#f0a09e" points="396.536,127.009 396.697,552.298 49.381,273.333  "/>
<polygon fill="#f14e49" points="381.332,178.198 72.714,455.360 475.028,502.033  "/>
<polygon fill="#f908a2" points="36.580,162.140 163.124,86.807 331.488,592.610  "/>
<polygon fill="#df7449" points="383.472,202.967 144.364,352.658 498.136,390.185  "/>
<polygon fill="#91f316" points="26.815,240.316 448.332,93.257 343.923,136.962  "/>
<polygon fill="#341429" points="33.656,499.997 277.658,71.132 391.774,343.363  "/>
<polygon fill="#c7b855" points="280.080,384.147 178.820,135.373 166.955,517.995  "/>
<polygon fill="#8ebc54" points="87.644,59.561 594.725,131.925 422.080,194.864  "/>
<polygon fill="#96630b" points="17.440,217.736 150.844,221.810 282.300,481.018  "/>
<polygon fill="#11450b" points="74.553,592.960 322.447,380.759 457.547,565.957  "/>
<polygon fill="#b8e8a3" points="579.785,94.010 172.934,405.406 574.202,36.617  "/>
<polygon fill="#f68221" points="532.750,285.831 126.654,73.381 435.076,407.936  "/>
<polygon fill="#c8ede5" points="312.703,96.565 216.665,363.651 263.391,24.941  "/>
<polygon fill="#cc1ffb" points="229.178,98.496 163.971,522.412 122.765,364.863  "/>
<polygon fill="#d07c61" points="48.485,592.705 153.217,590.353 568.390,186.232  "/>
<polygon fill="#dfc834" points="117.984,406.392 142.345,357.647 570.699,116.639  "/>
<polygon fill="#ff1987" points="323.592,230.306 46.789,506.227 475.043,376.983  "/>
</svg>