<?xml version="1.0" encoding="utf-8"?>
<!-- Generator: Python script. InTeResTinG -->
<!DOCTYPE svg PUBLIC "-//W3C//DTD SVG 1.1//EN" "http://www.w3.org/Graphics/SVG/1.1/DTD/svg11.dtd">
<svg version="1.1" id="Layer_1" xmlns="http://www.w3.org/2000/svg" xmlns:xlink="http://www.w3.org/1999/xlink" x="0px" y="0px" width="600.000px" height="600.000px" viewBox="0 0 600.000 600.000" enable-background="new 0 0 600.000 600.000" xml:space="preserve">
<polygon fill="#26dbee" points="202.748,305.104 374.591,260.634 423.936,444.920  "/>
<polygon fill="#d0d51f" points="162.854,212.147 558.565,57.133 88.340,135.929  "/>
<polygon fill="#8b03c0" points="584.833,378.460 326.930,429.162 584.473,462.130  "/>
<polygon fill="#b5ddd1" points="198.483,454.922 78.329,184.017 501.464,276.358  "/>
<polygon fill="#f3ce7d" points="520.049,336.856 246.167,472.448 284.093,268.821  "/>
<polygon fill="#be840e" points="312.165,149.426 121.538,581.418 453.694,127.852  "/>
<polygon fill="#60a5a3" points="381.796,70.149 325.085,468.148 23.466,330.120  "/>
<polygon fill="#08ecbc" points="319.713,301.822 454.872,582.226 15.258,455.099  "/>
<polygon fill="#8d87b8" points="572.451,501.448 28.451,407.976 192.616,71.786  "/>
<polygon fill="#ee8496" points="399.880,314.322 570.920,412.281 86.449,405.534  "/>
<polygon fill="#bc995a" points="324.335,85.294 131.043,299.331 143.753,237.844  "/>
<polygon fill="#ea41d8" points="388.896,225.361 225.078,204.520 464.681,120.781  "/>
<polygon fill="#575ef0" points="334.435,376.898 58.262,126.719 290.830,432.515  "/>
<polygon fill="#9c08da" points="508.904,412.024 534.068,145.806 337.584,168.102  "/>
<polygon fill="#4bbd13" points="115.685,142.692 145.381,340.732 479.722,581.812  "/>
<polygon fill="#527b92" points="70.241,316.800 266.373,66.127 348.180,154.331  "/>
<polygon fill="#9eba1c" points="352.650,131.602 491.409,321.646 483.673,359.011  "/>
<polygon fill="#bac714" points="4.341,453.239 520.307,282.682 307.243,278.255  "/>
<polygon fill="#4f0de3" points="114.804,376.488 561.646,378.289 192.903,24.902  "/>
<polygon fill="#b6e462" points="227.120,561.098 146.997,544.942 128.979,323.225  "/>
<polygon fill="#780247" points="154.197,294.147 476.204,409.334 542.260,65.898  "/>
<polygon fill="#18f216" points="427.828,96.539 555.695,6.009 19.173,208.125  "/>
<polygon fill="#e1d414" points="51.471,539.620 136.400,527.878 365.264,129.157  "/>
<polygon fill="#ed2842" points="252.008,425.382 379.874,392.812 390.461,187.577  "/>
<polygon fill="#590153" points="523.622,194.902 9.174,523.012 406.881,552.089  "/>
<polygon fill="#2ab1b8" points="212.806,484.649 549.682,411.166 36.447,334.541  "/>
<polygon fill="#c1ca23" points="189.321,114.402 321.191,412.882 142.286,563.510  "/>
<polygon fill="#52134d" points="289.819,281.756 142.510,13.426 467.173,115.623  "/>
<polygon fill="#c8d786" points="129.760,304.040 348.387,101.661 98.459,376.193  "/>
<polygon fill="#b94152" points="88.411,522.391 29.419,128.269 10.317,274.702  "/>
<polygon fill="#df5d55" points="262.528,60.237 79.993,69.531 565.774,583.175  "/>
<polygon fill="#db8707" points="340.961,56.115 421.673,0.224 418.547,435.106  "/>
<polygon fill="#12d73c" points="358.501,340.147 53.944,403.374 2.275,7.572  "/>
<polygon fill="#c28a90" points="355.163,500.961 113.588,540.304 492.881,399.309  "/>
<polygon fill="#f746c8" points="394.202,562.345 291.600,130.589 497.205,507.005  "/>
<polygon fill="#391f37" points="293.648,417.768 251.877,425.757 16.707,280.431  "/>
<polygon fill="#86f74c" points="12.722,43.946 198.082,116.312 170.396,23.545  "/>
<polygon fill="#c435a3" points="421.286,277.610 493.085,511.491 177.981,177.069  "/>
<polygon fill="#dc8439" points="10.621,129.381 515.086,407.025 428.547,121.232  "/>
<polygon fill="#b16dd3" points="242.863,142.511 317.391,324.879 361.523,126.184  "/>
<polygon fill="#3c2e5f" points="260.687,254.598 423.951,19.395 86.019,566.207  "/>
<polygon fill="#d204f8" points="5.518,561.312 498.360,190.478 565.881,9.308  "/>
<polygon fill="#dc256b" points="168.864,538.931 514.986,336.138 481.369,396.596  "/>
<polygon fill="#915207" points="149.730,583.588 6.309,417.109 164.295,309.487  "/>
<polygon fill="#ca2ca8" points="177.263,204.358 283.852,171.375 480.333,475.691  "/>
<polygon fill="#cc1081" points="323.542,593.568 17.454,479.900 290.384,253.491  "/>
<polygon fill="#deedd6" points="362.660,519.332 408.736,123.906 486.898,507.872  "/>
<polygon fill="#9ececd" points="7.425,12.820 150.264,239.263 0.245,223.659  "/>
<polygon fill="#1a9545" points="424.467,240.010 261.734,186.376 259.687,422.098  "/>
<polygon fill="#b1f200" points="363.821,577.091 484.893,77.648 558.140,141.425  "/>
<polygon fill="#163c02" points="535.053,95.003 277.191,482.027 93.885,538.392  "/>
<polygon fill="#c0b7d7" points="39.150,15.226 392.315,53.006 241.147,385.729  "/>
<polygon fill="#05d334" points="348.469,210.452 437.308,181.865 424.184,593.594  "/>
<polygon fill="#b760cd" points="54.298,458.472 346.093,500.147 133.952,498.162  "/>
<polygon fill="#5aa465" points="323.950,239.388 535.320,281.179 221.574,247.666  "/>
<polygon fill="#f55850" points="167.270,366.545 499.883,190.059 582.863,391.379  "/>
<polygon fill="#ff56f8" points="216.222,376.875 532.935,35.814 587.413,48.054  "/>
</svg>