<?xml version="1.0" encoding="utf-8"?>
<!-- Generator: Python script. InTeResTinG -->
<!DOCTYPE svg PUBLIC "-//W3C//DTD SVG 1.1//EN" "http://www.w3.org/Graphics/SVG/1.1/DTD/svg11.dtd">
<svg version="1.1" id="Layer_1" xmlns="http://www.w3.org/2000/svg" xmlns:xlink="http://www.w3.org/1999/xlink" x="0px" y="0px" width="600.000px" height="600.000px" viewBox="0 0 600.000 600.000" enable-background="new 0 0 600.000 600.000" xml:space="preserve">
<polygon fill="#9b3a88" points="425.387,528.800 390.430,56.395 374.777,21.982  "/>
<polygon fill="#be06c2" points="355.313,22.533 477.289,14.383 175.573,0.464  "/>
<polygon fill="#68d0ee" points="484.338,350.359 26.583,429.127 78.429,185.527  "/>
<polygon fill="#d6695d" points="337.784,268.274 529.025,298.060 488.648,182.049  "/>
<polygon fill="#de9010" points="537.630,340.769 87.668,442.642 245.473,124.034  "/>
<polygon fill="#342ff3" points="549.264,58.944 568.369,170.164 261.011,220.546  "/>
<polygon fill="#4e2610" points="301.722,222.605 468.653,214.097 422.162,199.983  "/>
<polygon fill="#7f1f30" points="31.874,383.732 287.280,401.911 158.455,526.815  "/>
<polygon fill="#6b4b17" points="422.283,34.763 314.796,210.697 504.839,386.663  "/>
<polygon fill="#729180" points="52.179,11.380 311.657,404.121 383.218,123.287  "/>
<polygon fill="#1607be" points="598.473,487.702 179.673,113.429 429.123,108.128  "/>
<polygon fill="#e300b7" points="254.992,87.622 416.232,529.743 498.403,447.634  "/>
<polygon fill="#4dd937" points="339.340,67.073 217.191,191.847 288.953,594.825  "/>
<polygon fill="#1f5db5" points="437.239,521.489 202.450,126.387 125.610,576.091  "/>
<polygon fill="#f88783" points="567.379,107.570 569.875,14.042 593.973,5.439  "/>
<polygon fill="#0dc89b" points="60.559,544.254 49.642,235.481 500.732,541.994  "/>
<polygon fill="#119051" points="432.610,48.135 384.201,56.591 97.265,306.164  "/>
<polygon fill="#9d422c" points="242.697,300.819 130.554,557.381 452.021,511.285  "/>
<polygon fill="#ef2f92" points="156.762,277.717 35.017,32.797 329.121,75.860  "/>
<polygon fill="#eb28ee" points="196.458,171.731 140.091,56.037 404.754,190.648  "/>
<polygon fill="#0fe47e" points="54.453,286.787 132.344,261.829 566.832,163.621  "/>
<polygon fill="#0979fb" points="311.368,369.560 208.447,350.281 109.343,92.583  "/>
<polygon fill="#96dde8" points="79.951,340.066 262.065,491.689 290.685,312.868  "/>
<polygon fill="#d5e12b" points="305.203,274.334 530.153,305.893 329.179,73.841  "/>
<polygon fill="#03a36f" points="180.044,154.602 424.050,410.461 391.440,170.421  "/>
<polygon fill="#ce3f1b" points="379.263,533.780 239.150,48.459 548.386,63.796  "/>
<polygon fill="#ad6361" points="592.028,157.583 400.083,127.240 246.899,8.065  "/>
<polygon fill="#d532a9" points="164.938,573.284 338.961,456.071 59.941,507.453  "/>
<polygon fill="#5ff347" points="168.870,226.715 142.826,564.577 192.336,64.391  "/>
<polygon fill="#2c44dd" points="494.115,552.291 86.781,457.582 557.686,566.453  "/>
<polygon fill="#d7a0cb" points="150.042,189.184 478.766,586.790 372.119,44.085  "/>
<polygon fill="#f97e49" points="271.260,550.348 519.981,42.550 469.277,158.765  "/>
<polygon fill="#38f489" points="177.885,29.496 444.705,586.177 526.023,53.945  "/>
<polygon fill="#b89637" points="223.596,86.005 323.650,100.065 89.582,31.121  "/>
<polygon fill="#709ab5" points="284.349,492.932 62.799,338.140 99.488,167.835  "/>
<polygon fill="#739691" points="236.472,468.652 411.391,588.373 81.081,122.111  "/>
<polygon fill="#f930e3" points="519.723,174.722 123.031,1.302 15.975,536.447  "/>
<polygon fill="#e4a753" points="143.570,377.947 87.768,108.121 150.711,509.486  "/>
<polygon fill="#96319c" points="206.696,162.069 440.126,490.164 77.394,117.725  "/>
<polygon fill="#e95ca9" points="284.417,319.767 206.006,23.273 369.405,333.136  "/>
<polygon fill="#eb2422" points="284.893,118.439 572.104,491.298 530.249,244.265  "/>
<polygon fill="#9f97d2" points="382.051,323.684 125.655,439.864 74.075,69.793  "/>
<polygon fill="#f5681f" points="79.648,66.702 253.766,298.977 496.016,418.270  "/>
<polygon fill="#8b464f" points="513.658,582.317 332.079,309.607 585.949,66.474  "/>
<polygon fill="#dd3cd1" points="584.922,529.387 212.670,563.864 564.825,119.677  "/>
<polygon fill="#7f6787" points="548.372,312.652 131.469,21.066 460.025,256.819  "/>
<polygon fill="#897903" points="321.031,467.048 44.272,216.952 24.739,188.655  "/>
<polygon fill="#0af000" points="49.224,254.917 515.144,536.853 398.134,599.685  "/>
<polygon fill="#8fdd7e" points="113.094,182.645 155.538,520.815 427.004,65.511  "/>
<polygon fill="#a83a76" points="151.182,148.155 395.138,180.524 72.731,251.477  "/>
<polygon fill="#3a80a4" points="262.839,478.286 260.440,439.108 162.209,274.186  "/>
<polygon fill="#ddd35b" points="161.762,293.046 284.105,250.631 305.079,210.368  "/>
<polygon fill="#b70a55" points="376.560,367.029 16.965,590.212 50.611,213.561  "/>
<polygon fill="#9263c2" points="179.341,263.743 98.536,587.003 330.443,438.532  "/>
<polygon fill="#2621f0" points="240.589,296.679 203.420,423.521 70.537,57.707  "/>
<polygon fill="#5f4d64" points="152.439,467.234 20.563,475.917 553.422,78.336  "/>
<polygon fill="#b89e31" points="246.401,446.412 151.051,242.214 498.540,273.071  "/>
<polygon fill="#b5a84e" points="443.769,251.309 247.574,306.697 393.607,409.089  "/>
<polygon fill="#8fc113" points="80.743,400.016 114.588,353.058 425.261,578.903  "/>
<polygon fill="#edb796" points="405.559,108.015 504.346,78.435 554.216,189.193  "/>
<polygon fill="#9fe919" points="155.306,566.999 103.761,237.033 59.602,291.912  "/>
<polygon fill="#981378" points="434.585,429.611 140.054,375.258 53.177,229.905  "/>
<polygon fill="#6a9e61" points="427.217,219.969 416.327,584.489 404.925,368.233  "/>
<polygon fill="#e8d02a" points="248.583,548.628 458.115,284.111 281.635,515.802  "/>
<polygon fill="#a42003" points="267.533,442.396 566.336,5.697 178.736,141.475  "/>
<polygon fill="#46980c" points="499.372,551.777 584.232,221.319 196.828,279.159  "/>
<polygon fill="#119317" points="307.071,60.082 311.691,181.183 461.557,189.742  "/>
<polygon fill="#74d15c" points="107.133,78.500 93.258,190.213 213.367,518.440  "/>
<polygon fill="#aa22f7" points="242.633,105.877 8.023,63.093 520.087,108.874  "/>
</svg>