<?xml version="1.0" encoding="utf-8"?>
<!-- Generator: Python script. InTeResTinG -->
<!DOCTYPE svg PUBLIC "-//W3C//DTD SVG 1.1//EN" "http://www.w3.org/Graphics/SVG/1.1/DTD/svg11.dtd">
<svg version="1.1" id="Layer_1" xmlns="http://www.w3.org/2000/svg" xmlns:xlink="http://www.w3.org/1999/xlink" x="0px" y="0px" width="600.000px" height="600.000px" viewBox="0 0 600.000 600.000" enable-background="new 0 0 600.000 600.000" xml:space="preserve">
<polygon fill="#570cff" points="327.274,346.979 189.444,37.691 469.208,350.509  "/>
<polygon fill="#99cb66" points="344.536,367.458 568.880,390.944 544.376,95.174  "/>
<polygon fill="#41397a" points="155.445,370.741 468.048,306.954 361.819,358.376  "/>
<polygon fill="#5fda8c" points="576.891,169.884 417.267,406.990 338.501,377.650  "/>
<polygon fill="#86c61d" points="437.497,445.945 47.337,483.495 138.371,431.952  "/>
<polygon fill="#61260f" points="449.786,491.506 510.431,162.183 208.660,70.820  "/>
<polygon fill="#4a0e64" points="381.392,109.385 275.705,553.650 405.821,331.862  "/>
<polygon fill="#af986c" points="456.888,324.173 118.457,578.366 80.844,391.807  "/>
<polygon fill="#5ad483" points="478.196,382.805 174.594,213.336 319.295,9.487  "/>
<polygon fill="#2aa511" points="339.444,372.604 114.658,441.306 433.426,180.455  "/>
<polygon fill="#ec68d9" points="129.465,393.732 330.745,550.644 481.917,347.107  "/>
<polygon fill="#32238b" points="564.607,155.337 502.882,330.966 363.205,442.551  "/>
<polygon fill="#640001" points="523.830,443.986 541.554,28.241 263.038,573.257  "/>
<polygon fill="#733dcc" points="324.378,178.671 196.725,100.457 45.591,394.684  "/>
<polygon fill="#611d5c" points="405.408,286.916 447.341,221.626 179.271,5.268  "/>
<polygon fill="#7305ea" points="180.605,159.214 461.499,374.807 441.065,594.403  "/>
<polygon fill="#035d18" points="172.804,0.959 185.461,10.993 356.320,106.741  "/>
<polygon fill="#7b501f" points="118.954,483.418 66.869,210.495 321.726,464.596  "/>
<polygon fill="#aa8200" points="75.568,417.922 540.715,23.173 359.492,18.316  "/>
<polygon fill="#c11337" points="54.474,362.391 191.648,326.237 167.352,193.074  "/>
<polygon fill="#e79d75" points="470.220,326.164 356.346,44.157 508.695,380.254  "/>
<polygon fill="#87dbe4" points="303.237,325.200 541.020,578.248 493.988,573.434  "/>
<polygon fill="#871a3b" points="92.505,206.973 81.947,456.863 41.855,542.890  "/>
<polygon fill="#42dbaa" points="10.564,260.138 382.018,480.912 77.641,88.740  "/>
<polygon fill="#354627" points="390.832,298.042 184.784,175.177 599.440,215.698  "/>
<polygon fill="#c7d7e2" points="423.770,399.859 97.456,2.322 446.360,247.471  "/>
<polygon fill="#e5b83b" points="220.347,285.355 374.034,473.288 235.898,114.089  "/>
<polygon fill="#d7c5ce" points="290.396,124.858 108.052,213.437 136.435,145.375  "/>
<polygon fill="#87f8a1" points="244.387,382.063 111.326,508.318 204.408,544.989  "/>
<polygon fill="#7e60d0" points="452.938,530.163 126.437,407.934 245.362,159.230  "/>
<polygon fill="#2335fc" points="59.004,65.782 35.630,63.038 30.280,242.342  "/>
<polygon fill="#b7500d" points="280.151,38.993 46.287,580.044 403.667,282.898  "/>
<polygon fill="#21370a" points="195.719,520.224 123.003,199.591 178.535,291.474  "/>
<polygon fill="#85131a" points="159.926,6.607 402.473,77.804 38.904,294.252  "/>
<polygon fill="#2afecf" points="493.568,375.663 98.292,112.258 146.734,218.986  "/>
<polygon fill="#5fd9b2" points="542.077,123.425 242.901,463.089 537.418,134.759  "/>
<polygon fill="#98f595" points="54.115,285.263 323.368,422.514 268.630,588.179  "/>
<polygon fill="#41fc1c" points="22.771,109.199 502.259,565.464 106.187,328.764  "/>
<polygon fill="#6f63d2" points="447.481,45.299 220.135,558.530 182.499,364.152  "/>
<polygon fill="#bec0bd" points="270.086,69.861 313.052,94.540 286.395,287.641  "/>
<polygon fill="#fb6796" points="232.299,107.360 398.703,493.793 363.426,77.571  "/>
<polygon fill="#d92f0e" points="505.281,420.877 231.662,138.963 378.013,507.684  "/>
<polygon fill="#ca51ee" points="75.543,132.275 382.906,83.669 444.981,431.165  "/>
<polygon fill="#4f887f" points="112.225,228.115 441.420,132.444 305.979,194.453  "/>
<polygon fill="#be3133" points="436.868,499.948 534.872,571.834 526.812,297.697  "/>
<polygon fill="#83ed83" points="509.400,424.713 343.323,412.688 280.874,557.701  "/>
<polygon fill="#aee3db" points="245.186,246.974 263.205,340.089 326.511,443.831  "/>
<polygon fill="#eeecff" points="250.799,190.413 403.901,82.435 447.056,519.273  "/>
<polygon fill="#92bf88" points="117.487,319.230 120.289,535.070 370.273,416.754  "/>
<polygon fill="#676356" points="333.597,411.638 230.760,305.425 157.069,597.218  "/>
<polygon fill="#273e22" points="355.640,242.331 246.612,231.034 60.041,240.844  "/>
<polygon fill="#d9d7c2" points="357.840,196.566 406.418,37.895 139.314,259.218  "/>
<polygon fill="#a87ea7" points="19.522,382.356 114.768,499.793 227.821,533.139  "/>
<polygon fill="#948ad3" points="529.306,261.284 75.219,331.718 586.369,370.440  "/>
<polygon fill="#fc4d1a" points="470.355,483.075 244.569,201.148 341.035,529.554  "/>
<polygon fill="#926abd" points="27.126,202.560 417.704,272.317 145.381,302.962  "/>
<polygon fill="#7e41f9" points="59.640,483.291 241.944,418.164 364.296,495.605  "/>
<polygon fill="#2315f3" points="187.928,87.291 541.237,149.111 597.817,44.208  "/>
<polygon fill="#92707d" points="442.789,182.791 406.985,514.301 204.569,233.111  "/>
<polygon fill="#543131" points="370.043,371.845 343.887,338.629 14.072,144.130  "/>
</svg>