<?xml version="1.0" encoding="utf-8"?>
<!-- Generator: Python script. InTeResTinG -->
<!DOCTYPE svg PUBLIC "-//W3C//DTD SVG 1.1//EN" "http://www.w3.org/Graphics/SVG/1.1/DTD/svg11.dtd">
<svg version="1.1" id="Layer_1" xmlns="http://www.w3.org/2000/svg" xmlns:xlink="http://www.w3.org/1999/xlink" x="0px" y="0px" width="600.000px" height="600.000px" viewBox="0 0 600.000 600.000" enable-background="new 0 0 600.000 600.000" xml:space="preserve">
<polygon fill="#f70298" points="397.459,589.496 5.930,308.564 457.732,113.381  "/>
<polygon fill="#ed2c01" points="298.705,404.324 45.684,272.950 553.925,333.542  "/>
<polygon fill="#835e2f" points="2.140,595.301 372.084,270.077 516.207,182.677  "/>
<polygon fill="#867e04" points="396.413,552.982 478.992,506.265 188.623,241.179  "/>
<polygon fill="#a8d393" points="198.859,193.521 406.691,445.291 351.331,128.521  "/>
<polygon fill="#9efe66" points="49.467,397.217 240.377,103.413 6.319,82.953  "/>
<polygon fill="#15834a" points="353.137,336.791 255.666,599.723 592.752,182.534  "/>
<polygon fill="#2c1109" points="402.244,21.953 275.818,208.256 530.160,573.192  "/>
<polygon fill="#70d089" points="83.431,402.877 464.082,542.438 299.537,184.271  "/>
<polygon fill="#24de8a" points="403.617,343.729 582.152,455.603 467.443,7.814  "/>
<polygon fill="#fb43fd" points="498.197,534.884 17.822,73.991 269.764,278.785  "/>
<polygon fill="#ffa19f" points="270.676,476.947 558.480,478.244 81.475,157.063  "/>
<polygon fill="#029ba1" points="400.354,66.691 360.315,91.496 317.167,326.834  "/>
<polygon fill="#fa3911" points="393.907,274.892 509.779,512.082 228.469,411.223  "/>
<polygon fill="#a08739" points="123.933,478.440 439.368,360.961 152.110,300.890  "/>
<polygon fill="#b7e08e" points="116.282,29.168 551.324,155.238 293.778,401.168  "/>
<polygon fill="#83a6ed" points="381.772,588.178 469.041,158.536 277.022,165.601  "/>
<polygon fill="#cc57b2" points="29.845,529.565 239.388,512.917 415.232,355.426  "/>
<polygon fill="#1daac1" points="99.204,281.735 231.251,196.771 263.080,5.802  "/>
<polygon fill="#ac5cdc" points="410.004,212.662 490.137,590.015 491.982,249.849  "/>
<polygon fill="#16b82d" points="506.412,39.188 272.903,110.216 320.529,13.105  "/>
<polygon fill="#bbd4e6" points="102.731,42.575 202.131,297.828 496.270,244.965  "/>
<polygon fill="#4e4a1a" points="413.561,390.395 26.688,310.293 205.098,34.505  "/>
<polygon fill="#69cc45" points="55.221,136.391 570.231,32.308 124.505,105.961  "/>
<polygon fill="#f59dfa" points="3.200,292.510 228.472,454.629 527.138,344.362  "/>
<polygon fill="#bce52c" points="417.183,518.834 558.553,249.750 226.707,85.242  "/>
<polygon fill="#3a0d9a" points="419.208,73.020 567.820,154.330 356.781,422.858  "/>
<polygon fill="#83ca8c" points="272.077,119.807 113.992,433.628 561.403,7.563  "/>
<polygon fill="#bb42fb" points="288.541,22.276 448.334,115.122 111.762,142.961  "/>
<polygon fill="#2dd544" points="472.177,497.866 40.753,452.214 188.776,532.302  "/>
<polygon fill="#ef38df" points="362.945,402.436 427.551,19.610 204.093,328.533  "/>
<polygon fill="#7d41eb" points="315.802,443.603 230.304,351.122 431.462,58.908  "/>
<polygon fill="#90e8eb" points="363.012,383.267 261.043,311.113 534.375,394.688  "/>
<polygon fill="#309bce" points="289.848,141.154 16.314,521.936 277.013,259.367  "/>
<polygon fill="#3b6dc4" points="597.775,313.023 467.141,176.561 443.603,136.762  "/>
<polygon fill="#2ee663" points="448.507,29.342 17.001,287.099 500.017,109.738  "/>
<polygon fill="#ca2a79" points="297.766,200.090 300.670,429.229 323.824,565.100  "/>
<polygon fill="#e1167a" points="476.990,568.206 220.144,492.706 73.771,419.024  "/>
<polygon fill="#ddd665" points="265.503,122.982 249.784,512.457 599.096,290.438  "/>
<polygon fill="#2a740d" points="75.830,292.658 427.519,49.780 345.883,397.381  "/>
<polygon fill="#29c50c" points="389.185,497.926 506.240,553.399 197.345,148.729  "/>
<polygon fill="#10d979" points="17.126,50.118 558.189,340.287 87.370,79.095  "/>
<polygon fill="#8b7125" points="299.520,97.315 500.977,20.168 424.049,79.228  "/>
<polygon fill="#652cfe" points="362.574,515.068 61.077,56.984 277.940,421.234  "/>
<polygon fill="#268ec9" points="250.635,4.450 249.536,238.032 32.852,493.239  "/>
<polygon fill="#8e3c4a" points="386.950,73.869 321.508,461.836 202.012,405.687  "/>
<polygon fill="#cc632a" points="7.811,192.860 537.126,174.455 363.183,163.044  "/>
<polygon fill="#d62a86" points="134.530,592.099 450.741,50.511 119.467,592.583  "/>
<polygon fill="#dee43a" points="380.984,550.229 132.019,555.926 298.262,205.633  "/>
<polygon fill="#24463a" points="278.035,129.573 95.658,31.633 230.747,456.424  "/>
<polygon fill="#13afb4" points="376.393,305.547 430.981,408.199 386.663,184.542  "/>
</svg>