<?xml version="1.0" encoding="utf-8"?>
<!-- Generator: Python script. InTeResTinG -->
<!DOCTYPE svg PUBLIC "-//W3C//DTD SVG 1.1//EN" "http://www.w3.org/Graphics/SVG/1.1/DTD/svg11.dtd">
<svg version="1.1" id="Layer_1" xmlns="http://www.w3.org/2000/svg" xmlns:xlink="http://www.w3.org/1999/xlink" x="0px" y="0px" width="600.000px" height="600.000px" viewBox="0 0 600.000 600.000" enable-background="new 0 0 600.000 600.000" xml:space="preserve">
<polygon fill="#66e54b" points="548.072,80.245 75.183,267.290 293.195,36.494  "/>
<polygon fill="#d9ec24" points="102.302,129.078 358.879,232.320 55.767,411.784  "/>
<polygon fill="#c488d5" points="331.974,505.602 579.501,47.112 222.309,491.500  "/>
<polygon fill="#939e49" points="236.087,7.999 481.000,560.128 450.551,463.375  "/>
<polygon fill="#e02c51" points="59.524,56.355 29.619,517.537 19.168,162.190  "/>
<polygon fill="#298b12" points="357.016,12.259 87.670,510.282 306.059,344.231  "/>
<polygon fill="#e6b463" points="534.187,116.483 570.342,234.482 144.168,71.365  "/>
<polygon fill="#cf5d64" points="286.635,201.915 352.271,196.732 386.639,24.792  "/>
<polygon fill="#c80864" points="399.404,563.384 529.624,79.248 63.424,45.276  "/>
<polygon fill="#b29f49" points="132.224,173.255 36.787,361.335 67.049,108.300  "/>
<polygon fill="#d354a1" points="48.204,447.768 186.902,549.922 76.978,20.672  "/>
<polygon fill="#ae9fc3" points="94.053,171.335 333.282,278.601 61.309,29.739  "/>
<polygon fill="#c5c3d4" points="305.736,524.681 175.095,535.472 557.768,176.714  "/>
<polygon fill="#572266" points="287.513,156.402 454.924,229.717 149.091,321.254  "/>
<polygon fill="#5b58d1" points="390.573,482.791 479.359,500.450 326.044,121.903  "/>
<polygon fill="#858fce" points="285.890,494.377 263.509,144.280 175.612,221.028  "/>
<polygon fill="#de56e5" points="86.783,73.399 461.308,150.402 128.208,468.661  "/>
<polygon fill="#13bfb0" points="178.230,553.759 20.361,401.494 288.572,146.739  "/>
<polygon fill="#0ee0da" points="474.076,92.525 18.865,43.841 208.854,488.872  "/>
<polygon fill="#97c9ce" points="154.490,168.315 557.061,52.550 348.207,47.051  "/>
<polygon fill="#fe981a" points="310.284,515.733 511.380,121.780 217.183,232.633  "/>
<polygon fill="#a02b84" points="544.803,99.886 141.999,347.026 44.285,320.878  "/>
<polygon fill="#661c7e" points="186.203,508.094 33.007,118.263 347.285,538.940  "/>
<polygon fill="#766302" points="276.005,291.499 409.555,373.451 44.622,546.321  "/>
<polygon fill="#161bce" points="372.054,27.574 332.589,473.856 498.543,580.169  "/>
<polygon fill="#d3bd9b" points="594.418,434.828 511.489,86.527 184.916,153.395  "/>
<polygon fill="#ae54ee" points="412.565,374.030 418.313,102.502 432.016,349.596  "/>
<polygon fill="#159868" points="56.552,589.205 224.652,17.788 151.645,16.955  "/>
<polygon fill="#8f3983" points="544.601,573.223 414.479,69.988 26.159,368.401  "/>
<polygon fill="#782525" points="30.642,106.085 195.379,237.988 156.020,158.891  "/>
<polygon fill="#9b4cb3" points="478.325,295.981 542.638,319.515 277.819,38.034  "/>
<polygon fill="#0cdeb7" points="311.004,197.956 53.050,448.365 276.498,80.786  "/>
<polygon fill="#a14af8" points="189.316,527.993 213.179,551.479 511.185,102.778  "/>
<polygon fill="#8c77b0" points="257.208,155.881 46.948,82.785 18.432,266.208  "/>
<polygon fill="#efa35d" points="223.776,159.450 382.308,101.054 335.919,100.291  "/>
<polygon fill="#cf4bf6" points="506.085,218.275 38.185,492.858 359.207,291.053  "/>
<polygon fill="#2f3f2a" points="111.180,436.218 567.676,123.089 480.244,82.091  "/>
<polygon fill="#071c93" points="228.044,72.105 66.370,491.310 29.183,59.379  "/>
<polygon fill="#66d128" points="194.660,311.755 531.986,61.951 184.345,374.273  "/>
<polygon fill="#122379" points="153.898,79.348 39.235,19.223 39.007,226.798  "/>
<polygon fill="#98627d" points="26.271,440.255 314.241,5.895 475.372,425.380  "/>
<polygon fill="#99f6e6" points="224.954,407.916 490.401,405.901 68.332,263.149  "/>
<polygon fill="#e3ab7a" points="580.205,437.537 254.293,564.990 264.687,432.830  "/>
<polygon fill="#70ee85" points="161.590,294.078 504.969,359.024 21.479,105.247  "/>
<polygon fill="#af1750" points="7.287,199.261 65.613,213.093 321.104,26.493  "/>
<polygon fill="#4644fa" points="531.088,599.388 577.543,316.450 373.622,305.170  "/>
<polygon fill="#b4a8c7" points="87.273,149.649 136.677,289.184 594.324,375.260  "/>
<polygon fill="#ffcf86" points="343.723,368.929 144.961,197.485 2.078,186.084  "/>
<polygon fill="#8a5dcd" points="269.769,70.407 417.376,188.249 256.975,341.534  "/>
<polygon fill="#b2dc91" points="485.523,311.054 206.169,341.140 12.575,527.014  "/>
<polygon fill="#2e467d" points="587.699,499.946 72.592,176.664 228.640,460.176  "/>
<polygon fill="#e4859e" points="324.407,577.327 425.592,244.967 154.568,323.774  "/>
<polygon fill="#6fd62c" points="463.866,383.074 189.201,473.567 489.300,128.545  "/>
<polygon fill="#05547a" points="355.092,79.032 96.325,328.319 9.653,593.800  "/>
<polygon fill="#78f956" points="573.517,115.314 203.042,142.569 585.303,169.931  "/>
<polygon fill="#68fcac" points="543.739,21.259 505.777,196.024 38.414,114.542  "/>
<polygon fill="#2d4955" points="245.202,440.712 245.081,59.859 127.308,582.705  "/>
<polygon fill="#6d6e4b" points="505.882,289.745 228.449,177.877 38.721,455.105  "/>
</svg>