<?xml version="1.0" encoding="utf-8"?>
<!-- Generator: Python script. InTeResTinG -->
<!DOCTYPE svg PUBLIC "-//W3C//DTD SVG 1.1//EN" "http://www.w3.org/Graphics/SVG/1.1/DTD/svg11.dtd">
<svg version="1.1" id="Layer_1" xmlns="http://www.w3.org/2000/svg" xmlns:xlink="http://www.w3.org/1999/xlink" x="0px" y="0px" width="600.000px" height="600.000px" viewBox="0 0 600.000 600.000" enable-background="new 0 0 600.000 600.000" xml:space="preserve">
<polygon fill="#a46441" points="553.070,402.096 125.286,437.435 151.149,568.385  "/>
<polygon fill="#78d2c3" points="38.173,384.407 130.538,524.240 496.889,103.828  "/>
<polygon fill="#d3bfaf" points="313.387,124.304 487.434,18.155 119.417,357.271  "/>
<polygon fill="#3d27d7" points="67.515,10.987 59.798,298.462 448.974,178.310  "/>
<polygon fill="#cf2d0e" points="36.143,376.514 62.558,138.711 182.546,392.674  "/>
<polygon fill="#e528bf" points="435.526,346.005 368.429,524.418 561.554,568.129  "/>
<polygon fill="#7575ea" points="158.697,111.952 466.398,502.797 559.548,146.512  "/>
<polygon fill="#f70a86" points="308.582,448.987 498.298,24.013 516.507,338.971  "/>
<polygon fill="#36eb8c" points="458.908,127.506 373.062,77.460 110.631,99.153  "/>
<polygon fill="#69aeeb" points="577.982,37.079 363.657,252.500 179.455,33.895  "/>
<polygon fill="#cd14d2" points="577.563,31.481 451.374,208.754 427.295,101.977  "/>
<polygon fill="#1bf44d" points="162.189,200.888 36.155,73.716 59.690,585.451  "/>
<polygon fill="#1e250f" points="267.302,10.748 227.190,183.245 231.792,54.089  "/>
<polygon fill="#95ec84" points="182.729,336.908 124.019,48.689 81.094,276.395  "/>
<polygon fill="#490d3f" points="365.331,276.954 251.126,393.958 67.380,331.274  "/>
<polygon fill="#49c283" points="373.445,173.738 400.517,402.182 415.870,293.052  "/>
<polygon fill="#f60d17" points="95.447,3.767 598.317,412.301 224.677,288.668  "/>
<polygon fill="#01a5ed" points="119.301,218.145 469.377,87.660 136.815,302.805  "/>
<polygon fill="#2fdac2" points="514.966,457.258 477.074,528.752 353.971,155.408  "/>
<polygon fill="#b3587e" points="543.861,142.850 12.415,154.520 266.374,91.786  "/>
<polygon fill="#dbe27f" points="488.222,432.302 51.764,126.620 7.116,214.385  "/>
<polygon fill="#fb788a" points="539.409,261.121 402.917,474.026 534.459,516.233  "/>
<polygon fill="#0fc855" points="515.687,535.689 524.845,423.038 132.781,343.922  "/>
<polygon fill="#a08cc6" points="26.409,205.133 572.869,259.099 197.578,149.861  "/>
<polygon fill="#9e1545" points="390.364,179.557 52.075,480.345 105.468,300.144  "/>
<polygon fill="#df8ceb" points="564.163,128.828 17.934,408.180 72.104,301.155  "/>
<polygon fill="#2cd2c2" points="442.510,563.398 444.006,163.140 168.917,464.932  "/>
<polygon fill="#812f56" points="396.728,236.177 535.580,467.200 159.019,279.960  "/>
<polygon fill="#b9179a" points="356.211,389.000 89.653,523.845 454.566,227.041  "/>
<polygon fill="#119761" points="394.198,40.635 482.011,539.511 320.016,307.564  "/>
<polygon fill="#c81f81" points="220.236,465.368 430.388,398.404 115.839,440.658  "/>
<polygon fill="#6ef72c" points="27.327,283.626 312.105,540.752 542.592,183.715  "/>
<polygon fill="#1a1404" points="496.653,82.258 57.387,297.918 318.653,563.613  "/>
<polygon fill="#19f070" points="565.374,352.756 17.701,501.007 537.990,518.264  "/>
<polygon fill="#0238f1" points="5.560,119.073 184.760,76.364 186.844,558.633  "/>
<polygon fill="#ef1d60" points="201.982,17.921 220.745,319.546 387.541,32.671  "/>
<polygon fill="#2bfb5a" points="303.742,81.725 179.180,289.474 161.343,141.726  "/>
<polygon fill="#15d040" points="223.577,510.080 193.265,57.497 274.719,497.048  "/>
<polygon fill="#656b33" points="156.634,262.453 391.723,112.147 104.604,303.817  "/>
<polygon fill="#284f7e" points="108.240,90.481 64.353,573.061 428.016,346.570  "/>
<polygon fill="#fd6e40" points="149.879,81.326 454.507,247.223 239.699,206.277  "/>
<polygon fill="#e3b7b9" points="13.292,512.732 445.924,118.900 126.667,252.924  "/>
<polygon fill="#c2d7c5" points="526.462,97.917 374.628,508.889 495.667,451.208  "/>
<polygon fill="#ea1868" points="70.773,523.751 306.380,413.015 14.272,62.707  "/>
<polygon fill="#2c7268" points="190.053,200.373 584.170,476.249 477.135,398.017  "/>
<polygon fill="#3d316d" points="402.866,383.963 417.706,61.076 557.957,49.826  "/>
<polygon fill="#3c8849" points="172.183,220.296 127.882,529.187 564.736,490.581  "/>
<polygon fill="#fb9f4f" points="347.288,417.381 243.786,92.060 143.962,106.716  "/>
<polygon fill="#5a77f1" points="34.860,540.929 164.150,371.982 160.108,544.657  "/>
<polygon fill="#73f9a6" points="166.342,518.658 1.200,42.972 545.521,150.914  "/>
<polygon fill="#4602c2" points="271.989,351.580 418.262,594.589 455.425,238.311  "/>
<polygon fill="#f22e3c" points="495.261,285.345 188.471,148.618 44.222,563.462  "/>
<polygon fill="#913126" points="40.289,3.484 564.687,572.903 176.549,447.673  "/>
<polygon fill="#9e1f82" points="13.417,598.518 517.056,197.771 569.236,300.199  "/>
</svg>