<?xml version="1.0" encoding="utf-8"?>
<!-- Generator: Python script. InTeResTinG -->
<!DOCTYPE svg PUBLIC "-//W3C//DTD SVG 1.1//EN" "http://www.w3.org/Graphics/SVG/1.1/DTD/svg11.dtd">
<svg version="1.1" id="Layer_1" xmlns="http://www.w3.org/2000/svg" xmlns:xlink="http://www.w3.org/1999/xlink" x="0px" y="0px" width="600.000px" height="600.000px" viewBox="0 0 600.000 600.000" enable-background="new 0 0 600.000 600.000" xml:space="preserve">
<polygon fill="#780cbf" points="24.487,228.036 392.458,136.239 23.796,196.635  "/>
<polygon fill="#06e64e" points="525.694,288.218 295.001,201.764 484.863,13.410  "/>
<polygon fill="#57653d" points="221.190,89.373 279.574,49.226 580.621,563.291  "/>
<polygon fill="#1a71cd" points="570.456,305.578 596.461,239.612 114.326,272.300  "/>
<polygon fill="#388cbd" points="214.578,560.429 261.724,250.131 486.096,6.765  "/>
<polygon fill="#5bb32d" points="461.015,46.875 435.037,447.372 65.207,552.368  "/>
<polygon fill="#1d1fde" points="153.623,354.122 291.012,318.779 498.570,165.310  "/>
<polygon fill="#bc97d9" points="558.609,268.671 220.848,268.187 311.211,270.543  "/>
<polygon fill="#2c6d6e" points="594.758,528.021 598.304,288.770 193.228,475.581  "/>
<polygon fill="#e991bf" points="39.202,159.199 395.223,78.376 6.141,92.999  "/>
<polygon fill="#763b2a" points="503.157,5.899 564.404,460.039 56.740,362.679  "/>
<polygon fill="#2bc381" points="380.524,395.769 17.361,78.886 330.392,213.066  "/>
<polygon fill="#b41203" points="350.557,430.674 173.935,225.579 320.605,204.369  "/>
<polygon fill="#337bb2" points="96.947,427.029 495.749,411.310 228.613,181.787  "/>
<polygon fill="#29a5e0" points="242.068,595.083 531.024,218.205 450.013,281.030  "/>
<polygon fill="#5ca436" points="335.459,283.716 139.871,502.965 167.508,530.646  "/>
<polygon fill="#a873b5" points="3.402,113.155 323.826,137.165 113.904,247.994  "/>
<polygon fill="#b0328a" points="215.010,318.706 454.712,437.698 468.053,59.346  "/>
<polygon fill="#bae11e" points="67.992,306.087 439.325,83.509 63.091,102.786  "/>
<polygon fill="#636ab8" points="57.621,126.743 528.329,204.063 497.053,574.034  "/>
<polygon fill="#c2fb91" points="476.134,306.027 205.726,505.056 234.208,539.069  "/>
<polygon fill="#0916eb" points="267.862,438.448 235.398,234.986 420.986,322.392  "/>
<polygon fill="#9c0ca9" points="214.177,365.552 297.304,552.268 296.024,427.260  "/>
<polygon fill="#4857de" points="586.736,354.956 328.564,16.478 82.938,256.167  "/>
<polygon fill="#616d28" points="598.394,279.609 36.433,41.200 383.196,274.086  "/>
<polygon fill="#1e4e03" points="28.896,251.301 568.423,142.884 506.645,30.418  "/>
<polygon fill="#7459c3" points="56.133,395.087 594.077,100.496 572.589,592.692  "/>
<polygon fill="#adec64" points="388.898,435.754 427.103,323.054 143.422,276.357  "/>
<polygon fill="#d9f249" points="536.993,338.593 139.297,467.678 454.421,143.924  "/>
<polygon fill="#ddd098" points="413.116,6.136 458.457,46.807 526.959,97.380  "/>
<polygon fill="#7cd9d7" points="483.484,222.443 173.053,525.881 518.245,219.607  "/>
<polygon fill="#185869" points="14.743,469.609 563.139,525.693 72.063,534.526  "/>
<polygon fill="#56d644" points="508.582,542.752 510.632,54.975 468.398,522.275  "/>
<polygon fill="#7eff23" points="534.061,393.308 447.903,454.907 29.061,87.701  "/>
<polygon fill="#561a85" points="228.875,247.269 390.906,567.231 72.616,438.264  "/>
<polygon fill="#be2241" points="402.305,11.249 475.558,132.136 8.474,306.396  "/>
<polygon fill="#3a0bb3" points="450.765,132.895 423.459,290.862 36.131,450.950  "/>
<polygon fill="#683ff9" points="377.019,264.181 214.033,486.315 191.685,204.862  "/>
<polygon fill="#61d5fe" points="25.383,231.686 134.177,68.873 268.755,576.655  "/>
<polygon fill="#d16d9d" points="240.569,12.213 431.720,445.473 599.058,434.569  "/>
<polygon fill="#62e168" points="468.925,351.385 38.075,172.929 498.562,174.323  "/>
<polygon fill="#aaa24c" points="222.946,407.152 38.395,264.133 290.381,512.325  "/>
<polygon fill="#363f20" points="127.830,527.313 232.481,69.584 440.311,547.391  "/>
<polygon fill="#bf2e8c" points="191.669,55.751 131.247,43.966 274.641,135.520  "/>
<polygon fill="#cede77" points="214.028,0.907 377.102,427.757 49.472,495.744  "/>
<polygon fill="#5f362c" points="355.179,491.131 119.883,509.969 330.870,43.583  "/>
<polygon fill="#b57499" points="224.935,29.485 568.100,231.570 455.271,131.698  "/>
<polygon fill="#6138bc" points="208.453,575.157 134.976,417.515 181.622,279.404  "/>
<polygon fill="#8a377c" points="118.561,326.559 511.205,422.825 521.621,216.049  "/>
<polygon fill="#fa432a" points="75.991,261.050 420.781,506.578 157.985,366.566  "/>
<polygon fill="#e6087d" points="466.438,597.410 259.010,442.593 350.766,200.794  "/>
<polygon fill="#c12a8a" points="207.453,451.474 414.176,125.776 333.103,449.906  "/>
<polygon fill="#f6c0e8" points="65.259,250.299 416.105,358.990 373.605,534.899  "/>
<polygon fill="#3b5c40" points="62.925,338.876 197.759,554.853 545.329,14.576  "/>
<polygon fill="#7cdcbf" points="524.655,234.524 22.901,229.008 308.372,463.770  "/>
<polygon fill="#652082" points="352.633,539.063 484.511,0.684 112.084,325.083  "/>
<polygon fill="#b9c35f" points="372.175,35.396 353.131,262.098 112.888,381.688  "/>
</svg>