<?xml version="1.0" encoding="utf-8"?>
<!-- Generator: Python script. InTeResTinG -->
<!DOCTYPE svg PUBLIC "-//W3C//DTD SVG 1.1//EN" "http://www.w3.org/Graphics/SVG/1.1/DTD/svg11.dtd">
<svg version="1.1" id="Layer_1" xmlns="http://www.w3.org/2000/svg" xmlns:xlink="http://www.w3.org/1999/xlink" x="0px" y="0px" width="600.000px" height="600.000px" viewBox="0 0 600.000 600.000" enable-background="new 0 0 600.000 600.000" xml:space="preserve">
<polygon fill="#7154a1" points="96.953,36.652 63.837,188.786 448.772,281.861  "/>
<polygon fill="#33a118" points="137.841,293.761 216.666,211.158 599.872,583.348  "/>
<polygon fill="#e9ef22" points="447.463,407.681 401.468,580.723 159.519,245.756  "/>
<polygon fill="#ef5628" points="519.948,469.345 180.543,416.224 576.453,72.384  "/>
<polygon fill="#8e9c24" points="277.349,424.138 187.436,528.527 135.884,226.024  "/>
<polygon fill="#9e10eb" points="378.429,524.496 210.867,40.113 32.839,522.886  "/>
<polygon fill="#ee4425" points="276.850,181.900 269.957,226.671 78.908,49.619  "/>
<polygon fill="#a13e7b" points="504.757,418.212 221.013,243.614 443.434,583.110  "/>
<polygon fill="#a31bb4" points="458.570,539.592 66.343,1.002 366.186,462.789  "/>
<polygon fill="#cb81b4" points="111.601,573.404 162.010,124.712 509.693,260.927  "/>
<polygon fill="#70889c" points="557.308,595.407 290.414,179.074 80.142,341.036  "/>
<polygon fill="#a9483a" points="226.310,319.624 544.740,10.473 574.008,313.218  "/>
<polygon fill="#270be2" points="15.074,506.638 100.474,479.743 453.842,360.745  "/>
<polygon fill="#88a600" points="29.620,556.027 514.246,95.290 469.322,474.998  "/>
<polygon fill="#ceb5dc" points="155.686,282.800 220.467,202.945 379.738,33.020  "/>
<polygon fill="#87121e" points="334.702,316.114 433.867,506.418 165.437,489.281  "/>
<polygon fill="#c3b802" points="95.698,38.785 353.716,173.453 415.544,167.605  "/>
<polygon fill="#e86331" points="290.382,103.379 287.382,501.319 301.589,402.281  "/>
<polygon fill="#17319c" points="62.306,300.118 577.067,223.837 92.288,266.140  "/>
<polygon fill="#9333a4" points="258.520,301.193 110.924,285.004 437.113,137.165  "/>
<polygon fill="#981271" points="415.738,553.185 61.346,11.859 529.029,206.005  "/>
<polygon fill="#21ed1f" points="520.202,197.009 553.752,340.125 405.649,10.052  "/>
<polygon fill="#f2be50" points="20.399,454.683 368.066,546.084 42.343,31.481  "/>
<polygon fill="#f644f6" points="376.589,284.678 434.705,461.621 541.230,281.666  "/>
<polygon fill="#997523" points="304.034,501.297 211.280,227.282 469.189,499.871  "/>
<polygon fill="#f64f67" points="125.481,160.310 231.804,251.225 34.127,279.611  "/>
<polygon fill="#c6fa5e" points="440.073,51.860 199.977,394.654 449.952,287.102  "/>
<polygon fill="#a6ca4a" points="322.133,136.013 234.817,445.258 167.301,325.821  "/>
<polygon fill="#1a935c" points="24.915,75.868 361.994,26.649 102.864,198.179  "/>
<polygon fill="#058c84" points="26.670,351.728 93.485,178.160 266.698,492.529  "/>
<polygon fill="#7246ba" points="87.424,116.345 331.090,310.000 245.318,583.859  "/>
<polygon fill="#c7d3e7" points="251.718,223.677 493.712,340.162 475.228,253.592  "/>
<polygon fill="#498e54" points="278.328,153.639 274.293,460.009 410.244,147.704  "/>
<polygon fill="#8d0b74" points="427.033,99.406 196.192,99.800 526.776,117.744  "/>
<polygon fill="#01fb0c" points="115.138,326.037 290.912,70.514 181.693,286.629  "/>
<polygon fill="#1a3ea4" points="463.258,166.019 7.098,360.081 222.236,570.405  "/>
<polygon fill="#393dab" points="284.029,557.176 154.699,166.095 488.490,503.064  "/>
<polygon fill="#af914b" points="59.038,590.283 37.759,511.907 287.727,549.389  "/>
<polygon fill="#beb013" points="267.286,584.198 206.125,112.183 23.273,307.354  "/>
<polygon fill="#7bed25" points="398.722,159.901 232.654,568.754 386.693,567.865  "/>
<polygon fill="#2489b0" points="380.386,132.624 178.772,313.412 81.282,425.672  "/>
<polygon fill="#a11a00" points="82.955,236.273 126.024,543.855 238.774,84.742  "/>
<polygon fill="#1da68c" points="77.512,27.189 185.147,157.576 39.387,141.308  "/>
<polygon fill="#d1e4b1" points="575.952,572.680 463.727,375.308 47.769,23.930  "/>
<polygon fill="#78b15f" points="444.261,432.294 549.074,474.663 499.772,119.832  "/>
<polygon fill="#23ebd0" points="205.165,198.533 593.951,65.099 229.288,178.932  "/>
<polygon fill="#2c8ae0" points="561.144,599.149 376.205,402.130 401.236,99.860  "/>
<polygon fill="#5b1103" points="548.933,34.127 17.271,68.546 413.602,587.358  "/>
<polygon fill="#3f2d47" points="182.975,139.974 208.488,76.499 16.435,417.057  "/>
<polygon fill="#5227f7" points="498.614,511.447 333.299,196.585 527.350,148.285  "/>
<polygon fill="#bf17c2" points="388.023,142.071 130.747,401.549 452.893,61.114  "/>
<polygon fill="#d7aeaa" points="4.050,237.035 369.642,121.782 475.345,484.768  "/>
<polygon fill="#cf4e1a" points="91.268,298.181 366.786,343.928 121.498,7.680  "/>
<polygon fill="#46d59d" points="315.495,519.082 502.250,224.499 469.885,380.418  "/>
<polygon fill="#fa03c6" points="354.079,231.827 114.340,169.647 145.378,104.521  "/>
<polygon fill="#df5707" points="423.184,170.019 302.793,503.537 476.866,108.187  "/>
<polygon fill="#ed1ef9" points="424.294,293.481 410.871,360.563 133.259,168.772  "/>
<polygon fill="#e09c3e" points="572.509,548.731 523.753,79.751 509.281,398.317  "/>
<polygon fill="#855804" points="311.511,266.673 78.902,391.029 558.684,477.699  "/>
<polygon fill="#a511a4" points="208.698,380.632 401.591,318.994 296.570,184.238  "/>
<polygon fill="#db94eb" points="503.014,518.692 336.881,212.635 6.557,440.731  "/>
<polygon fill="#134938" points="288.097,377.516 83.638,106.298 419.003,243.878  "/>
<polygon fill="#fe40e8" points="87.263,199.023 17.469,396.783 155.819,9.631  "/>
<polygon fill="#d99de5" points="122.074,474.975 9.464,23.796 474.639,185.590  "/>
<polygon fill="#17616d" points="61.257,290.900 369.217,425.405 404.715,523.626  "/>
<polygon fill="#343242" points="29.356,496.978 112.711,311.881 328.732,372.527  "/>
<polygon fill="#9e73da" points="408.972,266.280 5.738,184.608 491.040,582.489  "/>
<polygon fill="#76cc6e" points="312.780,37.449 16.500,536.637 30.547,271.260  "/>
<polygon fill="#3de779" points="430.945,298.190 465.147,330.055 432.423,166.798  "/>
<polygon fill="#3c21b9" points="30.888,279.363 111.466,216.688 548.480,487.730  "/>
</svg>