<?xml version="1.0" encoding="utf-8"?>
<!-- Generator: Python script. InTeResTinG -->
<!DOCTYPE svg PUBLIC "-//W3C//DTD SVG 1.1//EN" "http://www.w3.org/Graphics/SVG/1.1/DTD/svg11.dtd">
<svg version="1.1" id="Layer_1" xmlns="http://www.w3.org/2000/svg" xmlns:xlink="http://www.w3.org/1999/xlink" x="0px" y="0px" width="600.000px" height="600.000px" viewBox="0 0 600.000 600.000" enable-background="new 0 0 600.000 600.000" xml:space="preserve">
<polygon fill="#579595" points="502.030,538.125 496.223,97.045 509.692,417.405  "/>
<polygon fill="#bc95cc" points="148.438,507.426 262.941,479.959 88.003,141.844  "/>
<polygon fill="#823902" points="348.499,65.588 376.075,334.335 477.931,359.628  "/>
<polygon fill="#25cc96" points="438.438,48.635 195.400,182.310 216.351,485.761  "/>
<polygon fill="#b5f4b5" points="111.401,569.692 292.505,294.413 260.613,387.249  "/>
<polygon fill="#b0487f" points="350.619,269.953 42.860,324.285 39.207,325.788  "/>
<polygon fill="#180b18" points="53.799,523.475 536.795,144.042 67.320,292.703  "/>
<polygon fill="#56459b" points="483.284,248.151 303.261,36.967 236.144,252.181  "/>
<polygon fill="#41a718" points="234.734,65.979 347.640,377.588 479.182,518.990  "/>
<polygon fill="#b14d4d" points="69.845,427.656 268.075,483.676 235.605,151.155  "/>
<polygon fill="#e0443b" points="268.119,63.545 475.421,163.532 365.982,594.289  "/>
<polygon fill="#ef7c3f" points="428.335,574.660 76.451,575.302 114.185,577.350  "/>
<polygon fill="#c96ee1" points="188.558,345.454 591.506,310.818 13.148,325.794  "/>
<polygon fill="#291613" points="239.351,71.182 202.912,97.969 442.413,424.713  "/>
<polygon fill="#441dda" points="361.035,263.261 105.446,579.696 459.915,323.553  "/>
<polygon fill="#45e870" points="115.869,519.201 320.144,144.054 294.366,193.502  "/>
<polygon fill="#46e690" points="594.369,532.781 586.937,365.080 133.300,586.944  "/>
<polygon fill="#64431e" points="531.222,203.560 430.472,130.616 472.193,184.063  "/>
<polygon fill="#206473" points="196.198,0.259 436.067,414.585 14.711,563.903  "/>
<polygon fill="#3c96d6" points="439.660,226.376 515.038,187.780 151.364,501.637  "/>
<polygon fill="#747e4e" points="437.276,346.497 349.204,30.198 404.016,157.241  "/>
<polygon fill="#825fc1" points="268.807,578.177 452.356,490.884 577.950,226.807  "/>
<polygon fill="#aa778a" points="42.521,298.940 261.090,142.403 453.876,474.597  "/>
<polygon fill="#211c17" points="495.752,120.782 294.649,395.752 390.733,157.069  "/>
<polygon fill="#aa3ed8" points="522.332,199.191 538.629,127.110 304.239,543.743  "/>
<polygon fill="#7255ac" points="342.660,565.373 465.306,459.671 473.433,336.286  "/>
<polygon fill="#17a188" points="356.194,182.366 570.566,425.875 557.410,267.717  "/>
<polygon fill="#37d468" points="89.967,144.734 170.970,95.428 73.529,238.538  "/>
<polygon fill="#2083a2" points="461.120,28.532 559.049,321.180 337.782,473.004  "/>
<polygon fill="#143b31" points="390.039,68.818 25.604,534.390 292.368,483.830  "/>
<polygon fill="#33bc2d" points="389.365,330.599 141.111,126.299 460.693,414.666  "/>
<polygon fill="#624ef9" points="284.307,150.861 181.371,308.419 97.618,584.748  "/>
<polygon fill="#24002b" points="371.020,219.621 431.585,511.524 208.203,93.548  "/>
<polygon fill="#b4cd57" points="535.747,327.453 460.678,560.359 11.279,422.062  "/>
<polygon fill="#aeb073" points="219.442,271.937 201.889,105.291 161.191,215.467  "/>
<polygon fill="#0596f4" points="263.695,240.614 463.416,487.278 350.841,49.361  "/>
<polygon fill="#c90ce5" points="238.799,122.256 285.360,489.968 212.775,108.691  "/>
<polygon fill="#9dbfc5" points="305.687,69.486 495.516,269.916 252.245,119.277  "/>
<polygon fill="#f31603" points="552.985,448.335 551.453,449.579 11.193,105.892  "/>
<polygon fill="#d3d5bc" points="381.301,37.485 289.360,69.709 297.936,495.278  "/>
<polygon fill="#9395aa" points="530.186,483.562 423.391,374.494 110.767,356.756  "/>
<polygon fill="#80a2fa" points="315.209,443.869 138.743,265.803 89.509,563.009  "/>
<polygon fill="#62399a" points="235.553,304.026 293.985,210.233 549.691,479.209  "/>
<polygon fill="#7467b3" points="449.763,61.895 324.971,322.025 285.945,93.023  "/>
<polygon fill="#e5fddd" points="59.776,447.546 560.495,522.474 400.709,441.043  "/>
<polygon fill="#c8409b" points="215.439,551.921 456.013,22.135 457.284,288.227  "/>
<polygon fill="#101747" points="473.761,83.457 341.005,249.212 193.460,14.872  "/>
<polygon fill="#75f2a1" points="229.126,163.453 425.573,57.987 124.715,94.693  "/>
<polygon fill="#6ab41a" points="246.521,131.130 565.996,260.907 146.431,471.411  "/>
<polygon fill="#b347df" points="496.441,398.687 403.001,130.096 219.045,32.095  "/>
<polygon fill="#fada89" points="260.324,544.045 417.616,508.705 158.152,448.789  "/>
<polygon fill="#099709" points="403.861,549.917 237.728,43.673 340.714,200.295  "/>
<polygon fill="#c0b6d7" points="599.721,353.167 20.587,303.632 365.688,375.809  "/>
<polygon fill="#118547" points="532.596,245.898 447.693,158.313 361.595,262.251  "/>
<polygon fill="#4da58b" points="351.875,361.264 405.697,214.558 371.007,27.056  "/>
<polygon fill="#0afa9c" points="375.792,149.873 438.178,275.656 4.146,456.062  "/>
<polygon fill="#88dd09" points="459.318,123.773 179.162,576.546 225.469,219.870  "/>
<polygon fill="#b3dd01" points="364.890,399.347 564.093,44.394 148.407,436.460  "/>
<polygon fill="#800587" points="573.950,24.380 346.448,224.174 82.111,233.839  "/>
</svg>