<?xml version="1.0" encoding="utf-8"?>
<!-- Generator: Python script. InTeResTinG -->
<!DOCTYPE svg PUBLIC "-//W3C//DTD SVG 1.1//EN" "http://www.w3.org/Graphics/SVG/1.1/DTD/svg11.dtd">
<svg version="1.1" id="Layer_1" xmlns="http://www.w3.org/2000/svg" xmlns:xlink="http://www.w3.org/1999/xlink" x="0px" y="0px" width="600.000px" height="600.000px" viewBox="0 0 600.000 600.000" enable-background="new 0 0 600.000 600.000" xml:space="preserve">
<polygon fill="#ed1876" points="489.860,17.850 144.145,98.172 62.077,366.256  "/>
<polygon fill="#21b771" points="19.194,387.685 216.474,222.441 115.364,327.553  "/>
<polygon fill="#7edfe2" points="147.647,265.479 502.020,547.149 556.871,50.105  "/>
<polygon fill="#2e2b8a" points="189.115,275.183 340.867,419.581 86.271,307.646  "/>
<polygon fill="#6a0f30" points="140.060,240.145 186.541,408.776 403.504,128.896  "/>
<polygon fill="#645ebe" points="80.652,107.693 242.553,2.555 187.071,514.455  "/>
<polygon fill="#1734f2" points="533.579,97.250 27.415,486.920 215.893,518.935  "/>
<polygon fill="#5d4805" points="195.931,419.689 197.262,406.072 471.194,103.396  "/>
<polygon fill="#2d4574" points="411.590,460.182 195.462,221.556 287.919,72.061  "/>
<polygon fill="#73f608" points="2.054,257.928 569.587,499.514 101.122,156.954  "/>
<polygon fill="#c96992" points="420.384,575.958 370.163,505.618 432.836,332.703  "/>
<polygon fill="#92b0ae" points="479.499,576.311 66.346,563.938 494.150,33.750  "/>
<polygon fill="#b3ea2b" points="545.355,397.631 430.616,214.381 133.106,494.102  "/>
<polygon fill="#aa4520" points="585.463,263.534 532.335,264.489 252.678,305.970  "/>
<polygon fill="#f617ab" points="481.043,441.726 53.060,510.004 148.523,27.267  "/>
<polygon fill="#ae5b8d" points="562.657,315.922 589.805,358.183 159.231,329.121  "/>
<polygon fill="#ed98d5" points="579.695,456.797 466.207,273.333 418.302,112.696  "/>
<polygon fill="#8200ae" points="114.486,128.538 37.465,122.948 481.794,431.434  "/>
<polygon fill="#7d2604" points="279.640,341.625 125.862,203.339 528.451,5.023  "/>
<polygon fill="#3677eb" points="410.708,581.219 305.996,28.159 399.677,383.692  "/>
<polygon fill="#1676af" points="439.736,117.013 285.578,33.754 393.320,237.648  "/>
<polygon fill="#3d65ed" points="19.937,337.611 480.909,437.123 571.357,373.723  "/>
<polygon fill="#15f944" points="223.927,528.748 44.561,367.334 461.635,118.775  "/>
<polygon fill="#5cea66" points="177.210,92.192 251.609,164.114 265.263,52.288  "/>
<polygon fill="#8b115d" points="37.032,136.516 593.258,172.403 367.352,103.266  "/>
<polygon fill="#d4b841" points="313.262,339.263 346.717,217.402 126.215,51.985  "/>
<polygon fill="#7f2b3b" points="281.643,110.667 546.950,185.404 375.870,453.858  "/>
<polygon fill="#31c864" points="200.050,237.682 314.721,472.766 305.236,512.834  "/>
<polygon fill="#c25f01" points="327.698,74.020 214.999,543.992 204.632,529.107  "/>
<polygon fill="#da4fa3" points="232.090,44.793 84.607,19.240 162.008,333.601  "/>
<polygon fill="#dd347d" points="124.643,328.681 278.028,549.499 520.398,341.848  "/>
<polygon fill="#30ab4b" points="229.025,48.394 420.494,42.943 242.765,472.608  "/>
<polygon fill="#fe6b36" points="173.446,267.570 248.746,64.754 77.062,208.454  "/>
<polygon fill="#ce2ad5" points="47.097,508.845 264.196,551.817 229.097,457.659  "/>
<polygon fill="#b36176" points="544.448,199.419 520.702,227.236 66.910,32.619  "/>
<polygon fill="#b2e432" points="409.710,114.689 120.358,349.171 397.252,543.628  "/>
<polygon fill="#5c07ae" points="343.642,184.576 434.372,281.333 396.703,33.434  "/>
<polygon fill="#2ca3af" points="40.053,327.157 413.868,95.787 99.629,270.632  "/>
<polygon fill="#82209d" points="304.221,374.720 566.495,497.583 422.982,569.137  "/>
<polygon fill="#259bd1" points="404.787,347.566 124.937,243.032 45.977,483.631  "/>
<polygon fill="#49e981" points="252.389,533.537 530.006,17.679 275.391,215.902  "/>
<polygon fill="#badeeb" points="430.761,563.020 272.149,522.884 144.480,322.625  "/>
<polygon fill="#f09e56" points="39.409,211.920 263.931,237.368 385.426,204.141  "/>
<polygon fill="#9b2809" points="387.934,189.499 39.722,61.087 379.287,526.213  "/>
<polygon fill="#ac0fac" points="112.289,151.585 161.448,464.310 288.040,148.290  "/>
<polygon fill="#bd9cca" points="451.445,385.457 546.156,44.112 355.146,345.159  "/>
<polygon fill="#a34496" points="358.834,32.542 174.670,342.001 416.607,324.514  "/>
<polygon fill="#c850b0" points="461.226,337.888 94.300,33.888 279.765,565.888  "/>
<polygon fill="#40e6ba" points="89.376,174.172 74.986,77.289 58.696,555.809  "/>
<polygon fill="#5cd2d6" points="28.998,321.740 141.566,586.479 72.079,412.890  "/>
<polygon fill="#454dd0" points="576.782,108.779 396.067,280.940 201.561,502.289  "/>
<polygon fill="#40bca5" points="86.267,215.303 250.577,144.097 302.805,215.715  "/>
<polygon fill="#b21298" points="130.072,429.190 427.189,336.262 444.516,59.567  "/>
<polygon fill="#1ee7bb" points="244.113,14.250 195.963,448.402 61.397,363.588  "/>
<polygon fill="#4ef34b" points="97.333,587.392 181.251,280.856 560.799,369.128  "/>
<polygon fill="#70a941" points="207.252,354.380 318.531,141.505 472.413,591.511  "/>
<polygon fill="#35d143" points="15.477,205.929 524.992,534.611 473.130,5.311  "/>
<polygon fill="#ee08b1" points="447.747,191.423 155.616,532.726 68.077,422.585  "/>
<polygon fill="#b64dca" points="290.001,443.560 312.245,266.394 38.454,540.504  "/>
<polygon fill="#d0f4f0" points="41.036,517.151 351.564,16.456 441.000,71.405  "/>
<polygon fill="#c56dad" points="292.860,74.589 576.532,158.951 57.555,168.764  "/>
<polygon fill="#3af574" points="580.601,22.320 500.036,367.182 245.784,184.705  "/>
<polygon fill="#68ca1d" points="488.424,285.597 511.351,22.704 89.231,537.742  "/>
<polygon fill="#5b2d35" points="184.224,17.808 283.619,149.173 204.091,60.561  "/>
<polygon fill="#65f1db" points="70.184,476.856 572.816,485.830 595.934,512.436  "/>
</svg>