<?xml version="1.0" encoding="utf-8"?>
<!-- Generator: Python script. InTeResTinG -->
<!DOCTYPE svg PUBLIC "-//W3C//DTD SVG 1.1//EN" "http://www.w3.org/Graphics/SVG/1.1/DTD/svg11.dtd">
<svg version="1.1" id="Layer_1" xmlns="http://www.w3.org/2000/svg" xmlns:xlink="http://www.w3.org/1999/xlink" x="0px" y="0px" width="600.000px" height="600.000px" viewBox="0 0 600.000 600.000" enable-background="new 0 0 600.000 600.000" xml:space="preserve">
<polygon fill="#3171b8" points="189.593,287.678 173.577,93.208 524.700,523.395  "/>
<polygon fill="#a78ece" points="511.423,595.737 434.810,361.243 318.089,44.090  "/>
<polygon fill="#9a2eca" points="132.087,110.787 298.766,167.612 96.483,356.371  "/>
<polygon fill="#9c45f7" points="46.239,467.184 268.665,577.754 358.000,348.123  "/>
<polygon fill="#7a5d04" points="89.598,436.896 61.506,530.643 19.235,527.593  "/>
<polygon fill="#85e28e" points="92.312,7.066 477.757,304.764 507.946,498.317  "/>
<polygon fill="#f77c8b" points="411.101,444.868 32.614,112.427 352.166,145.434  "/>
<polygon fill="#2008f2" points="293.291,501.226 37.872,56.525 21.779,137.925  "/>
<polygon fill="#71300f" points="186.831,544.315 518.327,549.090 424.829,591.930  "/>
<polygon fill="#28a479" points="383.401,77.412 210.429,131.168 170.665,244.650  "/>
<polygon fill="#9e8f99" points="522.826,522.761 124.789,520.746 577.158,9.667  "/>
<polygon fill="#c06a0d" points="147.374,428.385 304.674,342.389 581.889,157.335  "/>
<polygon fill="#4a0860" points="543.350,329.364 389.707,491.151 110.387,68.381  "/>
<polygon fill="#612fda" points="282.025,541.258 367.032,17.728 194.252,449.012  "/>
<polygon fill="#fae4d8" points="377.855,505.783 593.086,320.076 215.117,409.872  "/>
<polygon fill="#9a9b5b" points="526.023,257.712 206.848,482.385 211.604,188.619  "/>
<polygon fill="#1b181c" points="552.602,560.615 365.849,308.672 299.016,388.750  "/>
<polygon fill="#cf4b03" points="203.035,91.251 201.078,315.819 369.151,352.211  "/>
<polygon fill="#9d526a" points="468.370,259.342 124.735,525.652 205.980,504.480  "/>
<polygon fill="#d02f31" points="92.262,323.029 253.519,425.566 520.802,397.287  "/>
<polygon fill="#a5f6cd" points="449.439,305.695 176.674,425.062 198.301,534.587  "/>
<polygon fill="#1912fd" points="474.941,406.449 504.146,87.064 544.444,135.550  "/>
<polygon fill="#54ad32" points="53.707,549.605 397.573,17.679 267.344,339.193  "/>
<polygon fill="#506809" points="461.794,134.156 502.799,420.546 333.416,197.101  "/>
<polygon fill="#2f37d8" points="403.905,425.838 248.136,26.285 481.192,358.866  "/>
<polygon fill="#f10316" points="195.918,447.201 509.989,332.207 67.668,311.427  "/>
<polygon fill="#f8e698" points="454.280,559.343 458.021,548.800 455.837,264.559  "/>
<polygon fill="#ef9165" points="297.651,229.696 511.055,375.300 18.725,423.601  "/>
<polygon fill="#4be4ed" points="289.130,132.346 11.363,222.681 414.943,490.836  "/>
<polygon fill="#1164be" points="165.121,74.957 217.612,331.307 564.057,528.717  "/>
<polygon fill="#05e7dd" points="79.310,51.974 252.636,527.681 222.611,520.330  "/>
<polygon fill="#9962a7" points="395.059,588.973 223.447,526.466 89.469,183.900  "/>
<polygon fill="#c41704" points="521.817,569.893 463.862,343.832 254.475,177.672  "/>
<polygon fill="#70a895" points="237.078,464.266 528.398,523.016 159.493,197.051  "/>
<polygon fill="#00378d" points="181.507,182.976 41.031,206.076 441.551,350.250  "/>
<polygon fill="#a86a73" points="377.733,358.140 330.833,107.832 3.413,1.637  "/>
<polygon fill="#1cf48c" points="147.458,111.730 575.050,308.979 161.805,336.117  "/>
<polygon fill="#7f5a5e" points="590.099,500.251 283.987,364.217 52.782,244.914  "/>
<polygon fill="#5ec456" points="60.363,549.381 527.958,594.483 543.133,477.320  "/>
<polygon fill="#32f1d2" points="195.626,25.704 129.637,418.835 418.598,157.378  "/>
<polygon fill="#5e92bf" points="62.352,557.717 28.619,537.709 421.420,405.735  "/>
<polygon fill="#939895" points="519.264,370.398 295.423,176.431 222.694,164.400  "/>
<polygon fill="#1d4981" points="11.575,141.644 8.856,194.522 598.554,581.526  "/>
<polygon fill="#7753c0" points="494.340,233.642 372.241,455.985 9.165,363.564  "/>
<polygon fill="#e5a4c7" points="76.672,584.503 565.285,110.964 163.406,513.436  "/>
<polygon fill="#451840" points="13.881,486.734 239.777,258.689 356.841,219.882  "/>
<polygon fill="#c6918d" points="479.231,344.382 27.124,148.114 351.321,490.638  "/>
<polygon fill="#c82707" points="436.010,514.876 65.478,108.360 260.726,381.492  "/>
<polygon fill="#9c3e2c" points="363.258,258.865 506.078,487.098 302.001,206.443  "/>
<polygon fill="#cc6c7a" points="543.733,73.356 151.399,419.792 232.181,586.292  "/>
<polygon fill="#5f532b" points="317.452,125.712 164.869,381.756 235.498,564.001  "/>
</svg>