<?xml version="1.0" encoding="utf-8"?>
<!-- Generator: Python script. InTeResTinG -->
<!DOCTYPE svg PUBLIC "-//W3C//DTD SVG 1.1//EN" "http://www.w3.org/Graphics/SVG/1.1/DTD/svg11.dtd">
<svg version="1.1" id="Layer_1" xmlns="http://www.w3.org/2000/svg" xmlns:xlink="http://www.w3.org/1999/xlink" x="0px" y="0px" width="600.000px" height="600.000px" viewBox="0 0 600.000 600.000" enable-background="new 0 0 600.000 600.000" xml:space="preserve">
<polygon fill="#714308" points="72.140,17.199 316.809,249.427 440.226,181.903  "/>
<polygon fill="#619830" points="191.393,474.087 502.803,67.132 599.327,557.237  "/>
<polygon fill="#47ef69" points="249.766,257.724 424.038,95.401 520.723,75.586  "/>
<polygon fill="#a797bf" points="29.863,416.205 36.444,168.217 272.405,494.056  "/>
<polygon fill="#0bdaa7" points="370.636,111.900 149.290,147.039 62.208,569.265  "/>
<polygon fill="#666b18" points="300.124,178.640 480.609,553.523 443.367,169.764  "/>
<polygon fill="#4abdd9" points="32.883,98.244 494.170,196.094 203.444,474.355  "/>
<polygon fill="#b8468e" points="417.563,202.838 330.894,460.320 121.487,267.321  "/>
<polygon fill="#526e2b" points="541.539,114.567 138.467,154.929 37.864,596.218  "/>
<polygon fill="#9937e3" points="15.607,596.536 296.340,236.462 71.639,555.125  "/>
<polygon fill="#8b1a94" points="396.014,185.493 154.178,30.770 186.494,498.495  "/>
<polygon fill="#a955d9" points="355.491,571.500 261.142,390.009 297.739,368.328  "/>
<polygon fill="#d2040e" points="468.969,295.944 335.287,594.714 232.906,491.561  "/>
<polygon fill="#94b943" points="107.812,164.662 370.577,338.211 581.635,347.539  "/>
<polygon fill="#a3c2e6" points="307.275,237.353 257.632,569.947 180.294,421.509  "/>
<polygon fill="#e88343" points="319.159,373.511 451.807,212.240 156.517,335.762  "/>
<polygon fill="#f06b48" points="183.333,401.020 19.632,21.217 592.250,76.286  "/>
<polygon fill="#e1f5bd" points="77.308,172.140 80.603,92.101 104.613,214.970  "/>
<polygon fill="#b2ebdd" points="301.829,442.576 15.211,34.443 118.164,297.468  "/>
<polygon fill="#7dfff6" points="173.862,415.746 542.889,164.944 466.645,286.108  "/>
<polygon fill="#02875f" points="324.910,338.044 136.798,593.998 104.652,492.141  "/>
<polygon fill="#825578" points="511.787,440.998 129.727,94.948 512.310,264.506  "/>
<polygon fill="#9a9880" points="222.744,380.229 84.264,110.672 380.347,263.268  "/>
<polygon fill="#913ba4" points="269.187,46.325 239.219,92.246 439.116,599.486  "/>
<polygon fill="#2d7799" points="556.970,358.920 326.661,449.129 343.814,534.015  "/>
<polygon fill="#f0e6f8" points="320.844,291.419 16.978,75.861 6.810,196.433  "/>
<polygon fill="#44b6d9" points="377.782,41.570 261.627,585.228 385.960,121.969  "/>
<polygon fill="#4d2d1d" points="270.859,304.456 205.067,311.219 290.040,382.991  "/>
<polygon fill="#2a0128" points="387.681,485.266 16.515,220.431 38.234,23.703  "/>
<polygon fill="#6eaa72" points="441.583,14.939 317.202,510.513 382.271,203.499  "/>
<polygon fill="#3c5211" points="76.992,22.280 420.097,357.279 572.013,197.343  "/>
<polygon fill="#1edcb3" points="54.668,389.577 397.002,155.987 21.166,518.118  "/>
<polygon fill="#5888e9" points="526.348,267.736 553.130,485.093 599.267,382.263  "/>
<polygon fill="#9c7e49" points="382.176,206.546 336.868,110.612 19.689,116.785  "/>
<polygon fill="#81373e" points="468.091,523.754 486.698,163.167 366.203,305.140  "/>
<polygon fill="#bb9f6f" points="55.851,68.440 507.789,492.010 14.245,576.877  "/>
<polygon fill="#3be41e" points="489.413,136.993 13.722,193.622 394.873,454.766  "/>
<polygon fill="#1a8a73" points="98.870,418.799 594.702,219.403 310.557,408.215  "/>
<polygon fill="#12a1ea" points="285.022,496.724 117.794,598.015 404.826,305.188  "/>
<polygon fill="#48d408" points="555.634,536.209 109.128,484.247 266.094,355.078  "/>
<polygon fill="#d868b0" points="82.656,374.240 48.108,381.885 201.351,307.853  "/>
<polygon fill="#1b1df8" points="193.445,224.660 346.463,552.422 504.092,58.695  "/>
<polygon fill="#8f0568" points="256.133,303.020 277.268,312.220 92.559,480.159  "/>
<polygon fill="#bd0bdf" points="80.957,564.553 36.694,505.887 531.120,86.781  "/>
<polygon fill="#efb3e8" points="597.070,186.038 329.052,130.810 462.933,142.099  "/>
<polygon fill="#ccd651" points="599.624,133.309 302.791,5.831 537.137,177.070  "/>
<polygon fill="#048151" points="65.274,272.715 415.785,313.621 190.359,209.410  "/>
<polygon fill="#129c29" points="230.710,21.333 392.951,218.567 385.730,6.957  "/>
<polygon fill="#bc9d12" points="174.066,17.194 44.853,237.612 331.407,211.913  "/>
<polygon fill="#3a539f" points="339.736,517.566 516.285,108.716 366.049,456.812  "/>
<polygon fill="#18e7e2" points="39.447,400.863 162.199,280.803 75.702,450.548  "/>
<polygon fill="#ce36cc" points="424.803,536.456 370.858,504.296 63.207,506.350  "/>
<polygon fill="#706834" points="139.456,404.848 88.337,244.254 169.215,259.421  "/>
<polygon fill="#58d072" points="186.177,381.830 15.420,525.660 299.831,63.960  "/>
<polygon fill="#556d1f" points="256.999,29.024 378.244,170.530 509.913,305.044  "/>
<polygon fill="#164951" points="132.533,453.457 517.477,437.905 498.505,415.449  "/>
<polygon fill="#d224f8" points="574.789,509.136 243.780,152.284 87.395,347.724  "/>
<polygon fill="#48cc68" points="320.972,202.608 527.001,528.394 260.131,204.123  "/>
<polygon fill="#806273" points="379.497,201.271 185.335,168.347 502.761,169.833  "/>
<polygon fill="#3227c2" points="36.634,362.337 440.514,89.343 208.878,346.174  "/>
<polygon fill="#afc8b1" points="430.765,441.088 463.841,96.801 510.247,249.091  "/>
<polygon fill="#661b8e" points="67.620,304.927 234.918,208.611 60.519,236.471  "/>
<polygon fill="#9ea7f0" points="262.036,317.895 46.857,201.487 500.887,263.647  "/>
<polygon fill="#4499db" points="410.447,90.640 535.860,463.858 330.716,579.287  "/>
<polygon fill="#f6a6b8" points="236.058,101.276 410.545,358.269 540.792,398.941  "/>
<polygon fill="#bc5d87" points="455.939,461.990 189.874,247.970 429.459,291.488  "/>
<polygon fill="#366a5d" points="201.275,469.481 332.712,575.161 55.018,293.653  "/>
</svg>