<?xml version="1.0" encoding="utf-8"?>
<!-- Generator: Python script. InTeResTinG -->
<!DOCTYPE svg PUBLIC "-//W3C//DTD SVG 1.1//EN" "http://www.w3.org/Graphics/SVG/1.1/DTD/svg11.dtd">
<svg version="1.1" id="Layer_1" xmlns="http://www.w3.org/2000/svg" xmlns:xlink="http://www.w3.org/1999/xlink" x="0px" y="0px" width="600.000px" height="600.000px" viewBox="0 0 600.000 600.000" enable-background="new 0 0 600.000 600.000" xml:space="preserve">
<polygon fill="#9cf0ea" points="491.074,525.489 379.393,226.538 108.110,117.806  "/>
<polygon fill="#67d30c" points="218.346,143.813 261.525,401.975 548.268,197.482  "/>
<polygon fill="#59efb5" points="427.704,297.252 456.685,325.008 566.430,473.388  "/>
<polygon fill="#decd33" points="278.516,589.031 267.694,499.687 495.757,288.453  "/>
<polygon fill="#866b3d" points="314.468,333.824 519.949,267.164 354.498,387.750  "/>
<polygon fill="#043f84" points="35.403,235.147 554.604,256.194 531.376,109.981  "/>
<polygon fill="#98837b" points="63.135,136.358 346.548,251.560 341.695,445.336  "/>
<polygon fill="#9c5759" points="14.159,321.661 509.244,274.756 214.953,287.077  "/>
<polygon fill="#46f09b" points="523.050,306.506 431.122,27.734 502.552,342.367  "/>
<polygon fill="#b90fc7" points="331.800,72.695 578.425,486.223 13.517,161.618  "/>
<polygon fill="#e633c0" points="514.496,338.376 426.854,168.534 502.502,195.704  "/>
<polygon fill="#47352f" points="160.575,110.508 442.829,152.423 128.624,402.421  "/>
<polygon fill="#391821" points="70.791,345.455 567.294,577.341 495.320,327.133  "/>
<polygon fill="#3dd2c6" points="68.620,506.940 582.779,479.971 166.495,517.377  "/>
<polygon fill="#9fbee4" points="367.658,134.671 541.245,538.262 284.454,303.020  "/>
<polygon fill="#adb6ce" points="126.385,216.695 367.892,422.075 569.371,512.338  "/>
<polygon fill="#6dcaa2" points="207.666,217.262 505.790,392.562 153.499,521.752  "/>
<polygon fill="#8d78ad" points="253.573,178.392 170.719,159.738 163.888,516.976  "/>
<polygon fill="#12173d" points="409.117,387.660 176.724,95.401 6.727,234.431  "/>
<polygon fill="#145139" points="437.664,460.921 239.276,199.891 511.030,335.379  "/>
<polygon fill="#6201a9" points="140.406,434.395 415.409,132.616 10.182,449.387  "/>
<polygon fill="#0c0af0" points="444.171,138.510 147.214,407.031 252.252,439.757  "/>
<polygon fill="#c8df92" points="32.128,218.852 59.941,346.991 261.383,329.860  "/>
<polygon fill="#83e8fb" points="37.553,599.806 346.907,108.861 416.863,376.486  "/>
<polygon fill="#db3144" points="506.823,21.669 167.109,136.750 39.709,241.573  "/>
<polygon fill="#9d880c" points="198.658,152.886 175.447,307.032 531.820,583.658  "/>
<polygon fill="#8e02e0" points="235.038,520.220 251.521,407.331 329.148,562.527  "/>
<polygon fill="#4a2f7c" points="72.307,374.190 588.035,54.111 409.233,428.692  "/>
<polygon fill="#707ecf" points="259.756,528.408 101.001,215.033 351.289,165.449  "/>
<polygon fill="#e09d7b" points="407.100,309.708 4.383,100.267 170.553,247.110  "/>
<polygon fill="#f79083" points="546.407,564.913 456.867,220.484 67.006,95.279  "/>
<polygon fill="#11df3d" points="290.967,526.287 569.846,68.294 456.105,82.184  "/>
<polygon fill="#e6de09" points="146.633,469.595 579.289,125.875 86.218,585.905  "/>
<polygon fill="#e44a11" points="310.858,410.459 173.966,263.787 487.746,408.274  "/>
<polygon fill="#0341be" points="127.127,544.564 556.839,37.427 383.095,318.734  "/>
<polygon fill="#8da911" points="598.564,194.110 233.690,185.947 279.948,305.749  "/>
<polygon fill="#f20ecc" points="140.492,539.551 432.857,215.499 91.584,71.217  "/>
<polygon fill="#b13e4d" points="393.223,93.422 503.471,462.292 346.087,227.973  "/>
<polygon fill="#1e6606" points="79.662,511.513 219.331,150.093 578.278,25.009  "/>
<polygon fill="#ef018b" points="564.474,187.369 310.733,397.205 296.322,466.358  "/>
<polygon fill="#2b7bc5" points="505.726,102.420 173.344,14.520 393.709,72.960  "/>
<polygon fill="#adcb2d" points="207.160,196.480 598.655,26.829 59.311,130.582  "/>
<polygon fill="#76fa99" points="356.059,294.598 80.372,15.468 433.947,309.515  "/>
<polygon fill="#cd0f7f" points="450.976,368.714 537.364,462.185 32.136,558.965  "/>
<polygon fill="#f67e03" points="397.443,504.027 241.888,400.731 477.652,146.255  "/>
<polygon fill="#f45088" points="117.568,299.070 313.379,479.333 570.461,253.649  "/>
<polygon fill="#855bed" points="540.867,407.167 256.031,431.900 253.160,353.632  "/>
<polygon fill="#9b0576" points="520.665,136.105 359.695,387.657 429.470,110.433  "/>
<polygon fill="#6ff801" points="264.411,98.243 469.498,43.138 372.800,207.111  "/>
<polygon fill="#4ff671" points="357.708,270.635 426.589,208.253 596.814,130.994  "/>
<polygon fill="#ce780f" points="268.403,450.964 140.624,436.594 587.642,146.285  "/>
</svg>