<?xml version="1.0" encoding="utf-8"?>
<!-- Generator: Python script. InTeResTinG -->
<!DOCTYPE svg PUBLIC "-//W3C//DTD SVG 1.1//EN" "http://www.w3.org/Graphics/SVG/1.1/DTD/svg11.dtd">
<svg version="1.1" id="Layer_1" xmlns="http://www.w3.org/2000/svg" xmlns:xlink="http://www.w3.org/1999/xlink" x="0px" y="0px" width="600.000px" height="600.000px" viewBox="0 0 600.000 600.000" enable-background="new 0 0 600.000 600.000" xml:space="preserve">
<polygon fill="#a98f8b" points="204.153,140.627 446.480,245.932 105.935,407.916  "/>
<polygon fill="#0058b3" points="199.832,482.696 278.978,376.356 500.535,133.149  "/>
<polygon fill="#be089e" points="275.106,152.763 185.049,86.002 466.327,375.928  "/>
<polygon fill="#d7ff7b" points="565.922,479.022 51.907,13.316 376.008,162.500  "/>
<polygon fill="#3d2a37" points="442.464,25.560 356.267,430.691 285.819,297.079  "/>
<polygon fill="#b9206d" points="132.130,379.600 361.687,13.574 525.787,15.439  "/>
<polygon fill="#90f569" points="161.847,560.228 424.807,191.477 440.351,89.521  "/>
<polygon fill="#7fe243" points="134.247,53.055 565.418,233.826 587.684,297.984  "/>
<polygon fill="#62d215" points="528.755,518.936 430.023,96.064 333.128,558.061  "/>
<polygon fill="#198529" points="257.646,175.906 11.521,417.743 526.350,51.503  "/>
<polygon fill="#84db56" points="531.732,346.062 336.230,1.784 522.582,276.112  "/>
<polygon fill="#50d07d" points="500.383,82.027 118.047,258.468 416.593,267.527  "/>
<polygon fill="#d866b1" points="207.821,357.008 144.381,562.920 595.250,39.457  "/>
<polygon fill="#392e6c" points="435.839,30.020 72.453,228.166 314.121,485.478  "/>
<polygon fill="#4d892b" points="115.377,45.777 404.727,22.363 148.762,205.852  "/>
<polygon fill="#89568e" points="523.867,599.089 285.004,340.326 381.941,180.638  "/>
<polygon fill="#28a068" points="464.024,368.836 117.459,35.333 167.006,19.164  "/>
<polygon fill="#28f83b" points="561.962,152.400 553.789,236.217 15.356,264.175  "/>
<polygon fill="#cd1b59" points="556.513,95.342 467.019,529.118 369.478,147.841  "/>
<polygon fill="#dcaa93" points="449.077,323.578 116.674,42.695 370.552,119.299  "/>
<polygon fill="#6b7142" points="51.022,575.828 138.226,358.764 331.416,40.029  "/>
<polygon fill="#a374b2" points="553.382,262.910 111.385,122.396 329.818,456.329  "/>
<polygon fill="#1e6674" points="188.128,39.804 219.774,105.808 512.703,508.156  "/>
<polygon fill="#275ccd" points="205.787,502.735 66.419,246.283 34.302,207.151  "/>
<polygon fill="#ba1256" points="71.983,20.184 319.011,241.678 454.248,170.820  "/>
<polygon fill="#a87093" points="353.482,176.128 132.903,176.408 267.835,313.076  "/>
<polygon fill="#8e2391" points="151.841,158.788 377.870,431.147 131.778,224.402  "/>
<polygon fill="#e6dcb6" points="217.031,147.527 493.121,256.245 525.454,134.657  "/>
<polygon fill="#c3eeaa" points="210.239,104.036 97.897,287.376 126.550,489.876  "/>
<polygon fill="#b2c466" points="201.563,183.677 498.844,373.843 401.193,117.782  "/>
<polygon fill="#473dd9" points="72.815,401.898 146.289,178.712 473.918,398.860  "/>
<polygon fill="#b76dac" points="82.345,386.285 69.625,480.487 289.086,164.662  "/>
<polygon fill="#4be743" points="69.562,48.107 91.886,569.287 445.947,374.489  "/>
<polygon fill="#c3e6e0" points="350.172,531.568 12.817,461.667 289.642,114.343  "/>
<polygon fill="#81ea06" points="57.958,92.163 473.908,392.425 247.767,583.719  "/>
<polygon fill="#c2e596" points="331.136,558.601 492.802,383.498 182.893,278.214  "/>
<polygon fill="#f46647" points="575.736,12.226 552.094,65.819 460.589,314.585  "/>
<polygon fill="#cf2f9b" points="584.935,62.406 542.404,106.884 171.868,69.052  "/>
<polygon fill="#c79f70" points="326.001,131.976 62.968,396.357 264.431,200.826  "/>
<polygon fill="#e75e18" points="235.360,129.484 345.392,303.665 357.596,553.518  "/>
<polygon fill="#38c7d4" points="156.337,182.456 324.999,442.237 14.520,447.325  "/>
<polygon fill="#c0748c" points="176.578,231.268 135.346,466.950 476.822,62.020  "/>
<polygon fill="#4e1257" points="203.374,576.326 468.422,448.316 27.083,520.199  "/>
<polygon fill="#6231fb" points="306.471,403.733 200.048,521.407 242.058,524.312  "/>
<polygon fill="#b7da46" points="452.352,507.445 353.459,38.324 290.331,452.795  "/>
<polygon fill="#c35d66" points="490.252,340.356 372.935,293.535 57.901,508.820  "/>
<polygon fill="#7f61f7" points="500.113,254.777 140.733,499.826 225.541,18.563  "/>
<polygon fill="#debb50" points="121.968,122.387 498.739,191.390 576.467,535.698  "/>
<polygon fill="#b9342c" points="566.039,100.934 515.550,360.581 214.392,106.284  "/>
<polygon fill="#a48ee0" points="46.714,94.073 242.210,70.090 441.455,490.560  "/>
<polygon fill="#ba3f76" points="383.349,305.698 95.298,21.351 226.623,25.286  "/>
<polygon fill="#2a41a1" points="422.670,190.966 93.102,476.526 363.920,61.575  "/>
<polygon fill="#a54f8c" points="584.641,579.401 134.270,286.973 206.566,18.578  "/>
<polygon fill="#a4f2cd" points="100.249,202.959 500.444,187.540 126.806,7.787  "/>
<polygon fill="#6422f6" points="48.760,112.680 374.843,33.492 86.307,107.606  "/>
</svg>