<?xml version="1.0" encoding="utf-8"?>
<!-- Generator: Python script. InTeResTinG -->
<!DOCTYPE svg PUBLIC "-//W3C//DTD SVG 1.1//EN" "http://www.w3.org/Graphics/SVG/1.1/DTD/svg11.dtd">
<svg version="1.1" id="Layer_1" xmlns="http://www.w3.org/2000/svg" xmlns:xlink="http://www.w3.org/1999/xlink" x="0px" y="0px" width="600.000px" height="600.000px" viewBox="0 0 600.000 600.000" enable-background="new 0 0 600.000 600.000" xml:space="preserve">
<polygon fill="#d905ed" points="420.030,233.577 435.488,471.056 262.919,184.794  "/>
<polygon fill="#694f30" points="222.228,507.084 323.051,599.017 551.395,215.822  "/>
<polygon fill="#95d09a" points="292.823,15.153 32.893,254.329 480.126,478.404  "/>
<polygon fill="#956d4f" points="510.473,341.461 523.344,25.692 507.710,584.052  "/>
<polygon fill="#b823b6" points="487.456,370.410 353.902,515.568 497.256,423.515  "/>
<polygon fill="#0c6ca9" points="33.240,463.097 432.317,326.740 448.743,42.312  "/>
<polygon fill="#c09127" points="325.131,45.786 48.552,300.207 260.513,503.093  "/>
<polygon fill="#dfe095" points="475.736,70.614 91.754,510.578 332.931,345.438  "/>
<polygon fill="#ed2d26" points="8.902,101.266 291.026,206.394 348.606,48.691  "/>
<polygon fill="#be0f9e" points="47.042,563.810 587.862,394.448 31.557,404.382  "/>
<polygon fill="#204ae5" points="445.948,577.707 132.087,201.285 499.913,137.713  "/>
<polygon fill="#06cb4f" points="544.135,402.514 157.324,67.431 413.437,2.686  "/>
<polygon fill="#37e680" points="251.443,553.212 400.485,484.153 434.988,92.953  "/>
<polygon fill="#9ffa82" points="98.962,192.091 440.560,466.297 316.903,443.836  "/>
<polygon fill="#519b7f" points="9.575,64.284 364.293,430.241 84.056,548.174  "/>
<polygon fill="#6b7404" points="512.114,65.901 309.679,238.266 428.527,76.368  "/>
<polygon fill="#7d64ee" points="528.400,13.353 298.431,223.611 465.297,30.413  "/>
<polygon fill="#1c8ebd" points="356.688,76.329 192.005,227.090 549.631,232.833  "/>
<polygon fill="#e49720" points="49.207,412.378 49.368,284.996 164.433,531.299  "/>
<polygon fill="#9e302c" points="514.311,1.829 203.357,279.164 494.483,439.353  "/>
<polygon fill="#502198" points="189.317,464.465 544.245,440.067 351.020,244.062  "/>
<polygon fill="#61f6ee" points="568.353,86.714 488.025,36.087 414.655,24.922  "/>
<polygon fill="#8d0f15" points="182.605,108.027 396.791,122.912 45.446,490.381  "/>
<polygon fill="#d9c0da" points="124.756,31.838 240.953,439.803 28.079,530.583  "/>
<polygon fill="#2b3a68" points="184.154,149.783 414.148,164.175 226.985,270.540  "/>
<polygon fill="#e8a199" points="452.307,81.409 583.939,511.131 421.018,599.170  "/>
<polygon fill="#58dd10" points="269.880,291.759 371.669,366.039 106.988,542.755  "/>
<polygon fill="#e42bae" points="54.032,57.784 485.623,577.791 584.206,427.113  "/>
<polygon fill="#a7ba94" points="355.928,397.971 109.106,200.386 536.370,14.323  "/>
<polygon fill="#dc13b1" points="395.754,148.062 17.540,410.854 385.809,210.258  "/>
<polygon fill="#5b0094" points="435.624,146.003 230.772,292.560 384.179,243.473  "/>
<polygon fill="#a7b1a7" points="93.214,599.689 102.949,48.683 348.785,505.141  "/>
<polygon fill="#7e5264" points="560.321,577.440 42.969,348.795 6.850,577.030  "/>
<polygon fill="#96e8f4" points="15.858,122.885 29.998,561.708 172.874,415.879  "/>
<polygon fill="#e53a07" points="467.456,206.583 117.508,338.148 167.699,38.285  "/>
<polygon fill="#cbb1ae" points="388.792,478.460 190.061,437.902 303.496,125.684  "/>
<polygon fill="#ea813f" points="361.887,424.570 194.020,481.803 445.253,58.234  "/>
<polygon fill="#543870" points="353.854,124.936 159.534,399.046 428.448,328.507  "/>
<polygon fill="#d43177" points="507.340,36.387 574.004,2.674 124.925,444.371  "/>
<polygon fill="#36ba54" points="545.814,525.257 62.958,410.038 76.909,465.277  "/>
<polygon fill="#2f9c4c" points="328.574,406.670 87.100,458.017 432.577,213.713  "/>
<polygon fill="#3f8177" points="283.872,559.996 419.919,89.498 287.273,101.641  "/>
<polygon fill="#06358e" points="41.765,408.037 303.445,480.840 469.394,350.530  "/>
<polygon fill="#91700e" points="346.927,210.556 120.625,393.090 363.490,320.529  "/>
<polygon fill="#578613" points="80.335,243.837 486.883,311.685 553.266,107.577  "/>
<polygon fill="#4f4ea1" points="305.944,340.504 516.158,282.241 487.474,219.111  "/>
<polygon fill="#c4a234" points="55.109,119.274 257.122,375.681 265.725,45.673  "/>
<polygon fill="#61649d" points="424.478,374.172 589.560,420.916 362.100,229.156  "/>
<polygon fill="#e0fc14" points="211.981,73.527 491.588,1.865 110.393,456.215  "/>
<polygon fill="#06fdaa" points="7.369,111.478 428.227,305.267 156.161,160.128  "/>
<polygon fill="#a7e693" points="262.570,340.844 298.418,311.239 20.232,313.786  "/>
<polygon fill="#533c21" points="300.505,503.801 409.352,537.990 247.348,560.024  "/>
<polygon fill="#b53fc9" points="404.690,72.655 28.573,88.819 112.139,80.246  "/>
<polygon fill="#da5072" points="457.750,58.237 259.432,10.079 1.990,134.033  "/>
<polygon fill="#a66b44" points="446.771,255.573 106.813,347.597 50.073,167.786  "/>
</svg>