<?xml version="1.0" encoding="utf-8"?>
<!-- Generator: Python script. InTeResTinG -->
<!DOCTYPE svg PUBLIC "-//W3C//DTD SVG 1.1//EN" "http://www.w3.org/Graphics/SVG/1.1/DTD/svg11.dtd">
<svg version="1.1" id="Layer_1" xmlns="http://www.w3.org/2000/svg" xmlns:xlink="http://www.w3.org/1999/xlink" x="0px" y="0px" width="600.000px" height="600.000px" viewBox="0 0 600.000 600.000" enable-background="new 0 0 600.000 600.000" xml:space="preserve">
<polygon fill="#89ec78" points="228.915,348.255 181.483,10.543 410.819,393.589  "/>
<polygon fill="#e11912" points="335.668,109.158 21.874,134.033 430.527,336.126  "/>
<polygon fill="#ae2eda" points="543.332,41.705 104.257,575.241 560.840,32.047  "/>
<polygon fill="#aaa74f" points="281.648,80.623 322.705,440.890 131.849,177.030  "/>
<polygon fill="#b158bd" points="280.378,426.498 347.032,196.882 361.935,63.076  "/>
<polygon fill="#28a81f" points="167.133,392.196 400.468,444.204 88.938,165.934  "/>
<polygon fill="#41fd4f" points="61.101,250.988 341.443,70.414 188.816,469.577  "/>
<polygon fill="#a23cef" points="422.585,496.788 156.305,276.170 45.970,301.723  "/>
<polygon fill="#ae3688" points="489.443,95.395 461.919,207.321 210.818,314.463  "/>
<polygon fill="#ad72aa" points="396.024,415.188 387.612,593.244 233.996,588.709  "/>
<polygon fill="#a775e1" points="108.525,545.036 534.355,182.750 47.379,227.429  "/>
<polygon fill="#d2c2ae" points="162.166,432.170 528.152,559.251 514.685,403.726  "/>
<polygon fill="#a3df51" points="32.269,138.135 587.822,371.947 471.775,141.301  "/>
<polygon fill="#780f89" points="63.538,186.991 495.253,327.824 37.110,473.328  "/>
<polygon fill="#581e35" points="217.118,0.095 114.559,528.043 267.470,583.729  "/>
<polygon fill="#63d651" points="115.032,587.201 196.962,337.378 501.147,241.844  "/>
<polygon fill="#2487f0" points="523.081,290.366 108.858,67.391 10.429,263.995  "/>
<polygon fill="#3d19f1" points="164.249,108.368 521.648,35.902 516.959,103.138  "/>
<polygon fill="#403b01" points="461.059,215.064 498.432,550.192 339.926,550.764  "/>
<polygon fill="#bb3657" points="191.131,313.630 443.604,327.319 414.445,562.528  "/>
<polygon fill="#735955" points="456.276,576.153 186.447,545.566 503.029,2.252  "/>
<polygon fill="#f5211f" points="158.288,38.342 51.078,213.221 381.379,4.452  "/>
<polygon fill="#487373" points="336.709,82.326 266.364,565.511 214.609,519.148  "/>
<polygon fill="#e3b9dd" points="470.899,365.633 521.763,9.652 11.057,291.090  "/>
<polygon fill="#1e05ad" points="146.617,533.735 550.856,565.768 187.820,261.756  "/>
<polygon fill="#c2f4f5" points="551.718,264.335 504.287,411.787 151.524,123.395  "/>
<polygon fill="#da5644" points="581.111,135.758 160.659,517.032 532.886,195.802  "/>
<polygon fill="#449180" points="272.696,97.833 184.052,268.804 514.691,574.938  "/>
<polygon fill="#d0804f" points="491.546,509.338 108.273,71.196 264.316,397.543  "/>
<polygon fill="#763674" points="483.815,376.458 359.962,243.196 560.298,433.407  "/>
<polygon fill="#821e67" points="57.784,325.415 169.357,221.835 491.168,376.722  "/>
<polygon fill="#3f5db2" points="314.902,136.530 448.786,578.803 246.006,385.723  "/>
<polygon fill="#ca186b" points="112.892,133.679 426.850,314.131 580.344,109.703  "/>
<polygon fill="#e5b4b1" points="76.511,348.353 411.077,190.301 106.807,484.860  "/>
<polygon fill="#effa36" points="388.763,383.858 197.202,23.972 155.325,461.297  "/>
<polygon fill="#81c9d5" points="254.729,141.220 178.280,348.574 341.041,242.851  "/>
<polygon fill="#adf2a2" points="512.676,395.515 297.433,108.633 465.296,253.749  "/>
<polygon fill="#75fe94" points="411.701,566.731 332.642,371.064 529.297,378.128  "/>
<polygon fill="#aef956" points="391.112,46.596 394.793,530.634 509.265,248.757  "/>
<polygon fill="#f27a26" points="376.007,26.483 187.554,439.841 220.831,399.385  "/>
<polygon fill="#a51a06" points="183.436,194.569 577.292,299.452 27.517,414.283  "/>
<polygon fill="#475e85" points="199.267,244.667 492.923,541.330 431.648,404.474  "/>
<polygon fill="#a39d34" points="256.239,459.698 213.657,1.387 275.493,257.578  "/>
<polygon fill="#4801fe" points="457.087,357.508 492.036,279.989 363.946,457.532  "/>
<polygon fill="#26c9a1" points="163.129,552.736 277.010,354.294 140.685,403.242  "/>
<polygon fill="#551c92" points="135.683,563.121 508.302,186.162 546.281,304.631  "/>
<polygon fill="#2cbb92" points="471.443,225.827 388.366,409.543 92.519,151.173  "/>
<polygon fill="#6c8832" points="232.610,438.674 72.751,550.085 541.157,11.139  "/>
<polygon fill="#018ca2" points="3.037,484.768 350.872,227.733 517.587,86.173  "/>
<polygon fill="#64291b" points="489.359,187.235 371.338,516.172 167.095,496.073  "/>
<polygon fill="#2c12f4" points="52.402,32.003 5.175,286.065 48.969,149.474  "/>
<polygon fill="#9946ac" points="591.482,212.046 492.047,275.100 181.796,441.583  "/>
<polygon fill="#5a7f6c" points="447.590,173.255 249.839,447.160 87.712,547.404  "/>
<polygon fill="#ffa0a8" points="269.050,486.977 436.059,484.740 8.823,168.727  "/>
<polygon fill="#3035eb" points="427.334,469.766 183.565,523.131 359.061,469.473  "/>
<polygon fill="#65e21e" points="314.886,156.136 275.504,72.801 390.113,542.450  "/>
<polygon fill="#20fe37" points="73.914,108.334 308.629,355.753 337.220,275.282  "/>
<polygon fill="#c7d95d" points="152.368,571.619 25.653,524.307 491.923,479.582  "/>
</svg>