<?xml version="1.0" encoding="utf-8"?>
<!-- Generator: Python script. InTeResTinG -->
<!DOCTYPE svg PUBLIC "-//W3C//DTD SVG 1.1//EN" "http://www.w3.org/Graphics/SVG/1.1/DTD/svg11.dtd">
<svg version="1.1" id="Layer_1" xmlns="http://www.w3.org/2000/svg" xmlns:xlink="http://www.w3.org/1999/xlink" x="0px" y="0px" width="600.000px" height="600.000px" viewBox="0 0 600.000 600.000" enable-background="new 0 0 600.000 600.000" xml:space="preserve">
<polygon fill="#a2d0a3" points="358.355,383.710 465.999,260.773 398.979,486.046  "/>
<polygon fill="#221b49" points="448.596,564.017 201.142,203.650 395.330,541.001  "/>
<polygon fill="#3ef025" points="248.325,222.795 545.029,344.402 321.080,437.419  "/>
<polygon fill="#235a54" points="271.137,50.613 214.165,186.400 453.493,269.215  "/>
<polygon fill="#2752ad" points="225.860,388.617 517.033,175.938 504.524,430.388  "/>
<polygon fill="#caded5" points="195.639,277.082 189.926,68.158 184.424,226.241  "/>
<polygon fill="#73bf26" points="336.783,340.272 332.342,176.954 460.911,277.644  "/>
<polygon fill="#b96848" points="241.287,505.119 18.007,354.469 223.299,270.237  "/>
<polygon fill="#f0e924" points="103.027,529.565 327.683,538.140 147.625,497.354  "/>
<polygon fill="#74ddcf" points="117.584,74.618 192.227,571.984 175.065,233.774  "/>
<polygon fill="#ee163a" points="396.321,89.698 254.301,334.870 242.126,193.644  "/>
<polygon fill="#196ace" points="499.044,278.356 475.638,493.293 311.375,315.642  "/>
<polygon fill="#7538b2" points="274.353,33.008 561.422,406.741 26.252,228.160  "/>
<polygon fill="#91f27f" points="156.121,36.062 191.810,588.006 579.104,57.360  "/>
<polygon fill="#545188" points="31.651,372.430 438.329,422.120 285.949,68.603  "/>
<polygon fill="#1ccb97" points="37.121,341.120 414.085,308.184 292.658,451.814  "/>
<polygon fill="#215eb4" points="373.075,437.910 301.515,448.019 65.335,9.464  "/>
<polygon fill="#bb4cf6" points="262.654,122.378 419.739,481.151 106.831,486.411  "/>
<polygon fill="#93fb4c" points="101.695,293.893 138.844,138.945 597.306,500.776  "/>
<polygon fill="#99d0b8" points="237.418,584.056 47.750,496.543 285.207,215.455  "/>
<polygon fill="#0d05d3" points="111.474,478.409 135.351,70.150 275.818,101.520  "/>
<polygon fill="#5a2e00" points="396.049,301.220 360.934,148.224 325.194,473.693  "/>
<polygon fill="#a963d9" points="135.488,300.282 10.952,21.298 572.551,140.203  "/>
<polygon fill="#f2e8b9" points="573.986,68.918 331.215,378.673 115.769,209.837  "/>
<polygon fill="#82f34a" points="305.161,289.276 236.728,434.650 388.778,345.243  "/>
<polygon fill="#3c8350" points="400.667,391.627 10.036,233.854 336.500,491.395  "/>
<polygon fill="#512f02" points="338.325,399.185 107.860,35.573 565.987,94.093  "/>
<polygon fill="#c09bf7" points="186.815,124.848 513.426,145.969 513.856,240.033  "/>
<polygon fill="#7d6bf2" points="142.200,108.079 153.011,26.898 190.346,186.397  "/>
<polygon fill="#f84385" points="143.923,499.770 367.092,590.453 479.573,349.428  "/>
<polygon fill="#2ed98e" points="362.583,133.766 244.945,87.574 170.837,188.847  "/>
<polygon fill="#f6c1fa" points="218.925,276.097 598.645,292.960 593.467,36.604  "/>
<polygon fill="#c40c6d" points="517.401,166.676 84.863,500.570 544.084,184.469  "/>
<polygon fill="#c9b88f" points="266.446,580.330 484.405,155.197 455.420,334.182  "/>
<polygon fill="#8411c9" points="444.127,370.466 384.681,253.921 354.849,367.039  "/>
<polygon fill="#3ea057" points="240.345,211.890 476.965,580.507 531.989,400.552  "/>
<polygon fill="#2d0af7" points="402.072,355.272 475.935,517.080 27.645,152.272  "/>
<polygon fill="#16dc05" points="103.529,431.942 335.976,14.274 406.636,417.464  "/>
<polygon fill="#b83d01" points="141.453,314.956 178.766,494.529 231.754,19.568  "/>
<polygon fill="#e87e5b" points="411.409,57.424 104.900,341.723 322.749,82.168  "/>
<polygon fill="#afcbf0" points="594.114,539.036 408.757,229.102 223.493,317.714  "/>
<polygon fill="#f2c0ba" points="426.190,70.083 545.036,262.599 516.727,530.004  "/>
<polygon fill="#8b4c15" points="98.464,594.787 576.153,440.315 407.052,360.256  "/>
<polygon fill="#9241e3" points="91.944,447.494 424.822,595.261 231.933,431.679  "/>
<polygon fill="#42cc6c" points="315.743,59.481 549.838,326.503 514.279,410.309  "/>
<polygon fill="#3704ee" points="554.937,516.098 289.881,72.154 524.217,19.856  "/>
<polygon fill="#c230b8" points="536.968,243.200 32.764,251.745 338.432,68.524  "/>
<polygon fill="#e517c2" points="103.745,492.151 381.344,246.801 379.500,72.843  "/>
<polygon fill="#bdb67b" points="365.763,397.862 435.489,581.896 105.588,500.074  "/>
<polygon fill="#edaf28" points="234.938,320.348 333.562,353.705 435.063,547.469  "/>
</svg>