<?xml version="1.0" encoding="utf-8"?>
<!-- Generator: Python script. InTeResTinG -->
<!DOCTYPE svg PUBLIC "-//W3C//DTD SVG 1.1//EN" "http://www.w3.org/Graphics/SVG/1.1/DTD/svg11.dtd">
<svg version="1.1" id="Layer_1" xmlns="http://www.w3.org/2000/svg" xmlns:xlink="http://www.w3.org/1999/xlink" x="0px" y="0px" width="600.000px" height="600.000px" viewBox="0 0 600.000 600.000" enable-background="new 0 0 600.000 600.000" xml:space="preserve">
<polygon fill="#c33bf5" points="157.191,111.457 523.130,366.296 107.663,105.102  "/>
<polygon fill="#0f9819" points="442.456,197.357 557.338,364.770 406.201,511.078  "/>
<polygon fill="#7c2d76" points="151.803,476.759 226.091,75.848 592.320,255.056  "/>
<polygon fill="#045ed6" points="146.744,114.307 382.918,324.039 87.284,544.250  "/>
<polygon fill="#11fc43" points="374.539,98.528 546.119,104.969 477.598,310.207  "/>
<polygon fill="#20265b" points="22.227,50.166 598.797,286.887 83.992,174.316  "/>
<polygon fill="#4447ff" points="134.180,308.264 322.945,225.623 487.086,563.490  "/>
<polygon fill="#bc2bc3" points="26.158,106.291 525.809,265.578 527.313,325.243  "/>
<polygon fill="#eb7388" points="311.626,0.780 434.621,261.155 104.073,66.622  "/>
<polygon fill="#f70757" points="377.991,148.149 263.100,474.597 435.497,96.006  "/>
<polygon fill="#bfa5a9" points="60.822,401.827 279.819,297.813 105.438,456.126  "/>
<polygon fill="#63626a" points="158.118,464.191 513.593,96.247 68.599,381.253  "/>
<polygon fill="#4f37f9" points="446.032,433.600 165.973,222.005 300.842,488.293  "/>
<polygon fill="#e4f1f6" points="327.490,236.794 278.949,43.251 2.951,470.610  "/>
<polygon fill="#d85b46" points="313.631,568.134 395.218,539.662 406.326,167.595  "/>
<polygon fill="#430b5c" points="128.896,207.284 391.063,100.585 47.002,280.153  "/>
<polygon fill="#8e5074" points="272.448,543.475 437.444,227.772 324.386,152.457  "/>
<polygon fill="#1a6fd7" points="406.546,532.607 35.578,523.806 141.298,484.156  "/>
<polygon fill="#c2e2ed" points="151.155,518.297 523.036,428.551 370.661,109.393  "/>
<polygon fill="#5534ce" points="346.209,571.709 391.953,228.587 337.544,251.008  "/>
<polygon fill="#ed096a" points="112.585,196.105 46.530,485.790 188.532,345.302  "/>
<polygon fill="#11123f" points="117.311,133.152 333.493,301.843 537.319,593.117  "/>
<polygon fill="#cb3514" points="225.149,275.692 522.127,87.974 454.064,455.287  "/>
<polygon fill="#81b758" points="429.703,568.829 413.287,402.991 142.579,229.535  "/>
<polygon fill="#8f746f" points="254.289,456.487 565.203,281.940 310.032,155.842  "/>
<polygon fill="#77ff1c" points="94.795,368.179 293.946,12.777 242.160,561.893  "/>
<polygon fill="#823034" points="47.554,503.673 24.058,367.367 126.004,418.115  "/>
<polygon fill="#2823eb" points="589.442,304.754 192.462,61.125 484.282,125.710  "/>
<polygon fill="#daf55f" points="430.268,489.013 404.723,276.357 465.484,572.023  "/>
<polygon fill="#765ee0" points="376.010,138.256 179.451,138.786 483.717,405.452  "/>
<polygon fill="#b534ec" points="229.045,596.518 436.240,292.433 243.614,443.605  "/>
<polygon fill="#419369" points="448.855,579.900 360.135,596.480 36.403,331.935  "/>
<polygon fill="#4c0926" points="476.834,468.352 531.265,346.898 326.502,267.966  "/>
<polygon fill="#94266c" points="174.916,53.370 445.175,301.765 286.704,511.930  "/>
<polygon fill="#d530b8" points="62.348,85.104 121.558,236.615 247.779,502.203  "/>
<polygon fill="#c255f1" points="441.204,566.608 452.647,157.981 22.353,187.654  "/>
<polygon fill="#1f9611" points="86.218,20.179 518.979,231.214 143.618,571.123  "/>
<polygon fill="#60eeeb" points="141.798,26.565 353.108,408.422 330.626,492.942  "/>
<polygon fill="#557524" points="287.774,500.038 486.847,593.249 122.612,520.257  "/>
<polygon fill="#90a635" points="76.497,320.888 530.018,189.882 142.866,557.369  "/>
<polygon fill="#20a2f9" points="253.888,387.162 355.320,314.265 392.191,164.412  "/>
<polygon fill="#77c549" points="324.134,12.519 202.018,182.082 90.414,466.566  "/>
<polygon fill="#68478e" points="372.286,199.410 116.173,353.655 387.608,489.814  "/>
<polygon fill="#62e183" points="544.147,324.003 120.248,186.200 398.760,322.843  "/>
<polygon fill="#eedf17" points="320.578,423.298 286.389,7.478 264.269,381.925  "/>
<polygon fill="#1ffaa6" points="86.178,460.920 160.120,490.930 495.750,452.180  "/>
<polygon fill="#d7bca1" points="81.048,146.952 343.298,97.260 321.743,357.888  "/>
<polygon fill="#375901" points="224.607,593.080 596.465,177.531 254.898,223.265  "/>
<polygon fill="#d98823" points="584.231,285.799 458.526,196.890 375.208,267.662  "/>
<polygon fill="#1e1a03" points="100.357,559.431 33.458,41.609 193.093,474.537  "/>
<polygon fill="#39232d" points="159.187,441.425 351.064,551.828 498.840,410.471  "/>
<polygon fill="#f05172" points="352.899,39.667 14.623,230.451 528.885,291.848  "/>
<polygon fill="#4b1d85" points="107.900,202.830 569.353,62.401 89.953,523.289  "/>
<polygon fill="#579643" points="225.705,546.227 528.301,385.719 304.261,97.066  "/>
<polygon fill="#8f740b" points="184.300,563.084 40.424,9.587 562.049,133.067  "/>
<polygon fill="#df711a" points="224.693,469.233 522.879,64.458 241.621,196.252  "/>
<polygon fill="#5cc87d" points="251.624,3.656 93.880,502.904 543.874,530.268  "/>
<polygon fill="#16a0e0" points="362.238,374.360 231.799,55.689 1.998,126.317  "/>
<polygon fill="#8e2354" points="578.043,261.375 227.828,297.017 232.513,585.591  "/>
<polygon fill="#4791a5" points="17.799,436.144 536.705,198.561 320.865,101.152  "/>
<polygon fill="#4ad452" points="472.877,533.719 137.615,316.147 245.833,311.109  "/>
<polygon fill="#81bb9d" points="345.381,559.656 198.551,426.005 571.814,101.029  "/>
<polygon fill="#dd3ec6" points="536.283,513.005 67.499,135.062 191.295,65.479  "/>
<polygon fill="#dc5f82" points="151.189,330.468 259.329,296.687 441.876,227.276  "/>
<polygon fill="#3fe9b3" points="421.220,399.874 448.162,361.254 340.446,414.101  "/>
<polygon fill="#6e8ff6" points="499.074,536.990 289.622,585.692 478.868,372.829  "/>
<polygon fill="#5748b6" points="60.743,582.686 220.759,210.577 20.897,211.416  "/>
<polygon fill="#d4adc9" points="470.371,380.442 39.251,235.365 91.713,65.763  "/>
<polygon fill="#71c2a5" points="41.178,533.940 476.760,387.961 386.662,15.101  "/>
<polygon fill="#0e6d33" points="315.882,297.207 359.366,267.077 142.450,515.193  "/>
</svg>