<?xml version="1.0" encoding="utf-8"?>
<!-- Generator: Python script. InTeResTinG -->
<!DOCTYPE svg PUBLIC "-//W3C//DTD SVG 1.1//EN" "http://www.w3.org/Graphics/SVG/1.1/DTD/svg11.dtd">
<svg version="1.1" id="Layer_1" xmlns="http://www.w3.org/2000/svg" xmlns:xlink="http://www.w3.org/1999/xlink" x="0px" y="0px" width="600.000px" height="600.000px" viewBox="0 0 600.000 600.000" enable-background="new 0 0 600.000 600.000" xml:space="preserve">
<polygon fill="#5455de" points="75.758,530.207 455.982,450.120 90.545,119.167  "/>
<polygon fill="#651c18" points="80.028,378.115 214.480,459.250 290.407,523.040  "/>
<polygon fill="#93a87d" points="318.634,209.290 500.796,211.734 351.047,294.432  "/>
<polygon fill="#f6c2a6" points="433.299,262.490 74.788,548.696 532.365,109.693  "/>
<polygon fill="#e8b227" points="560.789,301.162 440.737,114.980 437.568,114.773  "/>
<polygon fill="#00ef33" points="229.429,244.767 265.425,478.450 225.401,203.298  "/>
<polygon fill="#49b04d" points="63.010,534.767 190.495,429.127 219.536,70.003  "/>
<polygon fill="#4270e4" points="113.516,274.144 301.560,20.766 486.491,304.606  "/>
<polygon fill="#32043c" points="216.800,458.544 481.446,268.721 572.734,463.737  "/>
<polygon fill="#c2bc43" points="1.442,179.631 368.393,552.295 254.025,233.069  "/>
<polygon fill="#74db9b" points="227.503,454.146 81.480,116.303 276.023,198.966  "/>
<polygon fill="#ae7822" points="463.650,342.422 102.761,193.036 439.961,248.483  "/>
<polygon fill="#e25c96" points="485.533,309.341 344.474,350.461 396.968,178.467  "/>
<polygon fill="#78b30a" points="479.451,193.751 45.744,421.790 99.173,324.805  "/>
<polygon fill="#df2c9f" points="51.367,574.771 317.784,511.000 220.486,353.940  "/>
<polygon fill="#850820" points="323.155,19.420 288.919,69.237 181.157,116.552  "/>
<polygon fill="#f588fb" points="416.110,135.098 122.046,505.050 215.057,254.003  "/>
<polygon fill="#0404c6" points="264.508,567.592 226.059,324.423 230.586,520.902  "/>
<polygon fill="#1bdca1" points="536.464,80.074 333.574,393.099 383.089,242.158  "/>
<polygon fill="#d2cd34" points="137.828,510.096 123.166,139.672 66.699,421.584  "/>
<polygon fill="#e972c6" points="84.879,585.264 51.656,410.582 423.671,96.410  "/>
<polygon fill="#23a5d0" points="295.937,471.226 529.750,306.966 473.753,62.342  "/>
<polygon fill="#1de78e" points="393.118,59.491 177.653,349.767 539.674,429.052  "/>
<polygon fill="#72877b" points="475.975,540.220 431.460,219.807 519.736,198.206  "/>
<polygon fill="#4ec90e" points="34.787,395.614 107.659,576.860 445.272,526.895  "/>
<polygon fill="#69ded0" points="273.539,130.481 84.735,160.091 38.370,74.255  "/>
<polygon fill="#c121c9" points="53.041,75.800 318.011,421.469 358.307,151.972  "/>
<polygon fill="#57703e" points="29.953,473.169 479.456,362.667 350.804,468.926  "/>
<polygon fill="#17b76a" points="231.058,148.745 20.425,402.365 412.283,230.788  "/>
<polygon fill="#d99faa" points="238.453,29.508 111.141,254.074 207.726,509.725  "/>
<polygon fill="#4bcaaf" points="62.405,444.781 327.246,97.069 413.779,70.819  "/>
<polygon fill="#97a417" points="289.287,554.757 113.956,205.559 358.611,195.249  "/>
<polygon fill="#16fe40" points="429.465,15.759 255.317,437.727 329.603,134.889  "/>
<polygon fill="#90a56d" points="48.350,542.227 234.477,555.481 10.396,82.536  "/>
<polygon fill="#1ce795" points="225.220,157.887 202.359,461.982 2.777,479.087  "/>
<polygon fill="#7ab7b0" points="17.406,382.514 222.191,211.466 309.633,37.554  "/>
<polygon fill="#fe8594" points="332.688,151.163 134.826,595.533 80.049,50.377  "/>
<polygon fill="#e90857" points="549.516,61.102 368.440,5.931 92.391,358.579  "/>
<polygon fill="#67af18" points="309.685,459.690 139.523,308.298 9.276,347.483  "/>
<polygon fill="#e0bfeb" points="376.469,392.503 223.263,474.286 453.055,575.904  "/>
<polygon fill="#3a785c" points="366.483,412.488 264.876,69.982 78.236,352.718  "/>
<polygon fill="#29e953" points="341.595,555.031 499.688,234.014 579.542,101.142  "/>
<polygon fill="#5fc29f" points="263.521,486.943 402.043,402.824 537.295,200.558  "/>
<polygon fill="#e6322a" points="527.274,221.698 583.594,437.180 545.391,169.399  "/>
<polygon fill="#2486fb" points="55.950,138.738 253.351,133.402 417.979,460.672  "/>
<polygon fill="#ab857a" points="410.371,74.116 333.845,334.158 358.196,397.320  "/>
<polygon fill="#30c344" points="473.813,417.041 292.852,524.568 464.387,297.690  "/>
<polygon fill="#6fc6b3" points="0.770,109.976 74.725,133.856 137.395,153.291  "/>
<polygon fill="#7da738" points="352.620,416.316 548.911,304.244 367.535,582.405  "/>
<polygon fill="#14e263" points="582.883,13.306 488.278,558.919 306.686,595.003  "/>
<polygon fill="#d8e734" points="141.495,148.971 478.935,527.499 457.829,393.953  "/>
<polygon fill="#54173a" points="284.542,574.326 214.475,245.369 134.963,257.742  "/>
<polygon fill="#e88328" points="391.304,120.985 171.051,212.911 357.836,3.462  "/>
<polygon fill="#a0cd13" points="171.780,523.391 560.808,489.528 462.348,420.698  "/>
<polygon fill="#376a4f" points="260.368,543.883 471.860,259.517 276.813,447.786  "/>
<polygon fill="#00609c" points="302.370,146.746 199.439,442.700 439.575,399.699  "/>
<polygon fill="#9fa1fb" points="282.096,345.306 265.193,205.313 382.184,262.000  "/>
<polygon fill="#1766e3" points="486.616,444.337 282.440,282.860 183.990,97.803  "/>
<polygon fill="#042e5d" points="326.600,496.214 402.522,359.046 385.121,356.124  "/>
<polygon fill="#02dc87" points="544.372,556.293 220.726,260.445 261.573,498.176  "/>
<polygon fill="#afa181" points="88.393,68.635 547.797,139.837 350.480,360.781  "/>
<polygon fill="#407ac8" points="113.022,389.494 570.882,197.506 194.327,387.750  "/>
<polygon fill="#39ef9c" points="326.330,189.078 459.001,93.719 96.951,101.425  "/>
<polygon fill="#912c17" points="218.248,156.002 393.691,482.181 233.835,340.939  "/>
</svg>