<?xml version="1.0" encoding="utf-8"?>
<!-- Generator: Python script. InTeResTinG -->
<!DOCTYPE svg PUBLIC "-//W3C//DTD SVG 1.1//EN" "http://www.w3.org/Graphics/SVG/1.1/DTD/svg11.dtd">
<svg version="1.1" id="Layer_1" xmlns="http://www.w3.org/2000/svg" xmlns:xlink="http://www.w3.org/1999/xlink" x="0px" y="0px" width="600.000px" height="600.000px" viewBox="0 0 600.000 600.000" enable-background="new 0 0 600.000 600.000" xml:space="preserve">
<polygon fill="#99ae29" points="328.898,501.002 216.792,519.421 535.398,355.727  "/>
<polygon fill="#d5da3f" points="365.817,94.415 276.219,24.059 210.711,134.988  "/>
<polygon fill="#acc611" points="76.927,217.768 445.687,471.502 266.565,328.771  "/>
<polygon fill="#0d29d1" points="525.705,226.288 31.248,551.580 423.573,469.534  "/>
<polygon fill="#708618" points="270.526,576.557 419.340,39.078 226.635,383.755  "/>
<polygon fill="#c3e6a0" points="14.437,575.616 540.629,569.240 501.924,206.312  "/>
<polygon fill="#9e7219" points="559.549,76.061 260.415,282.549 472.205,190.726  "/>
<polygon fill="#626371" points="545.575,556.508 221.733,143.141 11.279,559.692  "/>
<polygon fill="#11f455" points="241.994,316.763 213.621,363.039 70.935,209.775  "/>
<polygon fill="#d14ae7" points="111.734,262.651 65.968,298.595 77.337,314.594  "/>
<polygon fill="#3d3128" points="60.596,329.605 402.641,402.297 431.824,502.060  "/>
<polygon fill="#3d5d8c" points="22.917,502.015 28.905,168.949 271.512,224.884  "/>
<polygon fill="#41bf50" points="196.501,235.600 177.653,204.810 46.332,62.878  "/>
<polygon fill="#be3092" points="225.096,173.445 24.404,413.846 177.520,488.228  "/>
<polygon fill="#dfaf47" points="448.407,559.388 103.160,447.711 526.045,389.757  "/>
<polygon fill="#e5853f" points="266.262,27.703 285.730,16.180 558.705,493.767  "/>
<polygon fill="#b7049b" points="430.486,62.835 108.662,265.050 477.221,279.028  "/>
<polygon fill="#3bc28c" points="385.162,415.894 269.896,139.856 372.890,471.856  "/>
<polygon fill="#463765" points="269.923,578.946 211.790,186.406 254.912,318.887  "/>
<polygon fill="#6bf697" points="493.701,561.163 354.509,99.450 6.297,99.962  "/>
<polygon fill="#6cb337" points="282.555,48.413 503.305,123.413 105.390,591.032  "/>
<polygon fill="#f395a5" points="66.813,588.796 309.320,202.577 102.374,103.898  "/>
<polygon fill="#766d47" points="264.930,210.471 433.163,95.089 35.474,143.747  "/>
<polygon fill="#2b049f" points="317.389,428.760 126.222,251.871 37.837,306.098  "/>
<polygon fill="#415f5d" points="300.743,58.130 565.396,102.818 440.996,539.831  "/>
<polygon fill="#faa7ea" points="410.152,55.709 35.699,406.807 123.806,313.012  "/>
<polygon fill="#49c6cc" points="417.689,244.444 538.086,479.701 469.108,512.282  "/>
<polygon fill="#6a15be" points="461.967,261.570 383.923,320.196 314.712,167.970  "/>
<polygon fill="#1d0e4c" points="158.242,525.313 25.498,555.258 165.440,449.250  "/>
<polygon fill="#83e074" points="153.455,544.914 305.568,386.484 406.892,370.295  "/>
<polygon fill="#1c361f" points="152.007,481.665 374.063,568.748 83.436,369.875  "/>
<polygon fill="#dfcf2c" points="213.238,335.298 438.696,231.173 289.212,469.624  "/>
<polygon fill="#d49449" points="220.336,80.517 375.678,535.524 104.121,77.655  "/>
<polygon fill="#2ab6a4" points="221.632,445.884 265.906,175.967 97.020,10.934  "/>
<polygon fill="#7f9fa4" points="386.577,220.190 564.536,142.808 436.320,515.169  "/>
<polygon fill="#89dd9f" points="561.469,14.490 239.522,158.792 520.100,27.812  "/>
<polygon fill="#54cd8e" points="183.726,433.175 235.805,414.256 354.223,324.715  "/>
<polygon fill="#70258c" points="343.973,462.687 209.034,479.182 191.819,99.373  "/>
<polygon fill="#4fc569" points="592.455,539.144 571.106,368.918 118.964,440.544  "/>
<polygon fill="#593610" points="478.364,404.534 462.771,210.367 288.006,299.573  "/>
<polygon fill="#8bae7f" points="86.744,541.239 510.073,141.032 45.705,581.607  "/>
<polygon fill="#06ac2a" points="455.019,57.128 597.972,311.586 119.714,52.946  "/>
<polygon fill="#6ac519" points="599.090,384.717 507.382,222.795 219.435,505.028  "/>
<polygon fill="#1715fa" points="357.215,362.134 157.264,256.293 434.137,521.034  "/>
<polygon fill="#fdc60c" points="206.578,351.903 14.897,569.698 181.334,55.588  "/>
<polygon fill="#635177" points="563.557,598.577 534.513,203.945 474.357,239.722  "/>
<polygon fill="#481597" points="186.979,431.823 554.104,597.079 136.169,284.486  "/>
<polygon fill="#b27c72" points="409.249,325.531 263.755,125.195 544.856,285.426  "/>
<polygon fill="#42fb80" points="402.452,2.272 376.055,573.792 582.958,479.825  "/>
<polygon fill="#4e0c9e" points="190.338,401.174 141.476,59.914 316.773,22.984  "/>
<polygon fill="#1e1577" points="402.738,565.066 86.708,187.629 479.608,498.657  "/>
<polygon fill="#7cec15" points="363.888,376.623 343.797,281.131 411.649,420.832  "/>
<polygon fill="#dba2eb" points="163.714,228.171 558.112,308.414 544.455,479.918  "/>
<polygon fill="#7b3895" points="58.499,136.792 194.708,21.635 370.286,269.710  "/>
<polygon fill="#eed1a5" points="51.752,578.784 532.822,116.303 502.633,590.313  "/>
<polygon fill="#3b606f" points="256.838,598.090 215.069,440.472 534.106,180.222  "/>
<polygon fill="#0f825b" points="150.880,537.943 296.598,304.476 422.056,84.562  "/>
<polygon fill="#daa4f4" points="77.098,553.887 526.012,206.438 566.175,145.521  "/>
<polygon fill="#1a922c" points="221.834,218.058 257.446,530.243 203.978,435.839  "/>
<polygon fill="#c4c990" points="289.405,571.706 362.722,140.395 215.128,411.689  "/>
<polygon fill="#a953ed" points="279.487,83.297 409.664,393.407 270.315,533.915  "/>
<polygon fill="#b0e0c9" points="259.203,191.544 379.937,14.316 402.560,491.902  "/>
<polygon fill="#0baf1d" points="193.134,264.772 310.200,444.206 202.046,204.730  "/>
<polygon fill="#ac9b9a" points="97.603,231.575 351.563,255.264 232.174,223.409  "/>
<polygon fill="#f62fed" points="112.483,478.689 332.563,198.149 4.221,22.225  "/>
<polygon fill="#983e9f" points="398.637,370.918 102.667,454.871 560.716,89.256  "/>
<polygon fill="#84389f" points="539.417,484.067 240.844,488.829 46.333,431.276  "/>
<polygon fill="#67ef16" points="325.891,271.892 435.847,227.358 105.415,585.782  "/>
</svg>