<?xml version="1.0" encoding="utf-8"?>
<!-- Generator: Python script. InTeResTinG -->
<!DOCTYPE svg PUBLIC "-//W3C//DTD SVG 1.1//EN" "http://www.w3.org/Graphics/SVG/1.1/DTD/svg11.dtd">
<svg version="1.1" id="Layer_1" xmlns="http://www.w3.org/2000/svg" xmlns:xlink="http://www.w3.org/1999/xlink" x="0px" y="0px" width="600.000px" height="600.000px" viewBox="0 0 600.000 600.000" enable-background="new 0 0 600.000 600.000" xml:space="preserve">
<polygon fill="#aafb39" points="278.610,452.616 276.620,309.130 393.376,104.120  "/>
<polygon fill="#327413" points="406.908,539.871 339.119,539.319 42.378,39.001  "/>
<polygon fill="#f8f7ed" points="348.574,30.124 70.216,576.045 236.352,229.748  "/>
<polygon fill="#d3adbf" points="208.862,256.445 238.047,589.935 354.643,262.739  "/>
<polygon fill="#50f535" points="312.729,280.881 340.808,172.147 471.652,566.911  "/>
<polygon fill="#d4e766" points="71.797,585.061 154.632,496.285 104.636,511.930  "/>
<polygon fill="#cfd20a" points="61.705,530.976 293.231,208.448 263.210,462.771  "/>
<polygon fill="#45861f" points="250.467,391.106 401.976,71.229 124.814,137.584  "/>
<polygon fill="#cade6b" points="576.157,591.277 53.908,446.302 405.191,508.361  "/>
<polygon fill="#de3824" points="288.674,302.336 45.727,553.095 443.111,69.519  "/>
<polygon fill="#7e8323" points="46.110,471.955 139.564,28.031 210.080,465.815  "/>
<polygon fill="#89d64f" points="357.774,293.519 182.227,552.301 134.758,483.966  "/>
<polygon fill="#3d05e7" points="415.505,198.779 501.671,479.449 289.772,336.153  "/>
<polygon fill="#524f1d" points="29.234,248.176 152.976,548.365 393.161,575.270  "/>
<polygon fill="#c403e2" points="583.735,288.012 70.813,169.400 358.702,209.880  "/>
<polygon fill="#e1ce70" points="356.088,433.921 528.824,309.896 138.822,75.797  "/>
<polygon fill="#2f6aa6" points="565.246,573.399 354.678,79.581 366.244,127.661  "/>
<polygon fill="#8de96d" points="366.068,86.922 502.777,23.543 344.889,352.395  "/>
<polygon fill="#b8320d" points="461.923,29.020 240.550,504.231 98.946,255.037  "/>
<polygon fill="#8bfc6b" points="299.380,285.797 557.656,596.994 364.691,49.799  "/>
<polygon fill="#575f1c" points="525.705,376.069 525.106,499.169 251.200,478.148  "/>
<polygon fill="#480b6d" points="69.971,237.882 449.099,147.947 446.420,162.171  "/>
<polygon fill="#563adb" points="341.486,334.110 439.203,156.447 504.746,51.277  "/>
<polygon fill="#29d8fd" points="213.273,437.943 215.816,508.445 557.034,597.770  "/>
<polygon fill="#e67a6b" points="557.691,469.110 323.081,7.488 392.479,341.616  "/>
<polygon fill="#965845" points="380.442,36.421 599.609,583.179 288.620,523.156  "/>
<polygon fill="#811c2d" points="408.353,198.476 202.103,580.566 306.015,386.909  "/>
<polygon fill="#8dd362" points="533.060,438.408 109.471,467.411 374.872,374.559  "/>
<polygon fill="#117cfe" points="157.717,573.828 69.130,514.062 369.473,370.305  "/>
<polygon fill="#fb4abb" points="346.881,217.730 265.306,460.058 484.144,387.496  "/>
<polygon fill="#3f1dac" points="100.579,283.282 459.169,177.795 390.440,486.755  "/>
<polygon fill="#fed1b2" points="432.522,159.140 207.440,48.424 17.428,586.804  "/>
<polygon fill="#8586fe" points="143.629,259.336 371.854,358.577 472.050,519.732  "/>
<polygon fill="#36b1af" points="277.633,176.818 479.087,188.422 283.730,237.278  "/>
<polygon fill="#be6de4" points="17.237,70.598 342.757,5.489 85.135,536.799  "/>
<polygon fill="#d86975" points="476.224,546.629 540.247,121.373 457.805,416.293  "/>
<polygon fill="#9bbf20" points="83.522,393.374 506.896,108.558 168.019,167.926  "/>
<polygon fill="#d7c034" points="577.276,41.912 185.433,437.898 383.649,565.451  "/>
<polygon fill="#bb4c6a" points="407.032,13.464 410.078,13.648 259.566,6.927  "/>
<polygon fill="#c8816a" points="560.871,500.747 435.889,256.759 56.079,129.012  "/>
<polygon fill="#cb67de" points="517.676,23.219 512.447,416.758 521.740,280.756  "/>
<polygon fill="#f85d11" points="69.618,411.531 263.631,126.293 463.250,101.204  "/>
<polygon fill="#d88036" points="447.603,315.394 212.589,9.748 179.145,417.619  "/>
<polygon fill="#6819f2" points="131.509,328.504 41.708,518.165 208.921,253.136  "/>
<polygon fill="#d2a48c" points="222.427,432.629 486.007,596.617 20.345,497.817  "/>
<polygon fill="#b3b61b" points="19.884,146.584 25.632,259.998 278.474,21.390  "/>
<polygon fill="#536723" points="71.330,182.224 197.673,128.356 143.292,36.007  "/>
<polygon fill="#620080" points="442.602,129.891 287.298,45.497 351.844,256.538  "/>
<polygon fill="#93c99f" points="376.125,174.096 531.654,154.721 110.168,585.638  "/>
<polygon fill="#7dcc57" points="450.485,387.036 375.687,555.047 377.958,315.058  "/>
</svg>