<?xml version="1.0" encoding="utf-8"?>
<!-- Generator: Python script. InTeResTinG -->
<!DOCTYPE svg PUBLIC "-//W3C//DTD SVG 1.1//EN" "http://www.w3.org/Graphics/SVG/1.1/DTD/svg11.dtd">
<svg version="1.1" id="Layer_1" xmlns="http://www.w3.org/2000/svg" xmlns:xlink="http://www.w3.org/1999/xlink" x="0px" y="0px" width="600.000px" height="600.000px" viewBox="0 0 600.000 600.000" enable-background="new 0 0 600.000 600.000" xml:space="preserve">
<polygon fill="#e49934" points="285.332,364.671 59.473,156.522 455.585,482.070  "/>
<polygon fill="#9769ad" points="496.517,397.220 286.461,531.289 482.819,250.977  "/>
<polygon fill="#7c7e8c" points="245.148,171.464 268.318,561.101 575.873,20.205  "/>
<polygon fill="#542737" points="96.553,322.004 159.425,154.260 64.639,546.228  "/>
<polygon fill="#cbb919" points="309.485,135.217 525.386,517.205 386.565,456.693  "/>
<polygon fill="#13111a" points="108.851,281.263 293.177,434.705 439.833,65.333  "/>
<polygon fill="#77c963" points="414.890,3.106 424.910,297.986 508.235,214.421  "/>
<polygon fill="#cfb787" points="585.470,404.495 88.882,575.373 595.284,19.150  "/>
<polygon fill="#a62049" points="527.621,199.019 167.072,470.979 188.141,450.258  "/>
<polygon fill="#6fd15a" points="321.476,332.179 282.121,466.987 401.362,85.368  "/>
<polygon fill="#74095d" points="449.571,167.168 331.857,149.706 356.589,578.911  "/>
<polygon fill="#0406fd" points="522.315,564.968 214.774,371.758 503.707,200.915  "/>
<polygon fill="#f0a7c8" points="316.139,175.984 422.437,228.651 349.161,112.073  "/>
<polygon fill="#df8aa7" points="319.932,148.866 374.813,571.022 65.492,224.435  "/>
<polygon fill="#dbf4a4" points="273.163,440.588 524.268,484.139 1.750,179.092  "/>
<polygon fill="#311e21" points="326.229,313.967 75.589,2.186 153.008,548.211  "/>
<polygon fill="#cd8e8f" points="97.689,28.508 302.088,301.131 132.082,532.959  "/>
<polygon fill="#55e9b2" points="510.284,180.305 32.669,85.944 67.796,16.825  "/>
<polygon fill="#2969ac" points="52.953,497.252 564.082,249.379 465.998,221.724  "/>
<polygon fill="#d656cf" points="451.014,301.325 50.289,253.344 344.389,512.325  "/>
<polygon fill="#8529a1" points="366.661,11.159 215.234,341.277 518.592,503.413  "/>
<polygon fill="#57af43" points="287.550,147.379 386.750,120.569 118.548,58.181  "/>
<polygon fill="#3cae27" points="165.122,530.832 545.276,223.275 517.620,415.228  "/>
<polygon fill="#85b1cd" points="565.965,564.143 282.919,467.521 362.835,170.693  "/>
<polygon fill="#b26090" points="171.849,557.893 528.013,337.222 53.503,471.787  "/>
<polygon fill="#b03bc1" points="365.856,461.769 387.882,157.808 492.509,145.869  "/>
<polygon fill="#0b0200" points="163.500,443.791 462.134,95.127 372.564,57.392  "/>
<polygon fill="#1f9373" points="123.838,284.802 113.336,110.717 201.257,401.884  "/>
<polygon fill="#65c0b8" points="44.717,45.071 309.901,202.691 93.407,275.595  "/>
<polygon fill="#76fe5e" points="473.899,81.566 309.637,463.860 44.391,352.600  "/>
<polygon fill="#fe7f37" points="0.065,450.460 478.348,327.194 133.069,15.635  "/>
<polygon fill="#3f7200" points="188.394,222.941 85.648,408.903 391.054,407.957  "/>
<polygon fill="#7dd6b7" points="589.181,420.322 509.731,593.828 202.987,471.121  "/>
<polygon fill="#7127b0" points="21.940,440.990 477.181,92.232 231.334,472.305  "/>
<polygon fill="#b8b7aa" points="531.705,140.020 570.516,502.779 376.195,407.693  "/>
<polygon fill="#9e2106" points="559.406,299.724 104.583,339.733 111.131,264.937  "/>
<polygon fill="#28df1e" points="420.807,411.681 367.116,453.898 44.508,5.943  "/>
<polygon fill="#0422ca" points="215.769,420.221 386.401,553.141 327.174,281.158  "/>
<polygon fill="#848121" points="117.944,514.905 483.128,554.084 392.050,389.109  "/>
<polygon fill="#05e1ee" points="78.853,349.414 142.423,573.379 259.746,330.070  "/>
<polygon fill="#789268" points="276.850,570.838 150.466,106.890 364.332,177.865  "/>
<polygon fill="#4a7928" points="301.796,384.405 585.542,384.999 374.892,391.690  "/>
<polygon fill="#016089" points="301.550,460.122 113.245,18.597 28.590,389.559  "/>
<polygon fill="#166135" points="459.473,44.837 74.867,1.679 186.109,549.545  "/>
<polygon fill="#82c120" points="81.618,156.727 461.345,95.243 171.435,368.739  "/>
<polygon fill="#d4edeb" points="460.983,577.059 574.523,67.531 465.031,553.326  "/>
<polygon fill="#14330f" points="69.865,378.935 595.022,61.286 5.686,45.114  "/>
<polygon fill="#865adb" points="586.082,22.013 301.406,382.075 287.881,317.756  "/>
<polygon fill="#39f5d1" points="521.730,509.741 202.304,402.691 131.925,424.810  "/>
<polygon fill="#f6cc52" points="97.087,447.966 112.895,510.737 177.816,260.263  "/>
<polygon fill="#7d5a8e" points="160.511,304.095 180.964,369.110 569.868,360.420  "/>
<polygon fill="#b685ac" points="423.574,31.293 27.911,401.478 444.405,420.186  "/>
<polygon fill="#1408d9" points="124.161,364.838 364.372,168.281 241.969,428.329  "/>
</svg>