<?xml version="1.0" encoding="utf-8"?>
<!-- Generator: Python script. InTeResTinG -->
<!DOCTYPE svg PUBLIC "-//W3C//DTD SVG 1.1//EN" "http://www.w3.org/Graphics/SVG/1.1/DTD/svg11.dtd">
<svg version="1.1" id="Layer_1" xmlns="http://www.w3.org/2000/svg" xmlns:xlink="http://www.w3.org/1999/xlink" x="0px" y="0px" width="600.000px" height="600.000px" viewBox="0 0 600.000 600.000" enable-background="new 0 0 600.000 600.000" xml:space="preserve">
<polygon fill="#9a13c9" points="206.766,320.102 174.024,146.017 214.887,355.806  "/>
<polygon fill="#0ada83" points="5.769,288.085 365.912,419.626 514.849,293.885  "/>
<polygon fill="#28ad25" points="149.402,196.261 342.217,379.714 125.414,254.335  "/>
<polygon fill="#c46239" points="38.837,510.026 294.995,420.258 279.385,314.485  "/>
<polygon fill="#88b973" points="184.494,73.715 356.492,34.782 265.582,220.855  "/>
<polygon fill="#cb5044" points="299.809,217.668 317.853,42.665 276.027,121.131  "/>
<polygon fill="#a622d5" points="285.406,97.435 171.660,3.412 192.557,152.079  "/>
<polygon fill="#94f6c3" points="397.620,51.368 336.748,96.926 433.413,74.770  "/>
<polygon fill="#666ce2" points="438.878,444.090 343.104,438.457 122.050,108.867  "/>
<polygon fill="#88348f" points="147.060,38.153 3.841,272.524 74.562,218.302  "/>
<polygon fill="#d49850" points="318.391,554.622 428.236,477.829 397.025,438.482  "/>
<polygon fill="#2bcc8b" points="382.533,565.369 116.275,528.317 43.016,575.984  "/>
<polygon fill="#22faa0" points="509.728,473.641 570.116,231.820 359.691,253.532  "/>
<polygon fill="#9878c6" points="534.614,376.053 13.821,466.010 540.560,492.851  "/>
<polygon fill="#d82424" points="252.571,282.370 139.978,578.284 390.527,332.340  "/>
<polygon fill="#678c8d" points="21.181,364.730 371.041,231.549 299.617,417.005  "/>
<polygon fill="#07df47" points="391.966,314.604 12.767,122.203 129.528,64.416  "/>
<polygon fill="#ec7cec" points="463.002,439.670 283.194,230.212 199.530,17.114  "/>
<polygon fill="#71f1a8" points="436.070,400.279 116.898,323.381 200.962,388.810  "/>
<polygon fill="#94f644" points="255.401,353.801 186.203,376.511 109.520,23.224  "/>
<polygon fill="#4a5ff0" points="555.236,33.563 151.944,316.004 75.696,276.245  "/>
<polygon fill="#9c2837" points="540.395,377.602 324.535,251.234 400.379,324.292  "/>
<polygon fill="#c600eb" points="101.708,382.545 583.021,270.737 156.538,471.954  "/>
<polygon fill="#a64dc6" points="460.969,277.693 246.116,182.866 507.462,67.321  "/>
<polygon fill="#38cd20" points="181.052,170.799 528.910,159.825 440.071,66.636  "/>
<polygon fill="#4f1b54" points="165.371,170.685 435.964,167.237 308.620,183.101  "/>
<polygon fill="#162d61" points="289.415,475.561 405.424,317.216 328.072,591.921  "/>
<polygon fill="#88ff5f" points="271.127,77.529 207.490,195.817 23.707,41.619  "/>
<polygon fill="#be3acb" points="473.661,59.013 271.101,132.256 572.302,556.483  "/>
<polygon fill="#e45c6f" points="6.350,554.206 42.982,28.996 196.592,392.395  "/>
<polygon fill="#ced476" points="324.030,23.109 508.323,550.021 93.863,596.948  "/>
<polygon fill="#3eab52" points="582.877,43.084 341.549,297.012 430.387,208.174  "/>
<polygon fill="#e7cb53" points="489.515,140.946 213.181,5.901 598.760,15.759  "/>
<polygon fill="#ac7836" points="169.572,512.187 32.456,174.761 155.934,98.388  "/>
<polygon fill="#8e79bf" points="275.098,542.292 222.670,559.658 493.887,264.712  "/>
<polygon fill="#d7b6c3" points="51.535,89.277 241.867,399.466 250.988,55.524  "/>
<polygon fill="#b58d9f" points="393.438,366.987 570.726,408.031 307.703,442.383  "/>
<polygon fill="#c2cd40" points="327.865,149.118 111.892,458.953 453.515,463.907  "/>
<polygon fill="#5183c1" points="571.064,390.196 223.134,166.694 80.495,407.780  "/>
<polygon fill="#9f2a31" points="65.437,586.144 481.405,92.956 418.318,471.815  "/>
<polygon fill="#e5e973" points="553.937,317.893 236.733,571.412 487.091,4.687  "/>
<polygon fill="#3e1041" points="178.885,75.942 298.228,492.993 308.115,457.265  "/>
<polygon fill="#73cfab" points="273.525,426.527 199.754,304.504 57.955,519.605  "/>
<polygon fill="#c5b9a2" points="177.587,191.269 289.739,123.140 580.414,30.172  "/>
<polygon fill="#214250" points="287.114,62.592 34.073,180.961 359.086,577.881  "/>
<polygon fill="#4473d9" points="244.369,133.203 354.999,55.496 291.961,545.687  "/>
<polygon fill="#248b15" points="338.120,143.660 235.607,100.052 199.964,515.334  "/>
<polygon fill="#27e9ca" points="245.466,145.990 10.575,571.073 494.376,182.015  "/>
<polygon fill="#bd95c1" points="250.836,280.152 381.866,414.449 587.690,222.998  "/>
<polygon fill="#db4875" points="274.295,301.897 3.213,164.854 487.173,104.322  "/>
<polygon fill="#d8791b" points="391.152,173.743 221.347,180.102 225.905,344.781  "/>
<polygon fill="#14730e" points="349.944,459.655 520.012,508.041 254.649,59.416  "/>
<polygon fill="#5a00c5" points="53.448,302.057 557.180,146.657 492.508,258.111  "/>
<polygon fill="#e1bc49" points="445.973,123.783 92.796,421.252 448.968,126.896  "/>
<polygon fill="#27fa94" points="493.475,443.772 334.002,450.554 365.247,504.156  "/>
<polygon fill="#5ab39d" points="452.873,162.114 110.627,149.220 405.634,292.980  "/>
<polygon fill="#29edfc" points="58.995,103.097 112.091,98.196 456.841,37.428  "/>
<polygon fill="#23f80d" points="171.018,39.360 359.508,468.130 13.560,110.340  "/>
<polygon fill="#bcdf86" points="55.496,540.098 282.414,125.802 357.522,85.034  "/>
<polygon fill="#2563b2" points="525.120,366.012 536.397,470.909 129.646,133.336  "/>
<polygon fill="#4a1a12" points="438.035,396.994 408.825,473.639 352.069,271.009  "/>
</svg>