<?xml version="1.0" encoding="utf-8"?>
<!-- Generator: Python script. InTeResTinG -->
<!DOCTYPE svg PUBLIC "-//W3C//DTD SVG 1.1//EN" "http://www.w3.org/Graphics/SVG/1.1/DTD/svg11.dtd">
<svg version="1.1" id="Layer_1" xmlns="http://www.w3.org/2000/svg" xmlns:xlink="http://www.w3.org/1999/xlink" x="0px" y="0px" width="600.000px" height="600.000px" viewBox="0 0 600.000 600.000" enable-background="new 0 0 600.000 600.000" xml:space="preserve">
<polygon fill="#6b781f" points="246.057,15.591 408.245,525.911 326.681,376.624  "/>
<polygon fill="#96793d" points="458.269,83.052 34.893,377.837 50.771,471.648  "/>
<polygon fill="#daecdb" points="168.716,198.401 216.342,467.478 462.317,96.054  "/>
<polygon fill="#051b78" points="88.682,32.115 258.603,129.413 92.956,367.546  "/>
<polygon fill="#8f8002" points="499.195,575.802 360.142,228.935 155.524,49.789  "/>
<polygon fill="#b6346a" points="216.904,358.140 224.750,273.327 280.645,360.957  "/>
<polygon fill="#e9622b" points="390.316,368.208 198.037,484.604 459.882,21.950  "/>
<polygon fill="#4596e0" points="207.637,244.894 446.650,280.743 486.417,420.593  "/>
<polygon fill="#a66c35" points="23.732,426.864 118.893,435.651 367.675,386.656  "/>
<polygon fill="#b5fb1d" points="593.572,51.247 431.737,366.959 129.443,565.124  "/>
<polygon fill="#df1e59" points="555.147,7.626 146.737,436.088 304.652,322.056  "/>
<polygon fill="#fe2f0e" points="9.368,166.180 379.102,96.534 318.561,227.154  "/>
<polygon fill="#15273f" points="262.528,212.974 225.521,466.943 458.452,542.319  "/>
<polygon fill="#f4f619" points="561.946,253.837 337.902,260.169 444.299,596.172  "/>
<polygon fill="#44c81b" points="67.878,396.245 48.484,71.662 133.804,80.736  "/>
</svg>